<?xml version="1.0" encoding="utf-8"?>
<!-- Generator: Adobe Illustrator 24.3.0, SVG Export Plug-In . SVG Version: 6.00 Build 0)  -->
<svg version="1.1" id="Layer_1" xmlns="http://www.w3.org/2000/svg" xmlns:xlink="http://www.w3.org/1999/xlink" x="0px" y="0px"
	 viewBox="0 0 4724.5 1516.8" style="enable-background:new 0 0 4724.5 1516.8;" xml:space="preserve">
<style type="text/css">
	.st0{opacity:0.2;fill:#E4E5E7;enable-background:new    ;}
	.st1{fill:#494B50;stroke:#494B50;stroke-width:4;stroke-miterlimit:10;}
	.st2{fill:#49A6EB;stroke:#494B50;stroke-width:4;stroke-miterlimit:10;}
	.st3{fill:#FF0314;stroke:#494B50;stroke-width:8;stroke-miterlimit:10;}
	.st4{fill:none;stroke:#494B50;stroke-width:4;stroke-miterlimit:10;}
	.st5{fill:#494B50;stroke:#E4E5E7;stroke-width:4;stroke-miterlimit:10;}
	.st6{fill:#E4E5E7;stroke:#494B50;stroke-width:8;stroke-miterlimit:10;}
	.st7{fill:#EEF1F6;stroke:#494B50;stroke-width:8;stroke-miterlimit:10;}
	.st8{fill:#FFFFFF;stroke:#494B50;stroke-width:4;stroke-miterlimit:10;}
	.st9{fill:#FF0314;stroke:#494B50;stroke-width:6;stroke-miterlimit:10;}
	.st10{fill:#494B50;stroke:#494B50;stroke-width:6;stroke-miterlimit:10;}
	.st11{fill:none;stroke:#494B50;stroke-width:2;stroke-miterlimit:10;}
	.st12{fill:none;stroke:#494B50;stroke-width:6;stroke-linejoin:round;stroke-miterlimit:10;}
</style>
<g id="Layer_2_1_">
	<g id="Color">
		<g id="Body">
			<path id="Glass" class="st0" d="M4715.2,1283c-5.3-2.1-9.2-4.2-13.6-16.7s10.7-141.4,10.7-141.4c1-20.5,8.9-106.5,5.7-134.1
				c-1-9.4-11.7-28.2-11.7-28.2s-24-41.5-39.7-56.9s-83.5-51.6-111.7-74.6c-30.2-23.1-163.2-170.5-205.8-193.3
				c-95.4-24.4-297.2-59.4-395-73.8c-244.9-39.2-747-94.3-771.1-97c-1.6-1.5-18-3.4-32.3-8c-14.8-4.7-27.4-11.9-28.4-10.5
				c-2.2-0.9-4.4-1.9-6.3-2.7l-0.4,0.4v0.2l-0.2-0.1l-8.4-4.6l-26.1-20.1c-0.4,0-23.4-17.3-22.1-16.9L2572.7,31.6l-0.2-0.1l-1-0.8
				c-8.7-6.3-15.4-4.9-15.4-4.9c-14.9-8.4-181.6-24.6-404.6-21.3c-192.2,2.8-426.5,20.1-642.4,69.1c-21.3,4.8-20.5,36.2-39.3,44.3
				C1451,126,1330,162.3,1330,162.3c-143.4,47.4-336.6,119.4-475.3,179.2c-41,17.7-73.2,38.2-126.8,46.4
				c-73.2,6.5-146.1,16-218.6,24c-8.1,0.5-17.5-5-17.5-5c-42.2-34.4-108.2-69.6-192-69.4c-65.7,5.4-84.9,27-59,76.2
				c20.1,32.6,52.7,104.6,52.7,104.6c35.9,60.8-14.7,88.7-71.7,119.7c-20,10.9-66.5,30.2-68.9,51.4c-15.5,10.3-81.2,80.5-85.4,107.2
				c0,0-46.3,22-55.4,39.4c-8.3,15.9-8.3,41.2-8.3,41.2s25.9,265.3,42.3,291.1s45.4,42.3,45.4,42.3c40.5,4.5,373.6,61.6,464.9,63.1
				c8.9,0.1,72.3,0.9,69-7.4c0-0.1-0.1-0.2-0.1-0.3h0.3c0-14.5,13.9-11.7,13.9-11.7h27.8l9.7-0.1l724.7-4.7h5.6l90.9,9
				c0.6,22.5,1.9,46.6,5.1,74.3c7.9,8,68.1,1.4,120-9.9c391.8-40,133-13,738.8-12c614.6,14.3,782,15.5,830,25.8s73.5,9.1,86.8,2.8
				c10-4.6,15.6-9.6,18.2-34.6h0.1c0,0,37.6-5.4,133-10.2h0.7l687.7,1.4c0,0,24.2,7.5,30.9,13c18.8,15.9,6.3,28.4,11.8,33.9
				c4.8,4.7,50,29.9,61.5,36.3c0.8,0.7,1.6,1.3,2.5,1.8c127.9-5.3,327.3-28.5,390.5-36C4679.4,1337.5,4739,1305.2,4715.2,1283z
				 M4636.7,1086.8h-114c-17.1,0-39.7-25.4-40.7-52.3c-1-27.3,4.4-31.3,22.8-31.3c34.9,0,129.6,0.7,158.7,0.7
				c29.9,0,33-3.7,36.1,5.7s1.6,59.5-7.3,68.9C4683.4,1087.9,4636.7,1086.8,4636.7,1086.8z"/>
			<path id="Outer" class="st1" d="M4715.2,1283c-5.3-2.1-9.2-4.2-13.6-16.7s10.7-141.4,10.7-141.4c1-20.5,8.9-106.5,5.7-134.1
				c-1-9.4-11.7-28.2-11.7-28.2s-24-41.5-39.7-56.9s-83.5-51.6-111.7-74.6c-30.2-23.1-163.2-170.5-205.8-193.3
				c-95.4-24.4-297.2-59.4-395-73.8c-244.9-39.2-747-94.3-771.1-97c-3.2-3-6.7-5.6-10.5-7.8c-1.5-11.3-4.6-21.4,2.7-18.5
				c55-47-97.3-26.1-119.7-37.2l24.1,18c14.4,1.4,33,4.9,44.9,13.6l23.3-1.7c-7.3,2.1-9.6,7.3-9.6,7.3c-8.2-1.4-13.9,5.1-15.9,7.8
				c-2.2-0.9-4.4-1.9-6.3-2.7l-0.4,0.4v0.2l0,0l-0.2-0.1l-8.7-4.8l0,0c-0.1,0-0.1,0-0.2-0.1l-2.3,1.2l-0.3,0.2c0,0-1.7,0.9-2.6,1.3
				c-3.4,1.6-7.3,3.3-11.5,4.9c-1,0.4-1.9,0.7-2.9,1.1c-0.6,0.2-1.2,0.4-1.8,0.7l-1.8,0.6c-1.2,0.4-2.5,0.9-3.8,1.3s-2.6,0.8-4,1.2
				s-2.7,0.8-4.1,1.2l-4.2,1.2c-0.7,0.2-1.4,0.4-2.2,0.6l-4.4,1.2c-4.8,1.2-9.9,2.4-15.1,3.5c-2.9,0.6-5.9,1.2-8.9,1.8
				s-6.1,1.1-9.2,1.7c-4.7,0.8-9.4,1.5-14.2,2.2l-4.8,0.6c-2.2,0.3-4.3,0.5-6.5,0.8s-4.4,0.5-6.6,0.7c-2.9,0.3-5.8,0.5-8.8,0.7
				l-4.8,0.3h-0.7c-9.3,0.6-18.7,0.8-28,0.7c-1.8,0-3.6,0-5.3-0.1c-1.4,0-2.7-0.1-4.1-0.1l-6.7-0.3c-2.2-0.1-4.4-0.3-6.6-0.5
				c-0.8-0.1-1.7-0.2-2.5-0.2c-1.3-0.1-2.6-0.2-3.9-0.4c-1.9-0.2-3.7-0.4-5.6-0.7c-1.1-0.2-2.2-0.5-3.4-0.8
				c-0.4-0.1-0.8-0.2-1.2-0.4c-0.1,0-0.2,0-0.3-0.1c-0.4-0.1-0.8-0.2-1.2-0.4c-0.2-0.1-0.5-0.2-0.7-0.2c-0.4-0.1-0.8-0.3-1.1-0.4
				h-0.1c-0.5-0.2-1.1-0.4-1.6-0.6s-1.1-0.4-1.6-0.6c-0.6-0.2-1.1-0.4-1.6-0.7c-0.3-0.1-0.7-0.3-1-0.4c-2.4-1-4.7-2.2-7-3.5
				c-0.5-0.3-1.1-0.6-1.6-0.9s-1.1-0.6-1.6-0.9s-1-0.6-1.6-0.9c-1.5-0.9-3.1-1.9-4.6-2.9c-0.5-0.3-1-0.7-1.5-1s-1-0.7-1.5-1l-3-2.1
				c-6.4-4.5-12.6-9.5-18.4-14.5c-0.5-0.5-1.1-1-1.7-1.4c-2.3-2-4.5-4-6.6-6c-0.4-0.3-0.8-0.7-1.1-1.1c-6.4-6-11.9-11.6-16.2-16.1
				c-0.3-0.3-0.6-0.6-0.8-0.9c-1.3-1.3-2.4-2.6-3.4-3.7c-0.1-0.2-0.3-0.3-0.4-0.5c-2.3-2.6-3.9-4.3-4.5-5.1l-0.1-0.1
				c-0.1-0.1-0.1-0.1-0.1-0.2s0-0.1-0.1-0.1l0,0l0,0l-266.8-287.2c-2.7-2.8-5.3-5.8-7.7-8.7c-0.6-0.7-1.2-1.5-1.7-2.2
				c-0.3-0.4-0.6-0.8-0.8-1.1c-0.4-0.5-0.7-1-1-1.5c-0.2-0.2-0.3-0.5-0.5-0.7c-0.3-0.5-0.6-1-0.9-1.5c-0.3-0.4-0.5-0.8-0.8-1.2
				c-0.1-0.1-0.2-0.2-0.2-0.4c-0.5-0.8-0.9-1.5-1.3-2.3l-0.6-1.2l-0.6-1.2c-0.1-0.3-0.3-0.6-0.4-0.9c-0.3-0.5-0.5-1.1-0.7-1.7l0,0
				c-0.4-0.9-0.7-1.9-1-2.8l0,0c-2.8-9.1-1.5-18.2,6.6-27l0.6-0.6l0,0l0.6-0.6c0.4-0.5,0.9-0.9,1.4-1.3c0.3-0.2,0.5-0.4,0.7-0.7l0,0
				c0.6-0.6,1.3-1.1,2-1.7c1.1-0.8,2.2-1.7,3.3-2.5c0.8-0.6,1.6-1.1,2.5-1.7l0,0c0.8-0.5,1.7-1.1,2.6-1.6c1.5-0.9,3-1.7,4.7-2.6
				c1-0.5,2-1,3.1-1.5c0.7-0.3,1.4-0.7,2.1-1c0.4-0.2,0.7-0.3,1.1-0.5c0.8-0.4,1.6-0.7,2.4-1.1s1.7-0.7,2.5-1.1
				c0-0.2-1.8-5.7-8.4-10.5c-8.7-6.3-15.4-4.9-15.4-4.9c-14.9-8.4-181.6-24.6-404.6-21.3c-192.2,2.8-426.5,20.1-642.4,69.1
				c-21.3,4.8-20.5,36.2-39.3,44.3S1330,162.3,1330,162.3c-143.4,47.4-336.6,119.4-475.3,179.2c-41,17.7-73.2,38.2-126.8,46.4
				c-73.2,6.5-146.1,16-218.6,24c-8.1,0.5-17.5-5-17.5-5c-42.2-34.4-108.2-69.6-192-69.4c-65.7,5.4-84.9,27-59,76.2
				c20.1,32.6,52.7,104.6,52.7,104.6c35.9,60.8-14.7,88.7-71.7,119.7c-20,10.9-66.5,30.2-68.9,51.4c-15.5,10.3-81.2,80.5-85.4,107.2
				c0,0-46.3,22-55.4,39.4c-8.3,15.9-8.3,41.2-8.3,41.2s25.9,265.3,42.3,291.1s45.4,42.3,45.4,42.3c40.5,4.5,373.6,61.6,464.9,63.1
				c8.9,0.1,72.3,0.9,69-7.4c0-0.1-0.1-0.2-0.1-0.3h0.3c0-14.5,13.9-11.7,13.9-11.7h27.8l9.7-0.1l724.7-4.7h5.6l90.9,9
				c0.6,22.5,1.9,46.6,5.1,74.3c7.9,8,68.1,1.4,120-9.9c391.8-40,133-13,738.8-12c614.6,14.3,782,15.5,830,25.8s73.5,9.1,86.8,2.8
				c10-4.6,15.6-9.6,18.2-34.6h0.1c0,0,37.6-5.4,133-10.2h0.7l687.7,1.4c0,0,24.2,7.5,30.9,13c18.8,15.9,6.3,28.4,11.8,33.9
				c4.8,4.7,50,29.9,61.5,36.3c0.8,0.7,1.6,1.3,2.5,1.8c127.9-5.3,327.3-28.5,390.5-36C4679.4,1337.5,4739,1305.2,4715.2,1283z
				 M1515.5,460h-0.8c-0.1,0-12.1,0.2-31.9,0.2c-49.6,0-145.8-1.4-232.9-10.5c-47.9-5-86.5-11.7-114.8-19.9
				c-41.5-12-47.2-23.3-47.7-24.6c-0.9-2.3-1.6-5.5,1.1-11.2c3.8-8.2,14.7-22.1,44.4-41.7c20.9-13.7,48.1-28.2,80.7-42.8
				c56.3-25.4,109.7-42.8,110.2-42.9l0.3-0.1l0.3-0.1c0.6-0.2,60.1-21.6,141.7-46.3c48.6-14.7,111.7-32.5,176-47.2l99.3,290.2
				L1515.5,460z M2080.4,467.8l-274.1-3.8l-101.4-304.4c14.2-2.7,28.2-5.1,41.9-7.2c184.3-28.4,448.6-37.2,451.3-37.3
				c0.3,0,26.1-0.8,62.2-0.8c29.1,0,69.6,0.6,108.9,2.9l132.1,350.6L2080.4,467.8z M2680,346.9c-15.3,4-29.3,11.8-40.8,22.6
				c-2.5,2.4-5,4.8-7.3,7.4c-17.9,20-28,45.4-27.2,65.9c0,0-3.1,11.9,7,24.9v0.1h-84.6l-129-348.4c67.4,6.2,78.8,2,189.8,119.6
				C2625.2,278.4,2664.2,326.8,2680,346.9z M4636.7,1086.8h-114c-17.1,0-39.7-25.4-40.7-52.3c-1-27.3,4.4-31.3,22.8-31.3
				c34.9,0,129.6,0.7,158.7,0.7c29.9,0,33-3.7,36.1,5.7s1.6,59.5-7.3,68.9S4636.7,1086.8,4636.7,1086.8L4636.7,1086.8z"/>
			<g id="Paint">
				<path id="Mirror" class="st2" d="M2842.4,489.8L2842.4,489.8c-0.6,6.5-1.6,12.9-2.2,21.1c-1.6,19.6-38.4,33.3-72,31.3
					s-50.1-7.8-57.1-21.9s30.5-30.5,30.5-30.5h-76.9c-15.5-1.5-29.7-4.3-38.1-9.4c-5.6-3.3-10.7-7.6-14.8-12.6
					c-10.2-13-7.1-25-7.1-25c-0.8-20.5,9.3-45.9,27.2-65.9c2.3-2.6,4.8-5,7.3-7.4c11.5-10.8,25.5-18.6,40.8-22.6
					c0.2,0,0.3-0.1,0.5-0.1c5.9-1.5,12-2.4,18.1-2.6c10.5-0.4,21.8,2.3,33.3,7.1c0.1,0,0.2,0.1,0.3,0.1
					c50.5,21.3,103.9,83.3,108.1,104.7c1.1,5.4,1.9,10.9,2.3,16.4v0.1C2843,478.4,2842.9,484.1,2842.4,489.8z"/>
				<path id="Body-2" class="st2" d="M4715.2,1283c-5.3-2.1-9.2-4.2-13.6-16.7s10.7-141.4,10.7-141.4c1-20.5,8.9-106.5,5.7-134.1
					c-1-9.4-11.7-28.2-11.7-28.2s-24-41.5-39.7-56.9c-4.7-4.2-9.8-8.1-15.1-11.6c-13.1-9-31.7-20.1-49.7-31.4s-35.6-22.5-46.9-31.6
					c-10.3-7.9-32.4-30.1-58.8-56.9c-22.9-23.1-48.9-49.7-73.2-73.4s-47-44.5-63.1-56.2c-3.4-2.5-7-4.8-10.7-6.9
					c-95.4-24.4-297.2-59.4-395-73.8c-153.7-24.6-408.6-55.5-583.2-75.7c-103.6-12-178.9-20.3-187.9-21.3
					c-14.5-1.6-35.2-8.4-51.9-14.9c-3.1-1.2-6-2.4-8.7-3.5s-1,1.3-1,1.3c-21.6,21.7-134.9,43-208.1,33.3
					c-22.9-4.8-49.5-27.5-67.9-45.7l-0.1-0.1c-13.4-13.3-22.5-24.3-22.5-24.3L2548,117c-22.7-23.8-48.7-77.1,8.1-91.1l0,0
					c-13.9-8.4-180.6-24.8-404.4-21.5c-192.2,2.8-426.5,20.1-642.4,69.1c-21.3,4.8-20.5,36.2-39.3,44.3s-139.8,44.4-139.8,44.4
					c-143.4,47.4-336.6,119.4-475.3,179.2c-21.9,9.4-41.2,19.7-62.7,28.4c-9.8,4-19.8,7.5-29.9,10.5c-20,10.2-29,43.7-30.6,50.6
					C527.2,509.1,313.7,593.1,231,633c-3,1.6-6,3.3-9,4.9c-4.4,2.4-10.1,5.2-16.3,8.4c-22,11.1-50.7,26.5-52.6,43
					c-2.6,1.7-6.6,5.2-11.6,9.8c-24.3,22.9-70.3,75.2-73.8,97.4c0,0-46.3,22-55.4,39.4C4,851.8,4,877.1,4,877.1
					s25.9,265.3,42.3,291.1s45.4,42.3,45.4,42.3c40.5,4.5,373.6,61.6,464.9,63.1c8.9,0.1,72.3,0.9,69-7.4
					c-2.1-5.7-19.7-1.4-30.7-15.9c-7.5-9.9-3.5-86.1-3.5-86.1c4.3-145.8,51.9-258.3,127.1-335.7c80.7-83.1,193.4-125.8,318.6-125.8
					c179,0,361.6,112.1,441.4,342.8c10.4,44.4,15,79.7,17.2,111.6c9.8-0.2,125.8-3.2,241.1-4.6c120.5-1.5,280.7,7.6,280.7,7.6
					l291.4,8.3l371.5,7.8c0,0,329.7,7.1,394.7,9.7c21.7,0.9,38.9,1.7,53.1,2.6c28.4,1.8,45,3.6,61.7,5.7c25,3.2,60.5,11.5,79.3,11.5
					c15.8,0,30.1-5.7,34.3-7.5c39.5-352.5,321.6-584.8,708-404.7c184.2,85.9,255.5,364.8,209.2,555.4c-6.4,3.2-6.8,23,2.8,30.8
					c0.6,0.5,1.2,0.9,1.9,1.3c127.9-5.3,327.3-28.5,390.5-36C4679.4,1337.5,4739,1305.2,4715.2,1283z M3132.1,1141.7l-314.4-9.6
					c0,0-442.4-9.9-565-12.5s-237.9,1.6-285.9-27.1S1875,937,1851.5,883.3s-71-200.3-71-200.3s-29.2-87.6-29.2-130.4
					c0.2-23.1,5.1-45.9,14.5-67l-250.6-3.5c0,0-12.1,0.2-32.3,0.2c-98.5,0-390.1-5.4-415.8-68.7c-31.1-76.8,250-167.9,250-167.9
					s238.7-86.1,426.5-115s453.9-37.6,453.9-37.6s26-0.8,62.9-0.8c75.8,0,197.6,3.5,236,25.1c57.3,31.9,225.6,223.7,225.6,223.7
					l9.9,10.2c0.1,0,0.2,0.1,0.3,0.1c50.5,21.3,103.9,83.3,108.1,104.7c1.1,5.4,1.9,10.9,2.3,16.4v0.1l19.3,17.2
					c0,0,4.7,6.3,25.8,14.9s51,7.8,51,7.8s146.2,2.3,186,52.8C3194.1,653.6,3148.1,979.4,3132.1,1141.7L3132.1,1141.7z
					 M4636.7,1086.8h-114c-17.1,0-39.7-25.4-40.7-52.3c-1-27.3,4.4-31.3,22.8-31.3c34.9,0,129.6,0.7,158.7,0.7
					c29.9,0,33-3.7,36.1,5.7s1.6,59.5-7.3,68.9S4636.7,1086.8,4636.7,1086.8L4636.7,1086.8z"/>
				<path id="Wing" class="st2" d="M762.2,380.4c-20,10.2-29,43.7-30.6,50.6c-204.5,78.2-418,162.2-500.7,202.1
					c53.1-29.1,96.7-57.2,62.7-114.8c0,0-32.6-72-52.7-104.6c-20.4-38.7-12.9-60.3,23.2-70.4l0,0c9.8-2.8,21.7-4.6,35.8-5.8
					c83.8-0.2,149.8,35,192,69.4c0,0,9.4,5.5,17.5,5c72.5-8,145.4-17.5,218.6-24C739.5,386.2,751,383.7,762.2,380.4z"/>
				<path id="Door" class="st2" d="M3124.7,565.3c-39.8-50.5-186-52.8-186-52.8s-29.9,0.8-51-7.8s-25.8-14.9-25.8-14.9h-19.5
					c-0.6,6.5-1.6,12.9-2.2,21.1c-1.6,19.6-38.4,33.3-72,31.3s-50.1-7.8-57.1-21.9s30.5-30.5,30.5-30.5h-76.9
					c-15.5-1.5-29.7-4.3-38.1-9.4c-5.6-3.3-10.7-7.6-14.8-12.6c-10.2-13-7.1-25-7.1-25c-0.8-20.5,9.3-45.9,27.2-65.9
					c-18.1,19.9-28.2,45.5-27.4,66c0,0-3.1,11.9,7,24.9l0.1,0.1c4.1,5.1,9.1,9.3,14.8,12.6c8.4,5.1,22.6,7.9,38.1,9.4h-584.3
					l-314.4-4.3c-9.4,21.1-14.3,43.9-14.5,67c0,42.8,29.2,130.4,29.2,130.4s47.5,146.6,71,200.3s67.3,180.5,115.3,209.2
					s163.3,24.5,285.9,27.1s565,12.5,565,12.5l314.4,9.6C3148.1,979.4,3194.1,653.6,3124.7,565.3z"/>
				<path id="Skirt" class="st2" d="M3303.4,1198.3c-2.7,24.2-4.3,49.1-4.7,74.3c-0.8,54-6.4,60.7-19.7,66.9s-38.8,7.5-86.8-2.8
					s-215.4-11.5-830-25.8c-605.8-1-347-28-738.8,12c-51.9,11.3-112.1,17.9-120,9.9c-3.2-27.6-4.4-51.6-5.1-74.2
					c-1-34.8-0.4-66-2.8-101.5c9.8-0.2,125.8-3.2,241.1-4.6c120.5-1.5,280.7,7.6,280.7,7.6l291.4,8.3l371.5,7.8
					c0,0,329.7,7.1,394.7,9.7c21.7,0.9,38.9,1.7,53.1,2.6c28.4,1.8,45,3.6,61.7,5.7c25,3.2,60.5,11.5,79.3,11.5
					C3284.9,1205.8,3299.2,1200.1,3303.4,1198.3z"/>
			</g>
			<path id="Taillight" class="st3" d="M318.6,806L89,797.4H65.9c1.1-0.5,1.7-0.8,1.7-0.8c0-0.2,0.1-0.5,0.1-0.8s0.1-0.3,0.1-0.5
				c0.1-0.5,0.3-1.1,0.4-1.7c0.1-0.2,0.1-0.5,0.2-0.7l0.3-0.9c0.1-0.3,0.2-0.7,0.3-1c0.1-0.3,0.2-0.5,0.3-0.8
				c0.1-0.3,0.2-0.6,0.4-0.9c0.1-0.4,0.3-0.8,0.5-1.2c4.3-10.1,13.3-23.3,23.8-36.8c0.5-0.7,1.1-1.4,1.7-2.1c2.7-3.3,5.4-6.7,8.2-10
				c0.4-0.5,0.8-1,1.3-1.5l0.2-0.2c1-1.2,2-2.3,3-3.5c1.6-1.9,3.2-3.7,4.9-5.6c0.4-0.4,0.7-0.8,1.1-1.2c1.5-1.7,3-3.3,4.4-4.9
				c0.5-0.5,1-1.1,1.5-1.6c0.6-0.7,1.3-1.4,1.9-2c0.3-0.4,0.7-0.7,1-1.1s0.5-0.5,0.7-0.8l0.9-0.9c5.5-5.8,10.6-11,15.2-15.3
				c0.3-0.3,0.6-0.6,1-0.9l0,0l64.2,0.6c18.1,0.5,34.5,1.2,40.9,2.1c10.9,1.8,21.5,5.2,31.3,10.2c31.7,22.5,30.1,48.2,34.4,60.3
				C315.9,785.3,318.6,806,318.6,806z"/>
			<g id="Stroke">
				<path id="Taillight-2" class="st4" d="M67.8,796.6l250.8,9.4c0,0-2.7-20.7-7-32.9s-2.7-37.8-34.4-60.3
					c-9.8-5-20.4-8.4-31.3-10.2c-16.8-2.3-104.6-3.4-104.6-3.4"/>
				<line id="Rear_Bumper_Line" class="st4" x1="718.4" y1="828.6" x2="318.6" y2="805.9"/>
				<path id="Skirt-2" class="st4" d="M3304.6,1197.7c0,0-16.7,8.1-35.5,8.1s-54.3-8.3-79.3-11.5s-49.8-5.7-114.8-8.3
					s-394.7-9.7-394.7-9.7l-371.5-7.8l-291.4-8.3c0,0-160.2-9.1-280.7-7.6s-241.8,4.6-241.8,4.6"/>
				<path id="Door_Front" class="st4" d="M2842.4,489.8h19.5c0,0,4.7,6.3,25.8,14.9s51,7.8,51,7.8s146.2,2.3,186,52.8
					c77,98,11.9,488.6,3.4,623.4"/>
				<path id="Door-2" class="st4" d="M1765.9,485.4c0,0-14.6,29.4-14.6,67.2c0,42.8,29.2,130.4,29.2,130.4s47.5,146.6,71,200.3
					s67.3,180.5,115.3,209.2s163.3,24.5,285.9,27.1s565,12.5,565,12.5l315.7,9.6"/>
				<path id="Front_Bumper_Line" class="st4" d="M4149.4,914.6h385.9c0,0,108.7-3.4,114.8-8.7s1.1-12.2,1.1-12.2"/>
				<path id="Bumper_LIght" class="st4" d="M4504.8,1003.2c34.9,0,129.6,0.7,158.7,0.7c29.9,0,33-3.7,36.1,5.7s1.6,59.5-7.3,68.9
					s-55.6,8.3-55.6,8.3h-114c-17.1,0-39.7-25.4-40.7-52.3C4481,1007.2,4486.4,1003.2,4504.8,1003.2z"/>
				<path id="_2" class="st4" d="M2842.4,489.8c-0.6,6.5-1.6,12.9-2.2,21.1c-1.6,19.6-38.4,33.3-72,31.3s-50.1-7.8-57.1-21.9
					s30.5-30.5,30.5-30.5h-76.9c-15.5-1.5-29.7-4.3-38.1-9.4c-5.6-3.3-10.7-7.6-14.8-12.6c-10.2-13-7.1-25-7.1-25
					c-1.4-34.8,28.8-84.2,75.8-96c5.9-1.5,12-2.4,18.1-2.6c10.6-0.4,22,2.4,33.6,7.2c50.5,21.3,103.9,83.3,108.1,104.7
					c1.1,5.4,1.9,10.9,2.3,16.4C2843,478.3,2842.9,484.1,2842.4,489.8z"/>
				<path id="_1" class="st4" d="M2741.6,489.8c0,0,24.7,10.6,50.1,8.6s50.8-8.6,50.8-8.6"/>
				<path id="Wing_Crease" class="st4" d="M762.4,380.3c-22.5,11.2-31.1,51.9-31.1,51.9"/>
				<path id="Wing_Lower" class="st4" d="M205,646.7c102.7-62.2,983.9-387.8,983.9-387.8s224.6-78.3,418.7-116.6s325-48.4,473-55.8
					c361.9-18,402.1,7.3,467.6,71.9"/>
				<path id="Handle_3" class="st4" d="M1985.8,641.5L1985.8,641.5c-0.6,0.9-1.3,1.8-2.1,2.7l0,0c-11.1,13.1-32.3,25-65.6,24.7
					c-24.4-0.2-42.3-7.4-52.3-21.2c0.2-7-6.2-20.5,62.3-21C1986.2,626.3,1988.3,636.5,1985.8,641.5z"/>
				<path id="Handle_2" class="st4" d="M1986.7,600c-6,2.1,1.9,10.8-64.5,4.8c-57.9-5.2-53.2-11.2-53.7-15.5
					c9.5-9.7,24.7-16.3,46.2-16.4C1952,572.7,1976.3,583.7,1986.7,600z"/>
				<path id="Handle_1" class="st4" d="M2051.3,622.1c0,10.2-32.6,17.5-67.6,22.1l0,0c0.8-0.8,1.5-1.7,2.1-2.7l0,0
					c2.5-5,0.4-15.2-57.7-14.8c-68.6,0.5-62.2,13.9-62.3,21c0,0.6-0.1,1.1-0.2,1.7c-0.8,2.4-7.7,2.2-12.8,2.3
					c-40.3,0.8-66.4-1.9-66.4-31.4c0-21.6,17.5-31.8,42-34.3c13.5-1.4,37.1-0.4,39.2,1.3c0.7,0.5,1.1,1.3,1.1,2.1
					c0.4,4.3-4.3,10.2,53.7,15.5c66.4,6,58.5-2.7,64.5-4.8c1.6-0.6,4.1-0.6,9.3,0.1C2029.5,605.1,2051.3,612.2,2051.3,622.1z"/>
				<path id="Wing_2" class="st4" d="M264.1,343.3c-7.8,11.1,2.5,23.3,2.5,23.3c17,16.7,34.9,32.4,53.7,47
					c30.7,23.8,90.9,62.3,142.6,58.6c0,0,66.5,2.2,272.5-54.1"/>
				<path id="Wing_1" class="st4" d="M509.4,411.9c-128.6,15.2-122.8,42.6-122.8,42.6"/>
				<path id="Front_Well_2" class="st4" d="M4225.4,1380.9c0,0-58.7-32.4-64.2-37.8s7-18-11.8-33.9c-7.4-6.2-19.4-10.8-35.8-14.1
					l-683.4-0.3c-95.4,4.8-133,10.2-133,10.2"/>
				<path id="Rear_Well_2" class="st4" d="M625.6,1266.1c0-14.5,13.9-11.7,13.9-11.7h27.8l740-4.8l91.5,9.1"/>
				<path id="Rear_Windshield" class="st4" d="M1448.4,125.6c0,0-24.9,12.9-204.5,79S884.7,348.1,843.2,363.8s-51.1,6.1-51.1,6.1"/>
				<path id="Squirter" class="st4" d="M3370.9,488.3c0,0-3.6-10.1-19.8-12.2s-20.9,6.1-20.9,6.1"/>
				<path id="Headlight" class="st4" d="M4496.1,774.3c0,0-12.8-30.5-53.3-69.6c-66.1-64-83.1-60-83.1-60"/>
				<path id="Windshield" class="st4" d="M3108.9,440.3l-2.1,1.2c-0.1,0-0.1-0.1-0.2-0.1c-0.7,0.4-1.5,0.8-2.3,1.2
					c-0.1,0.1-0.2,0.1-0.3,0.2c-0.9,0.4-1.7,0.9-2.6,1.3c-3.4,1.6-7.3,3.3-11.5,4.9c-1,0.4-1.9,0.7-2.9,1.1
					c-0.6,0.2-1.2,0.4-1.8,0.7l-1.8,0.6c-1.2,0.4-2.5,0.9-3.8,1.3s-2.6,0.8-4,1.2s-2.7,0.8-4.1,1.2l-4.2,1.2
					c-0.7,0.2-1.4,0.4-2.2,0.6l-4.4,1.2c-4.8,1.2-9.9,2.4-15.1,3.5c-2.9,0.6-5.9,1.2-8.9,1.8s-6.1,1.1-9.2,1.7
					c-4.7,0.8-9.4,1.5-14.2,2.2l-4.8,0.6c-2.2,0.3-4.3,0.5-6.5,0.8s-4.4,0.5-6.6,0.7c-2.9,0.3-5.8,0.5-8.8,0.7l-4.8,0.3h-0.7
					c-9.3,0.6-18.7,0.8-28,0.7c-1.8,0-3.6,0-5.3-0.1c-1.4,0-2.7-0.1-4.1-0.1l-6.7-0.3c-2.2-0.1-4.4-0.3-6.6-0.5
					c-0.8-0.1-1.7-0.2-2.5-0.2c-1.3-0.1-2.6-0.2-3.9-0.4c-1.9-0.2-3.7-0.4-5.6-0.7c-1.1-0.2-2.2-0.5-3.4-0.8
					c-0.4-0.1-0.8-0.2-1.2-0.4c-0.1,0-0.2,0-0.3-0.1c-0.4-0.1-0.8-0.2-1.2-0.4c-0.2-0.1-0.5-0.2-0.7-0.2c-0.4-0.1-0.8-0.3-1.1-0.4
					h-0.1c-0.5-0.2-1.1-0.4-1.6-0.6s-1.1-0.4-1.6-0.6c-0.6-0.2-1.1-0.4-1.6-0.7c-0.3-0.1-0.7-0.3-1-0.4c-2.4-1-4.7-2.2-7-3.5
					c-0.5-0.3-1.1-0.6-1.6-0.9s-1.1-0.6-1.6-0.9s-1-0.6-1.6-0.9c-1.5-0.9-3.1-1.9-4.6-2.9c-0.5-0.3-1-0.7-1.5-1s-1-0.7-1.5-1l-3-2.1
					c-6.4-4.5-12.6-9.5-18.4-14.5c-0.5-0.5-1.1-1-1.7-1.4c-2.3-2-4.5-4-6.6-6c-0.4-0.3-0.8-0.7-1.1-1.1c-6.4-6-11.9-11.6-16.2-16.1
					c-0.3-0.3-0.6-0.6-0.8-0.9c-1.3-1.3-2.4-2.6-3.4-3.7c-0.1-0.2-0.3-0.3-0.4-0.5c-2.3-2.6-3.9-4.3-4.5-5.1l-0.1-0.1
					c-0.1-0.1-0.1-0.1-0.1-0.2s0-0.1-0.1-0.1l0,0l0,0L2562,114.1c-2.7-2.8-5.3-5.8-7.7-8.7c-0.6-0.7-1.2-1.5-1.7-2.2
					c-0.3-0.4-0.6-0.8-0.8-1.1c-0.4-0.5-0.7-1-1-1.5c-0.2-0.2-0.3-0.5-0.5-0.7c-0.3-0.5-0.6-1-0.9-1.5c-0.3-0.4-0.5-0.8-0.8-1.2
					c-0.1-0.1-0.2-0.2-0.2-0.4c-0.5-0.8-0.9-1.5-1.3-2.3l-0.6-1.2l-0.6-1.2c-0.1-0.3-0.3-0.6-0.4-0.9c-0.3-0.5-0.5-1.1-0.7-1.7l0,0
					c-0.4-0.9-0.7-1.9-1-2.8l0,0c-2.8-9.1-1.5-18.2,6.6-27l0.6-0.6l0,0l0.6-0.6c0.4-0.5,0.9-0.9,1.4-1.3c0.3-0.2,0.5-0.4,0.7-0.7
					l0,0c0.6-0.6,1.3-1.1,2-1.7c1.1-0.8,2.2-1.7,3.3-2.5c0.8-0.6,1.6-1.1,2.5-1.7l0,0c0.8-0.5,1.7-1.1,2.6-1.6
					c1.5-0.9,3-1.7,4.7-2.6c1-0.5,2-1,3.1-1.5c0.7-0.3,1.4-0.7,2.1-1c0.4-0.2,0.7-0.3,1.1-0.5c0.8-0.4,1.6-0.7,2.4-1.1
					s1.7-0.7,2.5-1.1c-1-0.8-2.1-1.6-3.2-2.2c0.1,0,0.2-0.1,0.3-0.1l279.1,211.9L3108.9,440.3z"/>
			</g>
		</g>
		<g id="Back_Wheel">
			<circle id="Tire" class="st5" cx="1039.3" cy="1140.1" r="374.7"/>
			<path id="Rim" class="st6" d="M1036.2,828.5c-172.1,0-311.6,139.5-311.6,311.6s139.5,311.6,311.6,311.6s311.6-139.5,311.6-311.6
				S1208.3,828.5,1036.2,828.5z M932.1,1208.5l-44.5,63.2l-1.8,2.3c-0.7,1.2-1.7,2.2-2.9,2.9c-1.3,1.1-2.9,1.9-4.6,2.3
				c-1.7,0.5-3.5,0.7-5.3,0.6c-5.5,0-10.7-2.6-14-7c-14.6-19.4-25.9-41.2-33.3-64.3c-7.9-23.1-11.6-47.5-11-71.9
				c0-7.7,4.9-14.6,12.3-17c1.8,0,3.5-0.6,5.3-0.6c1.4,0.1,2.8,0.5,4.1,1.2l2.3,0.6l73.1,24.6c12.7,3.7,22.8,13.6,26.8,26.2
				c1.2,3.9,1.8,7.9,1.8,11.9C940.4,1192.5,937.5,1201.3,932.1,1208.5z M945.1,1064.1c-2.2-0.4-4.4-1-6.5-1.9l-73.7-22.8l-2.3-0.6
				c-1.2-0.5-2.3-1.7-3.5-2.3c-1.8-1.2-2.9-2.9-4.1-4.1c-4.4-6.1-4.4-14.3,0-20.4c13.9-19.9,31.1-37.3,50.9-51.4
				c19.6-14.6,41.5-25.6,64.9-32.7c1.7-0.5,3.5-0.7,5.3-0.6c5.8,0,11.1,2.9,15.2,7c1.1,1.3,1.9,2.9,2.3,4.6c0,1.2,0.6,3,0.5,4v2.9
				l-1.2,77.2c0,13.4-6.3,26-17,34c-7,5-15.3,7.6-23.9,7.6C949.7,1064.7,947.4,1064.5,945.1,1064.1z M1107.5,1350.5
				c-46.3,15.6-96.3,15.6-142.6,0c-7.7-3-12.3-9.4-12.3-17c-0.1-1.8,0.1-3.6,0.6-5.3c0.5-1.4,1.1-2.8,1.8-4.1l1.8-2.3l46.1-62
				c7.5-10.5,19.3-17.5,33.3-17.5c6.7,0,13.4,1.7,19.3,4.9c5.6,3,10.5,7.4,14,12.7l46.1,62l1.8,2.3c0.6,1.2,1.2,2.9,1.8,4.1
				c0.5,1.7,0.7,3.4,0.6,5.2C1119.9,1341.3,1114.9,1348.2,1107.5,1350.5z M1097.7,1057c-5.4-3.9-9.8-9.1-12.7-15.2
				c-2.8-5.8-4.3-12.2-4.3-18.7l-1.2-77.2V943c-0.1-1.4,0.1-2.8,0.6-4.1c0.4-1.7,1.2-3.3,2.3-4.6c3.3-4.4,8.5-7,14-7
				c2.1,0,4.3,0.2,6.4,0.6c22.9,6.9,44.5,18.1,64.9,32.7c19.6,14.3,36.8,31.6,50.9,51.4c4.4,6.1,4.4,14.3,0.1,20.5
				c-1.1,1.7-2.4,3-4.1,4.1c-1,0.9-2.2,1.7-3.5,2.3l-2.3,0.6l-73.7,22.8c-4.3,1.6-8.9,2.4-13.5,2.3
				C1113,1064.7,1104.6,1062,1097.7,1057L1097.7,1057z M1246.9,1207.9c-7.6,23.9-19.3,45-33.3,64.3c-3.3,4.4-8.5,7-14,7
				c-1.8,0.1-3.6-0.1-5.3-0.6c-1.6-0.5-3.2-1.3-4.6-2.3c-1.2-0.6-1.8-1.8-2.9-2.9l-1.8-2.3l-44.5-63.2c-8.2-10-10.5-23.9-6.4-36.8
				c4-12.7,14-22.6,26.8-26.4l73.1-24.6l2.3-0.6c1.3-0.5,2.7-0.7,4.1-0.6c2.3,0,4.1,0.6,5.3,0c6.8,2.5,12.2,9.4,12.2,17.1
				C1257.9,1160.4,1254.2,1184.7,1246.9,1207.9L1246.9,1207.9z"/>
			<g id="Stroke-2">
				<circle id="Inner_1" class="st4" cx="1036.2" cy="1140.1" r="292.4"/>
				<path id="Inner_2" class="st4" d="M1036.2,863.5c152.6,0,276.6,124,276.6,276.6s-124,276.6-276.6,276.6s-276.6-124-276.6-276.6
					S883.6,863.5,1036.2,863.5"/>
				<circle id="Inner_3" class="st4" cx="1036.2" cy="1140.1" r="258.4"/>
				<path id="Spokes" class="st4" d="M1206.4,1313.2c-0.3,1.2-0.9,2.2-1.8,3c-0.1,0.1-2.2,2.3-6.4,6.1c-6,5.3-12.2,10.3-18.7,15
					c-16.4,11.9-27.9,17.1-28,17.1h-0.2c-0.9,0.4-1.9,0.7-2.9,0.8h-1c-1.3-0.8-2.3-1.9-3.1-3.2l-82.5-142.4
					c12.7-4.6,23.9-12.6,32.4-23.1l110.2,122.4l0.1,0.1C1204.7,1308.9,1206.4,1310.8,1206.4,1313.2z M1275.6,1096.9
					c0-0.2-1.9-12.9-8-32.1s-12.4-30-12.5-30.1l-0.1-0.1l-0.1-0.1c-0.5-1-1.3-1.9-2.3-2.6c-0.4-0.1-0.7-0.2-1.1-0.4
					c0-0.1,0-0.1-0.1-0.1c-1.2,0-2.5,0.3-3.6,0.8h-0.1l-149.9,66.9c7.6,11.2,11.9,24.3,12.5,37.9l160.7-34h0.3
					c1.5-0.2,2.8-1.1,3.7-2.3l0.1-0.1l0.1-0.1C1275.6,1099.4,1275.8,1098.1,1275.6,1096.9L1275.6,1096.9z M1072.1,900.3
					c-0.9-0.7-2-1.1-3.1-1.3h-0.2c-0.1-0.1-12.3-2.3-32.6-2.3s-32.4,2.3-32.6,2.3h-0.2c-1.2,0.1-2.3,0.6-3.2,1.3v0.1
					c-0.7,1.2-1.1,2.5-1,3.9v0.7l17.3,163.6c6.4-1.8,13-2.7,19.6-2.8c6.7-0.1,13.3,0.8,19.7,2.6l17.2-163.3v-0.2
					C1073.2,905,1073.5,902.4,1072.1,900.3L1072.1,900.3z M824.1,1032l-0.5-0.2c-0.8-0.4-1.6-0.6-2.5-0.6l-0.3,0.4l-1.2,0.2
					c-0.5,0.1-1.4,1.3-1.9,2.3l-0.1,0.2l-0.1,0.2c0,0.1-6.2,11-12.5,30.1c-6.2,19.3-8,32-8,32.1c-0.1,1.1,0,2.3,0.4,3.4
					c1.2,1.2,2.6,2.1,4.2,2.6l160.5,34c0.6-13.5,4.8-26.7,12.4-37.9L824.1,1032z M978.1,1186l-110,122.4l-0.1,0.1l-0.1,0.1
					c-1,1.1-1.7,2.6-1.8,4.1c0.1,0.5,0.3,1,0.6,1.5c0.3,0.6,0.7,1.1,1.1,1.5c0.1,0.1,8.8,9.3,25.2,21.2s27.9,17,28,17.1h0.2
					c0.9,0.4,1.9,0.6,2.9,0.7h1c1.3-0.8,2.3-1.9,3.1-3.2l82.4-142.3C997.8,1204.7,986.5,1196.6,978.1,1186z"/>
				<path id="Lugs" class="st4" d="M1110.4,1146.5c-5.5,0-10.7,2.6-14,7c-5.9,7.6-4.1,18.7,4.1,24.6c3,2.3,6.7,3.6,10.5,3.5
					c5.5,0,10.7-2.6,14-7c5.9-7.6,4.1-18.7-4.1-24.6C1118.2,1147.6,1114.6,1146.5,1110.4,1146.5z M1082.4,1059.4
					c-3.8,0.1-7.4,1.3-10.5,3.5c-7.6,5.8-9.4,16.6-4.1,24.6c3.3,4.4,8.5,7,14,7c3.8-0.1,7.4-1.3,10.5-3.5c7.6-5.8,9.4-16.6,4.1-24.6
					C1093.1,1062,1087.9,1059.4,1082.4,1059.4z M990.1,1059.4c-1.8-0.1-3.6,0.1-5.3,0.6c-9.4,2.9-14,12.9-11,22.2
					c2.3,7.4,9.2,12.4,17,12.3c1.8,0.1,3.6-0.1,5.3-0.6c9.4-2.9,14-12.9,11-22.2C1004.8,1064.3,997.9,1059.3,990.1,1059.4z
					 M1036.2,1200.9c-7.6,0-14,4.6-17,12.3c-2.9,9.4,2.3,19.3,11,22.2c1.7,0.5,3.5,0.7,5.3,0.6c7.6,0,14-4.6,17-12.3
					c2.9-9.4-2.3-19.3-11-22.2C1039.8,1201,1038,1200.8,1036.2,1200.9z M962,1146.5c-9.7,0-17.5,7.8-17.5,17.5s7.8,17.5,17.5,17.5
					s17.5-7.8,17.5-17.5l0,0C979.5,1154.4,971.6,1146.6,962,1146.5z"/>
				<path id="Holes" class="st4" d="M1257.9,1136c0,24.4-3.7,48.6-11,71.9c-7.6,23.9-19.3,45-33.3,64.3c-3.3,4.4-8.5,7-14,7
					c-1.8,0.1-3.6-0.1-5.3-0.6c-1.6-0.5-3.2-1.3-4.6-2.3c-1.2-0.6-1.8-1.8-2.9-2.9l-1.8-2.3l-44.5-63.2c-8.2-10-10.5-23.9-6.4-36.8
					c4-12.7,14-22.6,26.8-26.4l73.1-24.6l2.3-0.6c1.3-0.5,2.7-0.7,4.1-0.6c2.3,0,4.1,0.6,5.3,0
					C1252.5,1121.4,1257.9,1128.3,1257.9,1136z M1218.6,1012c-14.1-19.8-31.3-37.1-50.9-51.4c-20.4-14.6-42-25.8-64.9-32.7
					c-2.1-0.4-4.3-0.6-6.4-0.6c-5.5,0-10.7,2.6-14,7c-1.1,1.3-1.9,2.9-2.3,4.6c-0.5,1.3-0.7,2.7-0.6,4.1v2.9l1.2,77.2
					c0,6.5,1.5,12.9,4.3,18.7c6.7,14.1,21,23,36.6,22.8c4.6,0.1,9.2-0.7,13.5-2.3l73.7-22.8l2.3-0.6c1.3-0.6,2.5-1.4,3.5-2.3
					c1.7-1.1,3-2.4,4.1-4.1C1223,1026.3,1223,1018.1,1218.6,1012z M993.6,938.9c-0.4-1.7-1.2-3.3-2.3-4.6c-4.1-4.1-9.4-7-15.2-7
					c-1.8-0.1-3.6,0.1-5.3,0.6c-23.4,7.1-45.3,18.1-64.9,32.7c-19.8,14.1-37,31.5-50.9,51.4c-4.4,6.1-4.4,14.3,0,20.4
					c1.2,1.2,2.3,2.9,4.1,4.1c1.2,0.6,2.3,1.8,3.5,2.3l2.3,0.6l73.7,22.8c2.1,0.9,4.3,1.5,6.5,1.9c2.3,0.4,4.6,0.5,6.9,0.5
					c8.6,0,16.9-2.6,23.9-7.6c10.7-8,17-20.6,17-34l1.2-77.2v-2.9C994.2,941.9,993.6,940.1,993.6,938.9L993.6,938.9z M938.6,1171.6
					c-4-12.6-14.1-22.5-26.8-26.2l-73.1-24.6l-2.3-0.6c-1.3-0.7-2.7-1.1-4.1-1.2c-1.8,0-3.5,0.6-5.3,0.6c-7.4,2.4-12.3,9.3-12.3,17
					c-0.6,24.4,3.1,48.8,11,71.9c7.4,23.1,18.7,44.9,33.3,64.3c3.3,4.4,8.5,7,14,7c1.8,0.1,3.6-0.1,5.3-0.6c1.7-0.4,3.3-1.2,4.6-2.3
					c1.2-0.7,2.2-1.7,2.9-2.9l1.8-2.3l44.5-63.2c5.4-7.2,8.3-16,8.3-25C940.4,1179.5,939.8,1175.5,938.6,1171.6L938.6,1171.6z
					 M1119.2,1328.3c-0.6-1.2-1.2-2.9-1.8-4.1l-1.8-2.3l-46.1-62c-3.5-5.3-8.4-9.7-14-12.7c-5.9-3.2-12.6-4.9-19.3-4.9
					c-14,0-25.8,7-33.3,17.5l-46.1,62l-1.8,2.3c-0.7,1.3-1.3,2.7-1.8,4.1c-0.5,1.7-0.7,3.5-0.6,5.3c0,7.6,4.6,14,12.3,17
					c46.3,15.6,96.3,15.6,142.6,0c7.4-2.3,12.4-9.2,12.3-17C1119.9,1331.8,1119.7,1330,1119.2,1328.3L1119.2,1328.3z"/>
				<circle id="Cap" class="st4" cx="1036.2" cy="1140.1" r="48.5"/>
				<path id="Bolts" class="st4" d="M1117.5,916.7c-1.3,3.1-4.2,5.2-7.6,5.3c-0.6,0-1.8-0.6-2.3-0.6c-4.1-1.2-6.4-5.9-5.3-10
					c1.3-3.1,4.2-5.2,7.6-5.3c0.8,0,1.6,0.2,2.3,0.6C1116.3,907.9,1118.6,912.6,1117.5,916.7z M962.5,922c0.6,0,1.8,0,2.3-0.6
					c4.1-1.2,6.4-5.9,5.3-10c-1.3-3.1-4.2-5.2-7.6-5.3c-0.6,0-1.8,0-2.3,0.6c-4.1,1.2-6.4,5.9-5.3,10C956,920,959.1,922.2,962.5,922
					L962.5,922z M1180.6,941.9c-1.3-1.1-2.9-1.7-4.6-1.8c-2.4,0.1-4.7,1.2-6.4,2.9c-2.4,3.6-1.6,8.4,1.8,11c1.2,1.2,2.9,1.8,4.6,1.8
					c2.4-0.1,4.7-1.2,6.4-2.9C1184.8,949.4,1184,944.6,1180.6,941.9z M896.5,940.1c-1.8,0-2.9,0.6-4.6,1.8c-3.5,2.3-4.1,7.6-1.8,11
					c1.5,2,3.9,3,6.4,2.9c1.8,0,2.9-0.6,4.6-1.8c3.5-2.3,4.1-7.6,1.8-11C901.2,941.3,898.9,940.2,896.5,940.1z M1228.6,992.7
					c-1.8,0-2.9,0.6-4.6,1.8c-3.5,2.3-4.1,7.6-1.8,11c1.5,2,3.9,3,6.4,2.9c1.8,0,2.9-0.6,4.6-1.8c3.5-2.3,4.1-7.6,1.8-11
					C1233.3,993.9,1231,992.9,1228.6,992.7z M839.1,1006.6c1.2,1.2,2.9,1.8,4.6,1.8c2.4-0.1,4.7-1.2,6.4-2.9c2.4-3.6,1.6-8.4-1.8-11
					c-1.2-1.2-2.9-1.9-4.6-1.8c-2.4,0.1-4.7,1.2-6.4,2.9C834.9,999.2,835.7,1004,839.1,1006.6z M1273.7,1132.5
					c-4.2,0-7.6,3.4-7.6,7.6s3.4,7.6,7.6,7.6s7.6-3.4,7.6-7.6l0,0C1281.9,1136,1278.2,1132.5,1273.7,1132.5z M806.5,1140.1
					c-0.1-4.1-3.5-7.5-7.6-7.6c-4.2,0-7.6,3.4-7.6,7.6s3.4,7.6,7.6,7.6S806.5,1144.3,806.5,1140.1L806.5,1140.1z M1264.2,1206.1
					c-0.5-0.6-1.1-0.6-2.3-0.6c-3.4,0.1-6.4,2.1-7.6,5.3c-1.2,4.2,1.1,8.6,5.3,10c0.6,0,1.8,0.6,2.3,0.6c3.4-0.1,6.4-2.1,7.6-5.3
					C1270.6,1211.9,1268.3,1207.2,1264.2,1206.1z M810.5,1205.5c-0.6,0-1.8,0-2.3,0.6c-4.1,1.2-6.4,5.9-5.3,10
					c1,3.3,4.2,5.5,7.6,5.3c0.6,0,1.8,0,2.3-0.6c4.1-1.2,6.4-5.9,5.3-10C816.4,1207.9,813.5,1205.5,810.5,1205.5L810.5,1205.5z
					 M1233.2,1273.4c-1.3-1-2.9-1.7-4.6-1.8c-2.4,0.1-4.7,1.2-6.4,2.9c-2.4,3.6-1.6,8.4,1.8,11c1.2,1.2,2.9,1.8,4.6,1.8
					c2.4-0.1,4.7-1.2,6.4-2.9C1237.4,1280.9,1236.6,1276.1,1233.2,1273.4z M843.8,1271.6c-1.8,0-2.9,0.6-4.6,1.8
					c-3.5,2.3-4.1,7.6-1.8,11c1.5,2,3.9,3,6.4,2.9c1.8,0,2.9-0.6,4.6-1.8c3.5-2.3,4.1-7.6,1.8-11
					C849.1,1272.8,846.2,1271.6,843.8,1271.6L843.8,1271.6z M1109.9,1358.1c-0.6,0-1.8,0-2.3,0.6c-4.1,1.2-6.4,5.9-5.3,10
					c1,3.3,4.2,5.5,7.6,5.3c0.6,0,1.8,0,2.3-0.6c4.1-1.2,6.4-5.9,5.3-10C1115.7,1359.9,1112.8,1358.1,1109.9,1358.1L1109.9,1358.1z
					 M965.6,1358.7c-0.7-0.4-1.5-0.6-2.3-0.6c-3.4,0.1-6.4,2.1-7.6,5.3c-1.2,4.2,1.1,8.6,5.3,10c0.6,0,1.8,0.6,2.3,0.6
					c3.4-0.1,6.4-2.1,7.6-5.3C972,1364.6,969.7,1359.9,965.6,1358.7L965.6,1358.7z M1036.2,1369.8c-4.2,0-7.6,3.4-7.6,7.6
					s3.4,7.6,7.6,7.6s7.6-3.4,7.6-7.6l0,0C1043.8,1373.2,1040.4,1369.8,1036.2,1369.8z"/>
			</g>
		</g>
		<g id="Front_Wheel">
			<circle id="Tire-2" class="st5" cx="3775.1" cy="1142.5" r="370"/>
			<path id="Rim-2" class="st7" d="M3775.1,830.9c-172.1,0-311.6,139.5-311.6,311.6s139.5,311.6,311.6,311.6
				s311.6-139.5,311.6-311.6S3947.2,830.9,3775.1,830.9z M3671,1210.9l-44.5,63.2l-1.8,2.3c-0.7,1.2-1.7,2.2-2.9,2.9
				c-1.3,1.1-2.9,1.9-4.6,2.3c-1.7,0.5-3.5,0.7-5.3,0.6c-5.5,0-10.7-2.6-14-7c-14.6-19.4-25.9-41.2-33.3-64.3
				c-7.9-23.1-11.6-47.5-11-71.9c0-7.7,4.9-14.6,12.3-17c1.8,0,3.5-0.6,5.3-0.6c1.4,0.1,2.8,0.5,4.1,1.2l2.3,0.6l73.1,24.6
				c12.7,3.7,22.8,13.6,26.8,26.2c1.2,3.9,1.8,7.9,1.8,11.9C3679.3,1194.9,3676.4,1203.7,3671,1210.9L3671,1210.9z M3684,1066.5
				c-2.2-0.4-4.4-1-6.5-1.9l-73.7-22.8l-2.3-0.6c-1.2-0.5-2.3-1.7-3.5-2.3c-1.8-1.2-2.9-2.9-4.1-4.1c-4.4-6.1-4.4-14.3,0-20.4
				c13.9-19.9,31.1-37.3,50.9-51.4c19.6-14.6,41.5-25.6,64.9-32.7c1.7-0.5,3.5-0.7,5.3-0.6c5.8,0,11.1,2.9,15.2,7
				c1.1,1.3,1.9,2.9,2.3,4.6c0,1.2,0.6,3,0.5,4v2.9l-1.2,77.2c0,13.4-6.3,26-17,34c-7,5-15.3,7.6-23.9,7.6
				C3688.6,1067.1,3686.3,1066.9,3684,1066.5L3684,1066.5z M3846.4,1352.9c-46.3,15.6-96.3,15.6-142.6,0c-7.7-3-12.3-9.4-12.3-17
				c-0.1-1.8,0.1-3.6,0.6-5.3c0.5-1.4,1.1-2.8,1.8-4.1l1.8-2.3l46.1-62c7.5-10.5,19.3-17.5,33.3-17.5c6.7,0,13.4,1.7,19.3,4.9
				c5.6,3,10.5,7.4,14,12.7l46.1,62l1.8,2.3c0.6,1.2,1.2,2.9,1.8,4.1c0.5,1.7,0.7,3.4,0.6,5.2
				C3858.8,1343.7,3853.8,1350.6,3846.4,1352.9L3846.4,1352.9z M3836.6,1059.4c-5.4-3.9-9.8-9.1-12.7-15.2
				c-2.8-5.8-4.3-12.2-4.3-18.7l-1.2-77.2v-2.9c-0.1-1.4,0.1-2.8,0.6-4.1c0.4-1.7,1.2-3.3,2.3-4.6c3.3-4.4,8.5-7,14-7
				c2.1,0,4.3,0.2,6.4,0.6c22.9,6.9,44.5,18.1,64.9,32.7c19.6,14.3,36.8,31.6,50.9,51.4c4.4,6.1,4.4,14.3,0.1,20.5
				c-1.1,1.7-2.4,3-4.1,4.1c-1,0.9-2.2,1.7-3.5,2.3l-2.3,0.6l-73.7,22.8c-4.3,1.6-8.9,2.4-13.5,2.3
				C3851.9,1067.1,3843.5,1064.5,3836.6,1059.4L3836.6,1059.4z M3985.8,1210.3c-7.6,23.9-19.3,45-33.3,64.3c-3.3,4.4-8.5,7-14,7
				c-1.8,0.1-3.6-0.1-5.3-0.6c-1.6-0.5-3.2-1.3-4.6-2.3c-1.2-0.6-1.8-1.8-2.9-2.9l-1.8-2.3l-44.5-63.2c-8.2-10-10.5-23.9-6.4-36.8
				c4-12.7,14-22.6,26.8-26.4l73.1-24.6l2.3-0.6c1.3-0.5,2.7-0.7,4.1-0.6c2.3,0,4.1,0.6,5.3,0c6.8,2.5,12.2,9.4,12.2,17.1
				C3996.8,1162.8,3993.1,1187.1,3985.8,1210.3L3985.8,1210.3z"/>
			<g id="Stroke-3">
				<circle id="Inner_1-2" class="st4" cx="3775.1" cy="1142.5" r="292.4"/>
				<path id="Inner_2-2" class="st4" d="M3775.1,865.9c152.6,0,276.6,124,276.6,276.6s-124,276.6-276.6,276.6
					s-276.6-124-276.6-276.6S3622.5,865.9,3775.1,865.9"/>
				<circle id="Inner_3-2" class="st4" cx="3775.1" cy="1142.5" r="258.4"/>
				<path id="Spokes-2" class="st4" d="M3945.3,1315.6c-0.3,1.2-0.9,2.2-1.8,3c-0.1,0.1-2.2,2.3-6.4,6.1c-6,5.3-12.2,10.3-18.7,15
					c-16.4,11.9-27.9,17.1-28,17.1h-0.2c-0.9,0.4-1.9,0.7-2.9,0.8h-1c-1.3-0.8-2.3-1.9-3.1-3.2l-82.5-142.4
					c12.7-4.6,23.9-12.6,32.4-23.1l110.2,122.4l0.1,0.1C3943.6,1311.3,3945.3,1313.2,3945.3,1315.6z M4014.5,1099.3
					c0-0.2-1.9-12.9-8-32.1s-12.4-30-12.5-30.1l-0.1-0.1l-0.1-0.1c-0.5-1-1.3-1.9-2.3-2.6c-0.4-0.1-0.7-0.2-1.1-0.4
					c0-0.1,0-0.1-0.1-0.1l0,0c-1.2,0-2.5,0.3-3.6,0.8h-0.1l-149.9,66.9c7.6,11.2,11.9,24.3,12.5,37.9l160.7-34h0.3
					c1.5-0.2,2.8-1.1,3.7-2.3l0.1-0.1l0.1-0.1C4014.5,1101.8,4014.7,1100.5,4014.5,1099.3z M3811,902.7c-0.9-0.7-2-1.1-3.1-1.3h-0.2
					c-0.1-0.1-12.3-2.3-32.6-2.3s-32.4,2.3-32.6,2.3h-0.2c-1.2,0.1-2.3,0.6-3.2,1.3v0.1c-0.7,1.2-1.1,2.5-1,3.9v0.7l17.3,163.6
					c6.4-1.8,13-2.7,19.6-2.8c6.7-0.1,13.3,0.8,19.7,2.6l17.2-163.3v-0.2C3812.1,907.4,3812.4,904.8,3811,902.7z M3563,1034.4
					l-0.5-0.2c-0.8-0.4-1.6-0.6-2.5-0.6l-0.3,0.4l-1.2,0.2c-0.5,0.1-1.4,1.3-1.9,2.3l-0.1,0.2l-0.1,0.2c0,0.1-6.2,11-12.5,30.1
					c-6.2,19.3-8,32-8,32.1c-0.1,1.1,0,2.3,0.4,3.4c1.2,1.2,2.6,2.1,4.2,2.6l160.5,34c0.6-13.5,4.8-26.7,12.4-37.9L3563,1034.4z
					 M3717,1188.4l-110,122.4l-0.1,0.1l-0.1,0.1c-1,1.1-1.7,2.6-1.8,4.1c0.1,0.5,0.3,1,0.6,1.5c0.3,0.6,0.7,1.1,1.1,1.5
					c0.1,0.1,8.8,9.3,25.2,21.2s27.9,17,28,17.1h0.2c0.9,0.4,1.9,0.6,2.9,0.7h1c1.3-0.8,2.3-1.9,3.1-3.2l82.4-142.3
					C3736.7,1207.1,3725.4,1199.1,3717,1188.4L3717,1188.4z"/>
				<path id="Lugs-2" class="st4" d="M3849.3,1148.9c-5.5,0-10.7,2.6-14,7c-5.9,7.6-4.1,18.7,4.1,24.6c3,2.3,6.7,3.6,10.5,3.5
					c5.5,0,10.7-2.6,14-7c5.9-7.6,4.1-18.7-4.1-24.6C3857.1,1150,3853.5,1148.9,3849.3,1148.9z M3821.3,1061.8
					c-3.8,0.1-7.4,1.3-10.5,3.5c-7.6,5.8-9.4,16.6-4.1,24.6c3.3,4.4,8.5,7,14,7c3.8-0.1,7.4-1.3,10.5-3.5c7.6-5.8,9.4-16.6,4.1-24.6
					C3832,1064.4,3826.8,1061.8,3821.3,1061.8z M3729,1061.8c-1.8-0.1-3.6,0.1-5.3,0.6c-9.4,2.9-14,12.9-11,22.2
					c2.3,7.4,9.2,12.4,17,12.3c1.8,0.1,3.6-0.1,5.3-0.6c9.4-2.9,14-12.9,11-22.2C3743.7,1066.7,3736.8,1061.7,3729,1061.8z
					 M3775.1,1203.3c-7.6,0-14,4.6-17,12.3c-2.9,9.4,2.3,19.3,11,22.2c1.7,0.5,3.5,0.7,5.3,0.6c7.6,0,14-4.6,17-12.3
					c2.9-9.4-2.3-19.3-11-22.2C3778.7,1203.4,3776.9,1203.2,3775.1,1203.3z M3700.9,1148.9c-9.7,0-17.5,7.8-17.5,17.5
					s7.8,17.5,17.5,17.5s17.5-7.8,17.5-17.5l0,0C3718.4,1156.8,3710.5,1149,3700.9,1148.9z"/>
				<path id="Holes-2" class="st4" d="M3996.8,1138.4c0,24.4-3.7,48.6-11,71.9c-7.6,23.9-19.3,45-33.3,64.3c-3.3,4.4-8.5,7-14,7
					c-1.8,0.1-3.6-0.1-5.3-0.6c-1.6-0.5-3.2-1.3-4.6-2.3c-1.2-0.6-1.8-1.8-2.9-2.9l-1.8-2.3l-44.5-63.2c-8.2-10-10.5-23.9-6.4-36.8
					c4-12.7,14-22.6,26.8-26.4l73.1-24.6l2.3-0.6c1.3-0.5,2.7-0.7,4.1-0.6c2.3,0,4.1,0.6,5.3,0
					C3991.4,1123.8,3996.8,1130.7,3996.8,1138.4z M3957.5,1014.4c-14.1-19.8-31.3-37.1-50.9-51.4c-20.4-14.6-42-25.8-64.9-32.7
					c-2.1-0.4-4.3-0.6-6.4-0.6c-5.5,0-10.7,2.6-14,7c-1.1,1.3-1.9,2.9-2.3,4.6c-0.5,1.3-0.7,2.7-0.6,4.1v2.9l1.2,77.2
					c0,6.5,1.5,12.9,4.3,18.7c6.7,14.1,21,23,36.6,22.8c4.6,0.1,9.2-0.7,13.5-2.3l73.7-22.8l2.3-0.6c1.3-0.6,2.5-1.4,3.5-2.3
					c1.7-1.1,3-2.4,4.1-4.1C3961.9,1028.8,3961.9,1020.5,3957.5,1014.4L3957.5,1014.4z M3732.5,941.3c-0.4-1.7-1.2-3.3-2.3-4.6
					c-4.1-4.1-9.4-7-15.2-7c-1.8-0.1-3.6,0.1-5.3,0.6c-23.4,7.1-45.3,18.1-64.9,32.7c-19.8,14.1-37,31.5-50.9,51.4
					c-4.4,6.1-4.4,14.3,0,20.4c1.2,1.2,2.3,2.9,4.1,4.1c1.2,0.6,2.3,1.8,3.5,2.3l2.3,0.6l73.7,22.8c2.1,0.9,4.3,1.5,6.5,1.9
					c2.3,0.4,4.6,0.5,6.9,0.5c8.6,0,16.9-2.6,23.9-7.6c10.7-8,17-20.6,17-34l1.2-77.2v-2.9C3733.1,944.3,3732.5,942.5,3732.5,941.3
					L3732.5,941.3z M3677.5,1174c-4-12.6-14.1-22.5-26.8-26.2l-73.1-24.6l-2.3-0.6c-1.3-0.7-2.7-1.1-4.1-1.2c-1.8,0-3.5,0.6-5.3,0.6
					c-7.4,2.4-12.3,9.3-12.3,17c-0.6,24.4,3.1,48.8,11,71.9c7.4,23.1,18.7,44.9,33.3,64.3c3.3,4.4,8.5,7,14,7
					c1.8,0.1,3.6-0.1,5.3-0.6c1.7-0.4,3.3-1.2,4.6-2.3c1.2-0.7,2.2-1.7,2.9-2.9l1.8-2.3l44.5-63.2c5.4-7.2,8.3-16,8.3-25
					C3679.3,1181.9,3678.7,1177.9,3677.5,1174L3677.5,1174z M3858.1,1330.7c-0.6-1.2-1.2-2.9-1.8-4.1l-1.8-2.3l-46.1-62
					c-3.5-5.3-8.4-9.7-14-12.7c-5.9-3.2-12.6-4.9-19.3-4.9c-14,0-25.8,7-33.3,17.5l-46.1,62l-1.8,2.3c-0.7,1.3-1.3,2.7-1.8,4.1
					c-0.5,1.7-0.7,3.5-0.6,5.3c0,7.6,4.6,14,12.3,17c46.3,15.6,96.3,15.6,142.6,0c7.4-2.3,12.4-9.2,12.3-17
					C3858.8,1334.2,3858.6,1332.4,3858.1,1330.7z"/>
				<circle id="Cap-2" class="st4" cx="3775.1" cy="1142.5" r="48.5"/>
				<path id="Bolts-2" class="st4" d="M3856.4,919.1c-1.3,3.1-4.2,5.2-7.6,5.3c-0.6,0-1.8-0.6-2.3-0.6c-4.1-1.2-6.4-5.9-5.3-10
					c1.3-3.1,4.2-5.2,7.6-5.3c0.8,0,1.6,0.2,2.3,0.6C3855.2,910.3,3857.5,915,3856.4,919.1z M3701.4,924.4c0.6,0,1.8,0,2.3-0.6
					c4.1-1.2,6.4-5.9,5.3-10c-1.3-3.1-4.2-5.2-7.6-5.3c-0.6,0-1.8,0-2.3,0.6c-4.1,1.2-6.4,5.9-5.3,10
					C3694.8,922.4,3698,924.6,3701.4,924.4z M3919.5,944.3c-1.3-1.1-2.9-1.7-4.6-1.8c-2.4,0.1-4.7,1.2-6.4,2.9
					c-2.4,3.6-1.6,8.4,1.8,11c1.2,1.2,2.9,1.8,4.6,1.8c2.4-0.1,4.7-1.2,6.4-2.9C3923.7,951.8,3922.9,947,3919.5,944.3z
					 M3635.4,942.5c-1.8,0-2.9,0.6-4.6,1.8c-3.5,2.3-4.1,7.6-1.8,11c1.5,2,3.9,3,6.4,2.9c1.8,0,2.9-0.6,4.6-1.8
					c3.5-2.3,4.1-7.6,1.8-11C3640.1,943.7,3637.8,942.6,3635.4,942.5z M3967.5,995.1c-1.8,0-2.9,0.6-4.6,1.8
					c-3.5,2.3-4.1,7.6-1.8,11c1.5,2,3.9,3,6.4,2.9c1.8,0,2.9-0.6,4.6-1.8c3.5-2.3,4.1-7.6,1.8-11
					C3972.2,996.3,3969.9,995.3,3967.5,995.1z M3578,1009c1.2,1.2,2.9,1.8,4.6,1.8c2.4-0.1,4.7-1.2,6.4-2.9c2.4-3.6,1.6-8.4-1.8-11
					c-1.2-1.2-2.9-1.9-4.6-1.8c-2.4,0.1-4.7,1.2-6.4,2.9C3573.8,1001.6,3574.6,1006.4,3578,1009z M4012.6,1134.9
					c-4.2,0-7.6,3.4-7.6,7.6s3.4,7.6,7.6,7.6c4.2,0,7.6-3.4,7.6-7.6C4020.8,1138.4,4017.1,1134.9,4012.6,1134.9L4012.6,1134.9z
					 M3545.4,1142.5c-0.1-4.1-3.5-7.5-7.6-7.6c-4.2,0-7.6,3.4-7.6,7.6s3.4,7.6,7.6,7.6S3545.4,1146.7,3545.4,1142.5z M4003.1,1208.5
					c-0.5-0.6-1.1-0.6-2.3-0.6c-3.4,0.1-6.4,2.1-7.6,5.3c-1.2,4.2,1.1,8.6,5.3,10c0.6,0,1.8,0.6,2.3,0.6c3.4-0.1,6.4-2.1,7.6-5.3
					C4009.5,1214.3,4007.2,1209.6,4003.1,1208.5L4003.1,1208.5z M3549.4,1207.9c-0.6,0-1.8,0-2.3,0.6c-4.1,1.2-6.4,5.9-5.3,10
					c1,3.3,4.2,5.5,7.6,5.3c0.6,0,1.8,0,2.3-0.6c4.1-1.2,6.4-5.9,5.3-10C3555.3,1210.3,3552.4,1207.9,3549.4,1207.9L3549.4,1207.9z
					 M3972.1,1275.8c-1.3-1-2.9-1.7-4.6-1.8c-2.4,0.1-4.7,1.2-6.4,2.9c-2.4,3.6-1.6,8.4,1.8,11c1.2,1.2,2.9,1.8,4.6,1.8
					c2.4-0.1,4.7-1.2,6.4-2.9C3976.3,1283.2,3975.5,1278.5,3972.1,1275.8L3972.1,1275.8z M3582.7,1274c-1.8,0-2.9,0.6-4.6,1.8
					c-3.5,2.3-4.1,7.6-1.8,11c1.5,2,3.9,3,6.4,2.9c1.8,0,2.9-0.6,4.6-1.8c3.5-2.3,4.1-7.6,1.8-11
					C3588,1275.2,3585.1,1274,3582.7,1274L3582.7,1274z M3848.8,1360.5c-0.6,0-1.8,0-2.3,0.6c-4.1,1.2-6.4,5.9-5.3,10
					c1,3.3,4.2,5.5,7.6,5.3c0.6,0,1.8,0,2.3-0.6c4.1-1.2,6.4-5.9,5.3-10C3854.6,1362.3,3851.7,1360.5,3848.8,1360.5L3848.8,1360.5z
					 M3704.5,1361.1c-0.7-0.4-1.5-0.6-2.3-0.6c-3.4,0.1-6.4,2.1-7.6,5.3c-1.2,4.2,1.1,8.6,5.3,10c0.6,0,1.8,0.6,2.3,0.6
					c3.4-0.1,6.4-2.1,7.6-5.3C3710.9,1367,3708.6,1362.3,3704.5,1361.1L3704.5,1361.1z M3775.1,1372.2c-4.2,0-7.6,3.4-7.6,7.6
					s3.4,7.6,7.6,7.6c4.2,0,7.6-3.4,7.6-7.6C3782.7,1375.6,3779.3,1372.2,3775.1,1372.2L3775.1,1372.2z"/>
			</g>
		</g>
		<path id="Bumper_LIght_1_" class="st8" d="M4504.8,1003.2c34.9,0,129.6,0.7,158.7,0.7c29.9,0,33-3.7,36.1,5.7s1.6,59.5-7.3,68.9
			s-55.6,8.3-55.6,8.3h-114c-17.1,0-39.7-25.4-40.7-52.3C4481,1007.2,4486.4,1003.2,4504.8,1003.2z"/>
	</g>
</g>
<g id="Taillight_Alt">
	<path id="Outline" class="st9" d="M37.6,797.4l288.2,5.6L311,747.5c0,0-10.7-50.8-61.5-50.8H137.2l-57.8,10.8c0,0-8.4,1.4-8.4,10.4
		c0,9.1,0.2,11.1,4.2,13.5L37.6,797.4z"/>
	<path id="Black" class="st10" d="M238.4,800.9h-18.6c0,0-0.4-3.9-1.2-9.1c-0.8-5.7-2.1-13-3.6-18.9c-0.2-0.9-0.5-1.8-0.7-2.6
		c-4.3-14.5-11.6-29.7-11.6-29.7c-5.1-8.4-17.2-9.1-17.2-9.1h17.8c0,0,12.1,0.7,17.2,9.1c0,0,7.3,15.2,11.6,29.7c1,3.5,2,7.8,2.7,12
		L238.4,800.9z"/>
	<g id="Stroke_1_">
		<path id="Outer_1_" class="st11" d="M37.6,797.4l288.2,5.6L311,747.5c0,0-10.7-50.8-61.5-50.8H137.2l-57.8,10.8
			c0,0-8.4,1.4-8.4,10.4c0,9.1,0.2,11.1,4.2,13.5L37.6,797.4z"/>
		<path id="Front" class="st12" d="M325.8,802.9l-49.3-1c0,0-2.8-19.9-12.5-45c-9.8-25.1-25-49.2-45-49.2H78.5
			c0.5-0.2,0.9-0.2,0.9-0.2l57.8-10.8h112.3c50.8,0,61.5,50.8,61.5,50.8L325.8,802.9z"/>
		<path id="Back" class="st12" d="M219.8,800.9l-182.2-3.5l37.6-65.9h110.3c0,0,12.1,0.7,17.2,9.1c0,0,7.3,15.2,11.6,29.7
			c0.2,0.8,0.5,1.7,0.7,2.6c1.5,5.9,2.8,13.2,3.6,18.9C219.4,797,219.8,800.9,219.8,800.9z"/>
	</g>
</g>
</svg>
