<svg xmlns="http://www.w3.org/2000/svg" viewBox="0 0 1197.95 786.55"><defs><style>.cls-1{fill:#fff;}.cls-1,.cls-2{stroke:#000;stroke-miterlimit:10;stroke-width:2px;}.cls-2{fill:none;}</style></defs><g id="Layer_2" data-name="Layer 2"><g id="Front_Simplified" data-name="Front Simplified"><path id="Lower" class="cls-1" d="M1196.22,678.94c.29,22.3-.89,44.62-5.13,66.52-2.31,17.15-15.82,30.8-33.5,31.11-170.84,9.7-342.13,7-513.19,9-201.32-1.34-403,1.6-604.1-9C2.06,775,3.58,728.1,2,699.71c-.55-19.58-1.35-39.15-.9-58.78.35-32.81,3.2-65.52,4.7-98.28.53-12,.17-24,.23-35.94.94-8.55-2-18.57,1.91-26.24,3.33,79.36,10.77,160.59,39.18,235.34,5,16.14,23.66,16,37.54,19.37,12.06,2.45,24,5.45,36.22,7,65,4.84,130.35,3.69,195.44,6.56,42.06,2.78,86.71-1.9,128.1,3.69a22.9,22.9,0,0,1,9.78,1.48c11.27,4.3,22.89,5.62,34.95,5.59q54.87-.15,109.71-.15c36.15,0,73.7,0,109.82.15,12.06,0,23.68-1.29,34.95-5.59,4.43-2.33,10.34-.73,14.69-1.8,3.29-2.69,7-2.06,10.63-2.09,37.53,0,75-.11,112.56-1.28,65.1-2.87,130.49-1.72,195.44-6.55,12.17-1.56,24.16-4.56,36.22-7,13.87-3.33,32.62-3.23,37.54-19.37,28.43-74.76,35.84-156,39.18-235.34,3.92,7.65.92,17.72,1.91,26.24.06,12-.3,24,.23,35.94C1194.09,588,1198.75,633.57,1196.22,678.94Z"/><path id="Wing" class="cls-1" d="M967.71,96.06c-.39-15.37-.43-30.77-2-46.07-.31-3.15-6.08-5.55-8.45-3.48-2.25,2.25,1.28,7.54-3.95,6C931.21,45,266.74,45,244.57,52.48c-2.35.38-3.52.55-3.06-2.41a4.5,4.5,0,0,0-.9-3.56c-2.37-2.07-8.13.33-8.44,3.48-1.55,15.3-1.59,30.7-2,46.07.61,7.27-1.82,15.76,1.31,22.37,10.3-2.34,4.75-42,11.28-38.51,4.47.82,8.93,1.7,13.39,2.56H941.73c5.5-.13,16-5.56,16.25-.38.65,8.89,1.4,17.78,2.67,26.59C969.15,133.13,968,104.76,967.71,96.06Z"/><g id="Outline"><path id="Outline-2" data-name="Outline" class="cls-1" d="M1189.8,474.45a1.5,1.5,0,0,0-.11,2.1c3.27,10.05-1.47,21.3-.38,31.67.75,35.78-5.74,71.16-10.48,106.51-8,36.39-11.85,74.87-29.37,108.26-6.57,12.68-21.56,11.83-33.51,15.25-39.6,11.55-80.94,9.8-121.71,11.15-53.39,1.35-106.74,3.61-160.15,4-146.93-.57-418.26,2.25-563.53-2-62.8-4.38-127.17,2.85-188.62-13.19C70,734.82,55,735.68,48.43,723c-17.54-33.38-21.29-71.87-29.37-108.26C12,572.69,8.5,530.51,7.41,488c-1.52-38.54-3.66-79.86,4.95-119.17C26.45,312,91.14,294.42,139.11,275.08c16.68-5.44,8.51-10.53,9.31-22.72a1.78,1.78,0,0,0,.27-.22h0s0,0,0,0c-2.41-2.52-5.41-2.82-8.74-2.75-13.6.27-27.19-.36-40.06-5.15-29.3-9.18-19.44-37,2-49.68,18.7-12.15,41.48-18.21,63.57-13.88,21.89,4.7,18.53,34.42,13.89,51.16-1.62,4.42-4.59,8.79-3.79,13.71,4,2.63,4.7,8.12,7.51.29,18.59-56.11,44.74-109.42,72.65-161.39,6-11.29,12.4-22.34,18.93-33.33,1.91-3.39,4.87-6.55,9.23-5,1.67.57,2.67-.61,3.73-1.61C298.81,30.13,315.27,22.81,332.78,20,407.44,5,483.85,1.73,559.66,1h78.57C714,1.73,790.45,5,865.11,20c17.51,2.83,34,10.13,45.15,24.47,1.06,1,2.06,2.18,3.73,1.61,4.37-1.53,7.33,1.63,9.23,5,6.53,11,12.94,22,18.93,33.33,27.92,52,54.07,105.28,72.65,161.39,2.66,7.43,3.36,2.8,7.51-.29.81-4.92-2.16-9.29-3.79-13.71-4.65-16.73-8-46.48,13.89-51.16,22.1-4.32,44.88,1.73,63.57,13.88,21.42,12.7,31.37,40.49,2,49.68-12.87,4.79-26.46,5.42-40.06,5.15-3.33-.07-6.33.23-8.74,2.75,0,0,0,0,0,0h0a1.78,1.78,0,0,0,.27.22c1.71,6.83-5.83,15.57,2.68,19.62,14.17,6.82,29.58,10.92,43.89,17.53,36.85,15.78,80.21,36.24,89.49,79.29C1191.58,403.2,1195.16,440.3,1189.8,474.45Z"/><path id="Mirror_Left" data-name="Mirror Left" class="cls-1" d="M1049.2,249.61c-7.65-4.74-17.57-10-26.82-7.85"/><path id="Mirror_Right" data-name="Mirror Right" class="cls-1" d="M148.69,249.61c7.66-4.74,17.58-10,26.83-7.85"/></g><g id="Main"><g id="Headlight_Right" data-name="Headlight Right"><path id="Outer" class="cls-1" d="M927.46,399.58c4.3,86.68,150.4,93.32,150,1.2C1068.09,311.59,936.53,309,927.46,399.58Z"/><path id="Halo" class="cls-1" d="M1065.6,400a59,59,0,1,1-68.39-58.25l.32,0a2,2,0,0,1,2,1.68l.64,3.95a2,2,0,0,1-.36,1.49,2,2,0,0,1-1.3.8,51,51,0,1,0,16.25,0,2,2,0,0,1-1.3-.8,2,2,0,0,1-.36-1.49l.64-3.95a2,2,0,0,1,2-1.68l.32,0A58.71,58.71,0,0,1,1065.6,400Z"/></g><g id="Headlight_Left" data-name="Headlight Left"><path id="Outer-2" data-name="Outer" class="cls-1" d="M275.67,399.89c-4.3,86.68-150.4,93.33-150,1.2C135,311.9,266.6,309.33,275.67,399.89Z"/><path id="Halo-2" data-name="Halo" class="cls-1" d="M259.67,400a59,59,0,1,1-68.39-58.25l.32,0a2,2,0,0,1,2,1.68l.64,3.95a2,2,0,0,1-.36,1.49,2,2,0,0,1-1.3.8,51,51,0,1,0,16.25,0,2,2,0,0,1-1.3-.8,2,2,0,0,1-.36-1.49l.64-3.95a2,2,0,0,1,2-1.68l.32,0A58.71,58.71,0,0,1,259.67,400Z"/></g><path id="Squirters" class="cls-1" d="M785.55,247c-18.9-2.84,3.51-14.27,6.05-1.73-2,.52-3.85,1.69-5.92,1.28Zm-373.2,0c18.9-2.84-3.51-14.27-6.06-1.73,2,.52,3.86,1.69,5.93,1.28Z"/><path id="Creases" class="cls-2" d="M1189.8,477.45l-7.14-.95c-19.35,2.15-54.56,7.87-70.53,12-6.88,2.69-22.38,4.07-30.28,4a1347.64,1347.64,0,0,1-143.12,1.38c-21.94-1.65-60.58,1-63.79-27.29,4.63-54.91,43.45-185.38,94.4-216.2,0,0,13.28-7.08,26.62-5.41M6,475.21l9.22,1.29c19.36,2.15,54.57,7.87,70.53,12,6.88,2.69,22.39,4.07,30.29,4a1347.64,1347.64,0,0,0,143.12,1.38c21.94-1.65,60.58,1,63.78-27.29-4.62-54.91-43.44-185.38-94.4-216.2,0,0-7.53-5.43-26.62-5.41"/><path id="Line" class="cls-1" d="M322.08,449.88H875.82"/><g id="Lower-2" data-name="Lower"><path class="cls-1" d="M930.83,628.3q-25.49.51-51,1c-16.17-.85-30.81,7-32.87,24.21-2.43,15.68-4.66,31.39-6.56,47.13-1.13,9.41,2.06,14.48,10.92,17.79,19.57,5.51,40.76,1.74,60.89,2,17.08-.75,34.19-2.12,50.3-8.72,26.36-10.52,42.73-38.71,44.7-66.21.1-10.42-5.11-16.86-15.46-17.61C977.09,626.91,940.61,627.47,930.83,628.3Z"/><path class="cls-1" d="M1011.44,575.4c-.47,9.85,3,24.25-9.91,26.53-15.47,3-31.48,1.05-47.15,1.53v-.2c-17.42-1.84-39.5,5.19-54.08-6.2-7.1-5.74-3.18-16.12-3.2-24,3-13.72,19.61-20.25,32.56-21.27,24.4-.42,48.79-3.26,73.19-1.87C1016.08,550.05,1010,566.64,1011.44,575.4Z"/><path id="Outer_Right" data-name="Outer Right" class="cls-1" d="M1019.45,595.71c1,4,2.47,5.46,6.39,5.21,26.08-1.53,52.7-1.3,77.71-9.93,7.67-2.21,11.24-7.84,12.26-15.35,0-8.57,9.47-39.62-6.52-36.07-16.28,5.78-33.5,6.56-50.54,8.33-11.33,1.06-22.69,1.85-34,2.58-3.67.23-5.77,1.68-6.05,5.42C1017.38,568.64,1017.35,582.83,1019.45,595.71Z"/><path id="Outer_Left" data-name="Outer Left" class="cls-1" d="M178.45,595.71c-1,4-2.47,5.46-6.39,5.21-26.09-1.53-52.7-1.3-77.72-9.93-7.66-2.21-11.23-7.84-12.25-15.35,0-8.57-9.47-39.62,6.52-36.07,16.28,5.78,33.5,6.56,50.53,8.33,11.34,1.06,22.7,1.85,34.06,2.58,3.67.23,5.76,1.68,6.05,5.42C180.52,568.64,180.55,582.83,178.45,595.71Z"/><path class="cls-1" d="M809.65,650.77C806.68,707.51,797,732,735.3,728c-39.07-.39-78.14.92-117.18.54-35.78.32-71.5.19-107.27-.74q-24.14.64-48.26.2c-19.75-.3-42,2.22-57.23-13.15-13.63-15.06-32-85.15,2.13-84.36,57.68,0,115.35.56,173,.88,53.63.13,107.26-.55,160.89-.79,16.33-.09,32.67-.07,49-.09C801.85,629.89,809.55,640.13,809.65,650.77Z"/><path class="cls-1" d="M267.07,628.3q25.49.51,51,1c16.17-.85,30.81,7,32.88,24.21,2.42,15.68,4.65,31.39,6.55,47.13,1.14,9.41-2.05,14.48-10.91,17.79-19.57,5.51-40.76,1.74-60.89,2-17.09-.75-34.19-2.12-50.3-8.72-26.37-10.52-42.74-38.71-44.7-66.21-.11-10.42,5.11-16.86,15.46-17.61C220.81,626.91,257.29,627.47,267.07,628.3Z"/><path class="cls-1" d="M301.59,587.41c-1.08,23.84-42,13.79-58.08,15.85v.2c-15.67-.48-31.67,1.43-47.14-1.53-12.87-2.28-9.46-16.58-9.92-26.43,1.4-8.78-4.61-25.43,8.59-25.55,24.41-1.39,48.8,1.45,73.19,1.87,10.61.31,19.19,4.82,27.07,11.32C302.58,568.91,301.18,579.14,301.59,587.41Z"/></g><g id="Logo"><path id="Logo-2" data-name="Logo" class="cls-1" d="M612.34,404.76H586.81C578.69,404.76,612.57,404.76,612.34,404.76Z"/><path id="Logo-3" data-name="Logo" class="cls-1" d="M616.8,394.72c2.23,17-7.51,18.69-17.86,21.89-10.35-3.21-20.07-4.89-17.85-21.89,0,0,5.6-1.82,17.85-1.82S616.8,394.72,616.8,394.72Z"/></g><rect id="Intake" class="cls-1" x="436.45" y="235.12" width="325" height="9.03"/></g></g></g></svg>