<svg width="4725" height="1517" viewBox="0 0 4725 1517" fill="none" xmlns="http://www.w3.org/2000/svg">
<g clip-path="url(#clip0)">
<path opacity="0.2" d="M4715.2 1283C4709.9 1280.9 4706 1278.8 4701.6 1266.3C4697.2 1253.8 4712.3 1124.9 4712.3 1124.9C4713.3 1104.4 4721.2 1018.4 4718 990.8C4717 981.4 4706.3 962.6 4706.3 962.6C4706.3 962.6 4682.3 921.1 4666.6 905.7C4650.9 890.3 4583.1 854.1 4554.9 831.1C4524.7 808 4391.7 660.6 4349.1 637.8C4253.7 613.4 4051.9 578.4 3954.1 564C3709.2 524.8 3207.1 469.7 3183 467C3181.4 465.5 3165 463.6 3150.7 459C3135.9 454.3 3123.3 447.1 3122.3 448.5C3120.1 447.6 3117.9 446.6 3116 445.8L3115.6 446.2V446.4L3115.4 446.3L3107 441.7L3080.9 421.6C3080.5 421.6 3057.5 404.3 3058.8 404.7L2572.7 31.6L2572.5 31.5L2571.5 30.7C2562.8 24.4 2556.1 25.8 2556.1 25.8C2541.2 17.4 2374.5 1.20005 2151.5 4.50005C1959.3 7.30005 1725 24.6 1509.1 73.6C1487.8 78.4 1488.6 109.8 1469.8 117.9C1451 126 1330 162.3 1330 162.3C1186.6 209.7 993.4 281.7 854.7 341.5C813.7 359.2 781.5 379.7 727.9 387.9C654.7 394.4 581.8 403.9 509.3 411.9C501.2 412.4 491.8 406.9 491.8 406.9C449.6 372.5 383.6 337.3 299.8 337.5C234.1 342.9 214.9 364.5 240.8 413.7C260.9 446.3 293.5 518.3 293.5 518.3C329.4 579.1 278.8 607 221.8 638C201.8 648.9 155.3 668.2 152.9 689.4C137.4 699.7 71.7 769.9 67.5 796.6C67.5 796.6 21.2 818.6 12.1 836C3.80005 851.9 3.80005 877.2 3.80005 877.2C3.80005 877.2 29.7 1142.5 46.1 1168.3C62.5 1194.1 91.5 1210.6 91.5 1210.6C132 1215.1 465.1 1272.2 556.4 1273.7C565.3 1273.8 628.7 1274.6 625.4 1266.3C625.4 1266.2 625.3 1266.1 625.3 1266H625.6C625.6 1251.5 639.5 1254.3 639.5 1254.3H667.3L677 1254.2L1401.7 1249.5H1407.3L1498.2 1258.5C1498.8 1281 1500.1 1305.1 1503.3 1332.8C1511.2 1340.8 1571.4 1334.2 1623.3 1322.9C2015.1 1282.9 1756.3 1309.9 2362.1 1310.9C2976.7 1325.2 3144.1 1326.4 3192.1 1336.7C3240.1 1347 3265.6 1345.8 3278.9 1339.5C3288.9 1334.9 3294.5 1329.9 3297.1 1304.9H3297.2C3297.2 1304.9 3334.8 1299.5 3430.2 1294.7H3430.9L4118.6 1296.1C4118.6 1296.1 4142.8 1303.6 4149.5 1309.1C4168.3 1325 4155.8 1337.5 4161.3 1343C4166.1 1347.7 4211.3 1372.9 4222.8 1379.3C4223.6 1380 4224.4 1380.6 4225.3 1381.1C4353.2 1375.8 4552.6 1352.6 4615.8 1345.1C4679.4 1337.5 4739 1305.2 4715.2 1283ZM4636.7 1086.8H4522.7C4505.6 1086.8 4483 1061.4 4482 1034.5C4481 1007.2 4486.4 1003.2 4504.8 1003.2C4539.7 1003.2 4634.4 1003.9 4663.5 1003.9C4693.4 1003.9 4696.5 1000.2 4699.6 1009.6C4702.7 1019 4701.2 1069.1 4692.3 1078.5C4683.4 1087.9 4636.7 1086.8 4636.7 1086.8Z" fill="#494B50"/>
<path d="M4715.2 1283C4709.9 1280.9 4706 1278.8 4701.6 1266.3C4697.2 1253.8 4712.3 1124.9 4712.3 1124.9C4713.3 1104.4 4721.2 1018.4 4718 990.8C4717 981.4 4706.3 962.6 4706.3 962.6C4706.3 962.6 4682.3 921.1 4666.6 905.7C4650.9 890.3 4583.1 854.1 4554.9 831.1C4524.7 808 4391.7 660.6 4349.1 637.8C4253.7 613.4 4051.9 578.4 3954.1 564C3709.2 524.8 3207.1 469.7 3183 467C3179.8 464 3176.3 461.4 3172.5 459.2C3171 447.9 3167.9 437.8 3175.2 440.7C3230.2 393.7 3077.9 414.6 3055.5 403.5L3079.6 421.5C3094 422.9 3112.6 426.4 3124.5 435.1L3147.8 433.4C3140.5 435.5 3138.2 440.7 3138.2 440.7C3130 439.3 3124.3 445.8 3122.3 448.5C3120.1 447.6 3117.9 446.6 3116 445.8L3115.6 446.2V446.4L3115.4 446.3L3106.7 441.5C3106.6 441.5 3106.6 441.5 3106.5 441.4L3104.2 442.6L3103.9 442.8C3103.9 442.8 3102.2 443.7 3101.3 444.1C3097.9 445.7 3094 447.4 3089.8 449C3088.8 449.4 3087.9 449.7 3086.9 450.1C3086.3 450.3 3085.7 450.5 3085.1 450.8L3083.3 451.4C3082.1 451.8 3080.8 452.3 3079.5 452.7C3078.2 453.1 3076.9 453.5 3075.5 453.9C3074.1 454.3 3072.8 454.7 3071.4 455.1L3067.2 456.3C3066.5 456.5 3065.8 456.7 3065 456.9L3060.6 458.1C3055.8 459.3 3050.7 460.5 3045.5 461.6C3042.6 462.2 3039.6 462.8 3036.6 463.4C3033.6 464 3030.5 464.5 3027.4 465.1C3022.7 465.9 3018 466.6 3013.2 467.3L3008.4 467.9C3006.2 468.2 3004.1 468.4 3001.9 468.7C2999.7 469 2997.5 469.2 2995.3 469.4C2992.4 469.7 2989.5 469.9 2986.5 470.1L2981.7 470.4H2981C2971.7 471 2962.3 471.2 2953 471.1C2951.2 471.1 2949.4 471.1 2947.7 471C2946.3 471 2945 470.9 2943.6 470.9L2936.9 470.6C2934.7 470.5 2932.5 470.3 2930.3 470.1C2929.5 470 2928.6 469.9 2927.8 469.9C2926.5 469.8 2925.2 469.7 2923.9 469.5C2922 469.3 2920.2 469.1 2918.3 468.8C2917.2 468.6 2916.1 468.3 2914.9 468C2914.5 467.9 2914.1 467.8 2913.7 467.6C2913.6 467.6 2913.5 467.6 2913.4 467.5C2913 467.4 2912.6 467.3 2912.2 467.1C2912 467 2911.7 466.9 2911.5 466.9C2911.1 466.8 2910.7 466.6 2910.4 466.5H2910.3C2909.8 466.3 2909.2 466.1 2908.7 465.9C2908.2 465.7 2907.6 465.5 2907.1 465.3C2906.5 465.1 2906 464.9 2905.5 464.6C2905.2 464.5 2904.8 464.3 2904.5 464.2C2902.1 463.2 2899.8 462 2897.5 460.7C2897 460.4 2896.4 460.1 2895.9 459.8C2895.4 459.5 2894.8 459.2 2894.3 458.9C2893.8 458.6 2893.3 458.3 2892.7 458C2891.2 457.1 2889.6 456.1 2888.1 455.1C2887.6 454.8 2887.1 454.4 2886.6 454.1C2886.1 453.8 2885.6 453.4 2885.1 453.1L2882.1 451C2875.7 446.5 2869.5 441.5 2863.7 436.5C2863.2 436 2862.6 435.5 2862 435.1C2859.7 433.1 2857.5 431.1 2855.4 429.1C2855 428.8 2854.6 428.4 2854.3 428C2847.9 422 2842.4 416.4 2838.1 411.9C2837.8 411.6 2837.5 411.3 2837.3 411C2836 409.7 2834.9 408.4 2833.9 407.3C2833.8 407.1 2833.6 407 2833.5 406.8C2831.2 404.2 2829.6 402.5 2829 401.7L2828.9 401.6C2828.8 401.5 2828.8 401.5 2828.8 401.4C2828.8 401.3 2828.8 401.3 2828.7 401.3L2561.9 114.1C2559.2 111.3 2556.6 108.3 2554.2 105.4C2553.6 104.7 2553 103.9 2552.5 103.2C2552.2 102.8 2551.9 102.4 2551.7 102.1C2551.3 101.6 2551 101.1 2550.7 100.6C2550.5 100.4 2550.4 100.1 2550.2 99.9C2549.9 99.4 2549.6 98.9 2549.3 98.4C2549 98 2548.8 97.6 2548.5 97.2C2548.4 97.1 2548.3 97 2548.3 96.8C2547.8 96 2547.4 95.3 2547 94.5L2546.4 93.3L2545.8 92.1C2545.7 91.8 2545.5 91.5 2545.4 91.2C2545.1 90.7 2544.9 90.1 2544.7 89.5C2544.3 88.6 2544 87.6 2543.7 86.7C2540.9 77.6 2542.2 68.5 2550.3 59.7L2550.9 59.1L2551.5 58.5C2551.9 58 2552.4 57.6 2552.9 57.2C2553.2 57 2553.4 56.8 2553.6 56.5C2554.2 55.9 2554.9 55.4 2555.6 54.8C2556.7 54 2557.8 53.1 2558.9 52.3C2559.7 51.7 2560.5 51.2 2561.4 50.6C2562.2 50.1 2563.1 49.5 2564 49C2565.5 48.1 2567 47.3 2568.7 46.4C2569.7 45.9 2570.7 45.4 2571.8 44.9C2572.5 44.6 2573.2 44.2 2573.9 43.9C2574.3 43.7 2574.6 43.6 2575 43.4C2575.8 43 2576.6 42.7 2577.4 42.3C2578.2 41.9 2579.1 41.6 2579.9 41.2C2579.9 41 2578.1 35.5 2571.5 30.7C2562.8 24.4 2556.1 25.8 2556.1 25.8C2541.2 17.4 2374.5 1.20005 2151.5 4.50005C1959.3 7.30005 1725 24.6 1509.1 73.6C1487.8 78.4 1488.6 109.8 1469.8 117.9C1451 126 1330 162.3 1330 162.3C1186.6 209.7 993.4 281.7 854.7 341.5C813.7 359.2 781.5 379.7 727.9 387.9C654.7 394.4 581.8 403.9 509.3 411.9C501.2 412.4 491.8 406.9 491.8 406.9C449.6 372.5 383.6 337.3 299.8 337.5C234.1 342.9 214.9 364.5 240.8 413.7C260.9 446.3 293.5 518.3 293.5 518.3C329.4 579.1 278.8 607 221.8 638C201.8 648.9 155.3 668.2 152.9 689.4C137.4 699.7 71.7 769.9 67.5 796.6C67.5 796.6 21.2 818.6 12.1 836C3.80005 851.9 3.80005 877.2 3.80005 877.2C3.80005 877.2 29.7 1142.5 46.1 1168.3C62.5 1194.1 91.5 1210.6 91.5 1210.6C132 1215.1 465.1 1272.2 556.4 1273.7C565.3 1273.8 628.7 1274.6 625.4 1266.3C625.4 1266.2 625.3 1266.1 625.3 1266H625.6C625.6 1251.5 639.5 1254.3 639.5 1254.3H667.3L677 1254.2L1401.7 1249.5H1407.3L1498.2 1258.5C1498.8 1281 1500.1 1305.1 1503.3 1332.8C1511.2 1340.8 1571.4 1334.2 1623.3 1322.9C2015.1 1282.9 1756.3 1309.9 2362.1 1310.9C2976.7 1325.2 3144.1 1326.4 3192.1 1336.7C3240.1 1347 3265.6 1345.8 3278.9 1339.5C3288.9 1334.9 3294.5 1329.9 3297.1 1304.9H3297.2C3297.2 1304.9 3334.8 1299.5 3430.2 1294.7H3430.9L4118.6 1296.1C4118.6 1296.1 4142.8 1303.6 4149.5 1309.1C4168.3 1325 4155.8 1337.5 4161.3 1343C4166.1 1347.7 4211.3 1372.9 4222.8 1379.3C4223.6 1380 4224.4 1380.6 4225.3 1381.1C4353.2 1375.8 4552.6 1352.6 4615.8 1345.1C4679.4 1337.5 4739 1305.2 4715.2 1283ZM1515.5 460H1514.7C1514.6 460 1502.6 460.2 1482.8 460.2C1433.2 460.2 1337 458.8 1249.9 449.7C1202 444.7 1163.4 438 1135.1 429.8C1093.6 417.8 1087.9 406.5 1087.4 405.2C1086.5 402.9 1085.8 399.7 1088.5 394C1092.3 385.8 1103.2 371.9 1132.9 352.3C1153.8 338.6 1181 324.1 1213.6 309.5C1269.9 284.1 1323.3 266.7 1323.8 266.6L1324.1 266.5L1324.4 266.4C1325 266.2 1384.5 244.8 1466.1 220.1C1514.7 205.4 1577.8 187.6 1642.1 172.9L1741.4 463.1L1515.5 460ZM2080.4 467.8L1806.3 464L1704.9 159.6C1719.1 156.9 1733.1 154.5 1746.8 152.4C1931.1 124 2195.4 115.2 2198.1 115.1C2198.4 115.1 2224.2 114.3 2260.3 114.3C2289.4 114.3 2329.9 114.9 2369.2 117.2L2501.3 467.8H2080.4ZM2680 346.9C2664.7 350.9 2650.7 358.7 2639.2 369.5C2636.7 371.9 2634.2 374.3 2631.9 376.9C2614 396.9 2603.9 422.3 2604.7 442.8C2604.7 442.8 2601.6 454.7 2611.7 467.7V467.8H2527.1L2398.1 119.4C2465.5 125.6 2476.9 121.4 2587.9 239C2625.2 278.4 2664.2 326.8 2680 346.9ZM4636.7 1086.8H4522.7C4505.6 1086.8 4483 1061.4 4482 1034.5C4481 1007.2 4486.4 1003.2 4504.8 1003.2C4539.7 1003.2 4634.4 1003.9 4663.5 1003.9C4693.4 1003.9 4696.5 1000.2 4699.6 1009.6C4702.7 1019 4701.2 1069.1 4692.3 1078.5C4683.4 1087.9 4636.7 1086.8 4636.7 1086.8Z" fill="#494B50" stroke="#C4C9D4" stroke-width="4" stroke-miterlimit="10"/>
<path d="M2842.4 489.8C2841.8 496.3 2840.8 502.7 2840.2 510.9C2838.6 530.5 2801.8 544.2 2768.2 542.2C2734.6 540.2 2718.1 534.4 2711.1 520.3C2704.1 506.2 2741.6 489.8 2741.6 489.8H2664.7C2649.2 488.3 2635 485.5 2626.6 480.4C2621 477.1 2615.9 472.8 2611.8 467.8C2601.6 454.8 2604.7 442.8 2604.7 442.8C2603.9 422.3 2614 396.9 2631.9 376.9C2634.2 374.3 2636.7 371.9 2639.2 369.5C2650.7 358.7 2664.7 350.9 2680 346.9C2680.2 346.9 2680.3 346.8 2680.5 346.8C2686.4 345.3 2692.5 344.4 2698.6 344.2C2709.1 343.8 2720.4 346.5 2731.9 351.3C2732 351.3 2732.1 351.4 2732.2 351.4C2782.7 372.7 2836.1 434.7 2840.3 456.1C2841.4 461.5 2842.2 467 2842.6 472.5V472.6C2843 478.4 2842.9 484.1 2842.4 489.8Z" fill="#494B50" stroke="#C4C9D4" stroke-width="4" stroke-miterlimit="10"/>
<path d="M4715.2 1283C4709.9 1280.9 4706 1278.8 4701.6 1266.3C4697.2 1253.8 4712.3 1124.9 4712.3 1124.9C4713.3 1104.4 4721.2 1018.4 4718 990.8C4717 981.4 4706.3 962.6 4706.3 962.6C4706.3 962.6 4682.3 921.1 4666.6 905.7C4661.9 901.5 4656.8 897.6 4651.5 894.1C4638.4 885.1 4619.8 874 4601.8 862.7C4583.8 851.4 4566.2 840.2 4554.9 831.1C4544.6 823.2 4522.5 801 4496.1 774.2C4473.2 751.1 4447.2 724.5 4422.9 700.8C4398.6 677.1 4375.9 656.3 4359.8 644.6C4356.4 642.1 4352.8 639.8 4349.1 637.7C4253.7 613.3 4051.9 578.3 3954.1 563.9C3800.4 539.3 3545.5 508.4 3370.9 488.2C3267.3 476.2 3192 467.9 3183 466.9C3168.5 465.3 3147.8 458.5 3131.1 452C3128 450.8 3125.1 449.6 3122.4 448.5C3119.7 447.4 3121.4 449.8 3121.4 449.8C3099.8 471.5 2986.5 492.8 2913.3 483.1C2890.4 478.3 2863.8 455.6 2845.4 437.4L2845.3 437.3C2831.9 424 2822.8 413 2822.8 413L2548 117C2525.3 93.2 2499.3 39.9 2556.1 25.9C2542.2 17.5 2375.5 1.10003 2151.7 4.40003C1959.5 7.20003 1725.2 24.5 1509.3 73.5C1488 78.3 1488.8 109.7 1470 117.8C1451.2 125.9 1330.2 162.2 1330.2 162.2C1186.8 209.6 993.6 281.6 854.9 341.4C833 350.8 813.7 361.1 792.2 369.8C782.4 373.8 772.4 377.3 762.3 380.3C742.3 390.5 733.3 424 731.7 430.9C527.2 509.1 313.7 593.1 231 633C228 634.6 225 636.3 222 637.9C217.6 640.3 211.9 643.1 205.7 646.3C183.7 657.4 155 672.8 153.1 689.3C150.5 691 146.5 694.5 141.5 699.1C117.2 722 71.2 774.3 67.7 796.5C67.7 796.5 21.4 818.5 12.3 835.9C4 851.8 4 877.1 4 877.1C4 877.1 29.9 1142.4 46.3 1168.2C62.7 1194 91.7 1210.5 91.7 1210.5C132.2 1215 465.3 1272.1 556.6 1273.6C565.5 1273.7 628.9 1274.5 625.6 1266.2C623.5 1260.5 605.9 1264.8 594.9 1250.3C587.4 1240.4 591.4 1164.2 591.4 1164.2C595.7 1018.4 643.3 905.9 718.5 828.5C799.2 745.4 911.9 702.7 1037.1 702.7C1216.1 702.7 1398.7 814.8 1478.5 1045.5C1488.9 1089.9 1493.5 1125.2 1495.7 1157.1C1505.5 1156.9 1621.5 1153.9 1736.8 1152.5C1857.3 1151 2017.5 1160.1 2017.5 1160.1L2308.9 1168.4L2680.4 1176.2C2680.4 1176.2 3010.1 1183.3 3075.1 1185.9C3096.8 1186.8 3114 1187.6 3128.2 1188.5C3156.6 1190.3 3173.2 1192.1 3189.9 1194.2C3214.9 1197.4 3250.4 1205.7 3269.2 1205.7C3285 1205.7 3299.3 1200 3303.5 1198.2C3343 845.7 3625.1 613.4 4011.5 793.5C4195.7 879.4 4267 1158.3 4220.7 1348.9C4214.3 1352.1 4213.9 1371.9 4223.5 1379.7C4224.1 1380.2 4224.7 1380.6 4225.4 1381C4353.3 1375.7 4552.7 1352.5 4615.9 1345C4679.4 1337.5 4739 1305.2 4715.2 1283ZM3132.1 1141.7L2817.7 1132.1C2817.7 1132.1 2375.3 1122.2 2252.7 1119.6C2130.1 1117 2014.8 1121.2 1966.8 1092.5C1918.8 1063.8 1875 937 1851.5 883.3C1828 829.6 1780.5 683 1780.5 683C1780.5 683 1751.3 595.4 1751.3 552.6C1751.5 529.5 1756.4 506.7 1765.8 485.6L1515.2 482.1C1515.2 482.1 1503.1 482.3 1482.9 482.3C1384.4 482.3 1092.8 476.9 1067.1 413.6C1036 336.8 1317.1 245.7 1317.1 245.7C1317.1 245.7 1555.8 159.6 1743.6 130.7C1931.4 101.8 2197.5 93.1 2197.5 93.1C2197.5 93.1 2223.5 92.3 2260.4 92.3C2336.2 92.3 2458 95.8 2496.4 117.4C2553.7 149.3 2722 341.1 2722 341.1L2731.9 351.3C2732 351.3 2732.1 351.4 2732.2 351.4C2782.7 372.7 2836.1 434.7 2840.3 456.1C2841.4 461.5 2842.2 467 2842.6 472.5V472.6L2861.9 489.8C2861.9 489.8 2866.6 496.1 2887.7 504.7C2908.8 513.3 2938.7 512.5 2938.7 512.5C2938.7 512.5 3084.9 514.8 3124.7 565.3C3194.1 653.6 3148.1 979.4 3132.1 1141.7ZM4636.7 1086.8H4522.7C4505.6 1086.8 4483 1061.4 4482 1034.5C4481 1007.2 4486.4 1003.2 4504.8 1003.2C4539.7 1003.2 4634.4 1003.9 4663.5 1003.9C4693.4 1003.9 4696.5 1000.2 4699.6 1009.6C4702.7 1019 4701.2 1069.1 4692.3 1078.5C4683.4 1087.9 4636.7 1086.8 4636.7 1086.8Z" fill="#494B50" stroke="#C4C9D4" stroke-width="4" stroke-miterlimit="10"/>
<path d="M762.2 380.4C742.2 390.6 733.2 424.1 731.6 431C527.1 509.2 313.6 593.2 230.9 633.1C284 604 327.6 575.9 293.6 518.3C293.6 518.3 261 446.3 240.9 413.7C220.5 375 228 353.4 264.1 343.3C273.9 340.5 285.8 338.7 299.9 337.5C383.7 337.3 449.7 372.5 491.9 406.9C491.9 406.9 501.3 412.4 509.4 411.9C581.9 403.9 654.8 394.4 728 387.9C739.5 386.2 751 383.7 762.2 380.4Z" fill="#494B50" stroke="#C4C9D4" stroke-width="4" stroke-miterlimit="10"/>
<path d="M3124.7 565.3C3084.9 514.8 2938.7 512.5 2938.7 512.5C2938.7 512.5 2908.8 513.3 2887.7 504.7C2866.6 496.1 2861.9 489.8 2861.9 489.8H2842.4C2841.8 496.3 2840.8 502.7 2840.2 510.9C2838.6 530.5 2801.8 544.2 2768.2 542.2C2734.6 540.2 2718.1 534.4 2711.1 520.3C2704.1 506.2 2741.6 489.8 2741.6 489.8H2664.7C2649.2 488.3 2635 485.5 2626.6 480.4C2621 477.1 2615.9 472.8 2611.8 467.8C2601.6 454.8 2604.7 442.8 2604.7 442.8C2603.9 422.3 2614 396.9 2631.9 376.9C2613.8 396.8 2603.7 422.4 2604.5 442.9C2604.5 442.9 2601.4 454.8 2611.5 467.8L2611.6 467.9C2615.7 473 2620.7 477.2 2626.4 480.5C2634.8 485.6 2649 488.4 2664.5 489.9H2080.2L1765.8 485.6C1756.4 506.7 1751.5 529.5 1751.3 552.6C1751.3 595.4 1780.5 683 1780.5 683C1780.5 683 1828 829.6 1851.5 883.3C1875 937 1918.8 1063.8 1966.8 1092.5C2014.8 1121.2 2130.1 1117 2252.7 1119.6C2375.3 1122.2 2817.7 1132.1 2817.7 1132.1L3132.1 1141.7C3148.1 979.4 3194.1 653.6 3124.7 565.3Z" fill="#494B50" stroke="#C4C9D4" stroke-width="4" stroke-miterlimit="10"/>
<path d="M3303.4 1198.3C3300.7 1222.5 3299.1 1247.4 3298.7 1272.6C3297.9 1326.6 3292.3 1333.3 3279 1339.5C3265.7 1345.7 3240.2 1347 3192.2 1336.7C3144.2 1326.4 2976.8 1325.2 2362.2 1310.9C1756.4 1309.9 2015.2 1282.9 1623.4 1322.9C1571.5 1334.2 1511.3 1340.8 1503.4 1332.8C1500.2 1305.2 1499 1281.2 1498.3 1258.6C1497.3 1223.8 1497.9 1192.6 1495.5 1157.1C1505.3 1156.9 1621.3 1153.9 1736.6 1152.5C1857.1 1151 2017.3 1160.1 2017.3 1160.1L2308.7 1168.4L2680.2 1176.2C2680.2 1176.2 3009.9 1183.3 3074.9 1185.9C3096.6 1186.8 3113.8 1187.6 3128 1188.5C3156.4 1190.3 3173 1192.1 3189.7 1194.2C3214.7 1197.4 3250.2 1205.7 3269 1205.7C3284.9 1205.8 3299.2 1200.1 3303.4 1198.3Z" fill="#494B50" stroke="#C4C9D4" stroke-width="4" stroke-miterlimit="10"/>
<path d="M318.6 806L89 797.4H65.9C67 796.9 67.6 796.6 67.6 796.6C67.6 796.4 67.7 796.1 67.7 795.8C67.7 795.5 67.8 795.5 67.8 795.3C67.9 794.8 68.1 794.2 68.2 793.6C68.3 793.4 68.3 793.1 68.4 792.9L68.7 792C68.8 791.7 68.9 791.3 69 791C69.1 790.7 69.2 790.5 69.3 790.2C69.4 789.9 69.5 789.6 69.7 789.3C69.8 788.9 70 788.5 70.2 788.1C74.5 778 83.5 764.8 94 751.3C94.5 750.6 95.1 749.9 95.7 749.2C98.4 745.9 101.1 742.5 103.9 739.2C104.3 738.7 104.7 738.2 105.2 737.7L105.4 737.5C106.4 736.3 107.4 735.2 108.4 734C110 732.1 111.6 730.3 113.3 728.4C113.7 728 114 727.6 114.4 727.2C115.9 725.5 117.4 723.9 118.8 722.3C119.3 721.8 119.8 721.2 120.3 720.7C120.9 720 121.6 719.3 122.2 718.7C122.5 718.3 122.9 718 123.2 717.6C123.5 717.2 123.7 717.1 123.9 716.8L124.8 715.9C130.3 710.1 135.4 704.9 140 700.6C140.3 700.3 140.6 700 141 699.7L205.2 700.3C223.3 700.8 239.7 701.5 246.1 702.4C257 704.2 267.6 707.6 277.4 712.6C309.1 735.1 307.5 760.8 311.8 772.9C315.9 785.3 318.6 806 318.6 806Z" fill="#FF0314" stroke="#C4C9D4" stroke-width="8" stroke-miterlimit="10"/>
<path d="M67.8 796.6L318.6 806C318.6 806 315.9 785.3 311.6 773.1C307.3 760.9 308.9 735.3 277.2 712.8C267.4 707.8 256.8 704.4 245.9 702.6C229.1 700.3 141.3 699.2 141.3 699.2" stroke="#C4C9D4" stroke-width="4" stroke-miterlimit="10"/>
<path d="M718.4 828.6L318.6 805.9" stroke="#C4C9D4" stroke-width="4" stroke-miterlimit="10"/>
<path d="M3304.6 1197.7C3304.6 1197.7 3287.9 1205.8 3269.1 1205.8C3250.3 1205.8 3214.8 1197.5 3189.8 1194.3C3164.8 1191.1 3140 1188.6 3075 1186C3010 1183.4 2680.3 1176.3 2680.3 1176.3L2308.8 1168.5L2017.4 1160.2C2017.4 1160.2 1857.2 1151.1 1736.7 1152.6C1616.2 1154.1 1494.9 1157.2 1494.9 1157.2" stroke="#C4C9D4" stroke-width="4" stroke-miterlimit="10"/>
<path d="M2842.4 489.8H2861.9C2861.9 489.8 2866.6 496.1 2887.7 504.7C2908.8 513.3 2938.7 512.5 2938.7 512.5C2938.7 512.5 3084.9 514.8 3124.7 565.3C3201.7 663.3 3136.6 1053.9 3128.1 1188.7" stroke="#C4C9D4" stroke-width="4" stroke-miterlimit="10"/>
<path d="M1765.9 485.4C1765.9 485.4 1751.3 514.8 1751.3 552.6C1751.3 595.4 1780.5 683 1780.5 683C1780.5 683 1828 829.6 1851.5 883.3C1875 937 1918.8 1063.8 1966.8 1092.5C2014.8 1121.2 2130.1 1117 2252.7 1119.6C2375.3 1122.2 2817.7 1132.1 2817.7 1132.1L3133.4 1141.7" stroke="#C4C9D4" stroke-width="4" stroke-miterlimit="10"/>
<path d="M4149.4 914.6H4535.3C4535.3 914.6 4644 911.2 4650.1 905.9C4656.2 900.6 4651.2 893.7 4651.2 893.7" stroke="#C4C9D4" stroke-width="4" stroke-miterlimit="10"/>
<path d="M4504.8 1003.2C4539.7 1003.2 4634.4 1003.9 4663.5 1003.9C4693.4 1003.9 4696.5 1000.2 4699.6 1009.6C4702.7 1019 4701.2 1069.1 4692.3 1078.5C4683.4 1087.9 4636.7 1086.8 4636.7 1086.8H4522.7C4505.6 1086.8 4483 1061.4 4482 1034.5C4481 1007.2 4486.4 1003.2 4504.8 1003.2Z" stroke="#C4C9D4" stroke-width="4" stroke-miterlimit="10"/>
<path d="M2842.4 489.8C2841.8 496.3 2840.8 502.7 2840.2 510.9C2838.6 530.5 2801.8 544.2 2768.2 542.2C2734.6 540.2 2718.1 534.4 2711.1 520.3C2704.1 506.2 2741.6 489.8 2741.6 489.8H2664.7C2649.2 488.3 2635 485.5 2626.6 480.4C2621 477.1 2615.9 472.8 2611.8 467.8C2601.6 454.8 2604.7 442.8 2604.7 442.8C2603.3 408 2633.5 358.6 2680.5 346.8C2686.4 345.3 2692.5 344.4 2698.6 344.2C2709.2 343.8 2720.6 346.6 2732.2 351.4C2782.7 372.7 2836.1 434.7 2840.3 456.1C2841.4 461.5 2842.2 467 2842.6 472.5C2843 478.3 2842.9 484.1 2842.4 489.8Z" stroke="#C4C9D4" stroke-width="4" stroke-miterlimit="10"/>
<path d="M2741.6 489.8C2741.6 489.8 2766.3 500.4 2791.7 498.4C2817.1 496.4 2842.5 489.8 2842.5 489.8" stroke="#C4C9D4" stroke-width="4" stroke-miterlimit="10"/>
<path d="M762.4 380.3C739.9 391.5 731.3 432.2 731.3 432.2" stroke="#C4C9D4" stroke-width="4" stroke-miterlimit="10"/>
<path d="M205 646.7C307.7 584.5 1188.9 258.9 1188.9 258.9C1188.9 258.9 1413.5 180.6 1607.6 142.3C1801.7 104 1932.6 93.9 2080.6 86.5C2442.5 68.5 2482.7 93.8 2548.2 158.4" stroke="#C4C9D4" stroke-width="4" stroke-miterlimit="10"/>
<path d="M1985.8 641.5C1985.2 642.4 1984.5 643.3 1983.7 644.2C1972.6 657.3 1951.4 669.2 1918.1 668.9C1893.7 668.7 1875.8 661.5 1865.8 647.7C1866 640.7 1859.6 627.2 1928.1 626.7C1986.2 626.3 1988.3 636.5 1985.8 641.5Z" stroke="#C4C9D4" stroke-width="4" stroke-miterlimit="10"/>
<path d="M1986.7 600C1980.7 602.1 1988.6 610.8 1922.2 604.8C1864.3 599.6 1869 593.6 1868.5 589.3C1878 579.6 1893.2 573 1914.7 572.9C1952 572.7 1976.3 583.7 1986.7 600Z" stroke="#C4C9D4" stroke-width="4" stroke-miterlimit="10"/>
<path d="M2051.3 622.1C2051.3 632.3 2018.7 639.6 1983.7 644.2C1984.5 643.4 1985.2 642.5 1985.8 641.5C1988.3 636.5 1986.2 626.3 1928.1 626.7C1859.5 627.2 1865.9 640.6 1865.8 647.7C1865.8 648.3 1865.7 648.8 1865.6 649.4C1864.8 651.8 1857.9 651.6 1852.8 651.7C1812.5 652.5 1786.4 649.8 1786.4 620.3C1786.4 598.7 1803.9 588.5 1828.4 586C1841.9 584.6 1865.5 585.6 1867.6 587.3C1868.3 587.8 1868.7 588.6 1868.7 589.4C1869.1 593.7 1864.4 599.6 1922.4 604.9C1988.8 610.9 1980.9 602.2 1986.9 600.1C1988.5 599.5 1991 599.5 1996.2 600.2C2029.5 605.1 2051.3 612.2 2051.3 622.1Z" stroke="#C4C9D4" stroke-width="4" stroke-miterlimit="10"/>
<path d="M264.1 343.3C256.3 354.4 266.6 366.6 266.6 366.6C283.6 383.3 301.5 399 320.3 413.6C351 437.4 411.2 475.9 462.9 472.2C462.9 472.2 529.4 474.4 735.4 418.1" stroke="#C4C9D4" stroke-width="4" stroke-miterlimit="10"/>
<path d="M509.4 411.9C380.8 427.1 386.6 454.5 386.6 454.5" stroke="#C4C9D4" stroke-width="4" stroke-miterlimit="10"/>
<path d="M4225.4 1380.9C4225.4 1380.9 4166.7 1348.5 4161.2 1343.1C4155.7 1337.7 4168.2 1325.1 4149.4 1309.2C4142 1303 4130 1298.4 4113.6 1295.1L3430.2 1294.8C3334.8 1299.6 3297.2 1305 3297.2 1305" stroke="#C4C9D4" stroke-width="4" stroke-miterlimit="10"/>
<path d="M625.6 1266.1C625.6 1251.6 639.5 1254.4 639.5 1254.4H667.3L1407.3 1249.6L1498.8 1258.7" stroke="#C4C9D4" stroke-width="4" stroke-miterlimit="10"/>
<path d="M1448.4 125.6C1448.4 125.6 1423.5 138.5 1243.9 204.6C1064.3 270.7 884.7 348.1 843.2 363.8C801.7 379.5 792.1 369.9 792.1 369.9" stroke="#C4C9D4" stroke-width="4" stroke-miterlimit="10"/>
<path d="M3370.9 488.3C3370.9 488.3 3367.3 478.2 3351.1 476.1C3334.9 474 3330.2 482.2 3330.2 482.2" stroke="#C4C9D4" stroke-width="4" stroke-miterlimit="10"/>
<path d="M4496.1 774.3C4496.1 774.3 4483.3 743.8 4442.8 704.7C4376.7 640.7 4359.7 644.7 4359.7 644.7" stroke="#C4C9D4" stroke-width="4" stroke-miterlimit="10"/>
<path d="M3108.9 440.3L3106.8 441.5C3106.7 441.5 3106.7 441.4 3106.6 441.4C3105.9 441.8 3105.1 442.2 3104.3 442.6C3104.2 442.7 3104.1 442.7 3104 442.8C3103.1 443.2 3102.3 443.7 3101.4 444.1C3098 445.7 3094.1 447.4 3089.9 449C3088.9 449.4 3088 449.7 3087 450.1C3086.4 450.3 3085.8 450.5 3085.2 450.8L3083.4 451.4C3082.2 451.8 3080.9 452.3 3079.6 452.7C3078.3 453.1 3077 453.5 3075.6 453.9C3074.2 454.3 3072.9 454.7 3071.5 455.1L3067.3 456.3C3066.6 456.5 3065.9 456.7 3065.1 456.9L3060.7 458.1C3055.9 459.3 3050.8 460.5 3045.6 461.6C3042.7 462.2 3039.7 462.8 3036.7 463.4C3033.7 464 3030.6 464.5 3027.5 465.1C3022.8 465.9 3018.1 466.6 3013.3 467.3L3008.5 467.9C3006.3 468.2 3004.2 468.4 3002 468.7C2999.8 469 2997.6 469.2 2995.4 469.4C2992.5 469.7 2989.6 469.9 2986.6 470.1L2981.8 470.4H2981.1C2971.8 471 2962.4 471.2 2953.1 471.1C2951.3 471.1 2949.5 471.1 2947.8 471C2946.4 471 2945.1 470.9 2943.7 470.9L2937 470.6C2934.8 470.5 2932.6 470.3 2930.4 470.1C2929.6 470 2928.7 469.9 2927.9 469.9C2926.6 469.8 2925.3 469.7 2924 469.5C2922.1 469.3 2920.3 469.1 2918.4 468.8C2917.3 468.6 2916.2 468.3 2915 468C2914.6 467.9 2914.2 467.8 2913.8 467.6C2913.7 467.6 2913.6 467.6 2913.5 467.5C2913.1 467.4 2912.7 467.3 2912.3 467.1C2912.1 467 2911.8 466.9 2911.6 466.9C2911.2 466.8 2910.8 466.6 2910.5 466.5H2910.4C2909.9 466.3 2909.3 466.1 2908.8 465.9C2908.3 465.7 2907.7 465.5 2907.2 465.3C2906.6 465.1 2906.1 464.9 2905.6 464.6C2905.3 464.5 2904.9 464.3 2904.6 464.2C2902.2 463.2 2899.9 462 2897.6 460.7C2897.1 460.4 2896.5 460.1 2896 459.8C2895.5 459.5 2894.9 459.2 2894.4 458.9C2893.9 458.6 2893.4 458.3 2892.8 458C2891.3 457.1 2889.7 456.1 2888.2 455.1C2887.7 454.8 2887.2 454.4 2886.7 454.1C2886.2 453.8 2885.7 453.4 2885.2 453.1L2882.2 451C2875.8 446.5 2869.6 441.5 2863.8 436.5C2863.3 436 2862.7 435.5 2862.1 435.1C2859.8 433.1 2857.6 431.1 2855.5 429.1C2855.1 428.8 2854.7 428.4 2854.4 428C2848 422 2842.5 416.4 2838.2 411.9C2837.9 411.6 2837.6 411.3 2837.4 411C2836.1 409.7 2835 408.4 2834 407.3C2833.9 407.1 2833.7 407 2833.6 406.8C2831.3 404.2 2829.7 402.5 2829.1 401.7L2829 401.6C2828.9 401.5 2828.9 401.5 2828.9 401.4C2828.9 401.3 2828.9 401.3 2828.8 401.3L2562 114.1C2559.3 111.3 2556.7 108.3 2554.3 105.4C2553.7 104.7 2553.1 103.9 2552.6 103.2C2552.3 102.8 2552 102.4 2551.8 102.1C2551.4 101.6 2551.1 101.1 2550.8 100.6C2550.6 100.4 2550.5 100.1 2550.3 99.9C2550 99.4 2549.7 98.9 2549.4 98.4C2549.1 98 2548.9 97.6 2548.6 97.2C2548.5 97.1 2548.4 97 2548.4 96.8C2547.9 96 2547.5 95.3 2547.1 94.5L2546.5 93.3L2545.9 92.1C2545.8 91.8 2545.6 91.5 2545.5 91.2C2545.2 90.7 2545 90.1 2544.8 89.5C2544.4 88.6 2544.1 87.6 2543.8 86.7C2541 77.6 2542.3 68.5 2550.4 59.7L2551 59.1L2551.6 58.5C2552 58 2552.5 57.6 2553 57.2C2553.3 57 2553.5 56.8 2553.7 56.5C2554.3 55.9 2555 55.4 2555.7 54.8C2556.8 54 2557.9 53.1 2559 52.3C2559.8 51.7 2560.6 51.2 2561.5 50.6C2562.3 50.1 2563.2 49.5 2564.1 49C2565.6 48.1 2567.1 47.3 2568.8 46.4C2569.8 45.9 2570.8 45.4 2571.9 44.9C2572.6 44.6 2573.3 44.2 2574 43.9C2574.4 43.7 2574.7 43.6 2575.1 43.4C2575.9 43 2576.7 42.7 2577.5 42.3C2578.3 41.9 2579.2 41.6 2580 41.2C2579 40.4 2577.9 39.6 2576.8 39C2576.9 39 2577 38.9 2577.1 38.9L2856.2 250.8L3108.9 440.3Z" stroke="#C4C9D4" stroke-width="4" stroke-miterlimit="10"/>
<path d="M4504.8 1003.2C4539.7 1003.2 4634.4 1003.9 4663.5 1003.9C4693.4 1003.9 4696.5 1000.2 4699.6 1009.6C4702.7 1019 4701.2 1069.1 4692.3 1078.5C4683.4 1087.9 4636.7 1086.8 4636.7 1086.8H4522.7C4505.6 1086.8 4483 1061.4 4482 1034.5C4481 1007.2 4486.4 1003.2 4504.8 1003.2Z" fill="#494B50" stroke="#C4C9D4" stroke-width="4" stroke-miterlimit="10"/>
<path d="M37.6 797.4L325.8 803L311 747.5C311 747.5 300.3 696.7 249.5 696.7H137.2L79.4 707.5C79.4 707.5 71 708.9 71 717.9C71 727 71.2 729 75.2 731.4L37.6 797.4Z" fill="#494B50" stroke="#C4C9D4" stroke-width="6" stroke-miterlimit="10"/>
<path d="M238.4 800.9H219.8C219.8 800.9 219.4 797 218.6 791.8C217.8 786.1 216.5 778.8 215 772.9C214.8 772 214.5 771.1 214.3 770.3C210 755.8 202.7 740.6 202.7 740.6C197.6 732.2 185.5 731.5 185.5 731.5H203.3C203.3 731.5 215.4 732.2 220.5 740.6C220.5 740.6 227.8 755.8 232.1 770.3C233.1 773.8 234.1 778.1 234.8 782.3L238.4 800.9Z" fill="#C4C9D4" stroke="#C4C9D4" stroke-width="6" stroke-miterlimit="10"/>
<path d="M37.6 797.4L325.8 803L311 747.5C311 747.5 300.3 696.7 249.5 696.7H137.2L79.4 707.5C79.4 707.5 71 708.9 71 717.9C71 727 71.2 729 75.2 731.4L37.6 797.4Z" stroke="#C4C9D4" stroke-width="2" stroke-miterlimit="10"/>
<path d="M325.8 802.9L276.5 801.9C276.5 801.9 273.7 782 264 756.9C254.2 731.8 239 707.7 219 707.7H78.5C79 707.5 79.4 707.5 79.4 707.5L137.2 696.7H249.5C300.3 696.7 311 747.5 311 747.5L325.8 802.9Z" stroke="#C4C9D4" stroke-width="6" stroke-miterlimit="10" stroke-linejoin="round"/>
<path d="M219.8 800.9L37.6 797.4L75.2 731.5H185.5C185.5 731.5 197.6 732.2 202.7 740.6C202.7 740.6 210 755.8 214.3 770.3C214.5 771.1 214.8 772 215 772.9C216.5 778.8 217.8 786.1 218.6 791.8C219.4 797 219.8 800.9 219.8 800.9Z" stroke="#C4C9D4" stroke-width="6" stroke-miterlimit="10" stroke-linejoin="round"/>
<path d="M1039.3 1514.8C1246.24 1514.8 1414 1347.04 1414 1140.1C1414 933.159 1246.24 765.4 1039.3 765.4C832.359 765.4 664.6 933.159 664.6 1140.1C664.6 1347.04 832.359 1514.8 1039.3 1514.8Z" fill="#494B50" stroke="#C4C9D4" stroke-width="4" stroke-miterlimit="10"/>
<path d="M1036.2 1432.2C1197.69 1432.2 1328.6 1301.29 1328.6 1139.8C1328.6 978.312 1197.69 847.4 1036.2 847.4C874.712 847.4 743.8 978.312 743.8 1139.8C743.8 1301.29 874.712 1432.2 1036.2 1432.2Z" stroke="#C4C9D4" stroke-width="4" stroke-miterlimit="10"/>
<path d="M1061.5 864.4C1213.5 878.4 1325.6 1013.2 1311.6 1165.2C1297.6 1317.2 1162.8 1429.3 1010.8 1415.3C858.8 1401.3 746.7 1266.5 760.7 1114.5C774.8 962.5 909.6 850.4 1061.5 864.4Z" stroke="#C4C9D4" stroke-width="4" stroke-miterlimit="10"/>
<path d="M1036.2 1398.2C1178.91 1398.2 1294.6 1282.51 1294.6 1139.8C1294.6 997.09 1178.91 881.4 1036.2 881.4C893.49 881.4 777.8 997.09 777.8 1139.8C777.8 1282.51 893.49 1398.2 1036.2 1398.2Z" stroke="#C4C9D4" stroke-width="4" stroke-miterlimit="10"/>
<path d="M1189.8 1327.8C1189.4 1329 1188.7 1329.9 1187.7 1330.6C1187.6 1330.7 1185.3 1332.7 1180.8 1336.1C1174.3 1340.8 1167.7 1345.2 1160.8 1349.3C1143.4 1359.6 1131.5 1363.8 1131.4 1363.8H1131.2C1130.3 1364.1 1129.2 1364.3 1128.2 1364.3L1127.2 1364.2C1126 1363.3 1125.1 1362.1 1124.4 1360.7L1055.3 1211.3C1068.4 1207.9 1080.3 1200.9 1089.7 1191.3L1188.2 1323.3L1188.3 1323.4C1188.5 1323.3 1190.1 1325.4 1189.8 1327.8ZM1278.6 1118.7C1278.6 1118.5 1277.9 1105.7 1273.6 1086C1269.3 1066.3 1264 1055 1263.9 1054.9L1263.8 1054.8L1263.7 1054.7C1263.3 1053.7 1262.6 1052.7 1261.6 1051.9C1261.2 1051.8 1260.9 1051.6 1260.5 1051.4C1260.5 1051.3 1260.5 1051.3 1260.4 1051.3C1259.2 1051.2 1257.9 1051.4 1256.7 1051.8H1256.6L1101.2 1104.7C1107.7 1116.5 1110.8 1130 1110.2 1143.6L1273.3 1124.5H1273.6C1275.1 1124.4 1276.5 1123.7 1277.5 1122.5L1277.6 1122.4L1277.7 1122.3C1278.3 1121.2 1278.7 1119.9 1278.6 1118.7ZM1093.9 904.3C1093.1 903.5 1092 903 1090.9 902.7H1090.7C1090.6 902.6 1078.7 899.3 1058.4 897.4C1038.2 895.5 1025.9 896.7 1025.7 896.7H1025.5C1024.3 896.7 1023.2 897.1 1022.2 897.7V897.8C1021.4 898.9 1020.9 900.2 1020.8 901.6L1020.7 902.3L1022.9 1066.8C1029.4 1065.6 1036.1 1065.3 1042.7 1065.8C1049.4 1066.3 1055.9 1067.8 1062.1 1070.2L1094.2 909.2V909C1094.6 909.1 1095.1 906.5 1093.9 904.3ZM834.9 1012.7L834.4 1012.5C833.6 1012 832.9 1011.8 832 1011.7L831.7 1012.1L830.5 1012.2C830 1012.3 829 1013.4 828.4 1014.3L828.3 1014.5L828.2 1014.7C828.2 1014.8 821 1025.1 813 1043.5C805.1 1062.2 802.1 1074.6 802.1 1074.7C801.9 1075.8 801.9 1077 802.2 1078.1C803.3 1079.4 804.6 1080.4 806.1 1081.1L962.8 1129.7C964.6 1116.3 970 1103.6 978.6 1093.1L834.9 1012.7ZM974.2 1180.2L853.4 1292L853.3 1292.1L853.2 1292.2C852.1 1293.2 851.3 1294.6 851 1296.1C851.1 1296.6 851.2 1297.1 851.5 1297.6C851.7 1298.2 852.1 1298.8 852.5 1299.2C852.6 1299.3 860.4 1309.3 875.7 1322.6C890.9 1336 901.9 1342.1 902 1342.2H902.2C903.1 1342.7 904 1343 905 1343.2L906 1343.3C907.4 1342.6 908.5 1341.6 909.4 1340.4L1004.5 1206.2C992.1 1200.6 981.5 1191.5 974.2 1180.2Z" stroke="#C4C9D4" stroke-width="4" stroke-miterlimit="10"/>
<path d="M1109.5 1153C1104 1152.5 1098.6 1154.6 1094.9 1158.7C1088.3 1165.7 1089.1 1176.9 1096.7 1183.6C1099.5 1186.2 1103 1187.8 1106.8 1188C1112.3 1188.5 1117.7 1186.4 1121.4 1182.3C1128 1175.3 1127.2 1164.1 1119.6 1157.4C1117.2 1154.8 1113.7 1153.4 1109.5 1153ZM1089.6 1063.7C1085.8 1063.5 1082.1 1064.3 1078.8 1066.2C1070.7 1071.3 1067.9 1081.9 1072.5 1090.3C1075.4 1095 1080.3 1098 1085.8 1098.6C1089.6 1098.8 1093.3 1098 1096.6 1096.1C1104.7 1091 1107.5 1080.4 1102.9 1072C1100 1067.3 1095.1 1064.2 1089.6 1063.7ZM997.7 1055.2C995.9 1054.9 994.1 1055 992.4 1055.3C982.8 1057.3 977.3 1066.9 979.4 1076.4C981 1084 987.4 1089.6 995.2 1090.2C997 1090.5 998.8 1090.4 1000.5 1090.1C1010.1 1088.1 1015.6 1078.5 1013.5 1069C1011.9 1061.5 1005.5 1055.8 997.7 1055.2ZM1030.6 1200.4C1023 1199.7 1016.2 1203.7 1012.5 1211.1C1008.8 1220.2 1013 1230.5 1021.4 1234.2C1023 1234.9 1024.8 1235.2 1026.6 1235.3C1034.2 1236 1041 1232 1044.7 1224.6C1048.4 1215.5 1044.2 1205.2 1035.8 1201.5C1034.2 1200.8 1032.4 1200.4 1030.6 1200.4ZM961.7 1139.4C952 1138.5 943.6 1145.6 942.7 1155.2C941.8 1164.9 948.9 1173.3 958.5 1174.2C968.1 1175.1 976.6 1168 977.5 1158.4C978.4 1148.9 971.3 1140.4 961.7 1139.4Z" stroke="#C4C9D4" stroke-width="4" stroke-miterlimit="10"/>
<path d="M1257.4 1156C1255.2 1180.3 1249.3 1204.1 1239.9 1226.6C1230.1 1249.7 1216.6 1269.6 1200.9 1287.6C1197.2 1291.7 1191.8 1293.8 1186.3 1293.3C1184.5 1293.2 1182.7 1292.9 1181.1 1292.2C1179.6 1291.6 1178 1290.6 1176.7 1289.5C1175.6 1288.8 1175.1 1287.5 1174.1 1286.3L1172.5 1283.8L1134 1216.8C1126.8 1206.1 1125.7 1192 1131 1179.6C1136.1 1167.3 1147 1158.4 1160.1 1155.8L1235.1 1138L1237.4 1137.6C1238.7 1137.2 1240.2 1137.2 1241.5 1137.4C1243.8 1137.6 1245.5 1138.4 1246.8 1137.9C1253.3 1141 1258.1 1148.4 1257.4 1156ZM1229.6 1029C1217.4 1008 1201.8 989.2 1183.6 973.2C1164.6 956.8 1144.1 943.7 1122 934.7C1119.9 934.1 1117.8 933.7 1115.7 933.5C1110.2 933 1104.8 935.1 1101.1 939.2C1099.9 940.4 1098.9 941.9 1098.4 943.6C1097.8 944.8 1097.5 946.2 1097.4 947.6L1097.1 950.5L1091.2 1027.5C1090.6 1034 1091.5 1040.5 1093.8 1046.5C1099.2 1061.2 1112.6 1071.3 1128.2 1072.6C1132.8 1073.1 1137.4 1072.7 1141.9 1071.5L1217.4 1055.5L1219.7 1055.1C1221 1054.6 1222.3 1053.9 1223.4 1053.1C1225.2 1052.2 1226.6 1051 1227.9 1049.4C1232.7 1043.6 1233.4 1035.4 1229.6 1029ZM1012.2 935.6C1012 933.9 1011.3 932.2 1010.3 930.8C1006.6 926.3 1001.6 923 995.8 922.4C994 922.1 992.2 922.2 990.5 922.5C966.5 927.4 943.7 936.4 922.9 949.1C901.9 961.3 883.2 977.1 867.5 995.6C862.6 1001.3 861.8 1009.4 865.6 1015.9C866.7 1017.2 867.6 1019 869.3 1020.4C870.4 1021.1 871.4 1022.4 872.6 1023L874.8 1023.8L946.1 1053.3C948.1 1054.4 950.2 1055.2 952.4 1055.8C954.7 1056.4 956.9 1056.7 959.2 1056.9C967.8 1057.7 976.3 1055.9 983.7 1051.5C995.1 1044.5 1002.5 1032.5 1003.7 1019.2L1012 942.4L1012.3 939.5C1012.5 938.6 1012.1 936.8 1012.2 935.6ZM936.1 1162.2C933.3 1149.3 924.1 1138.5 911.8 1133.7L841.3 1102.5L839.1 1101.7C837.9 1100.9 836.5 1100.4 835.1 1100.1C833.3 1099.9 831.6 1100.4 829.8 1100.2C822.2 1101.9 816.7 1108.3 816 1116C813.2 1140.2 814.6 1164.9 820.4 1188.6C825.7 1212.3 834.9 1235 847.7 1255.7C850.6 1260.4 855.5 1263.4 861 1264C862.8 1264.3 864.6 1264.2 866.3 1263.9C868 1263.7 869.7 1263 871.1 1262C872.4 1261.4 873.4 1260.5 874.3 1259.4L876.3 1257.3L926.4 1198.4C932.4 1191.7 936.1 1183.2 937 1174.3C937.2 1170.3 937 1166.2 936.1 1162.2ZM1101.6 1334.8C1101.1 1333.6 1100.7 1331.8 1100.2 1330.6L1098.6 1328.1L1058.4 1262.1C1055.4 1256.5 1050.9 1251.7 1045.6 1248.2C1040 1244.5 1033.5 1242.2 1026.8 1241.6C1012.9 1240.3 1000.5 1246.2 992 1256L940.4 1313.5L938.4 1315.6C937.6 1316.8 936.9 1318.2 936.2 1319.5C935.5 1321.1 935.2 1322.9 935.1 1324.7C934.4 1332.3 938.4 1339.1 945.8 1342.8C990.5 1362.6 1040.3 1367.2 1087.8 1355.9C1095.4 1354.3 1101 1347.9 1101.6 1340.1C1102 1338.4 1102 1336.6 1101.6 1334.8Z" stroke="#C4C9D4" stroke-width="4" stroke-miterlimit="10"/>
<path d="M1036.2 1188.3C1062.99 1188.3 1084.7 1166.59 1084.7 1139.8C1084.7 1113.01 1062.99 1091.3 1036.2 1091.3C1009.41 1091.3 987.7 1113.01 987.7 1139.8C987.7 1166.59 1009.41 1188.3 1036.2 1188.3Z" stroke="#C4C9D4" stroke-width="4" stroke-miterlimit="10"/>
<path d="M1137.6 924.8C1136 927.8 1132.9 929.6 1129.5 929.4C1128.9 929.3 1127.8 928.6 1127.3 928.6C1123.3 927 1121.5 922.1 1122.9 918.2C1124.5 915.2 1127.6 913.4 1131 913.6C1131.8 913.7 1132.6 913.9 1133.2 914.4C1137.2 915.9 1139.1 920.8 1137.6 924.8ZM982.8 915.9C983.4 916 984.6 916.1 985.1 915.5C989.3 914.7 992 910.2 991.3 906C990.3 902.8 987.6 900.4 984.2 900C983.6 899.9 982.4 899.8 981.9 900.4C977.7 901.2 975 905.7 975.7 909.9C976.5 913.3 979.4 915.8 982.8 915.9ZM1198.2 955.7C1197 954.5 1195.5 953.7 1193.8 953.5C1191.4 953.4 1189 954.3 1187.2 955.8C1184.5 959.2 1184.8 964 1188 966.9C1189.1 968.2 1190.7 969 1192.4 969.1C1194.8 969.2 1197.2 968.3 1199 966.8C1201.7 963.5 1201.3 958.7 1198.2 955.7ZM915.4 927.9C913.6 927.7 912.5 928.2 910.7 929.3C907 931.3 905.9 936.5 907.9 940.1C909.2 942.2 911.5 943.4 914 943.6C915.8 943.8 916.9 943.3 918.7 942.2C922.4 940.2 923.5 935 921.5 931.4C920 929.5 917.8 928.2 915.4 927.9ZM1241.3 1010.7C1239.5 1010.5 1238.4 1011 1236.6 1012.1C1232.9 1014.1 1231.8 1019.3 1233.8 1022.9C1235.1 1025 1237.4 1026.2 1239.9 1026.4C1241.7 1026.6 1242.8 1026.1 1244.6 1025C1248.3 1023 1249.4 1017.8 1247.4 1014.2C1245.9 1012.3 1243.7 1011.1 1241.3 1010.7ZM852.2 988.8C853.3 990.1 854.9 990.9 856.6 991C859 991.1 861.4 990.2 863.2 988.7C865.9 985.3 865.6 980.5 862.4 977.6C861.3 976.3 859.7 975.4 858 975.4C855.6 975.3 853.2 976.2 851.4 977.7C848.7 981.1 849 985.9 852.2 988.8ZM1273.4 1154C1269.2 1153.6 1265.5 1156.7 1265.1 1160.9C1264.7 1165.1 1267.8 1168.8 1272 1169.2C1276.2 1169.6 1279.9 1166.5 1280.3 1162.3C1281.3 1158.2 1277.9 1154.4 1273.4 1154ZM807.5 1118.8C807.8 1114.7 804.7 1111 800.6 1110.5C796.4 1110.1 792.7 1113.2 792.3 1117.4C791.9 1121.6 795 1125.3 799.2 1125.7C803.4 1126 807.1 1123 807.5 1118.8ZM1257.2 1226.4C1256.8 1225.8 1256.2 1225.7 1255 1225.6C1251.6 1225.4 1248.4 1227.1 1246.9 1230.2C1245.3 1234.3 1247.2 1238.9 1251.3 1240.6C1251.9 1240.7 1253 1241.4 1253.5 1241.4C1256.9 1241.6 1260.1 1239.9 1261.6 1236.8C1263.1 1232.8 1261.2 1227.9 1257.2 1226.4ZM805.5 1184.3C804.9 1184.2 803.7 1184.1 803.2 1184.7C799 1185.5 796.3 1190 797 1194.2C797.7 1197.6 800.7 1200.1 804.1 1200.2C804.7 1200.3 805.9 1200.4 806.4 1199.8C810.6 1199 813.3 1194.5 812.6 1190.3C811.1 1187.2 808.5 1184.5 805.5 1184.3ZM1220.2 1290.6C1219 1289.5 1217.5 1288.6 1215.8 1288.4C1213.4 1288.3 1211 1289.2 1209.2 1290.7C1206.5 1294.1 1206.8 1298.9 1210 1301.8C1211.1 1303.1 1212.7 1303.9 1214.4 1304C1216.8 1304.1 1219.2 1303.2 1221 1301.7C1223.7 1298.5 1223.3 1293.6 1220.2 1290.6ZM832.6 1253.1C830.8 1252.9 829.7 1253.4 827.9 1254.5C824.2 1256.5 823.1 1261.7 825.1 1265.3C826.4 1267.4 828.7 1268.6 831.2 1268.8C833 1269 834.1 1268.5 835.9 1267.4C839.6 1265.4 840.7 1260.2 838.7 1256.6C837.7 1254.8 835 1253.4 832.6 1253.1ZM1089.6 1363.7C1089 1363.6 1087.8 1363.5 1087.3 1364.1C1083.1 1364.9 1080.4 1369.4 1081.1 1373.6C1081.8 1377 1084.8 1379.5 1088.2 1379.6C1088.8 1379.7 1090 1379.8 1090.5 1379.2C1094.7 1378.4 1097.4 1373.9 1096.7 1369.7C1095.2 1366 1092.5 1363.9 1089.6 1363.7ZM945.9 1351C945.2 1350.5 944.5 1350.3 943.7 1350.2C940.3 1350 937.1 1351.7 935.6 1354.8C934 1358.9 935.9 1363.5 940 1365.2C940.6 1365.3 941.7 1366 942.2 1366C945.6 1366.2 948.8 1364.5 950.3 1361.4C951.7 1357.5 949.9 1352.6 945.9 1351ZM1015.2 1368.6C1011 1368.2 1007.3 1371.3 1006.9 1375.5C1006.5 1379.7 1009.6 1383.4 1013.8 1383.8C1018 1384.2 1021.7 1381.1 1022.1 1376.9C1022.4 1372.6 1019.4 1368.9 1015.2 1368.6Z" stroke="#C4C9D4" stroke-width="4" stroke-miterlimit="10"/>
<path d="M3775.1 1512.5C3979.45 1512.5 4145.1 1346.85 4145.1 1142.5C4145.1 938.155 3979.45 772.5 3775.1 772.5C3570.75 772.5 3405.1 938.155 3405.1 1142.5C3405.1 1346.85 3570.75 1512.5 3775.1 1512.5Z" fill="#494B50" stroke="#C4C9D4" stroke-width="4" stroke-miterlimit="10"/>
<path d="M3775.1 1434.9C3936.59 1434.9 4067.5 1303.99 4067.5 1142.5C4067.5 981.012 3936.59 850.1 3775.1 850.1C3613.61 850.1 3482.7 981.012 3482.7 1142.5C3482.7 1303.99 3613.61 1434.9 3775.1 1434.9Z" stroke="#C4C9D4" stroke-width="4" stroke-miterlimit="10"/>
<path d="M3775.1 865.9C3927.7 865.9 4051.7 989.9 4051.7 1142.5C4051.7 1295.1 3927.7 1419.1 3775.1 1419.1C3622.5 1419.1 3498.5 1295.1 3498.5 1142.5C3498.5 989.9 3622.5 865.9 3775.1 865.9Z" stroke="#C4C9D4" stroke-width="4" stroke-miterlimit="10"/>
<path d="M3775.1 1400.9C3917.81 1400.9 4033.5 1285.21 4033.5 1142.5C4033.5 999.79 3917.81 884.1 3775.1 884.1C3632.39 884.1 3516.7 999.79 3516.7 1142.5C3516.7 1285.21 3632.39 1400.9 3775.1 1400.9Z" stroke="#C4C9D4" stroke-width="4" stroke-miterlimit="10"/>
<path d="M3945.3 1315.6C3945 1316.8 3944.4 1317.8 3943.5 1318.6C3943.4 1318.7 3941.3 1320.9 3937.1 1324.7C3931.1 1330 3924.9 1335 3918.4 1339.7C3902 1351.6 3890.5 1356.8 3890.4 1356.8H3890.2C3889.3 1357.2 3888.3 1357.5 3887.3 1357.6H3886.3C3885 1356.8 3884 1355.7 3883.2 1354.4L3800.7 1212C3813.4 1207.4 3824.6 1199.4 3833.1 1188.9L3943.3 1311.3L3943.4 1311.4C3943.6 1311.3 3945.3 1313.2 3945.3 1315.6ZM4014.5 1099.3C4014.5 1099.1 4012.6 1086.4 4006.5 1067.2C4000.4 1048 3994.1 1037.2 3994 1037.1L3993.9 1037L3993.8 1036.9C3993.3 1035.9 3992.5 1035 3991.5 1034.3C3991.1 1034.2 3990.8 1034.1 3990.4 1033.9C3990.4 1033.8 3990.4 1033.8 3990.3 1033.8C3989.1 1033.8 3987.8 1034.1 3986.7 1034.6H3986.6L3836.7 1101.5C3844.3 1112.7 3848.6 1125.8 3849.2 1139.4L4009.9 1105.4H4010.2C4011.7 1105.2 4013 1104.3 4013.9 1103.1L4014 1103L4014.1 1102.9C4014.5 1101.8 4014.7 1100.5 4014.5 1099.3ZM3811 902.7C3810.1 902 3809 901.6 3807.9 901.4H3807.7C3807.6 901.3 3795.4 899.1 3775.1 899.1C3754.8 899.1 3742.7 901.4 3742.5 901.4H3742.3C3741.1 901.5 3740 902 3739.1 902.7V902.8C3738.4 904 3738 905.3 3738.1 906.7V907.4L3755.4 1071C3761.8 1069.2 3768.4 1068.3 3775 1068.2C3781.7 1068.1 3788.3 1069 3794.7 1070.8L3811.9 907.5V907.3C3812.1 907.4 3812.4 904.8 3811 902.7ZM3563 1034.4L3562.5 1034.2C3561.7 1033.8 3560.9 1033.6 3560 1033.6L3559.7 1034L3558.5 1034.2C3558 1034.3 3557.1 1035.5 3556.6 1036.5L3556.5 1036.7L3556.4 1036.9C3556.4 1037 3550.2 1047.9 3543.9 1067C3537.7 1086.3 3535.9 1099 3535.9 1099.1C3535.8 1100.2 3535.9 1101.4 3536.3 1102.5C3537.5 1103.7 3538.9 1104.6 3540.5 1105.1L3701 1139.1C3701.6 1125.6 3705.8 1112.4 3713.4 1101.2L3563 1034.4ZM3717 1188.4L3607 1310.8L3606.9 1310.9L3606.8 1311C3605.8 1312.1 3605.1 1313.6 3605 1315.1C3605.1 1315.6 3605.3 1316.1 3605.6 1316.6C3605.9 1317.2 3606.3 1317.7 3606.7 1318.1C3606.8 1318.2 3615.5 1327.4 3631.9 1339.3C3648.3 1351.2 3659.8 1356.3 3659.9 1356.4H3660.1C3661 1356.8 3662 1357 3663 1357.1H3664C3665.3 1356.3 3666.3 1355.2 3667.1 1353.9L3749.5 1211.6C3736.7 1207.1 3725.4 1199.1 3717 1188.4Z" stroke="#C4C9D4" stroke-width="4" stroke-miterlimit="10"/>
<path d="M3849.3 1148.9C3843.8 1148.9 3838.6 1151.5 3835.3 1155.9C3829.4 1163.5 3831.2 1174.6 3839.4 1180.5C3842.4 1182.8 3846.1 1184.1 3849.9 1184C3855.4 1184 3860.6 1181.4 3863.9 1177C3869.8 1169.4 3868 1158.3 3859.8 1152.4C3857.1 1150 3853.5 1148.9 3849.3 1148.9ZM3821.3 1061.8C3817.5 1061.9 3813.9 1063.1 3810.8 1065.3C3803.2 1071.1 3801.4 1081.9 3806.7 1089.9C3810 1094.3 3815.2 1096.9 3820.7 1096.9C3824.5 1096.8 3828.1 1095.6 3831.2 1093.4C3838.8 1087.6 3840.6 1076.8 3835.3 1068.8C3832 1064.4 3826.8 1061.8 3821.3 1061.8ZM3729 1061.8C3727.2 1061.7 3725.4 1061.9 3723.7 1062.4C3714.3 1065.3 3709.7 1075.3 3712.7 1084.6C3715 1092 3721.9 1097 3729.7 1096.9C3731.5 1097 3733.3 1096.8 3735 1096.3C3744.4 1093.4 3749 1083.4 3746 1074.1C3743.7 1066.7 3736.8 1061.7 3729 1061.8ZM3775.1 1203.3C3767.5 1203.3 3761.1 1207.9 3758.1 1215.6C3755.2 1225 3760.4 1234.9 3769.1 1237.8C3770.8 1238.3 3772.6 1238.5 3774.4 1238.4C3782 1238.4 3788.4 1233.8 3791.4 1226.1C3794.3 1216.7 3789.1 1206.8 3780.4 1203.9C3778.7 1203.4 3776.9 1203.2 3775.1 1203.3ZM3700.9 1148.9C3691.2 1148.9 3683.4 1156.7 3683.4 1166.4C3683.4 1176.1 3691.2 1183.9 3700.9 1183.9C3710.6 1183.9 3718.4 1176.1 3718.4 1166.4C3718.4 1156.8 3710.5 1149 3700.9 1148.9Z" stroke="#C4C9D4" stroke-width="4" stroke-miterlimit="10"/>
<path d="M3996.8 1138.4C3996.8 1162.8 3993.1 1187 3985.8 1210.3C3978.2 1234.2 3966.5 1255.3 3952.5 1274.6C3949.2 1279 3944 1281.6 3938.5 1281.6C3936.7 1281.7 3934.9 1281.5 3933.2 1281C3931.6 1280.5 3930 1279.7 3928.6 1278.7C3927.4 1278.1 3926.8 1276.9 3925.7 1275.8L3923.9 1273.5L3879.4 1210.3C3871.2 1200.3 3868.9 1186.4 3873 1173.5C3877 1160.8 3887 1150.9 3899.8 1147.1L3972.9 1122.5L3975.2 1121.9C3976.5 1121.4 3977.9 1121.2 3979.3 1121.3C3981.6 1121.3 3983.4 1121.9 3984.6 1121.3C3991.4 1123.8 3996.8 1130.7 3996.8 1138.4ZM3957.5 1014.4C3943.4 994.6 3926.2 977.3 3906.6 963C3886.2 948.4 3864.6 937.2 3841.7 930.3C3839.6 929.9 3837.4 929.7 3835.3 929.7C3829.8 929.7 3824.6 932.3 3821.3 936.7C3820.2 938 3819.4 939.6 3819 941.3C3818.5 942.6 3818.3 944 3818.4 945.4V948.3L3819.6 1025.5C3819.6 1032 3821.1 1038.4 3823.9 1044.2C3830.6 1058.3 3844.9 1067.2 3860.5 1067C3865.1 1067.1 3869.7 1066.3 3874 1064.7L3947.7 1041.9L3950 1041.3C3951.3 1040.7 3952.5 1039.9 3953.5 1039C3955.2 1037.9 3956.5 1036.6 3957.6 1034.9C3961.9 1028.8 3961.9 1020.5 3957.5 1014.4ZM3732.5 941.3C3732.1 939.6 3731.3 938 3730.2 936.7C3726.1 932.6 3720.8 929.7 3715 929.7C3713.2 929.6 3711.4 929.8 3709.7 930.3C3686.3 937.4 3664.4 948.4 3644.8 963C3625 977.1 3607.8 994.5 3593.9 1014.4C3589.5 1020.5 3589.5 1028.7 3593.9 1034.8C3595.1 1036 3596.2 1037.7 3598 1038.9C3599.2 1039.5 3600.3 1040.7 3601.5 1041.2L3603.8 1041.8L3677.5 1064.6C3679.6 1065.5 3681.8 1066.1 3684 1066.5C3686.3 1066.9 3688.6 1067 3690.9 1067C3699.5 1067 3707.8 1064.4 3714.8 1059.4C3725.5 1051.4 3731.8 1038.8 3731.8 1025.4L3733 948.2V945.3C3733.1 944.3 3732.5 942.5 3732.5 941.3ZM3677.5 1174C3673.5 1161.4 3663.4 1151.5 3650.7 1147.8L3577.6 1123.2L3575.3 1122.6C3574 1121.9 3572.6 1121.5 3571.2 1121.4C3569.4 1121.4 3567.7 1122 3565.9 1122C3558.5 1124.4 3553.6 1131.3 3553.6 1139C3553 1163.4 3556.7 1187.8 3564.6 1210.9C3572 1234 3583.3 1255.8 3597.9 1275.2C3601.2 1279.6 3606.4 1282.2 3611.9 1282.2C3613.7 1282.3 3615.5 1282.1 3617.2 1281.6C3618.9 1281.2 3620.5 1280.4 3621.8 1279.3C3623 1278.6 3624 1277.6 3624.7 1276.4L3626.5 1274.1L3671 1210.9C3676.4 1203.7 3679.3 1194.9 3679.3 1185.9C3679.3 1181.9 3678.7 1177.9 3677.5 1174ZM3858.1 1330.7C3857.5 1329.5 3856.9 1327.8 3856.3 1326.6L3854.5 1324.3L3808.4 1262.3C3804.9 1257 3800 1252.6 3794.4 1249.6C3788.5 1246.4 3781.8 1244.7 3775.1 1244.7C3761.1 1244.7 3749.3 1251.7 3741.8 1262.2L3695.7 1324.2L3693.9 1326.5C3693.2 1327.8 3692.6 1329.2 3692.1 1330.6C3691.6 1332.3 3691.4 1334.1 3691.5 1335.9C3691.5 1343.5 3696.1 1349.9 3703.8 1352.9C3750.1 1368.5 3800.1 1368.5 3846.4 1352.9C3853.8 1350.6 3858.8 1343.7 3858.7 1335.9C3858.8 1334.2 3858.6 1332.4 3858.1 1330.7Z" stroke="#C4C9D4" stroke-width="4" stroke-miterlimit="10"/>
<path d="M3775.1 1191C3801.89 1191 3823.6 1169.29 3823.6 1142.5C3823.6 1115.71 3801.89 1094 3775.1 1094C3748.31 1094 3726.6 1115.71 3726.6 1142.5C3726.6 1169.29 3748.31 1191 3775.1 1191Z" stroke="#C4C9D4" stroke-width="4" stroke-miterlimit="10"/>
<path d="M3856.4 919.1C3855.1 922.2 3852.2 924.3 3848.8 924.4C3848.2 924.4 3847 923.8 3846.5 923.8C3842.4 922.6 3840.1 917.9 3841.2 913.8C3842.5 910.7 3845.4 908.6 3848.8 908.5C3849.6 908.5 3850.4 908.7 3851.1 909.1C3855.2 910.3 3857.5 915 3856.4 919.1ZM3701.4 924.4C3702 924.4 3703.2 924.4 3703.7 923.8C3707.8 922.6 3710.1 917.9 3709 913.8C3707.7 910.7 3704.8 908.6 3701.4 908.5C3700.8 908.5 3699.6 908.5 3699.1 909.1C3695 910.3 3692.7 915 3693.8 919.1C3694.8 922.4 3698 924.6 3701.4 924.4ZM3919.5 944.3C3918.2 943.2 3916.6 942.6 3914.9 942.5C3912.5 942.6 3910.2 943.7 3908.5 945.4C3906.1 949 3906.9 953.8 3910.3 956.4C3911.5 957.6 3913.2 958.2 3914.9 958.2C3917.3 958.1 3919.6 957 3921.3 955.3C3923.7 951.8 3922.9 947 3919.5 944.3ZM3635.4 942.5C3633.6 942.5 3632.5 943.1 3630.8 944.3C3627.3 946.6 3626.7 951.9 3629 955.3C3630.5 957.3 3632.9 958.3 3635.4 958.2C3637.2 958.2 3638.3 957.6 3640 956.4C3643.5 954.1 3644.1 948.8 3641.8 945.4C3640.1 943.7 3637.8 942.6 3635.4 942.5ZM3967.5 995.1C3965.7 995.1 3964.6 995.7 3962.9 996.9C3959.4 999.2 3958.8 1004.5 3961.1 1007.9C3962.6 1009.9 3965 1010.9 3967.5 1010.8C3969.3 1010.8 3970.4 1010.2 3972.1 1009C3975.6 1006.7 3976.2 1001.4 3973.9 998C3972.2 996.3 3969.9 995.3 3967.5 995.1ZM3578 1009C3579.2 1010.2 3580.9 1010.8 3582.6 1010.8C3585 1010.7 3587.3 1009.6 3589 1007.9C3591.4 1004.3 3590.6 999.5 3587.2 996.9C3586 995.7 3584.3 995 3582.6 995.1C3580.2 995.2 3577.9 996.3 3576.2 998C3573.8 1001.6 3574.6 1006.4 3578 1009ZM4012.6 1134.9C4008.4 1134.9 4005 1138.3 4005 1142.5C4005 1146.7 4008.4 1150.1 4012.6 1150.1C4016.8 1150.1 4020.2 1146.7 4020.2 1142.5C4020.8 1138.4 4017.1 1134.9 4012.6 1134.9ZM3545.4 1142.5C3545.3 1138.4 3541.9 1135 3537.8 1134.9C3533.6 1134.9 3530.2 1138.3 3530.2 1142.5C3530.2 1146.7 3533.6 1150.1 3537.8 1150.1C3542 1150.1 3545.4 1146.7 3545.4 1142.5ZM4003.1 1208.5C4002.6 1207.9 4002 1207.9 4000.8 1207.9C3997.4 1208 3994.4 1210 3993.2 1213.2C3992 1217.4 3994.3 1221.8 3998.5 1223.2C3999.1 1223.2 4000.3 1223.8 4000.8 1223.8C4004.2 1223.7 4007.2 1221.7 4008.4 1218.5C4009.5 1214.3 4007.2 1209.6 4003.1 1208.5ZM3549.4 1207.9C3548.8 1207.9 3547.6 1207.9 3547.1 1208.5C3543 1209.7 3540.7 1214.4 3541.8 1218.5C3542.8 1221.8 3546 1224 3549.4 1223.8C3550 1223.8 3551.2 1223.8 3551.7 1223.2C3555.8 1222 3558.1 1217.3 3557 1213.2C3555.3 1210.3 3552.4 1207.9 3549.4 1207.9ZM3972.1 1275.8C3970.8 1274.8 3969.2 1274.1 3967.5 1274C3965.1 1274.1 3962.8 1275.2 3961.1 1276.9C3958.7 1280.5 3959.5 1285.3 3962.9 1287.9C3964.1 1289.1 3965.8 1289.7 3967.5 1289.7C3969.9 1289.6 3972.2 1288.5 3973.9 1286.8C3976.3 1283.2 3975.5 1278.5 3972.1 1275.8ZM3582.7 1274C3580.9 1274 3579.8 1274.6 3578.1 1275.8C3574.6 1278.1 3574 1283.4 3576.3 1286.8C3577.8 1288.8 3580.2 1289.8 3582.7 1289.7C3584.5 1289.7 3585.6 1289.1 3587.3 1287.9C3590.8 1285.6 3591.4 1280.3 3589.1 1276.9C3588 1275.2 3585.1 1274 3582.7 1274ZM3848.8 1360.5C3848.2 1360.5 3847 1360.5 3846.5 1361.1C3842.4 1362.3 3840.1 1367 3841.2 1371.1C3842.2 1374.4 3845.4 1376.6 3848.8 1376.4C3849.4 1376.4 3850.6 1376.4 3851.1 1375.8C3855.2 1374.6 3857.5 1369.9 3856.4 1365.8C3854.6 1362.3 3851.7 1360.5 3848.8 1360.5ZM3704.5 1361.1C3703.8 1360.7 3703 1360.5 3702.2 1360.5C3698.8 1360.6 3695.8 1362.6 3694.6 1365.8C3693.4 1370 3695.7 1374.4 3699.9 1375.8C3700.5 1375.8 3701.7 1376.4 3702.2 1376.4C3705.6 1376.3 3708.6 1374.3 3709.8 1371.1C3710.9 1367 3708.6 1362.3 3704.5 1361.1ZM3775.1 1372.2C3770.9 1372.2 3767.5 1375.6 3767.5 1379.8C3767.5 1384 3770.9 1387.4 3775.1 1387.4C3779.3 1387.4 3782.7 1384 3782.7 1379.8C3782.7 1375.6 3779.3 1372.2 3775.1 1372.2Z" stroke="#C4C9D4" stroke-width="4" stroke-miterlimit="10"/>
</g>
<defs>
<clipPath id="clip0">
<rect width="4724.5" height="1516.8" fill="white"/>
</clipPath>
</defs>
</svg>
