<?xml version="1.0" encoding="utf-8"?>
<!-- Generator: Adobe Illustrator 25.1.0, SVG Export Plug-In . SVG Version: 6.00 Build 0)  -->
<svg version="1.1" id="Layer_1" xmlns="http://www.w3.org/2000/svg" xmlns:xlink="http://www.w3.org/1999/xlink" x="0px" y="0px"
	 viewBox="0 0 5040 3780" style="enable-background:new 0 0 5040 3780;" xml:space="preserve">
<style type="text/css">
	.st0{fill:#EEF1F6;}
	.st1{fill:none;stroke:#C4C9D4;stroke-width:6;stroke-linejoin:round;stroke-miterlimit:10;}
</style>
<rect class="st0" width="5040" height="3780"/>
<g id="Layer_1_1_">
	<g>
		<path id="Outer_2_" class="st1" d="M220.8,1882.9c0,0-43.6,20.7-52.7,38.1c-8.3,15.9-8.3,41.2-8.3,41.2s25.9,265.3,42.3,291.1
			s45.4,42.3,45.4,42.3c40.5,4.5,373.6,61.6,464.9,63.1c8.9,0.1,72.3,0.9,69-7.4c0-0.1-0.1-0.2-0.1-0.3h0.3
			c0-14.5,13.9-11.7,13.9-11.7h27.8l9.7-0.1 M4269.1,2378.2c0,0,29.7,33.4,36.4,38.9c18.8,15.9,6.3,28.4,11.8,33.9
			c4.8,4.7,70,29.9,81.5,36.3c0.8,0.7,1.6,1.3,2.5,1.8c127.9-5.3,287.3-28.5,350.5-36c63.6-7.6,123.2-39.9,99.4-62.1
			c-5.3-2.1-12.2-4.2-16.6-16.7s13.7-164.4,13.7-164.4c1-20.5,5.9-106.5,2.7-134.1c-1-9.4-11.7-28.2-11.7-28.2s-24-28.5-39.7-43.9
			c-6-5.9-59.3-53-101.7-87.6c-30.2-23.1-153.2-154.5-195.8-177.3c-95.4-24.4-303-59.3-412.2-75.6c-46.6-6.9-179.2-22.5-290.7-31.3
			c-106.3-8.4-441.6-77.9-460.2-79.9c-3.2-3-6.7-5.6-10.5-7.8c-1.5-11.3-4.6-21.4,2.7-18.5c55-47-97.3-26.1-119.7-37.2l24.1,18
			c14.4,1.4,33,4.9,44.9,13.6l23.3-1.7c-7.3,2.1-9.6,7.3-9.6,7.3c-8.2-1.4-13.9,5.1-15.9,7.8c-2.2-0.9-4.4-1.9-6.3-2.7l-0.4,0.4v0.2
			l0,0l-0.2-0.1l-8.7-4.8l0,0c-0.1,0-0.1,0-0.2-0.1l-2.3,1.2l-0.3,0.2c0,0-1.7,0.9-2.6,1.3c-3.4,1.6-7.3,3.3-11.5,4.9
			c-1,0.4-1.9,0.7-2.9,1.1c-0.6,0.2-1.2,0.4-1.8,0.7l-1.8,0.6c-1.2,0.4-2.5,0.9-3.8,1.3s-2.6,0.8-4,1.2s-2.7,0.8-4.1,1.2l-4.2,1.2
			c-0.7,0.2-1.4,0.4-2.2,0.6l-4.4,1.2c-4.8,1.2-9.9,2.4-15.1,3.5c-2.9,0.6-5.9,1.2-8.9,1.8s-6.1,1.1-9.2,1.7
			c-4.7,0.8-9.4,1.5-14.2,2.2l-4.8,0.6c-2.2,0.3-4.3,0.5-6.5,0.8s-4.4,0.5-6.6,0.7c-2.9,0.3-5.8,0.5-8.8,0.7l-4.8,0.3h-0.7
			c-9.3,0.6-18.7,0.8-28,0.7c-1.8,0-3.6,0-5.3-0.1c-1.4,0-2.7-0.1-4.1-0.1l-6.7-0.3c-2.2-0.1-4.4-0.3-6.6-0.5
			c-0.8-0.1-1.7-0.2-2.5-0.2c-1.3-0.1-2.6-0.2-3.9-0.4c-1.9-0.2-3.7-0.4-5.6-0.7c-1.1-0.2-2.2-0.5-3.4-0.8c-0.4-0.1-0.8-0.2-1.2-0.4
			c-0.1,0-0.2,0-0.3-0.1c-0.4-0.1-0.8-0.2-1.2-0.4c-0.2-0.1-0.5-0.2-0.7-0.2c-0.4-0.1-0.8-0.3-1.1-0.4h-0.1
			c-0.5-0.2-1.1-0.4-1.6-0.6s-1.1-0.4-1.6-0.6c-0.6-0.2-1.1-0.4-1.6-0.7c-0.3-0.1-0.7-0.3-1-0.4c-2.4-1-4.7-2.2-7-3.5
			c-0.5-0.3-1.1-0.6-1.6-0.9s-1.1-0.6-1.6-0.9s-1-0.6-1.6-0.9c-1.5-0.9-3.1-1.9-4.6-2.9c-0.5-0.3-1-0.7-1.5-1s-1-0.7-1.5-1l-3-2.1
			c-6.4-4.5-12.6-9.5-18.4-14.5c-0.5-0.5-1.1-1-1.7-1.4c-2.3-2-4.5-4-6.6-6c-0.4-0.3-0.8-0.7-1.1-1.1c-6.4-6-11.9-11.6-16.2-16.1
			c-0.3-0.3-0.6-0.6-0.8-0.9c-1.3-1.3-2.4-2.6-3.4-3.7c-0.1-0.2-0.3-0.3-0.4-0.5c-2.3-2.6-3.9-4.3-4.5-5.1l-0.1-0.1
			c-0.1-0.1-0.1-0.1-0.1-0.2s0-0.1-0.1-0.1l0,0l0,0l-266.8-277.2c-2.7-2.8-5.3-5.8-7.7-8.7c-0.6-0.7-1.2-1.5-1.7-2.2
			c-0.3-0.4-0.6-0.8-0.8-1.1c-0.4-0.5-0.7-1-1-1.5c-0.2-0.2-0.3-0.5-0.5-0.7c-0.3-0.5-0.6-1-0.9-1.5c-0.3-0.4-0.5-0.8-0.8-1.2
			c-0.1-0.1-0.2-0.2-0.2-0.4c-0.5-0.8-0.9-1.5-1.3-2.3l-0.6-1.2l-0.6-1.2c-0.1-0.3-0.3-0.6-0.4-0.9c-0.3-0.5-0.5-1.1-0.7-1.7l0,0
			c-0.4-0.9-0.7-1.9-1-2.8l0,0c-2.8-9.1-1.5-18.2,6.6-27l0.6-0.6l0,0l0.6-0.6c0.4-0.5,0.9-0.9,1.4-1.3c0.3-0.2,0.5-0.4,0.7-0.7l0,0
			c0.6-0.6,1.3-1.1,2-1.7c1.1-0.8,2.2-1.7,3.3-2.5c0.8-0.6,1.6-1.1,2.5-1.7l0,0c0.8-0.5,1.7-1.1,2.6-1.6c1.5-0.9,3-1.7,4.7-2.6
			c1-0.5,2-1,3.1-1.5c0.7-0.3,1.4-0.7,2.1-1c0.4-0.2,0.7-0.3,1.1-0.5c0.8-0.4,1.6-0.7,2.4-1.1c0.8-0.4,1.7-0.7,2.5-1.1
			c0-0.2-1.8-5.7-8.4-10.5c-8.7-6.3-15.4-4.9-15.4-4.9c-14.9-8.4-181.6-34.6-404.6-31.3c-192.2,2.8-426.5,20.1-642.4,69.1
			c-21.3,4.8-20.5,36.2-39.3,44.3c-18.8,8.1-139.8,44.4-139.8,44.4c-143.4,47.4-336.6,119.4-475.3,179.2
			c-41,17.7-73.2,38.2-126.8,46.4c-73.2,6.5-146.1,16-218.6,24c-8.1,0.5-17.5-5-17.5-5c-42.2-34.4-108.2-69.6-192-69.4
			c-65.7,5.4-84.9,27-59,76.2c20.1,32.6,52.7,104.6,52.7,104.6c35.9,60.8-14.7,88.7-71.7,119.7c-20,10.9-66.5,30.2-68.9,51.4
			c-1.9,1.3-4.7,3.5-7.9,6.5 M3453.1,2389.9h0.1c0,0,37.6-5.4,133-10.2h7.6 M1553.5,2335.4l9.8-0.9l90.9,9 M1671.5,1545h-0.8
			c-0.1,0-12.1,0.2-31.9,0.2c-49.6,0-145.8-1.4-232.9-10.5c-47.9-5-86.4-12.1-114.8-19.9c-33.6-9.2-51.9-20.3-46.6-35.8
			c3.8-8.2,14.7-22.1,44.4-41.7c20.9-13.7,48.1-28.2,80.7-42.8c56.3-25.4,109.7-42.8,110.2-42.9l0.3-0.1l0.3-0.1
			c0.6-0.2,60.1-21.6,141.7-46.3c48.6-14.7,111.7-32.5,176-47.2l99.3,290.2L1671.5,1545z M2236.4,1552.8l-274.1-3.8l-101.4-304.4
			c14.2-2.7,28.2-5.1,41.9-7.2c184.3-28.4,448.6-37.2,451.3-37.3c0.3,0,26.1-0.8,62.2-0.8c29.1,0,69.6,0.6,108.9,2.9l132.1,350.6
			L2236.4,1552.8L2236.4,1552.8z M2836,1431.9c-15.3,4-29.3,11.8-40.8,22.6c-2.5,2.4-5,4.8-7.3,7.4c-17.9,20-28,45.4-27.2,65.9
			c0,0-3.1,11.9,7,24.9v0.1h-84.6l-129-348.4c67.4,6.2,78.8,12,189.8,129.6C2781.2,1373.4,2820.2,1411.8,2836,1431.9z
			 M4772.7,2171.8h-114c-17.1,0-39.7-25.4-40.7-52.3c-1-27.3,4.4-31.3,22.8-31.3c34.9,0,129.6,0.7,158.7,0.7c29.9,0,33-3.7,36.1,5.7
			s1.6,59.5-7.3,68.9S4772.7,2171.8,4772.7,2171.8L4772.7,2171.8z"/>
		<path class="st1" d="M3339,1551.9c-14.5-1.6-35.2-8.4-51.9-14.9c-3.1-1.2-6-2.4-8.7-3.5s-1,1.3-1,1.3
			c-21.6,21.7-134.9,43-208.1,33.3c-22.9-4.8-49.5-27.5-67.9-45.7l-0.1-0.1c-13.4-13.3-22.5-24.3-22.5-24.3L2704,1212
			c-22.7-23.8-48.7-77.1,8.1-91.1 M781.6,2351.2c-2.1-5.7-19.7-1.4-30.7-15.9c-7.5-9.9-3.5-86.1-3.5-86.1
			c4.3-145.8,51.9-258.3,127.1-335.7c80.7-83.1,193.4-125.8,318.6-125.8c179,0,361.6,112.1,441.4,342.8
			c10.4,44.4,15,79.7,17.2,111.6h-0.2c2.4,35.5,1.8,66.7,2.8,101.5c0.7,22.6,1.9,46.6,5.1,74.2c7.9,8,68.1,1.4,120-9.9
			c391.8-40,133-13,738.8-12c614.6,14.3,782,15.5,830,25.8s73.5,9,86.8,2.8s18.9-12.9,19.7-66.9c0.4-25.2,2-50.1,4.7-74.3
			c-4,1.7-4,1.6,0.1-0.1c39.5-352.5,321.6-592.8,708-412.7c270.4,131,275.5,395.8,229.2,586.4c-6.4,3.2-6.8,23,2.8,30.8
			c0.6,0.5,1.2,0.9,1.9,1.3 M1921.8,1570.6l-250.6-3.5c0,0-12.1,0.2-32.3,0.2c-98.5,0-390.1-5.4-415.8-68.7
			c-31.1-76.8,250-167.9,250-167.9s238.7-86.1,426.5-115s453.9-37.6,453.9-37.6s26-0.8,62.9-0.8c75.8,0,203.6-4.8,236,25.1
			c50.7,46.7,59,48.8,225.6,223.7l9.9,10.2c0.1,0,0.2,0.1,0.3,0.1 M1652,2242.1c0.2,0,0.6,0,0.9,0
			C1652.6,2242.1,1652.3,2242.1,1652,2242.1z M1657.7,2242c0.5,0,1.1,0,1.7,0C1658.8,2241.9,1658.2,2241.9,1657.7,2242z"/>
		<line class="st1" x1="1962.3" y1="1549" x2="1897.4" y2="1548.1"/>
		<line class="st1" x1="1860.9" y1="1244.6" x2="1798.1" y2="1257.9"/>
		<line class="st1" x1="2554.1" y1="1204.4" x2="2525.2" y2="1202.2"/>
		<line class="st1" x1="2683.1" y1="1552.8" x2="2657.3" y2="1552.8"/>
		<path id="Door_2_" class="st1" d="M3280.7,1650.3c-39.8-50.5-186-52.8-186-52.8s-29.9,0.8-51-7.8s-25.8-14.9-25.8-14.9h-19.5
			c-0.6,6.5-1.6,12.9-2.2,21.1c-1.6,19.6-38.4,33.3-72,31.3s-50.1-7.8-57.1-21.9s30.5-30.5,30.5-30.5h-76.9
			c-15.5-1.5-29.7-4.3-38.1-9.4c-5.6-3.3-10.7-7.6-14.8-12.6c-10.2-13-7.1-25-7.1-25c-0.8-20.5,9.3-45.9,27.2-65.9
			c-18.1,19.9-28.2,45.5-27.4,66c0,0-3.1,11.9,7,24.9l0.1,0.1c4.1,5.1,9.1,9.3,14.8,12.6c8.4,5.1,22.6,7.9,38.1,9.4h-584.3
			l-314.4-4.3"/>
		<line id="Rear_Bumper_Line_1_" class="st1" x1="883.5" y1="1904.5" x2="481.8" y2="1887.9"/>
		<path id="Skirt-2_1_" class="st1" d="M3460.6,2282.7c0,0-16.7,8.1-35.5,8.1s-54.3-8.3-79.3-11.5s-49.8-5.7-114.8-8.3
			s-394.7-9.7-394.7-9.7l-371.5-7.8l-291.4-8.3c0,0-160.2-9.1-280.7-7.6s-241.8,4.6-241.8,4.6"/>
		<path id="Door_Front_1_" class="st1" d="M2998.4,1574.8h19.5c0,0,4.7,6.3,25.8,14.9s51,7.8,51,7.8s146.2,2.3,186,52.8
			c77,98,11.9,488.6,3.4,623.4"/>
		<path id="Door-2_1_" class="st1" d="M1921.9,1570.4c0,0-14.6,29.4-14.6,67.2c0,42.8,29.2,130.4,29.2,130.4s47.5,146.6,71,200.3
			c23.5,53.7,67.3,180.5,115.3,209.2s163.3,24.5,285.9,27.1c122.6,2.6,565,12.5,565,12.5l315.7,9.6"/>
		<path id="Front_Bumper_Line_3_" class="st1" d="M4338.1,2009.3"/>
		<path id="Bumper_LIght_1_" class="st1" d="M4618,2119.5c-1-27.3,4.4-31.3,22.8-31.3"/>
		<path id="_2_1_" class="st1" d="M2998.4,1574.8c-0.6,6.5-1.6,12.9-2.2,21.1c-1.6,19.6-38.4,33.3-72,31.3s-50.1-7.8-57.1-21.9
			s30.5-30.5,30.5-30.5h-76.9c-15.5-1.5-29.7-4.3-38.1-9.4c-5.6-3.3-10.7-7.6-14.8-12.6c-10.2-13-7.1-25-7.1-25
			c-1.4-34.8,28.8-84.2,75.8-96c5.9-1.5,12-2.4,18.1-2.6c10.6-0.4,22,2.4,33.6,7.2c50.5,21.3,103.9,83.3,108.1,104.7
			c1.1,5.4,1.9,10.9,2.3,16.4C2999,1563.3,2998.9,1569.1,2998.4,1574.8z"/>
		<path id="_1_1_" class="st1" d="M2897.6,1574.8c0,0,24.7,10.6,50.1,8.6s50.8-8.6,50.8-8.6"/>
		<path id="Wing_Crease_1_" class="st1" d="M918.4,1465.3c-22.5,11.2-31.1,51.9-31.1,51.9"/>
		<path id="Wing_Lower_1_" class="st1" d="M361,1731.7c102.7-62.2,983.9-387.8,983.9-387.8s224.6-78.3,418.7-116.6
			c194.1-38.3,325-48.4,473-55.8c361.9-18,385.1-2.2,450.6,62.4"/>
		<path id="Handle_3_1_" class="st1" d="M2141.8,1726.5L2141.8,1726.5c-0.6,0.9-1.3,1.8-2.1,2.7l0,0c-11.1,13.1-32.3,25-65.6,24.7
			c-24.4-0.2-42.3-7.4-52.3-21.2c0.2-7-6.2-20.5,62.3-21C2142.2,1711.3,2144.3,1721.5,2141.8,1726.5z"/>
		<path id="Handle_2_1_" class="st1" d="M2142.7,1685c-6,2.1,1.9,10.8-64.5,4.8c-57.9-5.2-53.2-11.2-53.7-15.5
			c9.5-9.7,24.7-16.3,46.2-16.4C2108,1657.7,2132.3,1668.7,2142.7,1685z"/>
		<path id="Handle_1_1_" class="st1" d="M2207.3,1707.1c0,10.2-32.6,17.5-67.6,22.1l0,0c0.8-0.8,1.5-1.7,2.1-2.7l0,0
			c2.5-5,0.4-15.2-57.7-14.8c-68.6,0.5-62.2,13.9-62.3,21c0,0.6-0.1,1.1-0.2,1.7c-0.8,2.4-7.7,2.2-12.8,2.3
			c-40.3,0.8-66.4-1.9-66.4-31.4c0-21.6,17.5-31.8,42-34.3c13.5-1.4,37.1-0.4,39.2,1.3c0.7,0.5,1.1,1.3,1.1,2.1
			c0.4,4.3-4.3,10.2,53.7,15.5c66.4,6,58.5-2.7,64.5-4.8c1.6-0.6,4.1-0.6,9.3,0.1C2185.5,1690.1,2207.3,1697.2,2207.3,1707.1z"/>
		<path id="Wing_2_1_" class="st1" d="M420.1,1428.3c-7.8,11.1,2.5,23.3,2.5,23.3c17,16.7,34.9,32.4,53.7,47
			c30.7,23.8,90.9,62.3,142.6,58.6c0,0,66.5,2.2,272.5-54.1"/>
		<path id="Wing_1_1_" class="st1" d="M665.4,1496.9c-128.6,15.2-122.8,42.6-122.8,42.6"/>
		<path id="Front_Well_2_4_" class="st1" d="M3453.2,2390"/>
		<path id="Front_Well_2_3_" class="st1" d="M4401.4,2488.9"/>
		<path id="Rear_Well_2_4_" class="st1" d="M1654.8,2343.7"/>
		<path id="Rear_Well_2_3_" class="st1" d="M781.6,2351.1"/>
		<path id="Rear_Windshield_1_" class="st1" d="M1604.4,1210.6c0,0-24.9,12.9-204.5,79s-359.2,143.5-400.7,159.2
			c-41.5,15.7-51.1,6.1-51.1,6.1"/>
		<path id="Squirter_1_" class="st1" d="M3526.9,1581.3c0,0-3.6-10.1-19.8-12.2s-20.9,6.1-20.9,6.1"/>
		<path id="Headlight_1_" class="st1" d="M4639.1,1859.3c0,0-2.8-20.5-43.3-59.6c-66.1-64-83.1-54-83.1-54"/>
		<path id="Windshield_1_" class="st1" d="M3264.9,1525.3l-2.1,1.2c-0.1,0-0.1-0.1-0.2-0.1c-0.7,0.4-1.5,0.8-2.3,1.2
			c-0.1,0.1-0.2,0.1-0.3,0.2c-0.9,0.4-1.7,0.9-2.6,1.3c-3.4,1.6-7.3,3.3-11.5,4.9c-1,0.4-1.9,0.7-2.9,1.1c-0.6,0.2-1.2,0.4-1.8,0.7
			l-1.8,0.6c-1.2,0.4-2.5,0.9-3.8,1.3s-2.6,0.8-4,1.2s-2.7,0.8-4.1,1.2l-4.2,1.2c-0.7,0.2-1.4,0.4-2.2,0.6l-4.4,1.2
			c-4.8,1.2-9.9,2.4-15.1,3.5c-2.9,0.6-5.9,1.2-8.9,1.8s-6.1,1.1-9.2,1.7c-4.7,0.8-9.4,1.5-14.2,2.2l-4.8,0.6
			c-2.2,0.3-4.3,0.5-6.5,0.8s-4.4,0.5-6.6,0.7c-2.9,0.3-5.8,0.5-8.8,0.7l-4.8,0.3h-0.7c-9.3,0.6-18.7,0.8-28,0.7
			c-1.8,0-3.6,0-5.3-0.1c-1.4,0-2.7-0.1-4.1-0.1l-6.7-0.3c-2.2-0.1-4.4-0.3-6.6-0.5c-0.8-0.1-1.7-0.2-2.5-0.2
			c-1.3-0.1-2.6-0.2-3.9-0.4c-1.9-0.2-3.7-0.4-5.6-0.7c-1.1-0.2-2.2-0.5-3.4-0.8c-0.4-0.1-0.8-0.2-1.2-0.4c-0.1,0-0.2,0-0.3-0.1
			c-0.4-0.1-0.8-0.2-1.2-0.4c-0.2-0.1-0.5-0.2-0.7-0.2c-0.4-0.1-0.8-0.3-1.1-0.4h-0.1c-0.5-0.2-1.1-0.4-1.6-0.6s-1.1-0.4-1.6-0.6
			c-0.6-0.2-1.1-0.4-1.6-0.7c-0.3-0.1-0.7-0.3-1-0.4c-2.4-1-4.7-2.2-7-3.5c-0.5-0.3-1.1-0.6-1.6-0.9s-1.1-0.6-1.6-0.9
			s-1-0.6-1.6-0.9c-1.5-0.9-3.1-1.9-4.6-2.9c-0.5-0.3-1-0.7-1.5-1s-1-0.7-1.5-1l-3-2.1c-6.4-4.5-12.6-9.5-18.4-14.5
			c-0.5-0.5-1.1-1-1.7-1.4c-2.3-2-4.5-4-6.6-6c-0.4-0.3-0.8-0.7-1.1-1.1c-6.4-6-11.9-11.6-16.2-16.1c-0.3-0.3-0.6-0.6-0.8-0.9
			c-1.3-1.3-2.4-2.6-3.4-3.7c-0.1-0.2-0.3-0.3-0.4-0.5c-2.3-2.6-3.9-4.3-4.5-5.1l-0.1-0.1c-0.1-0.1-0.1-0.1-0.1-0.2s0-0.1-0.1-0.1
			l0,0l0,0L2718,1209.1c-2.7-2.8-5.3-5.8-7.7-8.7c-0.6-0.7-1.2-1.5-1.7-2.2c-0.3-0.4-0.6-0.8-0.8-1.1c-0.4-0.5-0.7-1-1-1.5
			c-0.2-0.2-0.3-0.5-0.5-0.7c-0.3-0.5-0.6-1-0.9-1.5c-0.3-0.4-0.5-0.8-0.8-1.2c-0.1-0.1-0.2-0.2-0.2-0.4c-0.5-0.8-0.9-1.5-1.3-2.3
			l-0.6-1.2l-0.6-1.2c-0.1-0.3-0.3-0.6-0.4-0.9c-0.3-0.5-0.5-1.1-0.7-1.7l0,0c-0.4-0.9-0.7-1.9-1-2.8l0,0c-2.8-9.1-1.5-18.2,6.6-27
			l0.6-0.6l0,0l0.6-0.6c0.4-0.5,0.9-0.9,1.4-1.3c0.3-0.2,0.5-0.4,0.7-0.7l0,0c0.6-0.6,1.3-1.1,2-1.7c1.1-0.8,2.2-1.7,3.3-2.5
			c0.8-0.6,1.6-1.1,2.5-1.7l0,0c0.8-0.5,1.7-1.1,2.6-1.6c1.5-0.9,3-1.7,4.7-2.6c1-0.5,2-1,3.1-1.5c0.7-0.3,1.4-0.7,2.1-1
			c0.4-0.2,0.7-0.3,1.1-0.5c0.8-0.4,1.6-0.7,2.4-1.1s2.4-1.1,2.5-1.1l276.2,199.6L3264.9,1525.3z"/>
		<circle id="Tire_2_" class="st1" cx="1195.3" cy="2225.1" r="374.7"/>
		<path class="st1" d="M1502.5,2253.3c-15.7,171.3-167.4,297.5-338.8,281.7c-171.3-15.7-297.5-167.4-281.7-338.8
			c15.7-171.3,167.4-297.5,338.8-281.7C1392.1,1930.3,1518.3,2082,1502.5,2253.3z"/>
		<circle id="Inner_1_1_" class="st1" cx="1192.2" cy="2224.8" r="292.4"/>
		<path id="Inner_2_1_" class="st1" d="M1217.5,1949.4c152,14,264.1,148.8,250.1,300.8s-148.8,264.1-300.8,250.1
			s-264.1-148.8-250.1-300.8C930.8,2047.5,1065.6,1935.4,1217.5,1949.4"/>
		<circle id="Inner_3_1_" class="st1" cx="1192.2" cy="2224.8" r="258.4"/>
		<path id="Spokes_1_" class="st1" d="M1345.8,2412.8c-0.4,1.2-1.1,2.1-2.1,2.8c-0.1,0.1-2.4,2.1-6.9,5.5c-6.5,4.7-13.1,9.1-20,13.2
			c-17.4,10.3-29.3,14.5-29.4,14.5h-0.2c-0.9,0.3-2,0.5-3,0.5l-1-0.1c-1.2-0.9-2.1-2.1-2.8-3.5l-69.1-149.4
			c13.1-3.4,25-10.4,34.4-20l98.5,132l0.1,0.1C1344.5,2408.3,1346.1,2410.4,1345.8,2412.8z M1434.6,2203.7c0-0.2-0.7-13-5-32.7
			s-9.6-31-9.7-31.1l-0.1-0.1l-0.1-0.1c-0.4-1-1.1-2-2.1-2.8c-0.4-0.1-0.7-0.3-1.1-0.5c0-0.1,0-0.1-0.1-0.1
			c-1.2-0.1-2.5,0.1-3.7,0.5h-0.1l-155.4,52.9c6.5,11.8,9.6,25.3,9,38.9l163.1-19.1h0.3c1.5-0.1,2.9-0.8,3.9-2l0.1-0.1l0.1-0.1
			C1434.3,2206.2,1434.7,2204.9,1434.6,2203.7L1434.6,2203.7z M1249.9,1989.3c-0.8-0.8-1.9-1.3-3-1.6h-0.2c-0.1-0.1-12-3.4-32.3-5.3
			c-20.2-1.9-32.5-0.7-32.7-0.7h-0.2c-1.2,0-2.3,0.4-3.3,1v0.1c-0.8,1.1-1.3,2.4-1.4,3.8l-0.1,0.7l2.2,164.5
			c6.5-1.2,13.2-1.5,19.8-1c6.7,0.5,13.2,2,19.4,4.4l32.1-161v-0.2C1250.6,1994.1,1251.1,1991.5,1249.9,1989.3L1249.9,1989.3z
			 M990.9,2097.7l-0.5-0.2c-0.8-0.5-1.5-0.7-2.4-0.8l-0.3,0.4l-1.2,0.1c-0.5,0.1-1.5,1.2-2.1,2.1l-0.1,0.2l-0.1,0.2
			c0,0.1-7.2,10.4-15.2,28.8c-7.9,18.7-10.9,31.1-10.9,31.2c-0.2,1.1-0.2,2.3,0.1,3.4c1.1,1.3,2.4,2.3,3.9,3l156.7,48.6
			c1.8-13.4,7.2-26.1,15.8-36.6L990.9,2097.7z M1130.2,2265.2L1009.4,2377l-0.1,0.1l-0.1,0.1c-1.1,1-1.9,2.4-2.2,3.9
			c0.1,0.5,0.2,1,0.5,1.5c0.2,0.6,0.6,1.2,1,1.6c0.1,0.1,7.9,10.1,23.2,23.4c15.2,13.4,26.2,19.5,26.3,19.6h0.2
			c0.9,0.5,1.8,0.8,2.8,1l1,0.1c1.4-0.7,2.5-1.7,3.4-2.9l95.1-134.2C1148.1,2285.6,1137.5,2276.5,1130.2,2265.2z"/>
		<path id="Lugs_1_" class="st1" d="M1265.5,2238c-5.5-0.5-10.9,1.6-14.6,5.7c-6.6,7-5.8,18.2,1.8,24.9c2.8,2.6,6.3,4.2,10.1,4.4
			c5.5,0.5,10.9-1.6,14.6-5.7c6.6-7,5.8-18.2-1.8-24.9C1273.2,2239.8,1269.7,2238.4,1265.5,2238z M1245.6,2148.7
			c-3.8-0.2-7.5,0.6-10.8,2.5c-8.1,5.1-10.9,15.7-6.3,24.1c2.9,4.7,7.8,7.7,13.3,8.3c3.8,0.2,7.5-0.6,10.8-2.5
			c8.1-5.1,10.9-15.7,6.3-24.1C1256,2152.3,1251.1,2149.2,1245.6,2148.7z M1153.7,2140.2c-1.8-0.3-3.6-0.2-5.3,0.1
			c-9.6,2-15.1,11.6-13,21.1c1.6,7.6,8,13.2,15.8,13.8c1.8,0.3,3.6,0.2,5.3-0.1c9.6-2,15.1-11.6,13-21.1
			C1167.9,2146.5,1161.5,2140.8,1153.7,2140.2z M1186.6,2285.4c-7.6-0.7-14.4,3.3-18.1,10.7c-3.7,9.1,0.5,19.4,8.9,23.1
			c1.6,0.7,3.4,1,5.2,1.1c7.6,0.7,14.4-3.3,18.1-10.7c3.7-9.1-0.5-19.4-8.9-23.1C1190.2,2285.8,1188.4,2285.4,1186.6,2285.4z
			 M1117.7,2224.4c-9.7-0.9-18.1,6.2-19,15.8c-0.9,9.7,6.2,18.1,15.8,19c9.6,0.9,18.1-6.2,19-15.8l0,0
			C1134.4,2233.9,1127.3,2225.4,1117.7,2224.4z"/>
		<path id="Holes_1_" class="st1" d="M1413.4,2241c-2.2,24.3-8.1,48.1-17.5,70.6c-9.8,23.1-23.3,43-39,61c-3.7,4.1-9.1,6.2-14.6,5.7
			c-1.8-0.1-3.6-0.4-5.2-1.1c-1.5-0.6-3.1-1.6-4.4-2.7c-1.1-0.7-1.6-2-2.6-3.2l-1.6-2.5l-38.5-67c-7.2-10.7-8.3-24.8-3-37.2
			c5.1-12.3,16-21.2,29.1-23.8l75-17.8l2.3-0.4c1.3-0.4,2.8-0.4,4.1-0.2c2.3,0.2,4,1,5.3,0.5C1409.3,2226,1414.1,2233.4,1413.4,2241
			z M1385.6,2114c-12.2-21-27.8-39.8-46-55.8c-19-16.4-39.5-29.5-61.6-38.5c-2.1-0.6-4.2-1-6.3-1.2c-5.5-0.5-10.9,1.6-14.6,5.7
			c-1.2,1.2-2.2,2.7-2.7,4.4c-0.6,1.2-0.9,2.6-1,4l-0.3,2.9l-5.9,77c-0.6,6.5,0.3,13,2.6,19c5.4,14.7,18.8,24.8,34.4,26.1
			c4.6,0.5,9.2,0.1,13.7-1.1l75.5-16l2.3-0.4c1.3-0.5,2.6-1.2,3.7-2c1.8-0.9,3.2-2.1,4.5-3.7
			C1388.7,2128.6,1389.4,2120.4,1385.6,2114z M1168.2,2020.6c-0.2-1.7-0.9-3.4-1.9-4.8c-3.7-4.5-8.7-7.8-14.5-8.4
			c-1.8-0.3-3.6-0.2-5.3,0.1c-24,4.9-46.8,13.9-67.6,26.6c-21,12.2-39.7,28-55.4,46.5c-4.9,5.7-5.7,13.8-1.9,20.3
			c1.1,1.3,2,3.1,3.7,4.5c1.1,0.7,2.1,2,3.3,2.6l2.2,0.8l71.3,29.5c2,1.1,4.1,1.9,6.3,2.5c2.3,0.6,4.5,0.9,6.8,1.1
			c8.6,0.8,17.1-1,24.5-5.4c11.4-7,18.8-19,20-32.3l8.3-76.8l0.3-2.9C1168.5,2023.6,1168.1,2021.8,1168.2,2020.6L1168.2,2020.6z
			 M1092.1,2247.2c-2.8-12.9-12-23.7-24.3-28.5l-70.5-31.2l-2.2-0.8c-1.2-0.8-2.6-1.3-4-1.6c-1.8-0.2-3.5,0.3-5.3,0.1
			c-7.6,1.7-13.1,8.1-13.8,15.8c-2.8,24.2-1.4,48.9,4.4,72.6c5.3,23.7,14.5,46.4,27.3,67.1c2.9,4.7,7.8,7.7,13.3,8.3
			c1.8,0.3,3.6,0.2,5.3-0.1c1.7-0.2,3.4-0.9,4.8-1.9c1.3-0.6,2.3-1.5,3.2-2.6l2-2.1l50.1-58.9c6-6.7,9.7-15.2,10.6-24.1
			C1093.2,2255.3,1093,2251.2,1092.1,2247.2L1092.1,2247.2z M1257.6,2419.8c-0.5-1.2-0.9-3-1.4-4.2l-1.6-2.5l-40.2-66
			c-3-5.6-7.5-10.4-12.8-13.9c-5.6-3.7-12.1-6-18.8-6.6c-13.9-1.3-26.3,4.6-34.8,14.4l-51.6,57.5l-2,2.1c-0.8,1.2-1.5,2.6-2.2,3.9
			c-0.7,1.6-1,3.4-1.1,5.2c-0.7,7.6,3.3,14.4,10.7,18.1c44.7,19.8,94.5,24.4,142,13.1c7.6-1.6,13.2-8,13.8-15.8
			C1258,2423.4,1258,2421.6,1257.6,2419.8L1257.6,2419.8z"/>
		<circle id="Cap_1_" class="st1" cx="1192.2" cy="2224.8" r="48.5"/>
		<path id="Bolts_1_" class="st1" d="M1293.6,2009.8c-1.6,3-4.7,4.8-8.1,4.6c-0.6-0.1-1.7-0.8-2.2-0.8c-4-1.6-5.8-6.5-4.4-10.4
			c1.6-3,4.7-4.8,8.1-4.6c0.8,0.1,1.6,0.3,2.2,0.8C1293.2,2000.9,1295.1,2005.8,1293.6,2009.8z M1138.8,2000.9
			c0.6,0.1,1.8,0.2,2.3-0.4c4.2-0.8,6.9-5.3,6.2-9.5c-1-3.2-3.7-5.6-7.1-6c-0.6-0.1-1.8-0.2-2.3,0.4c-4.2,0.8-6.9,5.3-6.2,9.5
			C1132.5,1998.3,1135.4,2000.8,1138.8,2000.9L1138.8,2000.9z M1354.2,2040.7c-1.2-1.2-2.7-2-4.4-2.2c-2.4-0.1-4.8,0.8-6.6,2.3
			c-2.7,3.4-2.4,8.2,0.8,11.1c1.1,1.3,2.7,2.1,4.4,2.2c2.4,0.1,4.8-0.8,6.6-2.3C1357.7,2048.5,1357.3,2043.7,1354.2,2040.7z
			 M1071.4,2012.9c-1.8-0.2-2.9,0.3-4.7,1.4c-3.7,2-4.8,7.2-2.8,10.8c1.3,2.1,3.6,3.3,6.1,3.5c1.8,0.2,2.9-0.3,4.7-1.4
			c3.7-2,4.8-7.2,2.8-10.8C1076,2014.5,1073.8,2013.2,1071.4,2012.9z M1397.3,2095.7c-1.8-0.2-2.9,0.3-4.7,1.4
			c-3.7,2-4.8,7.2-2.8,10.8c1.3,2.1,3.6,3.3,6.1,3.5c1.8,0.2,2.9-0.3,4.7-1.4c3.7-2,4.8-7.2,2.8-10.8
			C1401.9,2097.3,1399.7,2096.1,1397.3,2095.7z M1008.2,2073.8c1.1,1.3,2.7,2.1,4.4,2.2c2.4,0.1,4.8-0.8,6.6-2.3
			c2.7-3.4,2.4-8.2-0.8-11.1c-1.1-1.3-2.7-2.2-4.4-2.2c-2.4-0.1-4.8,0.8-6.6,2.3C1004.7,2066.1,1005,2070.9,1008.2,2073.8z
			 M1429.4,2239c-4.2-0.4-7.9,2.7-8.3,6.9s2.7,7.9,6.9,8.3c4.2,0.4,7.9-2.7,8.3-6.9l0,0C1437.3,2243.2,1433.9,2239.4,1429.4,2239z
			 M963.5,2203.8c0.3-4.1-2.8-7.8-6.9-8.3c-4.2-0.4-7.9,2.7-8.3,6.9c-0.4,4.2,2.7,7.9,6.9,8.3C959.4,2211,963.1,2208,963.5,2203.8
			L963.5,2203.8z M1413.2,2311.4c-0.4-0.6-1-0.7-2.2-0.8c-3.4-0.2-6.6,1.5-8.1,4.6c-1.6,4.1,0.3,8.7,4.4,10.4
			c0.6,0.1,1.7,0.8,2.2,0.8c3.4,0.2,6.6-1.5,8.1-4.6C1419.1,2317.8,1417.2,2312.9,1413.2,2311.4z M961.5,2269.3
			c-0.6-0.1-1.8-0.2-2.3,0.4c-4.2,0.8-6.9,5.3-6.2,9.5c0.7,3.4,3.7,5.9,7.1,6c0.6,0.1,1.8,0.2,2.3-0.4c4.2-0.8,6.9-5.3,6.2-9.5
			C967.1,2272.2,964.5,2269.5,961.5,2269.3L961.5,2269.3z M1376.2,2375.6c-1.2-1.1-2.7-2-4.4-2.2c-2.4-0.1-4.8,0.8-6.6,2.3
			c-2.7,3.4-2.4,8.2,0.8,11.1c1.1,1.3,2.7,2.1,4.4,2.2c2.4,0.1,4.8-0.8,6.6-2.3C1379.7,2383.5,1379.3,2378.6,1376.2,2375.6z
			 M988.6,2338.1c-1.8-0.2-2.9,0.3-4.7,1.4c-3.7,2-4.8,7.2-2.8,10.8c1.3,2.1,3.6,3.3,6.1,3.5c1.8,0.2,2.9-0.3,4.7-1.4
			c3.7-2,4.8-7.2,2.8-10.8C993.7,2339.8,991,2338.4,988.6,2338.1L988.6,2338.1z M1245.6,2448.7c-0.6-0.1-1.8-0.2-2.3,0.4
			c-4.2,0.8-6.9,5.3-6.2,9.5c0.7,3.4,3.7,5.9,7.1,6c0.6,0.1,1.8,0.2,2.3-0.4c4.2-0.8,6.9-5.3,6.2-9.5
			C1251.2,2451,1248.5,2448.9,1245.6,2448.7L1245.6,2448.7z M1101.9,2436c-0.7-0.5-1.4-0.7-2.2-0.8c-3.4-0.2-6.6,1.5-8.1,4.6
			c-1.6,4.1,0.3,8.7,4.4,10.4c0.6,0.1,1.7,0.8,2.2,0.8c3.4,0.2,6.6-1.5,8.1-4.6C1107.7,2442.5,1105.9,2437.6,1101.9,2436
			L1101.9,2436z M1171.2,2453.6c-4.2-0.4-7.9,2.7-8.3,6.9s2.7,7.9,6.9,8.3c4.2,0.4,7.9-2.7,8.3-6.9l0,0
			C1178.4,2457.6,1175.4,2453.9,1171.2,2453.6z"/>
		<circle id="Tire-2_1_" class="st1" cx="3931.1" cy="2227.5" r="370"/>
		<circle class="st1" cx="3931.1" cy="2227.5" r="311.6"/>
		<circle id="Inner_1-2_1_" class="st1" cx="3931.1" cy="2227.5" r="292.4"/>
		<path id="Inner_2-2_1_" class="st1" d="M3931.1,1950.9c152.6,0,276.6,124,276.6,276.6s-124,276.6-276.6,276.6
			s-276.6-124-276.6-276.6S3778.5,1950.9,3931.1,1950.9"/>
		<circle id="Inner_3-2_1_" class="st1" cx="3931.1" cy="2227.5" r="258.4"/>
		<path id="Spokes-2_1_" class="st1" d="M4101.3,2400.6c-0.3,1.2-0.9,2.2-1.8,3c-0.1,0.1-2.2,2.3-6.4,6.1c-6,5.3-12.2,10.3-18.7,15
			c-16.4,11.9-27.9,17.1-28,17.1h-0.2c-0.9,0.4-1.9,0.7-2.9,0.8h-1c-1.3-0.8-2.3-1.9-3.1-3.2l-82.5-142.4
			c12.7-4.6,23.9-12.6,32.4-23.1l110.2,122.4l0.1,0.1C4099.6,2396.3,4101.3,2398.2,4101.3,2400.6z M4170.5,2184.3
			c0-0.2-1.9-12.9-8-32.1s-12.4-30-12.5-30.1l-0.1-0.1l-0.1-0.1c-0.5-1-1.3-1.9-2.3-2.6c-0.4-0.1-0.7-0.2-1.1-0.4
			c0-0.1,0-0.1-0.1-0.1l0,0c-1.2,0-2.5,0.3-3.6,0.8h-0.1l-149.9,66.9c7.6,11.2,11.9,24.3,12.5,37.9l160.7-34h0.3
			c1.5-0.2,2.8-1.1,3.7-2.3l0.1-0.1l0.1-0.1C4170.5,2186.8,4170.7,2185.5,4170.5,2184.3z M3967,1987.7c-0.9-0.7-2-1.1-3.1-1.3h-0.2
			c-0.1-0.1-12.3-2.3-32.6-2.3s-32.4,2.3-32.6,2.3h-0.2c-1.2,0.1-2.3,0.6-3.2,1.3v0.1c-0.7,1.2-1.1,2.5-1,3.9v0.7l17.3,163.6
			c6.4-1.8,13-2.7,19.6-2.8c6.7-0.1,13.3,0.8,19.7,2.6l17.2-163.3v-0.2C3968.1,1992.4,3968.4,1989.8,3967,1987.7z M3719,2119.4
			l-0.5-0.2c-0.8-0.4-1.6-0.6-2.5-0.6l-0.3,0.4l-1.2,0.2c-0.5,0.1-1.4,1.3-1.9,2.3l-0.1,0.2l-0.1,0.2c0,0.1-6.2,11-12.5,30.1
			c-6.2,19.3-8,32-8,32.1c-0.1,1.1,0,2.3,0.4,3.4c1.2,1.2,2.6,2.1,4.2,2.6l160.5,34c0.6-13.5,4.8-26.7,12.4-37.9L3719,2119.4z
			 M3873,2273.4l-110,122.4l-0.1,0.1l-0.1,0.1c-1,1.1-1.7,2.6-1.8,4.1c0.1,0.5,0.3,1,0.6,1.5c0.3,0.6,0.7,1.1,1.1,1.5
			c0.1,0.1,8.8,9.3,25.2,21.2s27.9,17,28,17.1h0.2c0.9,0.4,1.9,0.6,2.9,0.7h1c1.3-0.8,2.3-1.9,3.1-3.2l82.4-142.3
			C3892.7,2292.1,3881.4,2284.1,3873,2273.4L3873,2273.4z"/>
		<path id="Lugs-2_1_" class="st1" d="M4005.3,2233.9c-5.5,0-10.7,2.6-14,7c-5.9,7.6-4.1,18.7,4.1,24.6c3,2.3,6.7,3.6,10.5,3.5
			c5.5,0,10.7-2.6,14-7c5.9-7.6,4.1-18.7-4.1-24.6C4013.1,2235,4009.5,2233.9,4005.3,2233.9z M3977.3,2146.8
			c-3.8,0.1-7.4,1.3-10.5,3.5c-7.6,5.8-9.4,16.6-4.1,24.6c3.3,4.4,8.5,7,14,7c3.8-0.1,7.4-1.3,10.5-3.5c7.6-5.8,9.4-16.6,4.1-24.6
			C3988,2149.4,3982.8,2146.8,3977.3,2146.8z M3885,2146.8c-1.8-0.1-3.6,0.1-5.3,0.6c-9.4,2.9-14,12.9-11,22.2
			c2.3,7.4,9.2,12.4,17,12.3c1.8,0.1,3.6-0.1,5.3-0.6c9.4-2.9,14-12.9,11-22.2C3899.7,2151.7,3892.8,2146.7,3885,2146.8z
			 M3931.1,2288.3c-7.6,0-14,4.6-17,12.3c-2.9,9.4,2.3,19.3,11,22.2c1.7,0.5,3.5,0.7,5.3,0.6c7.6,0,14-4.6,17-12.3
			c2.9-9.4-2.3-19.3-11-22.2C3934.7,2288.4,3932.9,2288.2,3931.1,2288.3z M3856.9,2233.9c-9.7,0-17.5,7.8-17.5,17.5
			s7.8,17.5,17.5,17.5s17.5-7.8,17.5-17.5l0,0C3874.4,2241.8,3866.5,2234,3856.9,2233.9z"/>
		<path id="Holes-2_1_" class="st1" d="M4152.8,2223.4c0,24.4-3.7,48.6-11,71.9c-7.6,23.9-19.3,45-33.3,64.3c-3.3,4.4-8.5,7-14,7
			c-1.8,0.1-3.6-0.1-5.3-0.6c-1.6-0.5-3.2-1.3-4.6-2.3c-1.2-0.6-1.8-1.8-2.9-2.9l-1.8-2.3l-44.5-63.2c-8.2-10-10.5-23.9-6.4-36.8
			c4-12.7,14-22.6,26.8-26.4l73.1-24.6l2.3-0.6c1.3-0.5,2.7-0.7,4.1-0.6c2.3,0,4.1,0.6,5.3,0
			C4147.4,2208.8,4152.8,2215.7,4152.8,2223.4z M4113.5,2099.4c-14.1-19.8-31.3-37.1-50.9-51.4c-20.4-14.6-42-25.8-64.9-32.7
			c-2.1-0.4-4.3-0.6-6.4-0.6c-5.5,0-10.7,2.6-14,7c-1.1,1.3-1.9,2.9-2.3,4.6c-0.5,1.3-0.7,2.7-0.6,4.1v2.9l1.2,77.2
			c0,6.5,1.5,12.9,4.3,18.7c6.7,14.1,21,23,36.6,22.8c4.6,0.1,9.2-0.7,13.5-2.3l73.7-22.8l2.3-0.6c1.3-0.6,2.5-1.4,3.5-2.3
			c1.7-1.1,3-2.4,4.1-4.1C4117.9,2113.8,4117.9,2105.5,4113.5,2099.4L4113.5,2099.4z M3888.5,2026.3c-0.4-1.7-1.2-3.3-2.3-4.6
			c-4.1-4.1-9.4-7-15.2-7c-1.8-0.1-3.6,0.1-5.3,0.6c-23.4,7.1-45.3,18.1-64.9,32.7c-19.8,14.1-37,31.5-50.9,51.4
			c-4.4,6.1-4.4,14.3,0,20.4c1.2,1.2,2.3,2.9,4.1,4.1c1.2,0.6,2.3,1.8,3.5,2.3l2.3,0.6l73.7,22.8c2.1,0.9,4.3,1.5,6.5,1.9
			c2.3,0.4,4.6,0.5,6.9,0.5c8.6,0,16.9-2.6,23.9-7.6c10.7-8,17-20.6,17-34l1.2-77.2v-2.9C3889.1,2029.3,3888.5,2027.5,3888.5,2026.3
			L3888.5,2026.3z M3833.5,2259c-4-12.6-14.1-22.5-26.8-26.2l-73.1-24.6l-2.3-0.6c-1.3-0.7-2.7-1.1-4.1-1.2c-1.8,0-3.5,0.6-5.3,0.6
			c-7.4,2.4-12.3,9.3-12.3,17c-0.6,24.4,3.1,48.8,11,71.9c7.4,23.1,18.7,44.9,33.3,64.3c3.3,4.4,8.5,7,14,7c1.8,0.1,3.6-0.1,5.3-0.6
			c1.7-0.4,3.3-1.2,4.6-2.3c1.2-0.7,2.2-1.7,2.9-2.9l1.8-2.3l44.5-63.2c5.4-7.2,8.3-16,8.3-25
			C3835.3,2266.9,3834.7,2262.9,3833.5,2259L3833.5,2259z M4014.1,2415.7c-0.6-1.2-1.2-2.9-1.8-4.1l-1.8-2.3l-46.1-62
			c-3.5-5.3-8.4-9.7-14-12.7c-5.9-3.2-12.6-4.9-19.3-4.9c-14,0-25.8,7-33.3,17.5l-46.1,62l-1.8,2.3c-0.7,1.3-1.3,2.7-1.8,4.1
			c-0.5,1.7-0.7,3.5-0.6,5.3c0,7.6,4.6,14,12.3,17c46.3,15.6,96.3,15.6,142.6,0c7.4-2.3,12.4-9.2,12.3-17
			C4014.8,2419.2,4014.6,2417.4,4014.1,2415.7z"/>
		<circle id="Cap-2_1_" class="st1" cx="3931.1" cy="2227.5" r="48.5"/>
		<path id="Bolts-2_1_" class="st1" d="M4012.4,2004.1c-1.3,3.1-4.2,5.2-7.6,5.3c-0.6,0-1.8-0.6-2.3-0.6c-4.1-1.2-6.4-5.9-5.3-10
			c1.3-3.1,4.2-5.2,7.6-5.3c0.8,0,1.6,0.2,2.3,0.6C4011.2,1995.3,4013.5,2000,4012.4,2004.1z M3857.4,2009.4c0.6,0,1.8,0,2.3-0.6
			c4.1-1.2,6.4-5.9,5.3-10c-1.3-3.1-4.2-5.2-7.6-5.3c-0.6,0-1.8,0-2.3,0.6c-4.1,1.2-6.4,5.9-5.3,10
			C3850.8,2007.4,3854,2009.6,3857.4,2009.4z M4075.5,2029.3c-1.3-1.1-2.9-1.7-4.6-1.8c-2.4,0.1-4.7,1.2-6.4,2.9
			c-2.4,3.6-1.6,8.4,1.8,11c1.2,1.2,2.9,1.8,4.6,1.8c2.4-0.1,4.7-1.2,6.4-2.9C4079.7,2036.8,4078.9,2032,4075.5,2029.3z
			 M3791.4,2027.5c-1.8,0-2.9,0.6-4.6,1.8c-3.5,2.3-4.1,7.6-1.8,11c1.5,2,3.9,3,6.4,2.9c1.8,0,2.9-0.6,4.6-1.8
			c3.5-2.3,4.1-7.6,1.8-11C3796.1,2028.7,3793.8,2027.6,3791.4,2027.5z M4123.5,2080.1c-1.8,0-2.9,0.6-4.6,1.8
			c-3.5,2.3-4.1,7.6-1.8,11c1.5,2,3.9,3,6.4,2.9c1.8,0,2.9-0.6,4.6-1.8c3.5-2.3,4.1-7.6,1.8-11
			C4128.2,2081.3,4125.9,2080.3,4123.5,2080.1z M3734,2094c1.2,1.2,2.9,1.8,4.6,1.8c2.4-0.1,4.7-1.2,6.4-2.9c2.4-3.6,1.6-8.4-1.8-11
			c-1.2-1.2-2.9-1.9-4.6-1.8c-2.4,0.1-4.7,1.2-6.4,2.9C3729.8,2086.6,3730.6,2091.4,3734,2094z M4168.6,2219.9
			c-4.2,0-7.6,3.4-7.6,7.6s3.4,7.6,7.6,7.6s7.6-3.4,7.6-7.6C4176.8,2223.4,4173.1,2219.9,4168.6,2219.9L4168.6,2219.9z
			 M3701.4,2227.5c-0.1-4.1-3.5-7.5-7.6-7.6c-4.2,0-7.6,3.4-7.6,7.6s3.4,7.6,7.6,7.6S3701.4,2231.7,3701.4,2227.5z M4159.1,2293.5
			c-0.5-0.6-1.1-0.6-2.3-0.6c-3.4,0.1-6.4,2.1-7.6,5.3c-1.2,4.2,1.1,8.6,5.3,10c0.6,0,1.8,0.6,2.3,0.6c3.4-0.1,6.4-2.1,7.6-5.3
			C4165.5,2299.3,4163.2,2294.6,4159.1,2293.5L4159.1,2293.5z M3705.4,2292.9c-0.6,0-1.8,0-2.3,0.6c-4.1,1.2-6.4,5.9-5.3,10
			c1,3.3,4.2,5.5,7.6,5.3c0.6,0,1.8,0,2.3-0.6c4.1-1.2,6.4-5.9,5.3-10C3711.3,2295.3,3708.4,2292.9,3705.4,2292.9L3705.4,2292.9z
			 M4128.1,2360.8c-1.3-1-2.9-1.7-4.6-1.8c-2.4,0.1-4.7,1.2-6.4,2.9c-2.4,3.6-1.6,8.4,1.8,11c1.2,1.2,2.9,1.8,4.6,1.8
			c2.4-0.1,4.7-1.2,6.4-2.9C4132.3,2368.2,4131.5,2363.5,4128.1,2360.8L4128.1,2360.8z M3738.7,2359c-1.8,0-2.9,0.6-4.6,1.8
			c-3.5,2.3-4.1,7.6-1.8,11c1.5,2,3.9,3,6.4,2.9c1.8,0,2.9-0.6,4.6-1.8c3.5-2.3,4.1-7.6,1.8-11C3744,2360.2,3741.1,2359,3738.7,2359
			L3738.7,2359z M4004.8,2445.5c-0.6,0-1.8,0-2.3,0.6c-4.1,1.2-6.4,5.9-5.3,10c1,3.3,4.2,5.5,7.6,5.3c0.6,0,1.8,0,2.3-0.6
			c4.1-1.2,6.4-5.9,5.3-10C4010.6,2447.3,4007.7,2445.5,4004.8,2445.5L4004.8,2445.5z M3860.5,2446.1c-0.7-0.4-1.5-0.6-2.3-0.6
			c-3.4,0.1-6.4,2.1-7.6,5.3c-1.2,4.2,1.1,8.6,5.3,10c0.6,0,1.8,0.6,2.3,0.6c3.4-0.1,6.4-2.1,7.6-5.3
			C3866.9,2452,3864.6,2447.3,3860.5,2446.1L3860.5,2446.1z M3931.1,2457.2c-4.2,0-7.6,3.4-7.6,7.6s3.4,7.6,7.6,7.6
			c4.2,0,7.6-3.4,7.6-7.6C3938.7,2460.6,3935.3,2457.2,3931.1,2457.2L3931.1,2457.2z"/>
		<g id="Taillight_Alt_2_">
			<path id="Outline_2_" class="st1" d="M193.6,1882.4l27.2,0.5l261,5l-14.8-55.4c0,0-10.7-50.8-61.5-50.8H293.2l-57.8,10.8
				c0,0-8.4,1.4-8.4,10.4c0,9.1,0.2,11.1,4.2,13.5L193.6,1882.4z"/>
			<path id="Black_2_" class="st1" d="M341.5,1816.5h17.8c0,0,12.1,0.7,17.2,9.1c0,0,7.3,15.2,11.6,29.7c1,3.5,2,7.8,2.7,12
				l3.6,18.6"/>
			<path id="Front_3_" class="st1" d="M432.5,1886.9c0,0-2.8-18.6-12.5-42.1c-9.8-23.5-25-46-45-46l-147.3-0.2"/>
			<path id="Back_1_" class="st1" d="M231.2,1816.5h110.3c0,0,12.1,0.7,17.2,9.1c0,0,7.3,15.2,11.6,29.7c0.2,0.8,0.5,1.7,0.7,2.6
				c1.5,5.9,2.8,13.2,3.6,18.9c0.8,5.2,1.2,9.1,1.2,9.1"/>
		</g>
		<path id="Front_Bumper_Line_2_" class="st1" d="M4342.1,2009.3l342.2,5.3c0,0,106.7,3.6,112.8-1.7c6.1-5.3,1.7-14,1.7-14"/>
	</g>
</g>
</svg>
