<?xml version="1.0" encoding="utf-8"?>
<!-- Generator: Adobe Illustrator 25.1.0, SVG Export Plug-In . SVG Version: 6.00 Build 0)  -->
<svg version="1.1" id="Layer_1" xmlns="http://www.w3.org/2000/svg" xmlns:xlink="http://www.w3.org/1999/xlink" x="0px" y="0px"
	 viewBox="0 0 4728 1610" style="enable-background:new 0 0 4728 1610;" xml:space="preserve">
<style type="text/css">
	.st0{fill:none;stroke:#C4C9D4;stroke-width:8;stroke-linejoin:round;stroke-miterlimit:10;}
</style>
<g id="Layer_1_1_">
	<g>
		<path id="Outer_2_" class="st0" d="M64.8,797.9c0,0-43.6,20.7-52.7,38.1c-8.3,15.9-8.3,41.2-8.3,41.2s25.9,265.3,42.3,291.1
			s45.4,42.3,45.4,42.3c40.5,4.5,373.6,61.6,464.9,63.1c8.9,0.1,72.3,0.9,69-7.4c0-0.1-0.1-0.2-0.1-0.3h0.3
			c0-14.5,13.9-11.7,13.9-11.7h27.8l9.7-0.1 M4113.1,1293.2c0,0,29.7,33.4,36.4,38.9c18.8,15.9,6.3,28.4,11.8,33.9
			c4.8,4.7,70,29.9,81.5,36.3c0.8,0.7,1.6,1.3,2.5,1.8c127.9-5.3,287.3-28.5,350.5-36c63.6-7.6,123.2-39.9,99.4-62.1
			c-5.3-2.1-12.2-4.2-16.6-16.7s13.7-164.4,13.7-164.4c1-20.5,5.9-106.5,2.7-134.1c-1-9.4-11.7-28.2-11.7-28.2s-24-28.5-39.7-43.9
			c-6-5.9-59.3-53-101.7-87.6c-30.2-23.1-153.2-154.5-195.8-177.3c-95.4-24.4-303-59.3-412.2-75.6c-46.6-6.9-179.2-22.5-290.7-31.3
			c-106.3-8.4-441.6-77.9-460.2-79.9c-3.2-3-6.7-5.6-10.5-7.8c-1.5-11.3-4.6-21.4,2.7-18.5c55-47-97.3-26.1-119.7-37.2l24.1,18
			c14.4,1.4,33,4.9,44.9,13.6l23.3-1.7c-7.3,2.1-9.6,7.3-9.6,7.3c-8.2-1.4-13.9,5.1-15.9,7.8c-2.2-0.9-4.4-1.9-6.3-2.7l-0.4,0.4v0.2
			l0,0l-0.2-0.1l-8.7-4.8l0,0c-0.1,0-0.1,0-0.2-0.1l-2.3,1.2l-0.3,0.2c0,0-1.7,0.9-2.6,1.3c-3.4,1.6-7.3,3.3-11.5,4.9
			c-1,0.4-1.9,0.7-2.9,1.1c-0.6,0.2-1.2,0.4-1.8,0.7l-1.8,0.6c-1.2,0.4-2.5,0.9-3.8,1.3s-2.6,0.8-4,1.2s-2.7,0.8-4.1,1.2l-4.2,1.2
			c-0.7,0.2-1.4,0.4-2.2,0.6l-4.4,1.2c-4.8,1.2-9.9,2.4-15.1,3.5c-2.9,0.6-5.9,1.2-8.9,1.8s-6.1,1.1-9.2,1.7
			c-4.7,0.8-9.4,1.5-14.2,2.2l-4.8,0.6c-2.2,0.3-4.3,0.5-6.5,0.8s-4.4,0.5-6.6,0.7c-2.9,0.3-5.8,0.5-8.8,0.7l-4.8,0.3h-0.7
			c-9.3,0.6-18.7,0.8-28,0.7c-1.8,0-3.6,0-5.3-0.1c-1.4,0-2.7-0.1-4.1-0.1l-6.7-0.3c-2.2-0.1-4.4-0.3-6.6-0.5
			c-0.8-0.1-1.7-0.2-2.5-0.2c-1.3-0.1-2.6-0.2-3.9-0.4c-1.9-0.2-3.7-0.4-5.6-0.7c-1.1-0.2-2.2-0.5-3.4-0.8c-0.4-0.1-0.8-0.2-1.2-0.4
			c-0.1,0-0.2,0-0.3-0.1c-0.4-0.1-0.8-0.2-1.2-0.4c-0.2-0.1-0.5-0.2-0.7-0.2c-0.4-0.1-0.8-0.3-1.1-0.4h-0.1
			c-0.5-0.2-1.1-0.4-1.6-0.6s-1.1-0.4-1.6-0.6c-0.6-0.2-1.1-0.4-1.6-0.7c-0.3-0.1-0.7-0.3-1-0.4c-2.4-1-4.7-2.2-7-3.5
			c-0.5-0.3-1.1-0.6-1.6-0.9s-1.1-0.6-1.6-0.9s-1-0.6-1.6-0.9c-1.5-0.9-3.1-1.9-4.6-2.9c-0.5-0.3-1-0.7-1.5-1s-1-0.7-1.5-1l-3-2.1
			c-6.4-4.5-12.6-9.5-18.4-14.5c-0.5-0.5-1.1-1-1.7-1.4c-2.3-2-4.5-4-6.6-6c-0.4-0.3-0.8-0.7-1.1-1.1c-6.4-6-11.9-11.6-16.2-16.1
			c-0.3-0.3-0.6-0.6-0.8-0.9c-1.3-1.3-2.4-2.6-3.4-3.7c-0.1-0.2-0.3-0.3-0.4-0.5c-2.3-2.6-3.9-4.3-4.5-5.1l-0.1-0.1
			c-0.1-0.1-0.1-0.1-0.1-0.2s0-0.1-0.1-0.1l0,0l0,0l-266.8-277.2c-2.7-2.8-5.3-5.8-7.7-8.7c-0.6-0.7-1.2-1.5-1.7-2.2
			c-0.3-0.4-0.6-0.8-0.8-1.1c-0.4-0.5-0.7-1-1-1.5c-0.2-0.2-0.3-0.5-0.5-0.7c-0.3-0.5-0.6-1-0.9-1.5c-0.3-0.4-0.5-0.8-0.8-1.2
			c-0.1-0.1-0.2-0.2-0.2-0.4c-0.5-0.8-0.9-1.5-1.3-2.3l-0.6-1.2l-0.6-1.2c-0.1-0.3-0.3-0.6-0.4-0.9c-0.3-0.5-0.5-1.1-0.7-1.7l0,0
			c-0.4-0.9-0.7-1.9-1-2.8l0,0c-2.8-9.1-1.5-18.2,6.6-27l0.6-0.6l0,0l0.6-0.6c0.4-0.5,0.9-0.9,1.4-1.3c0.3-0.2,0.5-0.4,0.7-0.7l0,0
			c0.6-0.6,1.3-1.1,2-1.7c1.1-0.8,2.2-1.7,3.3-2.5c0.8-0.6,1.6-1.1,2.5-1.7l0,0c0.8-0.5,1.7-1.1,2.6-1.6c1.5-0.9,3-1.7,4.7-2.6
			c1-0.5,2-1,3.1-1.5c0.7-0.3,1.4-0.7,2.1-1c0.4-0.2,0.7-0.3,1.1-0.5c0.8-0.4,1.6-0.7,2.4-1.1s1.7-0.7,2.5-1.1
			c0-0.2-1.8-5.7-8.4-10.5c-8.7-6.3-15.4-4.9-15.4-4.9c-14.9-8.4-181.6-34.6-404.6-31.3c-192.2,2.8-426.5,20.1-642.4,69.1
			c-21.3,4.8-20.5,36.2-39.3,44.3S1330,162.3,1330,162.3c-143.4,47.4-336.6,119.4-475.3,179.2c-41,17.7-73.2,38.2-126.8,46.4
			c-73.2,6.5-146.1,16-218.6,24c-8.1,0.5-17.5-5-17.5-5c-42.2-34.4-108.2-69.6-192-69.4c-65.7,5.4-84.9,27-59,76.2
			c20.1,32.6,52.7,104.6,52.7,104.6c35.9,60.8-14.7,88.7-71.7,119.7c-20,10.9-66.5,30.2-68.9,51.4c-1.9,1.3-4.7,3.5-7.9,6.5
			 M3297.1,1304.9h0.1c0,0,37.6-5.4,133-10.2h7.6 M1397.5,1250.4l9.8-0.9l90.9,9 M1515.5,460h-0.8c-0.1,0-12.1,0.2-31.9,0.2
			c-49.6,0-145.8-1.4-232.9-10.5c-47.9-5-86.4-12.1-114.8-19.9c-33.6-9.2-51.9-20.3-46.6-35.8c3.8-8.2,14.7-22.1,44.4-41.7
			c20.9-13.7,48.1-28.2,80.7-42.8c56.3-25.4,109.7-42.8,110.2-42.9l0.3-0.1l0.3-0.1c0.6-0.2,60.1-21.6,141.7-46.3
			c48.6-14.7,111.7-32.5,176-47.2l99.3,290.2L1515.5,460z M2080.4,467.8l-274.1-3.8l-101.4-304.4c14.2-2.7,28.2-5.1,41.9-7.2
			c184.3-28.4,448.6-37.2,451.3-37.3c0.3,0,26.1-0.8,62.2-0.8c29.1,0,69.6,0.6,108.9,2.9l132.1,350.6L2080.4,467.8z M2680,346.9
			c-15.3,4-29.3,11.8-40.8,22.6c-2.5,2.4-5,4.8-7.3,7.4c-17.9,20-28,45.4-27.2,65.9c0,0-3.1,11.9,7,24.9v0.1h-84.6l-129-348.4
			c67.4,6.2,78.8,12,189.8,129.6C2625.2,288.4,2664.2,326.8,2680,346.9z M4616.7,1086.8h-114c-17.1,0-39.7-25.4-40.7-52.3
			c-1-27.3,4.4-31.3,22.8-31.3c34.9,0,129.6,0.7,158.7,0.7c29.9,0,33-3.7,36.1,5.7s1.6,59.5-7.3,68.9S4616.7,1086.8,4616.7,1086.8
			L4616.7,1086.8z"/>
		<path class="st0" d="M3183,466.9c-14.5-1.6-35.2-8.4-51.9-14.9c-3.1-1.2-6-2.4-8.7-3.5s-1,1.3-1,1.3
			c-21.6,21.7-134.9,43-208.1,33.3c-22.9-4.8-49.5-27.5-67.9-45.7l-0.1-0.1c-13.4-13.3-22.5-24.3-22.5-24.3L2548,127
			c-22.7-23.8-48.7-77.1,8.1-91.1 M625.6,1266.2c-2.1-5.7-19.7-1.4-30.7-15.9c-7.5-9.9-3.5-86.1-3.5-86.1
			c4.3-145.8,51.9-258.3,127.1-335.7c80.7-83.1,193.4-125.8,318.6-125.8c179,0,361.6,112.1,441.4,342.8
			c10.4,44.4,15,79.7,17.2,111.6h-0.2c2.4,35.5,1.8,66.7,2.8,101.5c0.7,22.6,1.9,46.6,5.1,74.2c7.9,8,68.1,1.4,120-9.9
			c391.8-40,133-13,738.8-12c614.6,14.3,782,15.5,830,25.8s73.5,9,86.8,2.8s18.9-12.9,19.7-66.9c0.4-25.2,2-50.1,4.7-74.3
			c-4,1.7-4,1.6,0.1-0.1c39.5-352.5,321.6-592.8,708-412.7c270.4,131,275.5,395.8,229.2,586.4c-6.4,3.2-6.8,23,2.8,30.8
			c0.6,0.5,1.2,0.9,1.9,1.3 M1765.8,485.6l-250.6-3.5c0,0-12.1,0.2-32.3,0.2c-98.5,0-390.1-5.4-415.8-68.7
			c-31.1-76.8,250-167.9,250-167.9s238.7-86.1,426.5-115s453.9-37.6,453.9-37.6s26-0.8,62.9-0.8c75.8,0,203.6-4.8,236,25.1
			c50.7,46.7,59,48.8,225.6,223.7l9.9,10.2c0.1,0,0.2,0.1,0.3,0.1 M1496,1157.1c0.2,0,0.6,0,0.9,0
			C1496.6,1157.1,1496.3,1157.1,1496,1157.1z M1501.7,1157c0.5,0,1.1,0,1.7,0C1502.8,1156.9,1502.2,1156.9,1501.7,1157z"/>
		<line class="st0" x1="1806.3" y1="464" x2="1741.4" y2="463.1"/>
		<line class="st0" x1="1704.9" y1="159.6" x2="1642.1" y2="172.9"/>
		<line class="st0" x1="2398.1" y1="119.4" x2="2369.2" y2="117.2"/>
		<line class="st0" x1="2527.1" y1="467.8" x2="2501.3" y2="467.8"/>
		<path id="Door_2_" class="st0" d="M3124.7,565.3c-39.8-50.5-186-52.8-186-52.8s-29.9,0.8-51-7.8s-25.8-14.9-25.8-14.9h-19.5
			c-0.6,6.5-1.6,12.9-2.2,21.1c-1.6,19.6-38.4,33.3-72,31.3s-50.1-7.8-57.1-21.9s30.5-30.5,30.5-30.5h-76.9
			c-15.5-1.5-29.7-4.3-38.1-9.4c-5.6-3.3-10.7-7.6-14.8-12.6c-10.2-13-7.1-25-7.1-25c-0.8-20.5,9.3-45.9,27.2-65.9
			c-18.1,19.9-28.2,45.5-27.4,66c0,0-3.1,11.9,7,24.9l0.1,0.1c4.1,5.1,9.1,9.3,14.8,12.6c8.4,5.1,22.6,7.9,38.1,9.4h-584.3
			l-314.4-4.3"/>
		<line id="Rear_Bumper_Line_1_" class="st0" x1="727.5" y1="819.5" x2="325.8" y2="802.9"/>
		<path id="Skirt-2_1_" class="st0" d="M3304.6,1197.7c0,0-16.7,8.1-35.5,8.1s-54.3-8.3-79.3-11.5s-49.8-5.7-114.8-8.3
			s-394.7-9.7-394.7-9.7l-371.5-7.8l-291.4-8.3c0,0-160.2-9.1-280.7-7.6s-241.8,4.6-241.8,4.6"/>
		<path id="Door_Front_1_" class="st0" d="M2842.4,489.8h19.5c0,0,4.7,6.3,25.8,14.9s51,7.8,51,7.8s146.2,2.3,186,52.8
			c77,98,11.9,488.6,3.4,623.4"/>
		<path id="Door-2_1_" class="st0" d="M1765.9,485.4c0,0-14.6,29.4-14.6,67.2c0,42.8,29.2,130.4,29.2,130.4s47.5,146.6,71,200.3
			s67.3,180.5,115.3,209.2s163.3,24.5,285.9,27.1s565,12.5,565,12.5l315.7,9.6"/>
		<path id="Front_Bumper_Line_3_" class="st0" d="M4182.1,924.3"/>
		<path id="Bumper_LIght_1_" class="st0" d="M4462,1034.5c-1-27.3,4.4-31.3,22.8-31.3"/>
		<path id="_2_1_" class="st0" d="M2842.4,489.8c-0.6,6.5-1.6,12.9-2.2,21.1c-1.6,19.6-38.4,33.3-72,31.3s-50.1-7.8-57.1-21.9
			s30.5-30.5,30.5-30.5h-76.9c-15.5-1.5-29.7-4.3-38.1-9.4c-5.6-3.3-10.7-7.6-14.8-12.6c-10.2-13-7.1-25-7.1-25
			c-1.4-34.8,28.8-84.2,75.8-96c5.9-1.5,12-2.4,18.1-2.6c10.6-0.4,22,2.4,33.6,7.2c50.5,21.3,103.9,83.3,108.1,104.7
			c1.1,5.4,1.9,10.9,2.3,16.4C2843,478.3,2842.9,484.1,2842.4,489.8z"/>
		<path id="_1_1_" class="st0" d="M2741.6,489.8c0,0,24.7,10.6,50.1,8.6s50.8-8.6,50.8-8.6"/>
		<path id="Wing_Crease_1_" class="st0" d="M762.4,380.3c-22.5,11.2-31.1,51.9-31.1,51.9"/>
		<path id="Wing_Lower_1_" class="st0" d="M205,646.7c102.7-62.2,983.9-387.8,983.9-387.8s224.6-78.3,418.7-116.6s325-48.4,473-55.8
			c361.9-18,385.1-2.2,450.6,62.4"/>
		<path id="Handle_3_1_" class="st0" d="M1985.8,641.5L1985.8,641.5c-0.6,0.9-1.3,1.8-2.1,2.7l0,0c-11.1,13.1-32.3,25-65.6,24.7
			c-24.4-0.2-42.3-7.4-52.3-21.2c0.2-7-6.2-20.5,62.3-21C1986.2,626.3,1988.3,636.5,1985.8,641.5z"/>
		<path id="Handle_2_1_" class="st0" d="M1986.7,600c-6,2.1,1.9,10.8-64.5,4.8c-57.9-5.2-53.2-11.2-53.7-15.5
			c9.5-9.7,24.7-16.3,46.2-16.4C1952,572.7,1976.3,583.7,1986.7,600z"/>
		<path id="Handle_1_1_" class="st0" d="M2051.3,622.1c0,10.2-32.6,17.5-67.6,22.1l0,0c0.8-0.8,1.5-1.7,2.1-2.7l0,0
			c2.5-5,0.4-15.2-57.7-14.8c-68.6,0.5-62.2,13.9-62.3,21c0,0.6-0.1,1.1-0.2,1.7c-0.8,2.4-7.7,2.2-12.8,2.3
			c-40.3,0.8-66.4-1.9-66.4-31.4c0-21.6,17.5-31.8,42-34.3c13.5-1.4,37.1-0.4,39.2,1.3c0.7,0.5,1.1,1.3,1.1,2.1
			c0.4,4.3-4.3,10.2,53.7,15.5c66.4,6,58.5-2.7,64.5-4.8c1.6-0.6,4.1-0.6,9.3,0.1C2029.5,605.1,2051.3,612.2,2051.3,622.1z"/>
		<path id="Wing_2_1_" class="st0" d="M264.1,343.3c-7.8,11.1,2.5,23.3,2.5,23.3c17,16.7,34.9,32.4,53.7,47
			c30.7,23.8,90.9,62.3,142.6,58.6c0,0,66.5,2.2,272.5-54.1"/>
		<path id="Wing_1_1_" class="st0" d="M509.4,411.9c-128.6,15.2-122.8,42.6-122.8,42.6"/>
		<path id="Front_Well_2_4_" class="st0" d="M3297.2,1305"/>
		<path id="Front_Well_2_3_" class="st0" d="M4245.4,1403.9"/>
		<path id="Rear_Well_2_4_" class="st0" d="M1498.8,1258.7"/>
		<path id="Rear_Well_2_3_" class="st0" d="M625.6,1266.1"/>
		<path id="Rear_Windshield_1_" class="st0" d="M1448.4,125.6c0,0-24.9,12.9-204.5,79S884.7,348.1,843.2,363.8s-51.1,6.1-51.1,6.1"
			/>
		<path id="Squirter_1_" class="st0" d="M3370.9,496.3c0,0-3.6-10.1-19.8-12.2s-20.9,6.1-20.9,6.1"/>
		<path id="Headlight_1_" class="st0" d="M4483.1,774.3c0,0-2.8-20.5-43.3-59.6c-66.1-64-83.1-54-83.1-54"/>
		<path id="Windshield_1_" class="st0" d="M3108.9,440.3l-2.1,1.2c-0.1,0-0.1-0.1-0.2-0.1c-0.7,0.4-1.5,0.8-2.3,1.2
			c-0.1,0.1-0.2,0.1-0.3,0.2c-0.9,0.4-1.7,0.9-2.6,1.3c-3.4,1.6-7.3,3.3-11.5,4.9c-1,0.4-1.9,0.7-2.9,1.1c-0.6,0.2-1.2,0.4-1.8,0.7
			l-1.8,0.6c-1.2,0.4-2.5,0.9-3.8,1.3s-2.6,0.8-4,1.2s-2.7,0.8-4.1,1.2l-4.2,1.2c-0.7,0.2-1.4,0.4-2.2,0.6l-4.4,1.2
			c-4.8,1.2-9.9,2.4-15.1,3.5c-2.9,0.6-5.9,1.2-8.9,1.8s-6.1,1.1-9.2,1.7c-4.7,0.8-9.4,1.5-14.2,2.2l-4.8,0.6
			c-2.2,0.3-4.3,0.5-6.5,0.8s-4.4,0.5-6.6,0.7c-2.9,0.3-5.8,0.5-8.8,0.7l-4.8,0.3h-0.7c-9.3,0.6-18.7,0.8-28,0.7
			c-1.8,0-3.6,0-5.3-0.1c-1.4,0-2.7-0.1-4.1-0.1l-6.7-0.3c-2.2-0.1-4.4-0.3-6.6-0.5c-0.8-0.1-1.7-0.2-2.5-0.2
			c-1.3-0.1-2.6-0.2-3.9-0.4c-1.9-0.2-3.7-0.4-5.6-0.7c-1.1-0.2-2.2-0.5-3.4-0.8c-0.4-0.1-0.8-0.2-1.2-0.4c-0.1,0-0.2,0-0.3-0.1
			c-0.4-0.1-0.8-0.2-1.2-0.4c-0.2-0.1-0.5-0.2-0.7-0.2c-0.4-0.1-0.8-0.3-1.1-0.4h-0.1c-0.5-0.2-1.1-0.4-1.6-0.6s-1.1-0.4-1.6-0.6
			c-0.6-0.2-1.1-0.4-1.6-0.7c-0.3-0.1-0.7-0.3-1-0.4c-2.4-1-4.7-2.2-7-3.5c-0.5-0.3-1.1-0.6-1.6-0.9s-1.1-0.6-1.6-0.9
			s-1-0.6-1.6-0.9c-1.5-0.9-3.1-1.9-4.6-2.9c-0.5-0.3-1-0.7-1.5-1s-1-0.7-1.5-1l-3-2.1c-6.4-4.5-12.6-9.5-18.4-14.5
			c-0.5-0.5-1.1-1-1.7-1.4c-2.3-2-4.5-4-6.6-6c-0.4-0.3-0.8-0.7-1.1-1.1c-6.4-6-11.9-11.6-16.2-16.1c-0.3-0.3-0.6-0.6-0.8-0.9
			c-1.3-1.3-2.4-2.6-3.4-3.7c-0.1-0.2-0.3-0.3-0.4-0.5c-2.3-2.6-3.9-4.3-4.5-5.1l-0.1-0.1c-0.1-0.1-0.1-0.1-0.1-0.2s0-0.1-0.1-0.1
			l0,0l0,0L2562,124.1c-2.7-2.8-5.3-5.8-7.7-8.7c-0.6-0.7-1.2-1.5-1.7-2.2c-0.3-0.4-0.6-0.8-0.8-1.1c-0.4-0.5-0.7-1-1-1.5
			c-0.2-0.2-0.3-0.5-0.5-0.7c-0.3-0.5-0.6-1-0.9-1.5c-0.3-0.4-0.5-0.8-0.8-1.2c-0.1-0.1-0.2-0.2-0.2-0.4c-0.5-0.8-0.9-1.5-1.3-2.3
			l-0.6-1.2l-0.6-1.2c-0.1-0.3-0.3-0.6-0.4-0.9c-0.3-0.5-0.5-1.1-0.7-1.7l0,0c-0.4-0.9-0.7-1.9-1-2.8l0,0c-2.8-9.1-1.5-18.2,6.6-27
			l0.6-0.6l0,0l0.6-0.6c0.4-0.5,0.9-0.9,1.4-1.3c0.3-0.2,0.5-0.4,0.7-0.7l0,0c0.6-0.6,1.3-1.1,2-1.7c1.1-0.8,2.2-1.7,3.3-2.5
			c0.8-0.6,1.6-1.1,2.5-1.7l0,0c0.8-0.5,1.7-1.1,2.6-1.6c1.5-0.9,3-1.7,4.7-2.6c1-0.5,2-1,3.1-1.5c0.7-0.3,1.4-0.7,2.1-1
			c0.4-0.2,0.7-0.3,1.1-0.5c0.8-0.4,1.6-0.7,2.4-1.1s2.4-1.1,2.5-1.1l276.2,199.6L3108.9,440.3z"/>
		<circle id="Tire_2_" class="st0" cx="1039.3" cy="1140.1" r="374.7"/>
		<path class="st0" d="M1346.5,1168.3c-15.7,171.3-167.4,297.5-338.8,281.7c-171.3-15.7-297.5-167.4-281.7-338.8
			c15.7-171.3,167.4-297.5,338.8-281.7C1236.1,845.3,1362.3,997,1346.5,1168.3z"/>
		<circle id="Inner_1_1_" class="st0" cx="1036.2" cy="1139.8" r="292.4"/>
		<path id="Inner_2_1_" class="st0" d="M1061.5,864.4c152,14,264.1,148.8,250.1,300.8s-148.8,264.1-300.8,250.1
			s-264.1-148.8-250.1-300.8C774.8,962.5,909.6,850.4,1061.5,864.4"/>
		<circle id="Inner_3_1_" class="st0" cx="1036.2" cy="1139.8" r="258.4"/>
		<path id="Spokes_1_" class="st0" d="M1189.8,1327.8c-0.4,1.2-1.1,2.1-2.1,2.8c-0.1,0.1-2.4,2.1-6.9,5.5c-6.5,4.7-13.1,9.1-20,13.2
			c-17.4,10.3-29.3,14.5-29.4,14.5h-0.2c-0.9,0.3-2,0.5-3,0.5l-1-0.1c-1.2-0.9-2.1-2.1-2.8-3.5l-69.1-149.4
			c13.1-3.4,25-10.4,34.4-20l98.5,132l0.1,0.1C1188.5,1323.3,1190.1,1325.4,1189.8,1327.8z M1278.6,1118.7c0-0.2-0.7-13-5-32.7
			s-9.6-31-9.7-31.1l-0.1-0.1l-0.1-0.1c-0.4-1-1.1-2-2.1-2.8c-0.4-0.1-0.7-0.3-1.1-0.5c0-0.1,0-0.1-0.1-0.1
			c-1.2-0.1-2.5,0.1-3.7,0.5h-0.1l-155.4,52.9c6.5,11.8,9.6,25.3,9,38.9l163.1-19.1h0.3c1.5-0.1,2.9-0.8,3.9-2l0.1-0.1l0.1-0.1
			C1278.3,1121.2,1278.7,1119.9,1278.6,1118.7L1278.6,1118.7z M1093.9,904.3c-0.8-0.8-1.9-1.3-3-1.6h-0.2c-0.1-0.1-12-3.4-32.3-5.3
			c-20.2-1.9-32.5-0.7-32.7-0.7h-0.2c-1.2,0-2.3,0.4-3.3,1v0.1c-0.8,1.1-1.3,2.4-1.4,3.8l-0.1,0.7l2.2,164.5
			c6.5-1.2,13.2-1.5,19.8-1c6.7,0.5,13.2,2,19.4,4.4l32.1-161V909C1094.6,909.1,1095.1,906.5,1093.9,904.3L1093.9,904.3z
			 M834.9,1012.7l-0.5-0.2c-0.8-0.5-1.5-0.7-2.4-0.8l-0.3,0.4l-1.2,0.1c-0.5,0.1-1.5,1.2-2.1,2.1l-0.1,0.2l-0.1,0.2
			c0,0.1-7.2,10.4-15.2,28.8c-7.9,18.7-10.9,31.1-10.9,31.2c-0.2,1.1-0.2,2.3,0.1,3.4c1.1,1.3,2.4,2.3,3.9,3l156.7,48.6
			c1.8-13.4,7.2-26.1,15.8-36.6L834.9,1012.7z M974.2,1180.2L853.4,1292l-0.1,0.1l-0.1,0.1c-1.1,1-1.9,2.4-2.2,3.9
			c0.1,0.5,0.2,1,0.5,1.5c0.2,0.6,0.6,1.2,1,1.6c0.1,0.1,7.9,10.1,23.2,23.4c15.2,13.4,26.2,19.5,26.3,19.6h0.2
			c0.9,0.5,1.8,0.8,2.8,1l1,0.1c1.4-0.7,2.5-1.7,3.4-2.9l95.1-134.2C992.1,1200.6,981.5,1191.5,974.2,1180.2z"/>
		<path id="Lugs_1_" class="st0" d="M1109.5,1153c-5.5-0.5-10.9,1.6-14.6,5.7c-6.6,7-5.8,18.2,1.8,24.9c2.8,2.6,6.3,4.2,10.1,4.4
			c5.5,0.5,10.9-1.6,14.6-5.7c6.6-7,5.8-18.2-1.8-24.9C1117.2,1154.8,1113.7,1153.4,1109.5,1153z M1089.6,1063.7
			c-3.8-0.2-7.5,0.6-10.8,2.5c-8.1,5.1-10.9,15.7-6.3,24.1c2.9,4.7,7.8,7.7,13.3,8.3c3.8,0.2,7.5-0.6,10.8-2.5
			c8.1-5.1,10.9-15.7,6.3-24.1C1100,1067.3,1095.1,1064.2,1089.6,1063.7z M997.7,1055.2c-1.8-0.3-3.6-0.2-5.3,0.1
			c-9.6,2-15.1,11.6-13,21.1c1.6,7.6,8,13.2,15.8,13.8c1.8,0.3,3.6,0.2,5.3-0.1c9.6-2,15.1-11.6,13-21.1
			C1011.9,1061.5,1005.5,1055.8,997.7,1055.2z M1030.6,1200.4c-7.6-0.7-14.4,3.3-18.1,10.7c-3.7,9.1,0.5,19.4,8.9,23.1
			c1.6,0.7,3.4,1,5.2,1.1c7.6,0.7,14.4-3.3,18.1-10.7c3.7-9.1-0.5-19.4-8.9-23.1C1034.2,1200.8,1032.4,1200.4,1030.6,1200.4z
			 M961.7,1139.4c-9.7-0.9-18.1,6.2-19,15.8c-0.9,9.7,6.2,18.1,15.8,19s18.1-6.2,19-15.8l0,0
			C978.4,1148.9,971.3,1140.4,961.7,1139.4z"/>
		<path id="Holes_1_" class="st0" d="M1257.4,1156c-2.2,24.3-8.1,48.1-17.5,70.6c-9.8,23.1-23.3,43-39,61c-3.7,4.1-9.1,6.2-14.6,5.7
			c-1.8-0.1-3.6-0.4-5.2-1.1c-1.5-0.6-3.1-1.6-4.4-2.7c-1.1-0.7-1.6-2-2.6-3.2l-1.6-2.5l-38.5-67c-7.2-10.7-8.3-24.8-3-37.2
			c5.1-12.3,16-21.2,29.1-23.8l75-17.8l2.3-0.4c1.3-0.4,2.8-0.4,4.1-0.2c2.3,0.2,4,1,5.3,0.5C1253.3,1141,1258.1,1148.4,1257.4,1156
			z M1229.6,1029c-12.2-21-27.8-39.8-46-55.8c-19-16.4-39.5-29.5-61.6-38.5c-2.1-0.6-4.2-1-6.3-1.2c-5.5-0.5-10.9,1.6-14.6,5.7
			c-1.2,1.2-2.2,2.7-2.7,4.4c-0.6,1.2-0.9,2.6-1,4l-0.3,2.9l-5.9,77c-0.6,6.5,0.3,13,2.6,19c5.4,14.7,18.8,24.8,34.4,26.1
			c4.6,0.5,9.2,0.1,13.7-1.1l75.5-16l2.3-0.4c1.3-0.5,2.6-1.2,3.7-2c1.8-0.9,3.2-2.1,4.5-3.7
			C1232.7,1043.6,1233.4,1035.4,1229.6,1029z M1012.2,935.6c-0.2-1.7-0.9-3.4-1.9-4.8c-3.7-4.5-8.7-7.8-14.5-8.4
			c-1.8-0.3-3.6-0.2-5.3,0.1c-24,4.9-46.8,13.9-67.6,26.6c-21,12.2-39.7,28-55.4,46.5c-4.9,5.7-5.7,13.8-1.9,20.3
			c1.1,1.3,2,3.1,3.7,4.5c1.1,0.7,2.1,2,3.3,2.6l2.2,0.8l71.3,29.5c2,1.1,4.1,1.9,6.3,2.5c2.3,0.6,4.5,0.9,6.8,1.1
			c8.6,0.8,17.1-1,24.5-5.4c11.4-7,18.8-19,20-32.3l8.3-76.8l0.3-2.9C1012.5,938.6,1012.1,936.8,1012.2,935.6L1012.2,935.6z
			 M936.1,1162.2c-2.8-12.9-12-23.7-24.3-28.5l-70.5-31.2l-2.2-0.8c-1.2-0.8-2.6-1.3-4-1.6c-1.8-0.2-3.5,0.3-5.3,0.1
			c-7.6,1.7-13.1,8.1-13.8,15.8c-2.8,24.2-1.4,48.9,4.4,72.6c5.3,23.7,14.5,46.4,27.3,67.1c2.9,4.7,7.8,7.7,13.3,8.3
			c1.8,0.3,3.6,0.2,5.3-0.1c1.7-0.2,3.4-0.9,4.8-1.9c1.3-0.6,2.3-1.5,3.2-2.6l2-2.1l50.1-58.9c6-6.7,9.7-15.2,10.6-24.1
			C937.2,1170.3,937,1166.2,936.1,1162.2L936.1,1162.2z M1101.6,1334.8c-0.5-1.2-0.9-3-1.4-4.2l-1.6-2.5l-40.2-66
			c-3-5.6-7.5-10.4-12.8-13.9c-5.6-3.7-12.1-6-18.8-6.6c-13.9-1.3-26.3,4.6-34.8,14.4l-51.6,57.5l-2,2.1c-0.8,1.2-1.5,2.6-2.2,3.9
			c-0.7,1.6-1,3.4-1.1,5.2c-0.7,7.6,3.3,14.4,10.7,18.1c44.7,19.8,94.5,24.4,142,13.1c7.6-1.6,13.2-8,13.8-15.8
			C1102,1338.4,1102,1336.6,1101.6,1334.8L1101.6,1334.8z"/>
		<circle id="Cap_1_" class="st0" cx="1036.2" cy="1139.8" r="48.5"/>
		<path id="Bolts_1_" class="st0" d="M1137.6,924.8c-1.6,3-4.7,4.8-8.1,4.6c-0.6-0.1-1.7-0.8-2.2-0.8c-4-1.6-5.8-6.5-4.4-10.4
			c1.6-3,4.7-4.8,8.1-4.6c0.8,0.1,1.6,0.3,2.2,0.8C1137.2,915.9,1139.1,920.8,1137.6,924.8z M982.8,915.9c0.6,0.1,1.8,0.2,2.3-0.4
			c4.2-0.8,6.9-5.3,6.2-9.5c-1-3.2-3.7-5.6-7.1-6c-0.6-0.1-1.8-0.2-2.3,0.4c-4.2,0.8-6.9,5.3-6.2,9.5
			C976.5,913.3,979.4,915.8,982.8,915.9L982.8,915.9z M1198.2,955.7c-1.2-1.2-2.7-2-4.4-2.2c-2.4-0.1-4.8,0.8-6.6,2.3
			c-2.7,3.4-2.4,8.2,0.8,11.1c1.1,1.3,2.7,2.1,4.4,2.2c2.4,0.1,4.8-0.8,6.6-2.3C1201.7,963.5,1201.3,958.7,1198.2,955.7z
			 M915.4,927.9c-1.8-0.2-2.9,0.3-4.7,1.4c-3.7,2-4.8,7.2-2.8,10.8c1.3,2.1,3.6,3.3,6.1,3.5c1.8,0.2,2.9-0.3,4.7-1.4
			c3.7-2,4.8-7.2,2.8-10.8C920,929.5,917.8,928.2,915.4,927.9z M1241.3,1010.7c-1.8-0.2-2.9,0.3-4.7,1.4c-3.7,2-4.8,7.2-2.8,10.8
			c1.3,2.1,3.6,3.3,6.1,3.5c1.8,0.2,2.9-0.3,4.7-1.4c3.7-2,4.8-7.2,2.8-10.8C1245.9,1012.3,1243.7,1011.1,1241.3,1010.7z
			 M852.2,988.8c1.1,1.3,2.7,2.1,4.4,2.2c2.4,0.1,4.8-0.8,6.6-2.3c2.7-3.4,2.4-8.2-0.8-11.1c-1.1-1.3-2.7-2.2-4.4-2.2
			c-2.4-0.1-4.8,0.8-6.6,2.3C848.7,981.1,849,985.9,852.2,988.8z M1273.4,1154c-4.2-0.4-7.9,2.7-8.3,6.9c-0.4,4.2,2.7,7.9,6.9,8.3
			c4.2,0.4,7.9-2.7,8.3-6.9l0,0C1281.3,1158.2,1277.9,1154.4,1273.4,1154z M807.5,1118.8c0.3-4.1-2.8-7.8-6.9-8.3
			c-4.2-0.4-7.9,2.7-8.3,6.9c-0.4,4.2,2.7,7.9,6.9,8.3C803.4,1126,807.1,1123,807.5,1118.8L807.5,1118.8z M1257.2,1226.4
			c-0.4-0.6-1-0.7-2.2-0.8c-3.4-0.2-6.6,1.5-8.1,4.6c-1.6,4.1,0.3,8.7,4.4,10.4c0.6,0.1,1.7,0.8,2.2,0.8c3.4,0.2,6.6-1.5,8.1-4.6
			C1263.1,1232.8,1261.2,1227.9,1257.2,1226.4z M805.5,1184.3c-0.6-0.1-1.8-0.2-2.3,0.4c-4.2,0.8-6.9,5.3-6.2,9.5
			c0.7,3.4,3.7,5.9,7.1,6c0.6,0.1,1.8,0.2,2.3-0.4c4.2-0.8,6.9-5.3,6.2-9.5C811.1,1187.2,808.5,1184.5,805.5,1184.3L805.5,1184.3z
			 M1220.2,1290.6c-1.2-1.1-2.7-2-4.4-2.2c-2.4-0.1-4.8,0.8-6.6,2.3c-2.7,3.4-2.4,8.2,0.8,11.1c1.1,1.3,2.7,2.1,4.4,2.2
			c2.4,0.1,4.8-0.8,6.6-2.3C1223.7,1298.5,1223.3,1293.6,1220.2,1290.6z M832.6,1253.1c-1.8-0.2-2.9,0.3-4.7,1.4
			c-3.7,2-4.8,7.2-2.8,10.8c1.3,2.1,3.6,3.3,6.1,3.5c1.8,0.2,2.9-0.3,4.7-1.4c3.7-2,4.8-7.2,2.8-10.8
			C837.7,1254.8,835,1253.4,832.6,1253.1L832.6,1253.1z M1089.6,1363.7c-0.6-0.1-1.8-0.2-2.3,0.4c-4.2,0.8-6.9,5.3-6.2,9.5
			c0.7,3.4,3.7,5.9,7.1,6c0.6,0.1,1.8,0.2,2.3-0.4c4.2-0.8,6.9-5.3,6.2-9.5C1095.2,1366,1092.5,1363.9,1089.6,1363.7L1089.6,1363.7z
			 M945.9,1351c-0.7-0.5-1.4-0.7-2.2-0.8c-3.4-0.2-6.6,1.5-8.1,4.6c-1.6,4.1,0.3,8.7,4.4,10.4c0.6,0.1,1.7,0.8,2.2,0.8
			c3.4,0.2,6.6-1.5,8.1-4.6C951.7,1357.5,949.9,1352.6,945.9,1351L945.9,1351z M1015.2,1368.6c-4.2-0.4-7.9,2.7-8.3,6.9
			c-0.4,4.2,2.7,7.9,6.9,8.3s7.9-2.7,8.3-6.9l0,0C1022.4,1372.6,1019.4,1368.9,1015.2,1368.6z"/>
		<circle id="Tire-2_1_" class="st0" cx="3775.1" cy="1142.5" r="370"/>
		<circle class="st0" cx="3775.1" cy="1142.5" r="311.6"/>
		<circle id="Inner_1-2_1_" class="st0" cx="3775.1" cy="1142.5" r="292.4"/>
		<path id="Inner_2-2_1_" class="st0" d="M3775.1,865.9c152.6,0,276.6,124,276.6,276.6s-124,276.6-276.6,276.6
			s-276.6-124-276.6-276.6S3622.5,865.9,3775.1,865.9"/>
		<circle id="Inner_3-2_1_" class="st0" cx="3775.1" cy="1142.5" r="258.4"/>
		<path id="Spokes-2_1_" class="st0" d="M3945.3,1315.6c-0.3,1.2-0.9,2.2-1.8,3c-0.1,0.1-2.2,2.3-6.4,6.1c-6,5.3-12.2,10.3-18.7,15
			c-16.4,11.9-27.9,17.1-28,17.1h-0.2c-0.9,0.4-1.9,0.7-2.9,0.8h-1c-1.3-0.8-2.3-1.9-3.1-3.2l-82.5-142.4
			c12.7-4.6,23.9-12.6,32.4-23.1l110.2,122.4l0.1,0.1C3943.6,1311.3,3945.3,1313.2,3945.3,1315.6z M4014.5,1099.3
			c0-0.2-1.9-12.9-8-32.1s-12.4-30-12.5-30.1l-0.1-0.1l-0.1-0.1c-0.5-1-1.3-1.9-2.3-2.6c-0.4-0.1-0.7-0.2-1.1-0.4
			c0-0.1,0-0.1-0.1-0.1l0,0c-1.2,0-2.5,0.3-3.6,0.8h-0.1l-149.9,66.9c7.6,11.2,11.9,24.3,12.5,37.9l160.7-34h0.3
			c1.5-0.2,2.8-1.1,3.7-2.3l0.1-0.1l0.1-0.1C4014.5,1101.8,4014.7,1100.5,4014.5,1099.3z M3811,902.7c-0.9-0.7-2-1.1-3.1-1.3h-0.2
			c-0.1-0.1-12.3-2.3-32.6-2.3s-32.4,2.3-32.6,2.3h-0.2c-1.2,0.1-2.3,0.6-3.2,1.3v0.1c-0.7,1.2-1.1,2.5-1,3.9v0.7l17.3,163.6
			c6.4-1.8,13-2.7,19.6-2.8c6.7-0.1,13.3,0.8,19.7,2.6l17.2-163.3v-0.2C3812.1,907.4,3812.4,904.8,3811,902.7z M3563,1034.4
			l-0.5-0.2c-0.8-0.4-1.6-0.6-2.5-0.6l-0.3,0.4l-1.2,0.2c-0.5,0.1-1.4,1.3-1.9,2.3l-0.1,0.2l-0.1,0.2c0,0.1-6.2,11-12.5,30.1
			c-6.2,19.3-8,32-8,32.1c-0.1,1.1,0,2.3,0.4,3.4c1.2,1.2,2.6,2.1,4.2,2.6l160.5,34c0.6-13.5,4.8-26.7,12.4-37.9L3563,1034.4z
			 M3717,1188.4l-110,122.4l-0.1,0.1l-0.1,0.1c-1,1.1-1.7,2.6-1.8,4.1c0.1,0.5,0.3,1,0.6,1.5c0.3,0.6,0.7,1.1,1.1,1.5
			c0.1,0.1,8.8,9.3,25.2,21.2s27.9,17,28,17.1h0.2c0.9,0.4,1.9,0.6,2.9,0.7h1c1.3-0.8,2.3-1.9,3.1-3.2l82.4-142.3
			C3736.7,1207.1,3725.4,1199.1,3717,1188.4L3717,1188.4z"/>
		<path id="Lugs-2_1_" class="st0" d="M3849.3,1148.9c-5.5,0-10.7,2.6-14,7c-5.9,7.6-4.1,18.7,4.1,24.6c3,2.3,6.7,3.6,10.5,3.5
			c5.5,0,10.7-2.6,14-7c5.9-7.6,4.1-18.7-4.1-24.6C3857.1,1150,3853.5,1148.9,3849.3,1148.9z M3821.3,1061.8
			c-3.8,0.1-7.4,1.3-10.5,3.5c-7.6,5.8-9.4,16.6-4.1,24.6c3.3,4.4,8.5,7,14,7c3.8-0.1,7.4-1.3,10.5-3.5c7.6-5.8,9.4-16.6,4.1-24.6
			C3832,1064.4,3826.8,1061.8,3821.3,1061.8z M3729,1061.8c-1.8-0.1-3.6,0.1-5.3,0.6c-9.4,2.9-14,12.9-11,22.2
			c2.3,7.4,9.2,12.4,17,12.3c1.8,0.1,3.6-0.1,5.3-0.6c9.4-2.9,14-12.9,11-22.2C3743.7,1066.7,3736.8,1061.7,3729,1061.8z
			 M3775.1,1203.3c-7.6,0-14,4.6-17,12.3c-2.9,9.4,2.3,19.3,11,22.2c1.7,0.5,3.5,0.7,5.3,0.6c7.6,0,14-4.6,17-12.3
			c2.9-9.4-2.3-19.3-11-22.2C3778.7,1203.4,3776.9,1203.2,3775.1,1203.3z M3700.9,1148.9c-9.7,0-17.5,7.8-17.5,17.5
			s7.8,17.5,17.5,17.5s17.5-7.8,17.5-17.5l0,0C3718.4,1156.8,3710.5,1149,3700.9,1148.9z"/>
		<path id="Holes-2_1_" class="st0" d="M3996.8,1138.4c0,24.4-3.7,48.6-11,71.9c-7.6,23.9-19.3,45-33.3,64.3c-3.3,4.4-8.5,7-14,7
			c-1.8,0.1-3.6-0.1-5.3-0.6c-1.6-0.5-3.2-1.3-4.6-2.3c-1.2-0.6-1.8-1.8-2.9-2.9l-1.8-2.3l-44.5-63.2c-8.2-10-10.5-23.9-6.4-36.8
			c4-12.7,14-22.6,26.8-26.4l73.1-24.6l2.3-0.6c1.3-0.5,2.7-0.7,4.1-0.6c2.3,0,4.1,0.6,5.3,0
			C3991.4,1123.8,3996.8,1130.7,3996.8,1138.4z M3957.5,1014.4c-14.1-19.8-31.3-37.1-50.9-51.4c-20.4-14.6-42-25.8-64.9-32.7
			c-2.1-0.4-4.3-0.6-6.4-0.6c-5.5,0-10.7,2.6-14,7c-1.1,1.3-1.9,2.9-2.3,4.6c-0.5,1.3-0.7,2.7-0.6,4.1v2.9l1.2,77.2
			c0,6.5,1.5,12.9,4.3,18.7c6.7,14.1,21,23,36.6,22.8c4.6,0.1,9.2-0.7,13.5-2.3l73.7-22.8l2.3-0.6c1.3-0.6,2.5-1.4,3.5-2.3
			c1.7-1.1,3-2.4,4.1-4.1C3961.9,1028.8,3961.9,1020.5,3957.5,1014.4L3957.5,1014.4z M3732.5,941.3c-0.4-1.7-1.2-3.3-2.3-4.6
			c-4.1-4.1-9.4-7-15.2-7c-1.8-0.1-3.6,0.1-5.3,0.6c-23.4,7.1-45.3,18.1-64.9,32.7c-19.8,14.1-37,31.5-50.9,51.4
			c-4.4,6.1-4.4,14.3,0,20.4c1.2,1.2,2.3,2.9,4.1,4.1c1.2,0.6,2.3,1.8,3.5,2.3l2.3,0.6l73.7,22.8c2.1,0.9,4.3,1.5,6.5,1.9
			c2.3,0.4,4.6,0.5,6.9,0.5c8.6,0,16.9-2.6,23.9-7.6c10.7-8,17-20.6,17-34l1.2-77.2v-2.9C3733.1,944.3,3732.5,942.5,3732.5,941.3
			L3732.5,941.3z M3677.5,1174c-4-12.6-14.1-22.5-26.8-26.2l-73.1-24.6l-2.3-0.6c-1.3-0.7-2.7-1.1-4.1-1.2c-1.8,0-3.5,0.6-5.3,0.6
			c-7.4,2.4-12.3,9.3-12.3,17c-0.6,24.4,3.1,48.8,11,71.9c7.4,23.1,18.7,44.9,33.3,64.3c3.3,4.4,8.5,7,14,7c1.8,0.1,3.6-0.1,5.3-0.6
			c1.7-0.4,3.3-1.2,4.6-2.3c1.2-0.7,2.2-1.7,2.9-2.9l1.8-2.3l44.5-63.2c5.4-7.2,8.3-16,8.3-25
			C3679.3,1181.9,3678.7,1177.9,3677.5,1174L3677.5,1174z M3858.1,1330.7c-0.6-1.2-1.2-2.9-1.8-4.1l-1.8-2.3l-46.1-62
			c-3.5-5.3-8.4-9.7-14-12.7c-5.9-3.2-12.6-4.9-19.3-4.9c-14,0-25.8,7-33.3,17.5l-46.1,62l-1.8,2.3c-0.7,1.3-1.3,2.7-1.8,4.1
			c-0.5,1.7-0.7,3.5-0.6,5.3c0,7.6,4.6,14,12.3,17c46.3,15.6,96.3,15.6,142.6,0c7.4-2.3,12.4-9.2,12.3-17
			C3858.8,1334.2,3858.6,1332.4,3858.1,1330.7z"/>
		<circle id="Cap-2_1_" class="st0" cx="3775.1" cy="1142.5" r="48.5"/>
		<path id="Bolts-2_1_" class="st0" d="M3856.4,919.1c-1.3,3.1-4.2,5.2-7.6,5.3c-0.6,0-1.8-0.6-2.3-0.6c-4.1-1.2-6.4-5.9-5.3-10
			c1.3-3.1,4.2-5.2,7.6-5.3c0.8,0,1.6,0.2,2.3,0.6C3855.2,910.3,3857.5,915,3856.4,919.1z M3701.4,924.4c0.6,0,1.8,0,2.3-0.6
			c4.1-1.2,6.4-5.9,5.3-10c-1.3-3.1-4.2-5.2-7.6-5.3c-0.6,0-1.8,0-2.3,0.6c-4.1,1.2-6.4,5.9-5.3,10
			C3694.8,922.4,3698,924.6,3701.4,924.4z M3919.5,944.3c-1.3-1.1-2.9-1.7-4.6-1.8c-2.4,0.1-4.7,1.2-6.4,2.9
			c-2.4,3.6-1.6,8.4,1.8,11c1.2,1.2,2.9,1.8,4.6,1.8c2.4-0.1,4.7-1.2,6.4-2.9C3923.7,951.8,3922.9,947,3919.5,944.3z M3635.4,942.5
			c-1.8,0-2.9,0.6-4.6,1.8c-3.5,2.3-4.1,7.6-1.8,11c1.5,2,3.9,3,6.4,2.9c1.8,0,2.9-0.6,4.6-1.8c3.5-2.3,4.1-7.6,1.8-11
			C3640.1,943.7,3637.8,942.6,3635.4,942.5z M3967.5,995.1c-1.8,0-2.9,0.6-4.6,1.8c-3.5,2.3-4.1,7.6-1.8,11c1.5,2,3.9,3,6.4,2.9
			c1.8,0,2.9-0.6,4.6-1.8c3.5-2.3,4.1-7.6,1.8-11C3972.2,996.3,3969.9,995.3,3967.5,995.1z M3578,1009c1.2,1.2,2.9,1.8,4.6,1.8
			c2.4-0.1,4.7-1.2,6.4-2.9c2.4-3.6,1.6-8.4-1.8-11c-1.2-1.2-2.9-1.9-4.6-1.8c-2.4,0.1-4.7,1.2-6.4,2.9
			C3573.8,1001.6,3574.6,1006.4,3578,1009z M4012.6,1134.9c-4.2,0-7.6,3.4-7.6,7.6s3.4,7.6,7.6,7.6c4.2,0,7.6-3.4,7.6-7.6
			C4020.8,1138.4,4017.1,1134.9,4012.6,1134.9L4012.6,1134.9z M3545.4,1142.5c-0.1-4.1-3.5-7.5-7.6-7.6c-4.2,0-7.6,3.4-7.6,7.6
			s3.4,7.6,7.6,7.6S3545.4,1146.7,3545.4,1142.5z M4003.1,1208.5c-0.5-0.6-1.1-0.6-2.3-0.6c-3.4,0.1-6.4,2.1-7.6,5.3
			c-1.2,4.2,1.1,8.6,5.3,10c0.6,0,1.8,0.6,2.3,0.6c3.4-0.1,6.4-2.1,7.6-5.3C4009.5,1214.3,4007.2,1209.6,4003.1,1208.5
			L4003.1,1208.5z M3549.4,1207.9c-0.6,0-1.8,0-2.3,0.6c-4.1,1.2-6.4,5.9-5.3,10c1,3.3,4.2,5.5,7.6,5.3c0.6,0,1.8,0,2.3-0.6
			c4.1-1.2,6.4-5.9,5.3-10C3555.3,1210.3,3552.4,1207.9,3549.4,1207.9L3549.4,1207.9z M3972.1,1275.8c-1.3-1-2.9-1.7-4.6-1.8
			c-2.4,0.1-4.7,1.2-6.4,2.9c-2.4,3.6-1.6,8.4,1.8,11c1.2,1.2,2.9,1.8,4.6,1.8c2.4-0.1,4.7-1.2,6.4-2.9
			C3976.3,1283.2,3975.5,1278.5,3972.1,1275.8L3972.1,1275.8z M3582.7,1274c-1.8,0-2.9,0.6-4.6,1.8c-3.5,2.3-4.1,7.6-1.8,11
			c1.5,2,3.9,3,6.4,2.9c1.8,0,2.9-0.6,4.6-1.8c3.5-2.3,4.1-7.6,1.8-11C3588,1275.2,3585.1,1274,3582.7,1274L3582.7,1274z
			 M3848.8,1360.5c-0.6,0-1.8,0-2.3,0.6c-4.1,1.2-6.4,5.9-5.3,10c1,3.3,4.2,5.5,7.6,5.3c0.6,0,1.8,0,2.3-0.6c4.1-1.2,6.4-5.9,5.3-10
			C3854.6,1362.3,3851.7,1360.5,3848.8,1360.5L3848.8,1360.5z M3704.5,1361.1c-0.7-0.4-1.5-0.6-2.3-0.6c-3.4,0.1-6.4,2.1-7.6,5.3
			c-1.2,4.2,1.1,8.6,5.3,10c0.6,0,1.8,0.6,2.3,0.6c3.4-0.1,6.4-2.1,7.6-5.3C3710.9,1367,3708.6,1362.3,3704.5,1361.1L3704.5,1361.1z
			 M3775.1,1372.2c-4.2,0-7.6,3.4-7.6,7.6s3.4,7.6,7.6,7.6c4.2,0,7.6-3.4,7.6-7.6C3782.7,1375.6,3779.3,1372.2,3775.1,1372.2
			L3775.1,1372.2z"/>
		<g id="Taillight_Alt_2_">
			<path id="Outline_2_" class="st0" d="M37.6,797.4l27.2,0.5l261,5L311,747.5c0,0-10.7-50.8-61.5-50.8H137.2l-57.8,10.8
				c0,0-8.4,1.4-8.4,10.4c0,9.1,0.2,11.1,4.2,13.5L37.6,797.4z"/>
			<path id="Black_2_" class="st0" d="M185.5,731.5h17.8c0,0,12.1,0.7,17.2,9.1c0,0,7.3,15.2,11.6,29.7c1,3.5,2,7.8,2.7,12l3.6,18.6
				"/>
			<path id="Front_3_" class="st0" d="M276.5,801.9c0,0-2.8-18.6-12.5-42.1c-9.8-23.5-25-46-45-46l-147.3-0.2"/>
			<path id="Back_1_" class="st0" d="M75.2,731.5h110.3c0,0,12.1,0.7,17.2,9.1c0,0,7.3,15.2,11.6,29.7c0.2,0.8,0.5,1.7,0.7,2.6
				c1.5,5.9,2.8,13.2,3.6,18.9c0.8,5.2,1.2,9.1,1.2,9.1"/>
		</g>
		<path id="Front_Bumper_Line_2_" class="st0" d="M4186.1,924.3l342.2,5.3c0,0,106.7,3.6,112.8-1.7c6.1-5.3,1.7-14,1.7-14"/>
	</g>
</g>
</svg>
