<svg width="4728" height="1525" viewBox="0 0 4728 1525" fill="none" xmlns="http://www.w3.org/2000/svg">
<g clip-path="url(#clip0)" filter="url(#filter0_d)">
<path opacity="0.2" d="M4698.2 1306C4692.9 1303.9 4686 1301.8 4681.6 1289.3C4677.2 1276.8 4695.3 1124.9 4695.3 1124.9C4696.3 1104.4 4704.2 1018.4 4701 990.8C4700 981.4 4686.3 962.6 4686.3 962.6C4686.3 962.6 4662.3 934.1 4646.6 918.7C4640.6 912.8 4587.3 865.7 4544.9 831.1C4514.7 808 4391.7 676.6 4349.1 653.8C4253.7 629.4 4054.9 588.4 3957.1 574C3716 535.4 3218.3 470.6 3186 467C3184.4 465.5 3168 463.6 3153.7 459C3138.9 454.3 3126.3 447.1 3125.3 448.5C3123.1 447.6 3120.9 446.6 3119 445.8L3118.6 446.2V446.4L3118.4 446.3L3110 441.7L3083.9 421.6C3083.5 421.6 3060.5 404.3 3061.8 404.7L2575.7 41.6L2575.5 41.5L2574.5 40.7C2565.8 34.4 2559.1 35.8 2559.1 35.8C2544.2 27.4 2377.5 1.19999 2154.5 4.49999C1962.3 7.29999 1728 24.6 1512.1 73.6C1490.8 78.4 1491.6 109.8 1472.8 117.9C1454 126 1333 162.3 1333 162.3C1189.6 209.7 996.4 281.7 857.7 341.5C816.7 359.2 784.5 379.7 730.9 387.9C657.7 394.4 584.8 403.9 512.3 411.9C504.2 412.4 494.8 406.9 494.8 406.9C452.6 372.5 386.6 337.3 302.8 337.5C237.1 342.9 217.9 364.5 243.8 413.7C263.9 446.3 296.5 518.3 296.5 518.3C332.4 579.1 281.8 607 224.8 638C204.8 648.9 158.3 668.2 155.9 689.4C140.4 699.7 74.7 769.9 70.5 796.6C70.5 796.6 24.2 818.6 15.1 836C6.80005 851.9 6.80005 877.2 6.80005 877.2C6.80005 877.2 32.7 1142.5 49.1 1168.3C65.5 1194.1 94.5 1210.6 94.5 1210.6C135 1215.1 468.1 1272.2 559.4 1273.7C568.3 1273.8 631.7 1274.6 628.4 1266.3C628.4 1266.2 628.3 1266.1 628.3 1266H628.6C628.6 1251.5 642.5 1254.3 642.5 1254.3H670.3L680 1254.2L1404.7 1249.5H1410.3L1501.2 1258.5C1501.8 1281 1503.1 1305.1 1506.3 1332.8C1514.2 1340.8 1574.4 1334.2 1626.3 1322.9C2018.1 1282.9 1759.3 1309.9 2365.1 1310.9C2979.7 1325.2 3147.1 1326.4 3195.1 1336.7C3243.1 1347 3268.6 1345.8 3281.9 1339.5C3291.9 1334.9 3297.5 1329.9 3300.1 1304.9H3300.2C3300.2 1304.9 3337.8 1299.5 3433.2 1294.7H3433.9L4121.6 1296.1C4121.6 1296.1 4145.8 1326.6 4152.5 1332.1C4171.3 1348 4158.8 1360.5 4164.3 1366C4169.1 1370.7 4234.3 1395.9 4245.8 1402.3C4246.6 1403 4247.4 1403.6 4248.3 1404.1C4376.2 1398.8 4535.6 1375.6 4598.8 1368.1C4662.4 1360.5 4722 1328.2 4698.2 1306ZM4619.7 1086.8H4505.7C4488.6 1086.8 4466 1061.4 4465 1034.5C4464 1007.2 4469.4 1003.2 4487.8 1003.2C4522.7 1003.2 4617.4 1003.9 4646.5 1003.9C4676.4 1003.9 4679.5 1000.2 4682.6 1009.6C4685.7 1019 4684.2 1069.1 4675.3 1078.5C4666.4 1087.9 4619.7 1086.8 4619.7 1086.8Z" fill="#E4E5E7"/>
<path d="M4698.2 1306C4692.9 1303.9 4686 1301.8 4681.6 1289.3C4677.2 1276.8 4695.3 1124.9 4695.3 1124.9C4696.3 1104.4 4701.2 1018.4 4698 990.8C4697 981.4 4686.3 962.6 4686.3 962.6C4686.3 962.6 4662.3 934.1 4646.6 918.7C4640.6 912.8 4587.3 865.7 4544.9 831.1C4514.7 808 4391.7 676.6 4349.1 653.8C4253.7 629.4 4054.9 588.4 3957.1 574C3631.6 551.1 3218.3 470.6 3186 467C3182.8 464 3179.3 461.4 3175.5 459.2C3174 447.9 3170.9 437.8 3178.2 440.7C3233.2 393.7 3080.9 414.6 3058.5 403.5L3082.6 421.5C3097 422.9 3115.6 426.4 3127.5 435.1L3150.8 433.4C3143.5 435.5 3141.2 440.7 3141.2 440.7C3133 439.3 3127.3 445.8 3125.3 448.5C3123.1 447.6 3120.9 446.6 3119 445.8L3118.6 446.2V446.4L3118.4 446.3L3109.7 441.5C3109.6 441.5 3109.6 441.5 3109.5 441.4L3107.2 442.6L3106.9 442.8C3106.9 442.8 3105.2 443.7 3104.3 444.1C3100.9 445.7 3097 447.4 3092.8 449C3091.8 449.4 3090.9 449.7 3089.9 450.1C3089.3 450.3 3088.7 450.5 3088.1 450.8L3086.3 451.4C3085.1 451.8 3083.8 452.3 3082.5 452.7C3081.2 453.1 3079.9 453.5 3078.5 453.9C3077.1 454.3 3075.8 454.7 3074.4 455.1L3070.2 456.3C3069.5 456.5 3068.8 456.7 3068 456.9L3063.6 458.1C3058.8 459.3 3053.7 460.5 3048.5 461.6C3045.6 462.2 3042.6 462.8 3039.6 463.4C3036.6 464 3033.5 464.5 3030.4 465.1C3025.7 465.9 3021 466.6 3016.2 467.3L3011.4 467.9C3009.2 468.2 3007.1 468.4 3004.9 468.7C3002.7 469 3000.5 469.2 2998.3 469.4C2995.4 469.7 2992.5 469.9 2989.5 470.1L2984.7 470.4H2984C2974.7 471 2965.3 471.2 2956 471.1C2954.2 471.1 2952.4 471.1 2950.7 471C2949.3 471 2948 470.9 2946.6 470.9L2939.9 470.6C2937.7 470.5 2935.5 470.3 2933.3 470.1C2932.5 470 2931.6 469.9 2930.8 469.9C2929.5 469.8 2928.2 469.7 2926.9 469.5C2925 469.3 2923.2 469.1 2921.3 468.8C2920.2 468.6 2919.1 468.3 2917.9 468C2917.5 467.9 2917.1 467.8 2916.7 467.6C2916.6 467.6 2916.5 467.6 2916.4 467.5C2916 467.4 2915.6 467.3 2915.2 467.1C2915 467 2914.7 466.9 2914.5 466.9C2914.1 466.8 2913.7 466.6 2913.4 466.5H2913.3C2912.8 466.3 2912.2 466.1 2911.7 465.9C2911.2 465.7 2910.6 465.5 2910.1 465.3C2909.5 465.1 2909 464.9 2908.5 464.6C2908.2 464.5 2907.8 464.3 2907.5 464.2C2905.1 463.2 2902.8 462 2900.5 460.7C2900 460.4 2899.4 460.1 2898.9 459.8C2898.4 459.5 2897.8 459.2 2897.3 458.9C2896.8 458.6 2896.3 458.3 2895.7 458C2894.2 457.1 2892.6 456.1 2891.1 455.1C2890.6 454.8 2890.1 454.4 2889.6 454.1C2889.1 453.8 2888.6 453.4 2888.1 453.1L2885.1 451C2878.7 446.5 2872.5 441.5 2866.7 436.5C2866.2 436 2865.6 435.5 2865 435.1C2862.7 433.1 2860.5 431.1 2858.4 429.1C2858 428.8 2857.6 428.4 2857.3 428C2850.9 422 2845.4 416.4 2841.1 411.9C2840.8 411.6 2840.5 411.3 2840.3 411C2839 409.7 2837.9 408.4 2836.9 407.3C2836.8 407.1 2836.6 407 2836.5 406.8C2834.2 404.2 2832.6 402.5 2832 401.7L2831.9 401.6C2831.8 401.5 2831.8 401.5 2831.8 401.4C2831.8 401.3 2831.8 401.3 2831.7 401.3L2564.9 124.1C2562.2 121.3 2559.6 118.3 2557.2 115.4C2556.6 114.7 2556 113.9 2555.5 113.2C2555.2 112.8 2554.9 112.4 2554.7 112.1C2554.3 111.6 2554 111.1 2553.7 110.6C2553.5 110.4 2553.4 110.1 2553.2 109.9C2552.9 109.4 2552.6 108.9 2552.3 108.4C2552 108 2551.8 107.6 2551.5 107.2C2551.4 107.1 2551.3 107 2551.3 106.8C2550.8 106 2550.4 105.3 2550 104.5L2549.4 103.3L2548.8 102.1C2548.7 101.8 2548.5 101.5 2548.4 101.2C2548.1 100.7 2547.9 100.1 2547.7 99.5C2547.3 98.6 2547 97.6 2546.7 96.7C2543.9 87.6 2545.2 78.5 2553.3 69.7L2553.9 69.1L2554.5 68.5C2554.9 68 2555.4 67.6 2555.9 67.2C2556.2 67 2556.4 66.8 2556.6 66.5C2557.2 65.9 2557.9 65.4 2558.6 64.8C2559.7 64 2560.8 63.1 2561.9 62.3C2562.7 61.7 2563.5 61.2 2564.4 60.6C2565.2 60.1 2566.1 59.5 2567 59C2568.5 58.1 2570 57.3 2571.7 56.4C2572.7 55.9 2573.7 55.4 2574.8 54.9C2575.5 54.6 2576.2 54.2 2576.9 53.9C2577.3 53.7 2577.6 53.6 2578 53.4C2578.8 53 2579.6 52.7 2580.4 52.3C2581.2 51.9 2582.1 51.6 2582.9 51.2C2582.9 51 2581.1 45.5 2574.5 40.7C2565.8 34.4 2559.1 35.8 2559.1 35.8C2544.2 27.4 2377.5 1.19999 2154.5 4.49999C1962.3 7.29999 1728 24.6 1512.1 73.6C1490.8 78.4 1491.6 109.8 1472.8 117.9C1454 126 1333 162.3 1333 162.3C1189.6 209.7 996.4 281.7 857.7 341.5C816.7 359.2 784.5 379.7 730.9 387.9C657.7 394.4 584.8 403.9 512.3 411.9C504.2 412.4 494.8 406.9 494.8 406.9C452.6 372.5 386.6 337.3 302.8 337.5C237.1 342.9 217.9 364.5 243.8 413.7C263.9 446.3 296.5 518.3 296.5 518.3C332.4 579.1 281.8 607 224.8 638C204.8 648.9 158.3 668.2 155.9 689.4C140.4 699.7 74.7 769.9 70.5 796.6C70.5 796.6 24.2 818.6 15.1 836C6.80005 851.9 6.80005 877.2 6.80005 877.2C6.80005 877.2 32.7 1142.5 49.1 1168.3C65.5 1194.1 94.5 1210.6 94.5 1210.6C135 1215.1 468.1 1272.2 559.4 1273.7C568.3 1273.8 631.7 1274.6 628.4 1266.3C628.4 1266.2 628.3 1266.1 628.3 1266H628.6C628.6 1251.5 642.5 1254.3 642.5 1254.3H670.3L680 1254.2L1404.7 1249.5H1410.3L1501.2 1258.5C1501.8 1281 1503.1 1305.1 1506.3 1332.8C1514.2 1340.8 1574.4 1334.2 1626.3 1322.9C2018.1 1282.9 1759.3 1309.9 2365.1 1310.9C2979.7 1325.2 3147.1 1326.4 3195.1 1336.7C3243.1 1347 3268.6 1345.8 3281.9 1339.5C3291.9 1334.9 3297.5 1329.9 3300.1 1304.9H3300.2C3300.2 1304.9 3337.8 1299.5 3433.2 1294.7H3433.9L4121.6 1296.1C4121.6 1296.1 4145.8 1326.6 4152.5 1332.1C4171.3 1348 4158.8 1360.5 4164.3 1366C4169.1 1370.7 4234.3 1395.9 4245.8 1402.3C4246.6 1403 4247.4 1403.6 4248.3 1404.1C4376.2 1398.8 4535.6 1375.6 4598.8 1368.1C4662.4 1360.5 4722 1328.2 4698.2 1306ZM1518.5 460H1517.7C1517.6 460 1505.6 460.2 1485.8 460.2C1436.2 460.2 1340 458.8 1252.9 449.7C1205 444.7 1166.4 438 1138.1 429.8C1096.6 417.8 1090.9 406.5 1090.4 405.2C1089.5 402.9 1088.8 399.7 1091.5 394C1095.3 385.8 1106.2 371.9 1135.9 352.3C1156.8 338.6 1184 324.1 1216.6 309.5C1272.9 284.1 1326.3 266.7 1326.8 266.6L1327.1 266.5L1327.4 266.4C1328 266.2 1387.5 244.8 1469.1 220.1C1517.7 205.4 1580.8 187.6 1645.1 172.9L1744.4 463.1L1518.5 460ZM2083.4 467.8L1809.3 464L1707.9 159.6C1722.1 156.9 1736.1 154.5 1749.8 152.4C1934.1 124 2198.4 115.2 2201.1 115.1C2201.4 115.1 2227.2 114.3 2263.3 114.3C2292.4 114.3 2332.9 114.9 2372.2 117.2L2504.3 467.8H2083.4ZM2683 346.9C2667.7 350.9 2653.7 358.7 2642.2 369.5C2639.7 371.9 2637.2 374.3 2634.9 376.9C2617 396.9 2606.9 422.3 2607.7 442.8C2607.7 442.8 2604.6 454.7 2614.7 467.7V467.8H2530.1L2401.1 119.4C2468.5 125.6 2479.9 131.4 2590.9 249C2628.2 288.4 2667.2 326.8 2683 346.9ZM4619.7 1086.8H4505.7C4488.6 1086.8 4466 1061.4 4465 1034.5C4464 1007.2 4469.4 1003.2 4487.8 1003.2C4522.7 1003.2 4617.4 1003.9 4646.5 1003.9C4676.4 1003.9 4679.5 1000.2 4682.6 1009.6C4685.7 1019 4684.2 1069.1 4675.3 1078.5C4666.4 1087.9 4619.7 1086.8 4619.7 1086.8Z" fill="#6D7178" stroke="#494B50" stroke-width="4" stroke-miterlimit="10"/>
<path d="M2845.4 489.8C2844.8 496.3 2843.8 502.7 2843.2 510.9C2841.6 530.5 2804.8 544.2 2771.2 542.2C2737.6 540.2 2721.1 534.4 2714.1 520.3C2707.1 506.2 2744.6 489.8 2744.6 489.8H2667.7C2652.2 488.3 2638 485.5 2629.6 480.4C2624 477.1 2618.9 472.8 2614.8 467.8C2604.6 454.8 2607.7 442.8 2607.7 442.8C2606.9 422.3 2617 396.9 2634.9 376.9C2637.2 374.3 2639.7 371.9 2642.2 369.5C2653.7 358.7 2667.7 350.9 2683 346.9C2683.2 346.9 2683.3 346.8 2683.5 346.8C2689.4 345.3 2695.5 344.4 2701.6 344.2C2712.1 343.8 2723.4 346.5 2734.9 351.3C2735 351.3 2735.1 351.4 2735.2 351.4C2785.7 372.7 2839.1 434.7 2843.3 456.1C2844.4 461.5 2845.2 467 2845.6 472.5V472.6C2846 478.4 2845.9 484.1 2845.4 489.8Z" fill="#6D7178" stroke="#494B50" stroke-width="4" stroke-miterlimit="10"/>
<path d="M4698.2 1306C4692.9 1303.9 4686 1301.8 4681.6 1289.3C4677.2 1276.8 4695.3 1124.9 4695.3 1124.9C4696.3 1104.4 4704.2 1018.4 4701 990.8C4700 981.4 4700.2 981.7 4686.3 960.6C4672.4 939.5 4639.8 911.6 4634.5 908.1C4621.4 899.1 4556.2 840.2 4544.9 831.1C4534.6 823.2 4512.5 801 4486.1 774.2C4463.2 751.1 4447.2 734.5 4422.9 710.8C4398.6 687.1 4375.9 672.3 4359.8 660.6C4073.4 577 3922.7 571.2 3593.6 533.2C3490 521.2 3195 467.9 3186 466.9C3171.5 465.3 3150.8 458.5 3134.1 452C3131 450.8 3128.1 449.6 3125.4 448.5C3122.7 447.4 3124.4 449.8 3124.4 449.8C3102.8 471.5 2989.5 492.8 2916.3 483.1C2893.4 478.3 2866.8 455.6 2848.4 437.4L2848.3 437.3C2834.9 424 2825.8 413 2825.8 413L2551 127C2528.3 103.2 2502.3 49.9 2559.1 35.9C2545.2 27.5 2378.5 1.09999 2154.7 4.39999C1962.5 7.19999 1728.2 24.5 1512.3 73.5C1491 78.3 1491.8 109.7 1473 117.8C1454.2 125.9 1333.2 162.2 1333.2 162.2C1189.8 209.6 996.6 281.6 857.9 341.4C836 350.8 816.7 361.1 795.2 369.8C785.4 373.8 775.4 377.3 765.3 380.3C745.3 390.5 736.3 424 734.7 430.9C530.2 509.1 316.7 593.1 234 633C231 634.6 228 636.3 225 637.9C220.6 640.3 214.9 643.1 208.7 646.3C186.7 657.4 158 672.8 156.1 689.3C153.5 691 149.5 694.5 144.5 699.1C120.2 722 74.2 774.3 70.7 796.5C70.7 796.5 24.4 818.5 15.3 835.9C7 851.8 7 877.1 7 877.1C7 877.1 32.9 1142.4 49.3 1168.2C65.7 1194 94.7 1210.5 94.7 1210.5C135.2 1215 468.3 1272.1 559.6 1273.6C568.5 1273.7 631.9 1274.5 628.6 1266.2C626.5 1260.5 608.9 1264.8 597.9 1250.3C590.4 1240.4 594.4 1164.2 594.4 1164.2C598.7 1018.4 646.3 905.9 721.5 828.5C802.2 745.4 914.9 702.7 1040.1 702.7C1219.1 702.7 1401.7 814.8 1481.5 1045.5C1491.9 1089.9 1496.5 1125.2 1498.7 1157.1C1508.5 1156.9 1624.5 1153.9 1739.8 1152.5C1860.3 1151 2020.5 1160.1 2020.5 1160.1L2311.9 1168.4L2683.4 1176.2C2683.4 1176.2 3013.1 1183.3 3078.1 1185.9C3099.8 1186.8 3117 1187.6 3131.2 1188.5C3159.6 1190.3 3176.2 1192.1 3192.9 1194.2C3217.9 1197.4 3253.4 1205.7 3272.2 1205.7C3288 1205.7 3302.3 1200 3306.5 1198.2C3346 845.7 3628.1 605.4 4014.5 785.5C4284.9 916.5 4290 1181.3 4243.7 1371.9C4237.3 1375.1 4236.9 1394.9 4246.5 1402.7C4247.1 1403.2 4247.7 1403.6 4248.4 1404C4376.3 1398.7 4535.7 1375.5 4598.9 1368C4662.4 1360.5 4722 1328.2 4698.2 1306ZM3135.1 1141.7L2820.7 1132.1C2820.7 1132.1 2378.3 1122.2 2255.7 1119.6C2133.1 1117 2017.8 1121.2 1969.8 1092.5C1921.8 1063.8 1878 937 1854.5 883.3C1831 829.6 1783.5 683 1783.5 683C1783.5 683 1754.3 595.4 1754.3 552.6C1754.5 529.5 1759.4 506.7 1768.8 485.6L1518.2 482.1C1518.2 482.1 1506.1 482.3 1485.9 482.3C1387.4 482.3 1095.8 476.9 1070.1 413.6C1039 336.8 1320.1 245.7 1320.1 245.7C1320.1 245.7 1558.8 159.6 1746.6 130.7C1934.4 101.8 2200.5 93.1 2200.5 93.1C2200.5 93.1 2226.5 92.3 2263.4 92.3C2339.2 92.3 2461 95.8 2499.4 117.4C2561.4 151.9 2561.6 154.9 2725 341.1L2734.9 351.3C2735 351.3 2735.1 351.4 2735.2 351.4C2785.7 372.7 2839.1 434.7 2843.3 456.1C2844.4 461.5 2845.2 467 2845.6 472.5V472.6L2864.9 489.8C2864.9 489.8 2869.6 496.1 2890.7 504.7C2911.8 513.3 2941.7 512.5 2941.7 512.5C2941.7 512.5 3087.9 514.8 3127.7 565.3C3197.1 653.6 3151.1 979.4 3135.1 1141.7ZM4619.7 1086.8H4505.7C4488.6 1086.8 4466 1061.4 4465 1034.5C4464 1007.2 4469.4 1003.2 4487.8 1003.2C4522.7 1003.2 4617.4 1003.9 4646.5 1003.9C4676.4 1003.9 4679.5 1000.2 4682.6 1009.6C4685.7 1019 4684.2 1069.1 4675.3 1078.5C4666.4 1087.9 4619.7 1086.8 4619.7 1086.8Z" fill="#6D7178" stroke="#494B50" stroke-width="4" stroke-miterlimit="10"/>
<path d="M765.2 380.4C745.2 390.6 736.2 424.1 734.6 431C530.1 509.2 316.6 593.2 233.9 633.1C287 604 330.6 575.9 296.6 518.3C296.6 518.3 264 446.3 243.9 413.7C223.5 375 231 353.4 267.1 343.3C276.9 340.5 288.8 338.7 302.9 337.5C386.7 337.3 452.7 372.5 494.9 406.9C494.9 406.9 504.3 412.4 512.4 411.9C584.9 403.9 657.8 394.4 731 387.9C742.5 386.2 754 383.7 765.2 380.4Z" fill="#6D7178" stroke="#494B50" stroke-width="4" stroke-miterlimit="10"/>
<path d="M3127.7 565.3C3087.9 514.8 2941.7 512.5 2941.7 512.5C2941.7 512.5 2911.8 513.3 2890.7 504.7C2869.6 496.1 2864.9 489.8 2864.9 489.8H2845.4C2844.8 496.3 2843.8 502.7 2843.2 510.9C2841.6 530.5 2804.8 544.2 2771.2 542.2C2737.6 540.2 2721.1 534.4 2714.1 520.3C2707.1 506.2 2744.6 489.8 2744.6 489.8H2667.7C2652.2 488.3 2638 485.5 2629.6 480.4C2624 477.1 2618.9 472.8 2614.8 467.8C2604.6 454.8 2607.7 442.8 2607.7 442.8C2606.9 422.3 2617 396.9 2634.9 376.9C2616.8 396.8 2606.7 422.4 2607.5 442.9C2607.5 442.9 2604.4 454.8 2614.5 467.8L2614.6 467.9C2618.7 473 2623.7 477.2 2629.4 480.5C2637.8 485.6 2652 488.4 2667.5 489.9H2083.2L1768.8 485.6C1759.4 506.7 1754.5 529.5 1754.3 552.6C1754.3 595.4 1783.5 683 1783.5 683C1783.5 683 1831 829.6 1854.5 883.3C1878 937 1921.8 1063.8 1969.8 1092.5C2017.8 1121.2 2133.1 1117 2255.7 1119.6C2378.3 1122.2 2820.7 1132.1 2820.7 1132.1L3135.1 1141.7C3151.1 979.4 3197.1 653.6 3127.7 565.3Z" fill="#6D7178" stroke="#494B50" stroke-width="4" stroke-miterlimit="10"/>
<path d="M3306.4 1198.3C3303.7 1222.5 3302.1 1247.4 3301.7 1272.6C3300.9 1326.6 3295.3 1333.3 3282 1339.5C3268.7 1345.7 3243.2 1347 3195.2 1336.7C3147.2 1326.4 2979.8 1325.2 2365.2 1310.9C1759.4 1309.9 2018.2 1282.9 1626.4 1322.9C1574.5 1334.2 1514.3 1340.8 1506.4 1332.8C1503.2 1305.2 1502 1281.2 1501.3 1258.6C1500.3 1223.8 1500.9 1192.6 1498.5 1157.1C1508.3 1156.9 1624.3 1153.9 1739.6 1152.5C1860.1 1151 2020.3 1160.1 2020.3 1160.1L2311.7 1168.4L2683.2 1176.2C2683.2 1176.2 3012.9 1183.3 3077.9 1185.9C3099.6 1186.8 3116.8 1187.6 3131 1188.5C3159.4 1190.3 3176 1192.1 3192.7 1194.2C3217.7 1197.4 3253.2 1205.7 3272 1205.7C3287.9 1205.8 3302.2 1200.1 3306.4 1198.3Z" fill="#6D7178" stroke="#494B50" stroke-width="4" stroke-miterlimit="10"/>
<path d="M321.6 806L92 797.4H68.9C70 796.9 70.6 796.6 70.6 796.6C70.6 796.4 70.7 796.1 70.7 795.8C70.7 795.5 70.8 795.5 70.8 795.3C70.9 794.8 71.1 794.2 71.2 793.6C71.3 793.4 71.3 793.1 71.4 792.9L71.7 792C71.8 791.7 71.9 791.3 72 791C72.1 790.7 72.2 790.5 72.3 790.2C72.4 789.9 72.5 789.6 72.7 789.3C72.8 788.9 73 788.5 73.2 788.1C77.5 778 86.5 764.8 97 751.3C97.5 750.6 98.1 749.9 98.7 749.2C101.4 745.9 104.1 742.5 106.9 739.2C107.3 738.7 107.7 738.2 108.2 737.7L108.4 737.5C109.4 736.3 110.4 735.2 111.4 734C113 732.1 114.6 730.3 116.3 728.4C116.7 728 117 727.6 117.4 727.2C118.9 725.5 120.4 723.9 121.8 722.3C122.3 721.8 122.8 721.2 123.3 720.7C123.9 720 124.6 719.3 125.2 718.7C125.5 718.3 125.9 718 126.2 717.6C126.5 717.2 126.7 717.1 126.9 716.8L127.8 715.9C133.3 710.1 138.4 704.9 143 700.6C143.3 700.3 143.6 700 144 699.7L208.2 700.3C226.3 700.8 242.7 701.5 249.1 702.4C260 704.2 270.6 707.6 280.4 712.6C312.1 735.1 310.5 760.8 314.8 772.9C318.9 785.3 321.6 806 321.6 806Z" fill="#FF0314" stroke="#494B50" stroke-width="8" stroke-miterlimit="10"/>
<path d="M70.8 796.6L321.6 806C321.6 806 318.9 785.3 314.6 773.1C310.3 760.9 311.9 735.3 280.2 712.8C270.4 707.8 259.8 704.4 248.9 702.6C232.1 700.3 144.3 699.2 144.3 699.2" stroke="#494B50" stroke-width="4" stroke-miterlimit="10"/>
<path d="M721.4 828.6L321.6 805.9" stroke="#494B50" stroke-width="4" stroke-miterlimit="10"/>
<path d="M3307.6 1197.7C3307.6 1197.7 3290.9 1205.8 3272.1 1205.8C3253.3 1205.8 3217.8 1197.5 3192.8 1194.3C3167.8 1191.1 3143 1188.6 3078 1186C3013 1183.4 2683.3 1176.3 2683.3 1176.3L2311.8 1168.5L2020.4 1160.2C2020.4 1160.2 1860.2 1151.1 1739.7 1152.6C1619.2 1154.1 1497.9 1157.2 1497.9 1157.2" stroke="#494B50" stroke-width="4" stroke-miterlimit="10"/>
<path d="M2845.4 489.8H2864.9C2864.9 489.8 2869.6 496.1 2890.7 504.7C2911.8 513.3 2941.7 512.5 2941.7 512.5C2941.7 512.5 3087.9 514.8 3127.7 565.3C3204.7 663.3 3139.6 1053.9 3131.1 1188.7" stroke="#494B50" stroke-width="4" stroke-miterlimit="10"/>
<path d="M1768.9 485.4C1768.9 485.4 1754.3 514.8 1754.3 552.6C1754.3 595.4 1783.5 683 1783.5 683C1783.5 683 1831 829.6 1854.5 883.3C1878 937 1921.8 1063.8 1969.8 1092.5C2017.8 1121.2 2133.1 1117 2255.7 1119.6C2378.3 1122.2 2820.7 1132.1 2820.7 1132.1L3136.4 1141.7" stroke="#494B50" stroke-width="4" stroke-miterlimit="10"/>
<path d="M4185.1 924.3L4527.3 929.6C4527.3 929.6 4634 933.2 4640.1 927.9C4646.2 922.6 4641.8 913.9 4641.8 913.9" stroke="#494B50" stroke-width="4" stroke-miterlimit="10"/>
<path d="M4487.8 1003.2C4522.7 1003.2 4617.4 1003.9 4646.5 1003.9C4676.4 1003.9 4679.5 1000.2 4682.6 1009.6C4685.7 1019 4684.2 1069.1 4675.3 1078.5C4666.4 1087.9 4619.7 1086.8 4619.7 1086.8H4505.7C4488.6 1086.8 4466 1061.4 4465 1034.5C4464 1007.2 4469.4 1003.2 4487.8 1003.2Z" stroke="#494B50" stroke-width="4" stroke-miterlimit="10"/>
<path d="M2845.4 489.8C2844.8 496.3 2843.8 502.7 2843.2 510.9C2841.6 530.5 2804.8 544.2 2771.2 542.2C2737.6 540.2 2721.1 534.4 2714.1 520.3C2707.1 506.2 2744.6 489.8 2744.6 489.8H2667.7C2652.2 488.3 2638 485.5 2629.6 480.4C2624 477.1 2618.9 472.8 2614.8 467.8C2604.6 454.8 2607.7 442.8 2607.7 442.8C2606.3 408 2636.5 358.6 2683.5 346.8C2689.4 345.3 2695.5 344.4 2701.6 344.2C2712.2 343.8 2723.6 346.6 2735.2 351.4C2785.7 372.7 2839.1 434.7 2843.3 456.1C2844.4 461.5 2845.2 467 2845.6 472.5C2846 478.3 2845.9 484.1 2845.4 489.8Z" stroke="#494B50" stroke-width="4" stroke-miterlimit="10"/>
<path d="M2744.6 489.8C2744.6 489.8 2769.3 500.4 2794.7 498.4C2820.1 496.4 2845.5 489.8 2845.5 489.8" stroke="#494B50" stroke-width="4" stroke-miterlimit="10"/>
<path d="M765.4 380.3C742.9 391.5 734.3 432.2 734.3 432.2" stroke="#494B50" stroke-width="4" stroke-miterlimit="10"/>
<path d="M208 646.7C310.7 584.5 1191.9 258.9 1191.9 258.9C1191.9 258.9 1416.5 180.6 1610.6 142.3C1804.7 104 1935.6 93.9 2083.6 86.5C2445.5 68.5 2485.7 103.8 2551.2 168.4" stroke="#494B50" stroke-width="4" stroke-miterlimit="10"/>
<path d="M1988.8 641.5C1988.2 642.4 1987.5 643.3 1986.7 644.2C1975.6 657.3 1954.4 669.2 1921.1 668.9C1896.7 668.7 1878.8 661.5 1868.8 647.7C1869 640.7 1862.6 627.2 1931.1 626.7C1989.2 626.3 1991.3 636.5 1988.8 641.5Z" stroke="#494B50" stroke-width="4" stroke-miterlimit="10"/>
<path d="M1989.7 600C1983.7 602.1 1991.6 610.8 1925.2 604.8C1867.3 599.6 1872 593.6 1871.5 589.3C1881 579.6 1896.2 573 1917.7 572.9C1955 572.7 1979.3 583.7 1989.7 600Z" stroke="#494B50" stroke-width="4" stroke-miterlimit="10"/>
<path d="M2054.3 622.1C2054.3 632.3 2021.7 639.6 1986.7 644.2C1987.5 643.4 1988.2 642.5 1988.8 641.5C1991.3 636.5 1989.2 626.3 1931.1 626.7C1862.5 627.2 1868.9 640.6 1868.8 647.7C1868.8 648.3 1868.7 648.8 1868.6 649.4C1867.8 651.8 1860.9 651.6 1855.8 651.7C1815.5 652.5 1789.4 649.8 1789.4 620.3C1789.4 598.7 1806.9 588.5 1831.4 586C1844.9 584.6 1868.5 585.6 1870.6 587.3C1871.3 587.8 1871.7 588.6 1871.7 589.4C1872.1 593.7 1867.4 599.6 1925.4 604.9C1991.8 610.9 1983.9 602.2 1989.9 600.1C1991.5 599.5 1994 599.5 1999.2 600.2C2032.5 605.1 2054.3 612.2 2054.3 622.1Z" stroke="#494B50" stroke-width="4" stroke-miterlimit="10"/>
<path d="M267.1 343.3C259.3 354.4 269.6 366.6 269.6 366.6C286.6 383.3 304.5 399 323.3 413.6C354 437.4 414.2 475.9 465.9 472.2C465.9 472.2 532.4 474.4 738.4 418.1" stroke="#494B50" stroke-width="4" stroke-miterlimit="10"/>
<path d="M512.4 411.9C383.8 427.1 389.6 454.5 389.6 454.5" stroke="#494B50" stroke-width="4" stroke-miterlimit="10"/>
<path d="M4248.4 1403.9C4248.4 1403.9 4169.7 1371.5 4164.2 1366.1C4158.7 1360.7 4171.2 1348.1 4152.4 1332.2C4145 1326 4133 1298.4 4116.6 1295.1L3433.2 1294.8C3337.8 1299.6 3300.2 1305 3300.2 1305" stroke="#494B50" stroke-width="4" stroke-miterlimit="10"/>
<path d="M628.6 1266.1C628.6 1251.6 642.5 1254.4 642.5 1254.4H670.3L1410.3 1249.6L1501.8 1258.7" stroke="#494B50" stroke-width="4" stroke-miterlimit="10"/>
<path d="M1451.4 125.6C1451.4 125.6 1426.5 138.5 1246.9 204.6C1067.3 270.7 887.7 348.1 846.2 363.8C804.7 379.5 795.1 369.9 795.1 369.9" stroke="#494B50" stroke-width="4" stroke-miterlimit="10"/>
<path d="M3373.9 496.3C3373.9 496.3 3370.3 486.2 3354.1 484.1C3337.9 482 3333.2 490.2 3333.2 490.2" stroke="#494B50" stroke-width="4" stroke-miterlimit="10"/>
<path d="M4486.1 774.3C4486.1 774.3 4483.3 753.8 4442.8 714.7C4376.7 650.7 4359.7 660.7 4359.7 660.7" stroke="#494B50" stroke-width="4" stroke-miterlimit="10"/>
<path d="M3111.9 440.3L3109.8 441.5C3109.7 441.5 3109.7 441.4 3109.6 441.4C3108.9 441.8 3108.1 442.2 3107.3 442.6C3107.2 442.7 3107.1 442.7 3107 442.8C3106.1 443.2 3105.3 443.7 3104.4 444.1C3101 445.7 3097.1 447.4 3092.9 449C3091.9 449.4 3091 449.7 3090 450.1C3089.4 450.3 3088.8 450.5 3088.2 450.8L3086.4 451.4C3085.2 451.8 3083.9 452.3 3082.6 452.7C3081.3 453.1 3080 453.5 3078.6 453.9C3077.2 454.3 3075.9 454.7 3074.5 455.1L3070.3 456.3C3069.6 456.5 3068.9 456.7 3068.1 456.9L3063.7 458.1C3058.9 459.3 3053.8 460.5 3048.6 461.6C3045.7 462.2 3042.7 462.8 3039.7 463.4C3036.7 464 3033.6 464.5 3030.5 465.1C3025.8 465.9 3021.1 466.6 3016.3 467.3L3011.5 467.9C3009.3 468.2 3007.2 468.4 3005 468.7C3002.8 469 3000.6 469.2 2998.4 469.4C2995.5 469.7 2992.6 469.9 2989.6 470.1L2984.8 470.4H2984.1C2974.8 471 2965.4 471.2 2956.1 471.1C2954.3 471.1 2952.5 471.1 2950.8 471C2949.4 471 2948.1 470.9 2946.7 470.9L2940 470.6C2937.8 470.5 2935.6 470.3 2933.4 470.1C2932.6 470 2931.7 469.9 2930.9 469.9C2929.6 469.8 2928.3 469.7 2927 469.5C2925.1 469.3 2923.3 469.1 2921.4 468.8C2920.3 468.6 2919.2 468.3 2918 468C2917.6 467.9 2917.2 467.8 2916.8 467.6C2916.7 467.6 2916.6 467.6 2916.5 467.5C2916.1 467.4 2915.7 467.3 2915.3 467.1C2915.1 467 2914.8 466.9 2914.6 466.9C2914.2 466.8 2913.8 466.6 2913.5 466.5H2913.4C2912.9 466.3 2912.3 466.1 2911.8 465.9C2911.3 465.7 2910.7 465.5 2910.2 465.3C2909.6 465.1 2909.1 464.9 2908.6 464.6C2908.3 464.5 2907.9 464.3 2907.6 464.2C2905.2 463.2 2902.9 462 2900.6 460.7C2900.1 460.4 2899.5 460.1 2899 459.8C2898.5 459.5 2897.9 459.2 2897.4 458.9C2896.9 458.6 2896.4 458.3 2895.8 458C2894.3 457.1 2892.7 456.1 2891.2 455.1C2890.7 454.8 2890.2 454.4 2889.7 454.1C2889.2 453.8 2888.7 453.4 2888.2 453.1L2885.2 451C2878.8 446.5 2872.6 441.5 2866.8 436.5C2866.3 436 2865.7 435.5 2865.1 435.1C2862.8 433.1 2860.6 431.1 2858.5 429.1C2858.1 428.8 2857.7 428.4 2857.4 428C2851 422 2845.5 416.4 2841.2 411.9C2840.9 411.6 2840.6 411.3 2840.4 411C2839.1 409.7 2838 408.4 2837 407.3C2836.9 407.1 2836.7 407 2836.6 406.8C2834.3 404.2 2832.7 402.5 2832.1 401.7L2832 401.6C2831.9 401.5 2831.9 401.5 2831.9 401.4C2831.9 401.3 2831.9 401.3 2831.8 401.3L2565 124.1C2562.3 121.3 2559.7 118.3 2557.3 115.4C2556.7 114.7 2556.1 113.9 2555.6 113.2C2555.3 112.8 2555 112.4 2554.8 112.1C2554.4 111.6 2554.1 111.1 2553.8 110.6C2553.6 110.4 2553.5 110.1 2553.3 109.9C2553 109.4 2552.7 108.9 2552.4 108.4C2552.1 108 2551.9 107.6 2551.6 107.2C2551.5 107.1 2551.4 107 2551.4 106.8C2550.9 106 2550.5 105.3 2550.1 104.5L2549.5 103.3L2548.9 102.1C2548.8 101.8 2548.6 101.5 2548.5 101.2C2548.2 100.7 2548 100.1 2547.8 99.5C2547.4 98.6 2547.1 97.6 2546.8 96.7C2544 87.6 2545.3 78.5 2553.4 69.7L2554 69.1L2554.6 68.5C2555 68 2555.5 67.6 2556 67.2C2556.3 67 2556.5 66.8 2556.7 66.5C2557.3 65.9 2558 65.4 2558.7 64.8C2559.8 64 2560.9 63.1 2562 62.3C2562.8 61.7 2563.6 61.2 2564.5 60.6C2565.3 60.1 2566.2 59.5 2567.1 59C2568.6 58.1 2570.1 57.3 2571.8 56.4C2572.8 55.9 2573.8 55.4 2574.9 54.9C2575.6 54.6 2576.3 54.2 2577 53.9C2577.4 53.7 2577.7 53.6 2578.1 53.4C2578.9 53 2579.7 52.7 2580.5 52.3C2581.3 51.9 2582.2 51.6 2583 51.2C2582 50.4 2580.9 49.6 2579.8 49C2579.9 49 2580 48.9 2580.1 48.9L2859.2 250.8L3111.9 440.3Z" stroke="#494B50" stroke-width="4" stroke-miterlimit="10"/>
<path d="M4487.8 1003.2C4522.7 1003.2 4617.4 1003.9 4646.5 1003.9C4676.4 1003.9 4679.5 1000.2 4682.6 1009.6C4685.7 1019 4684.2 1069.1 4675.3 1078.5C4666.4 1087.9 4619.7 1086.8 4619.7 1086.8H4505.7C4488.6 1086.8 4466 1061.4 4465 1034.5C4464 1007.2 4469.4 1003.2 4487.8 1003.2Z" fill="#6D7178" stroke="#494B50" stroke-width="4" stroke-miterlimit="10"/>
<path d="M40.6 797.4L328.8 803L314 747.5C314 747.5 303.3 696.7 252.5 696.7H140.2L82.4 707.5C82.4 707.5 74 708.9 74 717.9C74 727 74.2 729 78.2 731.4L40.6 797.4Z" fill="#6D7178" stroke="#494B50" stroke-width="6" stroke-miterlimit="10"/>
<path d="M241.4 800.9H222.8C222.8 800.9 222.4 797 221.6 791.8C220.8 786.1 219.5 778.8 218 772.9C217.8 772 217.5 771.1 217.3 770.3C213 755.8 205.7 740.6 205.7 740.6C200.6 732.2 188.5 731.5 188.5 731.5H206.3C206.3 731.5 218.4 732.2 223.5 740.6C223.5 740.6 230.8 755.8 235.1 770.3C236.1 773.8 237.1 778.1 237.8 782.3L241.4 800.9Z" fill="#494B50" stroke="#494B50" stroke-width="6" stroke-miterlimit="10"/>
<path d="M40.6 797.4L328.8 803L314 747.5C314 747.5 303.3 696.7 252.5 696.7H140.2L82.4 707.5C82.4 707.5 74 708.9 74 717.9C74 727 74.2 729 78.2 731.4L40.6 797.4Z" stroke="#494B50" stroke-width="2" stroke-miterlimit="10"/>
<path d="M328.8 802.9L279.5 801.9C279.5 801.9 276.7 782 267 756.9C257.2 731.8 242 707.7 222 707.7H81.5C82 707.5 82.4 707.5 82.4 707.5L140.2 696.7H252.5C303.3 696.7 314 747.5 314 747.5L328.8 802.9Z" stroke="#494B50" stroke-width="6" stroke-miterlimit="10" stroke-linejoin="round"/>
<path d="M222.8 800.9L40.6 797.4L78.2 731.5H188.5C188.5 731.5 200.6 732.2 205.7 740.6C205.7 740.6 213 755.8 217.3 770.3C217.5 771.1 217.8 772 218 772.9C219.5 778.8 220.8 786.1 221.6 791.8C222.4 797 222.8 800.9 222.8 800.9Z" stroke="#494B50" stroke-width="6" stroke-miterlimit="10" stroke-linejoin="round"/>
<path d="M1042.3 1514.8C1249.24 1514.8 1417 1347.04 1417 1140.1C1417 933.159 1249.24 765.4 1042.3 765.4C835.359 765.4 667.6 933.159 667.6 1140.1C667.6 1347.04 835.359 1514.8 1042.3 1514.8Z" fill="#6D7178" stroke="#494B50" stroke-width="4" stroke-miterlimit="10"/>
<path d="M1039.2 1432.2C1200.69 1432.2 1331.6 1301.29 1331.6 1139.8C1331.6 978.312 1200.69 847.4 1039.2 847.4C877.712 847.4 746.8 978.312 746.8 1139.8C746.8 1301.29 877.712 1432.2 1039.2 1432.2Z" stroke="#494B50" stroke-width="4" stroke-miterlimit="10"/>
<path d="M1064.5 864.4C1216.5 878.4 1328.6 1013.2 1314.6 1165.2C1300.6 1317.2 1165.8 1429.3 1013.8 1415.3C861.8 1401.3 749.7 1266.5 763.7 1114.5C777.8 962.5 912.6 850.4 1064.5 864.4Z" stroke="#494B50" stroke-width="4" stroke-miterlimit="10"/>
<path d="M1039.2 1398.2C1181.91 1398.2 1297.6 1282.51 1297.6 1139.8C1297.6 997.09 1181.91 881.4 1039.2 881.4C896.49 881.4 780.8 997.09 780.8 1139.8C780.8 1282.51 896.49 1398.2 1039.2 1398.2Z" stroke="#494B50" stroke-width="4" stroke-miterlimit="10"/>
<path d="M1192.8 1327.8C1192.4 1329 1191.7 1329.9 1190.7 1330.6C1190.6 1330.7 1188.3 1332.7 1183.8 1336.1C1177.3 1340.8 1170.7 1345.2 1163.8 1349.3C1146.4 1359.6 1134.5 1363.8 1134.4 1363.8H1134.2C1133.3 1364.1 1132.2 1364.3 1131.2 1364.3L1130.2 1364.2C1129 1363.3 1128.1 1362.1 1127.4 1360.7L1058.3 1211.3C1071.4 1207.9 1083.3 1200.9 1092.7 1191.3L1191.2 1323.3L1191.3 1323.4C1191.5 1323.3 1193.1 1325.4 1192.8 1327.8ZM1281.6 1118.7C1281.6 1118.5 1280.9 1105.7 1276.6 1086C1272.3 1066.3 1267 1055 1266.9 1054.9L1266.8 1054.8L1266.7 1054.7C1266.3 1053.7 1265.6 1052.7 1264.6 1051.9C1264.2 1051.8 1263.9 1051.6 1263.5 1051.4C1263.5 1051.3 1263.5 1051.3 1263.4 1051.3C1262.2 1051.2 1260.9 1051.4 1259.7 1051.8H1259.6L1104.2 1104.7C1110.7 1116.5 1113.8 1130 1113.2 1143.6L1276.3 1124.5H1276.6C1278.1 1124.4 1279.5 1123.7 1280.5 1122.5L1280.6 1122.4L1280.7 1122.3C1281.3 1121.2 1281.7 1119.9 1281.6 1118.7ZM1096.9 904.3C1096.1 903.5 1095 903 1093.9 902.7H1093.7C1093.6 902.6 1081.7 899.3 1061.4 897.4C1041.2 895.5 1028.9 896.7 1028.7 896.7H1028.5C1027.3 896.7 1026.2 897.1 1025.2 897.7V897.8C1024.4 898.9 1023.9 900.2 1023.8 901.6L1023.7 902.3L1025.9 1066.8C1032.4 1065.6 1039.1 1065.3 1045.7 1065.8C1052.4 1066.3 1058.9 1067.8 1065.1 1070.2L1097.2 909.2V909C1097.6 909.1 1098.1 906.5 1096.9 904.3ZM837.9 1012.7L837.4 1012.5C836.6 1012 835.9 1011.8 835 1011.7L834.7 1012.1L833.5 1012.2C833 1012.3 832 1013.4 831.4 1014.3L831.3 1014.5L831.2 1014.7C831.2 1014.8 824 1025.1 816 1043.5C808.1 1062.2 805.1 1074.6 805.1 1074.7C804.9 1075.8 804.9 1077 805.2 1078.1C806.3 1079.4 807.6 1080.4 809.1 1081.1L965.8 1129.7C967.6 1116.3 973 1103.6 981.6 1093.1L837.9 1012.7ZM977.2 1180.2L856.4 1292L856.3 1292.1L856.2 1292.2C855.1 1293.2 854.3 1294.6 854 1296.1C854.1 1296.6 854.2 1297.1 854.5 1297.6C854.7 1298.2 855.1 1298.8 855.5 1299.2C855.6 1299.3 863.4 1309.3 878.7 1322.6C893.9 1336 904.9 1342.1 905 1342.2H905.2C906.1 1342.7 907 1343 908 1343.2L909 1343.3C910.4 1342.6 911.5 1341.6 912.4 1340.4L1007.5 1206.2C995.1 1200.6 984.5 1191.5 977.2 1180.2Z" stroke="#494B50" stroke-width="4" stroke-miterlimit="10"/>
<path d="M1112.5 1153C1107 1152.5 1101.6 1154.6 1097.9 1158.7C1091.3 1165.7 1092.1 1176.9 1099.7 1183.6C1102.5 1186.2 1106 1187.8 1109.8 1188C1115.3 1188.5 1120.7 1186.4 1124.4 1182.3C1131 1175.3 1130.2 1164.1 1122.6 1157.4C1120.2 1154.8 1116.7 1153.4 1112.5 1153ZM1092.6 1063.7C1088.8 1063.5 1085.1 1064.3 1081.8 1066.2C1073.7 1071.3 1070.9 1081.9 1075.5 1090.3C1078.4 1095 1083.3 1098 1088.8 1098.6C1092.6 1098.8 1096.3 1098 1099.6 1096.1C1107.7 1091 1110.5 1080.4 1105.9 1072C1103 1067.3 1098.1 1064.2 1092.6 1063.7ZM1000.7 1055.2C998.9 1054.9 997.1 1055 995.4 1055.3C985.8 1057.3 980.3 1066.9 982.4 1076.4C984 1084 990.4 1089.6 998.2 1090.2C1000 1090.5 1001.8 1090.4 1003.5 1090.1C1013.1 1088.1 1018.6 1078.5 1016.5 1069C1014.9 1061.5 1008.5 1055.8 1000.7 1055.2ZM1033.6 1200.4C1026 1199.7 1019.2 1203.7 1015.5 1211.1C1011.8 1220.2 1016 1230.5 1024.4 1234.2C1026 1234.9 1027.8 1235.2 1029.6 1235.3C1037.2 1236 1044 1232 1047.7 1224.6C1051.4 1215.5 1047.2 1205.2 1038.8 1201.5C1037.2 1200.8 1035.4 1200.4 1033.6 1200.4ZM964.7 1139.4C955 1138.5 946.6 1145.6 945.7 1155.2C944.8 1164.9 951.9 1173.3 961.5 1174.2C971.1 1175.1 979.6 1168 980.5 1158.4C981.4 1148.9 974.3 1140.4 964.7 1139.4Z" stroke="#494B50" stroke-width="4" stroke-miterlimit="10"/>
<path d="M1260.4 1156C1258.2 1180.3 1252.3 1204.1 1242.9 1226.6C1233.1 1249.7 1219.6 1269.6 1203.9 1287.6C1200.2 1291.7 1194.8 1293.8 1189.3 1293.3C1187.5 1293.2 1185.7 1292.9 1184.1 1292.2C1182.6 1291.6 1181 1290.6 1179.7 1289.5C1178.6 1288.8 1178.1 1287.5 1177.1 1286.3L1175.5 1283.8L1137 1216.8C1129.8 1206.1 1128.7 1192 1134 1179.6C1139.1 1167.3 1150 1158.4 1163.1 1155.8L1238.1 1138L1240.4 1137.6C1241.7 1137.2 1243.2 1137.2 1244.5 1137.4C1246.8 1137.6 1248.5 1138.4 1249.8 1137.9C1256.3 1141 1261.1 1148.4 1260.4 1156ZM1232.6 1029C1220.4 1008 1204.8 989.2 1186.6 973.2C1167.6 956.8 1147.1 943.7 1125 934.7C1122.9 934.1 1120.8 933.7 1118.7 933.5C1113.2 933 1107.8 935.1 1104.1 939.2C1102.9 940.4 1101.9 941.9 1101.4 943.6C1100.8 944.8 1100.5 946.2 1100.4 947.6L1100.1 950.5L1094.2 1027.5C1093.6 1034 1094.5 1040.5 1096.8 1046.5C1102.2 1061.2 1115.6 1071.3 1131.2 1072.6C1135.8 1073.1 1140.4 1072.7 1144.9 1071.5L1220.4 1055.5L1222.7 1055.1C1224 1054.6 1225.3 1053.9 1226.4 1053.1C1228.2 1052.2 1229.6 1051 1230.9 1049.4C1235.7 1043.6 1236.4 1035.4 1232.6 1029ZM1015.2 935.6C1015 933.9 1014.3 932.2 1013.3 930.8C1009.6 926.3 1004.6 923 998.8 922.4C997 922.1 995.2 922.2 993.5 922.5C969.5 927.4 946.7 936.4 925.9 949.1C904.9 961.3 886.2 977.1 870.5 995.6C865.6 1001.3 864.8 1009.4 868.6 1015.9C869.7 1017.2 870.6 1019 872.3 1020.4C873.4 1021.1 874.4 1022.4 875.6 1023L877.8 1023.8L949.1 1053.3C951.1 1054.4 953.2 1055.2 955.4 1055.8C957.7 1056.4 959.9 1056.7 962.2 1056.9C970.8 1057.7 979.3 1055.9 986.7 1051.5C998.1 1044.5 1005.5 1032.5 1006.7 1019.2L1015 942.4L1015.3 939.5C1015.5 938.6 1015.1 936.8 1015.2 935.6ZM939.1 1162.2C936.3 1149.3 927.1 1138.5 914.8 1133.7L844.3 1102.5L842.1 1101.7C840.9 1100.9 839.5 1100.4 838.1 1100.1C836.3 1099.9 834.6 1100.4 832.8 1100.2C825.2 1101.9 819.7 1108.3 819 1116C816.2 1140.2 817.6 1164.9 823.4 1188.6C828.7 1212.3 837.9 1235 850.7 1255.7C853.6 1260.4 858.5 1263.4 864 1264C865.8 1264.3 867.6 1264.2 869.3 1263.9C871 1263.7 872.7 1263 874.1 1262C875.4 1261.4 876.4 1260.5 877.3 1259.4L879.3 1257.3L929.4 1198.4C935.4 1191.7 939.1 1183.2 940 1174.3C940.2 1170.3 940 1166.2 939.1 1162.2ZM1104.6 1334.8C1104.1 1333.6 1103.7 1331.8 1103.2 1330.6L1101.6 1328.1L1061.4 1262.1C1058.4 1256.5 1053.9 1251.7 1048.6 1248.2C1043 1244.5 1036.5 1242.2 1029.8 1241.6C1015.9 1240.3 1003.5 1246.2 995 1256L943.4 1313.5L941.4 1315.6C940.6 1316.8 939.9 1318.2 939.2 1319.5C938.5 1321.1 938.2 1322.9 938.1 1324.7C937.4 1332.3 941.4 1339.1 948.8 1342.8C993.5 1362.6 1043.3 1367.2 1090.8 1355.9C1098.4 1354.3 1104 1347.9 1104.6 1340.1C1105 1338.4 1105 1336.6 1104.6 1334.8Z" stroke="#494B50" stroke-width="4" stroke-miterlimit="10"/>
<path d="M1039.2 1188.3C1065.99 1188.3 1087.7 1166.59 1087.7 1139.8C1087.7 1113.01 1065.99 1091.3 1039.2 1091.3C1012.41 1091.3 990.7 1113.01 990.7 1139.8C990.7 1166.59 1012.41 1188.3 1039.2 1188.3Z" stroke="#494B50" stroke-width="4" stroke-miterlimit="10"/>
<path d="M1140.6 924.8C1139 927.8 1135.9 929.6 1132.5 929.4C1131.9 929.3 1130.8 928.6 1130.3 928.6C1126.3 927 1124.5 922.1 1125.9 918.2C1127.5 915.2 1130.6 913.4 1134 913.6C1134.8 913.7 1135.6 913.9 1136.2 914.4C1140.2 915.9 1142.1 920.8 1140.6 924.8ZM985.8 915.9C986.4 916 987.6 916.1 988.1 915.5C992.3 914.7 995 910.2 994.3 906C993.3 902.8 990.6 900.4 987.2 900C986.6 899.9 985.4 899.8 984.9 900.4C980.7 901.2 978 905.7 978.7 909.9C979.5 913.3 982.4 915.8 985.8 915.9ZM1201.2 955.7C1200 954.5 1198.5 953.7 1196.8 953.5C1194.4 953.4 1192 954.3 1190.2 955.8C1187.5 959.2 1187.8 964 1191 966.9C1192.1 968.2 1193.7 969 1195.4 969.1C1197.8 969.2 1200.2 968.3 1202 966.8C1204.7 963.5 1204.3 958.7 1201.2 955.7ZM918.4 927.9C916.6 927.7 915.5 928.2 913.7 929.3C910 931.3 908.9 936.5 910.9 940.1C912.2 942.2 914.5 943.4 917 943.6C918.8 943.8 919.9 943.3 921.7 942.2C925.4 940.2 926.5 935 924.5 931.4C923 929.5 920.8 928.2 918.4 927.9ZM1244.3 1010.7C1242.5 1010.5 1241.4 1011 1239.6 1012.1C1235.9 1014.1 1234.8 1019.3 1236.8 1022.9C1238.1 1025 1240.4 1026.2 1242.9 1026.4C1244.7 1026.6 1245.8 1026.1 1247.6 1025C1251.3 1023 1252.4 1017.8 1250.4 1014.2C1248.9 1012.3 1246.7 1011.1 1244.3 1010.7ZM855.2 988.8C856.3 990.1 857.9 990.9 859.6 991C862 991.1 864.4 990.2 866.2 988.7C868.9 985.3 868.6 980.5 865.4 977.6C864.3 976.3 862.7 975.4 861 975.4C858.6 975.3 856.2 976.2 854.4 977.7C851.7 981.1 852 985.9 855.2 988.8ZM1276.4 1154C1272.2 1153.6 1268.5 1156.7 1268.1 1160.9C1267.7 1165.1 1270.8 1168.8 1275 1169.2C1279.2 1169.6 1282.9 1166.5 1283.3 1162.3C1284.3 1158.2 1280.9 1154.4 1276.4 1154ZM810.5 1118.8C810.8 1114.7 807.7 1111 803.6 1110.5C799.4 1110.1 795.7 1113.2 795.3 1117.4C794.9 1121.6 798 1125.3 802.2 1125.7C806.4 1126 810.1 1123 810.5 1118.8ZM1260.2 1226.4C1259.8 1225.8 1259.2 1225.7 1258 1225.6C1254.6 1225.4 1251.4 1227.1 1249.9 1230.2C1248.3 1234.3 1250.2 1238.9 1254.3 1240.6C1254.9 1240.7 1256 1241.4 1256.5 1241.4C1259.9 1241.6 1263.1 1239.9 1264.6 1236.8C1266.1 1232.8 1264.2 1227.9 1260.2 1226.4ZM808.5 1184.3C807.9 1184.2 806.7 1184.1 806.2 1184.7C802 1185.5 799.3 1190 800 1194.2C800.7 1197.6 803.7 1200.1 807.1 1200.2C807.7 1200.3 808.9 1200.4 809.4 1199.8C813.6 1199 816.3 1194.5 815.6 1190.3C814.1 1187.2 811.5 1184.5 808.5 1184.3ZM1223.2 1290.6C1222 1289.5 1220.5 1288.6 1218.8 1288.4C1216.4 1288.3 1214 1289.2 1212.2 1290.7C1209.5 1294.1 1209.8 1298.9 1213 1301.8C1214.1 1303.1 1215.7 1303.9 1217.4 1304C1219.8 1304.1 1222.2 1303.2 1224 1301.7C1226.7 1298.5 1226.3 1293.6 1223.2 1290.6ZM835.6 1253.1C833.8 1252.9 832.7 1253.4 830.9 1254.5C827.2 1256.5 826.1 1261.7 828.1 1265.3C829.4 1267.4 831.7 1268.6 834.2 1268.8C836 1269 837.1 1268.5 838.9 1267.4C842.6 1265.4 843.7 1260.2 841.7 1256.6C840.7 1254.8 838 1253.4 835.6 1253.1ZM1092.6 1363.7C1092 1363.6 1090.8 1363.5 1090.3 1364.1C1086.1 1364.9 1083.4 1369.4 1084.1 1373.6C1084.8 1377 1087.8 1379.5 1091.2 1379.6C1091.8 1379.7 1093 1379.8 1093.5 1379.2C1097.7 1378.4 1100.4 1373.9 1099.7 1369.7C1098.2 1366 1095.5 1363.9 1092.6 1363.7ZM948.9 1351C948.2 1350.5 947.5 1350.3 946.7 1350.2C943.3 1350 940.1 1351.7 938.6 1354.8C937 1358.9 938.9 1363.5 943 1365.2C943.6 1365.3 944.7 1366 945.2 1366C948.6 1366.2 951.8 1364.5 953.3 1361.4C954.7 1357.5 952.9 1352.6 948.9 1351ZM1018.2 1368.6C1014 1368.2 1010.3 1371.3 1009.9 1375.5C1009.5 1379.7 1012.6 1383.4 1016.8 1383.8C1021 1384.2 1024.7 1381.1 1025.1 1376.9C1025.4 1372.6 1022.4 1368.9 1018.2 1368.6Z" stroke="#494B50" stroke-width="4" stroke-miterlimit="10"/>
<path d="M3778.1 1512.5C3982.45 1512.5 4148.1 1346.85 4148.1 1142.5C4148.1 938.155 3982.45 772.5 3778.1 772.5C3573.75 772.5 3408.1 938.155 3408.1 1142.5C3408.1 1346.85 3573.75 1512.5 3778.1 1512.5Z" fill="#6D7178" stroke="#494B50" stroke-width="4" stroke-miterlimit="10"/>
<path d="M3778.1 1434.9C3939.59 1434.9 4070.5 1303.99 4070.5 1142.5C4070.5 981.012 3939.59 850.1 3778.1 850.1C3616.61 850.1 3485.7 981.012 3485.7 1142.5C3485.7 1303.99 3616.61 1434.9 3778.1 1434.9Z" stroke="#494B50" stroke-width="4" stroke-miterlimit="10"/>
<path d="M3778.1 865.9C3930.7 865.9 4054.7 989.9 4054.7 1142.5C4054.7 1295.1 3930.7 1419.1 3778.1 1419.1C3625.5 1419.1 3501.5 1295.1 3501.5 1142.5C3501.5 989.9 3625.5 865.9 3778.1 865.9Z" stroke="#494B50" stroke-width="4" stroke-miterlimit="10"/>
<path d="M3778.1 1400.9C3920.81 1400.9 4036.5 1285.21 4036.5 1142.5C4036.5 999.79 3920.81 884.1 3778.1 884.1C3635.39 884.1 3519.7 999.79 3519.7 1142.5C3519.7 1285.21 3635.39 1400.9 3778.1 1400.9Z" stroke="#494B50" stroke-width="4" stroke-miterlimit="10"/>
<path d="M3948.3 1315.6C3948 1316.8 3947.4 1317.8 3946.5 1318.6C3946.4 1318.7 3944.3 1320.9 3940.1 1324.7C3934.1 1330 3927.9 1335 3921.4 1339.7C3905 1351.6 3893.5 1356.8 3893.4 1356.8H3893.2C3892.3 1357.2 3891.3 1357.5 3890.3 1357.6H3889.3C3888 1356.8 3887 1355.7 3886.2 1354.4L3803.7 1212C3816.4 1207.4 3827.6 1199.4 3836.1 1188.9L3946.3 1311.3L3946.4 1311.4C3946.6 1311.3 3948.3 1313.2 3948.3 1315.6ZM4017.5 1099.3C4017.5 1099.1 4015.6 1086.4 4009.5 1067.2C4003.4 1048 3997.1 1037.2 3997 1037.1L3996.9 1037L3996.8 1036.9C3996.3 1035.9 3995.5 1035 3994.5 1034.3C3994.1 1034.2 3993.8 1034.1 3993.4 1033.9C3993.4 1033.8 3993.4 1033.8 3993.3 1033.8C3992.1 1033.8 3990.8 1034.1 3989.7 1034.6H3989.6L3839.7 1101.5C3847.3 1112.7 3851.6 1125.8 3852.2 1139.4L4012.9 1105.4H4013.2C4014.7 1105.2 4016 1104.3 4016.9 1103.1L4017 1103L4017.1 1102.9C4017.5 1101.8 4017.7 1100.5 4017.5 1099.3ZM3814 902.7C3813.1 902 3812 901.6 3810.9 901.4H3810.7C3810.6 901.3 3798.4 899.1 3778.1 899.1C3757.8 899.1 3745.7 901.4 3745.5 901.4H3745.3C3744.1 901.5 3743 902 3742.1 902.7V902.8C3741.4 904 3741 905.3 3741.1 906.7V907.4L3758.4 1071C3764.8 1069.2 3771.4 1068.3 3778 1068.2C3784.7 1068.1 3791.3 1069 3797.7 1070.8L3814.9 907.5V907.3C3815.1 907.4 3815.4 904.8 3814 902.7ZM3566 1034.4L3565.5 1034.2C3564.7 1033.8 3563.9 1033.6 3563 1033.6L3562.7 1034L3561.5 1034.2C3561 1034.3 3560.1 1035.5 3559.6 1036.5L3559.5 1036.7L3559.4 1036.9C3559.4 1037 3553.2 1047.9 3546.9 1067C3540.7 1086.3 3538.9 1099 3538.9 1099.1C3538.8 1100.2 3538.9 1101.4 3539.3 1102.5C3540.5 1103.7 3541.9 1104.6 3543.5 1105.1L3704 1139.1C3704.6 1125.6 3708.8 1112.4 3716.4 1101.2L3566 1034.4ZM3720 1188.4L3610 1310.8L3609.9 1310.9L3609.8 1311C3608.8 1312.1 3608.1 1313.6 3608 1315.1C3608.1 1315.6 3608.3 1316.1 3608.6 1316.6C3608.9 1317.2 3609.3 1317.7 3609.7 1318.1C3609.8 1318.2 3618.5 1327.4 3634.9 1339.3C3651.3 1351.2 3662.8 1356.3 3662.9 1356.4H3663.1C3664 1356.8 3665 1357 3666 1357.1H3667C3668.3 1356.3 3669.3 1355.2 3670.1 1353.9L3752.5 1211.6C3739.7 1207.1 3728.4 1199.1 3720 1188.4Z" stroke="#494B50" stroke-width="4" stroke-miterlimit="10"/>
<path d="M3852.3 1148.9C3846.8 1148.9 3841.6 1151.5 3838.3 1155.9C3832.4 1163.5 3834.2 1174.6 3842.4 1180.5C3845.4 1182.8 3849.1 1184.1 3852.9 1184C3858.4 1184 3863.6 1181.4 3866.9 1177C3872.8 1169.4 3871 1158.3 3862.8 1152.4C3860.1 1150 3856.5 1148.9 3852.3 1148.9ZM3824.3 1061.8C3820.5 1061.9 3816.9 1063.1 3813.8 1065.3C3806.2 1071.1 3804.4 1081.9 3809.7 1089.9C3813 1094.3 3818.2 1096.9 3823.7 1096.9C3827.5 1096.8 3831.1 1095.6 3834.2 1093.4C3841.8 1087.6 3843.6 1076.8 3838.3 1068.8C3835 1064.4 3829.8 1061.8 3824.3 1061.8ZM3732 1061.8C3730.2 1061.7 3728.4 1061.9 3726.7 1062.4C3717.3 1065.3 3712.7 1075.3 3715.7 1084.6C3718 1092 3724.9 1097 3732.7 1096.9C3734.5 1097 3736.3 1096.8 3738 1096.3C3747.4 1093.4 3752 1083.4 3749 1074.1C3746.7 1066.7 3739.8 1061.7 3732 1061.8ZM3778.1 1203.3C3770.5 1203.3 3764.1 1207.9 3761.1 1215.6C3758.2 1225 3763.4 1234.9 3772.1 1237.8C3773.8 1238.3 3775.6 1238.5 3777.4 1238.4C3785 1238.4 3791.4 1233.8 3794.4 1226.1C3797.3 1216.7 3792.1 1206.8 3783.4 1203.9C3781.7 1203.4 3779.9 1203.2 3778.1 1203.3ZM3703.9 1148.9C3694.2 1148.9 3686.4 1156.7 3686.4 1166.4C3686.4 1176.1 3694.2 1183.9 3703.9 1183.9C3713.6 1183.9 3721.4 1176.1 3721.4 1166.4C3721.4 1156.8 3713.5 1149 3703.9 1148.9Z" stroke="#494B50" stroke-width="4" stroke-miterlimit="10"/>
<path d="M3999.8 1138.4C3999.8 1162.8 3996.1 1187 3988.8 1210.3C3981.2 1234.2 3969.5 1255.3 3955.5 1274.6C3952.2 1279 3947 1281.6 3941.5 1281.6C3939.7 1281.7 3937.9 1281.5 3936.2 1281C3934.6 1280.5 3933 1279.7 3931.6 1278.7C3930.4 1278.1 3929.8 1276.9 3928.7 1275.8L3926.9 1273.5L3882.4 1210.3C3874.2 1200.3 3871.9 1186.4 3876 1173.5C3880 1160.8 3890 1150.9 3902.8 1147.1L3975.9 1122.5L3978.2 1121.9C3979.5 1121.4 3980.9 1121.2 3982.3 1121.3C3984.6 1121.3 3986.4 1121.9 3987.6 1121.3C3994.4 1123.8 3999.8 1130.7 3999.8 1138.4ZM3960.5 1014.4C3946.4 994.6 3929.2 977.3 3909.6 963C3889.2 948.4 3867.6 937.2 3844.7 930.3C3842.6 929.9 3840.4 929.7 3838.3 929.7C3832.8 929.7 3827.6 932.3 3824.3 936.7C3823.2 938 3822.4 939.6 3822 941.3C3821.5 942.6 3821.3 944 3821.4 945.4V948.3L3822.6 1025.5C3822.6 1032 3824.1 1038.4 3826.9 1044.2C3833.6 1058.3 3847.9 1067.2 3863.5 1067C3868.1 1067.1 3872.7 1066.3 3877 1064.7L3950.7 1041.9L3953 1041.3C3954.3 1040.7 3955.5 1039.9 3956.5 1039C3958.2 1037.9 3959.5 1036.6 3960.6 1034.9C3964.9 1028.8 3964.9 1020.5 3960.5 1014.4ZM3735.5 941.3C3735.1 939.6 3734.3 938 3733.2 936.7C3729.1 932.6 3723.8 929.7 3718 929.7C3716.2 929.6 3714.4 929.8 3712.7 930.3C3689.3 937.4 3667.4 948.4 3647.8 963C3628 977.1 3610.8 994.5 3596.9 1014.4C3592.5 1020.5 3592.5 1028.7 3596.9 1034.8C3598.1 1036 3599.2 1037.7 3601 1038.9C3602.2 1039.5 3603.3 1040.7 3604.5 1041.2L3606.8 1041.8L3680.5 1064.6C3682.6 1065.5 3684.8 1066.1 3687 1066.5C3689.3 1066.9 3691.6 1067 3693.9 1067C3702.5 1067 3710.8 1064.4 3717.8 1059.4C3728.5 1051.4 3734.8 1038.8 3734.8 1025.4L3736 948.2V945.3C3736.1 944.3 3735.5 942.5 3735.5 941.3ZM3680.5 1174C3676.5 1161.4 3666.4 1151.5 3653.7 1147.8L3580.6 1123.2L3578.3 1122.6C3577 1121.9 3575.6 1121.5 3574.2 1121.4C3572.4 1121.4 3570.7 1122 3568.9 1122C3561.5 1124.4 3556.6 1131.3 3556.6 1139C3556 1163.4 3559.7 1187.8 3567.6 1210.9C3575 1234 3586.3 1255.8 3600.9 1275.2C3604.2 1279.6 3609.4 1282.2 3614.9 1282.2C3616.7 1282.3 3618.5 1282.1 3620.2 1281.6C3621.9 1281.2 3623.5 1280.4 3624.8 1279.3C3626 1278.6 3627 1277.6 3627.7 1276.4L3629.5 1274.1L3674 1210.9C3679.4 1203.7 3682.3 1194.9 3682.3 1185.9C3682.3 1181.9 3681.7 1177.9 3680.5 1174ZM3861.1 1330.7C3860.5 1329.5 3859.9 1327.8 3859.3 1326.6L3857.5 1324.3L3811.4 1262.3C3807.9 1257 3803 1252.6 3797.4 1249.6C3791.5 1246.4 3784.8 1244.7 3778.1 1244.7C3764.1 1244.7 3752.3 1251.7 3744.8 1262.2L3698.7 1324.2L3696.9 1326.5C3696.2 1327.8 3695.6 1329.2 3695.1 1330.6C3694.6 1332.3 3694.4 1334.1 3694.5 1335.9C3694.5 1343.5 3699.1 1349.9 3706.8 1352.9C3753.1 1368.5 3803.1 1368.5 3849.4 1352.9C3856.8 1350.6 3861.8 1343.7 3861.7 1335.9C3861.8 1334.2 3861.6 1332.4 3861.1 1330.7Z" stroke="#494B50" stroke-width="4" stroke-miterlimit="10"/>
<path d="M3778.1 1191C3804.89 1191 3826.6 1169.29 3826.6 1142.5C3826.6 1115.71 3804.89 1094 3778.1 1094C3751.31 1094 3729.6 1115.71 3729.6 1142.5C3729.6 1169.29 3751.31 1191 3778.1 1191Z" stroke="#494B50" stroke-width="4" stroke-miterlimit="10"/>
<path d="M3859.4 919.1C3858.1 922.2 3855.2 924.3 3851.8 924.4C3851.2 924.4 3850 923.8 3849.5 923.8C3845.4 922.6 3843.1 917.9 3844.2 913.8C3845.5 910.7 3848.4 908.6 3851.8 908.5C3852.6 908.5 3853.4 908.7 3854.1 909.1C3858.2 910.3 3860.5 915 3859.4 919.1ZM3704.4 924.4C3705 924.4 3706.2 924.4 3706.7 923.8C3710.8 922.6 3713.1 917.9 3712 913.8C3710.7 910.7 3707.8 908.6 3704.4 908.5C3703.8 908.5 3702.6 908.5 3702.1 909.1C3698 910.3 3695.7 915 3696.8 919.1C3697.8 922.4 3701 924.6 3704.4 924.4ZM3922.5 944.3C3921.2 943.2 3919.6 942.6 3917.9 942.5C3915.5 942.6 3913.2 943.7 3911.5 945.4C3909.1 949 3909.9 953.8 3913.3 956.4C3914.5 957.6 3916.2 958.2 3917.9 958.2C3920.3 958.1 3922.6 957 3924.3 955.3C3926.7 951.8 3925.9 947 3922.5 944.3ZM3638.4 942.5C3636.6 942.5 3635.5 943.1 3633.8 944.3C3630.3 946.6 3629.7 951.9 3632 955.3C3633.5 957.3 3635.9 958.3 3638.4 958.2C3640.2 958.2 3641.3 957.6 3643 956.4C3646.5 954.1 3647.1 948.8 3644.8 945.4C3643.1 943.7 3640.8 942.6 3638.4 942.5ZM3970.5 995.1C3968.7 995.1 3967.6 995.7 3965.9 996.9C3962.4 999.2 3961.8 1004.5 3964.1 1007.9C3965.6 1009.9 3968 1010.9 3970.5 1010.8C3972.3 1010.8 3973.4 1010.2 3975.1 1009C3978.6 1006.7 3979.2 1001.4 3976.9 998C3975.2 996.3 3972.9 995.3 3970.5 995.1ZM3581 1009C3582.2 1010.2 3583.9 1010.8 3585.6 1010.8C3588 1010.7 3590.3 1009.6 3592 1007.9C3594.4 1004.3 3593.6 999.5 3590.2 996.9C3589 995.7 3587.3 995 3585.6 995.1C3583.2 995.2 3580.9 996.3 3579.2 998C3576.8 1001.6 3577.6 1006.4 3581 1009ZM4015.6 1134.9C4011.4 1134.9 4008 1138.3 4008 1142.5C4008 1146.7 4011.4 1150.1 4015.6 1150.1C4019.8 1150.1 4023.2 1146.7 4023.2 1142.5C4023.8 1138.4 4020.1 1134.9 4015.6 1134.9ZM3548.4 1142.5C3548.3 1138.4 3544.9 1135 3540.8 1134.9C3536.6 1134.9 3533.2 1138.3 3533.2 1142.5C3533.2 1146.7 3536.6 1150.1 3540.8 1150.1C3545 1150.1 3548.4 1146.7 3548.4 1142.5ZM4006.1 1208.5C4005.6 1207.9 4005 1207.9 4003.8 1207.9C4000.4 1208 3997.4 1210 3996.2 1213.2C3995 1217.4 3997.3 1221.8 4001.5 1223.2C4002.1 1223.2 4003.3 1223.8 4003.8 1223.8C4007.2 1223.7 4010.2 1221.7 4011.4 1218.5C4012.5 1214.3 4010.2 1209.6 4006.1 1208.5ZM3552.4 1207.9C3551.8 1207.9 3550.6 1207.9 3550.1 1208.5C3546 1209.7 3543.7 1214.4 3544.8 1218.5C3545.8 1221.8 3549 1224 3552.4 1223.8C3553 1223.8 3554.2 1223.8 3554.7 1223.2C3558.8 1222 3561.1 1217.3 3560 1213.2C3558.3 1210.3 3555.4 1207.9 3552.4 1207.9ZM3975.1 1275.8C3973.8 1274.8 3972.2 1274.1 3970.5 1274C3968.1 1274.1 3965.8 1275.2 3964.1 1276.9C3961.7 1280.5 3962.5 1285.3 3965.9 1287.9C3967.1 1289.1 3968.8 1289.7 3970.5 1289.7C3972.9 1289.6 3975.2 1288.5 3976.9 1286.8C3979.3 1283.2 3978.5 1278.5 3975.1 1275.8ZM3585.7 1274C3583.9 1274 3582.8 1274.6 3581.1 1275.8C3577.6 1278.1 3577 1283.4 3579.3 1286.8C3580.8 1288.8 3583.2 1289.8 3585.7 1289.7C3587.5 1289.7 3588.6 1289.1 3590.3 1287.9C3593.8 1285.6 3594.4 1280.3 3592.1 1276.9C3591 1275.2 3588.1 1274 3585.7 1274ZM3851.8 1360.5C3851.2 1360.5 3850 1360.5 3849.5 1361.1C3845.4 1362.3 3843.1 1367 3844.2 1371.1C3845.2 1374.4 3848.4 1376.6 3851.8 1376.4C3852.4 1376.4 3853.6 1376.4 3854.1 1375.8C3858.2 1374.6 3860.5 1369.9 3859.4 1365.8C3857.6 1362.3 3854.7 1360.5 3851.8 1360.5ZM3707.5 1361.1C3706.8 1360.7 3706 1360.5 3705.2 1360.5C3701.8 1360.6 3698.8 1362.6 3697.6 1365.8C3696.4 1370 3698.7 1374.4 3702.9 1375.8C3703.5 1375.8 3704.7 1376.4 3705.2 1376.4C3708.6 1376.3 3711.6 1374.3 3712.8 1371.1C3713.9 1367 3711.6 1362.3 3707.5 1361.1ZM3778.1 1372.2C3773.9 1372.2 3770.5 1375.6 3770.5 1379.8C3770.5 1384 3773.9 1387.4 3778.1 1387.4C3782.3 1387.4 3785.7 1384 3785.7 1379.8C3785.7 1375.6 3782.3 1372.2 3778.1 1372.2Z" stroke="#494B50" stroke-width="4" stroke-miterlimit="10"/>
</g>
<defs>
<filter id="filter0_d" x="-1" y="0" width="4732.5" height="1524.8" filterUnits="userSpaceOnUse" color-interpolation-filters="sRGB">
<feFlood flood-opacity="0" result="BackgroundImageFix"/>
<feColorMatrix in="SourceAlpha" type="matrix" values="0 0 0 0 0 0 0 0 0 0 0 0 0 0 0 0 0 0 127 0"/>
<feOffset dy="4"/>
<feGaussianBlur stdDeviation="2"/>
<feColorMatrix type="matrix" values="0 0 0 0 0 0 0 0 0 0 0 0 0 0 0 0 0 0 0.25 0"/>
<feBlend mode="normal" in2="BackgroundImageFix" result="effect1_dropShadow"/>
<feBlend mode="normal" in="SourceGraphic" in2="effect1_dropShadow" result="shape"/>
</filter>
<clipPath id="clip0">
<rect width="4724.5" height="1516.8" fill="white" transform="translate(3)"/>
</clipPath>
</defs>
</svg>
