<?xml version="1.0" encoding="utf-8"?>
<!-- Generator: Adobe Illustrator 25.1.0, SVG Export Plug-In . SVG Version: 6.00 Build 0)  -->
<svg version="1.1" id="Layer_1" xmlns="http://www.w3.org/2000/svg" xmlns:xlink="http://www.w3.org/1999/xlink" x="0px" y="0px"
	 viewBox="0 0 5040 3780" style="enable-background:new 0 0 5040 3780;" xml:space="preserve">
<style type="text/css">
	.st0{fill:#EEF1F6;}
	.st1{opacity:0.75;}
	.st2{fill:none;stroke:#C4C9D4;stroke-width:8;stroke-linejoin:round;stroke-miterlimit:10;}
</style>
<rect y="0" class="st0" width="5040" height="3780"/>
<g id="Layer_1_1_" class="st1">
	<g>
		<path id="Outer_2_" class="st2" d="M462.7,1878.8c0,0-39,18.5-47.1,34.1c-7.4,14.2-7.4,36.8-7.4,36.8s23.2,237.2,37.8,260.3
			c14.7,23.1,40.6,37.8,40.6,37.8c36.2,4,334.1,55.1,415.7,56.4c8,0.1,64.7,0.8,61.7-6.6c0-0.1-0.1-0.2-0.1-0.3h0.3
			c0-13,12.4-10.5,12.4-10.5h24.9l8.7-0.1 M4082.9,2321.8c0,0,26.6,29.9,32.6,34.8c16.8,14.2,5.6,25.4,10.6,30.3
			c4.3,4.2,62.6,26.7,72.9,32.5c0.7,0.6,1.4,1.2,2.2,1.6c114.4-4.7,256.9-25.5,313.4-32.2c56.9-6.8,110.2-35.7,88.9-55.5
			c-4.7-1.9-10.9-3.8-14.8-14.9s12.3-147,12.3-147c0.9-18.3,5.3-95.2,2.4-119.9c-0.9-8.4-10.5-25.2-10.5-25.2s-21.5-25.5-35.5-39.3
			c-5.4-5.3-53-47.4-90.9-78.3c-27-20.7-137-138.2-175.1-158.5c-85.3-21.8-271-53-368.6-67.6c-41.7-6.2-160.2-20.1-260-28
			c-95.1-7.5-394.9-69.7-411.5-71.4c-2.9-2.7-6-5-9.4-7c-1.3-10.1-4.1-19.1,2.4-16.5c49.2-42-87-23.3-107-33.3l21.6,16.1
			c12.9,1.3,29.5,4.4,40.2,12.2l20.8-1.5c-6.5,1.9-8.6,6.5-8.6,6.5c-7.3-1.3-12.4,4.6-14.2,7c-2-0.8-3.9-1.7-5.6-2.4l-0.4,0.4v0.2
			l0,0l-0.2-0.1l-7.8-4.3l0,0c-0.1,0-0.1,0-0.2-0.1l-2.1,1.1l-0.3,0.2c0,0-1.5,0.8-2.3,1.2c-3,1.4-6.5,3-10.3,4.4
			c-0.9,0.4-1.7,0.6-2.6,1c-0.5,0.2-1.1,0.4-1.6,0.6l-1.6,0.5c-1.1,0.4-2.2,0.8-3.4,1.2c-1.2,0.4-2.3,0.7-3.6,1.1
			c-1.3,0.4-2.4,0.7-3.7,1.1l-3.8,1.1c-0.6,0.2-1.3,0.4-2,0.5l-3.9,1.1c-4.3,1.1-8.9,2.1-13.5,3.1c-2.6,0.5-5.3,1.1-8,1.6
			c-2.7,0.5-5.5,1-8.2,1.5c-4.2,0.7-8.4,1.3-12.7,2l-4.3,0.5c-2,0.3-3.8,0.4-5.8,0.7s-3.9,0.4-5.9,0.6c-2.6,0.3-5.2,0.4-7.9,0.6
			l-4.3,0.3h-0.6c-8.3,0.5-16.7,0.7-25,0.6c-1.6,0-3.2,0-4.7-0.1c-1.3,0-2.4-0.1-3.7-0.1l-6-0.3c-2-0.1-3.9-0.3-5.9-0.4
			c-0.7-0.1-1.5-0.2-2.2-0.2c-1.2-0.1-2.3-0.2-3.5-0.4c-1.7-0.2-3.3-0.4-5-0.6c-1-0.2-2-0.4-3-0.7c-0.4-0.1-0.7-0.2-1.1-0.4
			c-0.1,0-0.2,0-0.3-0.1c-0.4-0.1-0.7-0.2-1.1-0.4c-0.2-0.1-0.4-0.2-0.6-0.2c-0.4-0.1-0.7-0.3-1-0.4h-0.1c-0.4-0.2-1-0.4-1.4-0.5
			c-0.4-0.2-1-0.4-1.4-0.5c-0.5-0.2-1-0.4-1.4-0.6c-0.3-0.1-0.6-0.3-0.9-0.4c-2.1-0.9-4.2-2-6.3-3.1c-0.4-0.3-1-0.5-1.4-0.8
			c-0.4-0.3-1-0.5-1.4-0.8s-0.9-0.5-1.4-0.8c-1.3-0.8-2.8-1.7-4.1-2.6c-0.4-0.3-0.9-0.6-1.3-0.9c-0.4-0.3-0.9-0.6-1.3-0.9l-2.7-1.9
			c-5.7-4-11.3-8.5-16.5-13c-0.4-0.4-1-0.9-1.5-1.3c-2.1-1.8-4-3.6-5.9-5.4c-0.4-0.3-0.7-0.6-1-1c-5.7-5.4-10.6-10.4-14.5-14.4
			c-0.3-0.3-0.5-0.5-0.7-0.8c-1.2-1.2-2.1-2.3-3-3.3c-0.1-0.2-0.3-0.3-0.4-0.4c-2.1-2.3-3.5-3.8-4-4.6l-0.1-0.1
			c-0.1-0.1-0.1-0.1-0.1-0.2c0-0.1,0-0.1-0.1-0.1l0,0l0,0l-238.6-247.9c-2.4-2.5-4.7-5.2-6.9-7.8c-0.5-0.6-1.1-1.3-1.5-2
			c-0.3-0.4-0.5-0.7-0.7-1c-0.4-0.4-0.6-0.9-0.9-1.3c-0.2-0.2-0.3-0.4-0.4-0.6c-0.3-0.4-0.5-0.9-0.8-1.3c-0.3-0.4-0.4-0.7-0.7-1.1
			c-0.1-0.1-0.2-0.2-0.2-0.4c-0.4-0.7-0.8-1.3-1.2-2.1l-0.5-1.1l-0.5-1.1c-0.1-0.3-0.3-0.5-0.4-0.8c-0.3-0.4-0.4-1-0.6-1.5l0,0
			c-0.4-0.8-0.6-1.7-0.9-2.5l0,0c-2.5-8.1-1.3-16.3,5.9-24.1l0.5-0.5l0,0l0.5-0.5c0.4-0.4,0.8-0.8,1.3-1.2c0.3-0.2,0.4-0.4,0.6-0.6
			l0,0c0.5-0.5,1.2-1,1.8-1.5c1-0.7,2-1.5,3-2.2c0.7-0.5,1.4-1,2.2-1.5l0,0c0.7-0.4,1.5-1,2.3-1.4c1.3-0.8,2.7-1.5,4.2-2.3
			c0.9-0.4,1.8-0.9,2.8-1.3c0.6-0.3,1.3-0.6,1.9-0.9c0.4-0.2,0.6-0.3,1-0.4c0.7-0.4,1.4-0.6,2.1-1c0.7-0.4,1.5-0.6,2.2-1
			c0-0.2-1.6-5.1-7.5-9.4c-7.8-5.6-13.8-4.4-13.8-4.4c-13.3-7.5-162.4-30.9-361.8-28c-171.9,2.5-381.4,18-574.5,61.8
			c-19,4.3-18.3,32.4-35.1,39.6c-16.8,7.2-125,39.7-125,39.7c-128.2,42.4-301,106.8-425,160.2c-36.7,15.8-65.5,34.2-113.4,41.5
			c-65.5,5.8-130.6,14.3-195.5,21.5c-7.2,0.4-15.6-4.5-15.6-4.5c-37.7-30.8-96.8-62.2-171.7-62.1c-58.8,4.8-75.9,24.1-52.8,68.1
			c18,29.2,47.1,93.5,47.1,93.5c32.1,54.4-13.1,79.3-64.1,107c-17.9,9.7-59.5,27-61.6,46c-1.7,1.2-4.2,3.1-7.1,5.8 M3353.2,2332.2
			L3353.2,2332.2c0.1,0,33.7-4.8,119-9.1h6.8 M1654.5,2283.5l8.8-0.8l81.3,8 M1760,1576.7h-0.7c-0.1,0-10.8,0.2-28.5,0.2
			c-44.4,0-130.4-1.3-208.3-9.4c-42.8-4.5-77.3-10.8-102.7-17.8c-30-8.2-46.4-18.2-41.7-32c3.4-7.3,13.1-19.8,39.7-37.3
			c18.7-12.3,43-25.2,72.2-38.3c50.3-22.7,98.1-38.3,98.5-38.4l0.3-0.1l0.3-0.1c0.5-0.2,53.7-19.3,126.7-41.4
			c43.5-13.1,99.9-29.1,157.4-42.2l88.8,259.5L1760,1576.7z M2265.1,1583.7l-245.1-3.4l-90.7-272.2c12.7-2.4,25.2-4.6,37.5-6.4
			c164.8-25.4,401.2-33.3,403.6-33.4c0.3,0,23.3-0.7,55.6-0.7c26,0,62.2,0.5,97.4,2.6l118.1,313.5L2265.1,1583.7L2265.1,1583.7z
			 M2801.3,1475.5c-13.7,3.6-26.2,10.6-36.5,20.2c-2.2,2.1-4.5,4.3-6.5,6.6c-16,17.9-25,40.6-24.3,58.9c0,0-2.8,10.6,6.3,22.3v0.1
			h-75.7l-115.4-311.6c60.3,5.5,70.5,10.7,169.7,115.9C2752.3,1423.2,2787.2,1457.6,2801.3,1475.5z M4533.2,2137.2h-101.9
			c-15.3,0-35.5-22.7-36.4-46.8c-0.9-24.4,3.9-28,20.4-28c31.2,0,115.9,0.6,141.9,0.6c26.7,0,29.5-3.3,32.3,5.1
			c2.8,8.4,1.4,53.2-6.5,61.6S4533.2,2137.2,4533.2,2137.2L4533.2,2137.2z"/>
		<path class="st2" d="M3251.1,1582.8c-13-1.4-31.5-7.5-46.4-13.3c-2.8-1.1-5.4-2.1-7.8-3.1c-2.4-1-0.9,1.2-0.9,1.2
			c-19.3,19.4-120.6,38.5-186.1,29.8c-20.5-4.3-44.3-24.6-60.7-40.9l-0.1-0.1c-12-11.9-20.1-21.7-20.1-21.7l-245.7-255.8
			c-20.3-21.3-43.5-68.9,7.2-81.5 M964.2,2297.6c-1.9-5.1-17.6-1.3-27.5-14.2c-6.7-8.9-3.1-77-3.1-77
			c3.8-130.4,46.4-231,113.7-300.2c72.2-74.3,172.9-112.5,284.9-112.5c160.1,0,323.4,100.2,394.7,306.5
			c9.3,39.7,13.4,71.3,15.4,99.8h-0.2c2.1,31.7,1.6,59.6,2.5,90.8c0.6,20.2,1.7,41.7,4.6,66.4c7.1,7.2,60.9,1.3,107.3-8.9
			c350.4-35.8,118.9-11.6,660.7-10.7c549.6,12.8,699.3,13.9,742.2,23.1c42.9,9.2,65.7,8,77.6,2.5c11.9-5.5,16.9-11.5,17.6-59.8
			c0.4-22.5,1.8-44.8,4.2-66.4c-3.6,1.5-3.6,1.4,0.1-0.1c35.3-315.2,287.6-530.1,633.1-369.1c241.8,117.1,246.4,353.9,205,524.4
			c-5.7,2.9-6.1,20.6,2.5,27.5c0.5,0.4,1.1,0.8,1.7,1.2 M1983.8,1599.6l-224.1-3.1c0,0-10.8,0.2-28.9,0.2
			c-88.1,0-348.8-4.8-371.8-61.4c-27.8-68.7,223.6-150.1,223.6-150.1s213.5-77,381.4-102.8s405.9-33.6,405.9-33.6s23.2-0.7,56.2-0.7
			c67.8,0,182.1-4.3,211,22.4c45.3,41.8,52.8,43.6,201.7,200l8.9,9.1c0.1,0,0.2,0.1,0.3,0.1 M1742.6,2200c0.2,0,0.5,0,0.8,0
			C1743.1,2200,1742.8,2200,1742.6,2200z M1747.7,2200c0.4,0,1,0,1.5,0C1748.6,2199.9,1748.1,2199.9,1747.7,2200z"/>
		<line class="st2" x1="2020" y1="1580.3" x2="1962" y2="1579.4"/>
		<line class="st2" x1="1929.4" y1="1308" x2="1873.2" y2="1319.9"/>
		<line class="st2" x1="2549.2" y1="1272.1" x2="2523.4" y2="1270.1"/>
		<line class="st2" x1="2664.6" y1="1583.7" x2="2641.5" y2="1583.7"/>
		<path id="Door_2_" class="st2" d="M3199,1670.8c-35.6-45.2-166.3-47.2-166.3-47.2s-26.7,0.7-45.6-7c-18.9-7.7-23.1-13.3-23.1-13.3
			h-17.4c-0.5,5.8-1.4,11.5-2,18.9c-1.4,17.5-34.3,29.8-64.4,28s-44.8-7-51.1-19.6c-6.3-12.6,27.3-27.3,27.3-27.3h-68.8
			c-13.9-1.3-26.6-3.8-34.1-8.4c-5-3-9.6-6.8-13.2-11.3c-9.1-11.6-6.3-22.4-6.3-22.4c-0.7-18.3,8.3-41,24.3-58.9
			c-16.2,17.8-25.2,40.7-24.5,59c0,0-2.8,10.6,6.3,22.3l0.1,0.1c3.7,4.6,8.1,8.3,13.2,11.3c7.5,4.6,20.2,7.1,34.1,8.4H2265
			l-281.1-3.8"/>
		<line id="Rear_Bumper_Line_1_" class="st2" x1="1055.3" y1="1898.2" x2="696.1" y2="1883.3"/>
		<path id="Skirt-2_1_" class="st2" d="M3359.9,2236.4c0,0-14.9,7.2-31.7,7.2c-16.8,0-48.6-7.4-70.9-10.3s-44.5-5.1-102.7-7.4
			c-58.1-2.3-353-8.7-353-8.7l-332.2-7l-260.6-7.4c0,0-143.3-8.1-251-6.8c-107.8,1.3-216.2,4.1-216.2,4.1"/>
		<path id="Door_Front_1_" class="st2" d="M2946.6,1603.3h17.4c0,0,4.2,5.6,23.1,13.3c18.9,7.7,45.6,7,45.6,7s130.7,2.1,166.3,47.2
			c68.9,87.6,10.6,436.9,3,557.5"/>
		<path id="Door-2_1_" class="st2" d="M1983.9,1599.4c0,0-13.1,26.3-13.1,60.1c0,38.3,26.1,116.6,26.1,116.6s42.5,131.1,63.5,179.1
			c21,48,60.2,161.4,103.1,187.1s146,21.9,255.7,24.2c109.6,2.3,505.2,11.2,505.2,11.2l282.3,8.6"/>
		<path id="Front_Bumper_Line_3_" class="st2" d="M4144.6,1991.9"/>
		<path id="Bumper_LIght_1_" class="st2" d="M4394.9,2090.4c-0.9-24.4,3.9-28,20.4-28"/>
		<path id="_2_1_" class="st2" d="M2946.6,1603.3c-0.5,5.8-1.4,11.5-2,18.9c-1.4,17.5-34.3,29.8-64.4,28c-30-1.8-44.8-7-51.1-19.6
			c-6.3-12.6,27.3-27.3,27.3-27.3h-68.8c-13.9-1.3-26.6-3.8-34.1-8.4c-5-3-9.6-6.8-13.2-11.3c-9.1-11.6-6.3-22.4-6.3-22.4
			c-1.3-31.1,25.8-75.3,67.8-85.8c5.3-1.3,10.7-2.1,16.2-2.3c9.5-0.4,19.7,2.1,30,6.4c45.2,19,92.9,74.5,96.7,93.6
			c1,4.8,1.7,9.7,2.1,14.7C2947.1,1593,2947,1598.2,2946.6,1603.3z"/>
		<path id="_1_1_" class="st2" d="M2856.4,1603.3c0,0,22.1,9.5,44.8,7.7c22.7-1.8,45.4-7.7,45.4-7.7"/>
		<path id="Wing_Crease_1_" class="st2" d="M1086.5,1505.4c-20.1,10-27.8,46.4-27.8,46.4"/>
		<path id="Wing_Lower_1_" class="st2" d="M588.1,1743.6c91.8-55.6,879.8-346.8,879.8-346.8s200.8-70,374.4-104.3
			c173.6-34.2,290.6-43.3,423-49.9c323.6-16.1,344.4-2,402.9,55.8"/>
		<path id="Handle_3_1_" class="st2" d="M2180.5,1739L2180.5,1739c-0.5,0.8-1.2,1.6-1.9,2.4l0,0c-9.9,11.7-28.9,22.4-58.7,22.1
			c-21.8-0.2-37.8-6.6-46.8-19c0.2-6.3-5.5-18.3,55.7-18.8C2180.9,1725.4,2182.8,1734.5,2180.5,1739z"/>
		<path id="Handle_2_1_" class="st2" d="M2181.4,1701.9c-5.4,1.9,1.7,9.7-57.7,4.3c-51.8-4.6-47.6-10-48-13.9
			c8.5-8.7,22.1-14.6,41.3-14.7C2150.3,1677.5,2172.1,1687.3,2181.4,1701.9z"/>
		<path id="Handle_1_1_" class="st2" d="M2239.1,1721.6c0,9.1-29.2,15.6-60.5,19.8l0,0c0.7-0.7,1.3-1.5,1.9-2.4l0,0
			c2.2-4.5,0.4-13.6-51.6-13.2c-61.3,0.4-55.6,12.4-55.7,18.8c0,0.5-0.1,1-0.2,1.5c-0.7,2.1-6.9,2-11.4,2.1
			c-36,0.7-59.4-1.7-59.4-28.1c0-19.3,15.6-28.4,37.6-30.7c12.1-1.3,33.2-0.4,35.1,1.2c0.6,0.4,1,1.2,1,1.9c0.4,3.8-3.8,9.1,48,13.9
			c59.4,5.4,52.3-2.4,57.7-4.3c1.4-0.5,3.7-0.5,8.3,0.1C2219.6,1706.4,2239.1,1712.8,2239.1,1721.6z"/>
		<path id="Wing_2_1_" class="st2" d="M640.9,1472.3c-7,9.9,2.2,20.8,2.2,20.8c15.2,14.9,31.2,29,48,42
			c27.5,21.3,81.3,55.7,127.5,52.4c0,0,59.5,2,243.7-48.4"/>
		<path id="Wing_1_1_" class="st2" d="M860.3,1533.7c-115,13.6-109.8,38.1-109.8,38.1"/>
		<path id="Front_Well_2_4_" class="st2" d="M3353.2,2332.3"/>
		<path id="Front_Well_2_3_" class="st2" d="M4201.2,2420.7"/>
		<path id="Rear_Well_2_4_" class="st2" d="M1745.1,2290.9"/>
		<path id="Rear_Well_2_3_" class="st2" d="M964.2,2297.5"/>
		<path id="Rear_Windshield_1_" class="st2" d="M1700,1277.6c0,0-22.3,11.5-182.9,70.6s-321.2,128.3-358.3,142.4s-45.7,5.5-45.7,5.5
			"/>
		<path id="Squirter_1_" class="st2" d="M3419.2,1609.1c0,0-3.2-9-17.7-10.9c-14.5-1.9-18.7,5.5-18.7,5.5"/>
		<path id="Headlight_1_" class="st2" d="M4413.7,1857.7c0,0-2.5-18.3-38.7-53.3c-59.1-57.2-74.3-48.3-74.3-48.3"/>
		<path id="Windshield_1_" class="st2" d="M3184.9,1559.1l-1.9,1.1c-0.1,0-0.1-0.1-0.2-0.1c-0.6,0.4-1.3,0.7-2.1,1.1
			c-0.1,0.1-0.2,0.1-0.3,0.2c-0.8,0.4-1.5,0.8-2.3,1.2c-3,1.4-6.5,3-10.3,4.4c-0.9,0.4-1.7,0.6-2.6,1c-0.5,0.2-1.1,0.4-1.6,0.6
			l-1.6,0.5c-1.1,0.4-2.2,0.8-3.4,1.2c-1.2,0.4-2.3,0.7-3.6,1.1c-1.3,0.4-2.4,0.7-3.7,1.1l-3.8,1.1c-0.6,0.2-1.3,0.4-2,0.5l-3.9,1.1
			c-4.3,1.1-8.9,2.1-13.5,3.1c-2.6,0.5-5.3,1.1-8,1.6c-2.7,0.5-5.5,1-8.2,1.5c-4.2,0.7-8.4,1.3-12.7,2l-4.3,0.5
			c-2,0.3-3.8,0.4-5.8,0.7s-3.9,0.4-5.9,0.6c-2.6,0.3-5.2,0.4-7.9,0.6l-4.3,0.3h-0.6c-8.3,0.5-16.7,0.7-25,0.6c-1.6,0-3.2,0-4.7-0.1
			c-1.3,0-2.4-0.1-3.7-0.1l-6-0.3c-2-0.1-3.9-0.3-5.9-0.4c-0.7-0.1-1.5-0.2-2.2-0.2c-1.2-0.1-2.3-0.2-3.5-0.4
			c-1.7-0.2-3.3-0.4-5-0.6c-1-0.2-2-0.4-3-0.7c-0.4-0.1-0.7-0.2-1.1-0.4c-0.1,0-0.2,0-0.3-0.1c-0.4-0.1-0.7-0.2-1.1-0.4
			c-0.2-0.1-0.4-0.2-0.6-0.2c-0.4-0.1-0.7-0.3-1-0.4h-0.1c-0.4-0.2-1-0.4-1.4-0.5c-0.4-0.2-1-0.4-1.4-0.5c-0.5-0.2-1-0.4-1.4-0.6
			c-0.3-0.1-0.6-0.3-0.9-0.4c-2.1-0.9-4.2-2-6.3-3.1c-0.4-0.3-1-0.5-1.4-0.8c-0.4-0.3-1-0.5-1.4-0.8c-0.4-0.3-0.9-0.5-1.4-0.8
			c-1.3-0.8-2.8-1.7-4.1-2.6c-0.4-0.3-0.9-0.6-1.3-0.9c-0.4-0.3-0.9-0.6-1.3-0.9l-2.7-1.9c-5.7-4-11.3-8.5-16.5-13
			c-0.4-0.4-1-0.9-1.5-1.3c-2.1-1.8-4-3.6-5.9-5.4c-0.4-0.3-0.7-0.6-1-1c-5.7-5.4-10.6-10.4-14.5-14.4c-0.3-0.3-0.5-0.5-0.7-0.8
			c-1.2-1.2-2.1-2.3-3-3.3c-0.1-0.2-0.3-0.3-0.4-0.4c-2.1-2.3-3.5-3.8-4-4.6l-0.1-0.1c-0.1-0.1-0.1-0.1-0.1-0.2c0-0.1,0-0.1-0.1-0.1
			l0,0l0,0l-238.6-247.9c-2.4-2.5-4.7-5.2-6.9-7.8c-0.5-0.6-1.1-1.3-1.5-2c-0.3-0.4-0.5-0.7-0.7-1c-0.4-0.4-0.6-0.9-0.9-1.3
			c-0.2-0.2-0.3-0.4-0.4-0.6c-0.3-0.4-0.5-0.9-0.8-1.3c-0.3-0.4-0.4-0.7-0.7-1.1c-0.1-0.1-0.2-0.2-0.2-0.4c-0.4-0.7-0.8-1.3-1.2-2.1
			l-0.5-1.1l-0.5-1.1c-0.1-0.3-0.3-0.5-0.4-0.8c-0.3-0.4-0.4-1-0.6-1.5l0,0c-0.4-0.8-0.6-1.7-0.9-2.5l0,0
			c-2.5-8.1-1.3-16.3,5.9-24.1l0.5-0.5l0,0l0.5-0.5c0.4-0.4,0.8-0.8,1.3-1.2c0.3-0.2,0.4-0.4,0.6-0.6l0,0c0.5-0.5,1.2-1,1.8-1.5
			c1-0.7,2-1.5,3-2.2c0.7-0.5,1.4-1,2.2-1.5l0,0c0.7-0.4,1.5-1,2.3-1.4c1.3-0.8,2.7-1.5,4.2-2.3c0.9-0.4,1.8-0.9,2.8-1.3
			c0.6-0.3,1.3-0.6,1.9-0.9c0.4-0.2,0.6-0.3,1-0.4c0.7-0.4,1.4-0.6,2.1-1c0.7-0.4,2.1-1,2.2-1l247,178.5L3184.9,1559.1z"/>
		<circle id="Tire_2_" class="st2" cx="1334.2" cy="2184.8" r="335.1"/>
		<path class="st2" d="M1608.9,2210.1c-14,153.2-149.7,266-303,251.9c-153.2-14-266-149.7-251.9-303c14-153.2,149.7-266,303-251.9
			C1510.1,1921.2,1623,2056.9,1608.9,2210.1z"/>
		<circle id="Inner_1_1_" class="st2" cx="1331.4" cy="2184.6" r="261.5"/>
		<path id="Inner_2_1_" class="st2" d="M1354,1938.3c135.9,12.5,236.2,133.1,223.6,269c-12.5,135.9-133.1,236.2-269,223.6
			s-236.2-133.1-223.6-269C1097.6,2026,1218.2,1925.8,1354,1938.3"/>
		<circle id="Inner_3_1_" class="st2" cx="1331.4" cy="2184.6" r="231.1"/>
		<path id="Spokes_1_" class="st2" d="M1468.7,2352.7c-0.4,1.1-1,1.9-1.9,2.5c-0.1,0.1-2.1,1.9-6.2,4.9c-5.8,4.2-11.7,8.1-17.9,11.8
			c-15.6,9.2-26.2,13-26.3,13h-0.2c-0.8,0.3-1.8,0.4-2.7,0.4l-0.9-0.1c-1.1-0.8-1.9-1.9-2.5-3.1l-61.8-133.6
			c11.7-3,22.4-9.3,30.8-17.9l88.1,118l0.1,0.1C1467.6,2348.7,1469,2350.5,1468.7,2352.7z M1548.1,2165.7c0-0.2-0.6-11.6-4.5-29.2
			c-3.8-17.6-8.6-27.7-8.7-27.8l-0.1-0.1l-0.1-0.1c-0.4-0.9-1-1.8-1.9-2.5c-0.4-0.1-0.6-0.3-1-0.4c0-0.1,0-0.1-0.1-0.1
			c-1.1-0.1-2.2,0.1-3.3,0.4h-0.1l-139,47.3c5.8,10.6,8.6,22.6,8,34.8l145.8-17.1h0.3c1.3-0.1,2.6-0.7,3.5-1.8l0.1-0.1l0.1-0.1
			C1547.9,2167.9,1548.2,2166.8,1548.1,2165.7L1548.1,2165.7z M1383,1974c-0.7-0.7-1.7-1.2-2.7-1.4h-0.2c-0.1-0.1-10.7-3-28.9-4.7
			c-18.1-1.7-29.1-0.6-29.2-0.6h-0.2c-1.1,0-2.1,0.4-3,0.9v0.1c-0.7,1-1.2,2.1-1.3,3.4l-0.1,0.6l2,147.1c5.8-1.1,11.8-1.3,17.7-0.9
			c6,0.4,11.8,1.8,17.3,3.9l28.7-144v-0.2C1383.6,1978.3,1384.1,1976,1383,1974L1383,1974z M1151.4,2070.9l-0.4-0.2
			c-0.7-0.4-1.3-0.6-2.1-0.7l-0.3,0.4l-1.1,0.1c-0.4,0.1-1.3,1.1-1.9,1.9l-0.1,0.2l-0.1,0.2c0,0.1-6.4,9.3-13.6,25.8
			c-7.1,16.7-9.7,27.8-9.7,27.9c-0.2,1-0.2,2.1,0.1,3c1,1.2,2.1,2.1,3.5,2.7l140.1,43.5c1.6-12,6.4-23.3,14.1-32.7L1151.4,2070.9z
			 M1275.9,2220.7l-108,100l-0.1,0.1l-0.1,0.1c-1,0.9-1.7,2.1-2,3.5c0.1,0.4,0.2,0.9,0.4,1.3c0.2,0.5,0.5,1.1,0.9,1.4
			c0.1,0.1,7.1,9,20.7,20.9c13.6,12,23.4,17.4,23.5,17.5h0.2c0.8,0.4,1.6,0.7,2.5,0.9l0.9,0.1c1.3-0.6,2.2-1.5,3-2.6l85-120
			C1291.9,2238.9,1282.5,2230.8,1275.9,2220.7z"/>
		<path id="Lugs_1_" class="st2" d="M1396.9,2196.4c-4.9-0.4-9.7,1.4-13.1,5.1c-5.9,6.3-5.2,16.3,1.6,22.3c2.5,2.3,5.6,3.8,9,3.9
			c4.9,0.4,9.7-1.4,13.1-5.1c5.9-6.3,5.2-16.3-1.6-22.3C1403.8,2198,1400.7,2196.7,1396.9,2196.4z M1379.1,2116.5
			c-3.4-0.2-6.7,0.5-9.7,2.2c-7.2,4.6-9.7,14-5.6,21.6c2.6,4.2,7,6.9,11.9,7.4c3.4,0.2,6.7-0.5,9.7-2.2c7.2-4.6,9.7-14,5.6-21.6
			C1388.4,2119.7,1384.1,2117,1379.1,2116.5z M1297,2108.9c-1.6-0.3-3.2-0.2-4.7,0.1c-8.6,1.8-13.5,10.4-11.6,18.9
			c1.4,6.8,7.2,11.8,14.1,12.3c1.6,0.3,3.2,0.2,4.7-0.1c8.6-1.8,13.5-10.4,11.6-18.9C1309.7,2114.6,1303.9,2109.5,1297,2108.9z
			 M1326.4,2238.8c-6.8-0.6-12.9,3-16.2,9.6c-3.3,8.1,0.4,17.3,8,20.7c1.4,0.6,3,0.9,4.7,1c6.8,0.6,12.9-3,16.2-9.6
			c3.3-8.1-0.4-17.3-8-20.7C1329.6,2239.1,1328,2238.8,1326.4,2238.8z M1264.8,2184.2c-8.7-0.8-16.2,5.5-17,14.1
			c-0.8,8.7,5.5,16.2,14.1,17c8.6,0.8,16.2-5.5,17-14.1l0,0C1279.7,2192.7,1273.3,2185.1,1264.8,2184.2z"/>
		<path id="Holes_1_" class="st2" d="M1529.2,2199.1c-2,21.7-7.2,43-15.6,63.1c-8.8,20.7-20.8,38.5-34.9,54.5
			c-3.3,3.7-8.1,5.5-13.1,5.1c-1.6-0.1-3.2-0.4-4.7-1c-1.3-0.5-2.8-1.4-3.9-2.4c-1-0.6-1.4-1.8-2.3-2.9l-1.4-2.2l-34.4-59.9
			c-6.4-9.6-7.4-22.2-2.7-33.3c4.6-11,14.3-19,26-21.3l67.1-15.9l2.1-0.4c1.2-0.4,2.5-0.4,3.7-0.2c2.1,0.2,3.6,0.9,4.7,0.4
			C1525.5,2185.7,1529.8,2192.3,1529.2,2199.1z M1504.3,2085.5c-10.9-18.8-24.9-35.6-41.1-49.9c-17-14.7-35.3-26.4-55.1-34.4
			c-1.9-0.5-3.8-0.9-5.6-1.1c-4.9-0.4-9.7,1.4-13.1,5.1c-1.1,1.1-2,2.4-2.4,3.9c-0.5,1.1-0.8,2.3-0.9,3.6l-0.3,2.6l-5.3,68.9
			c-0.5,5.8,0.3,11.6,2.3,17c4.8,13.1,16.8,22.2,30.8,23.3c4.1,0.4,8.2,0.1,12.3-1l67.5-14.3l2.1-0.4c1.2-0.4,2.3-1.1,3.3-1.8
			c1.6-0.8,2.9-1.9,4-3.3C1507.1,2098.6,1507.7,2091.2,1504.3,2085.5z M1309.9,2002c-0.2-1.5-0.8-3-1.7-4.3c-3.3-4-7.8-7-13-7.5
			c-1.6-0.3-3.2-0.2-4.7,0.1c-21.5,4.4-41.9,12.4-60.5,23.8c-18.8,10.9-35.5,25-49.5,41.6c-4.4,5.1-5.1,12.3-1.7,18.2
			c1,1.2,1.8,2.8,3.3,4c1,0.6,1.9,1.8,3,2.3l2,0.7l63.8,26.4c1.8,1,3.7,1.7,5.6,2.2c2.1,0.5,4,0.8,6.1,1c7.7,0.7,15.3-0.9,21.9-4.8
			c10.2-6.3,16.8-17,17.9-28.9l7.4-68.7l0.3-2.6C1310.2,2004.7,1309.8,2003,1309.9,2002L1309.9,2002z M1241.9,2204.6
			c-2.5-11.5-10.7-21.2-21.7-25.5l-63-27.9l-2-0.7c-1.1-0.7-2.3-1.2-3.6-1.4c-1.6-0.2-3.1,0.3-4.7,0.1c-6.8,1.5-11.7,7.2-12.3,14.1
			c-2.5,21.6-1.3,43.7,3.9,64.9c4.7,21.2,13,41.5,24.4,60c2.6,4.2,7,6.9,11.9,7.4c1.6,0.3,3.2,0.2,4.7-0.1c1.5-0.2,3-0.8,4.3-1.7
			c1.2-0.5,2.1-1.3,2.9-2.3l1.8-1.9l44.8-52.7c5.4-6,8.7-13.6,9.5-21.6C1242.9,2211.9,1242.7,2208.2,1241.9,2204.6L1241.9,2204.6z
			 M1389.9,2359c-0.4-1.1-0.8-2.7-1.3-3.8l-1.4-2.2l-35.9-59c-2.7-5-6.7-9.3-11.4-12.4c-5-3.3-10.8-5.4-16.8-5.9
			c-12.4-1.2-23.5,4.1-31.1,12.9l-46.1,51.4l-1.8,1.9c-0.7,1.1-1.3,2.3-2,3.5c-0.6,1.4-0.9,3-1,4.6c-0.6,6.8,3,12.9,9.6,16.2
			c40,17.7,84.5,21.8,127,11.7c6.8-1.4,11.8-7.2,12.3-14.1C1390.2,2362.2,1390.2,2360.6,1389.9,2359L1389.9,2359z"/>
		<circle id="Cap_1_" class="st2" cx="1331.4" cy="2184.6" r="43.4"/>
		<path id="Bolts_1_" class="st2" d="M1422.1,1992.3c-1.4,2.7-4.2,4.3-7.2,4.1c-0.5-0.1-1.5-0.7-2-0.7c-3.6-1.4-5.2-5.8-3.9-9.3
			c1.4-2.7,4.2-4.3,7.2-4.1c0.7,0.1,1.4,0.3,2,0.7C1421.7,1984.4,1423.4,1988.7,1422.1,1992.3z M1283.6,1984.4
			c0.5,0.1,1.6,0.2,2.1-0.4c3.8-0.7,6.2-4.7,5.5-8.5c-0.9-2.9-3.3-5-6.3-5.4c-0.5-0.1-1.6-0.2-2.1,0.4c-3.8,0.7-6.2,4.7-5.5,8.5
			C1278,1982,1280.6,1984.3,1283.6,1984.4L1283.6,1984.4z M1476.3,2019.9c-1.1-1.1-2.4-1.8-3.9-2c-2.1-0.1-4.3,0.7-5.9,2.1
			c-2.4,3-2.1,7.3,0.7,9.9c1,1.2,2.4,1.9,3.9,2c2.1,0.1,4.3-0.7,5.9-2.1C1479.4,2026.9,1479,2022.6,1476.3,2019.9z M1223.4,1995.1
			c-1.6-0.2-2.6,0.3-4.2,1.3c-3.3,1.8-4.3,6.4-2.5,9.7c1.2,1.9,3.2,3,5.5,3.1c1.6,0.2,2.6-0.3,4.2-1.3c3.3-1.8,4.3-6.4,2.5-9.7
			C1227.5,1996.5,1225.5,1995.4,1223.4,1995.1z M1514.8,2069.1c-1.6-0.2-2.6,0.3-4.2,1.3c-3.3,1.8-4.3,6.4-2.5,9.7
			c1.2,1.9,3.2,3,5.5,3.1c1.6,0.2,2.6-0.3,4.2-1.3c3.3-1.8,4.3-6.4,2.5-9.7C1518.9,2070.6,1516.9,2069.5,1514.8,2069.1z
			 M1166.8,2049.5c1,1.2,2.4,1.9,3.9,2c2.1,0.1,4.3-0.7,5.9-2.1c2.4-3,2.1-7.3-0.7-9.9c-1-1.2-2.4-2-3.9-2c-2.1-0.1-4.3,0.7-5.9,2.1
			C1163.7,2042.7,1164,2047,1166.8,2049.5z M1543.5,2197.3c-3.8-0.4-7.1,2.4-7.4,6.2c-0.4,3.8,2.4,7.1,6.2,7.4
			c3.8,0.4,7.1-2.4,7.4-6.2l0,0C1550.6,2201,1547.5,2197.6,1543.5,2197.3z M1126.9,2165.8c0.3-3.7-2.5-7-6.2-7.4
			c-3.8-0.4-7.1,2.4-7.4,6.2c-0.4,3.8,2.4,7.1,6.2,7.4C1123.2,2172.2,1126.5,2169.6,1126.9,2165.8L1126.9,2165.8z M1529,2262
			c-0.4-0.5-0.9-0.6-2-0.7c-3-0.2-5.9,1.3-7.2,4.1c-1.4,3.7,0.3,7.8,3.9,9.3c0.5,0.1,1.5,0.7,2,0.7c3,0.2,5.9-1.3,7.2-4.1
			C1534.3,2267.7,1532.6,2263.4,1529,2262z M1125.1,2224.4c-0.5-0.1-1.6-0.2-2.1,0.4c-3.8,0.7-6.2,4.7-5.5,8.5
			c0.6,3,3.3,5.3,6.3,5.4c0.5,0.1,1.6,0.2,2.1-0.4c3.8-0.7,6.2-4.7,5.5-8.5C1130.1,2227,1127.8,2224.6,1125.1,2224.4L1125.1,2224.4z
			 M1495.9,2319.4c-1.1-1-2.4-1.8-3.9-2c-2.1-0.1-4.3,0.7-5.9,2.1c-2.4,3-2.1,7.3,0.7,9.9c1,1.2,2.4,1.9,3.9,2
			c2.1,0.1,4.3-0.7,5.9-2.1C1499.1,2326.5,1498.7,2322.1,1495.9,2319.4z M1149.3,2285.9c-1.6-0.2-2.6,0.3-4.2,1.3
			c-3.3,1.8-4.3,6.4-2.5,9.7c1.2,1.9,3.2,3,5.5,3.1c1.6,0.2,2.6-0.3,4.2-1.3c3.3-1.8,4.3-6.4,2.5-9.7
			C1153.9,2287.4,1151.5,2286.2,1149.3,2285.9L1149.3,2285.9z M1379.1,2384.8c-0.5-0.1-1.6-0.2-2.1,0.4c-3.8,0.7-6.2,4.7-5.5,8.5
			c0.6,3,3.3,5.3,6.3,5.4c0.5,0.1,1.6,0.2,2.1-0.4c3.8-0.7,6.2-4.7,5.5-8.5C1384.1,2386.9,1381.7,2385,1379.1,2384.8L1379.1,2384.8z
			 M1250.6,2373.4c-0.6-0.4-1.3-0.6-2-0.7c-3-0.2-5.9,1.3-7.2,4.1c-1.4,3.7,0.3,7.8,3.9,9.3c0.5,0.1,1.5,0.7,2,0.7
			c3,0.2,5.9-1.3,7.2-4.1C1255.8,2379.3,1254.2,2374.9,1250.6,2373.4L1250.6,2373.4z M1312.6,2389.2c-3.8-0.4-7.1,2.4-7.4,6.2
			c-0.4,3.8,2.4,7.1,6.2,7.4c3.8,0.4,7.1-2.4,7.4-6.2l0,0C1319,2392.8,1316.4,2389.4,1312.6,2389.2z"/>
		<circle id="Tire-2_1_" class="st2" cx="3780.6" cy="2187" r="330.9"/>
		<circle class="st2" cx="3780.6" cy="2187" r="278.6"/>
		<circle id="Inner_1-2_1_" class="st2" cx="3780.6" cy="2187" r="261.5"/>
		<path id="Inner_2-2_1_" class="st2" d="M3780.6,1939.6c136.5,0,247.3,110.9,247.3,247.3c0,136.5-110.9,247.3-247.3,247.3
			c-136.5,0-247.3-110.9-247.3-247.3C3533.3,2050.5,3644.1,1939.6,3780.6,1939.6"/>
		<circle id="Inner_3-2_1_" class="st2" cx="3780.6" cy="2187" r="231.1"/>
		<path id="Spokes-2_1_" class="st2" d="M3932.8,2341.8c-0.3,1.1-0.8,2-1.6,2.7c-0.1,0.1-2,2.1-5.7,5.5c-5.4,4.7-10.9,9.2-16.7,13.4
			c-14.7,10.6-24.9,15.3-25,15.3h-0.2c-0.8,0.4-1.7,0.6-2.6,0.7h-0.9c-1.2-0.7-2.1-1.7-2.8-2.9l-73.8-127.3
			c11.4-4.1,21.4-11.3,29-20.7l98.5,109.5l0.1,0.1C3931.3,2337.9,3932.8,2339.6,3932.8,2341.8z M3994.7,2148.4
			c0-0.2-1.7-11.5-7.2-28.7c-5.5-17.2-11.1-26.8-11.2-26.9l-0.1-0.1l-0.1-0.1c-0.4-0.9-1.2-1.7-2.1-2.3c-0.4-0.1-0.6-0.2-1-0.4
			c0-0.1,0-0.1-0.1-0.1l0,0c-1.1,0-2.2,0.3-3.2,0.7h-0.1l-134,59.8c6.8,10,10.6,21.7,11.2,33.9l143.7-30.4h0.3
			c1.3-0.2,2.5-1,3.3-2.1l0.1-0.1l0.1-0.1C3994.7,2150.6,3994.9,2149.4,3994.7,2148.4z M3812.7,1972.6c-0.8-0.6-1.8-1-2.8-1.2h-0.2
			c-0.1-0.1-11-2.1-29.2-2.1c-18.2,0-29,2.1-29.2,2.1h-0.2c-1.1,0.1-2.1,0.5-2.9,1.2v0.1c-0.6,1.1-1,2.2-0.9,3.5v0.6l15.5,146.3
			c5.7-1.6,11.6-2.4,17.5-2.5c6-0.1,11.9,0.7,17.6,2.3l15.4-146v-0.2C3813.7,1976.8,3814,1974.4,3812.7,1972.6z M3590.9,2090.3
			l-0.4-0.2c-0.7-0.4-1.4-0.5-2.2-0.5l-0.3,0.4l-1.1,0.2c-0.4,0.1-1.3,1.2-1.7,2.1l-0.1,0.2l-0.1,0.2c0,0.1-5.5,9.8-11.2,26.9
			c-5.5,17.3-7.2,28.6-7.2,28.7c-0.1,1,0,2.1,0.4,3c1.1,1.1,2.3,1.9,3.8,2.3l143.5,30.4c0.5-12.1,4.3-23.9,11.1-33.9L3590.9,2090.3z
			 M3728.6,2228l-98.4,109.5l-0.1,0.1l-0.1,0.1c-0.9,1-1.5,2.3-1.6,3.7c0.1,0.4,0.3,0.9,0.5,1.3c0.3,0.5,0.6,1,1,1.3
			c0.1,0.1,7.9,8.3,22.5,19c14.7,10.6,24.9,15.2,25,15.3h0.2c0.8,0.4,1.7,0.5,2.6,0.6h0.9c1.2-0.7,2.1-1.7,2.8-2.9l73.7-127.2
			C3746.3,2244.8,3736.2,2237.6,3728.6,2228L3728.6,2228z"/>
		<path id="Lugs-2_1_" class="st2" d="M3847,2192.7c-4.9,0-9.6,2.3-12.5,6.3c-5.3,6.8-3.7,16.7,3.7,22c2.7,2.1,6,3.2,9.4,3.1
			c4.9,0,9.6-2.3,12.5-6.3c5.3-6.8,3.7-16.7-3.7-22C3853.9,2193.7,3850.7,2192.7,3847,2192.7z M3821.9,2114.8
			c-3.4,0.1-6.6,1.2-9.4,3.1c-6.8,5.2-8.4,14.8-3.7,22c3,3.9,7.6,6.3,12.5,6.3c3.4-0.1,6.6-1.2,9.4-3.1c6.8-5.2,8.4-14.8,3.7-22
			C3831.5,2117.2,3826.8,2114.8,3821.9,2114.8z M3739.4,2114.8c-1.6-0.1-3.2,0.1-4.7,0.5c-8.4,2.6-12.5,11.5-9.8,19.9
			c2.1,6.6,8.2,11.1,15.2,11c1.6,0.1,3.2-0.1,4.7-0.5c8.4-2.6,12.5-11.5,9.8-19.9C3752.5,2119.2,3746.4,2114.7,3739.4,2114.8z
			 M3780.6,2241.4c-6.8,0-12.5,4.1-15.2,11c-2.6,8.4,2.1,17.3,9.8,19.9c1.5,0.4,3.1,0.6,4.7,0.5c6.8,0,12.5-4.1,15.2-11
			c2.6-8.4-2.1-17.3-9.8-19.9C3783.8,2241.5,3782.2,2241.3,3780.6,2241.4z M3714.3,2192.7c-8.7,0-15.6,7-15.6,15.6s7,15.6,15.6,15.6
			s15.6-7,15.6-15.6l0,0C3729.9,2199.8,3722.8,2192.8,3714.3,2192.7z"/>
		<path id="Holes-2_1_" class="st2" d="M3978.9,2183.3c0,21.8-3.3,43.5-9.8,64.3c-6.8,21.4-17.3,40.2-29.8,57.5
			c-3,3.9-7.6,6.3-12.5,6.3c-1.6,0.1-3.2-0.1-4.7-0.5c-1.4-0.4-2.9-1.2-4.1-2.1c-1.1-0.5-1.6-1.6-2.6-2.6l-1.6-2.1l-39.8-56.5
			c-7.3-8.9-9.4-21.4-5.7-32.9c3.6-11.4,12.5-20.2,24-23.6l65.4-22l2.1-0.5c1.2-0.4,2.4-0.6,3.7-0.5c2.1,0,3.7,0.5,4.7,0
			C3974,2170.3,3978.9,2176.4,3978.9,2183.3z M3943.7,2072.4c-12.6-17.7-28-33.2-45.5-46c-18.2-13.1-37.6-23.1-58-29.2
			c-1.9-0.4-3.8-0.5-5.7-0.5c-4.9,0-9.6,2.3-12.5,6.3c-1,1.2-1.7,2.6-2.1,4.1c-0.4,1.2-0.6,2.4-0.5,3.7v2.6l1.1,69
			c0,5.8,1.3,11.5,3.8,16.7c6,12.6,18.8,20.6,32.7,20.4c4.1,0.1,8.2-0.6,12.1-2.1l65.9-20.4l2.1-0.5c1.2-0.5,2.2-1.3,3.1-2.1
			c1.5-1,2.7-2.1,3.7-3.7C3947.6,2085.3,3947.6,2077.9,3943.7,2072.4L3943.7,2072.4z M3742.5,2007.1c-0.4-1.5-1.1-3-2.1-4.1
			c-3.7-3.7-8.4-6.3-13.6-6.3c-1.6-0.1-3.2,0.1-4.7,0.5c-20.9,6.3-40.5,16.2-58,29.2c-17.7,12.6-33.1,28.2-45.5,46
			c-3.9,5.5-3.9,12.8,0,18.2c1.1,1.1,2.1,2.6,3.7,3.7c1.1,0.5,2.1,1.6,3.1,2.1l2.1,0.5l65.9,20.4c1.9,0.8,3.8,1.3,5.8,1.7
			c2.1,0.4,4.1,0.4,6.2,0.4c7.7,0,15.1-2.3,21.4-6.8c9.6-7.2,15.2-18.4,15.2-30.4l1.1-69v-2.6
			C3743,2009.8,3742.5,2008.1,3742.5,2007.1L3742.5,2007.1z M3693.3,2215.2c-3.6-11.3-12.6-20.1-24-23.4l-65.4-22l-2.1-0.5
			c-1.2-0.6-2.4-1-3.7-1.1c-1.6,0-3.1,0.5-4.7,0.5c-6.6,2.1-11,8.3-11,15.2c-0.5,21.8,2.8,43.6,9.8,64.3
			c6.6,20.7,16.7,40.2,29.8,57.5c3,3.9,7.6,6.3,12.5,6.3c1.6,0.1,3.2-0.1,4.7-0.5c1.5-0.4,3-1.1,4.1-2.1c1.1-0.6,2-1.5,2.6-2.6
			l1.6-2.1l39.8-56.5c4.8-6.4,7.4-14.3,7.4-22.4C3694.9,2222.2,3694.4,2218.6,3693.3,2215.2L3693.3,2215.2z M3854.8,2355.3
			c-0.5-1.1-1.1-2.6-1.6-3.7l-1.6-2.1l-41.2-55.4c-3.1-4.7-7.5-8.7-12.5-11.4c-5.3-2.9-11.3-4.4-17.3-4.4
			c-12.5,0-23.1,6.3-29.8,15.6l-41.2,55.4l-1.6,2.1c-0.6,1.2-1.2,2.4-1.6,3.7c-0.4,1.5-0.6,3.1-0.5,4.7c0,6.8,4.1,12.5,11,15.2
			c41.4,14,86.1,14,127.5,0c6.6-2.1,11.1-8.2,11-15.2C3855.5,2358.4,3855.3,2356.8,3854.8,2355.3z"/>
		<circle id="Cap-2_1_" class="st2" cx="3780.6" cy="2187" r="43.4"/>
		<path id="Bolts-2_1_" class="st2" d="M3853.3,1987.2c-1.2,2.8-3.8,4.6-6.8,4.7c-0.5,0-1.6-0.5-2.1-0.5c-3.7-1.1-5.7-5.3-4.7-8.9
			c1.2-2.8,3.8-4.7,6.8-4.7c0.7,0,1.4,0.2,2.1,0.5C3852.2,1979.4,3854.3,1983.6,3853.3,1987.2z M3714.7,1992c0.5,0,1.6,0,2.1-0.5
			c3.7-1.1,5.7-5.3,4.7-8.9c-1.2-2.8-3.8-4.7-6.8-4.7c-0.5,0-1.6,0-2.1,0.5c-3.7,1.1-5.7,5.3-4.7,8.9
			C3708.8,1990.2,3711.7,1992.1,3714.7,1992z M3909.7,2009.8c-1.2-1-2.6-1.5-4.1-1.6c-2.1,0.1-4.2,1.1-5.7,2.6
			c-2.1,3.2-1.4,7.5,1.6,9.8c1.1,1.1,2.6,1.6,4.1,1.6c2.1-0.1,4.2-1.1,5.7-2.6C3913.5,2016.5,3912.8,2012.2,3909.7,2009.8z
			 M3655.7,2008.1c-1.6,0-2.6,0.5-4.1,1.6c-3.1,2.1-3.7,6.8-1.6,9.8c1.3,1.8,3.5,2.7,5.7,2.6c1.6,0,2.6-0.5,4.1-1.6
			c3.1-2.1,3.7-6.8,1.6-9.8C3659.9,2009.2,3657.8,2008.2,3655.7,2008.1z M3952.7,2055.2c-1.6,0-2.6,0.5-4.1,1.6
			c-3.1,2.1-3.7,6.8-1.6,9.8c1.3,1.8,3.5,2.7,5.7,2.6c1.6,0,2.6-0.5,4.1-1.6c3.1-2.1,3.7-6.8,1.6-9.8
			C3956.9,2056.3,3954.8,2055.4,3952.7,2055.2z M3604.4,2067.6c1.1,1.1,2.6,1.6,4.1,1.6c2.1-0.1,4.2-1.1,5.7-2.6
			c2.1-3.2,1.4-7.5-1.6-9.8c-1.1-1.1-2.6-1.7-4.1-1.6c-2.1,0.1-4.2,1.1-5.7,2.6C3600.6,2061,3601.3,2065.3,3604.4,2067.6z
			 M3993,2180.2c-3.8,0-6.8,3-6.8,6.8c0,3.8,3,6.8,6.8,6.8c3.8,0,6.8-3,6.8-6.8C4000.3,2183.3,3997,2180.2,3993,2180.2L3993,2180.2z
			 M3575.2,2187c-0.1-3.7-3.1-6.7-6.8-6.8c-3.8,0-6.8,3-6.8,6.8c0,3.8,3,6.8,6.8,6.8S3575.2,2190.7,3575.2,2187z M3984.5,2246
			c-0.4-0.5-1-0.5-2.1-0.5c-3,0.1-5.7,1.9-6.8,4.7c-1.1,3.8,1,7.7,4.7,8.9c0.5,0,1.6,0.5,2.1,0.5c3-0.1,5.7-1.9,6.8-4.7
			C3990.2,2251.2,3988.2,2247,3984.5,2246L3984.5,2246z M3578.8,2245.5c-0.5,0-1.6,0-2.1,0.5c-3.7,1.1-5.7,5.3-4.7,8.9
			c0.9,3,3.8,4.9,6.8,4.7c0.5,0,1.6,0,2.1-0.5c3.7-1.1,5.7-5.3,4.7-8.9C3584.1,2247.6,3581.5,2245.5,3578.8,2245.5L3578.8,2245.5z
			 M3956.8,2306.2c-1.2-0.9-2.6-1.5-4.1-1.6c-2.1,0.1-4.2,1.1-5.7,2.6c-2.1,3.2-1.4,7.5,1.6,9.8c1.1,1.1,2.6,1.6,4.1,1.6
			c2.1-0.1,4.2-1.1,5.7-2.6C3960.5,2312.8,3959.8,2308.6,3956.8,2306.2L3956.8,2306.2z M3608.6,2304.6c-1.6,0-2.6,0.5-4.1,1.6
			c-3.1,2.1-3.7,6.8-1.6,9.8c1.3,1.8,3.5,2.7,5.7,2.6c1.6,0,2.6-0.5,4.1-1.6c3.1-2.1,3.7-6.8,1.6-9.8
			C3613.3,2305.7,3610.7,2304.6,3608.6,2304.6L3608.6,2304.6z M3846.5,2381.9c-0.5,0-1.6,0-2.1,0.5c-3.7,1.1-5.7,5.3-4.7,8.9
			c0.9,3,3.8,4.9,6.8,4.7c0.5,0,1.6,0,2.1-0.5c3.7-1.1,5.7-5.3,4.7-8.9C3851.7,2383.5,3849.1,2381.9,3846.5,2381.9L3846.5,2381.9z
			 M3717.5,2382.5c-0.6-0.4-1.3-0.5-2.1-0.5c-3,0.1-5.7,1.9-6.8,4.7c-1.1,3.8,1,7.7,4.7,8.9c0.5,0,1.6,0.5,2.1,0.5
			c3-0.1,5.7-1.9,6.8-4.7C3723.2,2387.7,3721.1,2383.5,3717.5,2382.5L3717.5,2382.5z M3780.6,2392.4c-3.8,0-6.8,3-6.8,6.8
			s3,6.8,6.8,6.8s6.8-3,6.8-6.8C3787.4,2395.4,3784.4,2392.4,3780.6,2392.4L3780.6,2392.4z"/>
		<g id="Taillight_Alt_2_">
			<path id="Outline_2_" class="st2" d="M438.4,1878.4l24.3,0.4l233.4,4.5l-13.2-49.5c0,0-9.6-45.4-55-45.4H527.5l-51.7,9.7
				c0,0-7.5,1.3-7.5,9.3c0,8.1,0.2,9.9,3.8,12.1L438.4,1878.4z"/>
			<path id="Black_2_" class="st2" d="M570.7,1819.5h15.9c0,0,10.8,0.6,15.4,8.1c0,0,6.5,13.6,10.4,26.6c0.9,3.1,1.8,7,2.4,10.7
				l3.2,16.6"/>
			<path id="Front_3_" class="st2" d="M652,1882.4c0,0-2.5-16.6-11.2-37.6c-8.8-21-22.4-41.1-40.2-41.1l-131.7-0.2"/>
			<path id="Back_1_" class="st2" d="M472,1819.5h98.6c0,0,10.8,0.6,15.4,8.1c0,0,6.5,13.6,10.4,26.6c0.2,0.7,0.4,1.5,0.6,2.3
				c1.3,5.3,2.5,11.8,3.2,16.9c0.7,4.6,1.1,8.1,1.1,8.1"/>
		</g>
		<path id="Front_Bumper_Line_2_" class="st2" d="M4148.1,1991.9l306,4.7c0,0,95.4,3.2,100.9-1.5c5.5-4.7,1.5-12.5,1.5-12.5"/>
	</g>
</g>
</svg>
