<svg width="4728" height="1610" viewBox="0 0 4728 1610" fill="none" xmlns="http://www.w3.org/2000/svg">
<g filter="url(#filter0_d)">
<path d="M4699.2 1306C4693.9 1303.9 4687 1301.8 4682.6 1289.3C4678.2 1276.8 4696.3 1124.9 4696.3 1124.9C4697.3 1104.4 4702.2 1018.4 4699 990.8C4698 981.4 4687.3 962.6 4687.3 962.6C4687.3 962.6 4663.3 934.1 4647.6 918.7C4641.6 912.8 4588.3 865.7 4545.9 831.1C4515.7 808 4392.7 676.6 4350.1 653.8C4254.7 629.4 4055.9 588.4 3958.1 574C3632.6 551.1 3219.3 470.6 3187 467C3183.8 464 3180.3 461.4 3176.5 459.2C3175 447.9 3171.9 437.8 3179.2 440.7C3234.2 393.7 3081.9 414.6 3059.5 403.5L3083.6 421.5C3098 422.9 3116.6 426.4 3128.5 435.1L3151.8 433.4C3144.5 435.5 3142.2 440.7 3142.2 440.7C3134 439.3 3128.3 445.8 3126.3 448.5C3124.1 447.6 3121.9 446.6 3120 445.8L3119.6 446.2V446.4L3119.4 446.3L3110.7 441.5C3110.6 441.5 3110.6 441.5 3110.5 441.4L3108.2 442.6L3107.9 442.8C3107.9 442.8 3106.2 443.7 3105.3 444.1C3101.9 445.7 3098 447.4 3093.8 449C3092.8 449.4 3091.9 449.7 3090.9 450.1C3090.3 450.3 3089.7 450.5 3089.1 450.8L3087.3 451.4C3086.1 451.8 3084.8 452.3 3083.5 452.7C3082.2 453.1 3080.9 453.5 3079.5 453.9C3078.1 454.3 3076.8 454.7 3075.4 455.1L3071.2 456.3C3070.5 456.5 3069.8 456.7 3069 456.9L3064.6 458.1C3059.8 459.3 3054.7 460.5 3049.5 461.6C3046.6 462.2 3043.6 462.8 3040.6 463.4C3037.6 464 3034.5 464.5 3031.4 465.1C3026.7 465.9 3022 466.6 3017.2 467.3L3012.4 467.9C3010.2 468.2 3008.1 468.4 3005.9 468.7C3003.7 469 3001.5 469.2 2999.3 469.4C2996.4 469.7 2993.5 469.9 2990.5 470.1L2985.7 470.4H2985C2975.7 471 2966.3 471.2 2957 471.1C2955.2 471.1 2953.4 471.1 2951.7 471C2950.3 471 2949 470.9 2947.6 470.9L2940.9 470.6C2938.7 470.5 2936.5 470.3 2934.3 470.1C2933.5 470 2932.6 469.9 2931.8 469.9C2930.5 469.8 2929.2 469.7 2927.9 469.5C2926 469.3 2924.2 469.1 2922.3 468.8C2921.2 468.6 2920.1 468.3 2918.9 468C2918.5 467.9 2918.1 467.8 2917.7 467.6C2917.6 467.6 2917.5 467.6 2917.4 467.5C2917 467.4 2916.6 467.3 2916.2 467.1C2916 467 2915.7 466.9 2915.5 466.9C2915.1 466.8 2914.7 466.6 2914.4 466.5H2914.3C2913.8 466.3 2913.2 466.1 2912.7 465.9C2912.2 465.7 2911.6 465.5 2911.1 465.3C2910.5 465.1 2910 464.9 2909.5 464.6C2909.2 464.5 2908.8 464.3 2908.5 464.2C2906.1 463.2 2903.8 462 2901.5 460.7C2901 460.4 2900.4 460.1 2899.9 459.8C2899.4 459.5 2898.8 459.2 2898.3 458.9C2897.8 458.6 2897.3 458.3 2896.7 458C2895.2 457.1 2893.6 456.1 2892.1 455.1C2891.6 454.8 2891.1 454.4 2890.6 454.1C2890.1 453.8 2889.6 453.4 2889.1 453.1L2886.1 451C2879.7 446.5 2873.5 441.5 2867.7 436.5C2867.2 436 2866.6 435.5 2866 435.1C2863.7 433.1 2861.5 431.1 2859.4 429.1C2859 428.8 2858.6 428.4 2858.3 428C2851.9 422 2846.4 416.4 2842.1 411.9C2841.8 411.6 2841.5 411.3 2841.3 411C2840 409.7 2838.9 408.4 2837.9 407.3C2837.8 407.1 2837.6 407 2837.5 406.8C2835.2 404.2 2833.6 402.5 2833 401.7L2832.9 401.6C2832.8 401.5 2832.8 401.5 2832.8 401.4C2832.8 401.3 2832.8 401.3 2832.7 401.3L2565.9 124.1C2563.2 121.3 2560.6 118.3 2558.2 115.4C2557.6 114.7 2557 113.9 2556.5 113.2C2556.2 112.8 2555.9 112.4 2555.7 112.1C2555.3 111.6 2555 111.1 2554.7 110.6C2554.5 110.4 2554.4 110.1 2554.2 109.9C2553.9 109.4 2553.6 108.9 2553.3 108.4C2553 108 2552.8 107.6 2552.5 107.2C2552.4 107.1 2552.3 107 2552.3 106.8C2551.8 106 2551.4 105.3 2551 104.5L2550.4 103.3L2549.8 102.1C2549.7 101.8 2549.5 101.5 2549.4 101.2C2549.1 100.7 2548.9 100.1 2548.7 99.5C2548.3 98.6 2548 97.6 2547.7 96.7C2544.9 87.6 2546.2 78.5 2554.3 69.7L2554.9 69.1L2555.5 68.5C2555.9 68 2556.4 67.6 2556.9 67.2C2557.2 67 2557.4 66.8 2557.6 66.5C2558.2 65.9 2558.9 65.4 2559.6 64.8C2560.7 64 2561.8 63.1 2562.9 62.3C2563.7 61.7 2564.5 61.2 2565.4 60.6C2566.2 60.1 2567.1 59.5 2568 59C2569.5 58.1 2571 57.3 2572.7 56.4C2573.7 55.9 2574.7 55.4 2575.8 54.9C2576.5 54.6 2577.2 54.2 2577.9 53.9C2578.3 53.7 2578.6 53.6 2579 53.4C2579.8 53 2580.6 52.7 2581.4 52.3C2582.2 51.9 2583.1 51.6 2583.9 51.2C2583.9 51 2582.1 45.5 2575.5 40.7C2566.8 34.4 2560.1 35.8 2560.1 35.8C2545.2 27.4 2378.5 1.19999 2155.5 4.49999C1963.3 7.29999 1729 24.6 1513.1 73.6C1491.8 78.4 1492.6 109.8 1473.8 117.9C1455 126 1334 162.3 1334 162.3C1190.6 209.7 997.4 281.7 858.7 341.5C817.7 359.2 785.5 379.7 731.9 387.9C658.7 394.4 585.8 403.9 513.3 411.9C505.2 412.4 495.8 406.9 495.8 406.9C453.6 372.5 387.6 337.3 303.8 337.5C238.1 342.9 218.9 364.5 244.8 413.7C264.9 446.3 297.5 518.3 297.5 518.3C333.4 579.1 282.8 607 225.8 638C205.8 648.9 159.3 668.2 156.9 689.4C141.4 699.7 75.7 769.9 71.5 796.6C71.5 796.6 25.2 818.6 16.1 836C7.80005 851.9 7.80005 877.2 7.80005 877.2C7.80005 877.2 33.7 1142.5 50.1 1168.3C66.5 1194.1 95.5 1210.6 95.5 1210.6C136 1215.1 469.1 1272.2 560.4 1273.7C569.3 1273.8 632.7 1274.6 629.4 1266.3C629.4 1266.2 629.3 1266.1 629.3 1266H629.6C629.6 1251.5 643.5 1254.3 643.5 1254.3H671.3L681 1254.2L1405.7 1249.5H1411.3L1502.2 1258.5C1502.8 1281 1504.1 1305.1 1507.3 1332.8C1515.2 1340.8 1575.4 1334.2 1627.3 1322.9C2019.1 1282.9 1760.3 1309.9 2366.1 1310.9C2980.7 1325.2 3148.1 1326.4 3196.1 1336.7C3244.1 1347 3269.6 1345.8 3282.9 1339.5C3292.9 1334.9 3298.5 1329.9 3301.1 1304.9H3301.2C3301.2 1304.9 3338.8 1299.5 3434.2 1294.7H3434.9L4122.6 1296.1C4122.6 1296.1 4146.8 1326.6 4153.5 1332.1C4172.3 1348 4159.8 1360.5 4165.3 1366C4170.1 1370.7 4235.3 1395.9 4246.8 1402.3C4247.6 1403 4248.4 1403.6 4249.3 1404.1C4377.2 1398.8 4536.6 1375.6 4599.8 1368.1C4663.4 1360.5 4723 1328.2 4699.2 1306ZM1519.5 460H1518.7C1518.6 460 1506.6 460.2 1486.8 460.2C1437.2 460.2 1341 458.8 1253.9 449.7C1206 444.7 1167.4 438 1139.1 429.8C1097.6 417.8 1091.9 406.5 1091.4 405.2C1090.5 402.9 1089.8 399.7 1092.5 394C1096.3 385.8 1107.2 371.9 1136.9 352.3C1157.8 338.6 1185 324.1 1217.6 309.5C1273.9 284.1 1327.3 266.7 1327.8 266.6L1328.1 266.5L1328.4 266.4C1329 266.2 1388.5 244.8 1470.1 220.1C1518.7 205.4 1581.8 187.6 1646.1 172.9L1745.4 463.1L1519.5 460ZM2084.4 467.8L1810.3 464L1708.9 159.6C1723.1 156.9 1737.1 154.5 1750.8 152.4C1935.1 124 2199.4 115.2 2202.1 115.1C2202.4 115.1 2228.2 114.3 2264.3 114.3C2293.4 114.3 2333.9 114.9 2373.2 117.2L2505.3 467.8H2084.4ZM2684 346.9C2668.7 350.9 2654.7 358.7 2643.2 369.5C2640.7 371.9 2638.2 374.3 2635.9 376.9C2618 396.9 2607.9 422.3 2608.7 442.8C2608.7 442.8 2605.6 454.7 2615.7 467.7V467.8H2531.1L2402.1 119.4C2469.5 125.6 2480.9 131.4 2591.9 249C2629.2 288.4 2668.2 326.8 2684 346.9ZM4620.7 1086.8H4506.7C4489.6 1086.8 4467 1061.4 4466 1034.5C4465 1007.2 4470.4 1003.2 4488.8 1003.2C4523.7 1003.2 4618.4 1003.9 4647.5 1003.9C4677.4 1003.9 4680.5 1000.2 4683.6 1009.6C4686.7 1019 4685.2 1069.1 4676.3 1078.5C4667.4 1087.9 4620.7 1086.8 4620.7 1086.8Z" fill="#494B50" stroke="#C4C9D4" stroke-width="6" stroke-miterlimit="10"/>
<path d="M2846.4 489.8C2845.8 496.3 2844.8 502.7 2844.2 510.9C2842.6 530.5 2805.8 544.2 2772.2 542.2C2738.6 540.2 2722.1 534.4 2715.1 520.3C2708.1 506.2 2745.6 489.8 2745.6 489.8H2668.7C2653.2 488.3 2639 485.5 2630.6 480.4C2625 477.1 2619.9 472.8 2615.8 467.8C2605.6 454.8 2608.7 442.8 2608.7 442.8C2607.9 422.3 2618 396.9 2635.9 376.9C2638.2 374.3 2640.7 371.9 2643.2 369.5C2654.7 358.7 2668.7 350.9 2684 346.9C2684.2 346.9 2684.3 346.8 2684.5 346.8C2690.4 345.3 2696.5 344.4 2702.6 344.2C2713.1 343.8 2724.4 346.5 2735.9 351.3C2736 351.3 2736.1 351.4 2736.2 351.4C2786.7 372.7 2840.1 434.7 2844.3 456.1C2845.4 461.5 2846.2 467 2846.6 472.5V472.6C2847 478.4 2846.9 484.1 2846.4 489.8Z" fill="#494B50" stroke="#C4C9D4" stroke-width="6" stroke-miterlimit="10"/>
<path d="M4699.2 1306C4693.9 1303.9 4687 1301.8 4682.6 1289.3C4678.2 1276.8 4696.3 1124.9 4696.3 1124.9C4697.3 1104.4 4705.2 1018.4 4702 990.8C4701 981.4 4701.2 981.7 4687.3 960.6C4673.4 939.5 4640.8 911.6 4635.5 908.1C4622.4 899.1 4557.2 840.2 4545.9 831.1C4535.6 823.2 4513.5 801 4487.1 774.2C4464.2 751.1 4448.2 734.5 4423.9 710.8C4399.6 687.1 4376.9 672.3 4360.8 660.6C4074.4 577 3923.7 571.2 3594.6 533.2C3491 521.2 3196 467.9 3187 466.9C3172.5 465.3 3151.8 458.5 3135.1 452C3132 450.8 3129.1 449.6 3126.4 448.5C3123.7 447.4 3125.4 449.8 3125.4 449.8C3103.8 471.5 2990.5 492.8 2917.3 483.1C2894.4 478.3 2867.8 455.6 2849.4 437.4L2849.3 437.3C2835.9 424 2826.8 413 2826.8 413L2552 127C2529.3 103.2 2503.3 49.9 2560.1 35.9C2546.2 27.5 2379.5 1.09999 2155.7 4.39999C1963.5 7.19999 1729.2 24.5 1513.3 73.5C1492 78.3 1492.8 109.7 1474 117.8C1455.2 125.9 1334.2 162.2 1334.2 162.2C1190.8 209.6 997.6 281.6 858.9 341.4C837 350.8 817.7 361.1 796.2 369.8C786.4 373.8 776.4 377.3 766.3 380.3C746.3 390.5 737.3 424 735.7 430.9C531.2 509.1 317.7 593.1 235 633C232 634.6 229 636.3 226 637.9C221.6 640.3 215.9 643.1 209.7 646.3C187.7 657.4 159 672.8 157.1 689.3C154.5 691 150.5 694.5 145.5 699.1C121.2 722 75.2 774.3 71.7 796.5C71.7 796.5 25.4 818.5 16.3 835.9C8 851.8 8 877.1 8 877.1C8 877.1 33.9 1142.4 50.3 1168.2C66.7 1194 95.7 1210.5 95.7 1210.5C136.2 1215 469.3 1272.1 560.6 1273.6C569.5 1273.7 632.9 1274.5 629.6 1266.2C627.5 1260.5 609.9 1264.8 598.9 1250.3C591.4 1240.4 595.4 1164.2 595.4 1164.2C599.7 1018.4 647.3 905.9 722.5 828.5C803.2 745.4 915.9 702.7 1041.1 702.7C1220.1 702.7 1402.7 814.8 1482.5 1045.5C1492.9 1089.9 1497.5 1125.2 1499.7 1157.1C1509.5 1156.9 1625.5 1153.9 1740.8 1152.5C1861.3 1151 2021.5 1160.1 2021.5 1160.1L2312.9 1168.4L2684.4 1176.2C2684.4 1176.2 3014.1 1183.3 3079.1 1185.9C3100.8 1186.8 3118 1187.6 3132.2 1188.5C3160.6 1190.3 3177.2 1192.1 3193.9 1194.2C3218.9 1197.4 3254.4 1205.7 3273.2 1205.7C3289 1205.7 3303.3 1200 3307.5 1198.2C3347 845.7 3629.1 605.4 4015.5 785.5C4285.9 916.5 4291 1181.3 4244.7 1371.9C4238.3 1375.1 4237.9 1394.9 4247.5 1402.7C4248.1 1403.2 4248.7 1403.6 4249.4 1404C4377.3 1398.7 4536.7 1375.5 4599.9 1368C4663.4 1360.5 4723 1328.2 4699.2 1306ZM3136.1 1141.7L2821.7 1132.1C2821.7 1132.1 2379.3 1122.2 2256.7 1119.6C2134.1 1117 2018.8 1121.2 1970.8 1092.5C1922.8 1063.8 1879 937 1855.5 883.3C1832 829.6 1784.5 683 1784.5 683C1784.5 683 1755.3 595.4 1755.3 552.6C1755.5 529.5 1760.4 506.7 1769.8 485.6L1519.2 482.1C1519.2 482.1 1507.1 482.3 1486.9 482.3C1388.4 482.3 1096.8 476.9 1071.1 413.6C1040 336.8 1321.1 245.7 1321.1 245.7C1321.1 245.7 1559.8 159.6 1747.6 130.7C1935.4 101.8 2201.5 93.1 2201.5 93.1C2201.5 93.1 2227.5 92.3 2264.4 92.3C2340.2 92.3 2462 95.8 2500.4 117.4C2562.4 151.9 2562.6 154.9 2726 341.1L2735.9 351.3C2736 351.3 2736.1 351.4 2736.2 351.4C2786.7 372.7 2840.1 434.7 2844.3 456.1C2845.4 461.5 2846.2 467 2846.6 472.5V472.6L2865.9 489.8C2865.9 489.8 2870.6 496.1 2891.7 504.7C2912.8 513.3 2942.7 512.5 2942.7 512.5C2942.7 512.5 3088.9 514.8 3128.7 565.3C3198.1 653.6 3152.1 979.4 3136.1 1141.7ZM4620.7 1086.8H4506.7C4489.6 1086.8 4467 1061.4 4466 1034.5C4465 1007.2 4470.4 1003.2 4488.8 1003.2C4523.7 1003.2 4618.4 1003.9 4647.5 1003.9C4677.4 1003.9 4680.5 1000.2 4683.6 1009.6C4686.7 1019 4685.2 1069.1 4676.3 1078.5C4667.4 1087.9 4620.7 1086.8 4620.7 1086.8Z" fill="#494B50" stroke="#C4C9D4" stroke-width="6" stroke-miterlimit="10"/>
<path d="M766.2 380.4C746.2 390.6 737.2 424.1 735.6 431C531.1 509.2 317.6 593.2 234.9 633.1C288 604 331.6 575.9 297.6 518.3C297.6 518.3 265 446.3 244.9 413.7C224.5 375 232 353.4 268.1 343.3C277.9 340.5 289.8 338.7 303.9 337.5C387.7 337.3 453.7 372.5 495.9 406.9C495.9 406.9 505.3 412.4 513.4 411.9C585.9 403.9 658.8 394.4 732 387.9C743.5 386.2 755 383.7 766.2 380.4Z" fill="#494B50" stroke="#C4C9D4" stroke-width="6" stroke-miterlimit="10"/>
<path d="M3128.7 565.3C3088.9 514.8 2942.7 512.5 2942.7 512.5C2942.7 512.5 2912.8 513.3 2891.7 504.7C2870.6 496.1 2865.9 489.8 2865.9 489.8H2846.4C2845.8 496.3 2844.8 502.7 2844.2 510.9C2842.6 530.5 2805.8 544.2 2772.2 542.2C2738.6 540.2 2722.1 534.4 2715.1 520.3C2708.1 506.2 2745.6 489.8 2745.6 489.8H2668.7C2653.2 488.3 2639 485.5 2630.6 480.4C2625 477.1 2619.9 472.8 2615.8 467.8C2605.6 454.8 2608.7 442.8 2608.7 442.8C2607.9 422.3 2618 396.9 2635.9 376.9C2617.8 396.8 2607.7 422.4 2608.5 442.9C2608.5 442.9 2605.4 454.8 2615.5 467.8L2615.6 467.9C2619.7 473 2624.7 477.2 2630.4 480.5C2638.8 485.6 2653 488.4 2668.5 489.9H2084.2L1769.8 485.6C1760.4 506.7 1755.5 529.5 1755.3 552.6C1755.3 595.4 1784.5 683 1784.5 683C1784.5 683 1832 829.6 1855.5 883.3C1879 937 1922.8 1063.8 1970.8 1092.5C2018.8 1121.2 2134.1 1117 2256.7 1119.6C2379.3 1122.2 2821.7 1132.1 2821.7 1132.1L3136.1 1141.7C3152.1 979.4 3198.1 653.6 3128.7 565.3Z" fill="#494B50" stroke="#C4C9D4" stroke-width="6" stroke-miterlimit="10"/>
<path d="M3307.4 1198.3C3304.7 1222.5 3303.1 1247.4 3302.7 1272.6C3301.9 1326.6 3296.3 1333.3 3283 1339.5C3269.7 1345.7 3244.2 1347 3196.2 1336.7C3148.2 1326.4 2980.8 1325.2 2366.2 1310.9C1760.4 1309.9 2019.2 1282.9 1627.4 1322.9C1575.5 1334.2 1515.3 1340.8 1507.4 1332.8C1504.2 1305.2 1503 1281.2 1502.3 1258.6C1501.3 1223.8 1501.9 1192.6 1499.5 1157.1C1509.3 1156.9 1625.3 1153.9 1740.6 1152.5C1861.1 1151 2021.3 1160.1 2021.3 1160.1L2312.7 1168.4L2684.2 1176.2C2684.2 1176.2 3013.9 1183.3 3078.9 1185.9C3100.6 1186.8 3117.8 1187.6 3132 1188.5C3160.4 1190.3 3177 1192.1 3193.7 1194.2C3218.7 1197.4 3254.2 1205.7 3273 1205.7C3288.9 1205.8 3303.2 1200.1 3307.4 1198.3Z" fill="#494B50" stroke="#C4C9D4" stroke-width="6" stroke-miterlimit="10"/>
<path d="M322.6 806L93.0001 797.4H69.9001C71.0001 796.9 71.6001 796.6 71.6001 796.6C71.6001 796.4 71.7001 796.1 71.7001 795.8C71.7001 795.5 71.8001 795.5 71.8001 795.3C71.9001 794.8 72.1001 794.2 72.2001 793.6C72.3001 793.4 72.3001 793.1 72.4001 792.9L72.7001 792C72.8001 791.7 72.9001 791.3 73.0001 791C73.1001 790.7 73.2001 790.5 73.3001 790.2C73.4001 789.9 73.5001 789.6 73.7001 789.3C73.8001 788.9 74.0001 788.5 74.2001 788.1C78.5001 778 87.5001 764.8 98.0001 751.3C98.5001 750.6 99.1001 749.9 99.7001 749.2C102.4 745.9 105.1 742.5 107.9 739.2C108.3 738.7 108.7 738.2 109.2 737.7L109.4 737.5C110.4 736.3 111.4 735.2 112.4 734C114 732.1 115.6 730.3 117.3 728.4C117.7 728 118 727.6 118.4 727.2C119.9 725.5 121.4 723.9 122.8 722.3C123.3 721.8 123.8 721.2 124.3 720.7C124.9 720 125.6 719.3 126.2 718.7C126.5 718.3 126.9 718 127.2 717.6C127.5 717.2 127.7 717.1 127.9 716.8L128.8 715.9C134.3 710.1 139.4 704.9 144 700.6C144.3 700.3 144.6 700 145 699.7L209.2 700.3C227.3 700.8 243.7 701.5 250.1 702.4C261 704.2 271.6 707.6 281.4 712.6C313.1 735.1 311.5 760.8 315.8 772.9C319.9 785.3 322.6 806 322.6 806Z" fill="#FF0314" stroke="#C4C9D4" stroke-width="6" stroke-miterlimit="10"/>
<path d="M71.8 796.6L322.6 806C322.6 806 319.9 785.3 315.6 773.1C311.3 760.9 312.9 735.3 281.2 712.8C271.4 707.8 260.8 704.4 249.9 702.6C233.1 700.3 145.3 699.2 145.3 699.2" stroke="#C4C9D4" stroke-width="6" stroke-miterlimit="10"/>
<path d="M722.4 828.6L322.6 805.9" stroke="#C4C9D4" stroke-width="6" stroke-miterlimit="10"/>
<path d="M3308.6 1197.7C3308.6 1197.7 3291.9 1205.8 3273.1 1205.8C3254.3 1205.8 3218.8 1197.5 3193.8 1194.3C3168.8 1191.1 3144 1188.6 3079 1186C3014 1183.4 2684.3 1176.3 2684.3 1176.3L2312.8 1168.5L2021.4 1160.2C2021.4 1160.2 1861.2 1151.1 1740.7 1152.6C1620.2 1154.1 1498.9 1157.2 1498.9 1157.2" stroke="#C4C9D4" stroke-width="6" stroke-miterlimit="10"/>
<path d="M2846.4 489.8H2865.9C2865.9 489.8 2870.6 496.1 2891.7 504.7C2912.8 513.3 2942.7 512.5 2942.7 512.5C2942.7 512.5 3088.9 514.8 3128.7 565.3C3205.7 663.3 3140.6 1053.9 3132.1 1188.7" stroke="#C4C9D4" stroke-width="6" stroke-miterlimit="10"/>
<path d="M1769.9 485.4C1769.9 485.4 1755.3 514.8 1755.3 552.6C1755.3 595.4 1784.5 683 1784.5 683C1784.5 683 1832 829.6 1855.5 883.3C1879 937 1922.8 1063.8 1970.8 1092.5C2018.8 1121.2 2134.1 1117 2256.7 1119.6C2379.3 1122.2 2821.7 1132.1 2821.7 1132.1L3137.4 1141.7" stroke="#C4C9D4" stroke-width="6" stroke-miterlimit="10"/>
<path d="M4186.1 924.3L4528.3 929.6C4528.3 929.6 4635 933.2 4641.1 927.9C4647.2 922.6 4642.8 913.9 4642.8 913.9" stroke="#C4C9D4" stroke-width="6" stroke-miterlimit="10"/>
<path d="M4488.8 1003.2C4523.7 1003.2 4618.4 1003.9 4647.5 1003.9C4677.4 1003.9 4680.5 1000.2 4683.6 1009.6C4686.7 1019 4685.2 1069.1 4676.3 1078.5C4667.4 1087.9 4620.7 1086.8 4620.7 1086.8H4506.7C4489.6 1086.8 4467 1061.4 4466 1034.5C4465 1007.2 4470.4 1003.2 4488.8 1003.2Z" stroke="#C4C9D4" stroke-width="6" stroke-miterlimit="10"/>
<path d="M2846.4 489.8C2845.8 496.3 2844.8 502.7 2844.2 510.9C2842.6 530.5 2805.8 544.2 2772.2 542.2C2738.6 540.2 2722.1 534.4 2715.1 520.3C2708.1 506.2 2745.6 489.8 2745.6 489.8H2668.7C2653.2 488.3 2639 485.5 2630.6 480.4C2625 477.1 2619.9 472.8 2615.8 467.8C2605.6 454.8 2608.7 442.8 2608.7 442.8C2607.3 408 2637.5 358.6 2684.5 346.8C2690.4 345.3 2696.5 344.4 2702.6 344.2C2713.2 343.8 2724.6 346.6 2736.2 351.4C2786.7 372.7 2840.1 434.7 2844.3 456.1C2845.4 461.5 2846.2 467 2846.6 472.5C2847 478.3 2846.9 484.1 2846.4 489.8Z" stroke="#C4C9D4" stroke-width="6" stroke-miterlimit="10"/>
<path d="M2745.6 489.8C2745.6 489.8 2770.3 500.4 2795.7 498.4C2821.1 496.4 2846.5 489.8 2846.5 489.8" stroke="#C4C9D4" stroke-width="6" stroke-miterlimit="10"/>
<path d="M766.4 380.3C743.9 391.5 735.3 432.2 735.3 432.2" stroke="#C4C9D4" stroke-width="6" stroke-miterlimit="10"/>
<path d="M209 646.7C311.7 584.5 1192.9 258.9 1192.9 258.9C1192.9 258.9 1417.5 180.6 1611.6 142.3C1805.7 104 1936.6 93.9 2084.6 86.5C2446.5 68.5 2486.7 103.8 2552.2 168.4" stroke="#C4C9D4" stroke-width="6" stroke-miterlimit="10"/>
<path d="M1989.8 641.5C1989.2 642.4 1988.5 643.3 1987.7 644.2C1976.6 657.3 1955.4 669.2 1922.1 668.9C1897.7 668.7 1879.8 661.5 1869.8 647.7C1870 640.7 1863.6 627.2 1932.1 626.7C1990.2 626.3 1992.3 636.5 1989.8 641.5Z" stroke="#C4C9D4" stroke-width="6" stroke-miterlimit="10"/>
<path d="M1990.7 600C1984.7 602.1 1992.6 610.8 1926.2 604.8C1868.3 599.6 1873 593.6 1872.5 589.3C1882 579.6 1897.2 573 1918.7 572.9C1956 572.7 1980.3 583.7 1990.7 600Z" stroke="#C4C9D4" stroke-width="6" stroke-miterlimit="10"/>
<path d="M2055.3 622.1C2055.3 632.3 2022.7 639.6 1987.7 644.2C1988.5 643.4 1989.2 642.5 1989.8 641.5C1992.3 636.5 1990.2 626.3 1932.1 626.7C1863.5 627.2 1869.9 640.6 1869.8 647.7C1869.8 648.3 1869.7 648.8 1869.6 649.4C1868.8 651.8 1861.9 651.6 1856.8 651.7C1816.5 652.5 1790.4 649.8 1790.4 620.3C1790.4 598.7 1807.9 588.5 1832.4 586C1845.9 584.6 1869.5 585.6 1871.6 587.3C1872.3 587.8 1872.7 588.6 1872.7 589.4C1873.1 593.7 1868.4 599.6 1926.4 604.9C1992.8 610.9 1984.9 602.2 1990.9 600.1C1992.5 599.5 1995 599.5 2000.2 600.2C2033.5 605.1 2055.3 612.2 2055.3 622.1Z" stroke="#C4C9D4" stroke-width="6" stroke-miterlimit="10"/>
<path d="M268.1 343.3C260.3 354.4 270.6 366.6 270.6 366.6C287.6 383.3 305.5 399 324.3 413.6C355 437.4 415.2 475.9 466.9 472.2C466.9 472.2 533.4 474.4 739.4 418.1" stroke="#C4C9D4" stroke-width="6" stroke-miterlimit="10"/>
<path d="M513.4 411.9C384.8 427.1 390.6 454.5 390.6 454.5" stroke="#C4C9D4" stroke-width="6" stroke-miterlimit="10"/>
<path d="M4249.4 1403.9C4249.4 1403.9 4170.7 1371.5 4165.2 1366.1C4159.7 1360.7 4172.2 1348.1 4153.4 1332.2C4146 1326 4134 1298.4 4117.6 1295.1L3434.2 1294.8C3338.8 1299.6 3301.2 1305 3301.2 1305" stroke="#C4C9D4" stroke-width="6" stroke-miterlimit="10"/>
<path d="M629.6 1266.1C629.6 1251.6 643.5 1254.4 643.5 1254.4H671.3L1411.3 1249.6L1502.8 1258.7" stroke="#C4C9D4" stroke-width="6" stroke-miterlimit="10"/>
<path d="M1452.4 125.6C1452.4 125.6 1427.5 138.5 1247.9 204.6C1068.3 270.7 888.7 348.1 847.2 363.8C805.7 379.5 796.1 369.9 796.1 369.9" stroke="#C4C9D4" stroke-width="6" stroke-miterlimit="10"/>
<path d="M3374.9 496.3C3374.9 496.3 3371.3 486.2 3355.1 484.1C3338.9 482 3334.2 490.2 3334.2 490.2" stroke="#C4C9D4" stroke-width="6" stroke-miterlimit="10"/>
<path d="M4487.1 774.3C4487.1 774.3 4484.3 753.8 4443.8 714.7C4377.7 650.7 4360.7 660.7 4360.7 660.7" stroke="#C4C9D4" stroke-width="6" stroke-miterlimit="10"/>
<path d="M3112.9 440.3L3110.8 441.5C3110.7 441.5 3110.7 441.4 3110.6 441.4C3109.9 441.8 3109.1 442.2 3108.3 442.6C3108.2 442.7 3108.1 442.7 3108 442.8C3107.1 443.2 3106.3 443.7 3105.4 444.1C3102 445.7 3098.1 447.4 3093.9 449C3092.9 449.4 3092 449.7 3091 450.1C3090.4 450.3 3089.8 450.5 3089.2 450.8L3087.4 451.4C3086.2 451.8 3084.9 452.3 3083.6 452.7C3082.3 453.1 3081 453.5 3079.6 453.9C3078.2 454.3 3076.9 454.7 3075.5 455.1L3071.3 456.3C3070.6 456.5 3069.9 456.7 3069.1 456.9L3064.7 458.1C3059.9 459.3 3054.8 460.5 3049.6 461.6C3046.7 462.2 3043.7 462.8 3040.7 463.4C3037.7 464 3034.6 464.5 3031.5 465.1C3026.8 465.9 3022.1 466.6 3017.3 467.3L3012.5 467.9C3010.3 468.2 3008.2 468.4 3006 468.7C3003.8 469 3001.6 469.2 2999.4 469.4C2996.5 469.7 2993.6 469.9 2990.6 470.1L2985.8 470.4H2985.1C2975.8 471 2966.4 471.2 2957.1 471.1C2955.3 471.1 2953.5 471.1 2951.8 471C2950.4 471 2949.1 470.9 2947.7 470.9L2941 470.6C2938.8 470.5 2936.6 470.3 2934.4 470.1C2933.6 470 2932.7 469.9 2931.9 469.9C2930.6 469.8 2929.3 469.7 2928 469.5C2926.1 469.3 2924.3 469.1 2922.4 468.8C2921.3 468.6 2920.2 468.3 2919 468C2918.6 467.9 2918.2 467.8 2917.8 467.6C2917.7 467.6 2917.6 467.6 2917.5 467.5C2917.1 467.4 2916.7 467.3 2916.3 467.1C2916.1 467 2915.8 466.9 2915.6 466.9C2915.2 466.8 2914.8 466.6 2914.5 466.5H2914.4C2913.9 466.3 2913.3 466.1 2912.8 465.9C2912.3 465.7 2911.7 465.5 2911.2 465.3C2910.6 465.1 2910.1 464.9 2909.6 464.6C2909.3 464.5 2908.9 464.3 2908.6 464.2C2906.2 463.2 2903.9 462 2901.6 460.7C2901.1 460.4 2900.5 460.1 2900 459.8C2899.5 459.5 2898.9 459.2 2898.4 458.9C2897.9 458.6 2897.4 458.3 2896.8 458C2895.3 457.1 2893.7 456.1 2892.2 455.1C2891.7 454.8 2891.2 454.4 2890.7 454.1C2890.2 453.8 2889.7 453.4 2889.2 453.1L2886.2 451C2879.8 446.5 2873.6 441.5 2867.8 436.5C2867.3 436 2866.7 435.5 2866.1 435.1C2863.8 433.1 2861.6 431.1 2859.5 429.1C2859.1 428.8 2858.7 428.4 2858.4 428C2852 422 2846.5 416.4 2842.2 411.9C2841.9 411.6 2841.6 411.3 2841.4 411C2840.1 409.7 2839 408.4 2838 407.3C2837.9 407.1 2837.7 407 2837.6 406.8C2835.3 404.2 2833.7 402.5 2833.1 401.7L2833 401.6C2832.9 401.5 2832.9 401.5 2832.9 401.4C2832.9 401.3 2832.9 401.3 2832.8 401.3L2566 124.1C2563.3 121.3 2560.7 118.3 2558.3 115.4C2557.7 114.7 2557.1 113.9 2556.6 113.2C2556.3 112.8 2556 112.4 2555.8 112.1C2555.4 111.6 2555.1 111.1 2554.8 110.6C2554.6 110.4 2554.5 110.1 2554.3 109.9C2554 109.4 2553.7 108.9 2553.4 108.4C2553.1 108 2552.9 107.6 2552.6 107.2C2552.5 107.1 2552.4 107 2552.4 106.8C2551.9 106 2551.5 105.3 2551.1 104.5L2550.5 103.3L2549.9 102.1C2549.8 101.8 2549.6 101.5 2549.5 101.2C2549.2 100.7 2549 100.1 2548.8 99.5C2548.4 98.6 2548.1 97.6 2547.8 96.7C2545 87.6 2546.3 78.5 2554.4 69.7L2555 69.1L2555.6 68.5C2556 68 2556.5 67.6 2557 67.2C2557.3 67 2557.5 66.8 2557.7 66.5C2558.3 65.9 2559 65.4 2559.7 64.8C2560.8 64 2561.9 63.1 2563 62.3C2563.8 61.7 2564.6 61.2 2565.5 60.6C2566.3 60.1 2567.2 59.5 2568.1 59C2569.6 58.1 2571.1 57.3 2572.8 56.4C2573.8 55.9 2574.8 55.4 2575.9 54.9C2576.6 54.6 2577.3 54.2 2578 53.9C2578.4 53.7 2578.7 53.6 2579.1 53.4C2579.9 53 2580.7 52.7 2581.5 52.3C2582.3 51.9 2583.2 51.6 2584 51.2C2583 50.4 2581.9 49.6 2580.8 49C2580.9 49 2581 48.9 2581.1 48.9L2860.2 250.8L3112.9 440.3Z" stroke="#C4C9D4" stroke-width="6" stroke-miterlimit="10"/>
<path d="M4488.8 1003.2C4523.7 1003.2 4618.4 1003.9 4647.5 1003.9C4677.4 1003.9 4680.5 1000.2 4683.6 1009.6C4686.7 1019 4685.2 1069.1 4676.3 1078.5C4667.4 1087.9 4620.7 1086.8 4620.7 1086.8H4506.7C4489.6 1086.8 4467 1061.4 4466 1034.5C4465 1007.2 4470.4 1003.2 4488.8 1003.2Z" fill="#494B50" stroke="#C4C9D4" stroke-width="6" stroke-miterlimit="10"/>
<path d="M41.6001 797.4L329.8 803L315 747.5C315 747.5 304.3 696.7 253.5 696.7H141.2L83.4001 707.5C83.4001 707.5 75.0001 708.9 75.0001 717.9C75.0001 727 75.2001 729 79.2001 731.4L41.6001 797.4Z" fill="#494B50" stroke="#C4C9D4" stroke-width="6" stroke-miterlimit="10"/>
<path d="M242.4 800.9H223.8C223.8 800.9 223.4 797 222.6 791.8C221.8 786.1 220.5 778.8 219 772.9C218.8 772 218.5 771.1 218.3 770.3C214 755.8 206.7 740.6 206.7 740.6C201.6 732.2 189.5 731.5 189.5 731.5H207.3C207.3 731.5 219.4 732.2 224.5 740.6C224.5 740.6 231.8 755.8 236.1 770.3C237.1 773.8 238.1 778.1 238.8 782.3L242.4 800.9Z" fill="#C4C9D4" stroke="#C4C9D4" stroke-width="6" stroke-miterlimit="10"/>
<path d="M41.6001 797.4L329.8 803L315 747.5C315 747.5 304.3 696.7 253.5 696.7H141.2L83.4001 707.5C83.4001 707.5 75.0001 708.9 75.0001 717.9C75.0001 727 75.2001 729 79.2001 731.4L41.6001 797.4Z" stroke="#C4C9D4" stroke-width="6" stroke-miterlimit="10"/>
<path d="M329.8 802.9L280.5 801.9C280.5 801.9 277.7 782 268 756.9C258.2 731.8 243 707.7 223 707.7H82.5C83 707.5 83.4 707.5 83.4 707.5L141.2 696.7H253.5C304.3 696.7 315 747.5 315 747.5L329.8 802.9Z" stroke="#C4C9D4" stroke-width="6" stroke-miterlimit="10" stroke-linejoin="round"/>
<path d="M223.8 800.9L41.6001 797.4L79.2001 731.5H189.5C189.5 731.5 201.6 732.2 206.7 740.6C206.7 740.6 214 755.8 218.3 770.3C218.5 771.1 218.8 772 219 772.9C220.5 778.8 221.8 786.1 222.6 791.8C223.4 797 223.8 800.9 223.8 800.9Z" stroke="#C4C9D4" stroke-width="6" stroke-miterlimit="10" stroke-linejoin="round"/>
<path d="M1043.3 1514.8C1250.24 1514.8 1418 1347.04 1418 1140.1C1418 933.159 1250.24 765.4 1043.3 765.4C836.359 765.4 668.6 933.159 668.6 1140.1C668.6 1347.04 836.359 1514.8 1043.3 1514.8Z" fill="#494B50" stroke="#C4C9D4" stroke-width="6" stroke-miterlimit="10"/>
<path d="M1040.2 1432.2C1201.69 1432.2 1332.6 1301.29 1332.6 1139.8C1332.6 978.312 1201.69 847.4 1040.2 847.4C878.712 847.4 747.8 978.312 747.8 1139.8C747.8 1301.29 878.712 1432.2 1040.2 1432.2Z" stroke="#C4C9D4" stroke-width="6" stroke-miterlimit="10"/>
<path d="M1065.5 864.4C1217.5 878.4 1329.6 1013.2 1315.6 1165.2C1301.6 1317.2 1166.8 1429.3 1014.8 1415.3C862.8 1401.3 750.7 1266.5 764.7 1114.5C778.8 962.5 913.6 850.4 1065.5 864.4Z" stroke="#C4C9D4" stroke-width="6" stroke-miterlimit="10"/>
<path d="M1040.2 1398.2C1182.91 1398.2 1298.6 1282.51 1298.6 1139.8C1298.6 997.09 1182.91 881.4 1040.2 881.4C897.49 881.4 781.8 997.09 781.8 1139.8C781.8 1282.51 897.49 1398.2 1040.2 1398.2Z" stroke="#C4C9D4" stroke-width="6" stroke-miterlimit="10"/>
<path d="M1193.8 1327.8C1193.4 1329 1192.7 1329.9 1191.7 1330.6C1191.6 1330.7 1189.3 1332.7 1184.8 1336.1C1178.3 1340.8 1171.7 1345.2 1164.8 1349.3C1147.4 1359.6 1135.5 1363.8 1135.4 1363.8H1135.2C1134.3 1364.1 1133.2 1364.3 1132.2 1364.3L1131.2 1364.2C1130 1363.3 1129.1 1362.1 1128.4 1360.7L1059.3 1211.3C1072.4 1207.9 1084.3 1200.9 1093.7 1191.3L1192.2 1323.3L1192.3 1323.4C1192.5 1323.3 1194.1 1325.4 1193.8 1327.8ZM1282.6 1118.7C1282.6 1118.5 1281.9 1105.7 1277.6 1086C1273.3 1066.3 1268 1055 1267.9 1054.9L1267.8 1054.8L1267.7 1054.7C1267.3 1053.7 1266.6 1052.7 1265.6 1051.9C1265.2 1051.8 1264.9 1051.6 1264.5 1051.4C1264.5 1051.3 1264.5 1051.3 1264.4 1051.3C1263.2 1051.2 1261.9 1051.4 1260.7 1051.8H1260.6L1105.2 1104.7C1111.7 1116.5 1114.8 1130 1114.2 1143.6L1277.3 1124.5H1277.6C1279.1 1124.4 1280.5 1123.7 1281.5 1122.5L1281.6 1122.4L1281.7 1122.3C1282.3 1121.2 1282.7 1119.9 1282.6 1118.7ZM1097.9 904.3C1097.1 903.5 1096 903 1094.9 902.7H1094.7C1094.6 902.6 1082.7 899.3 1062.4 897.4C1042.2 895.5 1029.9 896.7 1029.7 896.7H1029.5C1028.3 896.7 1027.2 897.1 1026.2 897.7V897.8C1025.4 898.9 1024.9 900.2 1024.8 901.6L1024.7 902.3L1026.9 1066.8C1033.4 1065.6 1040.1 1065.3 1046.7 1065.8C1053.4 1066.3 1059.9 1067.8 1066.1 1070.2L1098.2 909.2V909C1098.6 909.1 1099.1 906.5 1097.9 904.3ZM838.9 1012.7L838.4 1012.5C837.6 1012 836.9 1011.8 836 1011.7L835.7 1012.1L834.5 1012.2C834 1012.3 833 1013.4 832.4 1014.3L832.3 1014.5L832.2 1014.7C832.2 1014.8 825 1025.1 817 1043.5C809.1 1062.2 806.1 1074.6 806.1 1074.7C805.9 1075.8 805.9 1077 806.2 1078.1C807.3 1079.4 808.6 1080.4 810.1 1081.1L966.8 1129.7C968.6 1116.3 974 1103.6 982.6 1093.1L838.9 1012.7ZM978.2 1180.2L857.4 1292L857.3 1292.1L857.2 1292.2C856.1 1293.2 855.3 1294.6 855 1296.1C855.1 1296.6 855.2 1297.1 855.5 1297.6C855.7 1298.2 856.1 1298.8 856.5 1299.2C856.6 1299.3 864.4 1309.3 879.7 1322.6C894.9 1336 905.9 1342.1 906 1342.2H906.2C907.1 1342.7 908 1343 909 1343.2L910 1343.3C911.4 1342.6 912.5 1341.6 913.4 1340.4L1008.5 1206.2C996.1 1200.6 985.5 1191.5 978.2 1180.2Z" stroke="#C4C9D4" stroke-width="6" stroke-miterlimit="10"/>
<path d="M1113.5 1153C1108 1152.5 1102.6 1154.6 1098.9 1158.7C1092.3 1165.7 1093.1 1176.9 1100.7 1183.6C1103.5 1186.2 1107 1187.8 1110.8 1188C1116.3 1188.5 1121.7 1186.4 1125.4 1182.3C1132 1175.3 1131.2 1164.1 1123.6 1157.4C1121.2 1154.8 1117.7 1153.4 1113.5 1153ZM1093.6 1063.7C1089.8 1063.5 1086.1 1064.3 1082.8 1066.2C1074.7 1071.3 1071.9 1081.9 1076.5 1090.3C1079.4 1095 1084.3 1098 1089.8 1098.6C1093.6 1098.8 1097.3 1098 1100.6 1096.1C1108.7 1091 1111.5 1080.4 1106.9 1072C1104 1067.3 1099.1 1064.2 1093.6 1063.7ZM1001.7 1055.2C999.9 1054.9 998.1 1055 996.4 1055.3C986.8 1057.3 981.3 1066.9 983.4 1076.4C985 1084 991.4 1089.6 999.2 1090.2C1001 1090.5 1002.8 1090.4 1004.5 1090.1C1014.1 1088.1 1019.6 1078.5 1017.5 1069C1015.9 1061.5 1009.5 1055.8 1001.7 1055.2ZM1034.6 1200.4C1027 1199.7 1020.2 1203.7 1016.5 1211.1C1012.8 1220.2 1017 1230.5 1025.4 1234.2C1027 1234.9 1028.8 1235.2 1030.6 1235.3C1038.2 1236 1045 1232 1048.7 1224.6C1052.4 1215.5 1048.2 1205.2 1039.8 1201.5C1038.2 1200.8 1036.4 1200.4 1034.6 1200.4ZM965.7 1139.4C956 1138.5 947.6 1145.6 946.7 1155.2C945.8 1164.9 952.9 1173.3 962.5 1174.2C972.1 1175.1 980.6 1168 981.5 1158.4C982.4 1148.9 975.3 1140.4 965.7 1139.4Z" stroke="#C4C9D4" stroke-width="6" stroke-miterlimit="10"/>
<path d="M1261.4 1156C1259.2 1180.3 1253.3 1204.1 1243.9 1226.6C1234.1 1249.7 1220.6 1269.6 1204.9 1287.6C1201.2 1291.7 1195.8 1293.8 1190.3 1293.3C1188.5 1293.2 1186.7 1292.9 1185.1 1292.2C1183.6 1291.6 1182 1290.6 1180.7 1289.5C1179.6 1288.8 1179.1 1287.5 1178.1 1286.3L1176.5 1283.8L1138 1216.8C1130.8 1206.1 1129.7 1192 1135 1179.6C1140.1 1167.3 1151 1158.4 1164.1 1155.8L1239.1 1138L1241.4 1137.6C1242.7 1137.2 1244.2 1137.2 1245.5 1137.4C1247.8 1137.6 1249.5 1138.4 1250.8 1137.9C1257.3 1141 1262.1 1148.4 1261.4 1156ZM1233.6 1029C1221.4 1008 1205.8 989.2 1187.6 973.2C1168.6 956.8 1148.1 943.7 1126 934.7C1123.9 934.1 1121.8 933.7 1119.7 933.5C1114.2 933 1108.8 935.1 1105.1 939.2C1103.9 940.4 1102.9 941.9 1102.4 943.6C1101.8 944.8 1101.5 946.2 1101.4 947.6L1101.1 950.5L1095.2 1027.5C1094.6 1034 1095.5 1040.5 1097.8 1046.5C1103.2 1061.2 1116.6 1071.3 1132.2 1072.6C1136.8 1073.1 1141.4 1072.7 1145.9 1071.5L1221.4 1055.5L1223.7 1055.1C1225 1054.6 1226.3 1053.9 1227.4 1053.1C1229.2 1052.2 1230.6 1051 1231.9 1049.4C1236.7 1043.6 1237.4 1035.4 1233.6 1029ZM1016.2 935.6C1016 933.9 1015.3 932.2 1014.3 930.8C1010.6 926.3 1005.6 923 999.8 922.4C998 922.1 996.2 922.2 994.5 922.5C970.5 927.4 947.7 936.4 926.9 949.1C905.9 961.3 887.2 977.1 871.5 995.6C866.6 1001.3 865.8 1009.4 869.6 1015.9C870.7 1017.2 871.6 1019 873.3 1020.4C874.4 1021.1 875.4 1022.4 876.6 1023L878.8 1023.8L950.1 1053.3C952.1 1054.4 954.2 1055.2 956.4 1055.8C958.7 1056.4 960.9 1056.7 963.2 1056.9C971.8 1057.7 980.3 1055.9 987.7 1051.5C999.1 1044.5 1006.5 1032.5 1007.7 1019.2L1016 942.4L1016.3 939.5C1016.5 938.6 1016.1 936.8 1016.2 935.6ZM940.1 1162.2C937.3 1149.3 928.1 1138.5 915.8 1133.7L845.3 1102.5L843.1 1101.7C841.9 1100.9 840.5 1100.4 839.1 1100.1C837.3 1099.9 835.6 1100.4 833.8 1100.2C826.2 1101.9 820.7 1108.3 820 1116C817.2 1140.2 818.6 1164.9 824.4 1188.6C829.7 1212.3 838.9 1235 851.7 1255.7C854.6 1260.4 859.5 1263.4 865 1264C866.8 1264.3 868.6 1264.2 870.3 1263.9C872 1263.7 873.7 1263 875.1 1262C876.4 1261.4 877.4 1260.5 878.3 1259.4L880.3 1257.3L930.4 1198.4C936.4 1191.7 940.1 1183.2 941 1174.3C941.2 1170.3 941 1166.2 940.1 1162.2ZM1105.6 1334.8C1105.1 1333.6 1104.7 1331.8 1104.2 1330.6L1102.6 1328.1L1062.4 1262.1C1059.4 1256.5 1054.9 1251.7 1049.6 1248.2C1044 1244.5 1037.5 1242.2 1030.8 1241.6C1016.9 1240.3 1004.5 1246.2 996 1256L944.4 1313.5L942.4 1315.6C941.6 1316.8 940.9 1318.2 940.2 1319.5C939.5 1321.1 939.2 1322.9 939.1 1324.7C938.4 1332.3 942.4 1339.1 949.8 1342.8C994.5 1362.6 1044.3 1367.2 1091.8 1355.9C1099.4 1354.3 1105 1347.9 1105.6 1340.1C1106 1338.4 1106 1336.6 1105.6 1334.8Z" stroke="#C4C9D4" stroke-width="6" stroke-miterlimit="10"/>
<path d="M1040.2 1188.3C1066.99 1188.3 1088.7 1166.59 1088.7 1139.8C1088.7 1113.01 1066.99 1091.3 1040.2 1091.3C1013.41 1091.3 991.7 1113.01 991.7 1139.8C991.7 1166.59 1013.41 1188.3 1040.2 1188.3Z" stroke="#C4C9D4" stroke-width="6" stroke-miterlimit="10"/>
<path d="M1141.6 924.8C1140 927.8 1136.9 929.6 1133.5 929.4C1132.9 929.3 1131.8 928.6 1131.3 928.6C1127.3 927 1125.5 922.1 1126.9 918.2C1128.5 915.2 1131.6 913.4 1135 913.6C1135.8 913.7 1136.6 913.9 1137.2 914.4C1141.2 915.9 1143.1 920.8 1141.6 924.8ZM986.8 915.9C987.4 916 988.6 916.1 989.1 915.5C993.3 914.7 996 910.2 995.3 906C994.3 902.8 991.6 900.4 988.2 900C987.6 899.9 986.4 899.8 985.9 900.4C981.7 901.2 979 905.7 979.7 909.9C980.5 913.3 983.4 915.8 986.8 915.9ZM1202.2 955.7C1201 954.5 1199.5 953.7 1197.8 953.5C1195.4 953.4 1193 954.3 1191.2 955.8C1188.5 959.2 1188.8 964 1192 966.9C1193.1 968.2 1194.7 969 1196.4 969.1C1198.8 969.2 1201.2 968.3 1203 966.8C1205.7 963.5 1205.3 958.7 1202.2 955.7ZM919.4 927.9C917.6 927.7 916.5 928.2 914.7 929.3C911 931.3 909.9 936.5 911.9 940.1C913.2 942.2 915.5 943.4 918 943.6C919.8 943.8 920.9 943.3 922.7 942.2C926.4 940.2 927.5 935 925.5 931.4C924 929.5 921.8 928.2 919.4 927.9ZM1245.3 1010.7C1243.5 1010.5 1242.4 1011 1240.6 1012.1C1236.9 1014.1 1235.8 1019.3 1237.8 1022.9C1239.1 1025 1241.4 1026.2 1243.9 1026.4C1245.7 1026.6 1246.8 1026.1 1248.6 1025C1252.3 1023 1253.4 1017.8 1251.4 1014.2C1249.9 1012.3 1247.7 1011.1 1245.3 1010.7ZM856.2 988.8C857.3 990.1 858.9 990.9 860.6 991C863 991.1 865.4 990.2 867.2 988.7C869.9 985.3 869.6 980.5 866.4 977.6C865.3 976.3 863.7 975.4 862 975.4C859.6 975.3 857.2 976.2 855.4 977.7C852.7 981.1 853 985.9 856.2 988.8ZM1277.4 1154C1273.2 1153.6 1269.5 1156.7 1269.1 1160.9C1268.7 1165.1 1271.8 1168.8 1276 1169.2C1280.2 1169.6 1283.9 1166.5 1284.3 1162.3C1285.3 1158.2 1281.9 1154.4 1277.4 1154ZM811.5 1118.8C811.8 1114.7 808.7 1111 804.6 1110.5C800.4 1110.1 796.7 1113.2 796.3 1117.4C795.9 1121.6 799 1125.3 803.2 1125.7C807.4 1126 811.1 1123 811.5 1118.8ZM1261.2 1226.4C1260.8 1225.8 1260.2 1225.7 1259 1225.6C1255.6 1225.4 1252.4 1227.1 1250.9 1230.2C1249.3 1234.3 1251.2 1238.9 1255.3 1240.6C1255.9 1240.7 1257 1241.4 1257.5 1241.4C1260.9 1241.6 1264.1 1239.9 1265.6 1236.8C1267.1 1232.8 1265.2 1227.9 1261.2 1226.4ZM809.5 1184.3C808.9 1184.2 807.7 1184.1 807.2 1184.7C803 1185.5 800.3 1190 801 1194.2C801.7 1197.6 804.7 1200.1 808.1 1200.2C808.7 1200.3 809.9 1200.4 810.4 1199.8C814.6 1199 817.3 1194.5 816.6 1190.3C815.1 1187.2 812.5 1184.5 809.5 1184.3ZM1224.2 1290.6C1223 1289.5 1221.5 1288.6 1219.8 1288.4C1217.4 1288.3 1215 1289.2 1213.2 1290.7C1210.5 1294.1 1210.8 1298.9 1214 1301.8C1215.1 1303.1 1216.7 1303.9 1218.4 1304C1220.8 1304.1 1223.2 1303.2 1225 1301.7C1227.7 1298.5 1227.3 1293.6 1224.2 1290.6ZM836.6 1253.1C834.8 1252.9 833.7 1253.4 831.9 1254.5C828.2 1256.5 827.1 1261.7 829.1 1265.3C830.4 1267.4 832.7 1268.6 835.2 1268.8C837 1269 838.1 1268.5 839.9 1267.4C843.6 1265.4 844.7 1260.2 842.7 1256.6C841.7 1254.8 839 1253.4 836.6 1253.1ZM1093.6 1363.7C1093 1363.6 1091.8 1363.5 1091.3 1364.1C1087.1 1364.9 1084.4 1369.4 1085.1 1373.6C1085.8 1377 1088.8 1379.5 1092.2 1379.6C1092.8 1379.7 1094 1379.8 1094.5 1379.2C1098.7 1378.4 1101.4 1373.9 1100.7 1369.7C1099.2 1366 1096.5 1363.9 1093.6 1363.7ZM949.9 1351C949.2 1350.5 948.5 1350.3 947.7 1350.2C944.3 1350 941.1 1351.7 939.6 1354.8C938 1358.9 939.9 1363.5 944 1365.2C944.6 1365.3 945.7 1366 946.2 1366C949.6 1366.2 952.8 1364.5 954.3 1361.4C955.7 1357.5 953.9 1352.6 949.9 1351ZM1019.2 1368.6C1015 1368.2 1011.3 1371.3 1010.9 1375.5C1010.5 1379.7 1013.6 1383.4 1017.8 1383.8C1022 1384.2 1025.7 1381.1 1026.1 1376.9C1026.4 1372.6 1023.4 1368.9 1019.2 1368.6Z" stroke="#C4C9D4" stroke-width="6" stroke-miterlimit="10"/>
<path d="M3779.1 1512.5C3983.45 1512.5 4149.1 1346.85 4149.1 1142.5C4149.1 938.155 3983.45 772.5 3779.1 772.5C3574.75 772.5 3409.1 938.155 3409.1 1142.5C3409.1 1346.85 3574.75 1512.5 3779.1 1512.5Z" fill="#494B50" stroke="#C4C9D4" stroke-width="6" stroke-miterlimit="10"/>
<path d="M3779.1 1434.9C3940.59 1434.9 4071.5 1303.99 4071.5 1142.5C4071.5 981.012 3940.59 850.1 3779.1 850.1C3617.61 850.1 3486.7 981.012 3486.7 1142.5C3486.7 1303.99 3617.61 1434.9 3779.1 1434.9Z" stroke="#C4C9D4" stroke-width="6" stroke-miterlimit="10"/>
<path d="M3779.1 865.9C3931.7 865.9 4055.7 989.9 4055.7 1142.5C4055.7 1295.1 3931.7 1419.1 3779.1 1419.1C3626.5 1419.1 3502.5 1295.1 3502.5 1142.5C3502.5 989.9 3626.5 865.9 3779.1 865.9Z" stroke="#C4C9D4" stroke-width="6" stroke-miterlimit="10"/>
<path d="M3779.1 1400.9C3921.81 1400.9 4037.5 1285.21 4037.5 1142.5C4037.5 999.79 3921.81 884.1 3779.1 884.1C3636.39 884.1 3520.7 999.79 3520.7 1142.5C3520.7 1285.21 3636.39 1400.9 3779.1 1400.9Z" stroke="#C4C9D4" stroke-width="6" stroke-miterlimit="10"/>
<path d="M3949.3 1315.6C3949 1316.8 3948.4 1317.8 3947.5 1318.6C3947.4 1318.7 3945.3 1320.9 3941.1 1324.7C3935.1 1330 3928.9 1335 3922.4 1339.7C3906 1351.6 3894.5 1356.8 3894.4 1356.8H3894.2C3893.3 1357.2 3892.3 1357.5 3891.3 1357.6H3890.3C3889 1356.8 3888 1355.7 3887.2 1354.4L3804.7 1212C3817.4 1207.4 3828.6 1199.4 3837.1 1188.9L3947.3 1311.3L3947.4 1311.4C3947.6 1311.3 3949.3 1313.2 3949.3 1315.6ZM4018.5 1099.3C4018.5 1099.1 4016.6 1086.4 4010.5 1067.2C4004.4 1048 3998.1 1037.2 3998 1037.1L3997.9 1037L3997.8 1036.9C3997.3 1035.9 3996.5 1035 3995.5 1034.3C3995.1 1034.2 3994.8 1034.1 3994.4 1033.9C3994.4 1033.8 3994.4 1033.8 3994.3 1033.8C3993.1 1033.8 3991.8 1034.1 3990.7 1034.6H3990.6L3840.7 1101.5C3848.3 1112.7 3852.6 1125.8 3853.2 1139.4L4013.9 1105.4H4014.2C4015.7 1105.2 4017 1104.3 4017.9 1103.1L4018 1103L4018.1 1102.9C4018.5 1101.8 4018.7 1100.5 4018.5 1099.3ZM3815 902.7C3814.1 902 3813 901.6 3811.9 901.4H3811.7C3811.6 901.3 3799.4 899.1 3779.1 899.1C3758.8 899.1 3746.7 901.4 3746.5 901.4H3746.3C3745.1 901.5 3744 902 3743.1 902.7V902.8C3742.4 904 3742 905.3 3742.1 906.7V907.4L3759.4 1071C3765.8 1069.2 3772.4 1068.3 3779 1068.2C3785.7 1068.1 3792.3 1069 3798.7 1070.8L3815.9 907.5V907.3C3816.1 907.4 3816.4 904.8 3815 902.7ZM3567 1034.4L3566.5 1034.2C3565.7 1033.8 3564.9 1033.6 3564 1033.6L3563.7 1034L3562.5 1034.2C3562 1034.3 3561.1 1035.5 3560.6 1036.5L3560.5 1036.7L3560.4 1036.9C3560.4 1037 3554.2 1047.9 3547.9 1067C3541.7 1086.3 3539.9 1099 3539.9 1099.1C3539.8 1100.2 3539.9 1101.4 3540.3 1102.5C3541.5 1103.7 3542.9 1104.6 3544.5 1105.1L3705 1139.1C3705.6 1125.6 3709.8 1112.4 3717.4 1101.2L3567 1034.4ZM3721 1188.4L3611 1310.8L3610.9 1310.9L3610.8 1311C3609.8 1312.1 3609.1 1313.6 3609 1315.1C3609.1 1315.6 3609.3 1316.1 3609.6 1316.6C3609.9 1317.2 3610.3 1317.7 3610.7 1318.1C3610.8 1318.2 3619.5 1327.4 3635.9 1339.3C3652.3 1351.2 3663.8 1356.3 3663.9 1356.4H3664.1C3665 1356.8 3666 1357 3667 1357.1H3668C3669.3 1356.3 3670.3 1355.2 3671.1 1353.9L3753.5 1211.6C3740.7 1207.1 3729.4 1199.1 3721 1188.4Z" stroke="#C4C9D4" stroke-width="6" stroke-miterlimit="10"/>
<path d="M3853.3 1148.9C3847.8 1148.9 3842.6 1151.5 3839.3 1155.9C3833.4 1163.5 3835.2 1174.6 3843.4 1180.5C3846.4 1182.8 3850.1 1184.1 3853.9 1184C3859.4 1184 3864.6 1181.4 3867.9 1177C3873.8 1169.4 3872 1158.3 3863.8 1152.4C3861.1 1150 3857.5 1148.9 3853.3 1148.9ZM3825.3 1061.8C3821.5 1061.9 3817.9 1063.1 3814.8 1065.3C3807.2 1071.1 3805.4 1081.9 3810.7 1089.9C3814 1094.3 3819.2 1096.9 3824.7 1096.9C3828.5 1096.8 3832.1 1095.6 3835.2 1093.4C3842.8 1087.6 3844.6 1076.8 3839.3 1068.8C3836 1064.4 3830.8 1061.8 3825.3 1061.8ZM3733 1061.8C3731.2 1061.7 3729.4 1061.9 3727.7 1062.4C3718.3 1065.3 3713.7 1075.3 3716.7 1084.6C3719 1092 3725.9 1097 3733.7 1096.9C3735.5 1097 3737.3 1096.8 3739 1096.3C3748.4 1093.4 3753 1083.4 3750 1074.1C3747.7 1066.7 3740.8 1061.7 3733 1061.8ZM3779.1 1203.3C3771.5 1203.3 3765.1 1207.9 3762.1 1215.6C3759.2 1225 3764.4 1234.9 3773.1 1237.8C3774.8 1238.3 3776.6 1238.5 3778.4 1238.4C3786 1238.4 3792.4 1233.8 3795.4 1226.1C3798.3 1216.7 3793.1 1206.8 3784.4 1203.9C3782.7 1203.4 3780.9 1203.2 3779.1 1203.3ZM3704.9 1148.9C3695.2 1148.9 3687.4 1156.7 3687.4 1166.4C3687.4 1176.1 3695.2 1183.9 3704.9 1183.9C3714.6 1183.9 3722.4 1176.1 3722.4 1166.4C3722.4 1156.8 3714.5 1149 3704.9 1148.9Z" stroke="#C4C9D4" stroke-width="6" stroke-miterlimit="10"/>
<path d="M4000.8 1138.4C4000.8 1162.8 3997.1 1187 3989.8 1210.3C3982.2 1234.2 3970.5 1255.3 3956.5 1274.6C3953.2 1279 3948 1281.6 3942.5 1281.6C3940.7 1281.7 3938.9 1281.5 3937.2 1281C3935.6 1280.5 3934 1279.7 3932.6 1278.7C3931.4 1278.1 3930.8 1276.9 3929.7 1275.8L3927.9 1273.5L3883.4 1210.3C3875.2 1200.3 3872.9 1186.4 3877 1173.5C3881 1160.8 3891 1150.9 3903.8 1147.1L3976.9 1122.5L3979.2 1121.9C3980.5 1121.4 3981.9 1121.2 3983.3 1121.3C3985.6 1121.3 3987.4 1121.9 3988.6 1121.3C3995.4 1123.8 4000.8 1130.7 4000.8 1138.4ZM3961.5 1014.4C3947.4 994.6 3930.2 977.3 3910.6 963C3890.2 948.4 3868.6 937.2 3845.7 930.3C3843.6 929.9 3841.4 929.7 3839.3 929.7C3833.8 929.7 3828.6 932.3 3825.3 936.7C3824.2 938 3823.4 939.6 3823 941.3C3822.5 942.6 3822.3 944 3822.4 945.4V948.3L3823.6 1025.5C3823.6 1032 3825.1 1038.4 3827.9 1044.2C3834.6 1058.3 3848.9 1067.2 3864.5 1067C3869.1 1067.1 3873.7 1066.3 3878 1064.7L3951.7 1041.9L3954 1041.3C3955.3 1040.7 3956.5 1039.9 3957.5 1039C3959.2 1037.9 3960.5 1036.6 3961.6 1034.9C3965.9 1028.8 3965.9 1020.5 3961.5 1014.4ZM3736.5 941.3C3736.1 939.6 3735.3 938 3734.2 936.7C3730.1 932.6 3724.8 929.7 3719 929.7C3717.2 929.6 3715.4 929.8 3713.7 930.3C3690.3 937.4 3668.4 948.4 3648.8 963C3629 977.1 3611.8 994.5 3597.9 1014.4C3593.5 1020.5 3593.5 1028.7 3597.9 1034.8C3599.1 1036 3600.2 1037.7 3602 1038.9C3603.2 1039.5 3604.3 1040.7 3605.5 1041.2L3607.8 1041.8L3681.5 1064.6C3683.6 1065.5 3685.8 1066.1 3688 1066.5C3690.3 1066.9 3692.6 1067 3694.9 1067C3703.5 1067 3711.8 1064.4 3718.8 1059.4C3729.5 1051.4 3735.8 1038.8 3735.8 1025.4L3737 948.2V945.3C3737.1 944.3 3736.5 942.5 3736.5 941.3ZM3681.5 1174C3677.5 1161.4 3667.4 1151.5 3654.7 1147.8L3581.6 1123.2L3579.3 1122.6C3578 1121.9 3576.6 1121.5 3575.2 1121.4C3573.4 1121.4 3571.7 1122 3569.9 1122C3562.5 1124.4 3557.6 1131.3 3557.6 1139C3557 1163.4 3560.7 1187.8 3568.6 1210.9C3576 1234 3587.3 1255.8 3601.9 1275.2C3605.2 1279.6 3610.4 1282.2 3615.9 1282.2C3617.7 1282.3 3619.5 1282.1 3621.2 1281.6C3622.9 1281.2 3624.5 1280.4 3625.8 1279.3C3627 1278.6 3628 1277.6 3628.7 1276.4L3630.5 1274.1L3675 1210.9C3680.4 1203.7 3683.3 1194.9 3683.3 1185.9C3683.3 1181.9 3682.7 1177.9 3681.5 1174ZM3862.1 1330.7C3861.5 1329.5 3860.9 1327.8 3860.3 1326.6L3858.5 1324.3L3812.4 1262.3C3808.9 1257 3804 1252.6 3798.4 1249.6C3792.5 1246.4 3785.8 1244.7 3779.1 1244.7C3765.1 1244.7 3753.3 1251.7 3745.8 1262.2L3699.7 1324.2L3697.9 1326.5C3697.2 1327.8 3696.6 1329.2 3696.1 1330.6C3695.6 1332.3 3695.4 1334.1 3695.5 1335.9C3695.5 1343.5 3700.1 1349.9 3707.8 1352.9C3754.1 1368.5 3804.1 1368.5 3850.4 1352.9C3857.8 1350.6 3862.8 1343.7 3862.7 1335.9C3862.8 1334.2 3862.6 1332.4 3862.1 1330.7Z" stroke="#C4C9D4" stroke-width="6" stroke-miterlimit="10"/>
<path d="M3779.1 1191C3805.89 1191 3827.6 1169.29 3827.6 1142.5C3827.6 1115.71 3805.89 1094 3779.1 1094C3752.31 1094 3730.6 1115.71 3730.6 1142.5C3730.6 1169.29 3752.31 1191 3779.1 1191Z" stroke="#C4C9D4" stroke-width="6" stroke-miterlimit="10"/>
<path d="M3860.4 919.1C3859.1 922.2 3856.2 924.3 3852.8 924.4C3852.2 924.4 3851 923.8 3850.5 923.8C3846.4 922.6 3844.1 917.9 3845.2 913.8C3846.5 910.7 3849.4 908.6 3852.8 908.5C3853.6 908.5 3854.4 908.7 3855.1 909.1C3859.2 910.3 3861.5 915 3860.4 919.1ZM3705.4 924.4C3706 924.4 3707.2 924.4 3707.7 923.8C3711.8 922.6 3714.1 917.9 3713 913.8C3711.7 910.7 3708.8 908.6 3705.4 908.5C3704.8 908.5 3703.6 908.5 3703.1 909.1C3699 910.3 3696.7 915 3697.8 919.1C3698.8 922.4 3702 924.6 3705.4 924.4ZM3923.5 944.3C3922.2 943.2 3920.6 942.6 3918.9 942.5C3916.5 942.6 3914.2 943.7 3912.5 945.4C3910.1 949 3910.9 953.8 3914.3 956.4C3915.5 957.6 3917.2 958.2 3918.9 958.2C3921.3 958.1 3923.6 957 3925.3 955.3C3927.7 951.8 3926.9 947 3923.5 944.3ZM3639.4 942.5C3637.6 942.5 3636.5 943.1 3634.8 944.3C3631.3 946.6 3630.7 951.9 3633 955.3C3634.5 957.3 3636.9 958.3 3639.4 958.2C3641.2 958.2 3642.3 957.6 3644 956.4C3647.5 954.1 3648.1 948.8 3645.8 945.4C3644.1 943.7 3641.8 942.6 3639.4 942.5ZM3971.5 995.1C3969.7 995.1 3968.6 995.7 3966.9 996.9C3963.4 999.2 3962.8 1004.5 3965.1 1007.9C3966.6 1009.9 3969 1010.9 3971.5 1010.8C3973.3 1010.8 3974.4 1010.2 3976.1 1009C3979.6 1006.7 3980.2 1001.4 3977.9 998C3976.2 996.3 3973.9 995.3 3971.5 995.1ZM3582 1009C3583.2 1010.2 3584.9 1010.8 3586.6 1010.8C3589 1010.7 3591.3 1009.6 3593 1007.9C3595.4 1004.3 3594.6 999.5 3591.2 996.9C3590 995.7 3588.3 995 3586.6 995.1C3584.2 995.2 3581.9 996.3 3580.2 998C3577.8 1001.6 3578.6 1006.4 3582 1009ZM4016.6 1134.9C4012.4 1134.9 4009 1138.3 4009 1142.5C4009 1146.7 4012.4 1150.1 4016.6 1150.1C4020.8 1150.1 4024.2 1146.7 4024.2 1142.5C4024.8 1138.4 4021.1 1134.9 4016.6 1134.9ZM3549.4 1142.5C3549.3 1138.4 3545.9 1135 3541.8 1134.9C3537.6 1134.9 3534.2 1138.3 3534.2 1142.5C3534.2 1146.7 3537.6 1150.1 3541.8 1150.1C3546 1150.1 3549.4 1146.7 3549.4 1142.5ZM4007.1 1208.5C4006.6 1207.9 4006 1207.9 4004.8 1207.9C4001.4 1208 3998.4 1210 3997.2 1213.2C3996 1217.4 3998.3 1221.8 4002.5 1223.2C4003.1 1223.2 4004.3 1223.8 4004.8 1223.8C4008.2 1223.7 4011.2 1221.7 4012.4 1218.5C4013.5 1214.3 4011.2 1209.6 4007.1 1208.5ZM3553.4 1207.9C3552.8 1207.9 3551.6 1207.9 3551.1 1208.5C3547 1209.7 3544.7 1214.4 3545.8 1218.5C3546.8 1221.8 3550 1224 3553.4 1223.8C3554 1223.8 3555.2 1223.8 3555.7 1223.2C3559.8 1222 3562.1 1217.3 3561 1213.2C3559.3 1210.3 3556.4 1207.9 3553.4 1207.9ZM3976.1 1275.8C3974.8 1274.8 3973.2 1274.1 3971.5 1274C3969.1 1274.1 3966.8 1275.2 3965.1 1276.9C3962.7 1280.5 3963.5 1285.3 3966.9 1287.9C3968.1 1289.1 3969.8 1289.7 3971.5 1289.7C3973.9 1289.6 3976.2 1288.5 3977.9 1286.8C3980.3 1283.2 3979.5 1278.5 3976.1 1275.8ZM3586.7 1274C3584.9 1274 3583.8 1274.6 3582.1 1275.8C3578.6 1278.1 3578 1283.4 3580.3 1286.8C3581.8 1288.8 3584.2 1289.8 3586.7 1289.7C3588.5 1289.7 3589.6 1289.1 3591.3 1287.9C3594.8 1285.6 3595.4 1280.3 3593.1 1276.9C3592 1275.2 3589.1 1274 3586.7 1274ZM3852.8 1360.5C3852.2 1360.5 3851 1360.5 3850.5 1361.1C3846.4 1362.3 3844.1 1367 3845.2 1371.1C3846.2 1374.4 3849.4 1376.6 3852.8 1376.4C3853.4 1376.4 3854.6 1376.4 3855.1 1375.8C3859.2 1374.6 3861.5 1369.9 3860.4 1365.8C3858.6 1362.3 3855.7 1360.5 3852.8 1360.5ZM3708.5 1361.1C3707.8 1360.7 3707 1360.5 3706.2 1360.5C3702.8 1360.6 3699.8 1362.6 3698.6 1365.8C3697.4 1370 3699.7 1374.4 3703.9 1375.8C3704.5 1375.8 3705.7 1376.4 3706.2 1376.4C3709.6 1376.3 3712.6 1374.3 3713.8 1371.1C3714.9 1367 3712.6 1362.3 3708.5 1361.1ZM3779.1 1372.2C3774.9 1372.2 3771.5 1375.6 3771.5 1379.8C3771.5 1384 3774.9 1387.4 3779.1 1387.4C3783.3 1387.4 3786.7 1384 3786.7 1379.8C3786.7 1375.6 3783.3 1372.2 3779.1 1372.2Z" stroke="#C4C9D4" stroke-width="6" stroke-miterlimit="10"/>
</g>
<defs>
<filter id="filter0_d" x="0" y="0" width="4732" height="1618" filterUnits="userSpaceOnUse" color-interpolation-filters="sRGB">
<feFlood flood-opacity="0" result="BackgroundImageFix"/>
<feColorMatrix in="SourceAlpha" type="matrix" values="0 0 0 0 0 0 0 0 0 0 0 0 0 0 0 0 0 0 127 0"/>
<feOffset dy="4"/>
<feGaussianBlur stdDeviation="2"/>
<feColorMatrix type="matrix" values="0 0 0 0 0 0 0 0 0 0 0 0 0 0 0 0 0 0 0.25 0"/>
<feBlend mode="normal" in2="BackgroundImageFix" result="effect1_dropShadow"/>
<feBlend mode="normal" in="SourceGraphic" in2="effect1_dropShadow" result="shape"/>
</filter>
</defs>
</svg>
