<?xml version="1.0" encoding="utf-8"?>
<!-- Generator: Adobe Illustrator 24.3.0, SVG Export Plug-In . SVG Version: 6.00 Build 0)  -->
<svg version="1.1" id="Layer_1" xmlns="http://www.w3.org/2000/svg" xmlns:xlink="http://www.w3.org/1999/xlink" x="0px" y="0px"
	 viewBox="0 0 4800 1600" style="enable-background:new 0 0 4800 1600;" xml:space="preserve">
<style type="text/css">
	.st0{fill:#C4C9D4;stroke:#FFFFFF;stroke-miterlimit:10;}
	.st1{fill:none;stroke:#494B50;stroke-width:8;stroke-miterlimit:10;}
	.st2{fill:none;stroke:#494B50;stroke-width:8;stroke-linejoin:round;stroke-miterlimit:10;}
	.st3{fill:none;stroke:#494B50;stroke-width:8;stroke-miterlimit:9.9999;}
</style>
<g id="Car_1_">
	<path class="st0" d="M4753,1325.1c-5.3-2.1-9.2-4.2-13.6-16.7s10.7-141.4,10.7-141.4c1-20.5,8.9-106.5,5.7-134.1
		c-1-9.4-11.7-28.2-11.7-28.2s-24-41.5-39.7-56.9c-0.3-0.3-0.6-0.6-1-0.9l-0.6-0.6c-0.3-0.3-0.6-0.5-0.9-0.8c-0.6-0.5-1.3-1.1-2-1.7
		c-0.4-0.3-0.7-0.6-1.1-0.9c-0.5-0.4-1-0.8-1.5-1.2c-0.7-0.5-1.4-1-2.1-1.5c-1.8-1.3-3.8-2.7-5.8-4.1c-0.4-0.3-0.8-0.5-1.2-0.8
		c-1.3-0.9-2.6-1.7-3.9-2.6c-0.9-0.6-1.8-1.2-2.8-1.8c-0.5-0.3-0.9-0.6-1.4-0.9c-0.9-0.6-1.8-1.1-2.7-1.7c-0.1,0-0.1-0.1-0.2-0.1
		c-1-0.6-2-1.3-3-1.9c-0.8-0.5-1.6-1-2.5-1.6c-1.2-0.8-2.5-1.5-3.7-2.3c-0.1,0-0.1-0.1-0.2-0.1c-1.3-0.8-2.7-1.7-4-2.5
		c-1.4-0.9-2.8-1.8-4.2-2.6c-1-0.6-2-1.2-2.9-1.8c-9.4-5.8-19.2-11.9-28.6-17.8c-1.1-0.7-2.2-1.4-3.3-2.1c-2.2-1.4-4.3-2.8-6.4-4.1
		c-0.5-0.3-1-0.7-1.6-1c-0.2-0.1-0.5-0.3-0.7-0.5c-0.8-0.5-1.6-1-2.4-1.6c-2.6-1.7-5.1-3.4-7.4-5.1c-1.3-0.9-2.6-1.9-3.9-2.8
		c-2.2-1.6-4.3-3.1-6.2-4.6c-0.7-0.5-1.3-1-2-1.6c-0.5-0.4-0.9-0.7-1.3-1.1c-0.8-0.6-1.7-1.3-2.7-2.1c-0.2-0.1-0.3-0.3-0.5-0.4
		c-7.7-6.5-19.6-18.1-34.1-32.5l-1.6-1.6c-3.3-3.3-6.8-6.8-10.3-10.4l-2.3-2.3c-2.4-2.4-4.8-4.9-7.3-7.4v-0.1c0,0,0-0.1-0.1-0.1
		c0-0.1-0.1-0.2-0.2-0.4c0-0.1-0.1-0.2-0.1-0.3c-0.1-0.2-0.2-0.4-0.3-0.6c0,0,0,0,0-0.1c0,0,0-0.1-0.1-0.1c-0.1-0.2-0.2-0.4-0.3-0.6
		c0-0.1-0.1-0.2-0.1-0.3c-0.2-0.4-0.4-0.8-0.6-1.2c-0.1-0.1-0.1-0.3-0.2-0.4c0-0.1,0-0.1-0.1-0.1c-0.1-0.2-0.2-0.4-0.3-0.6
		c-0.1-0.2-0.2-0.4-0.3-0.6c0-0.1-0.1-0.2-0.1-0.2c-0.2-0.3-0.3-0.6-0.5-1c-0.3-0.6-0.7-1.2-1-1.8c-0.1-0.2-0.2-0.4-0.4-0.6
		c0-0.1-0.1-0.1-0.1-0.2c-0.1-0.2-0.2-0.4-0.3-0.6c-0.4-0.8-0.9-1.6-1.4-2.4c-0.1-0.1-0.1-0.2-0.1-0.2c-1.3-2.2-2.8-4.6-4.6-7.3
		l-0.6-0.9c-0.1-0.1-0.1-0.2-0.2-0.3c-0.3-0.4-0.5-0.8-0.8-1.2c-0.3-0.4-0.5-0.8-0.8-1.2c-0.8-1.2-1.7-2.4-2.6-3.7
		c0,0,0-0.1-0.1-0.1c-0.2-0.2-0.4-0.5-0.5-0.7c-0.1-0.2-0.3-0.4-0.4-0.6c-0.1-0.2-0.2-0.3-0.3-0.5c-0.5-0.7-1.1-1.5-1.6-2.2
		c-1-1.4-2.1-2.8-3.2-4.3c-3.4-4.3-7.2-9-11.5-13.9c-1.9-2.2-3.9-4.4-6-6.7c-0.4-0.5-0.9-0.9-1.3-1.4c-0.9-1-1.9-2-2.8-3
		c-0.9-1-2-2-3-3l-6.2-6.2c-4.3-4.2-8.4-8-12.3-11.7c-3.9-3.6-7.6-7-11.1-10c-4.7-4.1-9-7.8-13-11.1c-2-1.6-3.9-3.2-5.8-4.6
		c-3.7-2.9-7.1-5.4-10.2-7.6c-1-0.7-1.9-1.4-2.9-2c-0.5-0.3-1-0.7-1.4-1c-0.9-0.6-1.8-1.2-2.6-1.7c-1.7-1.1-3.4-2.1-4.9-3
		c-0.7-0.4-1.4-0.8-2.1-1.2c-0.2-0.1-0.3-0.2-0.5-0.3c-0.2-0.1-0.3-0.2-0.5-0.3c-0.2-0.1-0.4-0.2-0.6-0.3c-1.1-0.6-2.1-1.1-3.1-1.6
		c-0.3-0.2-0.6-0.3-1-0.5c-0.2-0.1-0.4-0.1-0.5-0.2c-0.4-0.2-0.7-0.3-1-0.5c-0.3-0.1-0.6-0.2-0.9-0.3c-1.4-0.6-2.6-1-3.6-1.3
		c-0.4-0.1-0.7-0.2-1-0.3c-0.1,0-0.2-0.1-0.3-0.1c-0.1,0-0.2,0-0.2-0.1c-0.2,0-0.5-0.1-0.7-0.1c-1-0.2-1.7-0.2-2.2-0.2h-0.6
		c-1-0.7-2-1.4-2.9-2.1c-0.5-0.3-0.9-0.6-1.4-0.9c-1.5-1-2.9-1.9-4.3-2.7c-0.7-0.4-1.4-0.8-2.1-1.2c-95.4-24.4-297.2-59.4-395-73.8
		c-12-1.9-24.6-3.9-37.8-5.9c-1.2-0.2-2.5-0.4-3.7-0.6c-5.8-0.9-11.8-1.8-17.8-2.6c-1.9-0.3-3.8-0.6-5.7-0.9
		c-3.1-0.5-6.3-0.9-9.5-1.4c-1.1-0.2-2.3-0.3-3.5-0.5c-5.9-0.9-11.9-1.7-17.9-2.6c-1.4-0.2-2.9-0.4-4.3-0.6
		c-5.8-0.8-11.7-1.7-17.7-2.5l-4.5-0.6c-6.4-0.9-12.8-1.8-19.3-2.7c-1.2-0.2-2.4-0.3-3.6-0.5c-4.9-0.7-9.8-1.3-14.7-2
		c-2.3-0.3-4.5-0.6-6.8-0.9c-3.9-0.5-7.9-1.1-11.8-1.6l-6.6-0.9c-10-1.3-20.1-2.7-30.4-4c-1.6-0.2-3.2-0.4-4.8-0.6
		c-4.8-0.6-9.7-1.3-14.5-1.9c-1.6-0.2-3.2-0.4-4.9-0.6c-8.1-1.1-16.2-2.1-24.4-3.2c-2.8-0.4-5.6-0.7-8.4-1.1
		c-0.7-0.1-1.4-0.2-2.1-0.3c-2.6-0.3-5.2-0.7-7.8-1c-21.7-2.8-43.5-5.5-65.2-8.2c-3.3-0.4-6.5-0.8-9.8-1.2s-6.6-0.8-9.8-1.2
		c-4.9-0.6-9.8-1.2-14.7-1.8c-8.6-1.1-17.1-2.1-25.6-3.1c-6-0.7-12.1-1.5-18-2.2c-4.8-0.6-9.6-1.2-14.4-1.7
		c-4.5-0.5-8.9-1.1-13.3-1.6c-1.9-0.2-3.8-0.4-5.7-0.7c-4.4-0.5-8.7-1-13-1.6c-0.3-0.1-0.7-0.1-1-0.1c-3.1-0.4-6.2-0.7-9.3-1.1
		c-2.7-0.3-5.5-0.6-8.2-1c-1.9-0.2-3.8-0.4-5.6-0.7c-4.6-0.5-9.1-1.1-13.6-1.6c-2-0.2-4.1-0.5-6.1-0.7c-6-0.7-11.9-1.4-17.7-2.1
		c-1.2-0.1-2.3-0.3-3.5-0.4c-4.7-0.6-9.3-1.1-13.8-1.6c-2.3-0.3-4.6-0.5-6.8-0.8c-5.8-0.7-11.5-1.3-17.2-2c-2.1-0.2-4.1-0.5-6.1-0.7
		c-0.7-0.1-1.4-0.2-2.1-0.2c0,0-0.1-0.2-0.2-0.4c-0.9-2-5.4-9.9-19.6-11.8c-3.5-0.5-6.5-0.4-9-0.1c-2.9,0.4-5.1,1.2-6.9,2
		c-0.9,0.4-1.6,0.9-2.2,1.3c-0.2,0.1-0.3,0.2-0.4,0.3c-0.4,0.3-0.8,0.6-1.1,0.9c-0.1,0.1-0.2,0.2-0.3,0.3c-0.7,0.7-1,1.2-1,1.2
		l-0.1,1.4c-0.3,0-0.6-0.1-0.9-0.1c-5-0.6-9.9-1.1-14.7-1.7c-1.9-0.2-3.8-0.4-5.7-0.7c-6.6-0.8-13-1.5-19.2-2.2
		c-2.6-0.3-5.3-0.6-7.8-0.9c-20.8-2.3-38.9-4.4-53.8-6.1c-1.1-0.1-2.2-0.2-3.2-0.4c-0.6-0.1-1.3-0.1-1.9-0.2
		c-1.1-0.1-2.2-0.2-3.3-0.4c-1.8-0.2-3.4-0.4-5.1-0.6c-0.9-0.1-1.8-0.2-2.7-0.3c-0.8-0.1-1.6-0.2-2.4-0.3c-1.2-0.1-2.5-0.3-3.6-0.4
		c-1.9-0.2-3.7-0.4-5.4-0.6c-0.4-0.1-0.8-0.1-1.2-0.1c-0.2,0-0.3,0-0.5-0.1c-0.3,0-0.7-0.1-1-0.1c-0.6-0.1-1.2-0.1-1.7-0.2
		c-0.7-0.1-1.4-0.2-2.1-0.2h-0.3c-0.6-0.1-1.1-0.1-1.6-0.2c-0.3,0-0.5,0-0.8-0.1c-0.3,0-0.7-0.1-1-0.1c-0.6-0.1-1.1-0.1-1.6-0.2
		s-0.9-0.1-1.3-0.1c-0.5-0.1-0.9-0.1-1.3-0.2c-0.2,0-0.4,0-0.6-0.1c-0.6-0.1-1.1-0.1-1.6-0.2c-0.3,0-0.6-0.1-0.9-0.1l-0.1-0.1
		c0,0-0.1-0.1-0.2-0.1c-0.5-0.5-1.5-1.4-2.9-2.5c-0.2-0.2-0.4-0.3-0.6-0.5c-0.2-0.1-0.3-0.3-0.5-0.4c-0.3-0.2-0.5-0.4-0.8-0.6
		c-0.1-0.1-0.2-0.2-0.4-0.3c-0.1-0.1-0.1-0.1-0.2-0.1c-0.1-0.1-0.3-0.2-0.4-0.3c-0.2-0.1-0.4-0.3-0.6-0.4c-0.4-0.3-0.8-0.6-1.3-0.8
		c-1-0.7-2.1-1.3-3.2-2c-1.2-0.7-2.4-1.3-3.7-2c0.2-0.6,0.5-1.2,0.7-1.7c0.1-0.1,0.1-0.3,0.1-0.4c0-0.1,0-0.1,0.1-0.2
		c0.1-0.2,0.1-0.4,0.2-0.5c0-0.1,0.1-0.2,0.1-0.3c0-0.1,0.1-0.2,0.1-0.2s0,0,0-0.1c0.1-0.3,0.1-0.5,0.2-0.8c0-0.1,0.1-0.3,0.1-0.4
		v-0.1c0-0.1,0-0.1,0-0.2c0.1-0.3,0.1-0.5,0.2-0.8c0-0.2,0.1-0.5,0.1-0.7c0,0,0-0.1,0-0.2c0,0,0,0,0-0.1c0.1-0.4,0.1-0.9,0.1-1.3
		v-0.1c0.1-0.9,0.1-1.8,0-2.6v-0.5c-0.1-2.3-0.6-4-0.5-5.1v-0.4c0-0.1,0-0.1,0-0.2v-0.1c0-0.1,0.1-0.2,0.1-0.2
		c0-0.1,0.1-0.1,0.2-0.2c0,0,0.1,0,0.1-0.1c0,0,0,0,0.1,0c0.1,0,0.1,0,0.2,0h0.1c0.1,0,0.2,0,0.2,0h0.2c0.1,0,0.2,0,0.2,0
		c0.1,0,0.2,0,0.2,0c0.1,0,0.1,0,0.2,0.1c0.1,0,0.2,0,0.4,0.1h0.1c0.8,0.2,1.8,0.6,3.1,1.1c0,0,0,0,0.1,0c0.5-0.4,1-0.9,1.5-1.3
		c0.2-0.2,0.4-0.3,0.5-0.5l0.9-0.9c0.2-0.2,0.4-0.3,0.5-0.5c0.4-0.4,0.8-0.8,1.1-1.1c0.2-0.2,0.4-0.4,0.5-0.6
		c0.2-0.2,0.4-0.4,0.6-0.7c0.2-0.2,0.4-0.4,0.5-0.6c0.2-0.3,0.5-0.5,0.7-0.8c0.2-0.2,0.4-0.5,0.6-0.8c0.2-0.2,0.3-0.4,0.5-0.6
		c0.1-0.2,0.3-0.4,0.4-0.6c0.1-0.2,0.3-0.4,0.4-0.6c0.2-0.2,0.4-0.5,0.5-0.8c0.1-0.2,0.3-0.4,0.4-0.6c0.1-0.2,0.2-0.3,0.3-0.5
		c0.1-0.2,0.2-0.4,0.3-0.5c0.1-0.2,0.2-0.3,0.2-0.5c0.1-0.3,0.3-0.6,0.4-0.9c0.1-0.1,0.1-0.3,0.2-0.4c0.1-0.2,0.1-0.4,0.2-0.5
		c0-0.1,0.1-0.3,0.1-0.4c0.1-0.2,0.1-0.5,0.2-0.7c0-0.1,0.1-0.3,0.1-0.4c0-0.2,0.1-0.4,0.1-0.6v-1.3c0-0.3,0-0.5-0.1-0.8
		c0-0.1,0-0.2-0.1-0.3c0-0.2-0.1-0.4-0.1-0.6c0-0.1,0-0.1,0-0.2s0-0.1-0.1-0.1c0,0,0,0,0-0.1c0-0.1,0-0.1-0.1-0.2
		c0-0.1-0.1-0.1-0.1-0.2c-0.1-0.2-0.1-0.3-0.2-0.5c0-0.1-0.1-0.1-0.1-0.2c-0.2-0.5-0.5-0.9-0.9-1.3l-0.1-0.1
		c-0.1-0.2-0.3-0.3-0.4-0.5l-0.1-0.1c-0.1,0-0.1-0.1-0.2-0.2l-0.1-0.1c-0.3-0.3-0.7-0.6-1.1-0.9c-0.4-0.3-0.8-0.6-1.3-0.9
		c-0.1,0-0.1-0.1-0.2-0.1c-1.9-1.2-4.2-2.1-7-3c-0.1,0-0.1,0-0.2,0c-0.4-0.1-0.8-0.2-1.2-0.4c0,0,0,0-0.1,0c-1.8-0.5-3.8-1-5.9-1.4
		c-0.1,0-0.1,0-0.2,0c-0.1,0-0.2,0-0.3-0.1c-0.1,0-0.2,0-0.3-0.1c-1.6-0.3-3.4-0.6-5.1-0.8c-0.1,0-0.1,0-0.1,0h-0.1
		c-1.2-0.2-2.4-0.3-3.6-0.5c-0.2,0-0.4,0-0.6-0.1c-1.2-0.1-2.4-0.3-3.6-0.4h-0.1c-0.3,0-0.7-0.1-1-0.1h-1.2
		c-0.6-0.1-1.1-0.1-1.7-0.1h-0.8c-0.7-0.1-1.4-0.1-2.2-0.2c-0.5,0-1-0.1-1.5-0.1c-4.4-0.3-9.1-0.5-13.8-0.6h-0.2
		c-4.9-0.2-10-0.2-15-0.3h-5.7c-2.6,0-5.3-0.1-7.9-0.1h-3.2c-1.3,0-2.5,0-3.8-0.1h-2c-3.3-0.1-6.5-0.1-9.6-0.2h-0.7
		c-0.7,0-1.3-0.1-2-0.1c-0.7,0-1.4-0.1-2.1-0.1h-0.5c-0.9,0-1.7-0.1-2.5-0.1h-0.5c-0.3,0-0.6,0-1-0.1h-0.9c-0.2,0-0.4,0-0.6-0.1
		c-0.7,0-1.4-0.1-2-0.2c-0.6,0-1.2-0.1-1.8-0.2c-0.5-0.1-0.9-0.1-1.4-0.1c-2.2-0.2-4.1-0.5-5.9-0.8l-305.6-229.2
		c-2.1-1.6-4.3-3.2-6.4-4.9c-13-9.8-25.7-19.5-38-28.8c-2.7-2.1-5.4-4.1-8.1-6.1c-9.5-7.2-18.7-14.2-27.6-20.9
		c-1.6-1.2-3.2-2.4-4.8-3.6c-2.2-1.7-4.4-3.3-6.5-4.9c-2-1.5-4.1-3.1-6.1-4.6c-30.7-23.1-56.8-42.7-75.6-56.6
		c-0.7-0.5-1.5-1.1-2.2-1.6c-2.1-1.6-4.2-3.1-6.1-4.5c-1.7-1.2-3.2-2.4-4.8-3.5c-0.8-0.6-1.6-1.1-2.3-1.7c-0.6-0.4-1.2-0.9-1.8-1.3
		c-0.4-0.3-0.9-0.6-1.3-0.9c-1.6-1.1-3-2.2-4.3-3.1l-4.5-3.4c-0.1,0-0.2,0.1-0.3,0.1c-0.1-0.1-0.2-0.1-0.3-0.2c0,0-0.1,0-0.1-0.1
		c-0.3-0.2-0.7-0.3-1.1-0.5c-0.2-0.1-0.3-0.1-0.5-0.2c-0.2-0.1-0.4-0.1-0.6-0.2s-0.4-0.1-0.6-0.2c-0.2-0.1-0.4-0.1-0.6-0.2
		c-0.4-0.1-0.9-0.3-1.4-0.4c-0.3-0.1-0.7-0.2-1.1-0.3c-0.1,0-0.1,0-0.2,0c-0.2-0.1-0.4-0.1-0.6-0.2c-1.3-0.3-2.8-0.6-4.4-1
		c-0.4-0.1-0.7-0.1-1.1-0.2c-2.4-0.5-5.1-0.9-8-1.4c-0.7-0.1-1.4-0.2-2.1-0.3c-2.4-0.4-4.9-0.7-7.7-1.1c-0.6-0.1-1.1-0.2-1.7-0.2
		c-2.2-0.3-4.6-0.6-7-0.9c-0.6-0.1-1.2-0.2-1.8-0.2c-4.7-0.6-9.8-1.2-15.2-1.7c-1.4-0.2-2.9-0.3-4.4-0.5c-4.5-0.5-9.2-0.9-14.1-1.4
		c-0.8-0.1-1.6-0.1-2.4-0.2c-1.2-0.1-2.4-0.2-3.6-0.3c-1.4-0.1-2.7-0.2-4.1-0.4c-0.9-0.1-1.7-0.1-2.6-0.2c-0.8-0.1-1.7-0.1-2.5-0.2
		c-1.3-0.1-2.6-0.2-3.9-0.3c-1.5-0.1-3-0.2-4.5-0.3c-1.8-0.2-3.7-0.3-5.6-0.4c-4.8-0.4-9.6-0.7-14.7-1.1c-6.4-0.4-13.1-0.9-19.9-1.3
		c-0.9-0.1-1.9-0.1-2.9-0.2c-2.1-0.1-4.3-0.2-6.5-0.4c-1.9-0.1-3.8-0.2-5.7-0.3c-10.3-0.6-21.1-1.1-32.2-1.6
		c-1.9-0.1-3.9-0.2-5.9-0.2c-4.2-0.2-8.6-0.4-12.9-0.5c-1.1,0-2.2-0.1-3.3-0.1c-2.9-0.1-5.7-0.2-8.6-0.3c-2-0.1-4-0.1-6-0.2
		c-8.4-0.3-17-0.5-25.7-0.8c-1.9,0-3.8-0.1-5.7-0.1c-3.1-0.1-6.2-0.1-9.3-0.2c-2.5-0.1-5.1-0.1-7.6-0.2h-1.5c-2,0-4.1-0.1-6.2-0.1
		c-7.9-0.1-15.8-0.2-24-0.3c-2.1,0-4.2,0-6.4-0.1h-1.9c-2.4,0-4.8,0-7.3-0.1c-27.6-0.2-56.4-0.1-86.2,0.3
		c-192.2,2.8-426.5,20.1-642.4,69.1c-21.3,4.8-20.5,36.2-39.3,44.3c-18.8,8.1-139.8,44.4-139.8,44.4
		c-143.4,47.4-336.6,119.4-475.3,179.2c-15,6.5-28.9,13.4-43,19.8c-1.3,0.6-2.6,1.2-3.9,1.8c-1.3,0.6-2.6,1.2-3.9,1.7
		c-1.3,0.6-2.6,1.2-3.9,1.7c-2.5,1.1-5.1,2.2-7.7,3.2c-0.1,0-0.2,0.1-0.2,0.1c-2.6,1.1-5.3,2.1-8.1,3.2c-0.9,0.3-1.8,0.7-2.7,1
		c-1.2,0.4-2.5,0.9-3.7,1.3c-0.2,0.1-0.5,0.2-0.7,0.2c-2.2,0.8-4.5,1.6-6.9,2.3c-1.1,0.3-2.2,0.7-3.3,1c-0.3,0.1-0.5,0.2-0.8,0.2
		c-1.2,0.4-2.4,0.7-3.7,1.1c-2,0.6-4,1.1-6,1.7c-1.4,0.4-2.7,0.7-4.1,1c-0.7,0.2-1.4,0.4-2.1,0.5c-0.7,0.2-1.4,0.3-2.1,0.5
		c-0.7,0.2-1.4,0.3-2.1,0.5c-0.6,0.1-1.2,0.3-1.8,0.4c-2.3,0.5-4.6,0.9-6.9,1.4c-0.7,0.1-1.5,0.3-2.2,0.4c-2.2,0.4-4.5,0.8-6.9,1.1
		c-36.8,3.3-73.6,7.3-110.3,11.5L537.7,455l-63.4-43.6c-37.3-19.1-83.3-33.3-136.5-33.1c-14.1,1.2-26,3.1-35.8,5.8
		c-22.9,6.4-34.3,17.5-34.3,34.7c0,9.8,3.7,21.6,11.1,35.7c20.1,32.6,52.7,104.6,52.7,104.6c8.8,14.8,12.4,27.7,12,39.1v0.7
		c0,0.4,0,0.7-0.1,1.1c0,0.5-0.1,0.9-0.1,1.4c0,0.3-0.1,0.7-0.1,1c-0.1,0.7-0.2,1.4-0.3,2.1c-0.1,0.4-0.1,0.8-0.2,1.1
		c0,0.1,0,0.3-0.1,0.4c0,0.2-0.1,0.5-0.2,0.7c-0.1,0.4-0.2,0.8-0.3,1.1c-0.1,0.4-0.2,0.8-0.3,1.1c-0.1,0.3-0.2,0.5-0.2,0.8
		c-0.1,0.3-0.2,0.6-0.3,0.9c-0.1,0.3-0.2,0.6-0.3,0.8c-0.1,0.4-0.2,0.8-0.4,1.2c-0.1,0.4-0.3,0.8-0.4,1.2c-0.2,0.6-0.5,1.2-0.7,1.7
		s-0.4,1-0.7,1.5c-0.5,1.1-1,2.1-1.6,3.1c-0.2,0.4-0.4,0.8-0.7,1.2c-0.3,0.5-0.6,1.1-1,1.6l-0.8,1.2c-0.2,0.3-0.4,0.6-0.6,0.9
		c-0.2,0.3-0.5,0.7-0.7,1c-0.2,0.3-0.4,0.6-0.6,0.9c-0.3,0.4-0.6,0.8-0.9,1.1c-0.4,0.5-0.8,1-1.2,1.5c-0.4,0.4-0.7,0.9-1.1,1.3
		c-0.4,0.4-0.8,0.9-1.1,1.3c-0.3,0.4-0.7,0.8-1,1.1c-0.5,0.5-1,1.1-1.5,1.6c-0.4,0.4-0.7,0.8-1.1,1.1l-1.5,1.5
		c-0.7,0.7-1.4,1.3-2.2,2c-1,0.9-2.1,1.8-3.1,2.7c-0.5,0.4-1,0.8-1.5,1.2c-0.5,0.4-1,0.8-1.5,1.2s-1,0.8-1.5,1.2
		c-0.5,0.4-1,0.7-1.4,1.1c-0.6,0.4-1.1,0.9-1.7,1.3c-0.5,0.4-1.1,0.8-1.6,1.2c-2.8,2-5.6,3.9-8.6,5.9c-0.9,0.6-1.9,1.2-2.9,1.8
		l-0.6,0.4c-0.6,0.4-1.2,0.8-1.8,1.1c-0.6,0.4-1.2,0.8-1.8,1.1c-1.2,0.8-2.5,1.5-3.7,2.2c-6.6,3.9-13.6,7.8-20.7,11.7
		c0,0-0.1,0-0.1,0.1c-0.2,0.1-0.5,0.3-0.7,0.4c-2.7,1.5-5.4,3-8.1,4.4c-4.4,2.4-10.1,5.2-16.3,8.3c0,0,0,0-0.1,0
		c-1.4,0.7-2.8,1.4-4.2,2.1c-1.3,0.7-2.5,1.3-3.8,2c-0.5,0.2-0.9,0.5-1.4,0.7c-1.4,0.7-2.8,1.5-4.2,2.2c-2.3,1.3-4.7,2.6-7,3.9
		c-0.5,0.3-0.9,0.5-1.4,0.8c-0.9,0.5-1.8,1.1-2.7,1.6c-2.8,1.7-5.6,3.5-8.2,5.4c-0.6,0.5-1.3,0.9-1.9,1.4c-0.9,0.6-1.7,1.3-2.5,1.9
		c-0.4,0.3-0.8,0.6-1.1,0.9c-0.4,0.3-0.8,0.6-1.2,1c-0.3,0.2-0.6,0.5-0.9,0.8c-1.3,1.1-2.5,2.2-3.6,3.4l-0.6,0.6
		c-1.4,1.5-2.6,2.9-3.7,4.4c-0.2,0.2-0.3,0.5-0.5,0.7c-0.6,0.8-1.1,1.7-1.5,2.5c-0.1,0.2-0.2,0.5-0.4,0.7c0,0,0,0,0,0.1
		c-0.1,0.3-0.3,0.6-0.4,0.8c-0.3,0.6-0.5,1.3-0.7,1.9c-0.1,0.2-0.1,0.4-0.2,0.6c-0.1,0.2-0.1,0.5-0.2,0.7c0,0.2-0.1,0.3-0.1,0.5
		s-0.1,0.3-0.1,0.5s-0.1,0.5-0.1,0.8c-0.6,0.4-1.4,1-2.2,1.6c-0.4,0.3-0.8,0.7-1.3,1c-2.3,1.8-5,4.3-8.1,7.2c-0.1,0-0.1,0-0.1,0
		l-0.4,0.5c-0.4,0.4-0.8,0.7-1.2,1.1c-4.5,4.3-9.7,9.6-15.2,15.3c-0.3,0.3-0.6,0.6-0.9,0.9c-0.2,0.2-0.5,0.5-0.7,0.8
		c-0.3,0.4-0.7,0.7-1,1.1c-0.6,0.7-1.2,1.3-1.9,2c-0.5,0.5-1,1.1-1.5,1.6c-1.5,1.6-2.9,3.2-4.4,4.9c-0.3,0.4-0.7,0.8-1.1,1.2
		c-1.6,1.8-3.2,3.7-4.9,5.6c-1,1.1-2,2.3-3,3.5c-0.1,0.1-0.1,0.1-0.2,0.2c-0.4,0.5-0.9,1-1.3,1.5c-2.8,3.3-5.5,6.7-8.2,10
		c-0.6,0.7-1.1,1.4-1.7,2.1c-10.5,13.5-19.5,26.6-23.8,36.8c-0.2,0.4-0.3,0.8-0.5,1.2c-0.1,0.3-0.2,0.6-0.4,0.9
		c-0.1,0.2-0.2,0.5-0.3,0.8c-0.1,0.3-0.2,0.7-0.3,1c-0.1,0.3-0.2,0.6-0.3,0.9c-0.1,0.2-0.2,0.5-0.2,0.7c-0.2,0.6-0.3,1.1-0.4,1.7
		c0,0.2-0.1,0.3-0.1,0.5c-0.1,0.3-0.1,0.5-0.1,0.8c0,0-46.3,22-55.4,39.4c-8.3,15.9-8.3,41.2-8.3,41.2s25.9,265.3,42.3,291.1
		c16.4,25.9,45.4,42.3,45.4,42.3c40.5,4.5,373.6,61.6,464.9,63.1c4.4,0,21.7,0.3,37.9-0.5c0.7,0,1.4-0.1,2.1-0.1
		c0.9,0,1.9-0.1,2.8-0.1c1.4-0.1,2.8-0.2,4.1-0.3c0.2,0,0.5,0,0.7-0.1c0.5,0,1-0.1,1.4-0.1c1.6-0.1,3.2-0.3,4.7-0.5
		c0.6-0.1,1.2-0.1,1.8-0.2c2.5-0.3,4.7-0.7,6.6-1.1c0.4-0.1,0.8-0.2,1.2-0.3c0.8-0.2,1.4-0.4,2.1-0.6c0.2,0,0.3-0.1,0.5-0.2
		s0.4-0.2,0.7-0.3c0.3-0.1,0.6-0.3,0.9-0.4c0.2-0.1,0.4-0.2,0.6-0.3l0.2-0.1c0.3-0.2,0.5-0.5,0.7-0.7c0,0,0.1-0.1,0.1-0.2
		c0,0,0-0.1,0.1-0.1c0-0.1,0.1-0.2,0.1-0.3s0-0.2,0-0.2v-0.8l41.6-11.7h1.7c0.1,0.4,0.3,0.8,0.5,1.3c1.5,4.2,3.1,8.4,4.8,12.6
		c0.1,0.2,0.2,0.4,0.3,0.7c0.6,1.5,1.2,2.9,1.8,4.4c0.1,0.2,0.2,0.5,0.3,0.7c1.1,2.6,2.2,5.1,3.3,7.6c0,0.1,0.1,0.2,0.2,0.4
		c0.1,0.2,0.2,0.3,0.2,0.5c0.4,1,0.8,1.9,1.3,2.8c0.2,0.4,0.4,0.9,0.6,1.3c2.3,5,4.7,10,7.3,14.9v0.1c0.1,0.3,0.3,0.5,0.4,0.8
		c1.5,2.8,3,5.6,4.5,8.4c0.1,0.2,0.3,0.5,0.4,0.7c0.1,0.2,0.2,0.4,0.3,0.6c2.9,5.2,5.9,10.3,9,15.4l0.9,1.5c0.1,0.2,0.2,0.3,0.3,0.5
		c0.9,1.5,1.9,3,2.8,4.5c0.1,0.1,0.1,0.2,0.2,0.3c0.5,0.8,1.1,1.6,1.6,2.4c3.8,5.8,7.8,11.5,11.9,17.1l0.1,0.1
		c5.6,7.7,11.5,15.1,17.7,22.4c0.1,0.1,0.1,0.2,0.2,0.2c0.9,1,1.8,2.1,2.7,3.1c0.1,0.1,0.1,0.2,0.2,0.2c0.6,0.7,1.1,1.3,1.7,2
		c0.7,0.8,1.4,1.6,2.2,2.4c0.1,0.1,0.1,0.2,0.2,0.2l0.1,0.1c1.9,2.1,3.9,4.3,5.9,6.4c1.8,1.9,3.6,3.8,5.4,5.6
		c0.2,0.2,0.4,0.4,0.5,0.6c0.2,0.2,0.4,0.4,0.7,0.7c0.1,0.1,0.2,0.2,0.3,0.3l1.8,1.8l0.1,0.1l0.1,0.1c3.6,3.6,7.3,7.2,11.1,10.6
		l0.1,0.1c2.4,2.2,4.9,4.4,7.4,6.6c0,0,0,0,0.1,0.1c0,0,0,0,0.1,0.1c0.8,0.7,1.6,1.4,2.4,2.1c0.1,0.1,0.2,0.2,0.3,0.3
		s0.2,0.2,0.4,0.3c0.7,0.6,1.4,1.2,2.1,1.8c7.6,6.4,15.5,12.5,23.6,18.3c0.1,0.1,0.2,0.2,0.3,0.2c0.2,0.1,0.3,0.2,0.5,0.3
		c0.6,0.4,1.1,0.8,1.7,1.2c0.1,0.1,0.1,0.1,0.2,0.1l0.1,0.1c2.3,1.6,4.6,3.2,7,4.8c0,0,0,0,0.1,0.1c1,0.7,2,1.4,3.1,2
		c0.9,0.5,1.7,1.1,2.6,1.7c0.1,0,0.2,0.1,0.2,0.1c0.6,0.4,1.2,0.8,1.8,1.2c0.2,0.2,0.5,0.3,0.7,0.5c0.4,0.2,0.7,0.5,1.1,0.7
		c1.1,0.7,2.2,1.4,3.4,2.1c0.2,0.2,0.5,0.3,0.7,0.4c1.5,0.9,2.9,1.8,4.4,2.7c0.1,0,0.1,0.1,0.2,0.1c0,0,0.1,0,0.1,0.1
		c2.5,1.5,5,2.9,7.5,4.3c0.4,0.2,0.7,0.4,1.1,0.6c1.8,1,3.7,2,5.5,3c0.4,0.2,0.8,0.4,1.1,0.6c3.7,2,7.5,3.9,11.3,5.8
		c0.1,0.1,0.2,0.1,0.3,0.2c1.9,0.9,3.8,1.9,5.8,2.8c0.1,0.1,0.2,0.1,0.3,0.2c0.2,0.1,0.4,0.2,0.6,0.3c0.4,0.2,0.8,0.4,1.2,0.5
		c0.1,0.1,0.3,0.1,0.4,0.2c0.5,0.2,1.1,0.5,1.6,0.7c1.7,0.8,3.4,1.6,5.1,2.3h0.1c0.2,0.1,0.4,0.2,0.7,0.3c0,0,0,0,0.1,0
		c3.2,1.4,6.5,2.8,9.8,4.1c0.1,0,0.1,0.1,0.2,0.1c1.3,0.5,2.6,1,3.9,1.6c0.5,0.2,0.9,0.3,1.4,0.5c2.9,1.1,5.8,2.2,8.7,3.3
		c0.4,0.1,0.8,0.3,1.2,0.4c0.3,0.1,0.6,0.2,0.9,0.3c0.4,0.2,0.8,0.3,1.2,0.4c0.1,0,0.2,0.1,0.3,0.1c0.3,0.1,0.7,0.2,1,0.4
		c1.1,0.4,2.2,0.8,3.4,1.1c0.5,0.2,1,0.3,1.5,0.5c1.1,0.4,2.2,0.7,3.3,1.1c0.1,0,0.2,0.1,0.3,0.1c0.5,0.2,1.1,0.3,1.6,0.5
		c0.7,0.2,1.4,0.4,2,0.7c0.1,0,0.2,0.1,0.3,0.1c1.2,0.4,2.4,0.7,3.6,1.1c0.1,0,0.1,0,0.2,0.1c0.2,0.1,0.5,0.1,0.7,0.2
		c0.1,0,0.2,0.1,0.2,0.1c0.6,0.2,1.3,0.4,1.9,0.6c0.7,0.2,1.3,0.4,2,0.6c0.7,0.2,1.4,0.4,2,0.6c2.5,0.7,5.1,1.4,7.6,2.1h0.1
		c1,0.3,2,0.5,3.1,0.8c0.1,0,0.3,0.1,0.4,0.1c1.4,0.3,2.7,0.7,4.1,1c0.2,0.1,0.5,0.1,0.7,0.2h0.1c3.4,0.8,6.9,1.5,10.4,2.2
		c0.1,0,0.2,0,0.2,0c0.1,0,0.3,0.1,0.4,0.1c3.2,0.6,6.5,1.2,9.7,1.8c0.1,0,0.2,0,0.3,0.1c0.3,0,0.6,0.1,0.9,0.2
		c2.3,0.4,4.7,0.8,7.1,1.1h0.1c0.3,0.1,0.7,0.1,1,0.1c3.2,0.5,6.4,0.9,9.7,1.3c0.1,0,0.1,0,0.2,0c0.8,0.1,1.6,0.2,2.4,0.3
		c1.7,0.2,3.4,0.4,5.1,0.6h0.4c4.2,0.4,8.5,0.8,12.7,1.1c0.6,0,1.2,0.1,1.7,0.1h0.4c8.5,0.5,17,0.8,25.6,0.8h7
		c8.2-0.2,16.3-0.5,24.3-1.2c0.6,0,1.2-0.1,1.9-0.1c0.2,0,0.5,0,0.7-0.1c0.6-0.1,1.2-0.1,1.8-0.2h0.1c0,0,0,0,0.1,0
		c2.4-0.2,4.9-0.5,7.3-0.7c0.2,0,0.4,0,0.7-0.1c0.2,0,0.3,0,0.5-0.1c1.9-0.2,3.8-0.4,5.7-0.7c0.1,0,0.1,0,0.2,0
		c1.2-0.2,2.3-0.3,3.5-0.5c4.1-0.6,8.1-1.2,12.1-1.9c0.8-0.1,1.5-0.2,2.3-0.4c0.2,0,0.4-0.1,0.6-0.1c0.3,0,0.5-0.1,0.8-0.1
		c0.1,0,0.2,0,0.3-0.1c0.9-0.2,1.9-0.3,2.9-0.5c2.3-0.4,4.6-0.9,6.8-1.3c0.1,0,0.2,0,0.3-0.1c0.6-0.1,1.1-0.2,1.6-0.4
		c2.5-0.5,4.9-1.1,7.4-1.6c0.1,0,0.2-0.1,0.3-0.1c0.2,0,0.5-0.1,0.7-0.2c1.5-0.4,3-0.7,4.5-1.1c0.5-0.1,1-0.2,1.5-0.4
		c1.4-0.4,2.8-0.7,4.1-1.1c0.3-0.1,0.7-0.2,1-0.3c0.1,0,0.3-0.1,0.4-0.1c4-1.1,7.9-2.2,11.8-3.4c0.7-0.2,1.5-0.4,2.2-0.7
		c0.1,0,0.2-0.1,0.3-0.1c1.8-0.6,3.6-1.1,5.4-1.7c0.2-0.1,0.4-0.1,0.6-0.2c0.6-0.2,1.1-0.4,1.7-0.6c1.3-0.4,2.6-0.9,3.9-1.3
		c0.2-0.1,0.4-0.1,0.6-0.2c0.2-0.1,0.3-0.1,0.5-0.2c0.8-0.3,1.6-0.6,2.5-0.9c1-0.3,1.9-0.7,2.9-1c6.1-2.2,12.1-4.6,18.1-7.1
		c1.1-0.5,2.3-1,3.4-1.5c0.5-0.2,1-0.4,1.6-0.7c0.2-0.1,0.3-0.2,0.5-0.2c0.4-0.2,0.9-0.4,1.3-0.6c2-0.9,4-1.8,5.9-2.7
		c0,0,0.1,0,0.1-0.1c0.8-0.4,1.5-0.7,2.3-1.1c5.4-2.6,10.7-5.2,16-8c0.3-0.2,0.6-0.3,0.9-0.5c1.5-0.8,2.9-1.6,4.3-2.4
		c0.1-0.1,0.2-0.1,0.3-0.2c0.1,0,0.2-0.1,0.2-0.1c0.7-0.4,1.4-0.8,2.1-1.2c0.1,0,0.2-0.1,0.2-0.1c0.1-0.1,0.2-0.1,0.3-0.2
		c4.2-2.4,8.4-4.8,12.5-7.3c0.2-0.1,0.4-0.2,0.6-0.4c0.2-0.1,0.4-0.2,0.5-0.3l2.4-1.5l0.1-0.1c0.1,0,0.1-0.1,0.2-0.1
		c2.8-1.8,5.6-3.6,8.3-5.4c0,0,0.1,0,0.1-0.1c0,0,0,0,0.1-0.1c2.5-1.7,5-3.4,7.5-5.1c0.1-0.1,0.2-0.2,0.4-0.2
		c0.2-0.2,0.5-0.3,0.7-0.5c9.4-6.7,18.6-13.8,27.4-21.2c0.1-0.1,0.2-0.2,0.3-0.2c0.2-0.1,0.3-0.3,0.5-0.4c0.2-0.1,0.3-0.3,0.5-0.4
		c3.5-3,6.9-6,10.2-9.1c0.1,0,0.1-0.1,0.2-0.2c0.1-0.1,0.2-0.2,0.2-0.2c4.3-4,8.6-8.1,12.7-12.3c0.1-0.1,0.2-0.2,0.3-0.3
		s0.2-0.2,0.3-0.3c2-2.1,4-4.1,6-6.2c0.2-0.2,0.4-0.4,0.5-0.6c1.1-1.1,2.1-2.2,3.2-3.4c0.2-0.2,0.3-0.3,0.5-0.5
		c0.1-0.1,0.2-0.2,0.3-0.3c0.5-0.5,0.9-1,1.4-1.5c0.2-0.2,0.3-0.3,0.5-0.5c0.1-0.1,0.2-0.3,0.4-0.4c0.1-0.1,0.3-0.3,0.4-0.4
		c2.8-3.2,5.6-6.4,8.4-9.7l0.7-0.8c0.1-0.1,0.2-0.2,0.2-0.3c0.7-0.8,1.3-1.6,2-2.4l0.1-0.1c0-0.1,0.1-0.1,0.1-0.2
		c2.8-3.4,5.5-6.8,8.2-10.3c0.1-0.2,0.3-0.4,0.4-0.6c0.1-0.2,0.2-0.3,0.4-0.5c1.5-2,3-3.9,4.4-5.9c0.1-0.1,0.2-0.3,0.3-0.4
		c0.1-0.2,0.3-0.4,0.4-0.6c1.9-2.6,3.7-5.2,5.5-7.8c0.1-0.1,0.2-0.2,0.2-0.4c0-0.1,0.1-0.1,0.1-0.2c0.5-0.8,1.1-1.6,1.6-2.4
		c0.1-0.1,0.1-0.2,0.2-0.3c0.2-0.3,0.4-0.6,0.6-0.9c3.4-5.1,6.6-10.2,9.8-15.4c0.1-0.1,0.1-0.2,0.2-0.3c0,0,0-0.1,0.1-0.1
		c0.6-0.9,1.1-1.8,1.6-2.8l0.1-0.1c0-0.1,0.1-0.1,0.1-0.2c1.7-2.8,3.3-5.7,4.9-8.6c0.1-0.1,0.1-0.2,0.2-0.3c0.2-0.3,0.3-0.6,0.5-0.9
		c1.4-2.5,2.7-5,4-7.5c0.2-0.5,0.5-1,0.7-1.4c0.1-0.1,0.1-0.2,0.2-0.3l3-6c0.1-0.1,0.1-0.2,0.2-0.3c0.1-0.3,0.3-0.6,0.4-0.9
		c0.4-0.8,0.8-1.5,1.1-2.3v-0.1c0.1-0.2,0.2-0.4,0.3-0.6c1.6-3.4,3.2-6.8,4.7-10.2c0.1-0.2,0.2-0.5,0.3-0.7c0.1-0.1,0.1-0.3,0.2-0.5
		c0.3-0.6,0.5-1.3,0.8-1.9c0.1-0.2,0.2-0.5,0.3-0.7c0-0.1,0.1-0.2,0.1-0.3c3-7.1,5.9-14.2,8.5-21.5c0.1-0.2,0.2-0.5,0.3-0.7
		c0.1-0.2,0.1-0.4,0.2-0.7c0.6-1.8,1.2-3.5,1.8-5.3l2.2,0.2l91,9.1c0,1.7,0.1,3.5,0.2,5.2c0.1,1.4,0.1,2.8,0.1,4.2
		c0.1,2.1,0.2,4.3,0.2,6.4c0,0.5,0,0.9,0.1,1.3c0,1,0.1,2,0.1,3c0.1,2.2,0.2,4.4,0.3,6.7c0.2,2.7,0.3,5.5,0.5,8.3
		c0.1,0.8,0.1,1.5,0.2,2.3c0.1,0.8,0.1,1.5,0.2,2.3c0.1,0.8,0.1,1.6,0.2,2.3c0.1,0.8,0.1,1.6,0.2,2.4c0.1,1.7,0.3,3.4,0.4,5.1
		l0.6,6.9c0.5,5.7,1.1,11.6,1.8,17.6c7.9,8,68.1,1.4,120-9.9c391.8-40,133-13,738.8-12c614.6,14.3,782,15.5,830,25.8
		c48,10.3,73.5,9.1,86.8,2.8c0.9-0.4,1.8-0.9,2.7-1.3c0.3-0.1,0.5-0.3,0.8-0.4c0.1,0,0.1,0,0.1-0.1c0.2-0.1,0.5-0.3,0.7-0.4
		c0.3-0.2,0.5-0.3,0.8-0.5c0.3-0.2,0.5-0.3,0.8-0.5c0.2-0.2,0.5-0.4,0.7-0.5c0.5-0.4,1-0.8,1.4-1.2c0.5-0.4,0.9-0.8,1.3-1.3
		c0.2-0.2,0.4-0.5,0.6-0.7s0.4-0.5,0.6-0.8c0.4-0.5,0.8-1.1,1.1-1.7c0.3-0.4,0.5-0.9,0.8-1.3c0.3-0.5,0.5-1.1,0.8-1.6
		c0.2-0.4,0.3-0.7,0.5-1.1c0.1-0.2,0.2-0.4,0.2-0.6c0.6-1.6,1.2-3.4,1.7-5.4c0.1-0.5,0.2-1,0.4-1.5c0.2-0.8,0.4-1.7,0.5-2.6
		c0.1-0.7,0.3-1.5,0.4-2.3c0.2-1,0.3-2.1,0.5-3.3c0.1-0.7,0.2-1.5,0.3-2.3c0.1-0.5,0.1-1,0.2-1.5c0-0.2,0-0.3,0.1-0.5l132.9-11.2
		c60.4,128.1,190.8,216.8,341.8,216.8s281.3-88.6,341.8-216.7v0.2l46.6,36c0,0.7-0.1,1.4-0.1,2.1c-0.4,4.3-1.1,7.7,1.1,9.9
		c0.1,0.1,0.2,0.2,0.4,0.3c0,0,0.1,0,0.1,0.1c0.1,0.1,0.2,0.2,0.4,0.3c0,0,0,0,0.1,0.1c0.2,0.1,0.4,0.3,0.6,0.4c0,0,0,0,0.1,0
		c0.5,0.4,1.2,0.8,1.9,1.3c0.1,0.1,0.3,0.2,0.4,0.3c0.9,0.6,2,1.3,3.2,2.1c0,0,0.1,0,0.1,0.1c0.2,0.1,0.5,0.3,0.7,0.4
		c1.1,0.7,2.2,1.4,3.4,2.1c0,0,0.1,0,0.1,0.1c3.3,2,7,4.2,11,6.5c0.1,0.1,0.2,0.1,0.4,0.2c5.2,3,10.7,6.2,16,9.2
		c0.6,0.3,1.2,0.7,1.8,1c0.1,0.1,0.3,0.2,0.5,0.3c0.6,0.3,1.2,0.7,1.8,1c0.1,0,0.1,0.1,0.2,0.1c0.2,0.1,0.5,0.3,0.7,0.4
		c1.1,0.6,2.2,1.2,3.3,1.9c0.4,0.2,0.8,0.4,1.2,0.7c0.3,0.2,0.6,0.3,0.9,0.5c0.7,0.4,1.3,0.7,1.9,1.1c0.2,0.1,0.4,0.3,0.7,0.4
		c0.6,0.3,1.1,0.6,1.7,0.9c0.8,0.5,1.6,0.9,2.3,1.3c0.3,0.2,0.6,0.3,0.9,0.5c0.3,0.2,0.6,0.4,1,0.5c0.2,0.1,0.3,0.2,0.5,0.3
		c0.6,0.3,1.2,0.6,1.7,0.9c0.2,0.1,0.5,0.3,0.7,0.4c0.7,0.4,1.3,0.7,1.9,1c0.6,0.5,1.2,0.9,1.9,1.3c127.9-5.3,327.3-28.5,390.5-36
		C4717.2,1379.6,4776.8,1347.3,4753,1325.1z M3157.2,492l-20.8-14.2l-11.3-12.7l27.6,6.8l6.4,4.4l18.1,1.5L3157.2,492z"/>
</g>
<g id="Stroke">
	<g id="Outline_1_">
		<path id="Outline" class="st1" d="M594.3,1315.8c-91.3-1.5-424.4-58.6-464.9-63.1c0,0-29-16.4-45.4-42.3
			c-16.4-25.8-42.3-291.1-42.3-291.1s0-25.3,8.3-41.2c9.1-17.4,55.4-39.4,55.4-39.4c4.2-26.7,69.9-96.9,85.4-107.2
			c2.4-21.2,48.9-40.5,68.9-51.4c57-31,107.6-58.9,71.7-119.7c0,0-32.6-72-52.7-104.6c-25.9-49.2-6.7-70.8,59-76.2
			c83.8-0.2,149.8,35,192,69.4c0,0,9.4,5.5,17.5,5c72.5-8,145.4-17.5,218.6-24c53.6-8.2,85.8-28.7,126.8-46.4
			c138.7-59.8,331.9-131.8,475.3-179.2c0,0,121-36.3,139.8-44.4s18-39.5,39.3-44.3c215.9-49,450.2-66.3,642.4-69.1
			c224.9-3.3,392.1,13.2,404.6,21.6c50.1,33.7,538.6,408.7,550,415s52.7,23.2,76.8,25.9c24.1,2.7,526.2,57.8,771.1,97
			c97.8,14.4,299.6,49.4,395,73.8c42.6,22.8,175.6,170.2,205.8,193.3c28.2,23,96,59.2,111.7,74.6s39.7,56.9,39.7,56.9
			s10.7,18.8,11.7,28.2c3.2,27.6-4.7,113.6-5.7,134.1c0,0-15.1,128.9-10.7,141.4s8.3,14.6,13.6,16.7c23.8,22.2-35.8,54.5-99.4,62.1
			c-63.2,7.5-262.6,30.7-390.5,36c-11.5-6.5-11.5-28.7-4.7-32.1c46.3-190.6-25-469.5-209.2-555.4c-413-192.5-706.9,86.1-712.7,479
			c-0.8,54-6.4,60.7-19.7,66.9c-13.3,6.3-38.8,7.5-86.8-2.8s-215.4-11.5-830-25.8c-605.8-1-347-28-738.8,12
			c-51.9,11.3-112.1,17.9-120,9.9c-12.5-108.8,4.4-161.6-25-287.2c-79.8-230.7-262.4-342.8-441.4-342.8
			c-241.9,0-436.8,159.3-445.7,461.5c0,0-4,76.2,3.5,86.1c11,14.5,28.6,10.2,30.7,15.9C666.6,1316.7,603.2,1315.9,594.3,1315.8z"/>
		<path id="Taillight" class="st1" d="M105.6,838.7l250.8,9.4c0,0-2.7-20.7-7-32.9c-4.3-12.1-2.7-37.8-34.4-60.3
			c0,0-14.5-7.8-31.3-10.2c-16.8-2.3-104.6-3.4-104.6-3.4"/>
		<line id="Rear_Bumper_Line" class="st1" x1="756.2" y1="870.7" x2="356.4" y2="848"/>
		<path id="Skirt" class="st1" d="M3342.4,1239.8c0,0-16.7,8.1-35.5,8.1s-54.3-8.3-79.3-11.5c-25-3.1-49.8-5.7-114.8-8.3
			c-65-2.6-394.7-9.7-394.7-9.7l-371.5-7.8l-291.4-8.3c0,0-160.2-9.1-280.7-7.6s-241.8,4.6-241.8,4.6"/>
		<path id="Door_Front" class="st1" d="M2880.2,531.9h19.5c0,0,4.7,6.3,25.8,14.9s51,7.8,51,7.8s146.2,2.3,186,52.8
			c77,98,11.9,488.6,3.4,623.4"/>
		<g id="Windows">
			<path class="st1" d="M2649.5,509.9h-531.3l-564.9-7.8h-0.4h-0.4c-0.1,0-12.1,0.2-31.9,0.2c-49.6,0-145.8-1.4-232.9-10.5
				c-47.9-5-86.5-11.7-114.8-19.9c-41.5-12-47.2-23.3-47.7-24.6c-0.9-2.3-1.6-5.5,1.1-11.2c3.8-8.2,14.7-22.1,44.4-41.7
				c20.9-13.7,48.1-28.2,80.7-42.8c56.3-25.4,109.7-42.8,110.2-42.9l0.3-0.1l0.3-0.1c0.6-0.2,60.1-21.6,141.7-46.3
				c75.2-22.7,184.9-52.9,280.7-67.7c184.3-28.4,448.6-37.2,451.3-37.3c0.3,0,26.1-0.8,62.2-0.8c34.4,0,84.9,0.8,130.3,4.4
				c74.2,7.3,82.3-1.5,197.3,120.3c37.4,39.5,76.4,88,92.2,108"/>
			<path class="st1" d="M2759.8,383.2l10.1,10.4c-11.6-4.9-22.9-7.6-33.6-7.2c-6.3,0.2-12.3,1.1-18.1,2.6
				c-47,11.8-77.2,61.2-75.8,96c0,0-3.1,12,7.1,25c3.3,4.2,8.1,8.6,14.8,12.6c8.4,5.1,22.6,7.9,38.1,9.4H2118l-565-7.8
				c0,0-12.1,0.2-32.3,0.2c-98.5,0-390.1-5.4-415.8-68.7c-31.1-76.8,250-167.9,250-167.9s238.7-86.1,426.5-115
				c187.8-29,453.9-37.6,453.9-37.6s26-0.8,62.9-0.8c75.8,0,197.6,3.5,236,25.1C2591.5,191.4,2759.8,383.2,2759.8,383.2z"/>
			<path class="st1" d="M2880.2,531.9c0.4-5.3,0.6-10.7,0.1-17.3l19.4,17.3H2880.2z"/>
			<line class="st1" x1="1844.1" y1="506.1" x2="1742.7" y2="201.7"/>
			<line class="st1" x1="1679.9" y1="214.9" x2="1779.2" y2="505.2"/>
			<line class="st1" x1="2564.9" y1="509.9" x2="2435.8" y2="161.3"/>
			<line class="st1" x1="2406.9" y1="159.1" x2="2539.1" y2="509.9"/>
		</g>
		<path id="Door" class="st1" d="M1803.7,527.5c0,0-14.6,29.4-14.6,67.2c0,42.8,29.2,130.4,29.2,130.4s47.5,146.6,71,200.3
			s67.3,180.5,115.3,209.2c48,28.7,163.3,24.5,285.9,27.1s565,12.5,565,12.5l315.7,9.6"/>
		<path id="Front_Bumper_Line" class="st1" d="M4187.2,956.7h385.9c0,0,108.7-3.4,114.8-8.7s1.1-12.2,1.1-12.2"/>
		<path id="Bumper_LIght" class="st1" d="M4542.6,1045.3c34.9,0,129.6,0.7,158.7,0.7c29.9,0,33-3.7,36.1,5.7
			c3.1,9.4,1.6,59.5-7.3,68.9s-55.6,8.3-55.6,8.3s-89.5,0-114,0c-17.1,0-39.7-25.4-40.7-52.3
			C4518.8,1049.3,4524.2,1045.3,4542.6,1045.3z"/>
		<g id="Mirror">
			<path id="_x32__3_" class="st2" d="M2880.2,531.9c-0.6,6.5-1.6,12.9-2.2,21.1c-1.6,19.6-38.4,33.3-72,31.3
				c-33.7-1.9-50.1-7.8-57.1-21.9s30.5-30.5,30.5-30.5h-76.9c-15.5-1.5-29.7-4.3-38.1-9.4c-6.7-4.1-11.5-8.4-14.8-12.6
				c-10.2-13-7.1-25-7.1-25c-1.4-34.8,28.8-84.2,75.8-96c5.8-1.5,11.8-2.3,18.1-2.6c10.6-0.4,22,2.4,33.6,7.2
				c50.5,21.3,103.9,83.3,108.1,104.7c1.2,6.3,2,11.7,2.3,16.4C2880.8,521.2,2880.7,526.6,2880.2,531.9z"/>
			<path id="_x31__2_" class="st1" d="M2779.4,531.9c0,0,24.7,10.6,50.1,8.6s50.8-8.6,50.8-8.6"/>
		</g>
		<g id="Wing">
			<path class="st1" d="M800.2,422.4c-22.5,11.2-31.1,51.9-31.1,51.9"/>
		</g>
		<path id="Upper_Curve" class="st1" d="M242.8,688.8C345.5,626.6,1226.7,301,1226.7,301s224.6-78.3,418.7-116.6s325-48.4,473-55.8
			c361.9-18,402.1,7.3,467.6,71.9"/>
		<g id="Windshield">
			<path id="_x32__1_" class="st1" d="M2594.1,68c-56.9,14-30.9,67.3-8.2,91.1l274.8,296c0,0,50.8,61.7,90.4,70.1
				c73.2,9.7,186.5-11.6,208.1-33.3"/>
			<path id="_x31__1_" class="st1" d="M2614.8,81.1c-55,22.2-37.6,51.4-14.9,75.1l266.8,287.2c0,0,50,59.1,89.6,67.4
				c73.2,9.7,162.3-8.5,188-27.9"/>
		</g>
		<g id="Handle">
			<path id="_x33_" class="st1" d="M2023.6,683.6L2023.6,683.6c-0.6,0.9-1.3,1.8-2.1,2.7l0,0c-11.1,13.1-32.3,25-65.6,24.7
				c-24.4-0.2-42.3-7.4-52.3-21.2c0.2-7-6.2-20.5,62.3-21C2024,668.4,2026.1,678.6,2023.6,683.6z"/>
			<path id="_x32_" class="st1" d="M2024.5,642.1c-6,2.1,1.9,10.8-64.5,4.8c-57.9-5.2-53.2-11.2-53.7-15.5
				c9.5-9.7,24.7-16.3,46.2-16.4C1989.8,614.8,2014.1,625.8,2024.5,642.1z"/>
			<path id="_x31_" class="st1" d="M2089.1,664.2c0,10.2-32.6,17.5-67.6,22.1l0,0c0.2-0.2,1.3-1.2,2.1-2.7l0,0
				c2.5-5,0.4-15.2-57.7-14.8c-68.6,0.5-62.2,13.9-62.3,21c0,0.6-0.1,1.2-0.2,1.7c-0.8,2.4-7.7,2.2-12.8,2.3
				c-40.3,0.8-66.4-1.9-66.4-31.4c0-21.6,17.5-31.8,42-34.3c13.5-1.4,37.1-0.4,39.2,1.3c0.8,0.6,1,1.3,1.1,2.1
				c0.4,4.3-4.3,10.2,53.7,15.5c66.4,6,58.5-2.7,64.5-4.8c1.6-0.6,4.1-0.6,9.3,0.1C2067.3,647.2,2089.1,654.3,2089.1,664.2z"/>
		</g>
	</g>
	<path id="Wing_2" class="st1" d="M301.9,385.4c-7.8,11.1,2.5,23.3,2.5,23.3s23,23.2,53.7,47S449,518,500.7,514.3
		c0,0,66.5,2.2,272.5-54.1"/>
	<path id="Wing_1" class="st1" d="M547.2,454c-128.6,15.2-122.8,42.6-122.8,42.6"/>
	<path id="Front_Well_2" class="st1" d="M4263.2,1423c0,0-58.7-32.4-64.2-37.8c-5.5-5.5,7-18-11.8-33.9
		c-7.4-6.2-19.4-10.8-35.8-14.1"/>
	<path id="Front_Well_1" class="st1" d="M3468,1336.9c-95.4,4.8-133.1,11.2-133.1,11.2"/>
	<line id="Rear_Well_2" class="st1" x1="1445.1" y1="1291.7" x2="1536.6" y2="1300.8"/>
	<path id="Rear_Well_1" class="st1" d="M663.4,1308.2c0-14.5,13.9-11.7,13.9-11.7h27.8"/>
	<path id="Rear_Windshield" class="st1" d="M1486.2,167.7c0,0-24.9,12.9-204.5,79S922.5,390.2,881,405.9s-51.1,6.1-51.1,6.1"/>
	<path id="Squirter" class="st1" d="M3408.7,530.4c0,0-3.6-10.1-19.8-12.2s-20.9,6.1-20.9,6.1"/>
	<path id="Wiper_Base" class="st1" d="M3220.8,509.1c0,0-9.8-9.7-24.4-13.8c-14.6-4.2-27.6-1.1-27.6-1.1"/>
	<path id="Wiper" class="st2" d="M3117.4,463.6c14.4,1.4,33,4.9,44.9,13.6l23.3-1.7c-7.3,2.1-9.6,7.3-9.6,7.3
		c-10.4-1.8-16.8,9.2-16.8,9.2 M3205.8,499c6.1-14.2-4.1-20.6,7.2-16.2c55-47-97.3-26.1-119.7-37.2"/>
	<path id="Headlight" class="st2" d="M4533.9,816.4c0,0-12.8-30.5-53.3-69.6c-66.1-64-83.1-60-83.1-60"/>
	<g id="Wheel_1_">
		<ellipse id="Tire_1_" class="st1" cx="3810.1" cy="1176.9" rx="380" ry="380"/>
		<circle id="Outer_1_" class="st1" cx="3810.1" cy="1176.9" r="311.6"/>
		<ellipse id="Inner_1_1_" class="st3" cx="3810.1" cy="1176.9" rx="292.4" ry="292.4"/>
		<path id="Inner_2_3_" class="st1" d="M3810.1,900.3c152.6,0,276.6,124,276.6,276.6s-124,276.6-276.6,276.6s-276.6-124-276.6-276.6
			S3657.5,900.3,3810.1,900.3"/>
		<circle id="Inner_3_1_" class="st1" cx="3810.1" cy="1176.9" r="258.4"/>
		<path id="Spokes_1_" class="st1" d="M3980.3,1350c0,0.7-0.9,2.2-1.8,3c-0.1,0.1-2.2,2.3-6.4,6.1c-4.2,3.8-10.5,9.1-18.7,15
			c-16.4,11.9-27.9,17.1-28,17.1h-0.2c-0.4,0.2-1.9,0.8-2.9,0.8h-1c-1.3-0.7-2.7-2.4-3.1-3.2l-82.5-142.4
			c12.8-4.6,24-12.7,32.4-23.1l110.2,122.4l0.1,0.1C3978.6,1345.7,3980.3,1347.6,3980.3,1350z M4049.5,1133.7c0-0.2-1.9-12.9-8-32.1
			c-6.1-19.1-12.4-30-12.5-30.1l-0.1-0.1l-0.1-0.1c-0.4-0.8-1.4-2.1-2.3-2.6c-0.5-0.1-0.8-0.3-1.1-0.4c0-0.1-0.1-0.1-0.1-0.1
			c-2,0-3.4,0.7-3.6,0.8h-0.1l-149.9,66.9c7.5,10.9,11.9,24.2,12.5,37.9l160.7-34h0.3c0.3,0,2.5-0.5,3.7-2.3l0.1-0.1l0.1-0.1
			C4049.5,1136.5,4049.7,1134.8,4049.5,1133.7z M3846,937.1c-0.4-0.5-2-1.1-3.1-1.3h-0.2c-0.1-0.1-12.3-2.3-32.6-2.3
			s-32.4,2.3-32.6,2.3h-0.2c-1.1,0.1-2.8,0.8-3.2,1.3v0.1c-0.8,1-1,2.7-1,3.9c0,0.3,0,0.5,0,0.7l17.3,163.6
			c5.7-1.5,12.4-2.8,19.6-2.8c7.2,0,13.6,0.8,19.7,2.6l17.2-163.3v-0.2C3847.1,941.8,3847.4,939.2,3846,937.1z M3598,1068.8
			l-0.5-0.2c-0.6-0.3-1.6-0.6-2.5-0.6l-0.3,0.4l-1.2,0.2c-0.5,0.1-1.4,1.3-1.9,2.3l-0.1,0.2l-0.1,0.2c0,0.1-6.2,11-12.5,30.1
			c-6.2,19.3-8,32-8,32.1c-0.1,1.1,0,2.8,0.4,3.4c1.2,1.4,3.3,2.3,4.2,2.6l160.5,34c0.5-13.7,5-26.8,12.4-37.9L3598,1068.8z
			 M3752,1222.8l-110,122.4l-0.1,0.1l-0.1,0.1c0,0-1.8,1.9-1.8,4.1c0,0.4,0.3,0.9,0.6,1.5s0.8,1.2,1.1,1.5
			c0.1,0.1,8.8,9.3,25.2,21.2c16.4,11.8,27.9,17,28,17.1h0.2c0.4,0.1,1.9,0.7,2.9,0.7h1c1.3-0.7,2.7-2.4,3.1-3.2l82.4-142.3
			C3772,1241.7,3760.9,1233.8,3752,1222.8z"/>
		<path id="Lugs_1_" class="st1" d="M3884.3,1183.3c-5.3,0-10.5,2.3-14,7c-5.9,7.6-4.1,18.7,4.1,24.6c2.9,2.3,6.4,3.5,10.5,3.5
			c5.3,0,10.5-2.3,14-7c5.9-7.6,4.1-18.7-4.1-24.6C3892.1,1184.4,3888.5,1183.3,3884.3,1183.3L3884.3,1183.3z M3856.3,1096.2
			c-3.5,0-7,1.2-10.5,3.5c-7.6,5.9-9.4,16.4-4.1,24.6c3.5,4.6,8.8,7,14,7c3.5,0,7-1.2,10.5-3.5c7.6-5.9,9.4-16.4,4.1-24.6
			C3866.9,1098.6,3861.6,1096.2,3856.3,1096.2L3856.3,1096.2z M3764,1096.2c-1.8,0-3.5,0-5.3,0.6c-9.4,2.9-14,12.9-11,22.2
			c2.3,7.6,9.4,12.3,17,12.3c1.8,0,3.5,0,5.3-0.6c9.4-2.9,14-12.9,11-22.2C3778.5,1100.8,3771.6,1096.2,3764,1096.2L3764,1096.2z
			 M3810.1,1237.7c-7.6,0-14,4.6-17,12.3c-2.9,9.4,2.3,19.3,11,22.2c1.8,0.6,3.5,0.6,5.3,0.6c7.6,0,14-4.6,17-12.3
			c2.9-9.4-2.3-19.3-11-22.2C3813.6,1237.7,3812,1237.7,3810.1,1237.7L3810.1,1237.7z M3735.9,1183.3c-10,0-17.5,7.6-17.5,17.5
			s7.6,17.5,17.5,17.5s17.5-7.6,17.5-17.5S3745.2,1183.3,3735.9,1183.3L3735.9,1183.3z"/>
		<path id="Holes_3_" class="st1" d="M4031.8,1172.8c0,23.9-3.5,47.9-11,71.9c-7.6,23.9-19.3,45-33.3,64.3c-3.5,4.6-8.8,7-14,7
			c-1.8,0-3.5,0-5.3-0.6s-2.9-1.2-4.6-2.3c-1.2-0.6-1.8-1.8-2.9-2.9l-1.8-2.3l-44.5-63.2c-8.2-10-10.5-23.9-6.4-36.8
			c2-6.4,5.8-12.2,10.3-16.7c4.7-4.5,10.3-7.8,16.5-9.7l73.1-24.6l2.3-0.6c1.2-0.6,2.3-0.6,4.1-0.6c2.3,0,4.1,0.6,5.3,0
			C4026.4,1158.2,4031.8,1165.1,4031.8,1172.8z M3992.5,1048.8c-13.5-19.3-31-36.8-50.9-51.4c-20.4-14.6-42-25.8-64.9-32.7
			c-2.9-0.6-4.7-0.6-6.4-0.6c-5.9,0-11,2.9-14,7c-1.2,1.2-1.8,2.9-2.3,4.6c-0.6,1.2-0.6,2.9-0.6,4.1v2.9l1.2,77.2
			c0,6.4,1.5,12.9,4.3,18.7c2.8,5.9,7,11,12.7,15.2c7,5.3,15.8,7.6,23.9,7.6c4.6,0,8.8-0.6,13.5-2.3l73.7-22.8l2.3-0.6
			c1.2-0.6,2.3-1.2,3.5-2.3c1.8-1.2,2.9-2.3,4.1-4.1C3996.6,1063.4,3997.2,1055.2,3992.5,1048.8z M3767.5,975.7
			c-0.6-1.8-1.2-3.5-2.3-4.6c-4.1-4.1-9.4-7-15.2-7c-1.8,0-3.5,0-5.3,0.6c-22.8,7-44.5,17.5-64.9,32.7
			c-20.4,14.6-37.5,32.2-50.9,51.4c-4.6,6.4-4.1,14.6,0,20.4c1.2,1.2,2.3,2.9,4.1,4.1c1.2,0.6,2.3,1.8,3.5,2.3l2.3,0.6l73.7,22.8
			c2,0.9,4.2,1.4,6.5,1.9c2.3,0.4,4.6,0.5,6.9,0.5c8.2,0,16.4-2.3,23.9-7.6c11-8.2,17-21.1,17-34l1.2-77.2v-2.9
			C3768.1,978.7,3767.5,976.9,3767.5,975.7z M3712.5,1208.4c-4.1-12.9-14.6-22.8-26.8-26.2l-73.1-24.6l-2.3-0.6
			c-1.2-0.6-2.9-1.2-4.1-1.2c-1.8,0-3.5,0.6-5.3,0.6c-7,2.3-12.3,8.8-12.3,17c-0.6,23.9,2.9,48,11,71.9
			c7.6,23.9,19.3,45.6,33.3,64.3c3.5,4.6,8.8,7,14,7c1.8,0,3.5,0,5.3-0.6s3.5-1.2,4.6-2.3c1.2-0.6,2.3-1.8,2.9-2.9l1.8-2.3
			l44.5-63.2c5.3-7.2,8.3-16,8.3-25C3714.3,1216.4,3713.7,1212.4,3712.5,1208.4z M3893.1,1365.1c-0.6-1.2-1.2-2.9-1.8-4.1l-1.8-2.3
			l-46.1-62c-3.5-5.3-8.4-9.7-14-12.7c-5.8-3.1-12.3-4.9-19.3-4.9c-14,0-25.8,7-33.3,17.5l-46.1,62l-1.8,2.3
			c-0.6,1.2-1.2,2.3-1.8,4.1c-0.6,1.8-0.6,3.5-0.6,5.3c0,7.6,4.6,14,12.3,17c22.2,7.6,46.8,11.7,71.3,11.7
			c24.6,0,49.1-4.1,71.3-11.7c7.6-2.3,12.3-9.4,12.3-17C3893.7,1368.7,3893.7,1366.9,3893.1,1365.1z"/>
		<circle id="Cap_1_" class="st1" cx="3810.1" cy="1176.9" r="48.5"/>
		<path id="Bolts_1_" class="st1" d="M3891.4,953.5c-1.2,2.9-4.1,5.3-7.6,5.3c-0.6,0-1.8-0.6-2.3-0.6c-4.1-1.2-6.4-5.9-5.3-10
			c1.2-2.9,4.1-5.3,7.6-5.3c0.6,0,1.2,0,2.3,0.6C3890.2,944.7,3892.5,949.4,3891.4,953.5z M3736.4,958.8c0.6,0,1.8,0,2.3-0.6
			c4.1-1.2,6.4-5.9,5.3-10c-1.2-2.9-4.1-5.3-7.6-5.3c-0.6,0-1.8,0-2.3,0.6c-4.1,1.2-6.4,5.9-5.3,10
			C3730,957,3732.9,958.8,3736.4,958.8z M3954.5,978.7c-1.7-1.2-2.9-1.8-4.6-1.8c-2.3,0-4.6,1.2-6.4,2.9c-2.3,3.5-1.8,8.2,1.8,11
			c1.2,1.2,2.9,1.8,4.6,1.8c2.3,0,4.6-1.2,6.4-2.9C3958.6,986.2,3958,981.5,3954.5,978.7z M3670.4,976.9c-1.8,0-2.9,0.6-4.6,1.8
			c-3.5,2.3-4.1,7.6-1.8,11c1.8,2.3,4.1,2.9,6.4,2.9c1.8,0,2.9-0.6,4.6-1.8c3.5-2.3,4.1-7.6,1.8-11
			C3675.1,978.1,3672.7,976.9,3670.4,976.9z M4002.5,1029.5c-1.8,0-2.9,0.6-4.6,1.8c-3.5,2.3-4.1,7.6-1.8,11
			c1.8,2.3,4.1,2.9,6.4,2.9c1.8,0,2.9-0.6,4.6-1.8c3.5-2.3,4.1-7.6,1.8-11C4007.2,1030.8,4004.8,1029.5,4002.5,1029.5z M3613,1043.4
			c1.2,1.2,2.9,1.8,4.6,1.8c2.3,0,4.6-1.2,6.4-2.9c2.3-3.5,1.8-8.2-1.8-11c-1-1.2-2.7-1.8-4.6-1.8c-2.3,0-4.6,1.2-6.4,2.9
			C3608.9,1035.9,3609.5,1040.6,3613,1043.4z M4047.6,1169.3c-4.1,0-7.6,3.5-7.6,7.6s3.5,7.6,7.6,7.6s7.6-3.5,7.6-7.6
			C4055.8,1172.8,4052.1,1169.3,4047.6,1169.3z M3580.4,1176.9c-0.1-4.1-3.6-7.6-7.6-7.6c-4.1,0-7.6,3.5-7.6,7.6s3.5,7.6,7.6,7.6
			S3580.4,1181,3580.4,1176.9z M4038.1,1242.9c-0.5-0.6-1.1-0.6-2.3-0.6c-3.5,0-6.4,2.3-7.6,5.3c-1.2,4.1,1.2,8.8,5.3,10
			c0.6,0,1.8,0.6,2.3,0.6c3.5,0,6.4-2.3,7.6-5.3C4044.5,1248.7,4042.2,1244,4038.1,1242.9z M3584.4,1242.3c-0.6,0-1.8,0-2.3,0.6
			c-4.1,1.2-6.4,5.9-5.3,10c1.2,3.5,4.1,5.3,7.6,5.3c0.6,0,1.8,0,2.3-0.6c4.1-1.2,6.4-5.9,5.3-10
			C3590.3,1244.7,3587.4,1242.3,3584.4,1242.3z M4007.1,1310.2c-1.7-1.2-3.4-1.8-4.6-1.8c-2.3,0-4.6,1.2-6.4,2.9
			c-2.3,3.5-1.8,8.2,1.8,11c1.2,1.2,2.9,1.8,4.6,1.8c2.3,0,4.6-1.2,6.4-2.9C4011.2,1317.7,4010.6,1313,4007.1,1310.2z
			 M3617.7,1308.4c-1.8,0-2.9,0.6-4.6,1.8c-3.5,2.3-4.1,7.6-1.8,11c1.8,2.3,4.1,2.9,6.4,2.9c1.8,0,2.9-0.6,4.6-1.8
			c3.5-2.3,4.1-7.6,1.8-11C3623,1309.6,3620.1,1308.4,3617.7,1308.4z M3883.8,1394.9c-0.6,0-1.8,0-2.3,0.6c-4.1,1.2-6.4,5.9-5.3,10
			c1.2,3.5,4.1,5.3,7.6,5.3c0.6,0,1.8,0,2.3-0.6c4.1-1.2,6.4-5.9,5.3-10C3889.6,1396.7,3886.7,1394.9,3883.8,1394.9z M3739.5,1395.5
			c-1.3-0.6-1.8-0.6-2.3-0.6c-3.5,0-6.4,2.3-7.6,5.3c-1.2,4.1,1.2,8.8,5.3,10c0.6,0,1.8,0.6,2.3,0.6c3.5,0,6.4-2.3,7.6-5.3
			C3745.9,1401.4,3743.6,1396.7,3739.5,1395.5z M3810.1,1406.6c-4.1,0-7.6,3.5-7.6,7.6s3.5,7.6,7.6,7.6s7.6-3.5,7.6-7.6
			C3817.8,1410.1,3814.3,1406.6,3810.1,1406.6z"/>
	</g>
	<g id="Wheel_3_">
		<ellipse id="Tire_3_" class="st1" cx="1074" cy="1166.2" rx="389.5" ry="389.5"/>
		<circle id="Outer_3_" class="st1" cx="1074" cy="1166.2" r="319.4"/>
		<ellipse id="Inner_1_3_" class="st3" cx="1074" cy="1166.2" rx="299.7" ry="299.7"/>
		<path id="Inner_2_2_" class="st1" d="M1074,882.7c156.4,0,283.5,127.1,283.5,283.5s-127.1,283.5-283.5,283.5
			s-283.5-127.1-283.5-283.5S917.6,882.7,1074,882.7"/>
		<circle id="Inner_3_3_" class="st1" cx="1074" cy="1166.2" r="264.9"/>
		<path id="Spokes_2_" class="st1" d="M1248.5,1343.6c0,0.7-0.9,2.3-1.8,3.1c-0.1,0.1-2.3,2.4-6.6,6.3c-4.3,3.9-10.8,9.3-19.2,15.4
			c-16.8,12.2-28.6,17.5-28.7,17.5h-0.2c-0.4,0.2-1.9,0.8-3,0.8h-1c-1.3-0.7-2.8-2.5-3.2-3.3l-84.6-146c13.1-4.7,24.6-13,33.2-23.7
			l113,125.5l0.1,0.1C1246.7,1339.2,1248.5,1341.2,1248.5,1343.6z M1319.4,1121.9c0-0.2-1.9-13.2-8.2-32.9
			c-6.3-19.6-12.7-30.8-12.8-30.9l-0.1-0.1l-0.1-0.1c-0.4-0.8-1.4-2.2-2.4-2.7c-0.5-0.1-0.8-0.3-1.1-0.4c0-0.1-0.1-0.1-0.1-0.1
			c-2,0-3.5,0.7-3.7,0.8h-0.1l-153.6,68.6c7.7,11.2,12.2,24.8,12.8,38.8l164.7-34.9h0.3c0.3,0,2.6-0.5,3.8-2.4l0.1-0.1l0.1-0.1
			C1319.4,1124.8,1319.6,1123,1319.4,1121.9z M1110.8,920.4c-0.4-0.5-2.1-1.1-3.2-1.3h-0.2c-0.1-0.1-12.6-2.4-33.4-2.4
			s-33.2,2.4-33.4,2.4h-0.2c-1.1,0.1-2.9,0.8-3.3,1.3v0.1c-0.8,1-1,2.8-1,4c0,0.3,0,0.5,0,0.7l17.7,167.7c5.8-1.5,12.7-2.9,20.1-2.9
			s13.9,0.8,20.2,2.7l17.6-167.4v-0.2C1111.9,925.2,1112.2,922.6,1110.8,920.4z M856.6,1055.4l-0.5-0.2c-0.6-0.3-1.6-0.6-2.6-0.6
			l-0.3,0.4l-1.2,0.2c-0.5,0.1-1.4,1.3-1.9,2.4l-0.1,0.2l-0.1,0.2c0,0.1-6.4,11.3-12.8,30.9c-6.4,19.8-8.2,32.8-8.2,32.9
			c-0.1,1.1,0,2.9,0.4,3.5c1.2,1.4,3.4,2.4,4.3,2.7l164.5,34.8c0.5-14,5.1-27.5,12.7-38.8L856.6,1055.4z M1014.4,1213.2
			l-112.8,125.5l-0.1,0.1l-0.1,0.1c0,0-1.8,1.9-1.8,4.2c0,0.4,0.3,0.9,0.6,1.5s0.8,1.2,1.1,1.5c0.1,0.1,9,9.5,25.8,21.7
			c16.8,12.1,28.6,17.4,28.7,17.5h0.2c0.4,0.1,1.9,0.7,3,0.7h1c1.3-0.7,2.8-2.5,3.2-3.3l84.5-145.9
			C1034.9,1232.6,1023.6,1224.5,1014.4,1213.2z"/>
		<path id="Lugs_3_" class="st1" d="M1150.1,1172.8c-5.4,0-10.8,2.4-14.3,7.2c-6,7.8-4.2,19.2,4.2,25.2c3,2.4,6.6,3.6,10.8,3.6
			c5.4,0,10.8-2.4,14.3-7.2c6-7.8,4.2-19.2-4.2-25.2C1158,1173.9,1154.4,1172.8,1150.1,1172.8L1150.1,1172.8z M1121.4,1083.5
			c-3.6,0-7.2,1.2-10.8,3.6c-7.8,6-9.6,16.8-4.2,25.2c3.6,4.7,9,7.2,14.3,7.2c3.6,0,7.2-1.2,10.8-3.6c7.8-6,9.6-16.8,4.2-25.2
			C1132.2,1085.9,1126.8,1083.5,1121.4,1083.5L1121.4,1083.5z M1026.7,1083.5c-1.8,0-3.6,0-5.4,0.6c-9.6,3-14.3,13.2-11.3,22.8
			c2.4,7.8,9.6,12.6,17.4,12.6c1.8,0,3.6,0,5.4-0.6c9.6-3,14.3-13.2,11.3-22.8C1041.6,1088.2,1034.5,1083.5,1026.7,1083.5
			L1026.7,1083.5z M1074,1228.5c-7.8,0-14.3,4.7-17.4,12.6c-3,9.6,2.4,19.8,11.3,22.8c1.8,0.6,3.6,0.6,5.4,0.6
			c7.8,0,14.3-4.7,17.4-12.6c3-9.6-2.4-19.8-11.3-22.8C1077.6,1228.5,1075.9,1228.5,1074,1228.5L1074,1228.5z M997.9,1172.8
			c-10.2,0-17.9,7.8-17.9,17.9s7.8,17.9,17.9,17.9c10.1,0,17.9-7.8,17.9-17.9S1007.5,1172.8,997.9,1172.8L997.9,1172.8z"/>
		<path id="Holes_2_" class="st1" d="M1301.2,1162c0,24.5-3.6,49.1-11.3,73.7c-7.8,24.5-19.8,46.1-34.1,65.9
			c-3.6,4.7-9,7.2-14.3,7.2c-1.8,0-3.6,0-5.4-0.6s-3-1.2-4.7-2.4c-1.2-0.6-1.8-1.8-3-3l-1.8-2.4l-45.6-64.8
			c-8.4-10.2-10.8-24.5-6.6-37.7c2.1-6.6,5.9-12.5,10.6-17.1c4.8-4.6,10.6-8,16.9-9.9l74.9-25.2l2.4-0.6c1.2-0.6,2.4-0.6,4.2-0.6
			c2.4,0,4.2,0.6,5.4,0C1295.7,1147,1301.2,1154.1,1301.2,1162z M1261,1034.9c-13.8-19.8-31.8-37.7-52.2-52.7
			c-20.9-15-43.1-26.4-66.5-33.5c-3-0.6-4.8-0.6-6.6-0.6c-6,0-11.3,3-14.4,7.2c-1.2,1.2-1.8,3-2.4,4.7c-0.6,1.2-0.6,3-0.6,4.2v3
			l1.2,79.1c0,6.6,1.5,13.2,4.4,19.2s7.2,11.3,13,15.6c7.2,5.4,16.2,7.8,24.5,7.8c4.7,0,9-0.6,13.8-2.4l75.5-23.4l2.4-0.6
			c1.2-0.6,2.4-1.2,3.6-2.4c1.8-1.2,3-2.4,4.2-4.2C1265.2,1049.9,1265.8,1041.5,1261,1034.9z M1030.3,960c-0.6-1.8-1.2-3.6-2.4-4.7
			c-4.2-4.2-9.6-7.2-15.6-7.2c-1.8,0-3.6,0-5.4,0.6c-23.4,7.2-45.6,17.9-66.5,33.5c-20.9,15-38.4,33-52.2,52.7
			c-4.7,6.6-4.2,15,0,20.9c1.2,1.2,2.4,3,4.2,4.2c1.2,0.6,2.4,1.8,3.6,2.4l2.4,0.6l75.5,23.4c2.1,0.9,4.3,1.4,6.7,1.9
			c2.4,0.4,4.7,0.5,7.1,0.5c8.4,0,16.8-2.4,24.5-7.8c11.3-8.4,17.4-21.6,17.4-34.8l1.2-79.1v-3C1030.9,963,1030.3,961.2,1030.3,960z
			 M974,1198.5c-4.2-13.2-15-23.4-27.5-26.9l-74.9-25.2l-2.4-0.6c-1.2-0.6-3-1.2-4.2-1.2c-1.8,0-3.6,0.6-5.4,0.6
			c-7.2,2.4-12.6,9-12.6,17.4c-0.6,24.5,3,49.2,11.3,73.7c7.8,24.5,19.8,46.7,34.1,65.9c3.6,4.7,9,7.2,14.4,7.2c1.8,0,3.6,0,5.4-0.6
			c1.8-0.6,3.6-1.2,4.7-2.4c1.2-0.6,2.4-1.8,3-3l1.8-2.4l45.6-64.8c5.4-7.4,8.5-16.4,8.5-25.6C975.8,1206.7,975.2,1202.6,974,1198.5
			z M1159.1,1359.1c-0.6-1.2-1.2-3-1.8-4.2l-1.8-2.4l-47.3-63.5c-3.6-5.4-8.6-9.9-14.3-13c-5.9-3.2-12.6-5-19.8-5
			c-14.3,0-26.4,7.2-34.1,17.9l-47.3,63.5l-1.8,2.4c-0.6,1.2-1.2,2.4-1.8,4.2c-0.6,1.8-0.6,3.6-0.6,5.4c0,7.8,4.7,14.3,12.6,17.4
			c22.8,7.8,48,12,73.1,12c25.2,0,50.3-4.2,73.1-12c7.8-2.4,12.6-9.6,12.6-17.4C1159.7,1362.8,1159.7,1360.9,1159.1,1359.1z"/>
		<circle id="Cap_3_" class="st1" cx="1074" cy="1166.2" r="49.7"/>
		<path id="Bolts" class="st1" d="M1157.3,937.2c-1.2,3-4.2,5.4-7.8,5.4c-0.6,0-1.8-0.6-2.4-0.6c-4.2-1.2-6.6-6-5.4-10.2
			c1.2-3,4.2-5.4,7.8-5.4c0.6,0,1.2,0,2.4,0.6C1156.1,928.2,1158.5,933,1157.3,937.2z M998.5,942.6c0.6,0,1.8,0,2.4-0.6
			c4.2-1.2,6.6-6,5.4-10.2c-1.2-3-4.2-5.4-7.8-5.4c-0.6,0-1.8,0-2.4,0.6c-4.2,1.2-6.6,6-5.4,10.2
			C991.9,940.8,994.9,942.6,998.5,942.6z M1222,963c-1.7-1.2-3-1.8-4.7-1.8c-2.4,0-4.7,1.2-6.6,3c-2.4,3.6-1.8,8.4,1.8,11.3
			c1.2,1.2,3,1.8,4.7,1.8c2.4,0,4.7-1.2,6.6-3C1226.2,970.7,1225.6,965.9,1222,963z M930.8,961.2c-1.8,0-3,0.6-4.7,1.8
			c-3.6,2.4-4.2,7.8-1.8,11.3c1.8,2.4,4.2,3,6.6,3c1.8,0,3-0.6,4.7-1.8c3.6-2.4,4.2-7.8,1.8-11.3
			C935.6,962.4,933.2,961.2,930.8,961.2z M1271.2,1015.1c-1.8,0-3,0.6-4.7,1.8c-3.6,2.4-4.2,7.8-1.8,11.3c1.8,2.4,4.2,3,6.6,3
			c1.8,0,3-0.6,4.7-1.8c3.6-2.4,4.2-7.8,1.8-11.3C1276,1016.4,1273.6,1015.1,1271.2,1015.1z M872,1029.4c1.2,1.2,3,1.8,4.7,1.8
			c2.4,0,4.7-1.2,6.6-3c2.4-3.6,1.8-8.4-1.8-11.3c-1-1.2-2.8-1.8-4.7-1.8c-2.4,0-4.7,1.2-6.6,3
			C867.8,1021.7,868.4,1026.5,872,1029.4z M1317.4,1158.4c-4.2,0-7.8,3.6-7.8,7.8c0,4.2,3.6,7.8,7.8,7.8c4.2,0,7.8-3.6,7.8-7.8
			C1325.8,1162,1322.1,1158.4,1317.4,1158.4z M838.6,1166.2c-0.1-4.2-3.7-7.8-7.8-7.8c-4.2,0-7.8,3.6-7.8,7.8c0,4.2,3.6,7.8,7.8,7.8
			S838.6,1170.4,838.6,1166.2z M1307.7,1233.8c-0.5-0.6-1.1-0.6-2.4-0.6c-3.6,0-6.6,2.4-7.8,5.4c-1.2,4.2,1.2,9,5.4,10.2
			c0.6,0,1.8,0.6,2.4,0.6c3.6,0,6.6-2.4,7.8-5.4C1314.3,1239.8,1311.9,1235,1307.7,1233.8z M842.7,1233.2c-0.6,0-1.8,0-2.4,0.6
			c-4.2,1.2-6.6,6-5.4,10.2c1.2,3.6,4.2,5.4,7.8,5.4c0.6,0,1.8,0,2.4-0.6c4.2-1.2,6.6-6,5.4-10.2
			C848.7,1235.7,845.7,1233.2,842.7,1233.2z M1275.9,1302.8c-1.7-1.2-3.5-1.8-4.7-1.8c-2.4,0-4.7,1.2-6.6,3
			c-2.4,3.6-1.8,8.4,1.8,11.3c1.2,1.2,3,1.8,4.7,1.8c2.4,0,4.7-1.2,6.6-3C1280.1,1310.5,1279.5,1305.7,1275.9,1302.8z M876.8,1301
			c-1.8,0-3,0.6-4.7,1.8c-3.6,2.4-4.2,7.8-1.8,11.3c1.8,2.4,4.2,3,6.6,3c1.8,0,3-0.6,4.7-1.8c3.6-2.4,4.2-7.8,1.8-11.3
			C882.2,1302.2,879.2,1301,876.8,1301z M1149.5,1389.7c-0.6,0-1.8,0-2.4,0.6c-4.2,1.2-6.6,6-5.4,10.2c1.2,3.6,4.2,5.4,7.8,5.4
			c0.6,0,1.8,0,2.4-0.6c4.2-1.2,6.6-6,5.4-10.2C1155.5,1391.5,1152.5,1389.7,1149.5,1389.7z M1001.6,1390.3
			c-1.3-0.6-1.8-0.6-2.4-0.6c-3.6,0-6.6,2.4-7.8,5.4c-1.2,4.2,1.2,9,5.4,10.2c0.6,0,1.8,0.6,2.4,0.6c3.6,0,6.6-2.4,7.8-5.4
			C1008.2,1396.3,1005.8,1391.5,1001.6,1390.3z M1074,1401.6c-4.2,0-7.8,3.6-7.8,7.8c0,4.2,3.6,7.8,7.8,7.8c4.2,0,7.8-3.6,7.8-7.8
			C1081.9,1405.2,1078.3,1401.6,1074,1401.6z"/>
	</g>
</g>
</svg>
