<?xml version="1.0" encoding="utf-8"?>
<!-- Generator: Adobe Illustrator 24.3.0, SVG Export Plug-In . SVG Version: 6.00 Build 0)  -->
<svg version="1.1" id="Layer_1" xmlns="http://www.w3.org/2000/svg" xmlns:xlink="http://www.w3.org/1999/xlink" x="0px" y="0px"
	 viewBox="0 0 4728 1610" style="enable-background:new 0 0 4728 1610;" xml:space="preserve">
<style type="text/css">
	.st0{fill:#494B50;}
	.st1{fill:#C4C9D4;}
	.st2{fill:#FF0314;}
</style>
<g id="Trace_Legit_Solid_Dark">
	<g id="Vector">
		<g id="Car">
			<g id="Color">
				<g id="Body">
					<g>
						<path id="Outer_1_" class="st0" d="M4699.2,1306c-5.3-2.1-12.2-4.2-16.6-16.7s13.7-164.4,13.7-164.4
							c1-20.5,5.9-106.5,2.7-134.1c-1-9.4-11.7-28.2-11.7-28.2s-24-28.5-39.7-43.9c-6-5.9-59.3-53-101.7-87.6
							c-30.2-23.1-153.2-154.5-195.8-177.3c-95.4-24.4-294.2-65.4-392-79.8c-325.5-22.9-738.8-103.4-771.1-107
							c-3.2-3-6.7-5.6-10.5-7.8c-1.5-11.3-4.6-21.4,2.7-18.5c55-47-97.3-26.1-119.7-37.2l24.1,18c14.4,1.4,33,4.9,44.9,13.6
							l23.3-1.7c-7.3,2.1-9.6,7.3-9.6,7.3c-8.2-1.4-13.9,5.1-15.9,7.8c-2.2-0.9-4.4-1.9-6.3-2.7l-0.4,0.4v0.2l-0.2-0.1l-8.7-4.8
							c-0.1,0-0.1,0-0.2-0.1l-2.3,1.2l-0.3,0.2c0,0-1.7,0.9-2.6,1.3c-3.4,1.6-7.3,3.3-11.5,4.9c-1,0.4-1.9,0.7-2.9,1.1
							c-0.6,0.2-1.2,0.4-1.8,0.7l-1.8,0.6c-1.2,0.4-2.5,0.9-3.8,1.3c-1.3,0.4-2.6,0.8-4,1.2s-2.7,0.8-4.1,1.2l-4.2,1.2
							c-0.7,0.2-1.4,0.4-2.2,0.6l-4.4,1.2c-4.8,1.2-9.9,2.4-15.1,3.5c-2.9,0.6-5.9,1.2-8.9,1.8s-6.1,1.1-9.2,1.7
							c-4.7,0.8-9.4,1.5-14.2,2.2l-4.8,0.6c-2.2,0.3-4.3,0.5-6.5,0.8c-2.2,0.3-4.4,0.5-6.6,0.7c-2.9,0.3-5.8,0.5-8.8,0.7l-4.8,0.3
							h-0.7c-9.3,0.6-18.7,0.8-28,0.7c-1.8,0-3.6,0-5.3-0.1c-1.4,0-2.7-0.1-4.1-0.1l-6.7-0.3c-2.2-0.1-4.4-0.3-6.6-0.5
							c-0.8-0.1-1.7-0.2-2.5-0.2c-1.3-0.1-2.6-0.2-3.9-0.4c-1.9-0.2-3.7-0.4-5.6-0.7c-1.1-0.2-2.2-0.5-3.4-0.8
							c-0.4-0.1-0.8-0.2-1.2-0.4c-0.1,0-0.2,0-0.3-0.1c-0.4-0.1-0.8-0.2-1.2-0.4c-0.2-0.1-0.5-0.2-0.7-0.2c-0.4-0.1-0.8-0.3-1.1-0.4
							h-0.1c-0.5-0.2-1.1-0.4-1.6-0.6c-0.5-0.2-1.1-0.4-1.6-0.6c-0.6-0.2-1.1-0.4-1.6-0.7c-0.3-0.1-0.7-0.3-1-0.4
							c-2.4-1-4.7-2.2-7-3.5c-0.5-0.3-1.1-0.6-1.6-0.9c-0.5-0.3-1.1-0.6-1.6-0.9c-0.5-0.3-1-0.6-1.6-0.9c-1.5-0.9-3.1-1.9-4.6-2.9
							c-0.5-0.3-1-0.7-1.5-1c-0.5-0.3-1-0.7-1.5-1l-3-2.1c-6.4-4.5-12.6-9.5-18.4-14.5c-0.5-0.5-1.1-1-1.7-1.4c-2.3-2-4.5-4-6.6-6
							c-0.4-0.3-0.8-0.7-1.1-1.1c-6.4-6-11.9-11.6-16.2-16.1c-0.3-0.3-0.6-0.6-0.8-0.9c-1.3-1.3-2.4-2.6-3.4-3.7
							c-0.1-0.2-0.3-0.3-0.4-0.5c-2.3-2.6-3.9-4.3-4.5-5.1l-0.1-0.1c-0.1-0.1-0.1-0.1-0.1-0.2s0-0.1-0.1-0.1l-266.8-277.2
							c-2.7-2.8-5.3-5.8-7.7-8.7c-0.6-0.7-1.2-1.5-1.7-2.2c-0.3-0.4-0.6-0.8-0.8-1.1c-0.4-0.5-0.7-1-1-1.5c-0.2-0.2-0.3-0.5-0.5-0.7
							c-0.3-0.5-0.6-1-0.9-1.5c-0.3-0.4-0.5-0.8-0.8-1.2c-0.1-0.1-0.2-0.2-0.2-0.4c-0.5-0.8-0.9-1.5-1.3-2.3l-0.6-1.2l-0.6-1.2
							c-0.1-0.3-0.3-0.6-0.4-0.9c-0.3-0.5-0.5-1.1-0.7-1.7c-0.4-0.9-0.7-1.9-1-2.8c-2.8-9.1-1.5-18.2,6.6-27l0.6-0.6l0.6-0.6
							c0.4-0.5,0.9-0.9,1.4-1.3c0.3-0.2,0.5-0.4,0.7-0.7c0.6-0.6,1.3-1.1,2-1.7c1.1-0.8,2.2-1.7,3.3-2.5c0.8-0.6,1.6-1.1,2.5-1.7
							c0.8-0.5,1.7-1.1,2.6-1.6c1.5-0.9,3-1.7,4.7-2.6c1-0.5,2-1,3.1-1.5c0.7-0.3,1.4-0.7,2.1-1c0.4-0.2,0.7-0.3,1.1-0.5
							c0.8-0.4,1.6-0.7,2.4-1.1c0.8-0.4,1.7-0.7,2.5-1.1c0-0.2-1.8-5.7-8.4-10.5c-8.7-6.3-15.4-4.9-15.4-4.9
							c-14.9-8.4-181.6-34.6-404.6-31.3c-192.2,2.8-426.5,20.1-642.4,69.1c-21.3,4.8-20.5,36.2-39.3,44.3
							C1455,126,1334,162.3,1334,162.3c-143.4,47.4-336.6,119.4-475.3,179.2c-41,17.7-73.2,38.2-126.8,46.4
							c-73.2,6.5-146.1,16-218.6,24c-8.1,0.5-17.5-5-17.5-5c-42.2-34.4-108.2-69.6-192-69.4c-65.7,5.4-84.9,27-59,76.2
							c20.1,32.6,52.7,104.6,52.7,104.6c35.9,60.8-14.7,88.7-71.7,119.7c-20,10.9-66.5,30.2-68.9,51.4
							c-15.5,10.3-81.2,80.5-85.4,107.2c0,0-46.3,22-55.4,39.4c-8.3,15.9-8.3,41.2-8.3,41.2s25.9,265.3,42.3,291.1
							c16.4,25.8,45.4,42.3,45.4,42.3c40.5,4.5,373.6,61.6,464.9,63.1c8.9,0.1,72.3,0.9,69-7.4c0-0.1-0.1-0.2-0.1-0.3h0.3
							c0-14.5,13.9-11.7,13.9-11.7h27.8l9.7-0.1l724.7-4.7h5.6l90.9,9c0.6,22.5,1.9,46.6,5.1,74.3c7.9,8,68.1,1.4,120-9.9
							c391.8-40,133-13,738.8-12c614.6,14.3,782,15.5,830,25.8c48,10.3,73.5,9.1,86.8,2.8c10-4.6,15.6-9.6,18.2-34.6h0.1
							c0,0,37.6-5.4,133-10.2h0.7l687.7,1.4c0,0,24.2,30.5,30.9,36c18.8,15.9,6.3,28.4,11.8,33.9c4.8,4.7,70,29.9,81.5,36.3
							c0.8,0.7,1.6,1.3,2.5,1.8c127.9-5.3,287.3-28.5,350.5-36C4663.4,1360.5,4723,1328.2,4699.2,1306z M1519.5,460h-0.8
							c-0.1,0-12.1,0.2-31.9,0.2c-49.6,0-145.8-1.4-232.9-10.5c-47.9-5-86.5-11.7-114.8-19.9c-41.5-12-47.2-23.3-47.7-24.6
							c-0.9-2.3-1.6-5.5,1.1-11.2c3.8-8.2,14.7-22.1,44.4-41.7c20.9-13.7,48.1-28.2,80.7-42.8c56.3-25.4,109.7-42.8,110.2-42.9
							l0.3-0.1l0.3-0.1c0.6-0.2,60.1-21.6,141.7-46.3c48.6-14.7,111.7-32.5,176-47.2l99.3,290.2L1519.5,460z M2084.4,467.8
							l-274.1-3.8l-101.4-304.4c14.2-2.7,28.2-5.1,41.9-7.2c184.3-28.4,448.6-37.2,451.3-37.3c0.3,0,26.1-0.8,62.2-0.8
							c29.1,0,69.6,0.6,108.9,2.9l132.1,350.6H2084.4z M2684,346.9c-15.3,4-29.3,11.8-40.8,22.6c-2.5,2.4-5,4.8-7.3,7.4
							c-17.9,20-28,45.4-27.2,65.9c0,0-3.1,11.9,7,24.9v0.1h-84.6l-129-348.4c67.4,6.2,78.8,12,189.8,129.6
							C2629.2,288.4,2668.2,326.8,2684,346.9z M4620.7,1086.8h-114c-17.1,0-39.7-25.4-40.7-52.3c-1-27.3,4.4-31.3,22.8-31.3
							c34.9,0,129.6,0.7,158.7,0.7c29.9,0,33-3.7,36.1,5.7c3.1,9.4,1.6,59.5-7.3,68.9C4667.4,1087.9,4620.7,1086.8,4620.7,1086.8z"
							/>
						<path class="st1" d="M4248.6,1407.1l-0.7-0.4c-0.9-0.5-1.8-1.1-2.8-1.9c-5.1-2.8-19.9-8.9-35.5-15.5
							c-26.9-11.3-43.5-18.3-46.4-21.2c-3-3-2.6-6.9-2.1-10.7c0.7-6.1,1.5-13.8-9.5-23c-6.2-5.1-25.9-29.6-30.4-35.3l-686.9-1.4
							c-81.6,4.1-121.1,8.7-130.5,9.9c-2.7,23.1-8.4,29.4-19.7,34.6c-16.1,7.6-45.1,6.8-88.7-2.6c-37.5-8-152.4-10.6-493.6-18.1
							c-95.9-2.1-204.6-4.5-335.8-7.6c-243.2-0.4-347.4-5-409.7-7.8c-92.7-4.1-94.5-4.2-328.6,19.7c-41.9,9.1-112.2,19.6-122.6,9
							l-0.7-0.7l-0.1-1c-2.7-23.2-4.3-46.2-5-71.9l-88.1-8.7h-5.5l-724.7,4.7l-9.7,0.1h-28.1l-0.3-0.1c0,0-4.8-0.9-7.7,1.5
							c-1.7,1.4-2.6,3.8-2.6,7.2v3H632c-0.1,0.2-0.2,0.3-0.3,0.5c-1.5,2.2-5.4,7.9-71,7.2l-0.3,0c-66.4-1.1-260.5-31.5-376.5-49.7
							c-43.4-6.8-77.6-12.2-88.7-13.4l-0.6-0.1l-0.5-0.3c-1.2-0.7-29.8-17.2-46.4-43.3C31,1143.8,5.9,888.4,4.8,877.5l0-0.3
							c0-1.1,0.1-26.2,8.6-42.6c8.7-16.6,47.4-36.2,55.4-40.1c6.3-28,67.9-94.2,85.3-106.9c3.5-18.6,35-34.5,58.2-46.1
							c4.5-2.3,8.7-4.4,12.1-6.2c37.4-20.4,72.8-39.6,80.6-67.7c3.9-14.2,0.6-29.8-10-47.8l-0.1-0.3c-0.3-0.7-32.8-72.2-52.5-104.3
							l-0.1-0.2c-12.1-23-14.6-40.5-7.5-53.3c8.5-15.4,30.4-24.1,68.9-27.3l0.2,0c38.6-0.1,76.6,7.3,112.7,21.9
							c29.1,11.8,56.4,27.9,81,48c1.3,0.7,9.1,4.9,15.5,4.5c23.4-2.6,47.3-5.4,70.5-8.1c48.4-5.7,98.5-11.5,148-15.9
							c40.4-6.2,68.3-19.4,97.8-33.3c9-4.3,18.4-8.7,28.1-12.9C988.9,282.1,1180,210,1333.1,159.5c1.3-0.4,121.1-36.4,139.6-44.3
							c7.8-3.4,11.9-11.5,16.3-20.2c5.3-10.5,10.8-21.4,23.5-24.3c232.7-52.8,478.1-66.8,643-69.2c216.4-3.2,384.3,21.7,405.2,31.2
							c2.5-0.2,9,0,16.6,5.6c7.3,5.3,9.6,11.6,9.6,12.9v1.9l-1.7,0.8c-0.5,0.2-1,0.4-1.4,0.6c-0.4,0.1-0.7,0.3-1.1,0.5
							c-0.4,0.2-0.9,0.4-1.3,0.6c-0.4,0.2-0.7,0.3-1.1,0.5c-0.3,0.1-0.5,0.2-0.7,0.3c-0.1,0.1-0.2,0.1-0.4,0.2l-0.2,0.1
							c-0.3,0.1-0.6,0.3-0.9,0.4c-0.4,0.2-0.8,0.4-1.2,0.6c-1,0.5-2,0.9-2.9,1.4c-1.7,0.9-3.1,1.6-4.5,2.5l-0.1,0.1
							c-0.6,0.3-1.2,0.7-1.8,1.1l-1.3,0.8c-0.6,0.4-1.2,0.8-1.7,1.1c-0.6,0.4-1.1,0.8-1.6,1.2c-0.5,0.4-1.1,0.8-1.6,1.2
							c-0.2,0.2-0.5,0.4-0.7,0.6c-0.3,0.3-0.6,0.5-0.9,0.7c-0.3,0.4-0.7,0.8-1.2,1.1c-0.3,0.3-0.7,0.5-0.8,0.8l-0.2,0.2l-1.2,1.2
							c-6.7,7.3-8.6,15.2-5.9,24l0.2,0.5c0.2,0.7,0.5,1.4,0.7,2l0.1,0.3c0.1,0.4,0.3,0.9,0.4,1.1l0.2,0.3l0.1,0.4
							c0.1,0.2,0.2,0.4,0.3,0.6l1.1,2.3c0.3,0.7,0.7,1.3,1.2,2.1l0.5,0.8c0,0.1,0.1,0.2,0.1,0.2c0.1,0.1,0.2,0.3,0.3,0.4l0.2,0.3
							l0.8,1.3c0.1,0.2,0.3,0.4,0.3,0.5l0.1,0.1l0.2,0.3c0.3,0.4,0.5,0.8,0.8,1.2l0.2,0.2c0.2,0.3,0.4,0.6,0.7,1
							c0.6,0.9,1.1,1.5,1.6,2.1c2.8,3.4,5.3,6.2,7.6,8.6l266.4,276.8c0.4,0.3,0.8,0.7,1,1.2c0.4,0.4,1.1,1.3,2,2.3
							c0.6,0.7,1.4,1.6,2.3,2.5l0.3,0.3c0.1,0.1,0.2,0.2,0.3,0.3c0.2,0.3,0.5,0.5,0.7,0.8c0.8,0.9,1.5,1.7,2.4,2.6l0.2,0.2l0.2,0.2
							c0.1,0.1,0.3,0.3,0.4,0.4c5.6,5.9,10.9,11.1,16.1,16l0.3,0.4c0.1,0.2,0.3,0.4,0.5,0.5l0.3,0.2c2,1.9,4.2,3.9,6.4,5.8
							c0.7,0.5,1.3,1,1.9,1.6c6.5,5.6,12.4,10.3,18.1,14.3l2.9,2c0.3,0.2,0.6,0.4,0.8,0.6c0.2,0.1,0.4,0.3,0.6,0.4
							c0.3,0.2,0.6,0.4,0.9,0.6c0.2,0.1,0.4,0.3,0.6,0.4l0.1,0.1c1.3,0.9,2.8,1.8,4.4,2.8c0.6,0.3,1.2,0.7,1.7,0.9
							c0.2,0.1,0.5,0.3,0.7,0.4c0.3,0.2,0.6,0.3,0.9,0.5c0.2,0.1,0.5,0.3,0.7,0.4c0.3,0.2,0.6,0.3,0.9,0.5c2.5,1.4,4.5,2.4,6.5,3.3
							c0.2,0.1,0.4,0.2,0.6,0.2c0.1,0,0.2,0.1,0.3,0.1l0.3,0.1l0.3,0.2c0.2,0.1,0.5,0.3,1,0.4l0.2,0.1c0.2,0.1,0.5,0.2,0.7,0.3
							c0.3,0.1,0.6,0.2,0.9,0.3c0.2,0.1,0.5,0.2,0.7,0.3c0.1,0,0.2,0.1,0.3,0.1h0l0.5,0.2c0.2,0.1,0.4,0.1,0.6,0.2
							c0.1,0,0.1,0.1,0.2,0.1c0.6,0.1,1.1,0.3,1.4,0.5c0.1,0.1,0.3,0.1,0.6,0.2l0,0l0.2,0l0.2,0.1l0.3,0.1l0.1,0.1
							c0.1,0,0.3,0.1,0.5,0.2l0.7,0.2c0.9,0.2,1.7,0.4,2.5,0.6c1.8,0.3,3.6,0.5,5.4,0.7l0.1,0c1.2,0.2,2.3,0.3,3.6,0.4
							c0.9,0,1.8,0.1,2.7,0.2c2.1,0.2,4.3,0.4,6.4,0.5l6.6,0.3c0.7,0,1.4,0,2.1,0.1c0.6,0,1.3,0,1.9,0l0.2,0
							c1.6,0.1,3.3,0.1,5.1,0.1c9.7,0.1,19.1-0.1,27.8-0.7l5.5-0.3c3.1-0.2,5.9-0.4,8.7-0.7c2.2-0.2,4.4-0.4,6.5-0.7
							c1.1-0.2,2.2-0.3,3.3-0.4c1.1-0.1,2.1-0.2,3.2-0.4l4.8-0.6c4.2-0.6,9.2-1.4,14.1-2.2c1.4-0.3,2.8-0.5,4.2-0.8
							c1.6-0.3,3.3-0.6,4.9-0.9l0.2,0c2.9-0.6,5.8-1.2,8.7-1.8c4.7-1,9.7-2.2,15-3.5l4.3-1.2c0.8-0.2,1.5-0.4,2.2-0.6l4.2-1.2
							c0.7-0.2,1.3-0.4,2-0.6c0.7-0.2,1.4-0.4,2.1-0.6c1.4-0.4,2.7-0.8,3.9-1.2c0.7-0.2,1.5-0.5,2.2-0.8c0.5-0.2,1-0.4,1.5-0.5
							l1.6-0.5c0.7-0.3,1.3-0.5,1.9-0.7c0.5-0.2,1-0.4,1.4-0.5c0.4-0.2,0.9-0.3,1.4-0.5c3.8-1.4,7.6-3.1,11.3-4.8
							c0.7-0.3,1.8-0.9,2.3-1.2l0.4-0.3l4.3-2.2l1.2,1.2l6.6,3.7l0.4-0.4l1.9,0.8c0.8,0.3,1.6,0.7,2.5,1.1c0.6,0.2,1.1,0.5,1.7,0.8
							c2.9-3.3,8.1-7.7,15.3-7.3c0.1-0.1,0.2-0.2,0.2-0.3l-13.3,1l-0.9-0.7c-11.5-8.4-30-11.7-43.4-13l-0.8-0.1l-24.8-18.5l3.1-5.1
							c6.6,3.3,27.5,3.5,49.7,3.8c45.5,0.5,78.1,2,83,15.6c2.3,6.3-1.8,13.8-12.3,22.8l-1.4,1.2l-1.7-0.7c-0.2-0.1-0.4-0.1-0.5-0.2
							c-0.3,1.8,0.5,6.2,1,9.6c0.2,1.5,0.5,2.9,0.7,4.5c3.2,2,6.3,4.2,9,6.8c7.5,0.9,28.3,4.6,59,10c134.6,23.5,449.7,78.5,711,96.9
							l0.2,0c101.6,15,300.6,56.4,392.3,79.9l0.4,0.1l0.3,0.2c27.3,14.6,86.4,72.4,133.9,118.9c27.5,27,51.3,50.2,62.3,58.6
							c42.7,34.9,96.2,82.2,102,87.8c15.6,15.3,39.7,43.8,39.9,44.1l0.2,0.2l0.1,0.2c0.4,0.8,11,19.5,12.1,29.4
							c2.9,25.2-0.7,96.5-2.3,127c-0.2,3-0.3,5.6-0.4,7.6l0,0.2c-7.2,60.8-16.9,154.4-13.8,163c3.7,10.6,9,12.6,14,14.6l1.4,0.5
							l0.4,0.4c7.2,6.8,6.9,13.7,5.4,18.4c-6.8,20.8-54.6,42.7-106.5,48.9c-12.2,1.4-28,3.5-46.4,5.9c-75.2,9.7-201,25.9-304.3,30.2
							L4248.6,1407.1z M3434.1,1291.7h0.8l689.2,1.4l0.9,1.1c6.7,8.4,25.2,31.2,30.5,35.5c13.4,11.3,12.3,21.5,11.6,28.3
							c-0.3,3.1-0.5,5,0.4,5.8c2.5,2.3,26.8,12.5,44.5,19.9c16,6.7,31.2,13.1,36.3,15.9l0.3,0.2l0.2,0.2c0.5,0.4,0.9,0.7,1.3,1
							c102.9-4.3,228-20.4,302.9-30.1c18.4-2.4,34.2-4.4,46.5-5.9c48.2-5.8,95.6-26.7,101.5-44.8c1.4-4.3,0.3-8.1-3.4-11.7l-0.3-0.1
							c-5.4-2.1-12.9-5-17.5-18.2c-4.5-12.8,11.6-149.5,13.5-165.6c0.1-2,0.2-4.5,0.4-7.5c1.4-27.7,5.2-101.3,2.3-126
							c-0.8-7.1-8.2-21.5-11.2-26.8c-2.2-2.6-24.6-29-39.3-43.5c-5.7-5.6-58.9-52.7-101.5-87.4c-11.2-8.6-35.1-32-62.8-59.1
							c-47-46-105.5-103.3-132.2-117.7c-91.6-23.4-289.9-64.7-391.2-79.6c-261.5-18.4-576.8-73.5-711.5-97
							c-32.1-5.6-53.4-9.3-59.6-10l-1-0.1l-0.7-0.7c-3-2.8-6.4-5.3-10-7.4l-1.3-0.7l-0.2-1.5c-0.3-2-0.6-3.9-0.9-5.8
							c-1.2-7.5-2.1-13,1.1-15.5c1.3-1,2.8-1.3,4.7-0.9c7.3-6.5,10.6-11.8,9.4-15.1c-3.9-10.7-48.1-11.3-77.4-11.6
							c-14.7-0.2-28.2-0.3-38.2-1.4l12.5,9.3c13.8,1.4,32.3,4.9,44.6,13.4l51-3.7l-27.7,8c-5.7,1.7-7.6,5.5-7.7,5.7l-1,2.1l-2.3-0.3
							c-6.5-1.1-11.2,4.3-13,6.6l-1.4,1.9l-2.2-0.9c-0.9-0.4-1.7-0.7-2.6-1.1v1.1l-4.6-2.3l-7.5-4.1l-1.2,0.7
							c-0.2,0.1-1.8,1-2.8,1.4c-3.8,1.8-7.8,3.5-11.6,5c-0.5,0.2-1,0.4-1.5,0.6c-0.4,0.2-0.9,0.3-1.4,0.5l-0.2,0.1
							c-0.5,0.2-1,0.3-1.4,0.5l-0.4,0.2l-1.8,0.6c-0.5,0.2-0.9,0.3-1.4,0.5c-0.8,0.3-1.6,0.6-2.5,0.8c-1.3,0.4-2.6,0.8-4.1,1.2
							c-0.7,0.2-1.4,0.4-2,0.6c-0.7,0.2-1.4,0.4-2.1,0.6l-4.2,1.2c-0.7,0.2-1.5,0.4-2.3,0.6l-4.3,1.2c-5.4,1.3-10.5,2.5-15.3,3.5
							c-2.9,0.6-5.8,1.2-8.7,1.8l-0.2,0c-1.6,0.3-3.3,0.6-5,0.9c-1.4,0.3-2.8,0.5-4.2,0.8c-5,0.9-10,1.6-14.3,2.2l-4.9,0.6
							c-1.1,0.1-2.2,0.3-3.3,0.4c-1.1,0.1-2.1,0.2-3.2,0.4c-2.3,0.3-4.5,0.5-6.7,0.7c-2.8,0.3-5.7,0.5-8.9,0.7l-5.6,0.3
							c-8.9,0.6-18.3,0.8-28.1,0.7c-1.8,0-3.6,0-5.4-0.1c-0.7,0-1.4,0-2.1-0.1c-0.6,0-1.3,0-1.9,0l-0.1,0l-6.7-0.3
							c-2.3-0.1-4.5-0.3-6.7-0.5l-0.1,0c-0.7-0.1-1.5-0.2-2.1-0.2l-0.2,0c-1.3-0.1-2.7-0.2-4.1-0.4c-1.9-0.2-3.7-0.4-5.7-0.7
							c-1-0.2-2-0.4-3-0.7l-0.7-0.2c-0.4-0.1-0.8-0.2-1.3-0.4c-0.2,0-0.4-0.1-0.6-0.2c-0.4-0.1-0.8-0.2-1.2-0.4l-0.3-0.1
							c-0.4-0.1-0.7-0.2-0.9-0.3h-0.1l-0.5-0.2c-0.2-0.1-0.5-0.2-0.7-0.3c-0.3-0.1-0.6-0.2-0.9-0.3c-0.2-0.1-0.5-0.2-0.7-0.3
							c-0.3-0.1-0.5-0.2-0.8-0.3c-0.5-0.2-1.2-0.4-1.9-0.8c-0.1-0.1-0.3-0.1-0.4-0.2c-0.1,0-0.2-0.1-0.3-0.1l-0.2-0.1
							c-2.2-0.9-4.5-2.1-7.3-3.7c-0.3-0.2-0.5-0.3-0.8-0.4c-0.3-0.2-0.6-0.3-0.9-0.5c-0.2-0.1-0.5-0.3-0.7-0.4
							c-0.3-0.2-0.6-0.3-0.9-0.5c-0.5-0.3-0.9-0.5-1.4-0.8l-0.2-0.1c-1.7-1-3.3-2-4.7-2.9c-0.3-0.2-0.6-0.4-0.9-0.6
							c-0.2-0.1-0.4-0.3-0.6-0.4c-0.3-0.2-0.6-0.4-0.9-0.6c-0.2-0.1-0.4-0.3-0.6-0.4l-0.2-0.1l-3-2.1c-5.9-4.1-11.9-8.9-18.6-14.7
							l-0.2-0.2c-0.4-0.4-0.8-0.7-1.2-1l-0.3-0.2c-2.3-2-4.5-4-6.6-6c-0.5-0.4-1-0.9-1.4-1.3c-5.2-4.9-10.5-10.2-16.1-16.1
							c-0.3-0.3-0.6-0.6-0.9-1c-0.9-0.9-1.7-1.9-2.5-2.7c-0.3-0.3-0.6-0.6-0.8-0.9l-0.3-0.4c-0.1-0.1-0.2-0.2-0.3-0.3
							c-0.8-0.9-1.5-1.6-2.1-2.3c-1.1-1.2-1.8-2-2.3-2.6c-0.1-0.1-0.3-0.3-0.5-0.6l-266.5-276.9c-2.4-2.5-5-5.4-7.8-8.9
							c-0.5-0.6-1.2-1.4-1.8-2.4c-0.3-0.4-0.6-0.8-0.8-1.1c-0.4-0.5-0.7-1.1-1-1.5c-0.1-0.2-0.3-0.4-0.3-0.5l-0.1-0.1l-1-1.7
							c-0.2-0.2-0.3-0.4-0.4-0.7c-0.1-0.1-0.1-0.2-0.2-0.3c-0.3-0.3-0.5-0.7-0.7-1.1c-0.5-0.7-0.8-1.4-1.2-2.1l-1.4-2.9
							c-0.1-0.2-0.2-0.3-0.2-0.5c-0.4-0.7-0.6-1.3-0.8-1.9c-0.4-0.8-0.6-1.7-0.9-2.4l-0.2-0.5c-3.4-11-0.9-21.1,7.2-30l1.2-1.2
							c0.6-0.7,1.2-1.2,1.8-1.6l0.2-0.2l0.2-0.3c0.5-0.5,1-0.9,1.5-1.3c0.2-0.2,0.5-0.4,0.7-0.6l0.2-0.2c0.5-0.4,1.1-0.8,1.6-1.2
							c0.6-0.4,1.1-0.9,1.7-1.3c0.6-0.5,1.3-0.9,1.9-1.3l1.4-0.9c0.6-0.4,1.3-0.8,2.1-1.3c1.5-0.9,3-1.7,4.8-2.7
							c1.1-0.5,2.1-1.1,3.3-1.6c0.4-0.2,0.7-0.3,1-0.5c0.4-0.2,0.7-0.4,1.1-0.5c0.2-0.1,0.4-0.2,0.6-0.3c0.1-0.1,0.2-0.1,0.4-0.2
							c0.4-0.2,0.9-0.4,1.3-0.6c0.3-0.1,0.6-0.3,0.9-0.4c-1-1.7-2.9-4.2-6.2-6.6c-7.4-5.3-12.8-4.4-13.1-4.4l-1.1,0.2l-1-0.5
							c-12.6-7.1-172.9-34.3-403.1-30.9c-164.6,2.4-409.5,16.3-641.8,69c-9.9,2.2-14.6,11.4-19.5,21.1c-4.7,9.2-9.5,18.8-19.3,23
							c-18.7,8.1-135.2,43-140.1,44.5c-152.8,50.5-343.7,122.5-475,179.1c-9.7,4.2-19,8.6-28,12.8c-29.9,14.1-58.2,27.5-99.6,33.8
							l-0.2,0c-49.5,4.4-99.5,10.2-148,15.9c-23.1,2.7-47.1,5.5-70.6,8.1l-0.1,0c-8.9,0.6-18.8-5.2-19.2-5.4l-0.4-0.3
							c-31.5-25.7-98-68.7-189.4-68.7c-0.2,0-0.4,0-0.6,0c-35.8,3-56.8,10.9-64.1,24.2c-6,10.9-3.5,26.5,7.5,47.5
							c19.5,31.7,51.1,101,52.8,104.7c11.5,19.5,14.9,36.6,10.5,52.4c-8.4,30.6-44.9,50.4-83.5,71.4c-3.4,1.9-7.7,4-12.2,6.3
							c-21.2,10.7-53.3,26.8-55.1,42.8l-0.2,1.4l-1.2,0.8c-15.1,10-80.1,79.5-84.1,105.2l-0.2,1.6l-1.4,0.7
							c-0.5,0.2-45.5,21.8-54,38.1c-7.5,14.5-7.9,37.7-8,39.7c8.9,91.6,29.2,269.7,41.8,289.6c14.6,23,39.9,38.7,43.8,41
							c11.8,1.4,44,6.4,88.3,13.4c115.8,18.2,309.7,48.6,375.6,49.6l0.3,0c45.3,0.5,62.2-2.3,65.6-4.3c0-0.1,0-0.3,0-0.4v-3h0.5
							c0.5-3.8,2.1-6.8,4.6-8.9c4.6-3.8,10.8-3.1,12.4-2.8h27.5l9.7-0.1l724.7-4.7l5.9,0l93.5,9.3l0.1,2.6
							c0.7,26.2,2.3,49.3,4.9,72.7c2.2,1.2,10.7,3.7,40.4,0.9c22.4-2,50.1-6.5,76.1-12.1l0.3-0.1c234.7-24,236.5-23.9,329.6-19.8
							c62.2,2.8,166.3,7.4,409.5,7.8c131.4,3.1,240,5.5,335.9,7.6c341.6,7.6,456.7,10.1,494.7,18.3c41.7,8.9,70.2,10,84.9,3
							c8.6-3.9,13.9-7.6,16.5-32.2l0.3-2.7h2.6C3304.2,1301.5,3343.3,1296.3,3434.1,1291.7L3434.1,1291.7z M4626,1089.9
							c-2.6,0-4.5,0-5.3-0.1h-114c-18.4,0-42.6-26-43.7-55.2c-0.6-15.9,1-24,5.7-28.9c4.4-4.6,11-5.5,20.1-5.5
							c18.3,0,52.6,0.2,85.9,0.4c30.3,0.2,59,0.3,72.8,0.3c8.1,0,14-0.3,18.9-0.5c12.8-0.6,17.1-0.8,20.1,8.2
							c3.2,9.8,2.1,61.3-8,71.9C4670.5,1089,4639.1,1089.9,4626,1089.9z M4488.8,1006.2c-8.8,0-13.2,1-15.8,3.7
							c-3.3,3.4-4.5,10.8-4,24.5c0.9,25,22.4,49.4,37.7,49.4l114.1,0c17.5,0.4,47.5-1.2,53.4-7.4c7.6-8,9.6-56.8,6.6-65.9
							c-1.5-4.6-1.5-4.7-14.1-4.1c-4.6,0.2-10.9,0.5-19.1,0.5c-13.9,0-42.5-0.2-72.9-0.3C4541.4,1006.4,4507,1006.2,4488.8,1006.2z
							 M2615.7,470.8H2529l-0.7-2L2397.6,116l4.7,0.4c35.4,3.3,54.9,6.6,80,23.5c25.2,17,54.9,46.7,111.8,107
							c12.2,12.9,24.5,25.6,36.3,37.8c24.3,25,45.2,46.7,55.9,60.3l2.8,3.6l-4.4,1.2c-14.7,3.8-28.3,11.4-39.5,21.9
							c-2.4,2.3-4.9,4.7-7.1,7.2c-17.1,19.1-27.2,43.6-26.4,63.8l0,0.4l-0.1,0.4c-0.1,0.4-2.5,10.7,6.5,22.3l0.6,0.8v4L2615.7,470.8
							z M2533.2,464.8h76.9c-6.2-10.8-4.9-20.1-4.4-22.3c-0.7-21.7,10-47.5,28-67.6c2.4-2.7,5-5.2,7.5-7.6
							c10.8-10.1,23.7-17.7,37.7-22.1c-11.2-13.5-30.6-33.5-52.7-56.3c-11.9-12.3-24.1-24.9-36.4-37.9
							c-108.7-115.1-121.7-122.3-183.2-128.2L2533.2,464.8z M2509.6,470.8l-425.3,0l-276.2-3.8l-0.7-2L1705,157.3l3.4-0.6
							c14-2.7,28.2-5.1,42-7.2c176.3-27.2,423.7-36.4,451.3-37.3l1,0c8.6-0.2,31.8-0.8,61.7-0.8c27.1,0,68,0.5,109.1,2.9l1.9,0.1
							l0.7,1.8L2509.6,470.8z M2084.4,464.8H2501l-129.9-344.7c-40.2-2.3-80.2-2.8-106.8-2.8c-29.8,0-53,0.5-61.5,0.8
							c-0.3,0-0.5,0-0.6,0v0l-0.4,0c-27.6,1-274.6,10.1-450.6,37.3c-12.7,1.9-25.6,4.1-38.4,6.5l99.6,299.1L2084.4,464.8z
							 M1749.6,466.2l-230.9-3.2l-0.1,0c-3.1,0-14.6,0.2-31.8,0.2c-49.5,0-145.6-1.4-233.2-10.5c-48-5-86.8-11.7-115.3-20
							c-42.3-12.2-48.8-24.1-49.7-26.4c-1.1-2.8-2-6.9,1.2-13.6c3.9-8.5,15-22.8,45.5-42.9c21.4-14,48.7-28.5,81.1-43
							c54.8-24.7,105.8-41.5,110.5-43l0,0l1.1-0.4c15-5.3,69.5-24.4,141.2-46.1c43.1-13,108.6-31.8,176.2-47.3l2.6-0.6L1749.6,466.2
							z M1518.7,457l0.8,0l221.6,3l-97-283.6c-66.5,15.3-130.8,33.7-173.2,46.5c-71.6,21.7-126,40.7-141,46
							c-0.4,0.1-0.6,0.2-0.6,0.2l-0.8,0.3c-2.3,0.7-54,17.6-109.7,42.7c-32.1,14.4-59.1,28.7-80.3,42.6
							c-29.3,19.3-39.7,32.7-43.3,40.5c-2.5,5.2-1.5,7.6-1,8.8c0,0.1,4.9,11,45.7,22.8c28.2,8.2,66.6,14.8,114.3,19.8
							c87.3,9.1,183.2,10.5,232.6,10.5c17.1,0,28.6-0.2,31.7-0.2L1518.7,457z"/>
					</g>
					<g id="Paint">
						<g>
							<path id="Mirror_1_" class="st0" d="M2846.4,489.8c-0.6,6.5-1.6,12.9-2.2,21.1c-1.6,19.6-38.4,33.3-72,31.3
								c-33.6-2-50.1-7.8-57.1-21.9c-7-14.1,30.5-30.5,30.5-30.5h-76.9c-15.5-1.5-29.7-4.3-38.1-9.4c-5.6-3.3-10.7-7.6-14.8-12.6
								c-10.2-13-7.1-25-7.1-25c-0.8-20.5,9.3-45.9,27.2-65.9c2.3-2.6,4.8-5,7.3-7.4c11.5-10.8,25.5-18.6,40.8-22.6
								c0.2,0,0.3-0.1,0.5-0.1c5.9-1.5,12-2.4,18.1-2.6c10.5-0.4,21.8,2.3,33.3,7.1c0.1,0,0.2,0.1,0.3,0.1
								c50.5,21.3,103.9,83.3,108.1,104.7c1.1,5.4,1.9,10.9,2.3,16.4v0.1C2847,478.4,2846.9,484.1,2846.4,489.8z"/>
							<path class="st1" d="M2778.8,545.4c-2.3,0-4.6-0.1-6.8-0.2c-35.5-2.1-52.2-8.7-59.6-23.6c-1.4-2.9-1.6-6-0.4-9.3
								c2.1-5.6,8.2-11.6,18.3-17.8c1-0.6,1.9-1.2,2.9-1.7l-64.8,0c-18.6-1.8-31.4-5-39.4-9.8c-5.9-3.5-11.3-8.1-15.6-13.3
								c-10-12.7-8.3-24.6-7.8-27.2c-0.7-21.7,10-47.5,28-67.6c2.4-2.7,5-5.2,7.5-7.6c11.9-11.2,26.5-19.2,42.1-23.3l0.4-0.1
								c0.1,0,0.2,0,0.3-0.1c6.2-1.5,12.4-2.4,18.5-2.6c10.2-0.4,21.8,2,34.2,7.2h0.1l0.6,0.2c49,20.7,105.1,82.6,109.9,106.9
								c1.2,5.7,2,11.4,2.3,16.8l0,0.2c0.4,5.7,0.3,11.5-0.2,17.6l0,0c-0.2,2.6-0.5,5.2-0.9,8c-0.5,4-1,8.2-1.3,13.1
								c-0.9,10.4-10,19.8-25.8,26.3C2808.9,542.6,2793.7,545.4,2778.8,545.4z M2668.8,486.8h91.1l-13.1,5.7
								c-7,3.1-25.9,13-29.1,21.9c-0.6,1.7-0.6,3.1,0.1,4.6c6.3,12.6,21.6,18.3,54.6,20.2c34,2,67.5-11.8,68.8-28.5
								c0.4-4.9,0.9-9.2,1.3-13.3c0.3-2.7,0.6-5.3,0.9-7.8c0.5-5.8,0.6-11.3,0.2-16.7l0-0.2c-0.4-5.1-1.1-10.5-2.2-15.9
								c-4-20.1-56.6-81.4-106-102.4h-0.1l-0.6-0.2c-11.8-4.9-22.6-7.2-32-6.9c-5.8,0.2-11.7,1-17.5,2.5l-0.4,0.1
								c-0.1,0-0.2,0-0.3,0.1c-14.6,3.9-28.2,11.4-39.3,21.8c-2.4,2.3-4.9,4.7-7.1,7.2c-17.1,19.1-27.2,43.6-26.4,63.8l0,0.4
								l-0.1,0.4c-0.1,0.4-2.5,10.8,6.6,22.4c3.8,4.6,8.6,8.7,14,11.9C2639.2,482.1,2651.5,485.1,2668.8,486.8z"/>
						</g>
						<g>
							<path id="Body_2_1_" class="st0" d="M4699.2,1306c-5.3-2.1-12.2-4.2-16.6-16.7s13.7-164.4,13.7-164.4
								c1-20.5,8.9-106.5,5.7-134.1c-1-9.4-0.8-9.1-14.7-30.2c-13.9-21.1-46.5-49-51.8-52.5c-13.1-9-78.3-67.9-89.6-77
								c-10.3-7.9-32.4-30.1-58.8-56.9c-22.9-23.1-38.9-39.7-63.2-63.4c-24.3-23.7-47-38.5-63.1-50.2
								c-286.4-83.6-437.1-89.4-766.2-127.4c-103.6-12-398.6-65.3-407.6-66.3c-14.5-1.6-35.2-8.4-51.9-14.9c-3.1-1.2-6-2.4-8.7-3.5
								c-2.7-1.1-1,1.3-1,1.3c-21.6,21.7-134.9,43-208.1,33.3c-22.9-4.8-49.5-27.5-67.9-45.7l-0.1-0.1
								c-13.4-13.3-22.5-24.3-22.5-24.3L2552,127c-22.7-23.8-48.7-77.1,8.1-91.1c-13.9-8.4-180.6-34.8-404.4-31.5
								c-192.2,2.8-426.5,20.1-642.4,69.1c-21.3,4.8-20.5,36.2-39.3,44.3s-139.8,44.4-139.8,44.4
								c-143.4,47.4-336.6,119.4-475.3,179.2c-21.9,9.4-41.2,19.7-62.7,28.4c-9.8,4-19.8,7.5-29.9,10.5c-20,10.2-29,43.7-30.6,50.6
								C531.2,509.1,317.7,593.1,235,633c-3,1.6-6,3.3-9,4.9c-4.4,2.4-10.1,5.2-16.3,8.4c-22,11.1-50.7,26.5-52.6,43
								c-2.6,1.7-6.6,5.2-11.6,9.8c-24.3,22.9-70.3,75.2-73.8,97.4c0,0-46.3,22-55.4,39.4C8,851.8,8,877.1,8,877.1
								s25.9,265.3,42.3,291.1c16.4,25.8,45.4,42.3,45.4,42.3c40.5,4.5,373.6,61.6,464.9,63.1c8.9,0.1,72.3,0.9,69-7.4
								c-2.1-5.7-19.7-1.4-30.7-15.9c-7.5-9.9-3.5-86.1-3.5-86.1c4.3-145.8,51.9-258.3,127.1-335.7
								c80.7-83.1,193.4-125.8,318.6-125.8c179,0,361.6,112.1,441.4,342.8c10.4,44.4,15,79.7,17.2,111.6
								c9.8-0.2,125.8-3.2,241.1-4.6c120.5-1.5,280.7,7.6,280.7,7.6l291.4,8.3l371.5,7.8c0,0,329.7,7.1,394.7,9.7
								c21.7,0.9,38.9,1.7,53.1,2.6c28.4,1.8,45,3.6,61.7,5.7c25,3.2,60.5,11.5,79.3,11.5c15.8,0,30.1-5.7,34.3-7.5
								c39.5-352.5,321.6-592.8,708-412.7c270.4,131,275.5,395.8,229.2,586.4c-6.4,3.2-6.8,23,2.8,30.8c0.6,0.5,1.2,0.9,1.9,1.3
								c127.9-5.3,287.3-28.5,350.5-36C4663.4,1360.5,4723,1328.2,4699.2,1306z M3136.1,1141.7l-314.4-9.6c0,0-442.4-9.9-565-12.5
								c-122.6-2.6-237.9,1.6-285.9-27.1S1879,937,1855.5,883.3s-71-200.3-71-200.3s-29.2-87.6-29.2-130.4
								c0.2-23.1,5.1-45.9,14.5-67l-250.6-3.5c0,0-12.1,0.2-32.3,0.2c-98.5,0-390.1-5.4-415.8-68.7c-31.1-76.8,250-167.9,250-167.9
								s238.7-86.1,426.5-115s453.9-37.6,453.9-37.6s26-0.8,62.9-0.8c75.8,0,197.6,3.5,236,25.1c62,34.5,62.2,37.5,225.6,223.7
								l9.9,10.2c0.1,0,0.2,0.1,0.3,0.1c50.5,21.3,103.9,83.3,108.1,104.7c1.1,5.4,1.9,10.9,2.3,16.4v0.1l19.3,17.2
								c0,0,4.7,6.3,25.8,14.9c21.1,8.6,51,7.8,51,7.8s146.2,2.3,186,52.8C3198.1,653.6,3152.1,979.4,3136.1,1141.7z M4620.7,1086.8
								h-114c-17.1,0-39.7-25.4-40.7-52.3c-1-27.3,4.4-31.3,22.8-31.3c34.9,0,129.6,0.7,158.7,0.7c29.9,0,33-3.7,36.1,5.7
								c3.1,9.4,1.6,59.5-7.3,68.9C4667.4,1087.9,4620.7,1086.8,4620.7,1086.8z"/>
							<path class="st1" d="M4248.7,1407l-0.8-0.4c-0.9-0.5-1.6-1-2.3-1.6c-7-5.7-9.2-16.2-8.3-24.2c0.6-5,2.2-8.8,4.8-10.8
								c19.3-79.8,35.4-198.4,3.9-312.9c-33-119.9-111-210.4-231.8-268.9c-86.5-40.3-170.8-60.9-250.5-61c-0.3,0-0.6,0-0.9,0
								c-74.1,0-143.1,17.6-204.8,52.3c-33.8,19-65.3,43.1-93.5,71.6c-27.8,28.1-52.6,60.6-73.7,96.6
								c-42.2,71.8-69.9,158.6-80.3,250.9l-0.2,1.7l-1.6,0.7c-5.4,2.3-19.8,7.7-35.5,7.7c-12,0-30.5-3.3-48.5-6.5
								c-10.7-1.9-21.8-3.9-31.2-5.1c-17.6-2.2-34.1-3.9-61.5-5.7c-12.7-0.8-28.6-1.6-53-2.6c-64.2-2.6-391.3-9.6-394.6-9.7
								l-371.5-7.8l-291.4-8.3c-1.7-0.1-161.6-9.1-280.6-7.6c-99.2,1.2-198.5,3.6-231.1,4.4c-5.2,0.1-8.6,0.2-10,0.2l-2.9,0.1
								l-0.2-2.9c-2.5-36.7-8-72-17.1-111c-19.2-55.6-45.1-106-77-150c-30.1-41.6-65.6-77.4-105.4-106.4
								c-75.7-55.2-164.2-84.3-256.1-84.3c-62.5,0-121.3,10.6-174.9,31.5c-54.4,21.3-102,52.7-141.6,93.4
								c-38.2,39.3-68.3,86.8-89.5,141.2c-22.3,57.2-34.7,122-36.8,192.5c-1.5,29.1-2.1,77.6,2.9,84.2c6,7.9,14,9.6,20.5,10.9
								c4.9,1,9.2,1.9,10.6,5.8c0.5,1.4,0.4,3-0.5,4.3c-1.5,2.2-5.4,7.9-71.1,7.2l-0.3,0c-66.4-1.1-260.5-31.5-376.5-49.7
								c-43.4-6.8-77.6-12.2-88.7-13.4l-0.6-0.1l-0.5-0.3c-1.2-0.7-29.8-17.2-46.4-43.3C31.2,1143.7,6.1,888.3,5,877.4l0-0.3
								c0-1.1,0.1-26.2,8.6-42.6c8.7-16.6,47.4-36.2,55.4-40.1c5.5-24.3,51.5-75.9,74.4-97.5c5.1-4.7,8.5-7.6,10.9-9.3
								c3.2-17,29.5-31.6,54-43.9c2.2-1.1,4.4-2.2,6.5-3.3c3.6-1.8,7-3.5,9.8-5.1c1.5-0.8,3-1.6,4.5-2.4c1.5-0.8,3-1.7,4.5-2.5
								l0.1-0.1c87.7-42.3,319.7-132.9,499.5-201.6c2.4-9.5,11.6-40.7,31.8-51l0.2-0.1l0.3-0.1c10.1-3,20-6.5,29.6-10.4
								c11.8-4.8,22.8-10,34.4-15.4c9.1-4.3,18.5-8.7,28.3-12.9c131.4-56.7,322.5-128.7,475.5-179.3c1.3-0.4,121.1-36.4,139.6-44.3
								c7.8-3.4,11.9-11.5,16.3-20.2c5.3-10.5,10.8-21.4,23.5-24.3c232.7-52.8,478.1-66.8,643-69.2c222.5-3.3,390.7,22.7,406,31.9
								l6.2,3.7l-7,1.7c-17,4.2-27.3,12.2-30.7,23.9c-5.7,19.5,8.5,45.9,24,62.2L2829,411l0.1,0.1c0.1,0.1,9.2,11.1,22.3,24.1
								l0.1,0.1c18.1,17.9,44.3,40.2,66.3,44.9c33.5,4.4,78.1,2.6,122.4-4.9c38.9-6.6,70.5-16.8,81.7-26.3c-0.1-1.2,0.4-2.1,0.7-2.5
								c0.8-1,2.2-1.9,4.9-0.8l1.5,0.6c2.3,0.9,4.7,1.9,7.2,2.9c12.2,4.7,34.9,12.9,51.1,14.7c2.2,0.2,19.3,3.2,47.6,8.2
								c91.2,15.9,280.8,49,360.1,58.1c55.4,6.4,104.8,11.8,152.6,17c234.3,25.5,375.7,40.9,614.1,110.5l0.5,0.1l0.4,0.3
								c2.7,2,5.6,4,8.7,6.2c15.3,10.9,34.4,24.4,54.7,44.3c17.6,17.2,31.2,31,45.6,45.6c5.6,5.6,11.3,11.5,17.6,17.9
								c25.9,26.3,48.3,48.8,58.5,56.6c4.3,3.4,15.8,13.6,29.1,25.3c23.3,20.5,52.2,46,60.3,51.6c5.2,3.4,38.2,31.5,52.6,53.3
								c13.8,21,14.1,21.4,15.1,31.1l0,0.4c2.5,21.3-1.6,77.3-4.1,110.8c-0.8,10.6-1.4,19-1.6,23.8l0,0.2
								c-7.2,60.8-16.9,154.4-13.8,163c3.7,10.6,9,12.6,14,14.6l1.4,0.5l0.4,0.4c7.2,6.8,6.9,13.7,5.4,18.4
								c-6.8,20.8-54.5,42.7-106.4,48.8c-12.2,1.4-28,3.5-46.4,5.9c-75.2,9.7-201,25.9-304.3,30.2L4248.7,1407z M3762.8,721.2
								c0.3,0,0.6,0,0.9,0c80.5,0.1,165.7,20.9,253.1,61.6c122.4,59.3,201.5,151.1,235,272.8c32,116.2,15.4,236.6-4.1,317.1
								l-0.3,1.4l-1.2,0.6c-1.1,0.5-2.4,2.9-2.8,6.9c-0.7,6.1,1,14.7,6.2,18.9c0.3,0.2,0.5,0.4,0.8,0.6
								c102.9-4.3,228-20.4,302.9-30.1c18.4-2.4,34.2-4.4,46.5-5.9c48.1-5.7,95.5-26.6,101.4-44.7c1.4-4.3,0.3-8.1-3.4-11.7
								l-0.3-0.1c-5.4-2.1-12.9-5-17.5-18.2c-4.5-12.8,11.6-149.6,13.5-165.7c0.2-4.9,0.9-13.2,1.6-23.8
								c2.4-33.2,6.5-88.9,4.1-109.7l0-0.4c-0.9-8.3-0.9-8.3-14.2-28.5c-13.7-20.8-46.1-48.4-50.9-51.6c-8.5-5.8-37.6-31.5-61-52
								c-13.3-11.7-24.8-21.8-28.9-25.1c-10.5-8-33-30.6-59.1-57.1c-6.3-6.3-12.1-12.2-17.6-17.9c-15-15.2-27.9-28.3-45.5-45.5
								c-20-19.5-38.9-32.9-54-43.7c-2.9-2.1-5.7-4.1-8.3-6c-237.6-69.3-378.8-84.7-612.6-110.2c-47.8-5.2-97.2-10.6-152.7-17
								c-79.4-9.2-269.2-42.3-360.4-58.2c-26.2-4.6-45.2-7.9-47.2-8.1c-16.9-1.9-40.2-10.3-52.7-15.1c-2.3-0.9-4.6-1.8-6.7-2.7
								c-11.1,10.9-43.3,21.8-86.1,29.1c-44.9,7.6-90.2,9.4-124.3,4.9l-0.2,0c-13-2.7-35.5-13-69.4-46.5l-0.1-0.1
								c-12.7-12.6-21.7-23.3-22.6-24.4l-274.7-285.9c-16.7-17.5-31.8-46.3-25.5-68c3.4-11.6,12.1-20.1,26.1-25.3
								c-16.4-4.3-55.6-11-114.2-17c-60.8-6.2-158.9-13.1-280.6-11.3c-164.6,2.4-409.6,16.3-641.8,69c-9.9,2.2-14.6,11.4-19.5,21.1
								c-4.7,9.2-9.5,18.8-19.3,23c-18.7,8.1-135.2,43-140.1,44.5c-152.8,50.5-343.7,122.5-475,179.1c-9.7,4.2-19.1,8.6-28.1,12.9
								c-11.1,5.3-22.7,10.7-34.7,15.6c-9.7,3.9-19.7,7.5-29.9,10.5c-19.4,10.2-27.9,44.6-28.8,48.5l-0.4,1.6l-1.5,0.6
								c-179.9,68.8-412.6,159.6-500.4,202c-1.5,0.8-2.9,1.6-4.4,2.4c-1.5,0.8-3,1.7-4.5,2.5c-2.8,1.5-6.3,3.3-9.9,5.1
								c-2.1,1-4.2,2.1-6.4,3.3c-16,8.1-49.2,24.8-51,40.7l-0.2,1.4l-1.2,0.8c-2.7,1.8-7.4,6-11.2,9.5
								C123.2,724.2,78,775.9,74.7,797l-0.2,1.6l-1.4,0.7c-0.5,0.2-45.5,21.8-54,38.1C11.4,851.7,11,875,11,877
								c8.9,91.6,29.2,269.7,41.8,289.6c14.6,23,39.9,38.7,43.8,41c11.8,1.4,44,6.4,88.3,13.4c115.8,18.2,309.7,48.6,375.6,49.6
								l0.2,0c42.7,0.5,60.2-2,64.9-4c-1.4-0.5-3.8-1.1-5.3-1.4c-6.7-1.4-16.7-3.5-24-13.2c-7.8-10.3-4.8-75.2-4.1-88.1
								c2.1-71.1,14.6-136.5,37.2-194.4c21.5-55.1,52-103.3,90.8-143.2c40.1-41.3,88.5-73.2,143.7-94.8
								c54.3-21.2,113.8-31.9,177.1-31.9c93.2,0,183,29.6,259.7,85.5c40.3,29.4,76.2,65.6,106.7,107.7
								c32.2,44.5,58.4,95.5,77.9,151.7l0.1,0.3c9,38.4,14.4,73.2,17.1,109.2c1.8,0,4.1-0.1,7.1-0.2c32.6-0.8,131.9-3.2,231.2-4.4
								c119.2-1.5,279.3,7.5,280.9,7.6l291.3,8.3l371.5,7.8c3.3,0.1,330.5,7.1,394.8,9.7c24.5,1,40.4,1.8,53.2,2.6
								c27.6,1.7,44.1,3.5,61.9,5.7c9.5,1.2,20.7,3.2,31.5,5.1c17.7,3.1,36,6.4,47.4,6.4c13.3,0,25.6-4.2,31.5-6.6
								c10.6-92.5,38.5-179.5,80.9-251.5c21.4-36.5,46.5-69.4,74.7-97.8c28.6-28.9,60.5-53.4,94.8-72.6
								C3617.7,739,3687.6,721.2,3762.8,721.2z M626.8,1267.3C626.8,1267.3,626.8,1267.3,626.8,1267.3
								C626.8,1267.3,626.8,1267.3,626.8,1267.3z M3138.8,1144.8l-317.2-9.7c-4.4-0.1-443.8-9.9-565-12.5
								c-20.3-0.4-40.6-0.7-60.2-0.9c-100.1-1.2-186.5-2.3-227.2-26.6c-40.4-24.2-77.7-115.8-102.3-176.4
								c-5.4-13.3-10.1-24.8-14.2-34.2c-23.3-53.2-70.6-199.1-71.1-200.6c-1.2-3.6-29.3-88.5-29.3-131.3c0.2-22.2,4.6-43.8,13-64.1
								l-246.1-3.4c0,0-12.3,0.2-32.3,0.2c-50.1,0-147.2-1.4-235.5-10.6c-49.4-5.2-89.5-12.2-119.2-20.8
								c-36.6-10.6-57.5-23.4-63.9-39.2c-4-9.8-3.4-20.3,1.6-31.2c13.7-29.3,60-61.9,137.8-96.9c57.6-25.9,111.9-43.6,112.4-43.8
								c2.3-0.8,241-86.5,427-115.1c185.8-28.6,451.6-37.5,454.3-37.6c0.3,0,26.5-0.8,63-0.8c87.7,0,200,4.4,237.5,25.5
								c58,32.3,63.1,38.1,193.9,187.3c10,11.4,20.8,23.7,32.4,36.9l9.4,9.7c30.9,13.1,58.5,38.8,72.2,52.9
								c20.5,21.2,35.2,42.3,37.5,53.9c1.1,5.3,1.8,10.6,2.3,15.6l18.6,16.6l0.2,0.2c0,0,4.9,5.9,24.5,13.9
								c20.3,8.3,49.5,7.6,49.8,7.6l0.1,0l0.1,0c0.4,0,37.2,0.7,78.5,7.5c55.9,9.3,92.8,24.9,109.8,46.4
								c61.8,78.6,33.6,340.1,14.9,513.1c-2.5,23.5-4.9,45.8-6.9,65.4L3138.8,1144.8z M1519.2,479.1l255.2,3.6l-1.9,4.2
								c-9.3,20.8-14,42.9-14.2,65.8c0,41.8,28.8,128.6,29,129.4c0.5,1.5,47.7,147.1,70.9,200c4.2,9.5,8.8,21,14.3,34.3
								c24.4,59.9,61.2,150.4,99.8,173.5c39.3,23.5,125,24.6,224.2,25.8c19.6,0.2,39.8,0.5,60.2,0.9c121.2,2.6,560.6,12.4,565,12.5
								l311.6,9.5c1.9-19,4.2-40.2,6.6-62.7c18.6-172.1,46.6-432.1-13.6-508.8c-38.2-48.4-180-51.6-183.6-51.7c-2,0.1-31,0.6-52.1-8
								c-19.5-8-25.6-14.1-26.8-15.6l-20.1-17.9v-1.3c-0.4-5.1-1.1-10.5-2.2-15.9c-4-20.1-56.6-81.4-106-102.4h-0.7l-10.9-11.2
								c-11.6-13.2-22.4-25.5-32.5-37c-130.1-148.5-135.2-154.3-192.3-186c-38.2-21.5-163.4-24.7-234.5-24.7
								c-36.4,0-62.5,0.8-62.8,0.8c-2.7,0.1-268.1,9-453.5,37.6c-185.4,28.5-423.6,114-425.9,114.9c-2.2,0.7-215.4,70.5-246.7,137.6
								c-4.4,9.4-4.9,18.1-1.5,26.4c7.3,17.9,44.1,42.2,178.1,56.2c88,9.2,184.9,10.6,234.9,10.6
								C1506.8,479.3,1519,479.1,1519.2,479.1z M4626,1089.9c-2.6,0-4.5,0-5.3-0.1h-114c-18.4,0-42.6-26-43.7-55.2
								c-0.6-16,1-24,5.7-28.9c4.4-4.6,11-5.5,20.1-5.5c18.3,0,52.6,0.2,85.9,0.4c30.3,0.2,59,0.3,72.8,0.3c8.1,0,14-0.3,18.9-0.5
								c12.8-0.6,17.1-0.8,20.1,8.2c3.2,9.8,2.1,61.3-8,71.9C4670.5,1089,4639.1,1089.9,4626,1089.9z M4488.8,1006.2
								c-8.8,0-13.2,1-15.8,3.7c-3.3,3.4-4.5,10.8-4,24.5c0.9,25,22.4,49.4,37.7,49.4l114.1,0c17.5,0.4,47.5-1.2,53.4-7.4
								c7.6-8,9.6-56.8,6.6-65.9c-1.5-4.6-1.5-4.7-14.1-4.1c-4.6,0.2-10.9,0.5-19.1,0.5c-13.9,0-42.5-0.2-72.9-0.3
								C4541.4,1006.4,4507,1006.2,4488.8,1006.2z"/>
						</g>
						<g>
							<path id="Wing_1_" class="st0" d="M766.2,380.4c-20,10.2-29,43.7-30.6,50.6c-204.5,78.2-418,162.2-500.7,202.1
								c53.1-29.1,96.7-57.2,62.7-114.8c0,0-32.6-72-52.7-104.6c-20.4-38.7-12.9-60.3,23.2-70.4c9.8-2.8,21.7-4.6,35.8-5.8
								c83.8-0.2,149.8,35,192,69.4c0,0,9.4,5.5,17.5,5c72.5-8,145.4-17.5,218.6-24C743.5,386.2,755,383.7,766.2,380.4z"/>
							<path class="st1" d="M236.2,635.8l-2.7-5.3c35-19.2,64.5-37.1,71.6-62.8c3.9-14.1,0.6-29.8-10-47.8l-0.1-0.3
								c-0.3-0.7-32.8-72.2-52.5-104.3l-0.1-0.2c-11.4-21.6-14.3-38.1-8.9-50.7c4.8-11.1,15.9-18.9,33.9-24
								c9.4-2.7,21.3-4.6,36.4-5.9l0.2,0c38.6-0.1,76.6,7.3,112.7,21.9c29.1,11.8,56.4,27.9,81,48c1.3,0.7,9.1,4.9,15.5,4.5
								c23.4-2.6,47.3-5.4,70.5-8.1c48.4-5.7,98.5-11.5,148-15.9c11.5-1.7,22.8-4.2,33.7-7.4l2.2,5.6c-19.6,10-28.1,44.7-29,48.6
								l-0.4,1.6l-1.5,0.6C556.8,502.6,323.9,593.5,236.2,635.8z M300.3,516.9c11.4,19.4,14.9,36.5,10.6,52.3
								c-4.4,15.9-16.1,28.8-32.1,40.6c106.9-46.8,299.9-122,454.4-181.1c1.1-4.2,3.7-13.4,8.2-23.1c3.6-7.6,7.6-13.9,12-18.7
								c-6.8,1.6-13.8,2.9-20.8,4l-0.2,0c-49.5,4.4-99.5,10.2-148,15.9c-23.1,2.7-47.1,5.5-70.6,8.1l-0.1,0
								c-8.9,0.6-18.8-5.2-19.2-5.4l-0.4-0.3c-31.5-25.7-98-68.7-189.4-68.7c-0.2,0-0.4,0-0.6,0c-14.6,1.2-26.1,3.1-35.1,5.7
								c-16.2,4.5-26,11.3-30,20.6c-4.6,10.8-1.8,25.6,8.6,45.4C267,443.9,298.6,513.2,300.3,516.9z"/>
						</g>
						<g>
							<path id="Door_1_" class="st0" d="M3128.7,565.3c-39.8-50.5-186-52.8-186-52.8s-29.9,0.8-51-7.8
								c-21.1-8.6-25.8-14.9-25.8-14.9h-19.5c-0.6,6.5-1.6,12.9-2.2,21.1c-1.6,19.6-38.4,33.3-72,31.3c-33.6-2-50.1-7.8-57.1-21.9
								c-7-14.1,30.5-30.5,30.5-30.5h-76.9c-15.5-1.5-29.7-4.3-38.1-9.4c-5.6-3.3-10.7-7.6-14.8-12.6c-10.2-13-7.1-25-7.1-25
								c-0.8-20.5,9.3-45.9,27.2-65.9c-18.1,19.9-28.2,45.5-27.4,66c0,0-3.1,11.9,7,24.9l0.1,0.1c4.1,5.1,9.1,9.3,14.8,12.6
								c8.4,5.1,22.6,7.9,38.1,9.4h-584.3l-314.4-4.3c-9.4,21.1-14.3,43.9-14.5,67c0,42.8,29.2,130.4,29.2,130.4
								s47.5,146.6,71,200.3s67.3,180.5,115.3,209.2s163.3,24.5,285.9,27.1c122.6,2.6,565,12.5,565,12.5l314.4,9.6
								C3152.1,979.4,3198.1,653.6,3128.7,565.3z"/>
							<path class="st1" d="M3138.8,1144.8l-317.2-9.7c-4.4-0.1-443.8-9.9-565-12.5c-20.3-0.4-40.6-0.7-60.2-0.9
								c-100.1-1.2-186.5-2.3-227.2-26.6c-40.4-24.2-77.7-115.8-102.3-176.4c-5.4-13.3-10.1-24.8-14.2-34.2
								c-23.3-53.2-70.6-199.1-71.1-200.6c-1.2-3.6-29.3-88.5-29.3-131.3c0.2-23.8,5.2-46.7,14.8-68.2l0.8-1.8l316.4,4.3l552.9,0
								c-3.2-1.1-6-2.4-8.3-3.8c-6-3.5-11.2-7.9-15.5-13.2l-0.2-0.3c-9.8-12.7-8.2-24.5-7.6-27c-0.7-21.9,10.1-47.8,28.2-67.7l4.5,4
								c-17.1,19.1-27.2,43.5-26.4,63.8l0,0.4l-0.1,0.4c-0.1,0.4-2.5,10.8,6.6,22.4c3.8,4.6,8.6,8.7,14,11.9
								c7.1,4.3,19.4,7.3,36.7,9h91.1l-13.1,5.7c-7,3.1-25.9,13-29.1,21.9c-0.6,1.7-0.6,3.1,0.1,4.6c6.3,12.6,21.6,18.3,54.6,20.2
								c34,2,67.5-11.8,68.8-28.5c0.4-4.9,0.9-9.2,1.3-13.3c0.3-2.7,0.6-5.3,0.9-7.8l0.3-2.7h23.7l0.9,1.2c0,0,4.9,5.9,24.5,13.9
								c20.3,8.3,49.5,7.6,49.8,7.6l0.1,0l0.1,0c0.4,0,37.3,0.7,78.5,7.5c55.9,9.3,92.8,24.9,109.8,46.4l0,0
								c61.8,78.6,33.6,340.1,14.9,513.1c-2.5,23.5-4.9,45.8-6.9,65.4L3138.8,1144.8z M1771.7,488.6c-8.7,20.2-13.3,41.8-13.4,64
								c0,41.8,28.8,128.6,29,129.4c0.5,1.5,47.7,147.1,70.9,200c4.2,9.5,8.8,21,14.3,34.3c24.4,59.9,61.2,150.4,99.8,173.5
								c39.3,23.5,125,24.6,224.2,25.8c19.6,0.2,39.8,0.5,60.2,0.9c121.2,2.6,560.6,12.4,565,12.5l311.6,9.5
								c1.9-19,4.2-40.2,6.6-62.7c18.6-172.1,46.6-432.1-13.6-508.8l0,0c-38.2-48.4-180-51.6-183.6-51.7c-2,0-31,0.6-52.1-8
								c-16.7-6.8-23.6-12.3-26-14.7h-15.5c-0.2,1.7-0.4,3.5-0.6,5.3c-0.5,4-1,8.2-1.3,13.1c-0.9,10.4-10,19.8-25.8,26.3
								c-14.4,5.9-32.4,8.8-49.3,7.8c-35.5-2.1-52.2-8.7-59.6-23.6c-1.4-2.9-1.6-6-0.4-9.3c2.8-7.7,12.9-14.8,21.1-19.6l-64.6,0
								l0,0.1h-584.3L1771.7,488.6z"/>
						</g>
						<g>
							<path id="Skirt_1_" class="st0" d="M3307.4,1198.3c-2.7,24.2-4.3,49.1-4.7,74.3c-0.8,54-6.4,60.7-19.7,66.9
								s-38.8,7.5-86.8-2.8c-48-10.3-215.4-11.5-830-25.8c-605.8-1-347-28-738.8,12c-51.9,11.3-112.1,17.9-120,9.9
								c-3.2-27.6-4.4-51.6-5.1-74.2c-1-34.8-0.4-66-2.8-101.5c9.8-0.2,125.8-3.2,241.1-4.6c120.5-1.5,280.7,7.6,280.7,7.6
								l291.4,8.3l371.5,7.8c0,0,329.7,7.1,394.7,9.7c21.7,0.9,38.9,1.7,53.1,2.6c28.4,1.8,45,3.6,61.7,5.7
								c25,3.2,60.5,11.5,79.3,11.5C3288.9,1205.8,3303.2,1200.1,3307.4,1198.3z"/>
							<path class="st1" d="M3254.5,1347.3c-15.5,0-35-2.6-58.9-7.7c-37.5-8-152.4-10.6-493.6-18.1c-95.9-2.1-204.6-4.5-335.9-7.6
								c-243.2-0.4-347.4-5-409.7-7.8c-92.7-4.1-94.5-4.2-328.6,19.7c-41.9,9.1-112.2,19.6-122.6,9l-0.7-0.7l-0.1-1
								c-3.4-29.2-4.5-54-5.1-74.5c-0.3-12-0.5-23.8-0.7-35.1c-0.3-22.2-0.6-43.1-2.1-66.2l-0.2-3.1l3.1-0.1c1.4,0,4.8-0.1,10-0.2
								c32.6-0.8,131.9-3.2,231.2-4.4c119.2-1.5,279.3,7.5,280.9,7.6l291.3,8.3l371.5,7.8c3.3,0.1,330.5,7.1,394.8,9.7
								c24.5,1,40.4,1.8,53.2,2.6c27.6,1.7,44.1,3.5,61.9,5.7c9.5,1.2,20.7,3.2,31.5,5.1c17.7,3.1,36,6.4,47.4,6.4
								c14.7,0.1,28.1-5,33.2-7.2l4.7-2l-0.6,5.1c-2.7,24.3-4.3,49.2-4.7,74c-0.8,54.8-6.5,62.6-21.4,69.6
								C3277,1345.6,3267.1,1347.3,3254.5,1347.3z M1889.9,1298.1c19.9,0,39.4,0.9,66.8,2.1c62.2,2.8,166.3,7.4,409.5,7.8
								c131.4,3.1,240,5.5,335.9,7.6c341.6,7.6,456.7,10.1,494.7,18.3c41.5,8.9,70.1,9.9,84.9,3c11.6-5.4,17.2-10.4,18-64.2
								c0.4-23.3,1.8-46.7,4.2-69.6c-7,2.6-18.5,5.9-30.9,5.8c-11.9,0-30.5-3.3-48.5-6.5c-10.7-1.9-21.8-3.9-31.2-5.1
								c-17.6-2.2-34.1-3.9-61.5-5.7c-12.7-0.8-28.6-1.6-53-2.6c-64.2-2.6-391.3-9.6-394.6-9.7l-371.5-7.8l-291.4-8.3
								c-1.7-0.1-161.6-9.1-280.6-7.6c-99.2,1.2-198.5,3.6-231.1,4.4c-2.8,0.1-5.1,0.1-6.8,0.2c1.4,22.1,1.7,42.2,1.9,63.4
								c0.2,11.3,0.3,23,0.7,35c0.6,20,1.7,44.3,4.9,72.6c2.2,1.2,10.7,3.7,40.4,0.9c22.4-2,50.1-6.5,76.1-12.1l0.3-0.1
								C1792.7,1303,1842.3,1298.1,1889.9,1298.1z"/>
						</g>
					</g>
					<g>
						<path id="Taillight_1_" class="st2" d="M322.6,806L93,797.4H69.9c1.1-0.5,1.7-0.8,1.7-0.8c0-0.2,0.1-0.5,0.1-0.8
							s0.1-0.3,0.1-0.5c0.1-0.5,0.3-1.1,0.4-1.7c0.1-0.2,0.1-0.5,0.2-0.7l0.3-0.9c0.1-0.3,0.2-0.7,0.3-1s0.2-0.5,0.3-0.8
							s0.2-0.6,0.4-0.9c0.1-0.4,0.3-0.8,0.5-1.2c4.3-10.1,13.3-23.3,23.8-36.8c0.5-0.7,1.1-1.4,1.7-2.1c2.7-3.3,5.4-6.7,8.2-10
							c0.4-0.5,0.8-1,1.3-1.5l0.2-0.2c1-1.2,2-2.3,3-3.5c1.6-1.9,3.2-3.7,4.9-5.6c0.4-0.4,0.7-0.8,1.1-1.2c1.5-1.7,3-3.3,4.4-4.9
							c0.5-0.5,1-1.1,1.5-1.6c0.6-0.7,1.3-1.4,1.9-2c0.3-0.4,0.7-0.7,1-1.1c0.3-0.4,0.5-0.5,0.7-0.8l0.9-0.9
							c5.5-5.8,10.6-11,15.2-15.3c0.3-0.3,0.6-0.6,1-0.9l64.2,0.6c18.1,0.5,34.5,1.2,40.9,2.1c10.9,1.8,21.5,5.2,31.3,10.2
							c31.7,22.5,30.1,48.2,34.4,60.3C319.9,785.3,322.6,806,322.6,806z"/>
						<path class="st1" d="M326,809.1l-233.1-8.7H56l12.6-5.7c0.1,0,0.2-0.1,0.2-0.1c0-0.2,0.1-0.5,0.2-0.7c0.1-0.2,0.1-0.5,0.2-0.7
							l0.1-0.6c0-0.2,0.1-0.4,0.2-0.7l0.3-0.8c0-0.1,0.1-0.2,0.1-0.4c0.1-0.2,0.1-0.4,0.2-0.6c0.1-0.2,0.1-0.4,0.2-0.6
							c0-0.1,0.1-0.1,0.1-0.2c0.1-0.3,0.2-0.7,0.5-1.2c0.2-0.5,0.4-0.9,0.5-1.2c4-9.3,12.1-21.9,24.1-37.3c0.6-0.8,1.2-1.5,1.8-2.3
							c0.8-1,1.6-2,2.4-3c1.9-2.3,3.8-4.7,5.7-7c0.4-0.5,0.8-1.1,1.5-1.7l0.1-0.1c0.5-0.6,1-1.1,1.5-1.7c0.5-0.6,1-1.1,1.5-1.7
							c1.7-2,3.3-3.8,5-5.7l0.1-0.1c0.2-0.2,0.3-0.3,0.4-0.5c0.2-0.2,0.4-0.4,0.6-0.7c0.7-0.8,1.4-1.6,2.1-2.3
							c0.8-0.8,1.5-1.7,2.2-2.5l0.1-0.1c0.2-0.2,0.4-0.5,0.7-0.7c0.3-0.3,0.5-0.6,0.8-0.8c0.6-0.7,1.3-1.4,1.9-2
							c0.2-0.3,0.5-0.5,0.6-0.7c0.1-0.1,0.2-0.1,0.2-0.2c0.3-0.4,0.5-0.6,0.7-0.8c0,0,0,0,0,0l0.1-0.2l1.1-1.1
							c6.2-6.5,11-11.4,15.2-15.3c0.3-0.3,0.7-0.7,1.3-1.1l0.8-0.6l65.2,0.6c14.9,0.4,34.1,1.1,41.3,2.1
							c11.5,1.9,22.3,5.4,32.2,10.5l0.4,0.2c26.2,18.6,30.5,39.4,33.4,53.2c0.7,3.4,1.3,6.3,2.1,8.6c4.2,12.6,6.8,32.9,6.9,33.7
							L326,809.1z M75.1,794.4l18,0l226,8.5c-1-6.4-3.2-20.1-6.2-29c-0.9-2.6-1.6-5.7-2.3-9.3c-2.8-13.6-6.7-32.2-30.8-49.4
							c-9.3-4.7-19.5-8-30.2-9.8c-5.4-0.8-19.5-1.5-40.5-2.1l-63-0.6c0,0,0,0,0,0l-0.1,0.1c-4.1,3.8-8.9,8.7-15.1,15.2l-0.8,0.8
							c-0.2,0.2-0.4,0.4-0.5,0.5c0,0-0.1,0.1-0.1,0.1c-0.3,0.4-0.6,0.7-0.8,0.9c-0.1,0.1-0.2,0.1-0.2,0.2l-0.3,0.3
							c-0.6,0.6-1.2,1.2-1.7,1.8l-0.2,0.2c-0.2,0.2-0.4,0.5-0.7,0.7c-0.3,0.3-0.5,0.6-0.8,0.8c-0.7,0.8-1.5,1.7-2.2,2.5
							c-0.7,0.8-1.4,1.5-2.1,2.3l-0.1,0.1c-0.2,0.2-0.3,0.3-0.4,0.5c-0.2,0.2-0.4,0.5-0.6,0.7c-1.6,1.8-3.2,3.6-4.8,5.5
							c-0.5,0.6-1,1.2-1.5,1.8c-0.5,0.6-1,1.1-1.5,1.7l-0.4,0.4c-0.4,0.4-0.7,0.8-1.1,1.3c-2,2.3-3.9,4.7-5.7,6.9
							c-0.8,1-1.7,2.1-2.5,3.1c-0.6,0.7-1.2,1.3-1.6,1.9l-0.1,0.1c-11.8,15.1-19.6,27.3-23.4,36.1l-0.1,0.2
							c-0.1,0.2-0.2,0.5-0.3,0.6l-0.1,0.5l-0.3,0.4c0,0,0,0.1,0,0.2c-0.1,0.2-0.1,0.4-0.2,0.6c0,0.1-0.1,0.1-0.1,0.2
							c0,0.1-0.1,0.2-0.1,0.4c-0.1,0.2-0.1,0.4-0.2,0.6l-0.3,0.9C75.2,794,75.2,794.2,75.1,794.4C75.1,794.4,75.1,794.4,75.1,794.4z
							"/>
					</g>
					<g id="Stroke">
						<path class="st1" d="M324.9,808.1l-2.4-0.1l-250.8-9.4l0.1-4l248.4,9.3c-0.8-5.7-3.2-20.7-6.6-30.1c-0.9-2.6-1.6-5.7-2.3-9.2
							c-2.9-13.7-6.8-32.6-31.3-50c-9.5-4.8-19.7-8.2-30.6-9.9c-16.4-2.2-103.4-3.4-104.3-3.4l0-4c3.6,0,88.1,1.1,104.8,3.4
							c11.4,1.9,22.1,5.4,31.9,10.4l0.2,0.2c25.9,18.4,30.2,38.9,33,52.5c0.7,3.4,1.3,6.4,2.2,8.7c4.3,12.3,7,32.5,7.1,33.3
							L324.9,808.1z"/>
						
							<rect x="520.5" y="617" transform="matrix(5.668517e-02 -0.9984 0.9984 5.668517e-02 -323.0541 1292.584)" class="st1" width="4" height="400.4"/>
						<path class="st1" d="M3273.1,1207.8c-11.9,0-30.4-3.3-48.3-6.4c-10.7-1.9-21.9-3.9-31.2-5.1c-23-2.9-47.5-5.6-114.6-8.3
							c-64.2-2.6-391.4-9.6-394.7-9.7l-371.5-7.8l-291.4-8.3c-1.7-0.1-161.6-9.1-280.6-7.6c-119.1,1.5-240.6,4.6-241.8,4.6l-0.1-4
							c1.2,0,122.7-3.1,241.8-4.6c119.2-1.5,279.2,7.5,280.8,7.6l291.3,8.3l371.5,7.8c3.3,0.1,330.5,7.1,394.7,9.7
							c67.3,2.7,91.9,5.4,115,8.3c9.5,1.2,20.6,3.2,31.4,5.1c17.7,3.1,36.1,6.4,47.6,6.4c18.1,0,34.5-7.8,34.6-7.9l1.7,3.6
							C3308.8,1199.8,3292.1,1207.8,3273.1,1207.8z"/>
						<path class="st1" d="M3134.1,1188.8l-4-0.3c1.8-28.1,6-67.2,10.9-112.4c18.6-172.3,46.6-432.6-13.8-509.6
							c-38.8-49.2-183-52-184.5-52c-1.2,0-30.5,0.7-51.7-7.9c-17.3-7.1-23.9-12.7-25.9-14.8h-18.6v-4h20.5l0.6,0.8
							c0,0,4.9,6.1,25,14.2c20.5,8.3,49.9,7.7,50.2,7.7c0.5,0,37.3,0.7,78.5,7.5c55.6,9.2,92.3,24.7,109.2,46.1
							c61.5,78.3,33.3,339.6,14.7,512.5C3140.1,1121.8,3135.9,1160.8,3134.1,1188.8z"/>
						<path class="st1" d="M3137.3,1143.7l-315.7-9.6c-4.4-0.1-443.8-9.9-565-12.5c-20.3-0.4-40.6-0.7-60.2-0.9
							c-99.9-1.2-186.2-2.3-226.7-26.5c-40.1-24-77.3-115.4-101.9-175.9c-5.4-13.3-10.1-24.8-14.2-34.2
							c-23.3-53.2-70.6-199-71.1-200.5c-1.2-3.6-29.3-88.4-29.3-131c0-37.8,14.7-67.8,14.8-68.1l3.6,1.8
							c-0.1,0.3-14.4,29.5-14.4,66.3c0,42,28.8,128.9,29.1,129.8c0.5,1.5,47.7,147.1,70.9,200.1c4.2,9.5,8.8,21,14.2,34.3
							c24.4,60,61.3,150.7,100.3,174c39.6,23.7,125.4,24.7,224.7,25.9c19.6,0.2,39.8,0.5,60.2,0.9c121.2,2.6,560.6,12.4,565,12.5
							l315.7,9.6L3137.3,1143.7z"/>
						<path class="st1" d="M4595,932.8c-3.9,0-8,0-12.6-0.1c-27.1-0.2-53.9-1.1-54.2-1.1l-342.2-5.3l0.1-4l342.2,5.3
							c50.7,1.7,107,1.9,111.5-1.2c4.8-4.2,1.3-11.3,1.2-11.6l3.6-1.8c1.8,3.5,3.6,11.4-2.2,16.4
							C4641.2,930.5,4638.5,932.8,4595,932.8z"/>
						<path class="st1" d="M4626.1,1088.9c-2.7,0-4.6,0-5.5-0.1l-114,0c-17.9,0-41.6-25.5-42.7-54.2c-0.6-15.6,0.9-23.5,5.4-28.2
							c4.2-4.3,10.5-5.2,19.4-5.2c18.2,0,52.6,0.2,85.8,0.4c30.3,0.2,59,0.3,72.9,0.3c8.1,0,14.1-0.3,18.9-0.5
							c12.6-0.6,16.4-0.7,19.1,7.6c3.1,9.5,1.8,60.8-7.7,70.9C4670.1,1088,4639.2,1088.9,4626.1,1088.9z M4488.8,1005.2
							c-9.2,0-13.7,1.1-16.5,4c-3.6,3.7-4.8,11-4.3,25.2c1,25.9,22.6,50.4,38.7,50.4h114c0.2,0,11.8,0.3,24.3-0.6
							c21.6-1.5,27.9-5.1,29.8-7.1c8-8.5,10-57.5,6.9-66.9c-1.7-5.3-2.2-5.4-15.1-4.8c-4.6,0.2-10.9,0.5-19.1,0.5
							c-13.9,0-42.5-0.2-72.9-0.3C4541.4,1005.4,4507,1005.2,4488.8,1005.2z"/>
						<path class="st1" d="M2778.6,544.4c-2.2,0-4.4-0.1-6.5-0.2c-35.1-2.1-51.6-8.5-58.8-23c-1.3-2.7-1.4-5.5-0.3-8.5
							c3.1-8.4,15.7-16.4,24.1-20.9l-68.5,0c-18.2-1.8-31.3-5-38.9-9.7c-5.8-3.4-11.1-8-15.3-13c-9.9-12.6-8-24.4-7.6-26.5
							c-0.6-17.9,6.9-39.4,20.1-57.6c14.8-20.3,35.1-34.6,57.2-40.1c6.1-1.6,12.4-2.5,18.5-2.7c10.1-0.4,21.7,2.1,34.4,7.4
							c51.8,21.9,105.1,84.6,109.3,106.2c1.2,5.7,1.9,11.3,2.3,16.6c0.4,5.7,0.3,11.6-0.2,17.6l0,0c-0.2,2.6-0.5,5.2-0.9,8
							c-0.5,4.1-1,8.2-1.3,13.1C2844.6,531.1,2810.5,544.4,2778.6,544.4z M2668.8,487.8h86.4l-8.8,3.8c-0.1,0-6.6,2.9-13.5,7.2
							c-8.9,5.5-14.5,10.8-16.1,15.3c-0.7,1.9-0.7,3.7,0.2,5.3c6.4,13,22,18.8,55.4,20.8c34.5,2.1,68.5-12.3,69.9-29.5
							c0.4-4.9,0.9-9.2,1.3-13.3c0.3-2.7,0.6-5.3,0.9-7.9c0.5-5.8,0.6-11.5,0.2-17c-0.4-5.2-1.1-10.6-2.3-16.1
							c-4-20.3-57.1-82.3-106.9-103.3c-12.2-5-23.2-7.4-32.7-7c-5.9,0.2-11.8,1-17.7,2.5c-21.1,5.3-40.6,19-54.9,38.6
							c-12.8,17.6-20.1,38.3-19.4,55.4l0,0.3l-0.1,0.3c-0.1,0.4-2.7,11.3,6.7,23.3c3.9,4.7,8.8,8.9,14.2,12.1
							C2638.8,483,2651.3,486.1,2668.8,487.8z"/>
						<path class="st1" d="M2789.1,500.7c-23,0-43.3-8.6-44.3-9l1.6-3.7c0.2,0.1,24.6,10.4,49.2,8.4c24.9-2,50.2-8.5,50.5-8.5l1,3.9
							c-0.3,0.1-25.9,6.7-51.1,8.7C2793.6,500.6,2791.3,500.7,2789.1,500.7z"/>
						<path class="st1" d="M737.3,432.6l-3.9-0.8c0.1-0.4,2.2-10.5,7.2-22.1c6.8-15.8,15.2-26.3,24.9-31.2l1.8,3.6
							C745.9,392.7,737.3,432.2,737.3,432.6z"/>
						<path class="st1" d="M210,648.4L208,645c101.7-61.6,975.4-384.7,984.2-388c2.3-0.8,227-78.8,419-116.7
							c201.7-39.8,339-49.1,473.3-55.8c174.5-8.7,283.1-6.4,352.2,7.4c69.2,13.8,98.9,38.7,130.4,69.9l-2.8,2.8
							c-63.4-62.5-113.5-94.3-479.7-76.1c-134.2,6.7-271.3,16-472.7,55.8c-191.7,37.8-416.2,115.7-418.4,116.5
							C1184.8,264,311.4,587,210,648.4z"/>
						<path class="st1" d="M1923.4,670.9c-0.4,0-0.8,0-1.3,0c-25-0.2-43.6-7.8-53.9-22l-0.4-0.6l0-0.7c0-0.5,0-1,0-1.6
							c-0.1-2.8-0.3-6.7,3.2-10.3c6.9-7.3,26.3-10.8,61.1-11c35.3-0.2,54.7,3.2,59.3,10.6c1.3,2.2,1.4,4.7,0.2,7.1l-0.1,0.2
							c-0.6,1-1.4,2-2.3,2.9C1981.1,655,1961.9,670.9,1923.4,670.9z M1871.8,647c9.6,12.8,27,19.7,50.3,19.9
							c37.8,0.4,56.3-14.9,64.1-24c0.7-0.8,1.4-1.6,1.9-2.4c0.7-1.5,0.3-2.4-0.1-3c-5.1-8.2-40.8-8.9-55.9-8.8
							c-32.7,0.2-52.3,3.5-58.3,9.8c-2.3,2.4-2.2,4.9-2.1,7.4C1871.8,646.3,1871.8,646.7,1871.8,647z"/>
						<path class="st1" d="M1963.4,608.9c-8.8,0-20.8-0.6-37.4-2.1c-51.2-4.6-55.3-9.7-55.5-16.4c0-0.3,0-0.6,0-0.8l-0.1-0.9
							l0.7-0.7c10.8-11,27.3-16.9,47.6-17c48.4-0.2,66.9,17.4,73.7,28l1.4,2.1l-2.4,0.8c-0.7,0.2-1,0.6-1.7,1.3
							C1987,605.7,1983.8,608.9,1963.4,608.9z M1874.5,590.1c0,0.1,0,0.1,0,0.2c0,1.7,0.1,3.2,5.5,5.2c7.6,2.8,22.8,5.2,46.3,7.3
							c53,4.8,57.8,0.1,60.4-2.5c0.3-0.3,0.7-0.6,1-1c-11.3-15.7-36.4-24.7-69.1-24.5C1899.8,575,1884.6,580.2,1874.5,590.1z"/>
						<path class="st1" d="M1846.8,653.8c-24.7,0-41.2-2.3-50.5-11.5c-5.4-5.3-8-12.5-8-22c0-20.8,15.1-33.4,43.8-36.3
							c11.8-1.2,37.1-0.8,40.6,1.7l0,0c1.2,0.8,1.9,2.2,1.9,3.6c0,0.4,0,0.7,0,1.1c0,1.7,0,3.1,5.4,5.1c7.6,2.8,22.8,5.2,46.4,7.4
							c53,4.8,57.8,0.1,60.4-2.5c0.8-0.8,1.7-1.7,3.2-2.2c1.9-0.7,4.7-0.7,10.2,0c17.5,2.6,31.2,5.7,40.5,9.2
							c11,4.2,16.4,9,16.4,14.7c0,10.1-22.7,18-69.3,24.1l-5.8,0.8l4.2-4.2c0.7-0.7,1.3-1.4,1.8-2.2c0.7-1.5,0.3-2.5-0.1-3.1
							c-5.1-8.2-40.8-8.9-55.9-8.8c-32.9,0.2-52.5,3.5-58.4,9.8c-2.3,2.4-2.1,4.8-2,7.4c0,0.7,0.1,1.3,0.1,1.9
							c0,0.7-0.1,1.2-0.2,1.8l-0.1,0.5c-1.2,3.5-6.9,3.6-13,3.6c-0.6,0-1.1,0-1.7,0C1853.4,653.8,1850,653.8,1846.8,653.8z
							 M1847.7,587.3c-5.2,0-10.5,0.2-15.1,0.7c-18.3,1.9-40.2,9-40.2,32.3c0,8.4,2.2,14.7,6.8,19.2c9.5,9.3,28.3,10.8,57.6,10.2
							c0.6,0,1.1,0,1.7,0c2.6,0,8.1-0.1,9.2-1c0.1-0.4,0.1-0.7,0.1-1c0-0.5,0-1.1-0.1-1.6c-0.1-2.8-0.4-6.7,3.1-10.3
							c4.3-4.6,15.3-10.7,61.3-11c35.3-0.2,54.7,3.2,59.3,10.6c1.2,1.9,1.4,4.1,0.6,6.3c56.9-7.9,61.4-16.9,61.4-19.5
							c0-4.5-6.9-13.1-53.4-19.9c-4.6-0.6-7.1-0.7-8.3-0.2c-0.7,0.3-1.1,0.6-1.8,1.3c-3.7,3.6-8.7,8.6-63.6,3.6
							c-51.5-4.7-55.5-9.8-55.5-16.5c0-0.3,0-0.6,0-0.8l0-0.2c0-0.1-0.1-0.3-0.3-0.5l0,0C1868.8,588.1,1858.5,587.3,1847.7,587.3z"
							/>
						<path class="st1" d="M459.8,474.4c-21.5,0-46-6.5-73-19.4c-28.2-13.5-52.1-30.8-63.8-39.8c-18.6-14.5-36.7-30.3-53.9-47.2
							l-0.1-0.1c-3.9-4.6-9.5-16-2.6-25.7l3.3,2.3c-6.6,9.4,1.5,19.8,2.3,20.8c17,16.7,35,32.4,53.5,46.8
							c18.9,14.7,85,62.2,141.2,58.2l0.1,0l0.1,0c0.7,0,68.8,1.5,271.9-54l1.1,3.9c-106.5,29.1-175,42.3-213.7,48.2
							c-40.8,6.2-57.6,6-59.3,6C464.6,474.4,462.2,474.4,459.8,474.4z"/>
						<path class="st1" d="M388.6,454.9c-0.1-0.3-0.6-3.5,2.6-8c15.4-21.5,83-32.4,121.9-37l0.5,4c-87.9,10.4-112.1,26.3-118.8,34.9
							c-2.6,3.3-2.3,5.4-2.3,5.4L388.6,454.9z"/>
						<path class="st1" d="M4248.6,1405.8c-8.1-3.3-79.2-32.7-84.8-38.2c-2.6-2.6-2.3-6.1-1.9-9.9c0.7-6.4,1.5-14.3-9.8-23.9
							c-2.6-2.2-5.5-6.5-8.9-11.5c-6.6-9.7-15.5-22.9-25.8-25.1l-683.1-0.3c-94.1,4.7-132.4,10.1-132.8,10.2l-0.6-4
							c0.4-0.1,38.8-5.5,133.2-10.2l0.1,0l683.6,0.3l0.2,0c11.9,2.4,21.1,15.9,28.5,26.8c3.2,4.8,6,8.9,8.2,10.7
							c13,11,11.9,20.9,11.2,27.4c-0.4,3.4-0.5,5.4,0.7,6.6c3.8,3.8,52.1,24.4,83.6,37.4L4248.6,1405.8z"/>
						<path class="st1" d="M631.6,1266.1h-4c0-5,1.5-8.7,4.4-11.1c4.4-3.6,10.4-2.8,11.6-2.6h27.6l740.1-4.8l0.1,0l91.5,9.1l-0.4,4
							l-91.4-9.1l-739.9,4.8h-28l-0.2,0c0,0-5.2-1-8.6,1.7C632.6,1259.7,631.6,1262.4,631.6,1266.1z"/>
						<path class="st1" d="M808.5,374.8c-9.7,0-13.2-2.9-13.8-3.5l2.8-2.8c0.1,0,9.9,8.2,49-6.6c12.3-4.6,36.3-14.6,69.7-28.3
							c76.5-31.6,204.7-84.4,331.1-130.9c177-65.1,204-78.8,204.3-78.9l1.8,3.6c-1,0.5-27.1,13.7-204.7,79.1
							c-126.3,46.5-254.4,99.3-330.9,130.8c-33.3,13.7-57.4,23.7-69.8,28.3C829.1,372.8,816.6,374.8,808.5,374.8z"/>
						<path class="st1" d="M3373,497c-0.1-0.4-3.5-9-18.2-10.9c-14.5-1.9-18.7,4.8-18.9,5.1l-3.5-2c0.2-0.4,5.6-9.3,22.9-7.1
							c17.2,2.2,21.3,13.1,21.4,13.5L3373,497z"/>
						<path class="st1" d="M4485.1,774.6c0-0.2-3.4-20.5-42.7-58.4c-63-61-80.6-53.8-80.8-53.7l-2-3.5c1.9-1.1,20.2-8.9,85.5,54.3
							c40.5,39.1,43.8,59.9,43.9,60.8L4485.1,774.6l2-0.3L4485.1,774.6z"/>
						<path class="st1" d="M2961.6,473.1c-1.5,0-3,0-4.5,0c-1.8,0-3.6,0-5.3-0.1c-0.7,0-1.4,0-2.1-0.1c-0.7,0-1.3,0-2,0l-6.8-0.3
							c-2.2-0.1-4.5-0.3-6.7-0.5c-0.9-0.1-1.7-0.2-2.3-0.2l-0.2,0c-1.3-0.1-2.7-0.2-4.1-0.4c-1.8-0.2-3.6-0.4-5.6-0.7
							c-1-0.2-1.9-0.4-2.9-0.7l-0.7-0.2c-0.4-0.1-0.8-0.2-1.3-0.4c-0.2,0-0.4-0.1-0.5-0.2c-0.4-0.1-0.8-0.2-1.3-0.5h-0.1l-0.2-0.1
							c-0.4-0.1-0.7-0.2-1-0.3h0l-0.5-0.1c-0.2-0.1-0.5-0.2-0.7-0.3c-0.3-0.1-0.6-0.2-0.9-0.3c-0.2-0.1-0.5-0.2-0.7-0.3
							c-0.3-0.1-0.6-0.2-0.8-0.3c-0.5-0.2-1.1-0.4-1.8-0.8c-0.1-0.1-0.3-0.1-0.4-0.2c-0.1-0.1-0.2-0.1-0.3-0.1l-0.1-0.1
							c-2.2-0.9-4.4-2-7.2-3.6c-0.3-0.2-0.5-0.3-0.8-0.4c-0.3-0.2-0.6-0.3-0.9-0.5c-0.2-0.1-0.5-0.3-0.7-0.4
							c-0.3-0.2-0.6-0.3-0.9-0.5c-0.5-0.3-0.9-0.6-1.5-0.8l-0.1-0.1c-1.7-1-3.3-2-4.7-3c-0.2-0.1-0.5-0.3-0.8-0.5
							c-0.2-0.1-0.4-0.3-0.6-0.4c-0.3-0.2-0.6-0.4-0.9-0.6c-0.2-0.1-0.4-0.3-0.6-0.4l-0.1-0.1l-3-2.1c-5.8-4.1-11.9-8.9-18.6-14.6
							l-0.1-0.1c-0.4-0.4-0.9-0.8-1.4-1.1l-0.2-0.2c-2.3-2-4.5-4-6.6-6c-0.5-0.4-0.9-0.8-1.3-1.3c-5.3-4.9-10.5-10.2-16.2-16.1
							c-0.3-0.3-0.6-0.6-0.9-1c-0.9-0.9-1.8-1.9-2.5-2.7c-0.3-0.3-0.6-0.6-0.9-1l-0.2-0.3c-0.1-0.1-0.2-0.2-0.3-0.4
							c-0.8-0.9-1.5-1.7-2.1-2.4c-1.1-1.2-1.8-2-2.3-2.6l0,0c-0.1-0.1-0.3-0.3-0.4-0.5l-266.6-277c-2.4-2.5-5-5.4-7.8-8.8
							c-0.5-0.6-1.1-1.4-1.8-2.3c-0.3-0.4-0.6-0.8-0.8-1.1c-0.4-0.5-0.7-1-1-1.5c-0.2-0.2-0.3-0.4-0.3-0.5c0,0,0,0,0,0l-0.1-0.1
							l-1-1.6c-0.2-0.2-0.3-0.4-0.4-0.6c-0.1-0.1-0.2-0.2-0.2-0.4c-0.2-0.2-0.4-0.5-0.5-0.9c-0.5-0.8-0.8-1.4-1.2-2.2l-1.3-2.7
							c0-0.1-0.1-0.1-0.1-0.2c-0.1-0.2-0.2-0.3-0.2-0.5c-0.3-0.6-0.6-1.3-0.8-1.8c-0.3-0.8-0.6-1.6-0.9-2.4l-0.2-0.5
							c-3.3-10.6-0.9-20.4,7-29l1.2-1.2c0.5-0.6,1.1-1.1,1.6-1.5l0.1-0.1c0.1-0.1,0.1-0.1,0.1-0.1l0.2-0.3c0.5-0.5,0.9-0.9,1.4-1.2
							c0.2-0.2,0.5-0.4,0.7-0.6l0.1-0.1c0.5-0.4,1.1-0.8,1.6-1.2c0.6-0.4,1.1-0.9,1.7-1.3c0.6-0.5,1.2-0.9,1.9-1.3l1.3-0.9
							c0.6-0.4,1.3-0.8,2-1.2c1.5-0.9,2.9-1.7,4.7-2.6c1.1-0.5,2.1-1,3.2-1.6c0.4-0.2,0.7-0.3,1-0.5c0.4-0.2,0.7-0.4,1.1-0.5
							c0.2-0.1,0.4-0.2,0.6-0.3c0.1-0.1,0.3-0.1,0.4-0.2c0.4-0.2,0.9-0.4,1.3-0.6c0.2-0.1,0.3-0.1,0.5-0.2c0,0-0.1,0-0.1-0.1
							L2573,47h7.5c0.2-0.1,0.4-0.1,0.7-0.1h0.6l279.6,202.3l255.2,191.3l-5.2,3h-0.4c-0.5,0.3-1,0.5-1.6,0.8c0,0-0.1,0-0.1,0.1
							l-0.1,0.1l-0.3,0.2c-0.4,0.2-0.8,0.4-1.2,0.6c-0.5,0.2-0.9,0.5-1.4,0.7c-3.8,1.8-7.8,3.5-11.6,4.9c-0.5,0.2-1,0.4-1.5,0.6
							c-0.5,0.2-0.9,0.3-1.4,0.5l-0.1,0c-0.5,0.2-1.1,0.4-1.5,0.6l-0.3,0.1l-1.8,0.6c-0.5,0.2-0.9,0.3-1.4,0.5
							c-0.8,0.3-1.6,0.6-2.4,0.8c-1.3,0.4-2.6,0.8-4,1.2c-0.7,0.2-1.4,0.4-2,0.6c-0.7,0.2-1.4,0.4-2.1,0.6l-4.2,1.2
							c-0.7,0.2-1.4,0.4-2.3,0.6l-4.4,1.2c-5.3,1.3-10.4,2.5-15.2,3.5c-2.8,0.6-5.8,1.2-8.7,1.8l-0.2,0c-1.6,0.3-3.3,0.6-5,0.9
							c-1.4,0.3-2.8,0.5-4.2,0.8c-5,0.8-10,1.6-14.3,2.2l-4.8,0.6c-1.1,0.1-2.2,0.3-3.3,0.4c-1.1,0.1-2.1,0.2-3.2,0.4
							c-2.3,0.3-4.5,0.5-6.7,0.7c-2.8,0.3-5.7,0.5-8.8,0.7l-5.6,0.3C2977.7,472.9,2969.8,473.1,2961.6,473.1z M2947.9,468.9
							c0.6,0,1.3,0,2,0c0.7,0,1.3,0,2,0l0.1,0c1.6,0.1,3.4,0.1,5.2,0.1c9.7,0.1,19.1-0.1,27.9-0.7l5.5-0.3c3.1-0.2,5.9-0.4,8.7-0.7
							c2.2-0.2,4.4-0.4,6.5-0.7c1.1-0.2,2.2-0.3,3.3-0.4c1.1-0.1,2.1-0.2,3.2-0.4l4.8-0.6c4.2-0.6,9.2-1.4,14.1-2.2
							c1.4-0.3,2.8-0.5,4.2-0.8c1.7-0.3,3.3-0.6,4.9-0.9l0.2,0c2.9-0.6,5.8-1.2,8.7-1.8c4.7-1,9.8-2.2,15-3.5l4.4-1.2
							c0.8-0.2,1.5-0.4,2.2-0.6l4.2-1.2c0.7-0.2,1.4-0.4,2-0.6c0.7-0.2,1.4-0.4,2.1-0.6c1.4-0.4,2.7-0.8,4-1.2
							c0.8-0.2,1.5-0.5,2.3-0.8c0.5-0.2,1-0.4,1.5-0.5l1.7-0.6c0.7-0.3,1.3-0.5,1.9-0.7c0.5-0.2,1-0.4,1.4-0.5
							c0.5-0.2,0.9-0.3,1.4-0.5c3.8-1.4,7.6-3.1,11.4-4.9c0.4-0.2,0.8-0.4,1.2-0.6c0.4-0.2,0.8-0.4,1.2-0.6c0,0,0,0,0.1,0l0.1-0.1
							l0.3-0.1c0.6-0.3,1.2-0.6,1.7-0.9L2859,252.4l-275.1-199c-0.1,0.1-0.3,0.1-0.4,0.2c-0.4,0.2-0.8,0.3-1.1,0.5
							c-0.4,0.2-0.9,0.4-1.3,0.6c-0.4,0.2-0.7,0.3-1.1,0.5c-0.2,0.1-0.4,0.2-0.7,0.3c-0.1,0.1-0.3,0.1-0.4,0.2l-0.1,0
							c-0.3,0.1-0.6,0.3-0.9,0.5c-0.4,0.2-0.8,0.4-1.2,0.5c-1,0.5-2,1-3,1.5c-1.7,0.9-3.1,1.7-4.6,2.5c-0.7,0.4-1.3,0.8-1.9,1.2
							l-1.3,0.8c-0.6,0.4-1.2,0.8-1.7,1.2c-0.6,0.4-1.1,0.8-1.6,1.2c-0.5,0.4-1.1,0.8-1.6,1.2c-0.2,0.2-0.5,0.4-0.7,0.6
							c-0.4,0.3-0.7,0.6-1,0.8c-0.3,0.4-0.6,0.7-1,1c-0.4,0.3-0.8,0.6-1,0.9l-0.1,0.2l-1.2,1.2c-6.9,7.5-9,15.7-6.1,25l0.2,0.5
							c0.2,0.7,0.5,1.4,0.8,2.1l0.1,0.2c0.2,0.5,0.3,1,0.5,1.3l0.2,0.4c0,0.1,0.1,0.1,0.1,0.2c0.1,0.2,0.2,0.4,0.2,0.5l1.2,2.3
							c0.4,0.7,0.7,1.3,1.2,2.1l0.3,0.5c0.1,0.2,0.2,0.3,0.3,0.5c0.1,0.2,0.2,0.3,0.3,0.5l0.1,0.2l0.8,1.3c0.2,0.2,0.3,0.4,0.3,0.5
							c0,0,0,0,0,0l0.1,0.1l0.1,0.2c0.3,0.5,0.5,0.9,0.8,1.3l0.1,0.1c0.2,0.3,0.5,0.6,0.7,1c0.6,0.9,1.2,1.6,1.6,2.1
							c2.8,3.4,5.3,6.2,7.6,8.6L2834,399.6c0.3,0.2,0.6,0.5,0.8,0.9c0.3,0.4,1.1,1.3,2.1,2.4c0.6,0.7,1.4,1.6,2.2,2.5l0.2,0.2
							c0.1,0.1,0.2,0.2,0.3,0.4c0.2,0.3,0.5,0.6,0.8,0.9c0.8,0.9,1.6,1.8,2.5,2.6l0.3,0.3c0.1,0.1,0.3,0.4,0.5,0.6
							c5.6,5.9,10.9,11.1,16.2,16.1l0.2,0.3c0.2,0.2,0.5,0.5,0.7,0.7l0.2,0.2c2,1.9,4.2,3.9,6.4,5.9c0.6,0.4,1.3,1,1.8,1.5
							c6.5,5.6,12.5,10.3,18.2,14.3l2.9,2.1c0.3,0.2,0.5,0.4,0.8,0.5c0.2,0.1,0.4,0.3,0.6,0.4c0.3,0.2,0.6,0.4,0.9,0.6
							c0.2,0.1,0.4,0.3,0.6,0.4c1.4,0.9,3,1.9,4.5,2.9c0.6,0.3,1.2,0.6,1.7,0.9c0.2,0.1,0.5,0.3,0.7,0.4c0.3,0.2,0.6,0.3,0.9,0.5
							c0.2,0.1,0.5,0.3,0.7,0.4c0.3,0.2,0.6,0.3,0.9,0.5c2.6,1.5,4.7,2.5,6.7,3.3c0.2,0.1,0.4,0.1,0.6,0.2c0.1,0.1,0.2,0.1,0.3,0.1
							l0.4,0.2c0.3,0.2,0.7,0.3,1.2,0.5l0.1,0c0.2,0.1,0.5,0.2,0.7,0.3c0.3,0.1,0.6,0.2,0.9,0.3c0.2,0.1,0.5,0.2,0.7,0.3
							c0.2,0.1,0.4,0.1,0.6,0.2l0.3,0.1c0.1,0,0.3,0.1,0.5,0.2c0.1,0,0.2,0.1,0.3,0.1c0.5,0.1,1,0.3,1.2,0.4
							c0.2,0.1,0.5,0.2,0.8,0.2l0.7,0.3c0.2,0.1,0.5,0.2,0.8,0.2l0.7,0.2c0.9,0.2,1.7,0.4,2.5,0.6c1.8,0.3,3.6,0.5,5.5,0.7
							c1.3,0.2,2.5,0.3,3.8,0.4c0.9,0,1.8,0.1,2.7,0.2c2.1,0.2,4.3,0.4,6.4,0.5L2947.9,468.9
							C2947.8,468.9,2947.8,468.9,2947.9,468.9z"/>
					</g>
				</g>
				<g>
					<path id="Bumper_LIght_1_1_" class="st0" d="M4488.8,1003.2c34.9,0,129.6,0.7,158.7,0.7c29.9,0,33-3.7,36.1,5.7
						c3.1,9.4,1.6,59.5-7.3,68.9c-8.9,9.4-55.6,8.3-55.6,8.3h-114c-17.1,0-39.7-25.4-40.7-52.3
						C4465,1007.2,4470.4,1003.2,4488.8,1003.2z"/>
					<path class="st1" d="M4625.1,1089.8c-2.7,0-4.4,0-4.5,0l-113.9,0c-18.4,0-42.6-26-43.7-55.2c-0.6-15.9,1-24,5.7-28.9
						c4.4-4.6,11-5.5,20.1-5.5c18.3,0,52.6,0.2,85.9,0.4c30.3,0.2,59,0.3,72.8,0.3c8.1,0,14-0.3,18.9-0.5
						c12.8-0.6,17.1-0.8,20.1,8.2c3.2,9.8,2.1,61.3-8,71.9c-4.3,4.5-15.1,7.3-33.1,8.6C4637.4,1089.7,4629.7,1089.8,4625.1,1089.8z
						 M4488.8,1006.2c-8.8,0-13.2,1-15.8,3.7c-3.3,3.4-4.5,10.8-4,24.5c0.8,21.1,19.6,49.4,37.7,49.4h114
						c17.6,0.4,47.6-1.2,53.4-7.4c7.6-8,9.6-56.8,6.6-65.9c-1.5-4.6-1.5-4.7-14.1-4.1c-4.6,0.2-10.9,0.5-19.1,0.5
						c-13.9,0-42.5-0.2-72.9-0.3C4541.4,1006.4,4507,1006.2,4488.8,1006.2z"/>
				</g>
			</g>
		</g>
		<g id="Taillight_Alt">
			<g>
				<path id="Outline_1_" class="st0" d="M41.6,797.4l288.2,5.6L315,747.5c0,0-10.7-50.8-61.5-50.8H141.2l-57.8,10.8
					c0,0-8.4,1.4-8.4,10.4c0,9.1,0.2,11.1,4.2,13.5L41.6,797.4z"/>
				<path class="st1" d="M333.7,806.1l-4-0.1l-293.2-5.7l38.8-68.1c-3.3-3.1-3.3-7.1-3.3-14.3c0-9.1,7.1-12.7,10.9-13.4l58-10.8
					h112.6c27.5,0,43.6,14.5,52.2,26.7c9,12.7,11.9,25.2,12.2,26.4L333.7,806.1z M46.7,794.5l279.2,5.4l-13.8-51.8
					c0-0.1-2.7-12.4-11.3-24.5c-11.4-15.9-27.3-24-47.2-24h-112L84,710.4c-0.6,0.1-6,1.3-6,7.5c0,9.3,0.4,9.5,2.7,10.9l2.5,1.5
					L46.7,794.5z"/>
			</g>
			<g>
				<path id="Black_1_" class="st1" d="M242.4,800.9h-18.6c0,0-0.4-3.9-1.2-9.1c-0.8-5.7-2.1-13-3.6-18.9c-0.2-0.9-0.5-1.8-0.7-2.6
					c-4.3-14.5-11.6-29.7-11.6-29.7c-5.1-8.4-17.2-9.1-17.2-9.1h17.8c0,0,12.1,0.7,17.2,9.1c0,0,7.3,15.2,11.6,29.7
					c1,3.5,2,7.8,2.7,12L242.4,800.9z"/>
				<path class="st1" d="M246,803.9h-24.9l-0.3-2.7c0,0-0.4-3.9-1.2-9c-0.9-6.6-2.2-13.5-3.5-18.6c-0.1-0.6-0.3-1-0.4-1.5
					c-0.1-0.4-0.2-0.7-0.3-1.1c-4-13.4-10.6-27.5-11.3-29.1c-4.3-6.8-14.6-7.5-14.7-7.5l0.2-6l18,0c0.6,0,13.7,0.9,19.6,10.5
					l0.1,0.3c0.3,0.6,7.5,15.6,11.8,30.1c1.1,3.9,2.1,8.3,2.8,12.4L246,803.9z M226.5,797.9h12.3l-2.9-15c-0.7-3.9-1.6-8.1-2.6-11.7
					c-4-13.3-10.6-27.5-11.4-29.1c-4.1-6.5-13.7-7.5-14.7-7.5h-1.9c1.5,1.2,2.8,2.7,3.9,4.5l0.1,0.3c0.3,0.6,7.5,15.6,11.8,30.1
					l0,0.1c0.1,0.3,0.2,0.6,0.3,0.9c0.2,0.6,0.3,1.1,0.5,1.7c1.3,5.2,2.7,12.4,3.6,19.1C226,794,226.3,796.3,226.5,797.9z"/>
			</g>
			<g id="Stroke_1">
				<path class="st1" d="M332.4,805.1l-294.2-5.7L76.6,732c-3.6-2.8-3.6-6.3-3.6-14.1c0-8.5,6.6-11.8,10.1-12.4l57.9-10.8h112.5
					c27.1,0,42.9,14.3,51.4,26.2c9,12.6,11.8,25,12,26.1L332.4,805.1z M45,795.5l282.2,5.5l-14.1-53c0-0.1-2.7-12.6-11.5-24.8
					c-11.6-16.2-27.8-24.4-48.1-24.4H141.4l-57.6,10.8c-0.7,0.1-6.8,1.4-6.8,8.4c0,9.1,0.2,10,3.2,11.8l1.7,1L45,795.5z"/>
				<path class="st1" d="M329.8,804.9C329.8,804.9,329.8,804.9,329.8,804.9l-49.3-1c-1,0-1.8-0.7-1.9-1.7c0-0.2-2.9-20-12.4-44.6
					c-16.3-41.7-34-47.9-43.1-47.9H82.5c-1,0-1.8-0.7-2-1.6s0.3-1.9,1.2-2.2c0.6-0.2,1.1-0.3,1.4-0.3l57.7-10.8c0.1,0,0.2,0,0.4,0
					h112.3c27.1,0,42.9,14.3,51.4,26.2c9,12.6,11.8,25,12,26.1l14.8,55.4c0.2,0.6,0,1.3-0.4,1.8C331,804.6,330.4,804.9,329.8,804.9z
					 M282.2,799.9l45,0.9L313.1,748c0,0,0-0.1,0-0.1c0-0.1-2.7-12.6-11.5-24.8c-11.6-16.2-27.8-24.4-48.1-24.4H141.4l-37.5,7H223
					c12.4,0,30.6,8.8,46.9,50.5C277.9,777,281.3,794.6,282.2,799.9z"/>
				<path class="st1" d="M223.8,802.9C223.8,802.9,223.8,802.9,223.8,802.9l-182.2-3.5c-0.7,0-1.4-0.4-1.7-1s-0.3-1.4,0-2l37.6-65.9
					c0.4-0.6,1-1,1.7-1h110.3c0,0,0.1,0,0.1,0c0.5,0,13.2,0.9,18.8,10.1c0,0.1,0.1,0.1,0.1,0.2c0.1,0.2,7.4,15.5,11.7,30
					c0.1,0.4,0.2,0.7,0.3,1.1c0.2,0.5,0.3,1.1,0.4,1.7c1.3,5.2,2.7,12.4,3.6,19.1c0.8,5.2,1.2,9,1.2,9.2c0.1,0.6-0.1,1.1-0.5,1.6
					C224.9,802.7,224.4,802.9,223.8,802.9z M45,795.5l176.5,3.4c-0.2-1.6-0.5-4-0.9-6.8c-0.9-6.6-2.3-13.6-3.6-18.7
					c-0.1-0.5-0.3-1-0.4-1.5c-0.1-0.4-0.2-0.8-0.3-1.1c-4-13.5-10.8-28-11.4-29.2c-4.4-7.1-14.7-8-15.5-8.1H80.4L45,795.5z"/>
			</g>
		</g>
		<g id="back-wheel">
			<g>
				<path id="Tire_1_" class="st0" d="M1043.3,1514.8c206.9,0,374.7-167.8,374.7-374.7c0-206.9-167.8-374.7-374.7-374.7
					c-206.9,0-374.7,167.8-374.7,374.7C668.6,1347,836.4,1514.8,1043.3,1514.8z"/>
				<path class="st1" d="M1043.3,1517.8c-51,0-100.5-10-147-29.7c-45-19-85.4-46.3-120.1-80.9c-34.7-34.7-61.9-75.1-80.9-120.1
					c-19.7-46.6-29.7-96-29.7-147s10-100.5,29.7-147c19-45,46.3-85.4,80.9-120.1c34.7-34.7,75.1-61.9,120.1-80.9
					c46.6-19.7,96-29.7,147-29.7s100.5,10,147,29.7c45,19,85.4,46.3,120.1,80.9c34.7,34.7,61.9,75.1,80.9,120.1
					c19.7,46.6,29.7,96,29.7,147s-10,100.5-29.7,147c-19,45-46.3,85.4-80.9,120.1s-75.1,61.9-120.1,80.9
					C1143.8,1507.8,1094.3,1517.8,1043.3,1517.8z M1043.3,768.4c-50.2,0-98.9,9.8-144.7,29.2c-44.3,18.7-84,45.5-118.1,79.7
					c-34.1,34.1-60.9,73.9-79.7,118.1c-19.4,45.8-29.2,94.5-29.2,144.7s9.8,98.9,29.2,144.7c18.7,44.3,45.5,84,79.7,118.1
					c34.1,34.1,73.9,60.9,118.1,79.7c45.8,19.4,94.5,29.2,144.7,29.2s98.9-9.8,144.7-29.2c44.3-18.7,84-45.5,118.2-79.7
					c34.1-34.1,60.9-73.9,79.7-118.1c19.4-45.8,29.2-94.5,29.2-144.7s-9.8-98.9-29.2-144.7c-18.7-44.3-45.5-84-79.7-118.1
					c-34.1-34.1-73.9-60.9-118.2-79.7C1142.2,778.2,1093.5,768.4,1043.3,768.4z"/>
			</g>
			<g id="Stroke_2">
				<path class="st1" d="M1040.2,1434.2c-78.6,0-152.6-30.6-208.2-86.2c-55.6-55.6-86.2-129.5-86.2-208.2
					c0-78.6,30.6-152.6,86.2-208.2c55.6-55.6,129.5-86.2,208.2-86.2c78.6,0,152.6,30.6,208.2,86.2s86.2,129.5,86.2,208.2
					c0,78.6-30.6,152.6-86.2,208.2S1118.8,1434.2,1040.2,1434.2z M1040.2,849.4c-77.6,0-150.5,30.2-205.3,85.1
					c-54.8,54.8-85.1,127.8-85.1,205.3c0,77.6,30.2,150.5,85.1,205.3s127.8,85.1,205.3,85.1c77.6,0,150.5-30.2,205.3-85.1
					c54.8-54.8,85.1-127.8,85.1-205.3c0-77.6-30.2-150.5-85.1-205.3C1190.7,879.6,1117.8,849.4,1040.2,849.4z"/>
				<path class="st1" d="M1040.6,1418.5c-8.6,0-17.3-0.4-26-1.2c-153-14.1-266-150-251.9-303c14.2-153,150.1-266,303-251.9
					c74,6.8,141,42.1,188.7,99.4c47.6,57.3,70.1,129.6,63.3,203.6c-6.8,74-42.1,141-99.4,188.7
					C1167.7,1396.1,1105.4,1418.5,1040.6,1418.5z M1039.9,865.2c-140.1,0-260.1,107.2-273.3,249.5
					c-13.9,150.8,97.5,284.7,248.3,298.6c8.6,0.8,17.1,1.2,25.6,1.2c63.9,0,125.3-22.1,175.1-63.5c56.4-46.9,91.2-113,97.9-185.9
					c13.9-150.8-97.5-284.7-248.3-298.6l0,0C1056.8,865.6,1048.3,865.2,1039.9,865.2z"/>
				<path class="st1" d="M1040.2,1400.2c-69.6,0-134.9-27.1-184.1-76.3c-49.2-49.2-76.3-114.6-76.3-184.1
					c0-69.6,27.1-134.9,76.3-184.1c49.2-49.2,114.6-76.3,184.1-76.3s134.9,27.1,184.1,76.3c49.2,49.2,76.3,114.6,76.3,184.1
					c0,69.6-27.1,134.9-76.3,184.1C1175.1,1373.1,1109.8,1400.2,1040.2,1400.2z M1040.2,883.4c-68.5,0-132.9,26.7-181.3,75.1
					s-75.1,112.8-75.1,181.3s26.7,132.9,75.1,181.3s112.8,75.1,181.3,75.1s132.9-26.7,181.3-75.1c48.4-48.4,75.1-112.8,75.1-181.3
					s-26.7-132.9-75.1-181.3C1173.1,910.1,1108.7,883.4,1040.2,883.4z"/>
				<path class="st1" d="M1132.2,1366.3l-0.2,0l-1.6-0.2l-0.4-0.3c-1.4-1-2.5-2.4-3.4-4.2l-70.1-151.6l2.3-0.6
					c12.6-3.3,24.2-10,33.5-19.5l1.6-1.7l99.7,133.6c0.9,0.7,2.5,3.3,2.2,6.2l-0.1,0.4c-0.5,1.5-1.4,2.8-2.7,3.7
					c-0.7,0.6-3.1,2.6-6.9,5.5c-7,5-13.5,9.4-20.2,13.3c-15.7,9.3-28.2,14.3-30.2,14.7C1134.5,1366.1,1133.3,1366.3,1132.2,1366.3z
					 M1132,1362.3l0.3,0c0.7,0,1.6-0.2,2.3-0.4l0.3-0.1h0.2c1.7-0.6,12.8-4.8,28.7-14.2c6.5-3.9,13-8.2,19.8-13.1
					c4.1-3.1,6.4-5.1,6.7-5.3l0.2-0.2c0.6-0.4,1-0.9,1.3-1.6c0-0.9-0.3-1.7-0.6-2.2l-0.7-0.7l-97.1-130.2
					c-8.9,8.6-19.7,14.8-31.4,18.3l68.1,147.3C1130.7,1360.8,1131.3,1361.6,1132,1362.3z M910.4,1345.3l-1.8-0.2
					c-1.1-0.2-2-0.5-2.9-1h-0.5l-0.5-0.4c-3.7-2.2-13.7-8.5-26.3-19.7c-13.4-11.7-21.3-20.9-23.3-23.5l0-0.1c-0.6-0.6-1-1.3-1.3-2.1
					c-0.4-0.7-0.5-1.4-0.6-1.9l-0.1-0.4l0.1-0.4c0.4-1.9,1.4-3.7,2.8-4.9l0.2-0.2l122.6-113.5l1.3,2c7.1,11.1,17.3,19.8,29.4,25.3
					l2.2,1L915,1341.6c-1.2,1.6-2.5,2.7-4.1,3.5L910.4,1345.3z M909.3,1341.2l0.3,0c0.8-0.5,1.6-1.2,2.2-2l93.7-132.2
					c-11.1-5.5-20.6-13.6-27.6-23.7l-119.3,110.4c-0.7,0.6-1.2,1.5-1.5,2.4c0,0.2,0.1,0.3,0.2,0.4l0.2,0.4c0.1,0.3,0.3,0.6,0.5,0.8
					c0,0,0.1,0.1,0.2,0.3c2,2.5,9.7,11.5,22.9,23c12.2,10.7,21.8,16.9,25.5,19.1h0.2l0.5,0.3C907.8,1340.8,908.5,1341,909.3,1341.2z
					 M1112.1,1145.9l0.1-2.3c0.6-13.3-2.4-26.4-8.8-37.8l-1.2-2.1l158.1-53.8c1.4-0.4,2.8-0.6,4.1-0.5c0.5,0,1,0.2,1.3,0.5
					c0.1,0.1,0.2,0.1,0.2,0.1l0.4,0.1l0.3,0.3c1.1,0.9,2,2,2.6,3.3c1,1.4,6.2,13.9,10.2,32c4.2,19,5,31.4,5,33h0
					c0.1,1.5-0.3,3.2-1.1,4.7l-0.1,0.3l-0.3,0.3c-1.3,1.6-3.2,2.5-5.2,2.6l-0.3,0L1112.1,1145.9z M1108.1,1105.8
					c5.6,10.9,8.4,23.1,8.2,35.5l160.9-18.8h0.3c0.9-0.1,1.8-0.5,2.4-1.3l0.1-0.1c0.4-0.8,0.6-1.6,0.5-2.2l0-0.1
					c0-0.6-0.8-13.2-5-32.3c-4-18.1-8.7-28.8-9.4-30.3l-0.3-0.3l-0.2-0.4c-0.3-0.7-0.7-1.3-1.2-1.8c-0.3-0.1-0.5-0.2-0.7-0.4l-0.1,0
					c-0.8,0-1.6,0.1-2.4,0.4l-0.4,0.1L1108.1,1105.8z M968.5,1132.3l-159.2-49.4c-1.8-0.8-3.3-2-4.6-3.5l-0.3-0.3l-0.1-0.4
					c-0.4-1.3-0.4-2.8-0.1-4.3l0,0c0.5-2.3,3.9-14.8,11-31.6c4.6-10.6,10-20.8,15.1-28.7c0.1-0.1,0.1-0.2,0.2-0.3l0.3-0.6
					c0.5-0.8,1.9-2.7,3.4-3l0.5-0.1l0.4-0.6l1.1,0.1c1.2,0.1,2.1,0.4,3.1,1l0.6,0.2l145.8,81.6l-1.5,1.8
					c-8.3,10.1-13.6,22.4-15.4,35.6L968.5,1132.3z M810.8,1079.2l154.3,47.9c2-12.2,7-23.7,14.4-33.4L838,1014.5l-0.7-0.3
					c-0.2-0.1-0.3-0.2-0.5-0.3l-0.1,0.1l-1.6,0.1c-0.2,0.2-0.6,0.7-1,1.2l-0.1,0.3l0,0c-0.1,0.2-0.2,0.4-0.4,0.6
					c-5,7.7-10.2,17.7-14.8,28.1c-7.7,18.2-10.6,30.3-10.8,30.8c-0.1,0.7-0.1,1.4,0,2.1C808.9,1078,809.8,1078.7,810.8,1079.2z
					 M1067.6,1072.9l-2.2-0.9c-6.1-2.4-12.4-3.8-18.8-4.3c-6.6-0.5-13.1-0.2-19.3,1l-2.3,0.4l-2.2-167l0.1-0.8
					c0.1-1.5,0.6-2.9,1.4-4.2v-0.5l1-0.7c1.4-0.9,2.9-1.3,4.3-1.3l0.2,0c3.2-0.3,15.1-1,32.9,0.7c15,1.4,28,3.9,32.2,5.3h0.4
					l0.3,0.1c1.6,0.4,2.9,1.2,3.9,2.1l0.2,0.2l0.1,0.3c1.3,2.3,1.2,5.2,0.4,6.5L1067.6,1072.9z M1040.6,1063.6
					c2.1,0,4.2,0.1,6.3,0.2c6,0.4,12,1.7,17.7,3.7l31.6-158.5v-2.6l0.4,0.1c-0.1-0.3-0.2-0.7-0.3-1c-0.4-0.3-1-0.6-1.7-0.8h-0.7
					l-0.2-0.2c-2.1-0.6-13.1-3.4-31.4-5.1c-17.4-1.6-29-1-32.2-0.7c-0.2,0-0.3,0-0.3,0h-0.2c-0.6,0-1.2,0.2-1.8,0.5
					c-0.5,0.8-0.8,1.7-0.9,2.6l-0.1,0.7l2.2,162C1032.7,1063.9,1036.6,1063.6,1040.6,1063.6z"/>
				<path class="st1" d="M1032.3,1237.4c-0.6,0-1.3,0-1.9-0.1c-2.2-0.1-4.2-0.5-5.8-1.3c-9.5-4.2-14-15.7-10-25.7l0.1-0.1
					c4.1-8.1,11.5-12.5,20-11.8c2,0,4,0.5,5.9,1.3c9.5,4.2,14,15.7,10,25.7l-0.1,0.1C1046.7,1233,1040,1237.4,1032.3,1237.4z
					 M1018.3,1211.9c-3.2,8,0.3,17.1,7.9,20.4c1.2,0.5,2.7,0.8,4.5,0.9c6.8,0.6,12.8-2.9,16.2-9.5c3.2-8-0.3-17.1-7.9-20.4
					c-1.4-0.6-2.9-0.9-4.4-0.9l-0.2,0C1027.7,1201.8,1021.7,1205.3,1018.3,1211.9z M1112.4,1190.1c-0.6,0-1.2,0-1.8-0.1
					c-4.1-0.2-8-1.9-11.3-4.9c-4.2-3.7-6.6-8.7-6.9-14.2c-0.2-5.1,1.5-9.9,5-13.6c4.1-4.5,10.1-6.9,16.2-6.3l0,0
					c4.9,0.5,8.7,2.1,11.3,5c4.2,3.7,6.6,8.7,6.9,14.1c0.2,5.1-1.5,9.9-5,13.6C1123.2,1187.7,1117.9,1190.1,1112.4,1190.1z
					 M1111.9,1154.9c-4.4,0-8.6,1.9-11.5,5.1c-2.7,2.9-4.1,6.7-3.9,10.7c0.2,4.3,2.2,8.4,5.6,11.4c2.6,2.4,5.6,3.7,8.9,3.9
					c4.9,0.4,9.8-1.4,13-5c2.7-2.9,4.1-6.7,3.9-10.7c-0.2-4.3-2.2-8.4-5.6-11.4l-0.1-0.1c-2-2.1-4.9-3.4-8.8-3.8
					C1112.9,1154.9,1112.4,1154.9,1111.9,1154.9z M964.1,1176.3c-0.6,0-1.2,0-1.8-0.1c-10.7-1-18.6-10.5-17.6-21.2
					c1-10.7,10.5-18.6,21.2-17.6l0,0c10.7,1.1,18.6,10.6,17.6,21.2C982.5,1168.7,974,1176.3,964.1,1176.3z M964.1,1141.3
					c-7.9,0-14.6,6-15.4,14.1c-0.8,8.5,5.5,16,14,16.8c8.5,0.8,16-5.5,16.8-14c0.8-8.4-5.5-15.9-14-16.8
					C965,1141.3,964.6,1141.3,964.1,1141.3z M1090.9,1100.6c-0.4,0-0.8,0-1.2,0l-0.1,0c-6.2-0.7-11.6-4-14.8-9.2l-0.1-0.1
					c-5.1-9.3-2-21.1,7-26.8c3.6-2.1,7.7-3,12-2.8l0.1,0c6,0.6,11.6,4,14.8,9.2l0.1,0.1c5.1,9.3,2,21.1-7,26.8
					C1098.4,1099.7,1094.7,1100.6,1090.9,1100.6z M1090,1096.6c3.5,0.2,6.8-0.6,9.6-2.2c7.2-4.5,9.6-13.9,5.6-21.4
					c-2.6-4.1-6.9-6.9-11.7-7.3c-3.5-0.2-6.8,0.6-9.7,2.2c-7.2,4.5-9.6,13.9-5.6,21.4C1080.8,1093.4,1085,1096.1,1090,1096.6z
					 M1001.4,1092.4c-0.9,0-1.7-0.1-2.5-0.2c-8.7-0.7-15.7-6.9-17.5-15.4c-1.2-5.3-0.2-10.9,2.7-15.3c2.7-4.2,6.9-7.1,11.9-8.1
					c2.2-0.4,4.1-0.4,5.9-0.1c8.5,0.7,15.7,7,17.5,15.4c1.2,5.3,0.2,10.9-2.7,15.3c-2.7,4.2-6.9,7.1-11.9,8.1
					C1003.7,1092.3,1002.5,1092.4,1001.4,1092.4z M999.4,1057c-0.8,0-1.7,0.1-2.7,0.3c-3.8,0.8-7.1,3.1-9.3,6.4
					c-2.3,3.6-3.1,8-2.1,12.3c1.4,6.8,7.1,11.7,14,12.2l0.2,0c1.4,0.2,2.9,0.2,4.6-0.1c3.8-0.8,7.1-3.1,9.3-6.4
					c2.3-3.6,3.1-8,2.1-12.3c-1.4-6.7-7.2-11.7-14-12.2l-0.2,0C1000.8,1057.1,1000.1,1057,999.4,1057z"/>
				<path class="st1" d="M1040.5,1363.9c-31.3,0-62.7-6.5-91.5-19.3c-8.3-4.1-12.7-11.6-11.9-20.1c0.1-2.2,0.5-4.2,1.3-5.8l0.1-0.1
					l0.4-0.8c0.6-1.1,1.2-2.2,1.9-3.3l0.2-0.3l2-2.1l51.6-57.5c9.4-10.8,22.7-16.3,36.5-15.1c7,0.6,13.8,3,19.7,6.9
					c5.7,3.8,10.3,8.8,13.4,14.6l40.2,66l1.7,2.8c0.3,0.7,0.5,1.5,0.8,2.3c0.2,0.7,0.4,1.4,0.6,1.9l0.1,0.3c0.5,2.1,0.5,4.1,0,6
					c-0.7,8.7-6.9,15.7-15.4,17.5C1075.3,1361.9,1057.9,1363.9,1040.5,1363.9z M942,1320.4c-0.5,1.2-0.8,2.6-0.9,4.4
					c-0.6,6.9,3,12.9,9.6,16.2c43.9,19.5,93.9,24.1,140.6,12.9c6.8-1.4,11.7-7.1,12.3-14l0-0.3c0.3-1.4,0.3-2.8,0-4.3
					c-0.3-0.7-0.5-1.4-0.7-2.1c-0.2-0.6-0.4-1.3-0.6-1.8l-1.5-2.3l-40.3-66.1c-2.8-5.2-7-9.8-12.1-13.2c-5.4-3.5-11.5-5.7-17.9-6.3
					c-12.5-1.2-24.5,3.8-33.1,13.7l-51.6,57.5l-1.9,2c-0.5,0.8-1.1,1.8-1.6,2.8L942,1320.4z M1191.9,1295.4c-0.6,0-1.2,0-1.8-0.1
					c-2.2-0.1-4.2-0.5-5.8-1.3c-1.6-0.6-3.3-1.7-4.8-2.9c-1-0.7-1.6-1.6-2.1-2.4c-0.3-0.4-0.5-0.8-0.8-1.1l-0.1-0.2l-1.6-2.5
					l-38.5-67c-7.5-11.1-8.7-26.1-3.1-39c5.3-12.9,16.8-22.2,30.5-25l75-17.8l2.2-0.4c1.4-0.4,3.1-0.5,4.8-0.2
					c0.9,0.1,1.8,0.3,2.5,0.4c0.7,0.1,1.6,0.3,1.9,0.2l0.8-0.3l0.8,0.4c7.5,3.6,12.5,12,11.7,20.1l0,0c-2.2,24.5-8.2,48.5-17.6,71.2
					c-9.1,21.5-22,41.7-39.3,61.5C1202.7,1293,1197.4,1295.4,1191.9,1295.4z M1179.7,1285.1c0.4,0.5,0.7,1,1,1.4
					c0.4,0.6,0.7,1.1,1.1,1.3l0.2,0.2c1.2,1,2.6,1.9,3.9,2.4c1.3,0.6,2.7,0.9,4.6,1c4.9,0.4,9.8-1.4,13-5
					c17-19.5,29.7-39.3,38.6-60.4c9.3-22.3,15.2-45.9,17.3-70v0c0.6-6.2-3.1-12.8-8.9-15.8c-1,0.1-2.1-0.1-3.1-0.3
					c-0.7-0.1-1.4-0.3-2.1-0.3l-0.1,0c-1.2-0.2-2.3-0.1-3.2,0.1l-0.2,0.1l-2.2,0.4l-74.9,17.8c-12.5,2.5-22.9,10.9-27.7,22.6
					c-5,11.8-3.9,25.3,2.8,35.3l0.1,0.1l38.5,67L1179.7,1285.1z M867.3,1266.2c-0.9,0-1.7-0.1-2.5-0.2c-6.2-0.7-11.5-4.1-14.7-9.2
					c-12.9-20.9-22.2-43.6-27.5-67.7c-5.8-23.8-7.3-48.4-4.4-73.3c0.8-8.6,7-15.6,15.4-17.5l0.3-0.1l0.3,0c0.7,0.1,1.5,0,2.3-0.1
					c0.9-0.1,1.9-0.2,3,0l0.2,0c1.7,0.4,3.2,1,4.5,1.8l2.1,0.8l70.5,31.2c12.7,5,22.5,16.4,25.4,29.9c0.9,3.9,1.2,8,0.9,12.6l0,0.1
					c-0.9,9.3-4.9,18.3-11.1,25.2l-50.1,58.9l-1.9,2c-1.1,1.4-2.3,2.3-3.7,3c-1.7,1.2-3.6,1.9-5.5,2.1
					C869.4,1266.1,868.3,1266.2,867.3,1266.2z M833.9,1102.2c-6.5,1.6-11.3,7.2-11.9,14c-2.8,24.4-1.4,48.6,4.4,71.9
					c5.3,23.7,14.4,46,27.1,66.5c2.6,4.1,6.9,6.8,11.8,7.4l0.1,0c1.4,0.2,2.9,0.2,4.6-0.1l0.1,0c1.3-0.2,2.7-0.7,3.9-1.5l0.3-0.2
					c0.9-0.4,1.7-1,2.5-2l0.1-0.1l2-2.1l50.1-58.9c5.7-6.3,9.3-14.5,10.1-23c0.2-4.3-0.1-8-0.9-11.5l0,0
					c-2.6-12.2-11.5-22.5-23.1-27.1l-70.5-31.2l-2.4-0.9l-0.2-0.1c-0.9-0.6-1.9-1-3.2-1.3c-0.7-0.1-1.4,0-2.2,0.1
					C835.8,1102.2,834.9,1102.3,833.9,1102.2z M1136.1,1074.8c-1.4,0-2.7-0.1-4.1-0.2c-16.3-1.4-30.4-12.1-36.1-27.4
					c-2.4-6.2-3.3-13.1-2.7-19.9l5.9-77l0.3-3c0.1-1.7,0.5-3.2,1.1-4.5c0.6-1.8,1.6-3.6,3.1-5c4.1-4.5,10.2-6.9,16.2-6.3
					c2.2,0.2,4.5,0.6,6.7,1.3l0.2,0.1c21.6,8.8,42.5,21.8,62.2,38.8c18.6,16.3,34.2,35.3,46.4,56.3c4.2,7.1,3.5,16.2-1.9,22.7
					c-1.5,1.8-3.1,3.2-5,4.1c-1.2,0.9-2.6,1.6-4,2.2l-0.4,0.1l-2.3,0.4l-75.4,16C1142.9,1074.4,1139.5,1074.8,1136.1,1074.8z
					 M1118.1,935.4c-4.4,0-8.6,1.9-11.5,5.1l-0.1,0.1c-1.1,1.1-1.8,2.3-2.2,3.5l-0.1,0.3c-0.4,0.9-0.7,2-0.8,3.2l-0.3,3l-5.9,76.9
					c-0.6,6.2,0.3,12.4,2.5,18.1c5.1,13.9,17.9,23.6,32.7,24.8c4.3,0.5,8.7,0.1,13-1l0.1,0l75.5-16l2.2-0.4c1.1-0.4,2.2-1,3.1-1.7
					l0.3-0.2c1.5-0.7,2.7-1.7,3.8-3.2c4.3-5.2,4.9-12.5,1.5-18.1l0,0c-12-20.6-27.3-39.3-45.6-55.3c-19.3-16.7-39.8-29.5-60.9-38.1
					c-1.9-0.5-3.9-0.9-5.8-1.1C1119,935.4,1118.6,935.4,1118.1,935.4z M967.2,1059.1c-1.4,0-2.8-0.1-4.2-0.2c-2.8-0.2-5-0.6-7.1-1.2
					c-2.5-0.7-4.7-1.5-6.7-2.6l-71.2-29.5l-2.3-0.9c-0.9-0.5-1.7-1.1-2.3-1.8c-0.4-0.4-0.8-0.7-1.1-1l-0.2-0.1
					c-1.3-1.1-2.2-2.3-3-3.4c-0.3-0.5-0.7-0.9-1-1.3l-0.2-0.3c-4.2-7.2-3.3-16.3,2.1-22.6c16-18.9,34.9-34.7,55.9-46.9
					c21.1-12.9,44-21.9,68.2-26.8c2.2-0.4,4.1-0.4,6-0.1c5.9,0.6,11.5,3.9,15.8,9.1l0.1,0.1c1.2,1.7,2,3.7,2.3,5.7l0,0.2l0,0.2
					c0,0.4,0,1,0.1,1.6c0.1,0.9,0.2,1.7,0,2.5l-0.3,2.8l-8.3,76.8c-1.3,13.9-9.1,26.5-20.9,33.8
					C982.2,1057.1,974.8,1059.1,967.2,1059.1z M877.4,1021.2l2.1,0.8l71.6,29.6c1.8,1,3.7,1.7,5.9,2.3c1.9,0.5,3.9,0.8,6.4,1
					c8.3,0.8,16.4-1,23.3-5.1c10.8-6.6,17.9-18.1,19-30.8l8.3-76.8l0.3-3.1c0-0.2,0-0.9-0.1-1.4c-0.1-0.7-0.1-1.4-0.1-2
					c-0.2-1.2-0.7-2.5-1.5-3.6c-3.7-4.4-8.3-7.1-13.1-7.6l-0.1,0c-1.4-0.2-2.9-0.2-4.6,0.1c-23.7,4.8-46.2,13.7-66.9,26.3
					c-20.7,12-39.2,27.5-54.9,46.1c-4.3,5-5,12.2-1.8,17.9c0.4,0.5,0.7,1,1.1,1.5c0.6,0.9,1.3,1.8,2.2,2.6c0.6,0.4,1.1,0.8,1.6,1.3
					C876.5,1020.5,877,1020.9,877.4,1021.2z"/>
				<path class="st1" d="M1040.2,1190.3c-27.8,0-50.5-22.7-50.5-50.5s22.7-50.5,50.5-50.5s50.5,22.7,50.5,50.5
					S1068,1190.3,1040.2,1190.3z M1040.2,1093.3c-25.6,0-46.5,20.9-46.5,46.5s20.9,46.5,46.5,46.5s46.5-20.9,46.5-46.5
					S1065.8,1093.3,1040.2,1093.3z"/>
				<path class="st1" d="M1018.5,1385.8c-0.3,0-0.6,0-0.9,0c-2.6-0.2-4.9-1.5-6.5-3.4c-1.6-2-2.4-4.5-2.2-7
					c0.5-5.3,5.2-9.2,10.5-8.7c5.3,0.4,9.1,5,8.7,10.4c-0.2,2.6-1.5,4.9-3.4,6.6C1022.9,1385.1,1020.8,1385.8,1018.5,1385.8z
					 M1018.5,1370.6c-2.9,0-5.3,2.2-5.6,5.1c-0.1,1.5,0.3,3,1.3,4.1c1,1.2,2.3,1.9,3.8,2c1.5,0.1,3-0.3,4.1-1.3c1.2-1,1.9-2.3,2-3.8
					c0.2-3.2-2-5.9-5.1-6.1l0,0C1018.8,1370.6,1018.7,1370.6,1018.5,1370.6z M1093.1,1381.7c-0.3,0-0.7,0-1-0.1
					c-4.3-0.2-8-3.4-8.9-7.6c-0.9-5.3,2.4-10.5,7.3-11.7c0.8-0.6,2-0.8,3.4-0.5c3.7,0.3,7,3,8.7,7.2l0.1,0.4
					c0.9,5.2-2.4,10.4-7.3,11.7C1094.8,1381.5,1094,1381.7,1093.1,1381.7z M1092.6,1365.6l-0.3,0.3l-0.7,0.1c-3,0.6-5.1,3.9-4.6,7.2
					c0.5,2.4,2.7,4.3,5.2,4.3l0.3,0c0.3,0,0.5,0.1,0.6,0l0.3-0.3l0.7-0.1c2.9-0.6,5.1-3.8,4.6-7c-1.2-2.7-3.1-4.4-5.3-4.5l-0.2,0
					C1093,1365.6,1092.8,1365.6,1092.6,1365.6z M946.7,1368c-0.2,0-0.4,0-0.6,0c-0.7,0-1.3-0.3-1.9-0.6c-0.2-0.1-0.5-0.2-0.6-0.3
					l-0.4-0.1c-5.1-2.1-7.5-7.8-5.5-13l0.1-0.1c1.8-3.7,5.7-6,10-5.7l0.1,0c0.8,0.1,1.8,0.3,2.9,1c4.7,2,7.1,7.8,5.3,12.8l-0.1,0.2
					C954.4,1365.8,950.8,1368,946.7,1368z M946.5,1364L946.5,1364L946.5,1364z M946.4,1364c2.6,0.1,4.9-1.2,6-3.4
					c1-3-0.5-6.6-3.3-7.8l-0.2-0.1l-0.2-0.1c-0.3-0.2-0.7-0.4-1.2-0.4c-2.6-0.1-5,1.2-6.1,3.4c-1.1,3,0.2,6.4,3.2,7.7
					c0.4,0.1,0.9,0.3,1.3,0.5C946,1363.9,946.3,1364,946.4,1364z M1218.8,1306c-0.1,0-0.3,0-0.4,0c-2.2-0.1-4.3-1.1-5.8-2.8
					c-3.9-3.6-4.3-9.5-0.9-13.7l0.3-0.3c2.2-1.9,5.2-2.9,8-2.8l0.1,0c1.9,0.2,3.8,1.2,5.5,2.7l0,0c3.9,3.8,4.3,9.8,0.9,13.8
					l-0.2,0.2C1224.2,1305,1221.4,1306,1218.8,1306z M1214.6,1292.1c-1.9,2.6-1.6,6.1,0.7,8.2l0.2,0.2c0.7,0.9,1.8,1.4,3,1.5
					c1.7,0.1,3.6-0.6,5.1-1.7c1.9-2.4,1.6-6-0.8-8.2c-0.7-0.7-1.9-1.5-3.2-1.7C1217.9,1290.3,1216.1,1291,1214.6,1292.1z
					 M835.9,1270.8c-0.3,0-0.6,0-1-0.1c-3.2-0.3-6-1.9-7.6-4.4c-1.3-2.4-1.6-5.3-0.9-8c0.7-2.5,2.3-4.5,4.4-5.6
					c1.8-1.1,3.4-1.9,5.9-1.7l0,0c2.6,0.3,6.1,1.9,7.6,4.5c1.3,2.3,1.6,5.2,0.8,7.9c-0.7,2.5-2.3,4.5-4.4,5.6
					C839.3,1270.1,837.9,1270.8,835.9,1270.8z M835.9,1255.1c-0.8,0-1.5,0.3-2.9,1.2l-0.1,0.1c-1.2,0.6-2,1.8-2.5,3.2
					c-0.5,1.6-0.3,3.5,0.5,4.8c0.9,1.4,2.5,2.3,4.5,2.5c1.2,0.1,1.8-0.1,3.5-1.1l0.1-0.1c1.2-0.6,2-1.8,2.5-3.2
					c0.5-1.6,0.3-3.5-0.5-4.8c-0.6-1.1-2.7-2.2-4.6-2.5C836.2,1255.1,836,1255.1,835.9,1255.1z M1258,1243.4c-0.2,0-0.4,0-0.6,0
					c-0.7,0-1.3-0.3-1.9-0.6c-0.2-0.1-0.5-0.2-0.6-0.3l-0.4-0.1c-5.1-2.1-7.5-7.8-5.5-13l0.1-0.1c1.8-3.7,5.7-6,10-5.7
					c1.1,0.1,2.3,0.2,3.3,1.1c4.6,2.1,6.9,7.8,5.1,12.8l-0.1,0.2C1265.7,1241.2,1262.1,1243.4,1258,1243.4z M1257.8,1239.4
					C1257.8,1239.4,1257.8,1239.4,1257.8,1239.4L1257.8,1239.4z M1257.7,1239.4c2.6,0.1,4.9-1.2,6-3.4c0.5-1.4,0.5-3.1-0.1-4.6
					c-0.6-1.5-1.7-2.6-3.1-3.2l-0.6-0.2l-0.2-0.4c-0.2,0-0.7-0.1-0.8-0.1c-2.6-0.1-5,1.1-6.1,3.4c-1.1,3,0.2,6.4,3.2,7.7
					c0.4,0.1,0.9,0.3,1.3,0.5C1257.3,1239.3,1257.6,1239.4,1257.7,1239.4z M809,1202.3c-0.3,0-0.7,0-1.1-0.1c-4.3-0.2-8-3.4-8.9-7.6
					c-0.9-5.3,2.4-10.5,7.2-11.7c0.8-0.6,2-0.8,3.5-0.5c3.4,0.3,6.6,2.9,8.7,7.1l0.1,0.3l0,0.3c0.9,5.2-2.4,10.4-7.3,11.7
					C810.7,1202.1,809.9,1202.3,809,1202.3z M808.5,1186.2l-0.3,0.3l-0.7,0.1c-3,0.6-5.1,3.9-4.6,7.2c0.5,2.4,2.7,4.3,5.2,4.3l0.3,0
					c0.3,0,0.5,0.1,0.6,0l0.3-0.3l0.7-0.1c2.9-0.6,5-3.8,4.6-6.9c-1.4-2.7-3.4-4.5-5.3-4.6l-0.2,0
					C808.9,1186.2,808.7,1186.2,808.5,1186.2z M1276.7,1171.2c-0.3,0-0.6,0-0.9,0c-5.3-0.5-9.2-5.2-8.7-10.5
					c0.2-2.6,1.5-4.9,3.4-6.5c2-1.6,4.5-2.4,7-2.2c3,0.3,5.7,1.7,7.3,4.1c1.4,2,1.9,4.3,1.4,6.6
					C1285.7,1167.6,1281.6,1171.2,1276.7,1171.2z M1276.7,1156c-1.3,0-2.6,0.5-3.6,1.3c-1.2,1-1.9,2.3-2,3.8c-0.3,3.1,2,5.8,5.1,6.1
					c3.1,0.3,5.8-2,6.1-5.1l0-0.3c0.4-1.5-0.2-2.7-0.7-3.4c-1-1.3-2.6-2.2-4.4-2.4l0,0C1277,1156,1276.8,1156,1276.7,1156z
					 M803.8,1127.7c-0.2,0-0.5,0-0.7,0c-5.3-0.5-9.3-5.2-8.7-10.5c0.2-2.6,1.5-4.9,3.4-6.5c2-1.6,4.5-2.4,7-2.2
					c5.2,0.6,9.1,5.3,8.7,10.4l0,0C813,1124,808.8,1127.7,803.8,1127.7z M803.9,1112.5c-1.3,0-2.5,0.5-3.5,1.3c-1.2,1-1.9,2.3-2,3.8
					c-0.3,3.1,2,5.8,5.1,6.1c3.1,0.2,5.8-2,6.1-5.1c0.2-3-2.1-5.8-5.1-6.1C804.2,1112.5,804,1112.5,803.9,1112.5z M1244.6,1028.4
					c-0.3,0-0.6,0-0.9-0.1c-3.2-0.3-6-1.9-7.6-4.4c-1.3-2.4-1.6-5.3-0.9-8c0.7-2.5,2.3-4.5,4.4-5.6c1.8-1.1,3.4-1.9,5.9-1.7l0.1,0
					c3,0.5,5.6,2,7.3,4.2l0.2,0.3c1.3,2.3,1.6,5.2,0.8,7.9c-0.7,2.5-2.3,4.5-4.4,5.6C1248,1027.7,1246.6,1028.4,1244.6,1028.4z
					 M1244.5,1012.7c-0.8,0-1.5,0.3-2.9,1.2l-0.1,0.1c-1.2,0.6-2,1.8-2.5,3.2c-0.5,1.6-0.3,3.5,0.5,4.8c0.9,1.4,2.5,2.3,4.5,2.5
					c1.2,0.1,1.8-0.1,3.5-1.1l0.1-0.1c1.2-0.6,2-1.8,2.5-3.2c0.5-1.6,0.3-3.3-0.4-4.7c-1.1-1.4-2.8-2.3-4.7-2.6
					C1244.9,1012.7,1244.7,1012.7,1244.5,1012.7z M861,993c-0.1,0-0.3,0-0.4,0c-2.2-0.1-4.3-1.1-5.8-2.8c-3.9-3.6-4.3-9.5-0.9-13.7
					l0.3-0.3c2.2-1.9,5.1-2.9,8-2.8c0,0,0,0,0,0c2.1,0,4.2,1,5.8,2.8c3.9,3.6,4.3,9.5,0.9,13.7l-0.3,0.3
					C866.4,992,863.6,993,861,993z M856.8,979.1c-1.9,2.6-1.6,6.1,0.7,8.2l0.2,0.2c0.7,0.9,1.8,1.4,3,1.5c1.7,0.1,3.6-0.5,5-1.7
					c1.9-2.6,1.6-6.1-0.7-8.2l-0.2-0.2c-0.8-0.9-1.9-1.5-2.9-1.5C860.1,977.3,858.3,977.9,856.8,979.1z M1196.8,971.1
					c-0.1,0-0.3,0-0.4,0c-2.2-0.1-4.3-1.1-5.8-2.8c-3.9-3.6-4.3-9.5-0.9-13.7l0.3-0.3c2.2-1.9,5.1-2.9,8-2.8l0.2,0
					c2.1,0.2,4,1.2,5.6,2.8c3.9,3.8,4.3,9.7,0.9,13.8l-0.3,0.3C1202.2,970.1,1199.4,971.1,1196.8,971.1z M1192.6,957.2
					c-1.9,2.6-1.6,6.1,0.7,8.2l0.2,0.2c0.7,0.9,1.8,1.4,3,1.5c1.7,0.1,3.6-0.6,5.1-1.7c1.9-2.5,1.6-6-0.8-8.2l0,0
					c-0.9-0.9-2-1.5-3.1-1.6C1195.9,955.4,1194.1,956.1,1192.6,957.2z M918.7,945.6c-0.3,0-0.6,0-1-0.1c-3.2-0.3-6-1.9-7.6-4.4
					c-1.3-2.4-1.6-5.3-0.9-8c0.7-2.5,2.3-4.5,4.4-5.6c1.8-1.1,3.4-1.9,5.9-1.7l0,0c2.9,0.4,5.6,1.9,7.4,4.2l0.2,0.3
					c1.3,2.3,1.6,5.2,0.8,7.9c-0.7,2.5-2.3,4.5-4.4,5.6C922.1,944.9,920.7,945.6,918.7,945.6z M918.6,929.9c-0.8,0-1.5,0.3-2.9,1.2
					l-0.1,0.1c-1.2,0.6-2,1.8-2.5,3.2c-0.5,1.6-0.3,3.5,0.5,4.8c0.9,1.4,2.5,2.3,4.5,2.5c1.2,0.1,1.8-0.1,3.5-1.1l0.1-0.1
					c1.2-0.6,2-1.8,2.5-3.2c0.5-1.6,0.3-3.3-0.4-4.7c-1.2-1.4-2.9-2.4-4.7-2.6C919,929.9,918.8,929.9,918.6,929.9z M1134,931.4
					c-0.2,0-0.4,0-0.6,0l-0.2,0c-0.5-0.1-1.1-0.3-1.6-0.6c-0.2-0.1-0.4-0.2-0.5-0.2h-0.2l-0.4-0.1c-4.8-1.9-7.4-7.9-5.5-12.9
					l0.1-0.3c2-3.7,5.8-5.9,10-5.7l0.1,0c0.8,0.1,1.9,0.3,2.9,1c2.3,1,4.1,2.8,5.1,5.3c1,2.4,1.1,5.2,0.2,7.6l-0.1,0.2
					C1141.5,929.3,1137.9,931.4,1134,931.4z M1133.8,927.4c2.5,0.1,4.7-1.2,6-3.4c0.5-1.4,0.4-3.1-0.2-4.6c-0.6-1.5-1.7-2.6-3.1-3.2
					l-0.3-0.1l-0.3-0.2c-0.2-0.2-0.6-0.3-1.1-0.3c-2.5-0.1-4.8,1.2-6.1,3.4c-1,3,0.4,6.4,3.1,7.6c0.5,0.1,1,0.3,1.4,0.5
					C1133.4,927.3,1133.7,927.4,1133.8,927.4z M987.7,918c-0.3,0-0.7,0-1.1-0.1c-4.2-0.2-7.8-3.3-8.9-7.5l0-0.1
					c-0.9-5.2,2.4-10.4,7.3-11.7c0.9-0.6,2.1-0.8,3.5-0.5c4,0.5,7.4,3.4,8.7,7.4l0.1,0.3c0.9,5.2-2.4,10.4-7.3,11.7
					C989.4,917.8,988.6,918,987.7,918z M981.7,909.5c0.6,2.5,2.7,4.3,5.2,4.4l0.3,0c0.3,0,0.5,0.1,0.6,0l0.3-0.3l0.7-0.1
					c3-0.6,5.1-3.8,4.6-7.1c-0.8-2.5-2.9-4.2-5.4-4.5c-0.3-0.1-0.6-0.1-0.7-0.1l-0.3,0.3l-0.7,0.1
					C983.3,902.9,981.2,906.3,981.7,909.5z"/>
			</g>
		</g>
		<g id="front-wheel">
			<g>
				<path id="Tire_2_1_" class="st0" d="M3779.1,1512.5c204.3,0,370-165.7,370-370c0-204.3-165.7-370-370-370
					c-204.4,0-370,165.7-370,370C3409.1,1346.8,3574.8,1512.5,3779.1,1512.5z"/>
				<path class="st1" d="M3779.1,1515.5c-50.4,0-99.2-9.9-145.2-29.3c-44.4-18.8-84.3-45.7-118.6-79.9
					c-34.3-34.3-61.1-74.1-79.9-118.6c-19.5-46-29.3-94.8-29.3-145.2c0-50.4,9.9-99.2,29.3-145.2c18.8-44.4,45.7-84.3,79.9-118.6
					c34.3-34.3,74.1-61.1,118.6-79.9c46-19.5,94.8-29.3,145.2-29.3s99.2,9.9,145.2,29.3c44.4,18.8,84.3,45.7,118.6,79.9
					c34.3,34.3,61.1,74.1,79.9,118.6c19.5,46,29.3,94.8,29.3,145.2c0,50.4-9.9,99.2-29.3,145.2c-18.8,44.4-45.7,84.3-79.9,118.6
					c-34.3,34.3-74.1,61.1-118.6,79.9C3878.3,1505.6,3829.5,1515.5,3779.1,1515.5z M3779.1,775.5c-49.5,0-97.6,9.7-142.9,28.8
					c-43.7,18.5-83,44.9-116.7,78.7c-33.7,33.7-60.2,73-78.7,116.7c-19.1,45.2-28.8,93.3-28.8,142.9c0,49.5,9.7,97.6,28.8,142.9
					c18.5,43.7,44.9,83,78.7,116.7s73,60.2,116.7,78.7c45.2,19.1,93.3,28.8,142.9,28.8c49.5,0,97.6-9.7,142.9-28.8
					c43.7-18.5,83-44.9,116.7-78.7s60.2-73,78.7-116.7c19.1-45.2,28.8-93.3,28.8-142.9c0-49.5-9.7-97.6-28.8-142.9
					c-18.5-43.7-44.9-83-78.7-116.7c-33.7-33.7-73-60.2-116.7-78.7C3876.7,785.2,3828.6,775.5,3779.1,775.5z"/>
			</g>
			<g id="Stroke_3">
				<path class="st1" d="M3779.1,1436.9c-78.6,0-152.6-30.6-208.2-86.2c-55.6-55.6-86.2-129.5-86.2-208.2s30.6-152.6,86.2-208.2
					c55.6-55.6,129.5-86.2,208.2-86.2s152.6,30.6,208.2,86.2c55.6,55.6,86.2,129.5,86.2,208.2s-30.6,152.6-86.2,208.2
					S3857.7,1436.9,3779.1,1436.9z M3779.1,852.1c-77.6,0-150.5,30.2-205.3,85.1c-54.8,54.8-85.1,127.8-85.1,205.3
					s30.2,150.5,85.1,205.3s127.8,85.1,205.3,85.1s150.5-30.2,205.3-85.1s85.1-127.8,85.1-205.3s-30.2-150.5-85.1-205.3
					C3929.6,882.3,3856.7,852.1,3779.1,852.1z"/>
				<path class="st1" d="M3779.1,1421.1c-153.6,0-278.6-125-278.6-278.6s125-278.6,278.6-278.6c153.6,0,278.6,125,278.6,278.6
					S3932.7,1421.1,3779.1,1421.1z M3779.1,867.9c-151.4,0-274.6,123.2-274.6,274.6s123.2,274.6,274.6,274.6
					s274.6-123.2,274.6-274.6S3930.5,867.9,3779.1,867.9z"/>
				<path class="st1" d="M3779.1,1402.9c-69.6,0-134.9-27.1-184.1-76.3c-49.2-49.2-76.3-114.6-76.3-184.1s27.1-134.9,76.3-184.1
					c49.2-49.2,114.6-76.3,184.1-76.3c69.6,0,134.9,27.1,184.1,76.3c49.2,49.2,76.3,114.6,76.3,184.1s-27.1,134.9-76.3,184.1
					C3914,1375.8,3848.7,1402.9,3779.1,1402.9z M3779.1,886.1c-68.5,0-132.9,26.7-181.3,75.1c-48.4,48.4-75.1,112.8-75.1,181.3
					s26.7,132.9,75.1,181.3c48.4,48.4,112.8,75.1,181.3,75.1c68.5,0,132.9-26.7,181.3-75.1c48.4-48.4,75.1-112.8,75.1-181.3
					s-26.7-132.9-75.1-181.3C3912,912.8,3847.6,886.1,3779.1,886.1z"/>
				<path class="st1" d="M3891.4,1359.6h-1.7l-0.5-0.3c-1.5-0.9-2.7-2.2-3.8-3.9l-83.7-144.5l2.2-0.8c12.3-4.5,23.2-12.2,31.5-22.5
					l1.5-1.8l111.6,123.9c1.1,0.7,2.7,3.2,2.7,5.8v0.2l-0.1,0.2c-0.4,1.6-1.2,2.9-2.4,4c-0.8,0.8-2.9,2.9-6.4,6.1
					c-6.3,5.5-12.4,10.5-18.9,15.1c-14.2,10.3-26.1,16.5-28.7,17.4C3893.7,1359.2,3892.6,1359.5,3891.4,1359.6L3891.4,1359.6z
					 M3890.9,1355.6h0.3c0.7-0.1,1.5-0.3,2.2-0.6l0.4-0.2h0.2c1.8-0.9,12.4-5.9,27.2-16.7c6.3-4.6,12.4-9.4,18.5-14.9
					c3.5-3.2,5.5-5.2,6.2-6l0.1-0.1c0.5-0.5,0.9-1,1.1-1.7c-0.1-0.8-0.4-1.5-0.7-1.9l-0.8-0.8L3837.2,1192
					c-8,9.3-18.2,16.5-29.5,21.1l81.3,140.4C3889.5,1354.3,3890.1,1355,3890.9,1355.6z M3668.6,1359.1l-1.8,0
					c-1.2-0.1-2.2-0.3-3.1-0.7h-0.6l-0.4-0.4c-8.4-4.1-18.3-10.1-27.9-17.1c-15.7-11.4-24.5-20.4-25.4-21.4
					c-0.6-0.6-1.1-1.2-1.4-1.9c-0.4-0.7-0.7-1.4-0.8-2.1l-0.1-0.3l0-0.3c0.1-1.9,1-3.8,2.3-5.3l0.3-0.3l111.5-124.1l1.5,1.9
					c8.1,10.3,19,18.1,31.6,22.5l2.3,0.8l-1.2,2.1l-82.4,142.3c-1.1,1.7-2.3,3-3.8,3.9L3668.6,1359.1z M3667.1,1355.1h0.3
					c0.8-0.6,1.4-1.3,2-2.2l81.2-140.2c-11.6-4.5-21.8-11.8-29.7-21.2l-108.4,120.7l-0.2,0.2c-0.7,0.7-1.1,1.7-1.2,2.6
					c0.1,0.2,0.2,0.4,0.3,0.6l0.1,0.1c0.2,0.3,0.4,0.7,0.7,1c1,1,9.6,9.8,25,21c9.4,6.8,19.1,12.8,27.3,16.7h0.2l0.4,0.2
					C3665.5,1354.8,3666.2,1355,3667.1,1355.1z M3851.3,1141.8l-0.1-2.4c-0.6-13.3-4.8-26-12.2-36.9l-1.3-2l152.6-68
					c1.3-0.5,2.7-0.8,4-0.8c0.5,0,1,0.2,1.3,0.5c0.1,0,0.2,0.1,0.3,0.1l0.4,0.1l0.3,0.2c1.2,0.8,2.1,1.9,2.8,3
					c0.5,0.6,6.8,11.5,13,30.9c5.6,17.6,7.8,30.2,8.1,32.4l0,0c0.2,1.4,0.1,3.1-0.5,4.6l-0.2,0.4l-0.4,0.4c-1.3,1.7-3,2.7-4.9,3
					l-0.4,0L3851.3,1141.8z M3843.7,1102.4c6.6,10.4,10.5,22.2,11.4,34.6l158.6-33.6h0.4c0.8-0.1,1.6-0.7,2.3-1.5l0-0.1
					c0.2-0.8,0.3-1.6,0.2-2.2l0-0.2c-0.2-1-2.1-13.3-7.9-31.6c-5.6-17.7-11.4-28.2-12.2-29.5l-0.3-0.3l-0.1-0.3
					c-0.3-0.6-0.8-1.2-1.4-1.7c-0.3-0.1-0.5-0.2-0.8-0.3c-0.8,0.1-1.6,0.3-2.3,0.6l-0.5,0.2L3843.7,1102.4z M3706.9,1141.5
					l-163-34.5c-1.9-0.6-3.5-1.6-5-3.1l-0.3-0.3l-0.2-0.4c-0.5-1.3-0.6-2.8-0.5-4.3h0c0.2-1.8,2.3-14.6,8.1-32.5
					c3.7-11.1,8.1-21.8,12.4-30l0.4-0.7c0.4-0.7,1.6-3,3.3-3.4l0.5-0.1l0.4-0.6h1c1.2,0,2.2,0.3,3.3,0.8l0.5,0.2l152.6,67.8l-1.3,2
					c-7.3,10.7-11.5,23.5-12.1,36.9L3706.9,1141.5z M3545,1103.2l158.1,33.5c0.9-12.4,4.8-24.3,11.3-34.6l-148.2-65.8l-0.6-0.3
					c-0.2-0.1-0.5-0.2-0.7-0.3l-0.1,0.1l-1.6,0.3c-0.2,0.2-0.6,0.7-0.9,1.3l-0.2,0.4c-0.1,0.1-0.1,0.3-0.2,0.4
					c-4.2,8-8.6,18.5-12.2,29.4c-6,18.7-7.8,31.2-7.9,31.7c-0.1,0.7,0,1.5,0.2,2.1C3543,1102.2,3543.9,1102.8,3545,1103.2z
					 M3563.4,1036L3563.4,1036L3563.4,1036z M3757.7,1073.6l-0.2-2.4l-17.3-163.7v-0.7c-0.1-1.5,0.2-3,1-4.5v-0.5l0.8-0.7
					c1.3-1,2.8-1.6,4.3-1.7l0.4,0c5.2-0.8,16.4-2.3,32.6-2.3c10.7,0,19,0.6,24.1,1.1c5.1,0.5,7.5,0.9,8.7,1.2l0.4,0
					c1.6,0.3,2.9,0.8,4,1.7l0.3,0.2l0.2,0.3c1.2,1.8,1.7,4.6,1.2,6.2l-17.4,165.6l-2.3-0.6c-6.3-1.8-12.8-2.6-19.1-2.5
					c-6.6,0.1-13,1-19.1,2.7L3757.7,1073.6z M3744.1,907.3l17,161.2c5.7-1.4,11.7-2.2,17.8-2.3c6-0.1,12,0.6,18,2.1l16.9-160.9v-2.3
					c-0.1-0.3-0.2-0.7-0.4-1c-0.5-0.3-1.1-0.5-1.8-0.7h-0.8l-0.2-0.2c-2.3-0.4-13.4-2.1-31.6-2.1c-15.9,0-26.8,1.4-31.9,2.2
					c-0.4,0.1-0.6,0.1-0.7,0.1h-0.1c-0.7,0.1-1.2,0.3-1.7,0.6c-0.5,0.9-0.7,1.7-0.6,2.6L3744.1,907.3z"/>
				<path class="st1" d="M3777.5,1240.4c-1.7,0-3.4-0.2-5-0.7c-10-3.3-15.5-14.4-12.3-24.7l0-0.1c3.3-8.5,10.3-13.6,18.8-13.6
					c2-0.1,4,0.1,5.9,0.7c10,3.3,15.5,14.4,12.3,24.7l0,0.1c-3.3,8.5-10.3,13.6-18.8,13.6
					C3778.1,1240.4,3777.8,1240.4,3777.5,1240.4z M3764,1216.3c-2.5,8.2,1.9,17,9.7,19.6c1.4,0.4,3,0.6,4.6,0.5l0.1,0
					c6.8,0,12.4-4.1,15.1-11c2.5-8.2-1.9-17-9.7-19.6c-1.4-0.4-3-0.6-4.6-0.5l-0.1,0C3772.3,1205.3,3766.7,1209.4,3764,1216.3z
					 M3853.5,1186c-4,0-8-1.4-11.3-3.9c-4.5-3.2-7.4-8-8.2-13.3c-0.7-5.1,0.6-10.1,3.7-14.1c3.6-4.9,9.5-7.8,15.6-7.8
					c4.8,0,8.8,1.3,11.8,3.9c4.5,3.2,7.4,8,8.1,13.3c0.7,5.1-0.6,10.1-3.7,14.1c-3.6,4.9-9.5,7.8-15.6,7.8
					C3853.8,1186,3853.6,1186,3853.5,1186z M3853.3,1150.9c-4.9,0-9.5,2.3-12.4,6.2c-2.5,3.2-3.5,7.1-2.9,11.1
					c0.6,4.3,3,8.1,6.6,10.7c2.8,2.1,6.1,3.2,9.3,3.1c4.9,0,9.5-2.3,12.5-6.2c2.5-3.2,3.5-7.1,2.9-11.1c-0.6-4.3-3-8.1-6.6-10.7
					l-0.2-0.1C3860.2,1151.9,3857.2,1150.9,3853.3,1150.9z M3704.9,1185.9c-10.8,0-19.5-8.7-19.5-19.5s8.7-19.5,19.5-19.5h0
					c10.7,0.1,19.5,8.9,19.5,19.5C3724.4,1177.2,3715.7,1185.9,3704.9,1185.9z M3704.9,1150.9c-8.5,0-15.5,7-15.5,15.5
					c0,8.5,7,15.5,15.5,15.5s15.5-7,15.5-15.5C3720.4,1157.9,3713.4,1151,3704.9,1150.9z M3734.6,1098.9c-0.3,0-0.6,0-0.9,0
					c-0.1,0-0.1,0-0.2,0c-8.6,0-16.1-5.5-18.7-13.7c-1.7-5.1-1.2-10.8,1.2-15.5c2.3-4.5,6.3-7.8,11.1-9.2c1.9-0.6,3.9-0.8,5.9-0.7
					c0.1,0,0.1,0,0.2,0c8.6,0,16.1,5.5,18.7,13.7c1.7,5.1,1.2,10.8-1.2,15.5c-2.3,4.5-6.3,7.8-11.1,9.2
					C3738,1098.7,3736.3,1098.9,3734.6,1098.9z M3733.7,1094.9L3733.7,1094.9c1.7,0.1,3.2-0.1,4.7-0.5c3.8-1.2,6.9-3.8,8.7-7.3
					c1.9-3.7,2.3-8.2,0.9-12.4c-2.1-6.6-8.2-11-15.1-10.9l-0.1,0l-0.1,0c-1.6-0.1-3.1,0.1-4.6,0.5c-3.8,1.2-6.9,3.8-8.7,7.3
					c-1.9,3.7-2.3,8.2-0.9,12.4C3720.7,1090.6,3726.8,1095,3733.7,1094.9L3733.7,1094.9z M3824.8,1098.9c-6.2,0-12-2.9-15.7-7.8
					l-0.1-0.1c-5.9-8.9-3.9-20.9,4.6-27.3c3.5-2.5,7.5-3.8,11.7-3.9l0.1,0c6.1,0,11.9,2.9,15.6,7.8l0.1,0.1
					c5.9,8.9,3.9,20.9-4.6,27.3C3832.9,1097.5,3828.9,1098.8,3824.8,1098.9L3824.8,1098.9z M3812.3,1088.7c2.9,3.9,7.5,6.2,12.4,6.2
					c3.3-0.1,6.6-1.2,9.3-3.1c6.7-5.1,8.3-14.7,3.6-21.8c-2.9-3.8-7.5-6.1-12.3-6.2c-3.4,0.1-6.6,1.2-9.4,3.1
					C3809.3,1072,3807.7,1081.6,3812.3,1088.7z"/>
				<path class="st1" d="M3779.1,1366.5c-24.4,0-48.7-3.9-72-11.7c-8.6-3.3-13.6-10.4-13.7-18.8c-0.1-2,0.1-4,0.7-5.9l0-0.1
					c0.6-1.6,1.2-3.1,1.9-4.4l0.2-0.3l1.8-2.3l46.1-62c8.3-11.6,21-18.3,34.9-18.3c7,0,14.1,1.8,20.3,5.1c5.9,3.2,11,7.8,14.7,13.3
					l46.1,62l2,2.6c0.3,0.7,0.7,1.4,1,2.2c0.3,0.7,0.6,1.4,0.8,1.9l0.1,0.3c0.6,1.9,0.8,3.9,0.7,5.8c0.1,8.7-5.4,16.3-13.7,18.9
					C3827.8,1362.6,3803.5,1366.5,3779.1,1366.5z M3698,1331.2c-0.4,1.5-0.6,3-0.5,4.6l0,0.1c0,6.8,4.1,12.4,11,15.1
					c45.5,15.3,95.7,15.3,141.2,0c6.6-2.1,11-8.1,10.9-15.1l0-0.1l0-0.1c0.1-1.4-0.1-2.9-0.5-4.4c-0.3-0.6-0.6-1.3-0.9-2
					c-0.3-0.6-0.5-1.2-0.8-1.8l-1.7-2.1l-46.2-62.1c-3.3-5-7.9-9.2-13.3-12c-5.6-3.1-12-4.7-18.4-4.7c-12.6,0-24.1,6.1-31.7,16.7
					l-46.1,62l-1.7,2.2C3699,1328.7,3698.5,1329.9,3698,1331.2z M3616.8,1284.2c-0.3,0-0.6,0-1,0c-6.1,0-11.9-2.9-15.5-7.8
					c-14.8-19.7-26.1-41.5-33.6-64.9c-8-23.3-11.7-47.7-11.1-72.6c0-8.6,5.5-16.2,13.7-18.9l0.3-0.1h0.3c0.7,0,1.5-0.1,2.3-0.3
					c0.9-0.2,1.9-0.3,3-0.3l0.1,0c1.6,0.1,3.2,0.6,4.7,1.3l2.2,0.6l73.1,24.6c13.3,3.9,23.8,14.2,28.1,27.5l0,0
					c1.3,4.1,1.9,8.3,1.9,12.5c0,9.4-3.1,18.7-8.7,26.2l-44.5,63.2l-1.7,2.2c-0.8,1.4-2,2.6-3.4,3.4c-1.5,1.2-3.3,2.1-5.2,2.6
					C3620.1,1284,3618.5,1284.2,3616.8,1284.2z M3570.2,1124c-6.4,2.2-10.6,8.2-10.6,15c-0.6,24.4,3.1,48.4,10.9,71.3
					c7.4,23,18.5,44.4,33,63.7c2.9,3.9,7.5,6.2,12.4,6.2l0.1,0c1.6,0.1,3.1-0.1,4.6-0.5l0.1,0c1.4-0.3,2.7-1,3.8-1.9l0.3-0.2
					c0.9-0.5,1.7-1.3,2.2-2.2l0.2-0.2l1.8-2.3l44.5-63.2c5.1-6.8,7.9-15.3,7.9-23.8c0-3.8-0.6-7.6-1.7-11.3
					c-3.8-12-13.3-21.3-25.5-24.9l-73.1-24.6l-2.5-0.6l-0.2-0.1c-1-0.5-2.1-0.9-3.2-1c-0.7,0-1.5,0.1-2.2,0.3
					C3572,1123.8,3571.2,1124,3570.2,1124z M3941.6,1283.6c-1.7,0-3.4-0.2-5-0.7c-1.8-0.6-3.5-1.4-5.1-2.5c-1.1-0.6-1.8-1.4-2.4-2.2
					c-0.3-0.4-0.6-0.7-0.9-1l-0.2-0.2l-1.9-2.4l-44.5-63.1c-8.6-10.5-11.1-24.9-6.7-38.6c4.2-13.4,14.7-23.7,28.1-27.7l73.2-24.6
					l2.2-0.6c1.5-0.6,3.1-0.8,4.8-0.7c0.9,0,1.7,0.1,2.4,0.2c0.7,0.1,1.6,0.2,1.9,0l0.8-0.4l0.8,0.3c8,2.9,13.5,10.7,13.5,19
					c0,24.6-3.7,49-11.1,72.5c-7.1,22.3-18.1,43.5-33.6,64.9c-3.7,4.9-9.5,7.8-15.6,7.8C3942.2,1283.6,3941.9,1283.6,3941.6,1283.6z
					 M3931.2,1274.5c0.4,0.4,0.8,0.8,1.1,1.2c0.5,0.6,0.8,1,1.2,1.2l0.3,0.2c1.2,0.9,2.6,1.6,4,2c1.4,0.4,3,0.6,4.6,0.5l0.1,0
					c4.9,0,9.5-2.3,12.4-6.2c15.3-21,26.1-41.9,33-63.7c7.2-23.1,10.9-47.1,10.9-71.3c0-6.3-4.3-12.5-10.3-15c-1,0.2-2,0.1-3.1,0
					c-0.7-0.1-1.4-0.1-2.1-0.1l-0.1,0c-1.1-0.1-2.2,0.1-3.2,0.5l-0.2,0.1l-2.2,0.6l-73,24.6c-12.2,3.6-21.7,13-25.5,25.1
					c-4,12.4-1.7,25.5,6,34.9l0.1,0.1l44.5,63.2L3931.2,1274.5z M3865.3,1069c-0.3,0-0.6,0-0.8,0c-0.2,0-0.4,0-0.5,0
					c-16.1,0-30.9-9.4-37.8-23.9c-2.9-6.1-4.5-12.9-4.5-19.6l-1.2-77.2v-2.9c-0.1-1.6,0.1-3.3,0.7-4.8c0.5-1.9,1.4-3.8,2.6-5.3
					c3.7-4.9,9.5-7.8,15.6-7.8c2.2,0,4.6,0.2,6.8,0.6l0.2,0c22.2,6.7,44.3,17.8,65.5,33c19.9,14.5,37.2,32,51.4,51.9
					c4.9,6.8,4.9,16,0.1,22.8c-1.2,1.8-2.6,3.3-4.5,4.5c-1.1,1-2.5,1.9-3.9,2.5l-0.3,0.1l-2.3,0.6l-73.6,22.8
					C3874.3,1068.2,3869.8,1069,3865.3,1069z M3864.5,1065c4.4,0.1,8.7-0.6,12.8-2.2l0.1,0l73.7-22.8l2.2-0.6c1-0.5,2-1.1,2.8-1.9
					l0.3-0.2c1.5-0.9,2.6-2.1,3.5-3.5c3.9-5.5,3.9-12.8,0-18.2l0,0c-13.9-19.5-30.9-36.7-50.5-50.9c-20.8-14.9-42.4-25.8-64.2-32.4
					c-1.9-0.4-4-0.5-5.9-0.5c-4.9,0-9.5,2.3-12.4,6.2l-0.1,0.1c-0.9,1.1-1.6,2.4-1.9,3.8l-0.1,0.3c-0.4,1-0.6,2.1-0.5,3.2l0,0.1v2.9
					l1.2,77.2c0,6.1,1.4,12.3,4.1,17.9C3836,1056.7,3849.7,1065.2,3864.5,1065z M3694.9,1069c-2.9,0-5.1-0.2-7.2-0.5
					c-2.5-0.5-4.8-1.1-6.8-2l-73.6-22.8l-2.5-0.7c-0.9-0.4-1.6-0.9-2.3-1.5c-0.5-0.4-0.9-0.7-1.3-0.9l-0.2-0.1
					c-1.5-1-2.5-2.2-3.4-3.2c-0.4-0.4-0.7-0.8-1-1.2l-0.2-0.2c-4.9-6.8-4.9-15.9,0-22.7c14.1-20.2,31.4-37.6,51.4-51.9
					c19.7-14.7,41.7-25.8,65.5-33c1.9-0.6,3.9-0.8,5.9-0.7c5.8,0,11.7,2.7,16.6,7.6l0.1,0.1c1.3,1.5,2.2,3.4,2.7,5.4l0.1,0.2v0.2
					c0,0.4,0.1,1,0.2,1.6c0.2,0.9,0.3,1.7,0.3,2.5v2.8l-1.2,77.2c0,13.9-6.7,27.2-17.8,35.6C3712.7,1066.2,3704,1069,3694.9,1069z
					 M3606.2,1039.3l2.1,0.6l74,22.9c1.8,0.8,3.8,1.4,6.1,1.8c1.9,0.3,3.9,0.5,6.5,0.5c8.3,0,16.1-2.5,22.7-7.2
					c10.1-7.6,16.2-19.7,16.2-32.4l1.2-77.2l0-3.1c0-0.2-0.1-1-0.2-1.5c-0.1-0.7-0.3-1.4-0.3-2.1c-0.3-1.3-0.9-2.5-1.8-3.5
					c-4.1-4.1-9-6.4-13.7-6.4l-0.1,0c-1.6-0.1-3.1,0.1-4.6,0.5c-23.3,7.1-44.9,18-64.3,32.4c-19.6,14-36.6,31.1-50.5,50.9
					c-3.9,5.4-3.9,12.6-0.1,18c0.4,0.4,0.8,0.8,1.1,1.3c0.7,0.9,1.5,1.8,2.5,2.4c0.7,0.4,1.3,0.8,1.8,1.2
					C3605.3,1038.8,3605.8,1039.1,3606.2,1039.3z"/>
				<path class="st1" d="M3779.1,1193c-27.8,0-50.5-22.7-50.5-50.5s22.7-50.5,50.5-50.5s50.5,22.7,50.5,50.5
					S3806.9,1193,3779.1,1193z M3779.1,1096c-25.6,0-46.5,20.9-46.5,46.5s20.9,46.5,46.5,46.5s46.5-20.9,46.5-46.5
					S3804.7,1096,3779.1,1096z"/>
				<path class="st1" d="M3779.1,1389.4c-5.3,0-9.6-4.3-9.6-9.6c0-5.3,4.3-9.6,9.6-9.6c5.3,0,9.6,4.3,9.6,9.6
					C3788.7,1385.1,3784.4,1389.4,3779.1,1389.4z M3779.1,1374.2c-3.1,0-5.6,2.5-5.6,5.6s2.5,5.6,5.6,5.6s5.6-2.5,5.6-5.6
					S3782.2,1374.2,3779.1,1374.2z M3852.4,1378.4c-4.1,0-7.9-2.8-9.1-6.7c-1.4-5.2,1.4-10.7,6.2-12.4c1.1-0.8,2.6-0.8,3.3-0.8
					c3.8,0,7.3,2.4,9.4,6.4l0.2,0.4c1.4,5.1-1.5,10.6-6.2,12.3c-1.1,0.8-2.5,0.8-3.3,0.8C3852.7,1378.4,3852.5,1378.4,3852.4,1378.4
					z M3851.9,1362.6l-0.2,0.3l-0.6,0.2c-2.9,0.9-4.8,4.4-3.9,7.6c0.7,2.3,3.1,4,5.6,3.8l0.1,0c0.2,0,0.6,0,0.9-0.1l0.2-0.3l0.6-0.2
					c2.9-0.8,4.7-4.2,4-7.4c-1.4-2.5-3.5-4-5.7-4C3852.6,1362.5,3852.1,1362.5,3851.9,1362.6z M3706.3,1378.4
					c-0.6,0-1.2-0.2-1.8-0.4c-0.2-0.1-0.5-0.2-0.7-0.2h-0.2l-0.3-0.1c-5.2-1.7-8.1-7.2-6.6-12.4l0-0.2c1.5-3.9,5.2-6.5,9.4-6.6
					c0,0,0,0,0,0c1.1,0,2.2,0.3,3.1,0.7c4.9,1.6,7.8,7.2,6.5,12.4l-0.1,0.2C3714.2,1375.7,3710.5,1378.3,3706.3,1378.4
					C3706.3,1378.4,3706.3,1378.4,3706.3,1378.4z M3704.3,1373.8c0.5,0.1,1,0.2,1.5,0.4c0.2,0.1,0.4,0.1,0.5,0.2
					c2.5-0.1,4.7-1.6,5.6-3.9c0.8-3.1-1-6.6-4-7.5l-0.2-0.1l-0.2-0.1c-0.4-0.2-0.8-0.3-1.3-0.3c-2.6,0.1-4.8,1.6-5.7,3.9
					C3699.7,1369.5,3701.3,1372.7,3704.3,1373.8z M3586.3,1291.7c-3,0-5.8-1.4-7.6-3.7c-1.6-2.3-2.1-5.2-1.6-7.9
					c0.5-2.5,1.9-4.6,3.9-5.9c1.7-1.2,3.2-2.1,5.7-2.1c2.8,0,6.5,1.3,8.1,3.8c1.5,2.2,2,5.1,1.5,7.8c-0.5,2.5-1.9,4.6-3.9,5.9
					c-1.7,1.2-3.2,2.1-5.7,2.1C3586.6,1291.7,3586.4,1291.7,3586.3,1291.7z M3586.7,1276c-1.1,0-1.8,0.3-3.4,1.4
					c-1.1,0.8-1.9,2-2.2,3.4c-0.3,1.7,0,3.5,0.9,4.8c1,1.3,2.7,2.1,4.7,2c1.3,0,2-0.4,3.5-1.4c1.1-0.8,1.9-2,2.2-3.4
					c0.3-1.7,0-3.5-0.9-4.8C3590.8,1277,3588.7,1276,3586.7,1276z M3971.6,1291.7c-2.3,0-4.5-0.8-6-2.3c-4.1-3.3-5.1-9.2-2.1-13.6
					l0.2-0.3c2.1-2.1,4.9-3.4,7.7-3.5l0.1,0l0.1,0c2,0.1,4,0.9,5.7,2.2l0,0c4.2,3.4,5.2,9.2,2.2,13.7l-0.2,0.3
					C3977.2,1290.3,3974.4,1291.6,3971.6,1291.7C3971.6,1291.7,3971.6,1291.7,3971.6,1291.7z M3966.7,1278.2c-1.7,2.7-1,6.2,1.5,8.1
					l0.2,0.2c0.8,0.8,1.9,1.2,3.2,1.2c1.7-0.1,3.5-0.9,4.8-2.2c1.7-2.7,1-6.1-1.5-8.2c-1-0.8-2.2-1.3-3.4-1.4
					C3969.8,1276.1,3968,1276.9,3966.7,1278.2z M3553,1225.8c-4.1,0-7.9-2.8-9.1-6.7c-1.4-5.2,1.4-10.7,6.2-12.4
					c1.1-0.8,2.6-0.8,3.3-0.8c4.2,0,7.5,3.2,9.3,6.3l0.1,0.2l0.1,0.3c1.4,5.1-1.5,10.6-6.2,12.3c-1.1,0.8-2.5,0.8-3.3,0.8
					C3553.3,1225.8,3553.1,1225.8,3553,1225.8z M3552.5,1210l-0.2,0.3l-0.6,0.2c-2.9,0.9-4.8,4.4-3.9,7.6c0.7,2.3,3,4,5.6,3.8l0.1,0
					c0.2,0,0.6,0,0.9-0.1l0.2-0.3l0.6-0.2c2.9-0.8,4.7-4.2,4-7.3c-1.5-2.4-3.8-4.1-5.7-4.1C3553.2,1209.9,3552.8,1209.9,3552.5,1210
					z M3552.4,1210L3552.4,1210L3552.4,1210z M4004.9,1225.8c-0.6,0-1.2-0.2-1.8-0.4c-0.2-0.1-0.5-0.2-0.7-0.2h-0.3l-0.3-0.1
					c-5.2-1.7-8.1-7.2-6.6-12.4l0-0.2c1.5-3.9,5.2-6.5,9.4-6.6c1.2,0,2.4,0,3.4,0.8c4.7,1.6,7.6,7.1,6.2,12.3l-0.1,0.2
					C4012.8,1223.1,4009.1,1225.7,4004.9,1225.8C4004.9,1225.8,4004.9,1225.8,4004.9,1225.8z M4002.9,1221.2c0.5,0.1,1,0.2,1.5,0.4
					c0.2,0.1,0.4,0.1,0.5,0.2c2.5-0.1,4.7-1.6,5.6-3.9c0.8-3.2-1-6.7-3.9-7.5l-0.6-0.2l-0.3-0.4c-0.2,0-0.6,0-0.9,0
					c-2.6,0.1-4.8,1.6-5.7,3.9C3998.3,1216.9,3999.9,1220.1,4002.9,1221.2z M4016.6,1152.1c-5.3,0-9.6-4.3-9.6-9.6s4.3-9.6,9.6-9.6
					c3,0,5.8,1.2,7.6,3.4c1.6,1.8,2.3,4.1,2,6.4C4026.1,1147.9,4021.8,1152.1,4016.6,1152.1z M4016.6,1136.9c-3.1,0-5.6,2.5-5.6,5.6
					s2.5,5.6,5.6,5.6s5.6-2.5,5.6-5.6l0-0.3c0.2-1.5-0.4-2.6-1-3.3C4020.1,1137.6,4018.4,1136.9,4016.6,1136.9z M3541.8,1152.1
					c-5.3,0-9.6-4.3-9.6-9.6s4.3-9.6,9.6-9.6c5.2,0.1,9.5,4.4,9.6,9.6l0,0C3551.4,1147.8,3547.1,1152.1,3541.8,1152.1z
					 M3541.8,1136.9c-3,0-5.6,2.5-5.6,5.6s2.5,5.6,5.6,5.6c3.1,0,5.6-2.5,5.6-5.6C3547.3,1139.5,3544.8,1137,3541.8,1136.9z
					 M3971.1,1012.8c-3,0-5.8-1.4-7.6-3.7c-1.6-2.3-2.1-5.2-1.6-7.9c0.5-2.5,1.9-4.6,3.9-5.9c1.7-1.2,3.2-2.1,5.7-2.1l0.2,0
					c2.9,0.2,5.6,1.5,7.6,3.5l0.2,0.3c1.5,2.2,2.1,5.1,1.5,7.9c-0.5,2.5-1.9,4.6-3.9,5.9c-1.7,1.2-3.2,2.1-5.7,2.1
					C3971.4,1012.8,3971.2,1012.8,3971.1,1012.8z M3971.4,997.1c-1.2,0-1.9,0.4-3.4,1.4c-1.1,0.8-1.9,2-2.2,3.4
					c-0.3,1.7,0,3.5,0.9,4.8c1,1.3,2.7,2.1,4.7,2c1.2,0,1.9-0.3,3.5-1.4c1.1-0.8,1.9-2,2.2-3.4c0.3-1.6,0-3.4-0.8-4.7
					C3975,998,3973.3,997.3,3971.4,997.1z M3586.7,1012.8c-2.3,0-4.5-0.8-6-2.3c-4.1-3.3-5.1-9.2-2.1-13.6l0.2-0.3
					c2.1-2.1,4.9-3.4,7.7-3.5c2.2-0.1,4.4,0.7,6,2.3c4.1,3.3,5.1,9.2,2.1,13.6l-0.2,0.3C3592.3,1011.4,3589.5,1012.7,3586.7,1012.8
					C3586.7,1012.8,3586.7,1012.8,3586.7,1012.8z M3581.8,999.3c-1.7,2.7-1,6.2,1.5,8.1l0.2,0.2c0.8,0.8,1.9,1.2,3.2,1.2
					c1.7-0.1,3.5-0.9,4.8-2.2c1.7-2.7,1-6.2-1.5-8.1l-0.2-0.2c-0.8-0.8-2-1.3-3.1-1.2C3584.9,997.2,3583.1,998,3581.8,999.3z
					 M3639,960.2c-3,0-5.8-1.4-7.6-3.7c-1.6-2.3-2.1-5.2-1.6-7.9c0.5-2.5,1.9-4.6,3.9-5.9c1.7-1.2,3.2-2.1,5.7-2.1l0.1,0
					c2.8,0.1,5.6,1.4,7.7,3.5l0.2,0.3c1.5,2.2,2.1,5.1,1.5,7.9c-0.5,2.5-1.9,4.6-3.9,5.9c-1.7,1.2-3.2,2.1-5.7,2.1
					C3639.3,960.2,3639.1,960.2,3639,960.2z M3639.4,944.5c-1.2,0-1.9,0.4-3.4,1.4c-1.1,0.8-1.9,2-2.2,3.4c-0.3,1.7,0,3.5,0.9,4.8
					c1,1.3,2.7,2.1,4.7,2c1.3,0,2-0.4,3.5-1.4c1.1-0.8,1.9-2,2.2-3.4c0.3-1.6,0-3.4-0.8-4.7C3642.9,945.4,3641.1,944.6,3639.4,944.5
					z M3919,960.2c-2.3,0-4.5-0.8-6-2.3c-4.1-3.3-5.1-9.2-2.1-13.6l0.2-0.3c2.1-2.1,4.9-3.4,7.7-3.5l0.1,0l0.1,0
					c2.2,0.1,4.1,0.9,5.7,2.2c4.2,3.3,5.2,9.3,2.2,13.7l-0.2,0.3C3924.6,958.8,3921.8,960.1,3919,960.2
					C3919,960.2,3919,960.2,3919,960.2z M3914.1,946.7c-1.7,2.7-1,6.2,1.5,8.1l0.2,0.2c0.8,0.8,1.9,1.2,3.2,1.2
					c1.7-0.1,3.5-0.9,4.9-2.2c1.7-2.6,1-6.1-1.5-8.2l0,0c-0.9-0.8-2.1-1.2-3.3-1.3C3917.2,944.6,3915.4,945.4,3914.1,946.7z
					 M3705,926.4c-4.1,0-7.9-2.8-9.1-6.7c-1.4-5.2,1.4-10.7,6.2-12.4c1.1-0.8,2.6-0.8,3.3-0.8c4.2,0.1,7.8,2.6,9.4,6.5l0.1,0.3
					c1.4,5.1-1.5,10.6-6.2,12.3c-1.1,0.8-2.5,0.8-3.3,0.8C3705.3,926.4,3705.1,926.4,3705,926.4z M3704.5,910.6l-0.2,0.3l-0.6,0.2
					c-2.9,0.9-4.8,4.4-3.9,7.6c0.7,2.3,3.1,4,5.6,3.8l0.1,0c0.2,0,0.6,0,0.9-0.1l0.2-0.3l0.6-0.2c2.9-0.9,4.7-4.3,4-7.4
					c-1-2.4-3.2-3.9-5.8-3.9C3705.2,910.5,3704.7,910.5,3704.5,910.6z M3704.4,910.6L3704.4,910.6L3704.4,910.6z M3852.9,926.4
					c-0.7,0-1.3-0.2-2-0.4c-0.2-0.1-0.4-0.1-0.5-0.2h-0.2l-0.3-0.1c-5-1.5-8.1-7.2-6.7-12.4l0.1-0.3c1.6-3.9,5.2-6.4,9.4-6.5
					c0,0,0,0,0,0c1.1,0,2.2,0.3,3.1,0.7c4.9,1.6,7.8,7.2,6.5,12.4l-0.1,0.3C3860.6,923.8,3857,926.3,3852.9,926.4
					C3852.9,926.4,3852.9,926.4,3852.9,926.4z M3850.9,921.8c0.4,0.1,0.9,0.2,1.3,0.4c0.2,0.1,0.5,0.2,0.7,0.2
					c2.4-0.1,4.6-1.6,5.6-3.9c0.8-3.1-1.1-6.6-4-7.4l-0.2-0.1l-0.2-0.1c-0.4-0.2-0.8-0.3-1.3-0.3c-2.5,0.1-4.7,1.6-5.7,3.9
					C3846.3,917.5,3848.1,920.9,3850.9,921.8z"/>
			</g>
		</g>
	</g>
</g>
</svg>
