<?xml version="1.0" encoding="utf-8"?>
<!-- Generator: Adobe Illustrator 25.0.0, SVG Export Plug-In . SVG Version: 6.00 Build 0)  -->
<svg version="1.1" id="G_1_" xmlns="http://www.w3.org/2000/svg" xmlns:xlink="http://www.w3.org/1999/xlink" x="0px" y="0px"
	 viewBox="0 0 74 32" style="enable-background:new 0 0 74 32;" xml:space="preserve">
<style type="text/css">
	.st0{fill:#242628;}
</style>
<path id="G" class="st0" d="M74,32H10.5C4.7,32,0,27.3,0,21.5c0,0,0,0,0,0l0,0V10.6C0,4.7,4.7,0,10.5,0c0,0,0,0,0,0H74v8.7H13
	c-2.4,0-4.3,1.9-4.3,4.3l0,0V19c0,2.4,1.9,4.3,4.3,4.3c0,0,0,0,0,0h51.3c0.5,0,0.9-0.4,0.9-0.9l0,0v-1c0-0.5-0.4-0.9-0.9-0.9H14.4
	c-1.3,0-2.3-1-2.3-2.3l0,0v-4.1c0-1.3,1-2.3,2.3-2.3H74V32z"/>
</svg>
