<svg width="194" height="40" viewBox="0 0 194 40" fill="none" xmlns="http://www.w3.org/2000/svg">
<path d="M106 40C102.4 40 99.5 37.1 99.5 33.5V0H112.1V25.4C112.1 26.5 113 27.4 114.1 27.4H137.1V40H106ZM156.4 40V27.4H179.4C180.5 27.4 181.4 26.5 181.4 25.4V0H194V33.5C194 37.1 191.1 40 187.5 40H156.4ZM140.5 0H153V40H140.4V0H140.5Z" fill="#494B50"/>
<path d="M92.5 40H13.2C5.9 40 0 34.1 0 26.8V13.2C0 5.9 5.9 0 13.2 0H92.5V10.9H16.3C13.3 10.9 10.9 13.3 10.9 16.3V23.7C10.9 26.7 13.3 29.1 16.3 29.1H80.4C81.1 29.1 81.6 28.6 81.6 27.9V26.6C81.6 26 81.1 25.4 80.4 25.4H18C16.4 25.4 15.1 24.1 15.1 22.5V17.3C15.1 15.7 16.4 14.4 18 14.4H92.4V40H92.5Z" fill="#494B50"/>
</svg>
