<?xml version="1.0" encoding="utf-8"?>
<!-- Generator: Adobe Illustrator 25.0.0, SVG Export Plug-In . SVG Version: 6.00 Build 0)  -->
<svg version="1.1" id="Logo_1_" xmlns="http://www.w3.org/2000/svg" xmlns:xlink="http://www.w3.org/1999/xlink" x="0px" y="0px"
	 viewBox="0 0 376 40" style="enable-background:new 0 0 376 40;" xml:space="preserve">
<style type="text/css">
	.st0{fill:#242628;}
</style>
<g id="Logo">
	<g id="GUNTHER">
		<path id="R" class="st0" d="M364.1,14.3h3.8c6.2,0,8-4.2,8-7.1V7.1c0-3.3-1.4-7.1-6-7.1h-39.5c-1.6,0-3,1.3-3,3v18h8.5V5.8
			c0-0.8,0.6-1.5,1.5-1.5l0,0h26.6c3.8,0,4.1,1.9,4.1,3V7c0,1.2-0.2,3.1-4.1,3.1h-25.9v4.2h15.3l11.8,6.7H376L364.1,14.3L364.1,14.3
			z"/>
		<path id="E" class="st0" d="M284.1,12.7h37.8V8.4h-37.8V12.7z M276.7,0c-1.8,0-3.2,1.4-3.2,3.2v14.2c0,2,1.6,3.6,3.6,3.6l0,0h44.7
			v-4.2h-38.8c-0.9,0-1.7-0.7-1.7-1.7V5.4c0-0.7,0.6-1.3,1.3-1.3h39.2V0H276.7z"/>
		<path id="H" class="st0" d="M227,0.1h-7.8V21h7.8V0.1z M259.8,0.1v8.3h-30.4v4.2h30.4V21h7.8V0.1H259.8z"/>
		<polygon id="T" class="st0" points="193.6,21 185.5,21 185.5,4.2 165.2,4.2 165.2,0 213.4,0 213.4,4.2 193.6,4.2 		"/>
		<path id="N" class="st0" d="M116.5,5.5V21h-7.9V2.4c0-1.4,1-2.4,2.4-2.4h5.4c1.4,0,2.9,0.3,4.2,1l29.8,14.7c0.3,0.2,0.7,0,0.9-0.3
			c0-0.1,0.1-0.2,0.1-0.2v-15h7.9v19.2c0,1-0.8,1.8-1.8,1.8l0,0h-4.8c-0.9,0-1.8-0.2-2.6-0.6L119,6c-0.6-0.2-1.3-0.4-1.9-0.4
			L116.5,5.5z"/>
		<path id="U" class="st0" d="M96,15.1V0h7.8v18.6c0,1.8-0.4,2.4-3.4,2.4H60.8c-4.1,0-6.2-1.7-6.2-5.1V0h7.9v15.1
			c0,1.2,0.6,1.8,2,1.8h29.4C95.3,16.8,96,16.3,96,15.1"/>
		<path id="G" class="st0" d="M23.6,12.6V8.4h25.6v9.5c0,1.5-1.4,3.1-4.1,3.1H6.2C2.1,21,0,19.3,0,15.9L0.1,5c0-3.4,2-5,6.1-5h43.1
			v4.2H11.7c-1.4,0-3.2,0.6-3.2,1.8v9.1c0,1.1,1.9,1.7,3.2,1.7h26.9c1.4,0,2-0.6,2-1.7v-2.6L23.6,12.6L23.6,12.6z"/>
	</g>
	<g id="WERKS">
		<path id="S" class="st0" d="M359.2,37c0.1,0.4,0.2,0.7,0.6,1c0.8,0.5,1.7,0.6,2.6,0.6c0.6,0,1.2,0,1.8-0.2c0.9-0.2,1.3-0.6,1.3-1
			c0-0.3-0.2-0.6-0.6-0.7c-0.6-0.2-1.4-0.3-2-0.4l-1.6-0.2c-1.1-0.1-2.2-0.3-3.2-0.7c-0.9-0.2-1.4-1-1.5-2c0.1-0.9,0.6-1.7,1.4-2
			c1.4-0.6,2.8-0.9,4.2-0.8c1.4,0,2.7,0.2,4,0.7c1,0.3,1.6,1.2,1.8,2.2h-2.9c-0.1-0.6-0.5-1-1.2-1.2c-0.6-0.2-1.2-0.2-1.8-0.2
			s-1.3,0.1-1.9,0.3c-0.5,0.2-0.7,0.5-0.7,0.8s0.2,0.6,0.7,0.7c0.6,0.2,1.3,0.3,1.9,0.4l2.6,0.4c0.9,0.1,1.8,0.3,2.6,0.6
			c0.8,0.3,1.3,1,1.3,1.8c-0.1,1-0.6,1.8-1.6,2.1c-1.4,0.6-2.9,0.9-4.4,0.8c-1.5,0.1-3.1-0.2-4.6-0.8c-1-0.3-1.6-1.2-1.7-2.2
			L359.2,37L359.2,37z"/>
		<polygon id="K" class="st0" points="270.9,30.8 273.9,30.8 273.9,34.5 279.5,30.8 283.5,30.8 277.5,34.5 283.8,39.8 279.9,39.8 
			275.3,35.9 273.9,36.8 273.9,39.8 270.9,39.8 		"/>
		<path id="R_1_" class="st0" d="M187.6,32.4v2.4h3.3c0.5,0,1,0,1.4-0.2c0.5-0.1,0.9-0.5,0.9-1c0-0.5-0.3-1-0.8-1.1
			c-0.5-0.2-1-0.2-1.4-0.2L187.6,32.4z M194,31c0.5,0.2,1,0.3,1.4,0.6c0.3,0.2,0.6,0.5,0.7,0.8c0.2,0.2,0.2,0.6,0.2,1
			c0,0.5-0.2,1-0.6,1.3c-0.5,0.5-1,0.8-1.8,0.9c0.6,0.1,1,0.3,1.4,0.7c0.3,0.4,0.5,0.9,0.4,1.4v0.6c0,0.3,0,0.6,0.1,0.8
			c0.1,0.2,0.3,0.5,0.6,0.6V40h-3.4c-0.1-0.2-0.2-0.3-0.2-0.5c-0.1-0.2-0.2-0.6-0.2-0.8v-0.8c0.1-0.5-0.2-0.9-0.5-1.1
			c-0.6-0.2-1.1-0.3-1.8-0.3h-2.9V40h-3v-9.2h7C192.5,30.8,193.2,30.9,194,31L194,31z"/>
		<polygon id="E_1_" class="st0" points="110.3,32.4 102.6,32.4 102.6,34.3 109.7,34.3 109.7,35.9 102.6,35.9 102.6,38.2 
			110.7,38.2 110.7,39.8 99.6,39.8 99.6,30.8 110.3,30.8 		"/>
		<polygon id="W" class="st0" points="10.8,30.8 12.7,36 13.2,37.4 13.6,36 15.3,30.8 18.5,30.8 20.2,36 20.6,37.4 21.1,36.1 
			23,30.8 26.1,30.8 22,39.8 19.1,39.8 17.3,34.5 16.9,32.8 16.3,34.5 14.5,39.8 11.7,39.8 7.6,30.8 		"/>
	</g>
</g>
</svg>
