<?xml version="1.0" encoding="utf-8"?>
<!-- Generator: Adobe Illustrator 25.0.0, SVG Export Plug-In . SVG Version: 6.00 Build 0)  -->
<svg version="1.1" id="GW" xmlns="http://www.w3.org/2000/svg" xmlns:xlink="http://www.w3.org/1999/xlink" x="0px" y="0px"
	 viewBox="0 0 194 40" style="enable-background:new 0 0 194 40;" xml:space="preserve">
<style type="text/css">
	.st0{fill:#242628;}
</style>
<path id="W" class="st0" d="M106,40c-3.6,0-6.5-2.9-6.5-6.5V0h12.6v25.4c0,1.1,0.9,2,2,2l0,0h23V40H106z M156.4,40V27.4h23
	c1.1,0,2-0.9,2-2V0H194v33.5c0,3.6-2.9,6.5-6.5,6.5H156.4z M140.5,0H153v40h-12.6V0z"/>
<path id="G" class="st0" d="M92.5,40H13.2C5.9,40,0,34.1,0,26.8l0,0l0,0V13.2C0,5.9,5.9,0,13.2,0h79.3v10.9H16.3
	c-3,0-5.4,2.4-5.4,5.4l0,0v7.4c0,3,2.4,5.4,5.4,5.4h64.1c0.7,0,1.2-0.5,1.2-1.2l0,0v-1.3c0-0.6-0.5-1.2-1.2-1.2H18
	c-1.6,0-2.9-1.3-2.9-2.9l0,0v-5.2c0-1.6,1.3-2.9,2.9-2.9l0,0h74.4V40z"/>
</svg>
