<?xml version="1.0" encoding="utf-8"?>
<!-- Generator: Adobe Illustrator 25.0.1, SVG Export Plug-In . SVG Version: 6.00 Build 0)  -->
<svg version="1.1" id="Layer_1" xmlns="http://www.w3.org/2000/svg" xmlns:xlink="http://www.w3.org/1999/xlink" x="0px" y="0px"
	 viewBox="0 0 240 240" style="enable-background:new 0 0 240 240;" xml:space="preserve">
<style type="text/css">
	.st0{fill:#FFFFFF;}
	.st1{fill:#231F20;}
</style>
<path id="bg" class="st0" d="M237,90.3v45c0,8-6.5,14.4-14.4,14.4h-92.4c-3.1,0-6-1-8.3-2.7l0,2.7H25c-12.1,0-22-9.9-22-22v-15.4
	c0-12.1,9.9-22,22-22h119.1v31.1h18.1V90.3h28.3v31.1h18.2V90.3H237z"/>
<g id="fg">
	<path class="st1" d="M230,97.3v38c0,4.1-3.3,7.4-7.4,7.4h-35.3v-14.3h26.1c1.2,0,2.3-1,2.3-2.3V97.3H230z M169.2,97.3v45.4h14.3
		V97.3H169.2z M139.4,128.4c-1.3,0-2.3-1.1-2.3-2.3V97.3h-14.3v38c0,4.1,3.3,7.4,7.4,7.4h35.3v-14.3H139.4z"/>
	<path class="st1" d="M114.9,97.1v12.6H28.5c-3.4,0-6.1,2.7-6.1,6.1v8.4c0,3.4,2.7,6.1,6.1,6.1h72.7c0.8,0,1.4-0.6,1.4-1.4v-1.5
		c0-0.7-0.6-1.4-1.4-1.4H30.4c-1.8,0-3.3-1.5-3.3-3.3v-5.9c0-1.8,1.5-3.3,3.3-3.3h84.4v29H25c-8.3,0-15-6.7-15-15v-15.4
		c0-8.3,6.7-15,15-15H114.9z"/>
</g>
</svg>
