<?xml version="1.0" encoding="UTF-8"?>
<svg width="64px" height="64px" viewBox="0 0 64 64" version="1.1" xmlns="http://www.w3.org/2000/svg" xmlns:xlink="http://www.w3.org/1999/xlink">
    <title>Artboard</title>
    <g id="Artboard" stroke="none" stroke-width="1" fill="none" fill-rule="evenodd" stroke-opacity="0.5">
        <g id="Logo-Initials---Dark" transform="translate(2.000000, 27.000000)" fill="#242628" fill-rule="nonzero" stroke="#FFFFFF">
            <g id="Group">
                <path d="M30.0660377,-0.5 L34.8596949,-0.5 L34.8596949,6.52020166 L42.3867925,7.07020166 L42.3867925,11.5 L32.5230831,11.5 C31.8482262,11.5 31.2408035,11.2484789 30.8008974,10.8466833 C30.3438769,10.4292561 30.0660377,9.85077326 30.0660377,9.2125 L30.0660377,9.2125 L30.0660377,-0.5 Z M60.5,-0.5 L60.5,9.2125 C60.5,9.85077326 60.2221608,10.4292561 59.7651403,10.8466833 C59.3252342,11.2484789 58.7178115,11.5 58.0429546,11.5 L58.0429546,11.5 L48.1792453,11.5 L48.1792453,7.035 L55.142539,7.035 L55.7447068,-0.5 L60.5,-0.5 Z M46.9150943,-0.5 L46.9150943,11.5 L42.5188679,11.5 L42.5188679,-0.5 L46.9150943,-0.5 Z" id="W"></path>
                <path d="M4.03875574,-0.5 L28.8018868,-0.5 L28.8018868,3.4975 L28.771,3.497 L28.7712902,11.5 L4.03875574,11.5 C2.83287602,11.5 1.74038186,11.0736718 0.932057003,10.3836939 C0.0962294717,9.67023996 -0.436686937,8.67620668 -0.494735216,7.57093975 L-0.494735216,7.57093975 L-0.5,3.63 C-0.5,2.48243488 0.01127614,1.44196291 0.847560967,0.690317079 C1.66351572,-0.0430562536 2.79030974,-0.5 4.03875574,-0.5 L4.03875574,-0.5 Z M5.181,3.497 L4.9872514,3.4975 C4.67918637,3.4975 4.39839811,3.59835439 4.18852986,3.77041979 C4.00169848,3.92359787 3.87158452,4.13412962 3.84165302,4.37487926 L3.84165302,4.37487926 L3.83503315,6.5175 C3.83503315,6.78549776 3.95831136,7.02417008 4.15116417,7.19750458 C4.36428445,7.38905531 4.66054645,7.5025 4.9872514,7.5025 L4.9872514,7.5025 L5.82244899,7.5025 C5.15434869,7.48164127 4.84648138,7.3646036 4.61063326,7.17773432 C4.33997617,6.96328489 4.163788,6.6579813 4.12715029,6.31888441 L4.12715029,6.31888441 L4.12009179,4.7575 C4.12009179,4.42264352 4.25522594,4.11445336 4.48471986,3.88047065 C4.64318148,3.7189096 4.84740844,3.59330272 5.0797463,3.52292956 L5.181,3.497 Z" id="G"></path>
            </g>
        </g>
    </g>
</svg>