<?xml version="1.0" encoding="utf-8"?>
<!-- Generator: Adobe Illustrator 25.0.0, SVG Export Plug-In . SVG Version: 6.00 Build 0)  -->
<svg version="1.1" id="Layer_1" xmlns="http://www.w3.org/2000/svg" xmlns:xlink="http://www.w3.org/1999/xlink" x="0px" y="0px"
	 viewBox="0 0 64 64" style="enable-background:new 0 0 64 64;" xml:space="preserve">
<style type="text/css">
	.st0{fill:#FFFFFF;}
</style>
<g id="G">
	<path d="M11.9,46.3c-4.7,0-8.4-3.8-8.4-8.4v-8.2c0-4.7,3.8-8.5,8.4-8.5h48.6v7.6H13.8c-1.5,0-2.8,1.2-2.8,2.8V36
		c0,1.5,1.2,2.8,2.8,2.8h38.8c0.1,0,0.2-0.1,0.2-0.2v-0.8c0-0.1-0.1-0.2-0.2-0.2H14.9c-1.3,0-2.2-1-2.2-2.2v-3.1
		c0-1.3,1-2.2,2.2-2.2h45.6v16.3H11.9z"/>
	<path class="st0" d="M60,21.6v6.6H13.8c-1.8,0-3.3,1.4-3.3,3.3V36c0,1.8,1.4,3.3,3.3,3.3h38.8c0.4,0,0.7-0.3,0.7-0.7v-0.8
		c0-0.4-0.3-0.7-0.7-0.7H14.9c-1,0-1.7-0.8-1.7-1.7v-3.1c0-1,0.8-1.7,1.7-1.7H60v15.3H11.9c-4.4,0-7.9-3.6-7.9-7.9v-8.2
		c0-4.5,3.6-8,7.9-8H60 M61,20.6h-1H11.9c-4.9,0-8.9,4-8.9,9v8.2c0,4.9,4,8.9,8.9,8.9H60h1v-1V30.6v-1h-1H14.9
		c-1.5,0-2.7,1.2-2.7,2.7v3.1c0,1.5,1.2,2.7,2.7,2.7h37.4v0.1H13.8c-1.3,0-2.3-1-2.3-2.3v-4.5c0-1.3,1-2.3,2.3-2.3H60h1v-1v-6.6
		V20.6L61,20.6z"/>
</g>
</svg>
