<?xml version="1.0" encoding="utf-8"?>
<!-- Generator: Adobe Illustrator 25.0.1, SVG Export Plug-In . SVG Version: 6.00 Build 0)  -->
<svg version="1.1" id="Layer_1" xmlns="http://www.w3.org/2000/svg" xmlns:xlink="http://www.w3.org/1999/xlink" x="0px" y="0px"
	 viewBox="0 0 240 240" style="enable-background:new 0 0 240 240;" xml:space="preserve">
<style type="text/css">
	.st0{fill:#FFFFFF;}
</style>
<g>
	<g>
		<path class="st0" d="M130.2,146.2c-6,0-10.9-4.9-10.9-10.9V93.8h21.3v31.1h25.1V93.8H187v31.1h25.2V93.8h21.3v41.5
			c0,6-4.9,10.9-10.9,10.9H130.2z"/>
		<path d="M230,97.3v38c0,4.1-3.3,7.4-7.4,7.4h-35.3v-14.3h26.1c1.2,0,2.3-1,2.3-2.3V97.3H230 M183.5,97.3v45.4h-14.3V97.3h0.1
			H183.5 M137.1,97.3v28.8c0,1.2,1,2.3,2.3,2.3h26.1v14.3h-35.3c-4.1,0-7.4-3.3-7.4-7.4v-38H137.1 M237,90.3h-7h-14.3h-7v7v24.1
			h-18.2V97.3v-7h-7h-14.2h-0.1h-7v7v24.1h-18.1V97.3v-7h-7h-14.3h-7v7v38c0,7.9,6.4,14.4,14.4,14.4h32h7h11.1h7h35.3
			c7.9,0,14.4-6.4,14.4-14.4v-38V90.3L237,90.3z"/>
	</g>
	<g>
		<path class="st0" d="M25,146.2c-10.2,0-18.5-8.3-18.5-18.5v-15.4c0-10.2,8.3-18.5,18.5-18.5h93.4v19.4h-0.1v33H25z"/>
		<path d="M114.9,97.3v12.4H28.5c-3.4,0-6.1,2.7-6.1,6.1v8.4c0,3.4,2.7,6.1,6.1,6.1h72.7c0.8,0,1.4-0.6,1.4-1.4v-1.5
			c0-0.7-0.6-1.4-1.4-1.4H30.4c-1.8,0-3.3-1.5-3.3-3.3v-5.9c0-1.8,1.5-3.3,3.3-3.3h84.4v29h0.1H25c-8.3,0-15-6.7-15-15v-15.4
			c0-8.3,6.7-15,15-15H114.9 M121.9,90.3h-7H25c-12.1,0-22,9.9-22,22v15.4c0,12.1,9.9,22,22,22h89.9v-7h6.9v-26h0.1v-7V97.3V90.3
			L121.9,90.3z"/>
	</g>
</g>
</svg>
