<?xml version="1.0" encoding="utf-8"?>
<!-- Generator: Adobe Illustrator 25.0.0, SVG Export Plug-In . SVG Version: 6.00 Build 0)  -->
<svg version="1.1" id="Layer_1" xmlns="http://www.w3.org/2000/svg" xmlns:xlink="http://www.w3.org/1999/xlink" x="0px" y="0px"
	 viewBox="0 0 32 32" style="enable-background:new 0 0 32 32;" xml:space="preserve">
<style type="text/css">
	.st0{fill:#FFFFFF;}
</style>
<path class="st0" d="M16,4C9.4,4,4,9.4,4,16s5.4,12,12,12s12-5.4,12-12S22.6,4,16,4z M16,6c5.5,0,10,4.5,10,10c0,5-3.7,9.2-8.5,9.9
	v-7h2.8l0.4-2.9h-3.3v-1.6c0-1.2,0.4-2.3,1.5-2.3h1.8V9.7c-0.3,0-1-0.1-2.3-0.1c-2.6,0-4.2,1.4-4.2,4.6V16h-2.7v2.9h2.7v6.9
	C9.6,25.1,6,21,6,16C6,10.5,10.5,6,16,6z"/>
</svg>
