<?xml version="1.0" encoding="utf-8"?>
<!-- Generator: Adobe Illustrator 25.0.0, SVG Export Plug-In . SVG Version: 6.00 Build 0)  -->
<svg version="1.1" id="Layer_1" xmlns="http://www.w3.org/2000/svg" xmlns:xlink="http://www.w3.org/1999/xlink" x="0px" y="0px"
	 viewBox="0 0 32 32" style="enable-background:new 0 0 32 32;" xml:space="preserve">
<style type="text/css">
	.st0{fill:#FFFFFF;}
</style>
<path class="st0" d="M8,5C6.4,5,5,6.4,5,8v16c0,1.6,1.4,3,3,3h16c1.6,0,3-1.4,3-3V8c0-1.6-1.4-3-3-3H8z M8,7h16c0.6,0,1,0.4,1,1v16
	c0,0.6-0.4,1-1,1H8c-0.6,0-1-0.4-1-1V8C7,7.4,7.4,7,8,7z M11.5,12.5C9.6,12.5,8,14.1,8,16s1.6,3.5,3.5,3.5S15,17.9,15,16
	S13.4,12.5,11.5,12.5z M20.5,12.5c-1.9,0-3.5,1.6-3.5,3.5s1.6,3.5,3.5,3.5S24,17.9,24,16S22.4,12.5,20.5,12.5z"/>
</svg>
