<?xml version="1.0" encoding="utf-8"?>
<!-- Generator: Adobe Illustrator 25.0.0, SVG Export Plug-In . SVG Version: 6.00 Build 0)  -->
<svg version="1.1" id="Layer_1" xmlns="http://www.w3.org/2000/svg" xmlns:xlink="http://www.w3.org/1999/xlink" x="0px" y="0px"
	 viewBox="0 0 32 32" style="enable-background:new 0 0 32 32;" xml:space="preserve">
<style type="text/css">
	.st0{fill:#FFFFFF;}
</style>
<path class="st0" d="M11.5,5C7.9,5,5,7.9,5,11.5v9.1c0,3.6,2.9,6.5,6.5,6.5h9.1c3.6,0,6.5-2.9,6.5-6.5v-9.1C27,7.9,24.1,5,20.5,5
	H11.5z M11.5,7h9.1C23,7,25,9,25,11.5v9.1c0,2.5-2,4.5-4.5,4.5h-9.1C9,25,7,23,7,20.5v-9.1C7,9,9,7,11.5,7z M21.9,9.2
	c-0.5,0-0.9,0.4-0.9,0.9s0.4,0.9,0.9,0.9s0.9-0.4,0.9-0.9S22.4,9.2,21.9,9.2z M16,10c-3.3,0-6,2.7-6,6s2.7,6,6,6s6-2.7,6-6
	S19.3,10,16,10z M16,12c2.2,0,4,1.8,4,4s-1.8,4-4,4s-4-1.8-4-4S13.8,12,16,12z"/>
</svg>
