<?xml version="1.0" encoding="utf-8"?>
<!-- Generator: Adobe Illustrator 25.0.0, SVG Export Plug-In . SVG Version: 6.00 Build 0)  -->
<svg version="1.1" id="Layer_1" xmlns="http://www.w3.org/2000/svg" xmlns:xlink="http://www.w3.org/1999/xlink" x="0px" y="0px"
	 viewBox="0 0 4800 1600" style="enable-background:new 0 0 4800 1600;" xml:space="preserve">
<style type="text/css">
	.st0{fill:none;stroke:#010101;stroke-width:4;stroke-miterlimit:10;}
	.st1{fill:none;stroke:#010101;stroke-width:6;stroke-miterlimit:10;}
	.st2{fill:none;stroke:#010101;stroke-width:4;stroke-linejoin:round;stroke-miterlimit:10;}
	.st3{fill:none;stroke:#231F20;stroke-width:4;stroke-miterlimit:10;}
	.st4{fill:#231F20;}
</style>
<g id="Layer_4">
	<g id="Outline_1_">
		<path id="Outline" class="st0" d="M594.3,1315.8c-91.3-1.5-424.4-58.6-464.9-63.1c0,0-29-16.4-45.4-42.3
			c-16.4-25.8-42.3-291.1-42.3-291.1s0-25.3,8.3-41.2c9.1-17.4,55.4-39.4,55.4-39.4c4.2-26.7,69.9-96.9,85.4-107.2
			c2.4-21.2,48.9-40.5,68.9-51.4c57-31,107.6-58.9,71.7-119.7c0,0-32.6-72-52.7-104.6c-25.9-49.2-6.7-70.8,59-76.2
			c83.8-0.2,149.8,35,192,69.4c0,0,9.4,5.5,17.5,5c72.5-8,145.4-17.5,218.6-24c53.6-8.2,85.8-28.7,126.8-46.4
			c138.7-59.8,331.9-131.8,475.3-179.2c0,0,121-36.3,139.8-44.4c18.8-8.1,18-39.5,39.3-44.3c215.9-49,450.2-66.3,642.4-69.1
			c224.9-3.3,392.1,13.2,404.6,21.6c50.1,33.7,538.6,408.7,550,415c11.4,6.3,52.7,23.2,76.8,25.9c24.1,2.7,526.2,57.8,771.1,97
			c97.8,14.4,299.6,49.4,395,73.8c42.6,22.8,175.6,170.2,205.8,193.3c28.2,23,96,59.2,111.7,74.6s39.7,56.9,39.7,56.9
			s10.7,18.8,11.7,28.2c3.2,27.6-4.7,113.6-5.7,134.1c0,0-15.1,128.9-10.7,141.4s8.3,14.6,13.6,16.7c23.8,22.2-35.8,54.5-99.4,62.1
			c-63.2,7.5-262.6,30.7-390.5,36c-11.5-6.5-11.5-28.7-4.7-32.1c46.3-190.6-25-469.5-209.2-555.4c-413-192.5-706.9,86.1-712.7,479
			c-0.8,54-6.4,60.7-19.7,66.9c-13.3,6.3-38.8,7.5-86.8-2.8s-215.4-11.5-830-25.8c-605.8-1-347-28-738.8,12
			c-51.9,11.3-112.1,17.9-120,9.9c-12.5-108.8,4.4-161.6-25-287.2c-79.8-230.7-262.4-342.8-441.4-342.8
			c-241.9,0-436.8,159.3-445.7,461.5c0,0-4,76.2,3.5,86.1c11,14.5,28.6,10.2,30.7,15.9C666.6,1316.7,603.2,1315.9,594.3,1315.8z"/>
		<path id="Taillight" class="st0" d="M105.6,838.7l250.8,9.4c0,0-2.7-20.7-7-32.9c-4.3-12.1-2.7-37.8-34.4-60.3
			c0,0-14.5-7.8-31.3-10.2c-16.8-2.3-104.6-3.4-104.6-3.4"/>
		<line id="Rear_Bumper_Line" class="st0" x1="748.7" y1="870.3" x2="356.4" y2="848"/>
		<path id="Skirt" class="st0" d="M3342.4,1239.8c0,0-16.7,8.1-35.5,8.1s-54.3-8.3-79.3-11.5c-25-3.1-49.8-5.7-114.8-8.3
			c-65-2.6-394.7-9.7-394.7-9.7l-371.5-7.8l-291.4-8.3c0,0-160.2-9.1-280.7-7.6s-241.8,4.6-241.8,4.6"/>
		<path id="Door_Front" class="st0" d="M2880.2,531.9h19.5c0,0,4.7,6.3,25.8,14.9s51,7.8,51,7.8s146.2,2.3,186,52.8
			c77,98,11.9,488.6,3.4,623.4"/>
		<g id="Windows">
			<path class="st0" d="M2649.5,509.9h-531.3l-564.9-7.8h-0.4h-0.4c-0.1,0-12.1,0.2-31.9,0.2c-49.6,0-145.8-1.4-232.9-10.5
				c-47.9-5-86.5-11.7-114.8-19.9c-41.5-12-47.2-23.3-47.7-24.6c-0.9-2.3-1.6-5.5,1.1-11.2c3.8-8.2,14.7-22.1,44.4-41.7
				c20.9-13.7,48.1-28.2,80.7-42.8c56.3-25.4,109.7-42.8,110.2-42.9l0.3-0.1l0.3-0.1c0.6-0.2,60.1-21.6,141.7-46.3
				c75.2-22.7,184.9-52.9,280.7-67.7c184.3-28.4,448.6-37.2,451.3-37.3c0.3,0,26.1-0.8,62.2-0.8c34.4,0,84.9,0.8,130.3,4.4
				c74.2,7.3,82.3-1.5,197.3,120.3c37.4,39.5,76.4,88,92.2,108"/>
			<path class="st0" d="M2759.8,383.2l10.1,10.4c-11.6-4.9-22.9-7.6-33.6-7.2c-6.3,0.2-12.3,1.1-18.1,2.6
				c-47,11.8-77.2,61.2-75.8,96c0,0-3.1,12,7.1,25c3.3,4.2,8.1,8.6,14.8,12.6c8.4,5.1,22.6,7.9,38.1,9.4H2118l-565-7.8
				c0,0-12.1,0.2-32.3,0.2c-98.5,0-390.1-5.4-415.8-68.7c-31.1-76.8,250-167.9,250-167.9s238.7-86.1,426.5-115
				c187.8-29,453.9-37.6,453.9-37.6s26-0.8,62.9-0.8c75.8,0,197.6,3.5,236,25.1C2591.5,191.4,2759.8,383.2,2759.8,383.2z"/>
			<path class="st0" d="M2880.2,531.9c0.4-5.3,0.6-10.7,0.1-17.3l19.4,17.3H2880.2z"/>
			<line class="st1" x1="1844.1" y1="506.1" x2="1742.7" y2="201.7"/>
			<line class="st1" x1="1679.9" y1="214.9" x2="1779.2" y2="505.2"/>
			<line class="st1" x1="2564.9" y1="509.9" x2="2435.8" y2="161.3"/>
			<line class="st1" x1="2406.9" y1="159.1" x2="2539.1" y2="509.9"/>
		</g>
		<path id="Door" class="st0" d="M1803.7,527.5c0,0-14.6,29.4-14.6,67.2c0,42.8,29.2,130.4,29.2,130.4s47.5,146.6,71,200.3
			s67.3,180.5,115.3,209.2c48,28.7,163.3,24.5,285.9,27.1c122.6,2.6,565,12.5,565,12.5l315.7,9.6"/>
		<path id="Front_Bumper_Line" class="st0" d="M4187.2,956.7h385.9c0,0,108.7-3.4,114.8-8.7s1.1-12.2,1.1-12.2"/>
		<path id="Bumper_LIght" class="st0" d="M4542.6,1045.3c34.9,0,129.6,0.7,158.7,0.7c29.9,0,33-3.7,36.1,5.7
			c3.1,9.4,1.6,59.5-7.3,68.9s-55.6,8.3-55.6,8.3s-89.5,0-114,0c-17.1,0-39.7-25.4-40.7-52.3
			C4518.8,1049.3,4524.2,1045.3,4542.6,1045.3z"/>
		<g id="Mirror">
			<path id="_x32__3_" class="st2" d="M2880.2,531.9c-0.6,6.5-1.6,12.9-2.2,21.1c-1.6,19.6-38.4,33.3-72,31.3
				c-33.7-1.9-50.1-7.8-57.1-21.9s30.5-30.5,30.5-30.5h-76.9c-15.5-1.5-29.7-4.3-38.1-9.4c-6.7-4.1-11.5-8.4-14.8-12.6
				c-10.2-13-7.1-25-7.1-25c-1.4-34.8,28.8-84.2,75.8-96c5.8-1.5,11.8-2.3,18.1-2.6c10.6-0.4,22,2.4,33.6,7.2
				c50.5,21.3,103.9,83.3,108.1,104.7c1.2,6.3,2,11.7,2.3,16.4C2880.8,521.2,2880.7,526.6,2880.2,531.9z"/>
			<path id="_x31__2_" class="st0" d="M2779.4,531.9c0,0,24.7,10.6,50.1,8.6s50.8-8.6,50.8-8.6"/>
		</g>
		<g id="Wing">
			<path class="st0" d="M800.2,422.4c-22.5,11.2-31.1,51.9-31.1,51.9"/>
		</g>
		<path id="Upper_Curve" class="st0" d="M242.8,688.8C345.5,626.6,1226.7,301,1226.7,301s224.6-78.3,418.7-116.6
			c194.1-38.3,325-48.4,473-55.8c361.9-18,402.1,7.3,467.6,71.9"/>
		<g id="Windshield">
			<path id="_x32__1_" class="st0" d="M2594.1,68c-56.9,14-30.9,67.3-8.2,91.1l274.8,296c0,0,50.8,61.7,90.4,70.1
				c73.2,9.7,186.5-11.6,208.1-33.3"/>
			<path id="_x31__1_" class="st0" d="M2614.8,81.1c-55,22.2-37.6,51.4-14.9,75.1l266.8,287.2c0,0,50,59.1,89.6,67.4
				c73.2,9.7,162.3-8.5,188-27.9"/>
		</g>
		<g id="Handle">
			<path id="_x33_" class="st0" d="M2023.6,683.6L2023.6,683.6c-0.6,0.9-1.3,1.8-2.1,2.7l0,0c-11.1,13.1-32.3,25-65.6,24.7
				c-24.4-0.2-42.3-7.4-52.3-21.2c0.2-7-6.2-20.5,62.3-21C2024,668.4,2026.1,678.6,2023.6,683.6z"/>
			<path id="_x32_" class="st0" d="M2024.5,642.1c-6,2.1,1.9,10.8-64.5,4.8c-57.9-5.2-53.2-11.2-53.7-15.5
				c9.5-9.7,24.7-16.3,46.2-16.4C1989.8,614.8,2014.1,625.8,2024.5,642.1z"/>
			<path id="_x31_" class="st0" d="M2089.1,664.2c0,10.2-32.6,17.5-67.6,22.1l0,0c0.2-0.2,1.3-1.2,2.1-2.7l0,0
				c2.5-5,0.4-15.2-57.7-14.8c-68.6,0.5-62.2,13.9-62.3,21c0,0.6-0.1,1.2-0.2,1.7c-0.8,2.4-7.7,2.2-12.8,2.3
				c-40.3,0.8-66.4-1.9-66.4-31.4c0-21.6,17.5-31.8,42-34.3c13.5-1.4,37.1-0.4,39.2,1.3c0.8,0.6,1,1.3,1.1,2.1
				c0.4,4.3-4.3,10.2,53.7,15.5c66.4,6,58.5-2.7,64.5-4.8c1.6-0.6,4.1-0.6,9.3,0.1C2067.3,647.2,2089.1,654.3,2089.1,664.2z"/>
		</g>
	</g>
	<path id="Wing_2" class="st0" d="M301.9,385.4c-7.8,11.1,2.5,23.3,2.5,23.3s23,23.2,53.7,47S449,518,500.7,514.3
		c0,0,66.5,2.2,272.5-54.1"/>
	<path id="Wing_1" class="st0" d="M547.2,454c-128.6,15.2-122.8,42.6-122.8,42.6"/>
	<path id="Front_Well_2" class="st0" d="M4263.2,1423c0,0-58.7-32.4-64.2-37.8c-5.5-5.5,7-18-11.8-33.9
		c-7.4-6.2-19.4-10.8-35.8-14.1"/>
	<path id="Front_Well_1" class="st0" d="M3468,1336.9c-95.4,4.8-133.1,11.2-133.1,11.2"/>
	<line id="Rear_Well_2" class="st0" x1="1445.1" y1="1291.7" x2="1536.6" y2="1300.8"/>
	<path id="Rear_Well_1" class="st0" d="M663.4,1308.2c0-14.5,13.9-11.7,13.9-11.7h27.8"/>
	<path id="Rear_Windshield" class="st0" d="M1486.2,167.7c0,0-24.9,12.9-204.5,79S922.5,390.2,881,405.9s-51.1,6.1-51.1,6.1"/>
	<path id="Squirter" class="st0" d="M3408.7,530.4c0,0-3.6-10.1-19.8-12.2s-20.9,6.1-20.9,6.1"/>
	<path id="Wiper_Base" class="st0" d="M3220.8,509.1c0,0-9.8-9.7-24.4-13.8c-14.6-4.2-27.6-1.1-27.6-1.1"/>
	<path id="Wiper" class="st2" d="M3117.4,463.6c14.4,1.4,33,4.9,44.9,13.6c0,0,23.3-1.7,23.3-1.7c-7.3,2.1-9.6,7.3-9.6,7.3
		c-10.4-1.8-16.8,9.2-16.8,9.2 M3205.8,499c6.1-14.2-4.1-20.6,7.2-16.2c55-47-97.3-26.1-119.7-37.2"/>
	<path id="Headlight" class="st2" d="M4533.9,816.4c0,0-12.8-30.5-53.3-69.6c-66.1-64-83.1-60-83.1-60"/>
	<g id="Wheel_1_">
		<circle id="Tire_1_" class="st3" cx="1074.2" cy="1160.3" r="393.4"/>
		<circle id="Outer_1_" class="st3" cx="1074.2" cy="1160.3" r="322.6"/>
		<circle id="Inner_1_1_" class="st3" cx="1074.2" cy="1160.3" r="302.6"/>
		<path id="Inner_2" class="st3" d="M1074.2,874c158,0,286.3,128.3,286.3,286.3s-128.3,286.3-286.3,286.3s-286.3-128.3-286.3-286.3
			S916.3,874,1074.2,874"/>
		<circle id="Inner_3_1_" class="st3" cx="1074.2" cy="1160.3" r="267.5"/>
		<path id="Spokes_1_" class="st4" d="M1074.2,908.3c21.1,0,33.6,2.3,33.7,2.4h0.1h0.1c1.2,0.2,2.9,0.8,3.4,1.4c1.4,2.2,1.1,5,1.1,5
			l0,0v0.1v0.1l-17.9,169.2c-6.4-1.9-13-2.8-20.5-2.8c-7.6,0-14.6,1.4-20.5,3l-17.9-169.5l0,0l0,0c-0.1-1.1,0-3.6,1-4.9l0,0v-0.1
			c0.5-0.6,2.2-1.3,3.4-1.5h0.1h0.1C1040.6,910.6,1053.1,908.3,1074.2,908.3 M851.5,1047.5c0.9,0,2,0.4,2.7,0.6l0.5,0.2l155.9,69.3
			c-7.8,11.4-12.4,25.1-13,39.5l-166.3-35.2c-0.9-0.3-3.2-1.3-4.5-2.8c-0.4-0.6-0.6-2.4-0.4-3.7c0-0.1,1.9-13.3,8.3-33.2
			c6.4-19.9,12.9-31.2,13-31.3l0.1-0.2l0.1-0.2c0.5-1.1,1.5-2.4,2-2.5l1.2-0.2l0.3-0.3C851.4,1047.5,851.5,1047.5,851.5,1047.5
			 M1296.9,1047.5c0.1,0,0.1,0.1,0.2,0.1c0.3,0.1,0.7,0.3,1.1,0.4c1.1,0.6,2.1,2.1,2.5,2.8l0.1,0.1l0.1,0.1
			c0.1,0.1,6.5,11.5,13,31.3c6.5,19.9,8.3,33.1,8.3,33.2c0.1,1,0,3-0.5,3.7l-0.1,0.1l-0.1,0.1c-1.3,1.9-3.6,2.4-3.9,2.5h-0.1h-0.2
			l-166.5,35.2c-0.6-14.3-5.1-28.1-13-39.5l155.3-69.3h0.1h0.1C1293.3,1048.3,1294.9,1047.5,1296.9,1047.5 M1014,1207.6
			c9.3,11.5,20.9,19.7,33.8,24.1l-85.4,147.5c-0.4,0.7-1.8,2.7-3.4,3.4h-1c-1.2,0-2.6-0.6-3.1-0.8h-0.1h-0.1
			c-0.1-0.1-12-5.5-29-17.7c-17-12.3-26-21.8-26.1-21.9l0,0l0,0c-0.9-0.9-1.9-2.5-1.9-3.2c0-2.5,1.9-4.4,1.9-4.4l0,0l0.1-0.1
			l0.1-0.1L1014,1207.6 M1134.3,1208l114.3,126.9l0,0l0.1,0.1c0,0,1.9,2,1.9,4.5c0,0.8-1,2.3-1.9,3.2l0,0l0,0
			c-0.1,0.1-9.1,9.6-26.1,21.9c-17,12.3-28.8,17.7-29,17.7h-0.1h-0.1c-0.4,0.2-1.9,0.8-3.1,0.8h-1c-1.6-0.8-3-2.8-3.4-3.5
			l-85.5-147.6C1113.9,1227.3,1125.6,1218.9,1134.3,1208 M1074.2,904.3c-21.8,0-34.5,2.4-34.5,2.4s-4.2,0.6-6.1,3
			c-2.4,3-1.8,7.9-1.8,7.9l18.2,171.9v2.4c7.9-2.4,15.7-4.2,24.2-4.2s16.3,1.2,24.2,4.2v-2.4l18.2-171.9c0,0,0.6-4.2-1.8-7.9
			c-1.8-2.4-6.1-3-6.1-3S1096,904.3,1074.2,904.3L1074.2,904.3z M1296.9,1043.5c-3,0-5.4,1.2-5.4,1.2l-157.4,70.2l-2.4,1.2
			c9.7,12.1,15.1,27.8,15.1,44.2c0,0.6,0,1.2,0,1.8l2.4-0.6l168.9-35.7c0,0,4.2-0.6,6.7-4.2c1.8-2.4,1.2-6.7,1.2-6.7
			s-1.8-13.3-8.5-33.9s-13.3-32.1-13.3-32.1s-1.8-3.6-4.8-4.8C1298.8,1044.1,1298.2,1043.5,1296.9,1043.5L1296.9,1043.5z
			 M851.5,1043.5c-0.6,0-1.8,0-2.4,0.6c-3,0.6-4.8,4.8-4.8,4.8s-6.7,11.5-13.3,32.1c-6.7,20.6-8.5,33.9-8.5,33.9s-0.6,4.2,1.2,6.7
			c2.4,3,6.7,4.2,6.7,4.2l168.9,35.7l2.4,0.6c0-0.6,0-1.2,0-1.8c0-16.3,5.4-32.1,15.1-44.2l-2.4-1.2l-158-70.2
			C856.3,1044.7,853.9,1043.5,851.5,1043.5L851.5,1043.5z M1134.1,1201.5c-9.1,13.3-23,23.6-39.3,28.4l1.2,2.4l86.5,149.5
			c0,0,2.4,4.2,6.1,5.4c0.6,0,1.2,0,1.8,0c2.4,0,4.8-1.2,4.8-1.2s12.1-5.4,29.7-18.2c17.6-12.7,26.6-22.4,26.6-22.4s3-3,3-6.1
			c0-4.2-3-7.3-3-7.3l-115.6-128.3L1134.1,1201.5L1134.1,1201.5z M1014.3,1201.5l-1.8,1.8l-115.6,128.3c0,0-3,3-3,7.3
			c0,3,3,6.1,3,6.1s9.1,9.7,26.6,22.4c17.6,12.7,29.7,18.2,29.7,18.2s2.4,1.2,4.8,1.2c0.6,0,1.2,0,1.8,0c3.6-1.2,6.1-5.4,6.1-5.4
			l86.5-149.5l1.2-2.4C1037.3,1225.1,1024,1214.8,1014.3,1201.5L1014.3,1201.5z"/>
		<path id="Lugs_1_" class="st3" d="M1151.1,1167c-5.4,0-10.9,2.4-14.5,7.3c-6.1,7.9-4.2,19.4,4.2,25.4c3,2.4,6.7,3.6,10.9,3.6
			c5.4,0,10.9-2.4,14.5-7.3c6.1-7.9,4.2-19.4-4.2-25.4C1159,1168.2,1155.3,1167,1151.1,1167L1151.1,1167z M1122,1076.8
			c-3.6,0-7.3,1.2-10.9,3.6c-7.9,6.1-9.7,16.9-4.2,25.4c3.6,4.8,9.1,7.3,14.5,7.3c3.6,0,7.3-1.2,10.9-3.6c7.9-6.1,9.7-16.9,4.2-25.4
			C1132.9,1079.2,1127.5,1076.8,1122,1076.8L1122,1076.8z M1026.4,1076.8c-1.8,0-3.6,0-5.4,0.6c-9.7,3-14.5,13.3-11.5,23
			c2.4,7.9,9.7,12.7,17.6,12.7c1.8,0,3.6,0,5.4-0.6c9.7-3,14.5-13.3,11.5-23C1041.5,1081.6,1034.3,1076.8,1026.4,1076.8
			L1026.4,1076.8z M1074.2,1223.3c-7.9,0-14.5,4.8-17.6,12.7c-3,9.7,2.4,20,11.5,23c1.8,0.6,3.6,0.6,5.4,0.6
			c7.9,0,14.5-4.8,17.6-12.7c3-9.7-2.4-20-11.5-23C1077.9,1223.3,1076,1223.3,1074.2,1223.3L1074.2,1223.3z M997.4,1167
			c-10.3,0-18.2,7.9-18.2,18.2s7.9,18.2,18.2,18.2c10.3,0,18.2-7.9,18.2-18.2S1007,1167,997.4,1167L997.4,1167z"/>
		<path id="Holes" class="st3" d="M1303.6,1156.1c0,24.8-3.6,49.6-11.5,74.4s-20,46.6-34.5,66.6c-3.6,4.8-9.1,7.3-14.5,7.3
			c-1.8,0-3.6,0-5.4-0.6s-3-1.2-4.8-2.4c-1.2-0.6-1.8-1.8-3-3l-1.8-2.4l-46-65.4c-8.5-10.3-10.9-24.8-6.7-38.1
			c2.1-6.7,5.9-12.6,10.7-17.2c4.8-4.7,10.8-8.2,17.1-10l75.7-25.4l2.4-0.6c1.2-0.6,2.4-0.6,4.2-0.6c2.4,0,4.2,0.6,5.4,0
			C1298.2,1140.9,1303.6,1148.2,1303.6,1156.1z M1263.1,1027.8c-13.9-20-32.1-38.1-52.7-53.3c-21.2-15.1-43.6-26.6-67.2-33.9
			c-3-0.6-4.8-0.6-6.7-0.6c-6.1,0-11.5,3-14.5,7.3c-1.2,1.2-1.8,3-2.4,4.8c-0.6,1.2-0.6,3-0.6,4.2v3l1.2,79.9
			c0,6.7,1.5,13.3,4.5,19.4c2.9,6.1,7.3,11.5,13.1,15.7c7.3,5.5,16.3,7.9,24.8,7.9c4.8,0,9.1-0.6,13.9-2.4l76.3-23.6l2.4-0.6
			c1.2-0.6,2.4-1.2,3.6-2.4c1.8-1.2,3-2.4,4.2-4.2C1267.3,1042.9,1267.9,1034.4,1263.1,1027.8z M1030,952.1
			c-0.6-1.8-1.2-3.6-2.4-4.8c-4.2-4.2-9.7-7.3-15.7-7.3c-1.8,0-3.6,0-5.4,0.6c-23.6,7.3-46,18.2-67.2,33.9
			c-21.2,15.1-38.7,33.3-52.7,53.3c-4.8,6.7-4.2,15.1,0,21.2c1.2,1.2,2.4,3,4.2,4.2c1.2,0.6,2.4,1.8,3.6,2.4l2.4,0.6l76.3,23.6
			c2.1,0.9,4.4,1.5,6.7,1.9c2.3,0.4,4.8,0.5,7.2,0.5c8.5,0,16.9-2.4,24.8-7.9c11.5-8.5,17.6-21.8,17.6-35.1l1.2-79.9v-3
			C1030.7,955.1,1030,953.3,1030,952.1z M973.2,1193c-4.2-13.3-15.1-23.6-27.8-27.2l-75.6-25.4l-2.4-0.6c-1.2-0.6-3-1.2-4.2-1.2
			c-1.8,0-3.6,0.6-5.5,0.6c-7.3,2.4-12.7,9.1-12.7,17.6c-0.6,24.8,3,49.6,11.5,74.4c7.9,24.8,20,47.2,34.5,66.6
			c3.6,4.8,9.1,7.3,14.5,7.3c1.8,0,3.6,0,5.4-0.6s3.6-1.2,4.8-2.4c1.2-0.6,2.4-1.8,3-3l1.8-2.4l46-65.4c5.5-7.5,8.6-16.5,8.6-25.8
			C975.1,1201.2,974.5,1197.1,973.2,1193z M1160.2,1355.2c-0.6-1.2-1.2-3-1.8-4.2l-1.8-2.4l-47.8-64.2c-3.6-5.4-8.6-10-14.5-13.2
			s-12.7-5-20-5c-14.5,0-26.6,7.3-34.5,18.2l-47.8,64.2l-1.8,2.4c-0.6,1.2-1.2,2.4-1.8,4.2c-0.6,1.8-0.6,3.6-0.6,5.5
			c0,7.9,4.8,14.5,12.7,17.5c23,7.9,48.4,12.1,73.8,12.1s50.8-4.2,73.8-12.1c7.9-2.4,12.7-9.7,12.7-17.5
			C1160.8,1358.8,1160.8,1357,1160.2,1355.2z"/>
		<circle id="Cap_1_" class="st3" cx="1074.2" cy="1160.3" r="50.2"/>
		<path id="Bolts_1_" class="st4" d="M1150.7,922.2L1150.7,922.2c0,0,0.1,0,0.4,0.2l0.3,0.2l0.4,0.1c1.3,0.4,2,1.4,2.3,2
			c0.5,1,0.7,2.1,0.4,3.1c-0.6,1.3-2,2.6-3.8,2.7c-0.1,0-0.2-0.1-0.3-0.1c-0.5-0.2-1-0.3-1.6-0.4c-1.1-0.4-1.8-1.4-2.1-1.9
			c-0.5-1-0.7-2.1-0.4-3.1c0.6-1.4,2.1-2.7,4.1-2.7C1150.5,922.2,1150.6,922.2,1150.7,922.2 M998,922.2c2,0,3.5,1.4,4.1,2.7
			c0.5,2.2-0.8,4.6-2.8,5.1l-1,0.3l-0.2,0.2c-0.1,0-0.1,0-0.2,0c-2.1,0-3.4-0.9-4-2.6c-0.6-2.2,0.7-4.7,2.7-5.3l1-0.3l0.2-0.2
			C997.9,922.2,997.9,922.2,998,922.2 M1218.9,957.3c0.6,0,1,0.1,2.4,1c1.7,1.6,2.2,3.8,1.1,5.8c-1.1,1-2.4,1.6-3.5,1.6
			c-0.8,0-1.6-0.3-2-0.6l-0.1-0.1l-0.1-0.1c-1.9-1.5-2.3-3.9-1.2-5.9C1216.4,957.9,1217.7,957.3,1218.9,957.3 M929.6,957.3
			c1.1,0,2.4,0.6,3.5,1.6c0.5,0.9,0.7,2,0.5,3.1c-0.1,0.7-0.4,1.8-1.4,2.5c-1.6,1-2,1.1-2.6,1.1c-1.9,0-2.8-0.5-3.4-1.3
			c-0.6-0.9-0.8-2.2-0.7-3.3c0.1-0.7,0.4-1.8,1.4-2.5C928.5,957.4,928.9,957.3,929.6,957.3 M1273.3,1011.8c1.1,0,2.4,0.6,3.5,1.6
			c0.5,0.9,0.7,2,0.5,3.1c-0.1,0.7-0.4,1.8-1.4,2.5c-1.6,1-2,1.1-2.6,1.1c-1.9,0-2.8-0.5-3.4-1.3c-0.6-0.9-0.8-2.2-0.7-3.3
			c0.1-0.7,0.4-1.8,1.4-2.5C1272.3,1011.9,1272.7,1011.8,1273.3,1011.8 M875.1,1011.8c0.8,0,1.6,0.3,2,0.6l0.1,0.1l0.1,0.1
			c1.9,1.5,2.3,3.9,1.2,5.9c-1.1,1-2.4,1.6-3.5,1.6c-0.8,0-1.6-0.3-2-0.6l-0.1-0.1l-0.1-0.1c-1.9-1.5-2.3-3.9-1.2-5.9
			C872.7,1012.4,874,1011.8,875.1,1011.8 M1319.9,1156.4c1.4,0,2.6,0.5,3.3,1.3c0.5,0.6,0.7,1.2,0.6,2v0.3v0.3c0,2-1.8,3.9-3.9,3.9
			s-3.9-1.8-3.9-3.9S1317.9,1156.4,1319.9,1156.4 M828.5,1156.4c2,0,3.9,1.8,3.9,3.9s-1.8,3.9-3.9,3.9s-3.9-1.8-3.9-3.9
			S826.5,1156.4,828.5,1156.4 M1307.8,1232.1c0.1,0,0.1,0,0.2,0l0.2,0.2l1,0.3c1.3,0.4,2,1.4,2.3,2c0.5,1,0.7,2.1,0.4,3.1
			c-0.6,1.3-2,2.6-3.8,2.7c-0.1,0-0.2-0.1-0.3-0.1c-0.5-0.2-1-0.3-1.6-0.4c-1.1-0.4-1.8-1.4-2.1-1.9c-0.5-1-0.7-2.1-0.4-3.1
			C1304.4,1233.5,1305.9,1232.1,1307.8,1232.1 M840.6,1232.1c1,0,2.8,1.1,4.1,3c0.3,2.1-0.9,4.3-2.8,4.9l-1,0.3l-0.2,0.2
			c-0.1,0-0.1,0-0.2,0c-2.1,0-3.4-0.9-4-2.6c-0.6-2.2,0.7-4.7,2.7-5.3l1-0.3l0.2-0.2C840.5,1232.1,840.6,1232.1,840.6,1232.1
			 M875.1,1300.5c1.4,0,3,0.8,3.3,1.2c1.3,1.9,0.9,4.9-0.7,6c-1.6,1-2,1.1-2.6,1.1c-1.9,0-2.8-0.5-3.4-1.3c-0.6-0.9-0.8-2.2-0.7-3.3
			c0.1-0.7,0.4-1.8,1.4-2.5C874,1300.6,874.5,1300.5,875.1,1300.5 M1273.3,1300.5c0.2,0,1.2,0.2,2.4,1c1.7,1.5,2.2,3.8,1.1,5.8
			c-1.1,1-2.4,1.6-3.5,1.6c-0.8,0-1.6-0.3-2-0.6l-0.1-0.1l-0.1-0.1c-1.9-1.5-2.3-3.9-1.2-5.9
			C1270.9,1301.1,1272.2,1300.5,1273.3,1300.5 M998.8,1390.1L998.8,1390.1c0,0,0.1,0,0.4,0.2l0.3,0.2l0.4,0.1c1.3,0.4,2,1.4,2.3,2
			c0.5,1,0.7,2.1,0.4,3.1c-0.6,1.3-2,2.6-3.8,2.7c-0.1,0-0.2-0.1-0.3-0.1c-0.5-0.2-1-0.3-1.6-0.4c-1.8-0.7-3-3-2.5-5.1
			c0.6-1.4,2.1-2.7,4.1-2.7C998.6,1390.1,998.7,1390.1,998.8,1390.1 M1150.5,1390.1c1.6,0,3.1,1,4.1,2.9c0.4,2.1-0.8,4.5-2.8,5
			l-1,0.3l-0.2,0.2c-0.1,0-0.1,0-0.2,0c-2.1,0-3.4-0.9-4-2.6c-0.6-2.2,0.7-4.7,2.7-5.3l1-0.3l0.2-0.2
			C1150.4,1390.1,1150.4,1390.1,1150.5,1390.1 M1074.2,1402.2c2,0,3.9,1.8,3.9,3.9c0,2-1.8,3.9-3.9,3.9s-3.9-1.8-3.9-3.9
			C1070.4,1404,1072.2,1402.2,1074.2,1402.2 M1150.5,918.2c-3.6,0-6.7,2.4-7.9,5.4c-1.2,4.2,1.2,9.1,5.4,10.3c0.6,0,1.8,0.6,2.4,0.6
			c3.6,0,6.7-2.4,7.9-5.4c1.2-4.2-1.2-9.1-5.4-10.3C1151.7,918.2,1151.1,918.2,1150.5,918.2L1150.5,918.2z M998,918.2
			c-0.6,0-1.8,0-2.4,0.6c-4.2,1.2-6.7,6.1-5.4,10.3c1.2,3.6,4.2,5.4,7.9,5.4c0.6,0,1.8,0,2.4-0.6c4.2-1.2,6.7-6.1,5.4-10.3
			C1004.6,920.6,1001.6,918.2,998,918.2L998,918.2z M1218.9,953.3c-2.4,0-4.8,1.2-6.7,3c-2.4,3.6-1.8,8.5,1.8,11.5
			c1.2,1.2,3,1.8,4.8,1.8c2.4,0,4.8-1.2,6.7-3c2.4-3.6,1.8-8.5-1.8-11.5C1221.9,953.9,1220.7,953.3,1218.9,953.3L1218.9,953.3z
			 M929.6,953.3c-1.8,0-3,0.6-4.8,1.8c-3.6,2.4-4.2,7.9-1.8,11.5c1.8,2.4,4.2,3,6.7,3c1.8,0,3-0.6,4.8-1.8c3.6-2.4,4.2-7.9,1.8-11.5
			C934.4,954.5,932,953.3,929.6,953.3L929.6,953.3z M1273.3,1007.8c-1.8,0-3,0.6-4.8,1.8c-3.6,2.4-4.2,7.9-1.8,11.5
			c1.8,2.4,4.2,3,6.7,3c1.8,0,3-0.6,4.8-1.8c3.6-2.4,4.2-7.9,1.8-11.5C1278.2,1009,1275.8,1007.8,1273.3,1007.8L1273.3,1007.8z
			 M875.1,1007.8c-2.4,0-4.8,1.2-6.7,3c-2.4,3.6-1.8,8.5,1.8,11.5c1.2,1.2,3,1.8,4.8,1.8c2.4,0,4.8-1.2,6.7-3
			c2.4-3.6,1.8-8.5-1.8-11.5C878.7,1008.4,876.9,1007.8,875.1,1007.8L875.1,1007.8z M1319.9,1152.4c-4.2,0-7.9,3.6-7.9,7.9
			c0,4.2,3.6,7.9,7.9,7.9s7.9-3.6,7.9-7.9C1328.4,1156.1,1324.8,1152.4,1319.9,1152.4L1319.9,1152.4z M828.5,1152.4
			c-4.2,0-7.9,3.6-7.9,7.9c0,4.2,3.6,7.9,7.9,7.9s7.9-3.6,7.9-7.9C836.4,1156.1,832.7,1152.4,828.5,1152.4L828.5,1152.4z
			 M1307.8,1228.1c-3.6,0-6.7,2.4-7.9,5.4c-1.2,4.2,1.2,9.1,5.4,10.3c0.6,0,1.8,0.6,2.4,0.6c3.6,0,6.7-2.4,7.9-5.4
			c1.2-4.2-1.2-9.1-5.4-10.3C1309.7,1228.1,1309,1228.1,1307.8,1228.1L1307.8,1228.1z M840.6,1228.1c-0.6,0-1.8,0-2.4,0.6
			c-4.2,1.2-6.7,6.1-5.4,10.3c1.2,3.6,4.2,5.4,7.9,5.4c0.6,0,1.8,0,2.4-0.6c4.2-1.2,6.7-6.1,5.4-10.3
			C846.7,1230.5,843.6,1228.1,840.6,1228.1L840.6,1228.1z M1273.3,1296.5c-2.4,0-4.8,1.2-6.7,3c-2.4,3.6-1.8,8.5,1.8,11.5
			c1.2,1.2,3,1.8,4.8,1.8c2.4,0,4.8-1.2,6.7-3c2.4-3.6,1.8-8.5-1.8-11.5C1276.4,1297.1,1274.5,1296.5,1273.3,1296.5L1273.3,1296.5z
			 M875.1,1296.5c-1.8,0-3,0.6-4.8,1.8c-3.6,2.4-4.2,7.9-1.8,11.5c1.8,2.4,4.2,3,6.7,3c1.8,0,3-0.6,4.8-1.8
			c3.6-2.4,4.2-7.9,1.8-11.5C880.6,1297.7,877.5,1296.5,875.1,1296.5L875.1,1296.5z M1150.5,1386.1c-0.6,0-1.8,0-2.4,0.6
			c-4.2,1.2-6.7,6.1-5.4,10.3c1.2,3.6,4.2,5.4,7.9,5.4c0.6,0,1.8,0,2.4-0.6c4.2-1.2,6.7-6.1,5.4-10.3
			C1156.5,1387.9,1153.5,1386.1,1150.5,1386.1L1150.5,1386.1z M998.6,1386.1c-3.6,0-6.7,2.4-7.9,5.4c-1.2,4.2,1.2,9.1,5.4,10.3
			c0.6,0,1.8,0.6,2.4,0.6c3.6,0,6.7-2.4,7.9-5.4c1.2-4.2-1.2-9.1-5.4-10.3C999.8,1386.1,999.2,1386.1,998.6,1386.1L998.6,1386.1z
			 M1074.2,1398.2c-4.2,0-7.9,3.6-7.9,7.9s3.6,7.9,7.9,7.9s7.9-3.6,7.9-7.9S1078.5,1398.2,1074.2,1398.2L1074.2,1398.2z"/>
	</g>
	<g id="Wheel_2_">
		
			<ellipse id="Tire_2_" transform="matrix(0.7071 -0.7071 0.7071 0.7071 284.2434 3038.2998)" class="st3" cx="3809.7" cy="1176" rx="377.7" ry="377.7"/>
		<circle id="Outer_2_" class="st3" cx="3809.7" cy="1176" r="309.7"/>
		<circle id="Inner_1_2_" class="st3" cx="3809.7" cy="1176" r="290.6"/>
		<path id="Inner_2_1_" class="st3" d="M3809.7,901.1c151.7,0,274.9,123.2,274.9,274.9s-123.2,274.9-274.9,274.9
			c-151.7,0-274.9-123.2-274.9-274.9S3658,901.1,3809.7,901.1"/>
		<circle id="Inner_3_2_" class="st3" cx="3809.7" cy="1176" r="256.9"/>
		<path id="Spokes_2_" class="st4" d="M3809.7,934.1c20.2,0,32.3,2.2,32.4,2.3h0.1h0.1c1.1,0.2,2.7,0.8,3.1,1.3c1.3,2.1,1,4.6,1,4.6
			l0,0v0.1v0.1l-17.1,162.3c-6.1-1.8-12.4-2.6-19.6-2.6s-13.9,1.3-19.5,2.8L3773,942.4l0,0l0,0c-0.1-1,0-3.4,0.9-4.6l0,0v-0.1
			c0.4-0.5,2.1-1.2,3.2-1.3h0.1h0.1C3777.5,936.4,3789.5,934.1,3809.7,934.1 M3595.9,1067.8c0.9,0,1.9,0.3,2.5,0.6l0.5,0.2
			l149.5,66.5c-7.4,10.9-11.8,24-12.3,37.6l-159.5-33.7c-0.9-0.3-3-1.2-4.2-2.6c-0.4-0.6-0.5-2.3-0.4-3.4c0-0.1,1.8-12.7,8-31.9
			c6.2-19,12.4-29.9,12.4-30l0.1-0.2l0.1-0.2c0.4-1,1.3-2.2,1.8-2.3l1.2-0.2L3595.9,1067.8
			C3595.8,1067.8,3595.8,1067.8,3595.9,1067.8 M4023.5,1067.8c0,0,0.1,0,0.1,0.1c0.3,0.1,0.6,0.3,1.1,0.4c0.9,0.5,1.9,1.8,2.3,2.6
			l0.1,0.1l0.1,0.1c0.1,0.1,6.3,11,12.4,30c6.2,19.1,8,31.7,8,31.9c0.2,1.1,0,2.9-0.4,3.4l-0.1,0.1l-0.1,0.1
			c-1.2,1.8-3.4,2.3-3.7,2.3h-0.1h-0.2l-159.7,33.8c-0.6-13.6-4.9-26.7-12.4-37.6l148.9-66.5l0,0h0.1
			C4020.1,1068.5,4021.6,1067.8,4023.5,1067.8 M3751.9,1221.6c8.9,10.9,19.9,18.8,32.3,23l-81.9,141.5c-0.4,0.8-1.8,2.5-3.1,3.2h-1
			c-1.1,0-2.5-0.6-2.9-0.7h-0.1h-0.1c-0.1-0.1-11.5-5.3-27.8-17c-16.3-11.8-24.9-20.9-25-21l0,0l0,0c-0.7-0.7-1.7-2.3-1.7-3
			c0-2.3,1.7-4.1,1.7-4.1l0,0l0.1-0.1l0.1-0.1L3751.9,1221.6 M3867.4,1222l109.6,121.7l0,0l0.1,0.1c0,0,1.8,1.9,1.8,4.2
			c0,0.7-0.9,2.2-1.7,3l0,0l0,0c-0.1,0.1-8.7,9.2-25,21s-27.7,17-27.8,17h-0.1h-0.1c-0.4,0.2-1.8,0.8-2.9,0.8h-1
			c-1.3-0.7-2.7-2.4-3.1-3.2l-82-141.6C3847.9,1240.4,3859.1,1232.4,3867.4,1222 M3809.7,930.1c-20.9,0-33.1,2.3-33.1,2.3
			s-4.1,0.6-5.8,2.9c-2.3,2.9-1.7,7.6-1.7,7.6l17.4,165v2.3c7.6-2.3,15.1-4.1,23.2-4.1s15.7,1.2,23.2,4.1v-2.3l17.4-165
			c0,0,0.6-4.1-1.7-7.6c-1.7-2.3-5.8-2.9-5.8-2.9S3830.6,930.1,3809.7,930.1L3809.7,930.1z M4023.6,1063.8c-2.9,0-5.2,1.2-5.2,1.2
			l-151.1,67.4l-2.3,1.2c9.3,11.6,14.5,26.7,14.5,42.4c0,0.6,0,1.2,0,1.7l2.3-0.6l162.1-34.3c0,0,4.1-0.6,6.4-4.1
			c1.7-2.3,1.2-6.4,1.2-6.4s-1.7-12.8-8.1-32.5c-6.4-19.8-12.8-30.8-12.8-30.8s-1.7-3.5-4.6-4.6l0,0
			C4025.3,1064.4,4024.7,1063.8,4023.6,1063.8L4023.6,1063.8z M3595.9,1063.8c-0.6,0-1.7,0-2.3,0.6c-2.9,0.6-4.6,4.6-4.6,4.6
			s-6.4,11-12.8,30.8s-8.1,32.5-8.1,32.5s-0.6,4.1,1.2,6.4c2.3,2.9,6.4,4.1,6.4,4.1l162.1,34.3l2.3,0.6c0-0.6,0-1.2,0-1.7
			c0-15.7,5.2-30.8,14.5-42.4l-2.3-1.2l-151.7-67.4C3600.5,1065,3598.2,1063.8,3595.9,1063.8L3595.9,1063.8z M3867.2,1215.5
			c-8.7,12.8-22.1,22.7-37.8,27.3l1.2,2.3l83.1,143.5c0,0,2.3,4.1,5.8,5.2c0.6,0,1.2,0,1.7,0c2.3,0,4.6-1.2,4.6-1.2
			s11.6-5.2,28.5-17.4s25.6-21.5,25.6-21.5s2.9-2.9,2.9-5.8c0-4.1-2.9-7-2.9-7l-111-123.2L3867.2,1215.5L3867.2,1215.5z
			 M3752.2,1215.5l-1.7,1.7l-111,123.2c0,0-2.9,2.9-2.9,7c0,2.9,2.9,5.8,2.9,5.8s8.7,9.3,25.6,21.5s28.5,17.4,28.5,17.4
			s2.3,1.2,4.6,1.2c0.6,0,1.2,0,1.7,0c3.5-1.2,5.8-5.2,5.8-5.2l83.1-143.5l1.2-2.3C3774.3,1238.1,3761.5,1228.3,3752.2,1215.5
			L3752.2,1215.5z"/>
		<path id="Lugs_2_" class="st3" d="M3883.5,1182.4c-5.2,0-10.5,2.3-13.9,7c-5.8,7.6-4.1,18.6,4.1,24.4c2.9,2.3,6.4,3.5,10.5,3.5
			c5.2,0,10.5-2.3,13.9-7c5.8-7.6,4.1-18.6-4.1-24.4C3891.1,1183.5,3887.6,1182.4,3883.5,1182.4L3883.5,1182.4z M3855.6,1095.8
			c-3.5,0-7,1.2-10.5,3.5c-7.6,5.8-9.3,16.3-4.1,24.4c3.5,4.6,8.7,7,13.9,7c3.5,0,7-1.2,10.5-3.5c7.6-5.8,9.3-16.3,4.1-24.4
			C3866.1,1098.1,3860.9,1095.8,3855.6,1095.8L3855.6,1095.8z M3763.8,1095.8c-1.7,0-3.5,0-5.2,0.6c-9.3,2.9-13.9,12.8-11,22.1
			c2.3,7.6,9.3,12.2,16.9,12.2c1.7,0,3.5,0,5.2-0.6c9.3-2.9,13.9-12.8,11-22.1C3778.3,1100.4,3771.4,1095.8,3763.8,1095.8
			L3763.8,1095.8z M3809.7,1236.4c-7.6,0-13.9,4.6-16.9,12.2c-2.9,9.3,2.3,19.2,11,22.1c1.7,0.6,3.5,0.6,5.2,0.6
			c7.6,0,13.9-4.6,16.9-12.2c2.9-9.3-2.3-19.2-11-22.1C3813.2,1236.4,3811.5,1236.4,3809.7,1236.4L3809.7,1236.4z M3735.9,1182.4
			c-9.9,0-17.4,7.6-17.4,17.4s7.6,17.4,17.4,17.4s17.4-7.6,17.4-17.4S3745.2,1182.4,3735.9,1182.4L3735.9,1182.4z"/>
		<path id="Holes_1_" class="st3" d="M4030,1171.9c0,23.8-3.5,47.6-11,71.5c-7.6,23.8-19.2,44.7-33.1,63.9c-3.5,4.6-8.7,7-13.9,7
			c-1.7,0-3.5,0-5.2-0.6s-2.9-1.2-4.6-2.3c-1.2-0.6-1.7-1.7-2.9-2.9l-1.7-2.3l-44.2-62.8c-8.1-9.9-10.5-23.8-6.4-36.6
			c2-6.4,5.7-12.1,10.3-16.6c4.7-4.5,10.3-7.8,16.4-9.6l72.6-24.4l2.3-0.6c1.2-0.6,2.3-0.6,4.1-0.6c2.3,0,4.1,0.6,5.2,0
			C4024.7,1157.4,4030,1164.3,4030,1171.9z M3991,1048.7c-13.4-19.2-30.8-36.6-50.6-51.1c-20.3-14.5-41.8-25.6-64.5-32.5
			c-2.9-0.6-4.7-0.6-6.4-0.6c-5.8,0-11,2.9-14,7c-1.2,1.2-1.7,2.9-2.3,4.6c-0.6,1.2-0.6,2.9-0.6,4.1v2.9l1.2,76.7
			c0,6.4,1.5,12.8,4.3,18.6c2.8,5.8,7,11,12.6,15.1c7,5.2,15.7,7.6,23.8,7.6c4.6,0,8.7-0.6,13.4-2.3l73.2-22.7l2.3-0.6
			c1.2-0.6,2.3-1.2,3.5-2.3c1.7-1.2,2.9-2.3,4.1-4.1C3995.1,1063.2,3995.7,1055.1,3991,1048.7z M3767.3,976.1
			c-0.6-1.7-1.2-3.5-2.3-4.6c-4.1-4.1-9.3-7-15.1-7c-1.7,0-3.5,0-5.2,0.6c-22.7,7-44.2,17.4-64.5,32.5c-20.3,14.5-37.2,32-50.6,51.1
			c-4.6,6.4-4.1,14.5,0,20.3c1.2,1.2,2.3,2.9,4.1,4.1c1.2,0.6,2.3,1.7,3.5,2.3l2.3,0.6l73.2,22.7c2,0.9,4.2,1.4,6.5,1.8
			s4.6,0.5,6.9,0.5c8.1,0,16.3-2.3,23.8-7.6c11-8.1,16.9-20.9,16.9-33.7l1.2-76.7v-2.9C3767.9,979,3767.3,977.2,3767.3,976.1z
			 M3712.7,1207.3c-4.1-12.8-14.5-22.7-26.7-26.1l-72.6-24.4l-2.3-0.6c-1.2-0.6-2.9-1.2-4.1-1.2c-1.7,0-3.5,0.6-5.2,0.6
			c-7,2.3-12.2,8.7-12.2,16.9c-0.6,23.8,2.9,47.7,11,71.5c7.6,23.8,19.2,45.3,33.1,63.9c3.5,4.6,8.7,7,14,7c1.7,0,3.5,0,5.2-0.6
			s3.5-1.2,4.6-2.3c1.2-0.6,2.3-1.7,2.9-2.9l1.7-2.3l44.2-62.8c5.2-7.2,8.2-15.9,8.2-24.8
			C3714.5,1215.3,3713.9,1211.3,3712.7,1207.3z M3892.2,1363.1c-0.6-1.2-1.2-2.9-1.7-4.1l-1.7-2.3l-45.9-61.6
			c-3.5-5.2-8.3-9.6-13.9-12.6c-5.7-3.1-12.2-4.8-19.2-4.8c-13.9,0-25.6,7-33.1,17.4l-45.9,61.6l-1.7,2.3c-0.6,1.2-1.2,2.3-1.7,4.1
			c-0.6,1.7-0.6,3.5-0.6,5.2c0,7.6,4.6,13.9,12.2,16.9c22.1,7.6,46.5,11.6,70.9,11.6s48.8-4.1,70.9-11.6c7.6-2.3,12.2-9.3,12.2-16.9
			C3892.8,1366.6,3892.8,1364.8,3892.2,1363.1z"/>
		<circle id="Cap_2_" class="st3" cx="3809.7" cy="1176" r="48.2"/>
		<path id="Bolts_2_" class="st4" d="M3883,947.5C3883.1,947.5,3883.1,947.5,3883,947.5c0.1,0,0.2,0.1,0.4,0.2l0.3,0.2l0.4,0.1
			c1.2,0.3,1.8,1.3,2.1,1.8c0.5,0.9,0.6,2,0.4,2.9c-0.5,1.2-1.8,2.4-3.4,2.5c-0.1,0-0.1,0-0.2-0.1c-0.5-0.2-1-0.3-1.6-0.4
			c-1-0.4-1.6-1.3-1.9-1.8c-0.5-0.9-0.6-2-0.4-2.9c0.6-1.3,2-2.5,3.8-2.5C3883,947.5,3883,947.5,3883,947.5 M3736.5,947.5
			c1.8,0,3.2,1.3,3.8,2.5c0.4,2-0.7,4.2-2.5,4.7l-1,0.3l-0.1,0.1h-0.1c-2.8,0-3.5-1.7-3.7-2.4c-0.5-2,0.7-4.3,2.5-4.9l1-0.3
			L3736.5,947.5C3736.4,947.5,3736.5,947.5,3736.5,947.5 M3948.6,981.2c0.5,0,0.9,0,2.2,0.9c1.6,1.4,2,3.5,1,5.3
			c-1,0.9-2.2,1.4-3.3,1.4c-0.9,0-1.5-0.3-1.8-0.6l-0.1-0.1l-0.1-0.1c-1.7-1.4-2.2-3.6-1.2-5.4
			C3946.4,981.7,3947.6,981.2,3948.6,981.2 M3670.8,981.2c1,0,2.2,0.5,3.3,1.4c0.4,0.8,0.6,1.9,0.5,2.9c-0.1,0.6-0.4,1.7-1.3,2.3
			c-1.5,1-1.9,1.1-2.4,1.1c-1.8,0-2.5-0.5-3.1-1.2c-0.5-0.9-0.8-2-0.6-3.1c0.1-0.6,0.4-1.7,1.3-2.3
			C3669.9,981.3,3670.3,981.2,3670.8,981.2 M4000.9,1033.5c1,0,2.2,0.5,3.3,1.4c0.4,0.8,0.6,1.9,0.5,2.9c-0.1,0.6-0.4,1.7-1.3,2.3
			c-1.5,1-1.9,1.1-2.4,1.1c-1.8,0-2.5-0.5-3.1-1.2c-0.5-0.9-0.8-2-0.6-3.1c0.1-0.6,0.4-1.7,1.3-2.3
			C4000,1033.6,4000.4,1033.5,4000.9,1033.5 M3618.5,1033.5c0.9,0,1.5,0.3,1.8,0.6l0.1,0.1l0.1,0.1c1.7,1.4,2.2,3.6,1.2,5.4
			c-1,0.9-2.2,1.4-3.3,1.4c-0.9,0-1.5-0.3-1.8-0.6l-0.1-0.1l-0.1-0.1c-1.7-1.4-2.2-3.6-1.2-5.4
			C3616.3,1034,3617.5,1033.5,3618.5,1033.5 M4045.7,1172.4c1.3,0,2.4,0.4,3,1.2c0.5,0.5,0.6,1.1,0.5,1.8v0.3v0.3
			c0,1.9-1.7,3.6-3.6,3.6s-3.6-1.7-3.6-3.6S4043.8,1172.4,4045.7,1172.4 M3573.8,1172.4c1.9,0,3.6,1.7,3.6,3.6s-1.7,3.6-3.6,3.6
			s-3.6-1.7-3.6-3.6S3571.9,1172.4,3573.8,1172.4 M4034,1245C4034.1,1245,4034.1,1245,4034,1245l0.2,0.1l1,0.3
			c1.2,0.3,1.8,1.3,2.1,1.8c0.5,0.9,0.6,2,0.4,2.9c-0.5,1.2-1.8,2.4-3.4,2.5c-0.1,0-0.1,0-0.2-0.1c-0.5-0.2-1-0.3-1.6-0.4
			c-1-0.4-1.6-1.3-1.9-1.8c-0.5-0.9-0.6-2-0.4-2.9C4030.9,1246.3,4032.2,1245,4034,1245 M3585.4,1245c1,0,2.6,1,3.8,2.8
			c0.3,1.9-0.9,4-2.6,4.5l-1,0.3l-0.1,0.1h-0.1c-2.8,0-3.5-1.7-3.7-2.4c-0.5-2,0.7-4.3,2.5-4.9l1-0.3L3585.4,1245
			C3585.3,1245,3585.4,1245,3585.4,1245 M3618.5,1310.7c1.3,0,2.8,0.7,3.1,1.1c0.6,0.9,0.8,2.1,0.7,3.2c-0.1,0.6-0.4,1.7-1.3,2.3
			c-1.5,1-1.9,1.1-2.4,1.1c-1.8,0-2.5-0.5-3.1-1.2c-0.5-0.9-0.8-2-0.6-3.1c0.1-0.6,0.4-1.7,1.3-2.3
			C3617.6,1310.8,3618,1310.7,3618.5,1310.7 M4000.9,1310.7c0.2,0,1.1,0.2,2.2,0.9c1.6,1.4,2,3.5,1,5.3c-1,0.9-2.2,1.4-3.3,1.4
			c-0.9,0-1.5-0.3-1.8-0.6l-0.1-0.1l-0.1-0.1c-1.7-1.4-2.2-3.6-1.2-5.4C3998.7,1311.3,3999.9,1310.7,4000.9,1310.7 M3737.2,1396.7
			L3737.2,1396.7c0.1,0,0.2,0.1,0.4,0.2l0.3,0.2l0.4,0.1c1.2,0.3,1.8,1.3,2.1,1.8c0.5,0.9,0.6,2,0.4,2.9c-0.5,1.2-1.8,2.4-3.4,2.5
			c-0.1,0-0.1,0-0.2-0.1c-0.5-0.2-1-0.3-1.6-0.4c-1-0.4-1.6-1.3-1.9-1.8c-0.5-0.9-0.6-2-0.4-2.9c0.6-1.3,2-2.5,3.8-2.5
			C3737.1,1396.7,3737.1,1396.7,3737.2,1396.7 M3882.9,1396.7c1.5,0,2.8,1,3.8,2.7c0.4,1.9-0.8,4.1-2.6,4.6l-1,0.3l-0.1,0.1h-0.1
			c-2.8,0-3.5-1.7-3.7-2.4c-0.5-2,0.7-4.3,2.5-4.9l1-0.3L3882.9,1396.7L3882.9,1396.7 M3809.7,1408.3c1.9,0,3.6,1.7,3.6,3.6
			s-1.7,3.6-3.6,3.6s-3.6-1.7-3.6-3.6S3807.9,1408.3,3809.7,1408.3 M3882.9,943.5c-3.5,0-6.4,2.3-7.6,5.2c-1.2,4.1,1.2,8.7,5.2,9.9
			c0.6,0,1.7,0.6,2.3,0.6c3.5,0,6.4-2.3,7.6-5.2c1.2-4.1-1.2-8.7-5.2-9.9C3884.1,943.5,3883.5,943.5,3882.9,943.5L3882.9,943.5z
			 M3736.5,943.5c-0.6,0-1.7,0-2.3,0.6c-4.1,1.2-6.4,5.8-5.2,9.9c1.2,3.5,4.1,5.2,7.6,5.2c0.6,0,1.7,0,2.3-0.6
			c4.1-1.2,6.4-5.8,5.2-9.9C3742.9,945.8,3740,943.5,3736.5,943.5L3736.5,943.5z M3948.6,977.2c-2.3,0-4.6,1.2-6.4,2.9
			c-2.3,3.5-1.7,8.1,1.7,11c1.2,1.2,2.9,1.7,4.6,1.7c2.3,0,4.6-1.2,6.4-2.9c2.3-3.5,1.7-8.1-1.7-11
			C3951.5,977.8,3950.3,977.2,3948.6,977.2L3948.6,977.2z M3670.8,977.2c-1.7,0-2.9,0.6-4.6,1.7c-3.5,2.3-4.1,7.6-1.7,11
			c1.7,2.3,4.1,2.9,6.4,2.9c1.7,0,2.9-0.6,4.6-1.7c3.5-2.3,4.1-7.6,1.7-11C3675.5,978.4,3673.1,977.2,3670.8,977.2L3670.8,977.2z
			 M4000.9,1029.5c-1.7,0-2.9,0.6-4.6,1.7c-3.5,2.3-4.1,7.6-1.7,11c1.7,2.3,4.1,2.9,6.4,2.9c1.7,0,2.9-0.6,4.6-1.7
			c3.5-2.3,4.1-7.6,1.7-11C4005.6,1030.7,4003.2,1029.5,4000.9,1029.5L4000.9,1029.5z M3618.5,1029.5c-2.3,0-4.6,1.2-6.4,2.9
			c-2.3,3.5-1.7,8.1,1.7,11c1.2,1.2,2.9,1.7,4.6,1.7c2.3,0,4.6-1.2,6.4-2.9c2.3-3.5,1.7-8.1-1.7-11
			C3622,1030.1,3620.3,1029.5,3618.5,1029.5L3618.5,1029.5z M4045.7,1168.4c-4.1,0-7.6,3.5-7.6,7.6s3.5,7.6,7.6,7.6s7.6-3.5,7.6-7.6
			C4053.8,1171.9,4050.3,1168.4,4045.7,1168.4L4045.7,1168.4z M3573.8,1168.4c-4.1,0-7.6,3.5-7.6,7.6s3.5,7.6,7.6,7.6
			s7.6-3.5,7.6-7.6C3581.3,1171.9,3577.8,1168.4,3573.8,1168.4L3573.8,1168.4z M4034,1241c-3.5,0-6.4,2.3-7.6,5.2
			c-1.2,4.1,1.2,8.7,5.2,9.9c0.6,0,1.7,0.6,2.3,0.6c3.5,0,6.4-2.3,7.6-5.2c1.2-4.1-1.2-8.7-5.2-9.9
			C4035.8,1241,4035.2,1241,4034,1241L4034,1241z M3585.4,1241c-0.6,0-1.7,0-2.3,0.6c-4.1,1.2-6.4,5.8-5.2,9.9
			c1.2,3.5,4.1,5.2,7.6,5.2c0.6,0,1.7,0,2.3-0.6c4.1-1.2,6.4-5.8,5.2-9.9C3591.2,1243.4,3588.3,1241,3585.4,1241L3585.4,1241z
			 M4000.9,1306.7c-2.3,0-4.6,1.2-6.4,2.9c-2.3,3.5-1.7,8.1,1.7,11c1.2,1.2,2.9,1.7,4.6,1.7c2.3,0,4.6-1.2,6.4-2.9
			c2.3-3.5,1.7-8.1-1.7-11C4003.8,1307.3,4002.1,1306.7,4000.9,1306.7L4000.9,1306.7z M3618.5,1306.7c-1.7,0-2.9,0.6-4.6,1.7
			c-3.5,2.3-4.1,7.6-1.7,11c1.7,2.3,4.1,2.9,6.4,2.9c1.7,0,2.9-0.6,4.6-1.7c3.5-2.3,4.1-7.6,1.7-11
			C3623.7,1307.9,3620.8,1306.7,3618.5,1306.7L3618.5,1306.7z M3882.9,1392.7c-0.6,0-1.7,0-2.3,0.6c-4.1,1.2-6.4,5.8-5.2,9.9
			c1.2,3.5,4.1,5.2,7.6,5.2c0.6,0,1.7,0,2.3-0.6c4.1-1.2,6.4-5.8,5.2-9.9C3888.7,1394.5,3885.8,1392.7,3882.9,1392.7L3882.9,1392.7z
			 M3737.1,1392.7c-3.5,0-6.4,2.3-7.6,5.2c-1.2,4.1,1.2,8.7,5.2,9.9c0.6,0,1.7,0.6,2.3,0.6c3.5,0,6.4-2.3,7.6-5.2
			c1.2-4.1-1.2-8.7-5.2-9.9C3738.2,1392.7,3737.7,1392.7,3737.1,1392.7L3737.1,1392.7z M3809.7,1404.3c-4.1,0-7.6,3.5-7.6,7.6
			s3.5,7.6,7.6,7.6s7.6-3.5,7.6-7.6S3813.8,1404.3,3809.7,1404.3L3809.7,1404.3z"/>
	</g>
</g>
</svg>
