<?xml version="1.0" encoding="utf-8"?>
<!-- Generator: Adobe Illustrator 24.3.0, SVG Export Plug-In . SVG Version: 6.00 Build 0)  -->
<svg version="1.1" id="Car_1_" xmlns="http://www.w3.org/2000/svg" xmlns:xlink="http://www.w3.org/1999/xlink" x="0px" y="0px"
	 viewBox="0 0 4800 1600" style="enable-background:new 0 0 4800 1600;" xml:space="preserve">
<style type="text/css">
	.st0{fill:none;stroke:#FFFFFF;stroke-width:4;stroke-miterlimit:10;}
	.st1{fill:none;stroke:#FFFFFF;stroke-width:4;stroke-linejoin:round;stroke-miterlimit:10;}
	.st2{fill:#FFFFFF;}
</style>
<g id="Car">
	<g id="Outline_1_">
		<path id="Outline" class="st0" d="M594.3,1315.8c-91.3-1.5-424.4-58.6-464.9-63.1c0,0-29-16.4-45.4-42.3
			c-16.4-25.8-42.3-291.1-42.3-291.1s0-25.3,8.3-41.2c9.1-17.4,55.4-39.4,55.4-39.4c4.2-26.7,69.9-96.9,85.4-107.2
			c2.4-21.2,48.9-40.5,68.9-51.4c57-31,107.6-58.9,71.7-119.7c0,0-32.6-72-52.7-104.6c-25.9-49.2-6.7-70.8,59-76.2
			c83.8-0.2,149.8,35,192,69.4c0,0,9.4,5.5,17.5,5c72.5-8,145.4-17.5,218.6-24c53.6-8.2,85.8-28.7,126.8-46.4
			c138.7-59.8,331.9-131.8,475.3-179.2c0,0,121-36.3,139.8-44.4s18-39.5,39.3-44.3c215.9-49,450.2-66.3,642.4-69.1
			c224.9-3.3,392.1,13.2,404.6,21.6c50.1,33.7,538.6,408.7,550,415s52.7,23.2,76.8,25.9c24.1,2.7,526.2,57.8,771.1,97
			c97.8,14.4,299.6,49.4,395,73.8c42.6,22.8,175.6,170.2,205.8,193.3c28.2,23,96,59.2,111.7,74.6s39.7,56.9,39.7,56.9
			s10.7,18.8,11.7,28.2c3.2,27.6-4.7,113.6-5.7,134.1c0,0-15.1,128.9-10.7,141.4s8.3,14.6,13.6,16.7c23.8,22.2-35.8,54.5-99.4,62.1
			c-63.2,7.5-262.6,30.7-390.5,36c-11.5-6.5-11.5-28.7-4.7-32.1c46.3-190.6-25-469.5-209.2-555.4c-413-192.5-706.9,86.1-712.7,479
			c-0.8,54-6.4,60.7-19.7,66.9c-13.3,6.3-38.8,7.5-86.8-2.8s-215.4-11.5-830-25.8c-605.8-1-347-28-738.8,12
			c-51.9,11.3-112.1,17.9-120,9.9c-12.5-108.8,4.4-161.6-25-287.2c-79.8-230.7-262.4-342.8-441.4-342.8
			c-241.9,0-436.8,159.3-445.7,461.5c0,0-4,76.2,3.5,86.1c11,14.5,28.6,10.2,30.7,15.9C666.6,1316.7,603.2,1315.9,594.3,1315.8z"/>
		<path id="Taillight" class="st0" d="M105.6,838.7l250.8,9.4c0,0-2.7-20.7-7-32.9c-4.3-12.1-2.7-37.8-34.4-60.3
			c0,0-14.5-7.8-31.3-10.2c-16.8-2.3-104.6-3.4-104.6-3.4"/>
		<line id="Rear_Bumper_Line" class="st0" x1="748.7" y1="870.3" x2="356.4" y2="848"/>
		<path id="Skirt" class="st0" d="M3342.4,1239.8c0,0-16.7,8.1-35.5,8.1s-54.3-8.3-79.3-11.5c-25-3.1-49.8-5.7-114.8-8.3
			c-65-2.6-394.7-9.7-394.7-9.7l-371.5-7.8l-291.4-8.3c0,0-160.2-9.1-280.7-7.6s-241.8,4.6-241.8,4.6"/>
		<path id="Door_Front" class="st0" d="M2880.2,531.9h19.5c0,0,4.7,6.3,25.8,14.9s51,7.8,51,7.8s146.2,2.3,186,52.8
			c77,98,11.9,488.6,3.4,623.4"/>
		<g id="Windows">
			<path class="st0" d="M2649.5,509.9h-531.3l-564.9-7.8h-0.4h-0.4c-0.1,0-12.1,0.2-31.9,0.2c-49.6,0-145.8-1.4-232.9-10.5
				c-47.9-5-86.5-11.7-114.8-19.9c-41.5-12-47.2-23.3-47.7-24.6c-0.9-2.3-1.6-5.5,1.1-11.2c3.8-8.2,14.7-22.1,44.4-41.7
				c20.9-13.7,48.1-28.2,80.7-42.8c56.3-25.4,109.7-42.8,110.2-42.9l0.3-0.1l0.3-0.1c0.6-0.2,60.1-21.6,141.7-46.3
				c75.2-22.7,184.9-52.9,280.7-67.7c184.3-28.4,448.6-37.2,451.3-37.3c0.3,0,26.1-0.8,62.2-0.8c34.4,0,84.9,0.8,130.3,4.4
				c74.2,7.3,82.3-1.5,197.3,120.3c37.4,39.5,76.4,88,92.2,108"/>
			<path class="st0" d="M2759.8,383.2l10.1,10.4c-11.6-4.9-22.9-7.6-33.6-7.2c-6.3,0.2-12.3,1.1-18.1,2.6
				c-47,11.8-77.2,61.2-75.8,96c0,0-3.1,12,7.1,25c3.3,4.2,8.1,8.6,14.8,12.6c8.4,5.1,22.6,7.9,38.1,9.4H2118l-565-7.8
				c0,0-12.1,0.2-32.3,0.2c-98.5,0-390.1-5.4-415.8-68.7c-31.1-76.8,250-167.9,250-167.9s238.7-86.1,426.5-115
				c187.8-29,453.9-37.6,453.9-37.6s26-0.8,62.9-0.8c75.8,0,197.6,3.5,236,25.1C2591.5,191.4,2759.8,383.2,2759.8,383.2z"/>
			<path class="st0" d="M2880.2,531.9c0.4-5.3,0.6-10.7,0.1-17.3l19.4,17.3H2880.2z"/>
			<line class="st0" x1="1844.1" y1="506.1" x2="1742.7" y2="201.7"/>
			<line class="st0" x1="1679.9" y1="214.9" x2="1779.2" y2="505.2"/>
			<line class="st0" x1="2564.9" y1="509.9" x2="2435.8" y2="161.3"/>
			<line class="st0" x1="2406.9" y1="159.1" x2="2539.1" y2="509.9"/>
		</g>
		<path id="Door" class="st0" d="M1803.7,527.5c0,0-14.6,29.4-14.6,67.2c0,42.8,29.2,130.4,29.2,130.4s47.5,146.6,71,200.3
			s67.3,180.5,115.3,209.2c48,28.7,163.3,24.5,285.9,27.1s565,12.5,565,12.5l315.7,9.6"/>
		<path id="Front_Bumper_Line" class="st0" d="M4187.2,956.7h385.9c0,0,108.7-3.4,114.8-8.7s1.1-12.2,1.1-12.2"/>
		<path id="Bumper_LIght" class="st0" d="M4542.6,1045.3c34.9,0,129.6,0.7,158.7,0.7c29.9,0,33-3.7,36.1,5.7
			c3.1,9.4,1.6,59.5-7.3,68.9s-55.6,8.3-55.6,8.3s-89.5,0-114,0c-17.1,0-39.7-25.4-40.7-52.3
			C4518.8,1049.3,4524.2,1045.3,4542.6,1045.3z"/>
		<g id="Mirror">
			<path id="_x32__3_" class="st1" d="M2880.2,531.9c-0.6,6.5-1.6,12.9-2.2,21.1c-1.6,19.6-38.4,33.3-72,31.3
				c-33.7-1.9-50.1-7.8-57.1-21.9s30.5-30.5,30.5-30.5h-76.9c-15.5-1.5-29.7-4.3-38.1-9.4c-6.7-4.1-11.5-8.4-14.8-12.6
				c-10.2-13-7.1-25-7.1-25c-1.4-34.8,28.8-84.2,75.8-96c5.8-1.5,11.8-2.3,18.1-2.6c10.6-0.4,22,2.4,33.6,7.2
				c50.5,21.3,103.9,83.3,108.1,104.7c1.2,6.3,2,11.7,2.3,16.4C2880.8,521.2,2880.7,526.6,2880.2,531.9z"/>
			<path id="_x31__2_" class="st0" d="M2779.4,531.9c0,0,24.7,10.6,50.1,8.6s50.8-8.6,50.8-8.6"/>
		</g>
		<g id="Wing">
			<path class="st0" d="M800.2,422.4c-22.5,11.2-31.1,51.9-31.1,51.9"/>
		</g>
		<path id="Upper_Curve" class="st0" d="M242.8,688.8C345.5,626.6,1226.7,301,1226.7,301s224.6-78.3,418.7-116.6s325-48.4,473-55.8
			c361.9-18,402.1,7.3,467.6,71.9"/>
		<g id="Windshield">
			<path id="_x32__1_" class="st0" d="M2594.1,68c-56.9,14-30.9,67.3-8.2,91.1l274.8,296c0,0,50.8,61.7,90.4,70.1
				c73.2,9.7,186.5-11.6,208.1-33.3"/>
			<path id="_x31__1_" class="st0" d="M2614.8,81.1c-55,22.2-37.6,51.4-14.9,75.1l266.8,287.2c0,0,50,59.1,89.6,67.4
				c73.2,9.7,162.3-8.5,188-27.9"/>
		</g>
		<g id="Handle">
			<path id="_x33_" class="st0" d="M2023.6,683.6L2023.6,683.6c-0.6,0.9-1.3,1.8-2.1,2.7l0,0c-11.1,13.1-32.3,25-65.6,24.7
				c-24.4-0.2-42.3-7.4-52.3-21.2c0.2-7-6.2-20.5,62.3-21C2024,668.4,2026.1,678.6,2023.6,683.6z"/>
			<path id="_x32_" class="st0" d="M2024.5,642.1c-6,2.1,1.9,10.8-64.5,4.8c-57.9-5.2-53.2-11.2-53.7-15.5
				c9.5-9.7,24.7-16.3,46.2-16.4C1989.8,614.8,2014.1,625.8,2024.5,642.1z"/>
			<path id="_x31_" class="st0" d="M2089.1,664.2c0,10.2-32.6,17.5-67.6,22.1l0,0c0.2-0.2,1.3-1.2,2.1-2.7l0,0
				c2.5-5,0.4-15.2-57.7-14.8c-68.6,0.5-62.2,13.9-62.3,21c0,0.6-0.1,1.2-0.2,1.7c-0.8,2.4-7.7,2.2-12.8,2.3
				c-40.3,0.8-66.4-1.9-66.4-31.4c0-21.6,17.5-31.8,42-34.3c13.5-1.4,37.1-0.4,39.2,1.3c0.8,0.6,1,1.3,1.1,2.1
				c0.4,4.3-4.3,10.2,53.7,15.5c66.4,6,58.5-2.7,64.5-4.8c1.6-0.6,4.1-0.6,9.3,0.1C2067.3,647.2,2089.1,654.3,2089.1,664.2z"/>
		</g>
	</g>
	<path id="Wing_2" class="st0" d="M301.9,385.4c-7.8,11.1,2.5,23.3,2.5,23.3s23,23.2,53.7,47S449,518,500.7,514.3
		c0,0,66.5,2.2,272.5-54.1"/>
	<path id="Wing_1" class="st0" d="M547.2,454c-128.6,15.2-122.8,42.6-122.8,42.6"/>
	<path id="Front_Well_2" class="st0" d="M4263.2,1423c0,0-58.7-32.4-64.2-37.8c-5.5-5.5,7-18-11.8-33.9
		c-7.4-6.2-19.4-10.8-35.8-14.1"/>
	<path id="Front_Well_1" class="st0" d="M3468,1336.9c-95.4,4.8-133.1,11.2-133.1,11.2"/>
	<line id="Rear_Well_2" class="st0" x1="1445.1" y1="1291.7" x2="1536.6" y2="1300.8"/>
	<path id="Rear_Well_1" class="st0" d="M663.4,1308.2c0-14.5,13.9-11.7,13.9-11.7h27.8"/>
	<path id="Rear_Windshield" class="st0" d="M1486.2,167.7c0,0-24.9,12.9-204.5,79S922.5,390.2,881,405.9s-51.1,6.1-51.1,6.1"/>
	<path id="Squirter" class="st0" d="M3408.7,530.4c0,0-3.6-10.1-19.8-12.2s-20.9,6.1-20.9,6.1"/>
	<path id="Wiper_Base" class="st0" d="M3220.8,509.1c0,0-9.8-9.7-24.4-13.8c-14.6-4.2-27.6-1.1-27.6-1.1"/>
	<path id="Wiper" class="st1" d="M3117.4,463.6c14.4,1.4,33,4.9,44.9,13.6l23.3-1.7c-7.3,2.1-9.6,7.3-9.6,7.3
		c-10.4-1.8-16.8,9.2-16.8,9.2 M3205.8,499c6.1-14.2-4.1-20.6,7.2-16.2c55-47-97.3-26.1-119.7-37.2"/>
	<path id="Headlight" class="st1" d="M4533.9,816.4c0,0-12.8-30.5-53.3-69.6c-66.1-64-83.1-60-83.1-60"/>
	<g id="Wheel_2_">
		<ellipse id="Tire_2_" class="st0" cx="3809.6" cy="1176" rx="377.7" ry="377.7"/>
		<circle id="Outer_2_" class="st0" cx="3809.7" cy="1176" r="309.7"/>
		
			<ellipse id="Inner_1_2_" transform="matrix(0.7071 -0.7071 0.7071 0.7071 284.2777 3038.3071)" class="st0" cx="3809.7" cy="1176" rx="290.6" ry="290.6"/>
		<path id="Inner_2_1_" class="st0" d="M3809.7,901.1c151.7,0,274.9,123.2,274.9,274.9s-123.2,274.9-274.9,274.9
			s-274.9-123.2-274.9-274.9S3658,901.1,3809.7,901.1"/>
		<circle id="Inner_3_2_" class="st0" cx="3809.7" cy="1176" r="256.9"/>
		<path id="Spokes" class="st0" d="M3978.9,1348c0,0.7-0.9,2.2-1.7,3c-0.1,0.1-2.2,2.3-6.4,6.1c-4.2,3.8-10.4,9-18.6,14.9
			c-16.3,11.8-27.7,17-27.8,17h-0.2c-0.4,0.2-1.8,0.8-2.9,0.8h-1c-1.3-0.7-2.7-2.4-3.1-3.2l-82-141.6c12.7-4.6,23.9-12.6,32.2-23
			l109.6,121.7l0.1,0.1C3977.1,1343.8,3978.9,1345.7,3978.9,1348z M4047.6,1133c0-0.2-1.8-12.8-8-31.9c-6.1-19-12.3-29.9-12.4-30
			l-0.1-0.1l-0.1-0.1c-0.4-0.8-1.4-2.1-2.3-2.6c-0.5-0.1-0.8-0.3-1.1-0.4c0-0.1-0.1-0.1-0.1-0.1c-1.9,0-3.4,0.7-3.6,0.8h-0.1
			l-148.9,66.5c7.5,10.9,11.8,24,12.4,37.6l159.7-33.8h0.3c0.3,0,2.5-0.5,3.7-2.3l0.1-0.1l0.1-0.1
			C4047.6,1135.9,4047.8,1134.1,4047.6,1133z M3845.4,937.7c-0.4-0.5-2-1.1-3.1-1.3h-0.2c-0.1-0.1-12.2-2.3-32.4-2.3
			s-32.2,2.3-32.4,2.3h-0.2c-1.1,0.1-2.8,0.8-3.2,1.3v0.1c-0.7,1-0.9,2.7-0.9,3.9c0,0.3,0,0.5,0,0.7l17.2,162.6
			c5.6-1.5,12.3-2.8,19.5-2.8s13.5,0.8,19.6,2.6l17.1-162.3v-0.2C3846.4,942.3,3846.7,939.8,3845.4,937.7z M3598.9,1068.6l-0.5-0.2
			c-0.6-0.3-1.6-0.6-2.5-0.6l-0.3,0.4l-1.2,0.2c-0.5,0.1-1.4,1.3-1.8,2.3l-0.1,0.2l-0.1,0.2c0,0.1-6.2,11-12.4,30
			c-6.2,19.2-8,31.8-8,31.9c-0.1,1.1,0,2.8,0.4,3.4c1.2,1.4,3.3,2.3,4.2,2.6l159.5,33.7c0.5-13.6,4.9-26.7,12.3-37.6L3598.9,1068.6z
			 M3751.9,1221.6l-109.4,121.7l-0.1,0.1l-0.1,0.1c0,0-1.7,1.8-1.7,4.1c0,0.3,0.2,0.9,0.6,1.5c0.3,0.6,0.8,1.2,1.1,1.5
			c0.1,0.1,8.7,9.2,25,21c16.3,11.7,27.7,16.9,27.8,17h0.2c0.4,0.1,1.8,0.7,2.9,0.7h1c1.3-0.7,2.7-2.4,3.1-3.2l81.9-141.5
			C3771.8,1240.4,3760.8,1232.5,3751.9,1221.6z"/>
		<path id="Lugs_2_" class="st0" d="M3883.5,1182.4c-5.2,0-10.5,2.3-13.9,7c-5.8,7.6-4.1,18.6,4.1,24.4c2.9,2.3,6.4,3.5,10.5,3.5
			c5.2,0,10.5-2.3,13.9-7c5.8-7.6,4.1-18.6-4.1-24.4C3891.1,1183.5,3887.6,1182.4,3883.5,1182.4L3883.5,1182.4z M3855.6,1095.8
			c-3.5,0-7,1.2-10.5,3.5c-7.6,5.8-9.3,16.3-4.1,24.4c3.5,4.6,8.7,7,13.9,7c3.5,0,7-1.2,10.5-3.5c7.6-5.8,9.3-16.3,4.1-24.4
			C3866.1,1098.1,3860.9,1095.8,3855.6,1095.8L3855.6,1095.8z M3763.8,1095.8c-1.7,0-3.5,0-5.2,0.6c-9.3,2.9-13.9,12.8-11,22.1
			c2.3,7.6,9.3,12.2,16.9,12.2c1.7,0,3.5,0,5.2-0.6c9.3-2.9,13.9-12.8,11-22.1C3778.3,1100.4,3771.4,1095.8,3763.8,1095.8
			L3763.8,1095.8z M3809.7,1236.4c-7.6,0-13.9,4.6-16.9,12.2c-2.9,9.3,2.3,19.2,11,22.1c1.7,0.6,3.5,0.6,5.2,0.6
			c7.6,0,13.9-4.6,16.9-12.2c2.9-9.3-2.3-19.2-11-22.1C3813.2,1236.4,3811.5,1236.4,3809.7,1236.4L3809.7,1236.4z M3735.9,1182.4
			c-9.9,0-17.4,7.6-17.4,17.4s7.6,17.4,17.4,17.4s17.4-7.6,17.4-17.4S3745.2,1182.4,3735.9,1182.4L3735.9,1182.4z"/>
		<path id="Holes_1_" class="st0" d="M4030,1171.9c0,23.8-3.5,47.6-11,71.5c-7.6,23.8-19.2,44.7-33.1,63.9c-3.5,4.6-8.7,7-13.9,7
			c-1.7,0-3.5,0-5.2-0.6s-2.9-1.2-4.6-2.3c-1.2-0.6-1.7-1.7-2.9-2.9l-1.7-2.3l-44.2-62.8c-8.1-9.9-10.5-23.8-6.4-36.6
			c2-6.4,5.7-12.1,10.3-16.6c4.7-4.5,10.3-7.8,16.4-9.6l72.6-24.4l2.3-0.6c1.2-0.6,2.3-0.6,4.1-0.6c2.3,0,4.1,0.6,5.2,0
			C4024.7,1157.4,4030,1164.3,4030,1171.9z M3991,1048.7c-13.4-19.2-30.8-36.6-50.6-51.1c-20.3-14.5-41.8-25.6-64.5-32.5
			c-2.9-0.6-4.7-0.6-6.4-0.6c-5.8,0-11,2.9-14,7c-1.2,1.2-1.7,2.9-2.3,4.6c-0.6,1.2-0.6,2.9-0.6,4.1v2.9l1.2,76.7
			c0,6.4,1.5,12.8,4.3,18.6c2.8,5.8,7,11,12.6,15.1c7,5.2,15.7,7.6,23.8,7.6c4.6,0,8.7-0.6,13.4-2.3l73.2-22.7l2.3-0.6
			c1.2-0.6,2.3-1.2,3.5-2.3c1.7-1.2,2.9-2.3,4.1-4.1C3995.1,1063.2,3995.7,1055.1,3991,1048.7z M3767.3,976.1
			c-0.6-1.7-1.2-3.5-2.3-4.6c-4.1-4.1-9.3-7-15.1-7c-1.7,0-3.5,0-5.2,0.6c-22.7,7-44.2,17.4-64.5,32.5c-20.3,14.5-37.2,32-50.6,51.1
			c-4.6,6.4-4.1,14.5,0,20.3c1.2,1.2,2.3,2.9,4.1,4.1c1.2,0.6,2.3,1.7,3.5,2.3l2.3,0.6l73.2,22.7c2,0.9,4.2,1.4,6.5,1.8
			s4.6,0.5,6.9,0.5c8.1,0,16.3-2.3,23.8-7.6c11-8.1,16.9-20.9,16.9-33.7l1.2-76.7v-2.9C3767.9,979,3767.3,977.2,3767.3,976.1z
			 M3712.7,1207.3c-4.1-12.8-14.5-22.7-26.7-26.1l-72.6-24.4l-2.3-0.6c-1.2-0.6-2.9-1.2-4.1-1.2c-1.7,0-3.5,0.6-5.2,0.6
			c-7,2.3-12.2,8.7-12.2,16.9c-0.6,23.8,2.9,47.7,11,71.5c7.6,23.8,19.2,45.3,33.1,63.9c3.5,4.6,8.7,7,14,7c1.7,0,3.5,0,5.2-0.6
			s3.5-1.2,4.6-2.3c1.2-0.6,2.3-1.7,2.9-2.9l1.7-2.3l44.2-62.8c5.2-7.2,8.2-15.9,8.2-24.8
			C3714.5,1215.3,3713.9,1211.3,3712.7,1207.3z M3892.2,1363.1c-0.6-1.2-1.2-2.9-1.7-4.1l-1.7-2.3l-45.9-61.6
			c-3.5-5.2-8.3-9.6-13.9-12.6c-5.7-3.1-12.2-4.8-19.2-4.8c-13.9,0-25.6,7-33.1,17.4l-45.9,61.6l-1.7,2.3c-0.6,1.2-1.2,2.3-1.7,4.1
			c-0.6,1.7-0.6,3.5-0.6,5.2c0,7.6,4.6,13.9,12.2,16.9c22.1,7.6,46.5,11.6,70.9,11.6s48.8-4.1,70.9-11.6c7.6-2.3,12.2-9.3,12.2-16.9
			C3892.8,1366.6,3892.8,1364.8,3892.2,1363.1z"/>
		<circle id="Cap_2_" class="st0" cx="3809.7" cy="1176" r="48.2"/>
		<g id="Bolts_2_">
			<path class="st2" d="M3882.9,943.5c-3.5,0-6.4,2.3-7.6,5.2c-1.2,4.1,1.2,8.7,5.2,9.9c0.6,0,1.7,0.6,2.3,0.6
				c3.5,0,6.4-2.3,7.6-5.2c1.2-4.1-1.2-8.7-5.2-9.9C3884.1,943.5,3883.5,943.5,3882.9,943.5L3882.9,943.5z M3883.2,955.2
				c-0.1,0-0.1,0-0.2-0.1c-0.5-0.2-1-0.3-1.6-0.4c-1-0.4-1.6-1.3-1.9-1.8c-0.5-0.9-0.6-2-0.4-2.9c0.6-1.3,2-2.5,3.8-2.5
				c0.1,0,0.1,0,0.1,0c0.1,0,0.1,0,0.1,0s0,0-0.1,0c0.1,0,0.2,0.1,0.4,0.2l0.3,0.2l0.4,0.1c1.2,0.3,1.8,1.3,2.1,1.8
				c0.5,0.9,0.6,2,0.4,2.9C3886.1,953.9,3884.8,955.1,3883.2,955.2L3883.2,955.2z M3736.5,943.5c-0.6,0-1.7,0-2.3,0.6
				c-4.1,1.2-6.4,5.8-5.2,9.9c1.2,3.5,4.1,5.2,7.6,5.2c0.6,0,1.7,0,2.3-0.6c4.1-1.2,6.4-5.8,5.2-9.9
				C3742.9,945.8,3740,943.5,3736.5,943.5L3736.5,943.5z M3736.6,955.1c-2.8,0-3.5-1.7-3.7-2.4c-0.5-2,0.7-4.3,2.5-4.9l1-0.3l0.1,0
				c1.8,0,3.2,1.3,3.8,2.5c0.4,2-0.7,4.2-2.5,4.7l-1,0.3l-0.1,0.1H3736.6L3736.6,955.1z M3736.5,947.5L3736.5,947.5
				C3736.5,947.5,3736.5,947.5,3736.5,947.5L3736.5,947.5z M3948.6,977.2c-2.3,0-4.6,1.2-6.4,2.9c-2.3,3.5-1.7,8.1,1.7,11
				c1.2,1.2,2.9,1.7,4.6,1.7c2.3,0,4.6-1.2,6.4-2.9c2.3-3.5,1.7-8.1-1.7-11C3951.5,977.8,3950.3,977.2,3948.6,977.2L3948.6,977.2z
				 M3948.5,988.8c-0.9,0-1.5-0.3-1.8-0.6l-0.1-0.1l-0.1-0.1c-1.7-1.4-2.2-3.6-1.2-5.4c1.1-0.9,2.3-1.4,3.3-1.4c0.5,0,0.9,0,2.2,0.9
				c1.6,1.4,2,3.5,1,5.3C3950.8,988.3,3949.6,988.8,3948.5,988.8L3948.5,988.8z M3670.8,977.2c-1.7,0-2.9,0.6-4.6,1.7
				c-3.5,2.3-4.1,7.6-1.7,11c1.7,2.3,4.1,2.9,6.4,2.9c1.7,0,2.9-0.6,4.6-1.7c3.5-2.3,4.1-7.6,1.7-11
				C3675.5,978.4,3673.1,977.2,3670.8,977.2L3670.8,977.2z M3670.9,988.9c-1.8,0-2.5-0.5-3.1-1.2c-0.5-0.9-0.8-2-0.6-3.1
				c0.1-0.6,0.4-1.7,1.3-2.3c1.4-1,1.8-1.1,2.3-1.1c1,0,2.2,0.5,3.3,1.4c0.4,0.8,0.6,1.9,0.5,2.9c-0.1,0.6-0.4,1.7-1.3,2.3
				C3671.8,988.8,3671.4,988.9,3670.9,988.9L3670.9,988.9z M4000.9,1029.5c-1.7,0-2.9,0.6-4.6,1.7c-3.5,2.3-4.1,7.6-1.7,11
				c1.7,2.3,4.1,2.9,6.4,2.9c1.7,0,2.9-0.6,4.6-1.7c3.5-2.3,4.1-7.6,1.7-11C4005.6,1030.7,4003.2,1029.5,4000.9,1029.5
				L4000.9,1029.5z M4001,1041.2c-1.8,0-2.5-0.5-3.1-1.2c-0.5-0.9-0.8-2-0.6-3.1c0.1-0.6,0.4-1.7,1.3-2.3c1.4-1,1.8-1.1,2.3-1.1
				c1,0,2.2,0.5,3.3,1.4c0.4,0.8,0.6,1.9,0.5,2.9c-0.1,0.6-0.4,1.7-1.3,2.3C4001.9,1041.1,4001.5,1041.2,4001,1041.2L4001,1041.2z
				 M3618.5,1029.5c-2.3,0-4.6,1.2-6.4,2.9c-2.3,3.5-1.7,8.1,1.7,11c1.2,1.2,2.9,1.7,4.6,1.7c2.3,0,4.6-1.2,6.4-2.9
				c2.3-3.5,1.7-8.1-1.7-11C3622,1030.1,3620.3,1029.5,3618.5,1029.5L3618.5,1029.5z M3618.4,1041.1c-0.9,0-1.5-0.3-1.8-0.6
				l-0.1-0.1l-0.1-0.1c-1.7-1.4-2.2-3.6-1.2-5.4c1.1-0.9,2.3-1.4,3.3-1.4c0.9,0,1.5,0.3,1.8,0.6l0.1,0.1l0.1,0.1
				c1.7,1.4,2.2,3.6,1.2,5.4C3620.7,1040.6,3619.5,1041.1,3618.4,1041.1L3618.4,1041.1z M4045.7,1168.4c-4.1,0-7.6,3.5-7.6,7.6
				s3.5,7.6,7.6,7.6s7.6-3.5,7.6-7.6C4053.8,1171.9,4050.3,1168.4,4045.7,1168.4L4045.7,1168.4z M4045.6,1179.6
				c-1.9,0-3.6-1.7-3.6-3.6s1.8-3.6,3.7-3.6c1.3,0,2.4,0.4,3,1.2c0.5,0.5,0.6,1.1,0.5,1.8v0.3v0.3
				C4049.2,1177.9,4047.5,1179.6,4045.6,1179.6L4045.6,1179.6z M3573.8,1168.4c-4.1,0-7.6,3.5-7.6,7.6s3.5,7.6,7.6,7.6
				s7.6-3.5,7.6-7.6C3581.3,1171.9,3577.8,1168.4,3573.8,1168.4L3573.8,1168.4z M3573.8,1179.6c-1.9,0-3.6-1.7-3.6-3.6
				s1.7-3.6,3.6-3.6c1.9,0,3.6,1.7,3.6,3.6S3575.7,1179.6,3573.8,1179.6L3573.8,1179.6z M4034,1241c-3.5,0-6.4,2.3-7.6,5.2
				c-1.2,4.1,1.2,8.7,5.2,9.9c0.6,0,1.7,0.6,2.3,0.6c3.5,0,6.4-2.3,7.6-5.2c1.2-4.1-1.2-8.7-5.2-9.9
				C4035.8,1241,4035.2,1241,4034,1241L4034,1241z M4034.3,1252.6c-0.1,0-0.1,0-0.2-0.1c-0.5-0.2-1-0.3-1.6-0.4
				c-1-0.4-1.6-1.3-1.9-1.8c-0.5-0.9-0.6-2-0.4-2.9c0.7-1.1,2-2.4,3.8-2.4c0.1,0,0.1,0,0.1,0s0,0-0.1,0l0.2,0.1l1,0.3
				c1.2,0.3,1.8,1.3,2.1,1.8c0.5,0.9,0.6,2,0.4,2.9C4037.2,1251.3,4035.9,1252.5,4034.3,1252.6L4034.3,1252.6z M3585.4,1241
				c-0.6,0-1.7,0-2.3,0.6c-4.1,1.2-6.4,5.8-5.2,9.9c1.2,3.5,4.1,5.2,7.6,5.2c0.6,0,1.7,0,2.3-0.6c4.1-1.2,6.4-5.8,5.2-9.9
				C3591.2,1243.4,3588.3,1241,3585.4,1241L3585.4,1241z M3585.4,1245c1,0,2.6,1,3.8,2.8c0.3,1.9-0.9,4-2.6,4.5l-1,0.3l-0.1,0.1
				h-0.1c-2.8,0-3.5-1.7-3.7-2.4c-0.5-2,0.7-4.3,2.5-4.9l1-0.3L3585.4,1245C3585.4,1245,3585.4,1245,3585.4,1245L3585.4,1245
				L3585.4,1245z M4000.9,1306.7c-2.3,0-4.6,1.2-6.4,2.9c-2.3,3.5-1.7,8.1,1.7,11c1.2,1.2,2.9,1.7,4.6,1.7c2.3,0,4.6-1.2,6.4-2.9
				c2.3-3.5,1.7-8.1-1.7-11C4003.8,1307.3,4002.1,1306.7,4000.9,1306.7L4000.9,1306.7z M4000.8,1318.3c-0.9,0-1.5-0.3-1.8-0.6
				l-0.1-0.1l-0.1-0.1c-1.7-1.4-2.2-3.6-1.2-5.4c1.1-0.8,2.3-1.4,3.3-1.4c0.2,0,1.1,0.2,2.2,0.9c1.6,1.4,2,3.5,1,5.3
				C4003.1,1317.8,4001.9,1318.3,4000.8,1318.3L4000.8,1318.3z M3618.5,1306.7c-1.7,0-2.9,0.6-4.6,1.7c-3.5,2.3-4.1,7.6-1.7,11
				c1.7,2.3,4.1,2.9,6.4,2.9c1.7,0,2.9-0.6,4.6-1.7c3.5-2.3,4.1-7.6,1.7-11C3623.7,1307.9,3620.8,1306.7,3618.5,1306.7
				L3618.5,1306.7z M3618.6,1318.4c-1.8,0-2.5-0.5-3.1-1.2c-0.5-0.9-0.8-2-0.6-3.1c0.1-0.6,0.4-1.7,1.3-2.3c1.4-1,1.8-1.1,2.3-1.1
				c1.3,0,2.8,0.7,3.1,1.1c0.6,0.9,0.8,2.1,0.7,3.2c-0.1,0.6-0.4,1.7-1.3,2.3C3619.5,1318.3,3619.1,1318.4,3618.6,1318.4
				L3618.6,1318.4z M3882.9,1392.7c-0.6,0-1.7,0-2.3,0.6c-4.1,1.2-6.4,5.8-5.2,9.9c1.2,3.5,4.1,5.2,7.6,5.2c0.6,0,1.7,0,2.3-0.6
				c4.1-1.2,6.4-5.8,5.2-9.9C3888.7,1394.5,3885.8,1392.7,3882.9,1392.7L3882.9,1392.7z M3882.9,1404.4c-2.8,0-3.5-1.7-3.7-2.4
				c-0.5-2,0.7-4.3,2.5-4.9l1-0.3l0.2-0.1c1.5,0,2.8,1,3.8,2.7c0.4,1.9-0.8,4.1-2.6,4.6l-1,0.3l-0.1,0.1H3882.9L3882.9,1404.4z
				 M3737.1,1392.7c-3.5,0-6.4,2.3-7.6,5.2c-1.2,4.1,1.2,8.7,5.2,9.9c0.6,0,1.7,0.6,2.3,0.6c3.5,0,6.4-2.3,7.6-5.2
				c1.2-4.1-1.2-8.7-5.2-9.9C3738.2,1392.7,3737.7,1392.7,3737.1,1392.7L3737.1,1392.7z M3737.4,1404.4c-0.1,0-0.1,0-0.2-0.1
				c-0.5-0.2-1-0.3-1.6-0.4c-1-0.4-1.6-1.3-1.9-1.8c-0.5-0.9-0.6-2-0.4-2.9c0.6-1.3,2-2.5,3.8-2.5c0,0,0,0,0.1,0
				c0.1,0,0.2,0.1,0.4,0.2l0.3,0.2l0.4,0.1c1.2,0.3,1.8,1.3,2.1,1.8c0.5,0.9,0.6,2,0.4,2.9C3740.3,1403.1,3739,1404.3,3737.4,1404.4
				L3737.4,1404.4z M3809.7,1404.3c-4.1,0-7.6,3.5-7.6,7.6s3.5,7.6,7.6,7.6s7.6-3.5,7.6-7.6S3813.8,1404.3,3809.7,1404.3
				L3809.7,1404.3z M3809.7,1415.5c-1.9,0-3.6-1.7-3.6-3.6s1.8-3.6,3.6-3.6c1.9,0,3.6,1.7,3.6,3.6S3811.6,1415.5,3809.7,1415.5
				L3809.7,1415.5z"/>
		</g>
	</g>
	<g id="Wheel_3_">
		<ellipse id="Tire_3_" class="st0" cx="1074" cy="1166.2" rx="389.5" ry="389.5"/>
		<circle id="Outer_3_" class="st0" cx="1074" cy="1166.2" r="319.4"/>
		
			<ellipse id="Inner_1_3_" transform="matrix(0.7071 -0.7071 0.7071 0.7071 -510.0508 1101.0204)" class="st0" cx="1074" cy="1166.2" rx="299.7" ry="299.7"/>
		<path id="Inner_2_2_" class="st0" d="M1074,882.7c156.4,0,283.5,127.1,283.5,283.5s-127.1,283.5-283.5,283.5
			s-283.5-127.1-283.5-283.5S917.6,882.7,1074,882.7"/>
		<circle id="Inner_3_3_" class="st0" cx="1074" cy="1166.2" r="264.9"/>
		<path id="Spokes_2_" class="st0" d="M1248.5,1343.6c0,0.7-0.9,2.3-1.8,3.1c-0.1,0.1-2.3,2.4-6.6,6.3c-4.3,3.9-10.8,9.3-19.2,15.4
			c-16.8,12.2-28.6,17.5-28.7,17.5h-0.2c-0.4,0.2-1.9,0.8-3,0.8h-1c-1.3-0.7-2.8-2.5-3.2-3.3l-84.6-146c13.1-4.7,24.6-13,33.2-23.7
			l113,125.5l0.1,0.1C1246.7,1339.2,1248.5,1341.2,1248.5,1343.6z M1319.4,1121.9c0-0.2-1.9-13.2-8.2-32.9
			c-6.3-19.6-12.7-30.8-12.8-30.9l-0.1-0.1l-0.1-0.1c-0.4-0.8-1.4-2.2-2.4-2.7c-0.5-0.1-0.8-0.3-1.1-0.4c0-0.1-0.1-0.1-0.1-0.1
			c-2,0-3.5,0.7-3.7,0.8h-0.1l-153.6,68.6c7.7,11.2,12.2,24.8,12.8,38.8l164.7-34.9h0.3c0.3,0,2.6-0.5,3.8-2.4l0.1-0.1l0.1-0.1
			C1319.4,1124.8,1319.6,1123,1319.4,1121.9z M1110.8,920.4c-0.4-0.5-2.1-1.1-3.2-1.3h-0.2c-0.1-0.1-12.6-2.4-33.4-2.4
			c-20.8,0-33.2,2.4-33.4,2.4h-0.2c-1.1,0.1-2.9,0.8-3.3,1.3v0.1c-0.8,1-1,2.8-1,4c0,0.3,0,0.5,0,0.7l17.7,167.7
			c5.8-1.5,12.7-2.9,20.1-2.9s13.9,0.8,20.2,2.7l17.6-167.4v-0.2C1111.9,925.2,1112.2,922.6,1110.8,920.4z M856.6,1055.4l-0.5-0.2
			c-0.6-0.3-1.6-0.6-2.6-0.6l-0.3,0.4l-1.2,0.2c-0.5,0.1-1.4,1.3-1.9,2.4l-0.1,0.2l-0.1,0.2c0,0.1-6.4,11.3-12.8,30.9
			c-6.4,19.8-8.2,32.8-8.2,32.9c-0.1,1.1,0,2.9,0.4,3.5c1.2,1.4,3.4,2.4,4.3,2.7l164.5,34.8c0.5-14,5.1-27.5,12.7-38.8L856.6,1055.4
			z M1014.4,1213.2l-112.8,125.5l-0.1,0.1l-0.1,0.1c0,0-1.8,1.9-1.8,4.2c0,0.4,0.3,0.9,0.6,1.5c0.3,0.6,0.8,1.2,1.1,1.5
			c0.1,0.1,9,9.5,25.8,21.7c16.8,12.1,28.6,17.4,28.7,17.5h0.2c0.4,0.1,1.9,0.7,3,0.7h1c1.3-0.7,2.8-2.5,3.2-3.3l84.5-145.9
			C1034.9,1232.6,1023.6,1224.5,1014.4,1213.2z"/>
		<path id="Lugs_3_" class="st0" d="M1150.1,1172.8c-5.4,0-10.8,2.4-14.3,7.2c-6,7.8-4.2,19.2,4.2,25.2c3,2.4,6.6,3.6,10.8,3.6
			c5.4,0,10.8-2.4,14.3-7.2c6-7.8,4.2-19.2-4.2-25.2C1158,1173.9,1154.4,1172.8,1150.1,1172.8L1150.1,1172.8z M1121.4,1083.5
			c-3.6,0-7.2,1.2-10.8,3.6c-7.8,6-9.6,16.8-4.2,25.2c3.6,4.7,9,7.2,14.3,7.2c3.6,0,7.2-1.2,10.8-3.6c7.8-6,9.6-16.8,4.2-25.2
			C1132.2,1085.9,1126.8,1083.5,1121.4,1083.5L1121.4,1083.5z M1026.7,1083.5c-1.8,0-3.6,0-5.4,0.6c-9.6,3-14.3,13.2-11.3,22.8
			c2.4,7.8,9.6,12.6,17.4,12.6c1.8,0,3.6,0,5.4-0.6c9.6-3,14.3-13.2,11.3-22.8C1041.6,1088.2,1034.5,1083.5,1026.7,1083.5
			L1026.7,1083.5z M1074,1228.5c-7.8,0-14.3,4.7-17.4,12.6c-3,9.6,2.4,19.8,11.3,22.8c1.8,0.6,3.6,0.6,5.4,0.6
			c7.8,0,14.3-4.7,17.4-12.6c3-9.6-2.4-19.8-11.3-22.8C1077.6,1228.5,1075.9,1228.5,1074,1228.5L1074,1228.5z M997.9,1172.8
			c-10.2,0-17.9,7.8-17.9,17.9s7.8,17.9,17.9,17.9c10.1,0,17.9-7.8,17.9-17.9S1007.5,1172.8,997.9,1172.8L997.9,1172.8z"/>
		<path id="Holes_2_" class="st0" d="M1301.2,1162c0,24.5-3.6,49.1-11.3,73.7c-7.8,24.5-19.8,46.1-34.1,65.9
			c-3.6,4.7-9,7.2-14.3,7.2c-1.8,0-3.6,0-5.4-0.6c-1.8-0.6-3-1.2-4.7-2.4c-1.2-0.6-1.8-1.8-3-3l-1.8-2.4l-45.6-64.8
			c-8.4-10.2-10.8-24.5-6.6-37.7c2.1-6.6,5.9-12.5,10.6-17.1c4.8-4.6,10.6-8,16.9-9.9l74.9-25.2l2.4-0.6c1.2-0.6,2.4-0.6,4.2-0.6
			c2.4,0,4.2,0.6,5.4,0C1295.7,1147,1301.2,1154.1,1301.2,1162z M1261,1034.9c-13.8-19.8-31.8-37.7-52.2-52.7
			c-20.9-15-43.1-26.4-66.5-33.5c-3-0.6-4.8-0.6-6.6-0.6c-6,0-11.3,3-14.4,7.2c-1.2,1.2-1.8,3-2.4,4.7c-0.6,1.2-0.6,3-0.6,4.2v3
			l1.2,79.1c0,6.6,1.5,13.2,4.4,19.2s7.2,11.3,13,15.6c7.2,5.4,16.2,7.8,24.5,7.8c4.7,0,9-0.6,13.8-2.4l75.5-23.4l2.4-0.6
			c1.2-0.6,2.4-1.2,3.6-2.4c1.8-1.2,3-2.4,4.2-4.2C1265.2,1049.9,1265.8,1041.5,1261,1034.9z M1030.3,960c-0.6-1.8-1.2-3.6-2.4-4.7
			c-4.2-4.2-9.6-7.2-15.6-7.2c-1.8,0-3.6,0-5.4,0.6c-23.4,7.2-45.6,17.9-66.5,33.5c-20.9,15-38.4,33-52.2,52.7
			c-4.7,6.6-4.2,15,0,20.9c1.2,1.2,2.4,3,4.2,4.2c1.2,0.6,2.4,1.8,3.6,2.4l2.4,0.6l75.5,23.4c2.1,0.9,4.3,1.4,6.7,1.9
			c2.4,0.4,4.7,0.5,7.1,0.5c8.4,0,16.8-2.4,24.5-7.8c11.3-8.4,17.4-21.6,17.4-34.8l1.2-79.1v-3C1030.9,963,1030.3,961.2,1030.3,960z
			 M974,1198.5c-4.2-13.2-15-23.4-27.5-26.9l-74.9-25.2l-2.4-0.6c-1.2-0.6-3-1.2-4.2-1.2c-1.8,0-3.6,0.6-5.4,0.6
			c-7.2,2.4-12.6,9-12.6,17.4c-0.6,24.5,3,49.2,11.3,73.7c7.8,24.5,19.8,46.7,34.1,65.9c3.6,4.7,9,7.2,14.4,7.2c1.8,0,3.6,0,5.4-0.6
			c1.8-0.6,3.6-1.2,4.7-2.4c1.2-0.6,2.4-1.8,3-3l1.8-2.4l45.6-64.8c5.4-7.4,8.5-16.4,8.5-25.6C975.8,1206.7,975.2,1202.6,974,1198.5
			z M1159.1,1359.1c-0.6-1.2-1.2-3-1.8-4.2l-1.8-2.4l-47.3-63.5c-3.6-5.4-8.6-9.9-14.3-13c-5.9-3.2-12.6-5-19.8-5
			c-14.3,0-26.4,7.2-34.1,17.9l-47.3,63.5l-1.8,2.4c-0.6,1.2-1.2,2.4-1.8,4.2c-0.6,1.8-0.6,3.6-0.6,5.4c0,7.8,4.7,14.3,12.6,17.4
			c22.8,7.8,48,12,73.1,12c25.2,0,50.3-4.2,73.1-12c7.8-2.4,12.6-9.6,12.6-17.4C1159.7,1362.8,1159.7,1360.9,1159.1,1359.1z"/>
		<circle id="Cap_3_" class="st0" cx="1074" cy="1166.2" r="49.7"/>
		<g id="Bolts_3_">
			<path class="st2" d="M1149.5,926.4c-3.6,0-6.6,2.4-7.8,5.4c-1.2,4.2,1.2,9,5.4,10.2c0.6,0,1.8,0.6,2.4,0.6c3.6,0,6.6-2.4,7.8-5.4
				c1.2-4.2-1.2-9-5.4-10.2C1150.7,926.4,1150.1,926.4,1149.5,926.4L1149.5,926.4z M1149.8,938.5c-0.1,0-0.1,0-0.2-0.1
				c-0.5-0.2-1-0.3-1.7-0.4c-1-0.4-1.7-1.3-2-1.9c-0.5-0.9-0.6-2.1-0.4-3c0.6-1.3,2.1-2.6,3.9-2.6c0.1,0,0.1,0,0.1,0
				c0.1,0,0.1,0,0.1,0s0,0-0.1,0c0.1,0,0.2,0.1,0.4,0.2l0.3,0.2l0.4,0.1c1.2,0.3,1.9,1.3,2.2,1.9c0.5,0.9,0.6,2.1,0.4,3
				C1152.8,937.2,1151.5,938.4,1149.8,938.5L1149.8,938.5z M998.5,926.4c-0.6,0-1.8,0-2.4,0.6c-4.2,1.2-6.6,6-5.4,10.2
				c1.2,3.6,4.2,5.4,7.8,5.4c0.6,0,1.8,0,2.4-0.6c4.2-1.2,6.6-6,5.4-10.2C1005.1,928.8,1002.1,926.4,998.5,926.4L998.5,926.4z
				 M998.6,938.4c-2.9,0-3.6-1.8-3.8-2.5c-0.5-2.1,0.7-4.4,2.6-5.1l1-0.3l0.1,0c1.9,0,3.3,1.3,3.9,2.6c0.4,2.1-0.7,4.3-2.6,4.8
				l-1,0.3l-0.1,0.1H998.6L998.6,938.4z M998.5,930.6L998.5,930.6C998.5,930.6,998.5,930.6,998.5,930.6L998.5,930.6z M1217.3,961.2
				c-2.4,0-4.7,1.2-6.6,3c-2.4,3.6-1.8,8.4,1.8,11.3c1.2,1.2,3,1.8,4.7,1.8c2.4,0,4.7-1.2,6.6-3c2.4-3.6,1.8-8.4-1.8-11.3
				C1220.3,961.8,1219,961.2,1217.3,961.2L1217.3,961.2z M1217.2,973.1c-0.9,0-1.5-0.3-1.9-0.6l-0.1-0.1l-0.1-0.1
				c-1.8-1.4-2.3-3.7-1.2-5.6c1.1-0.9,2.4-1.4,3.4-1.4c0.5,0,0.9,0,2.3,0.9c1.7,1.4,2.1,3.6,1,5.5
				C1219.5,972.6,1218.3,973.1,1217.2,973.1L1217.2,973.1z M930.8,961.2c-1.8,0-3,0.6-4.7,1.8c-3.6,2.4-4.2,7.8-1.8,11.3
				c1.8,2.4,4.2,3,6.6,3c1.8,0,3-0.6,4.7-1.8c3.6-2.4,4.2-7.8,1.8-11.3C935.6,962.4,933.2,961.2,930.8,961.2L930.8,961.2z
				 M930.9,973.2c-1.9,0-2.6-0.5-3.2-1.2c-0.5-0.9-0.8-2.1-0.6-3.2c0.1-0.6,0.4-1.8,1.3-2.4c1.4-1,1.9-1.1,2.4-1.1
				c1,0,2.3,0.5,3.4,1.4c0.4,0.8,0.6,2,0.5,3c-0.1,0.6-0.4,1.8-1.3,2.4C931.8,973.1,931.4,973.2,930.9,973.2L930.9,973.2z
				 M1271.2,1015.1c-1.8,0-3,0.6-4.7,1.8c-3.6,2.4-4.2,7.8-1.8,11.3c1.8,2.4,4.2,3,6.6,3c1.8,0,3-0.6,4.7-1.8
				c3.6-2.4,4.2-7.8,1.8-11.3C1276,1016.4,1273.6,1015.1,1271.2,1015.1L1271.2,1015.1z M1271.3,1027.2c-1.9,0-2.6-0.5-3.2-1.2
				c-0.5-0.9-0.8-2.1-0.6-3.2c0.1-0.6,0.4-1.8,1.3-2.4c1.4-1,1.9-1.1,2.4-1.1c1,0,2.3,0.5,3.4,1.4c0.4,0.8,0.6,2,0.5,3
				c-0.1,0.6-0.4,1.8-1.3,2.4C1272.2,1027.1,1271.8,1027.2,1271.3,1027.2L1271.3,1027.2z M876.8,1015.1c-2.4,0-4.7,1.2-6.6,3
				c-2.4,3.6-1.8,8.4,1.8,11.3c1.2,1.2,3,1.8,4.7,1.8c2.4,0,4.7-1.2,6.6-3c2.4-3.6,1.8-8.4-1.8-11.3
				C880.5,1015.7,878.7,1015.1,876.8,1015.1L876.8,1015.1z M876.7,1027.1c-0.9,0-1.5-0.3-1.9-0.6l-0.1-0.1l-0.1-0.1
				c-1.8-1.4-2.3-3.7-1.2-5.6c1.1-0.9,2.4-1.4,3.4-1.4c0.9,0,1.5,0.3,1.9,0.6l0.1,0.1l0.1,0.1c1.8,1.4,2.3,3.7,1.2,5.6
				C879.1,1026.6,877.9,1027.1,876.7,1027.1L876.7,1027.1z M1317.4,1158.4c-4.2,0-7.8,3.6-7.8,7.8c0,4.2,3.6,7.8,7.8,7.8
				c4.2,0,7.8-3.6,7.8-7.8C1325.8,1162,1322.1,1158.4,1317.4,1158.4L1317.4,1158.4z M1317.3,1169.9c-2,0-3.7-1.8-3.7-3.7
				c0-2,1.9-3.7,3.8-3.7c1.3,0,2.5,0.4,3.1,1.2c0.5,0.5,0.6,1.1,0.5,1.9v0.3v0.3C1321,1168.2,1319.3,1169.9,1317.3,1169.9
				L1317.3,1169.9z M830.8,1158.4c-4.2,0-7.8,3.6-7.8,7.8c0,4.2,3.6,7.8,7.8,7.8c4.2,0,7.8-3.6,7.8-7.8
				C838.5,1162,834.9,1158.4,830.8,1158.4L830.8,1158.4z M830.8,1169.9c-2,0-3.7-1.8-3.7-3.7c0-2,1.8-3.7,3.7-3.7
				c2,0,3.7,1.8,3.7,3.7C834.5,1168.2,832.7,1169.9,830.8,1169.9L830.8,1169.9z M1305.3,1233.2c-3.6,0-6.6,2.4-7.8,5.4
				c-1.2,4.2,1.2,9,5.4,10.2c0.6,0,1.8,0.6,2.4,0.6c3.6,0,6.6-2.4,7.8-5.4c1.2-4.2-1.2-9-5.4-10.2
				C1307.2,1233.2,1306.6,1233.2,1305.3,1233.2L1305.3,1233.2z M1305.6,1245.2c-0.1,0-0.1,0-0.2-0.1c-0.5-0.2-1-0.3-1.7-0.4
				c-1-0.4-1.7-1.3-2-1.9c-0.5-0.9-0.6-2.1-0.4-3c0.7-1.1,2.1-2.5,3.9-2.5c0.1,0,0.1,0,0.1,0s0,0-0.1,0l0.2,0.1l1,0.3
				c1.2,0.3,1.9,1.3,2.2,1.9c0.5,0.9,0.6,2.1,0.4,3C1308.6,1243.8,1307.3,1245.1,1305.6,1245.2L1305.6,1245.2z M842.7,1233.2
				c-0.6,0-1.8,0-2.4,0.6c-4.2,1.2-6.6,6-5.4,10.2c1.2,3.6,4.2,5.4,7.8,5.4c0.6,0,1.8,0,2.4-0.6c4.2-1.2,6.6-6,5.4-10.2
				C848.7,1235.7,845.7,1233.2,842.7,1233.2L842.7,1233.2z M842.7,1237.4c1,0,2.7,1,3.9,2.9c0.3,2-0.9,4.1-2.7,4.6l-1,0.3l-0.1,0.1
				h-0.1c-2.9,0-3.6-1.8-3.8-2.5c-0.5-2.1,0.7-4.4,2.6-5.1l1-0.3L842.7,1237.4C842.7,1237.4,842.7,1237.4,842.7,1237.4L842.7,1237.4
				L842.7,1237.4z M1271.2,1301c-2.4,0-4.7,1.2-6.6,3c-2.4,3.6-1.8,8.4,1.8,11.3c1.2,1.2,3,1.8,4.7,1.8c2.4,0,4.7-1.2,6.6-3
				c2.4-3.6,1.8-8.4-1.8-11.3C1274.2,1301.6,1272.4,1301,1271.2,1301L1271.2,1301z M1271.1,1312.9c-0.9,0-1.5-0.3-1.9-0.6l-0.1-0.1
				l-0.1-0.1c-1.8-1.4-2.3-3.7-1.2-5.6c1.1-0.8,2.4-1.4,3.4-1.4c0.2,0,1.1,0.2,2.3,0.9c1.7,1.4,2.1,3.6,1,5.5
				C1273.5,1312.4,1272.2,1312.9,1271.1,1312.9L1271.1,1312.9z M876.8,1301c-1.8,0-3,0.6-4.7,1.8c-3.6,2.4-4.2,7.8-1.8,11.3
				c1.8,2.4,4.2,3,6.6,3c1.8,0,3-0.6,4.7-1.8c3.6-2.4,4.2-7.8,1.8-11.3C882.2,1302.2,879.2,1301,876.8,1301L876.8,1301z M877,1313
				c-1.9,0-2.6-0.5-3.2-1.2c-0.5-0.9-0.8-2.1-0.6-3.2c0.1-0.6,0.4-1.8,1.3-2.4c1.4-1,1.9-1.1,2.4-1.1c1.3,0,2.9,0.7,3.2,1.1
				c0.6,0.9,0.8,2.2,0.7,3.3c-0.1,0.6-0.4,1.8-1.3,2.4C877.9,1312.9,877.5,1313,877,1313L877,1313z M1149.5,1389.7
				c-0.6,0-1.8,0-2.4,0.6c-4.2,1.2-6.6,6-5.4,10.2c1.2,3.6,4.2,5.4,7.8,5.4c0.6,0,1.8,0,2.4-0.6c4.2-1.2,6.6-6,5.4-10.2
				C1155.5,1391.5,1152.5,1389.7,1149.5,1389.7L1149.5,1389.7z M1149.5,1401.7c-2.9,0-3.6-1.8-3.8-2.5c-0.5-2.1,0.7-4.4,2.6-5.1
				l1-0.3l0.2-0.1c1.5,0,2.9,1,3.9,2.8c0.4,2-0.8,4.2-2.7,4.7l-1,0.3l-0.1,0.1H1149.5L1149.5,1401.7z M999.2,1389.7
				c-3.6,0-6.6,2.4-7.8,5.4c-1.2,4.2,1.2,9,5.4,10.2c0.6,0,1.8,0.6,2.4,0.6c3.6,0,6.6-2.4,7.8-5.4c1.2-4.2-1.2-9-5.4-10.2
				C1000.3,1389.7,999.8,1389.7,999.2,1389.7L999.2,1389.7z M999.5,1401.7c-0.1,0-0.1,0-0.2-0.1c-0.5-0.2-1-0.3-1.7-0.4
				c-1-0.4-1.7-1.3-2-1.9c-0.5-0.9-0.6-2.1-0.4-3c0.6-1.3,2.1-2.6,3.9-2.6c0,0,0,0,0.1,0c0.1,0,0.2,0.1,0.4,0.2l0.3,0.2l0.4,0.1
				c1.2,0.3,1.9,1.3,2.2,1.9c0.5,0.9,0.6,2.1,0.4,3C1002.5,1400.4,1001.1,1401.6,999.5,1401.7L999.5,1401.7z M1074,1401.6
				c-4.2,0-7.8,3.6-7.8,7.8c0,4.2,3.6,7.8,7.8,7.8c4.2,0,7.8-3.6,7.8-7.8C1081.9,1405.2,1078.3,1401.6,1074,1401.6L1074,1401.6z
				 M1074,1413.2c-2,0-3.7-1.8-3.7-3.7c0-2,1.9-3.7,3.7-3.7c2,0,3.7,1.8,3.7,3.7C1077.7,1411.4,1076,1413.2,1074,1413.2L1074,1413.2
				z"/>
		</g>
	</g>
</g>
</svg>
