<svg width="4200" height="2400" viewBox="0 0 4200 2400" fill="none" xmlns="http://www.w3.org/2000/svg">
<path d="M951.478 1516.54C893.407 1515.59 681.541 1479.27 655.781 1476.41C655.781 1476.41 637.336 1465.98 626.905 1449.5C616.474 1433.09 600 1264.35 600 1264.35C600 1264.35 600 1248.26 605.279 1238.14C611.067 1227.08 640.516 1213.08 640.516 1213.08C643.187 1196.1 684.976 1151.45 694.834 1144.9C696.361 1131.42 725.937 1119.14 738.658 1112.21C774.912 1092.49 807.096 1074.74 784.262 1036.07C784.262 1036.07 763.527 990.278 750.743 969.543C734.269 938.25 746.481 924.511 788.269 921.076C841.57 920.949 883.549 943.338 910.39 965.218C910.39 965.218 916.368 968.716 921.52 968.398C967.634 963.31 1014 957.267 1060.56 953.133C1094.65 947.918 1115.13 934.879 1141.21 923.621C1229.43 885.585 1352.31 839.79 1443.52 809.641C1443.52 809.641 1520.48 786.553 1532.44 781.401C1544.4 776.249 1543.89 756.277 1557.44 753.224C1694.76 722.058 1843.78 711.055 1966.03 709.274C2109.08 707.175 2215.43 717.669 2223.38 723.012C2255.24 744.447 2565.95 982.964 2573.2 986.971C2580.45 990.978 2606.72 1001.73 2622.05 1003.44C2637.38 1005.16 2956.74 1040.21 3112.5 1065.14C3174.71 1074.3 3303.06 1096.56 3363.74 1112.08C3390.84 1126.58 3475.43 1220.34 3494.64 1235.03C3512.57 1249.66 3555.7 1272.68 3565.68 1282.48C3575.67 1292.27 3590.94 1318.67 3590.94 1318.67C3590.94 1318.67 3597.74 1330.63 3598.38 1336.6C3600.41 1354.16 3595.39 1408.86 3594.75 1421.9C3594.75 1421.9 3585.15 1503.88 3587.95 1511.83C3590.74 1519.79 3593.22 1521.12 3596.6 1522.46C3611.73 1536.58 3573.83 1557.12 3533.37 1561.95C3493.18 1566.73 3366.35 1581.48 3285 1584.85C3277.68 1580.72 3277.68 1566.6 3282.01 1564.44C3311.46 1443.21 3266.11 1265.81 3148.95 1211.18C2886.26 1088.74 2699.33 1265.94 2695.64 1515.84C2695.13 1550.19 2691.57 1554.45 2683.11 1558.39C2674.65 1562.4 2658.43 1563.16 2627.9 1556.61C2597.37 1550.06 2490.9 1549.3 2099.98 1540.2C1714.67 1539.57 1879.28 1522.39 1630.07 1547.83C1597.06 1555.02 1558.77 1559.22 1553.75 1554.13C1545.8 1484.93 1556.55 1451.35 1537.85 1371.46C1487.09 1224.72 1370.95 1153.42 1257.1 1153.42C1103.24 1153.42 979.273 1254.75 973.612 1446.96C973.612 1446.96 971.068 1495.42 975.839 1501.72C982.835 1510.94 994.029 1508.21 995.365 1511.83C997.464 1517.11 957.139 1516.6 951.478 1516.54Z" stroke="#B9BDC6" stroke-width="4" stroke-miterlimit="10"/>
<path d="M640.643 1213.08L800.163 1219.06C800.163 1219.06 798.446 1205.9 795.711 1198.14C792.976 1190.44 793.994 1174.09 773.831 1159.78C773.831 1159.78 764.608 1154.82 753.923 1153.3C743.237 1151.83 687.393 1151.13 687.393 1151.13" stroke="#B9BDC6" stroke-width="4" stroke-miterlimit="10"/>
<path d="M1049.68 1233.18L800.163 1219" stroke="#B9BDC6" stroke-width="4" stroke-miterlimit="10"/>
<path d="M2699.39 1468.2C2699.39 1468.2 2688.77 1473.35 2676.81 1473.35C2664.85 1473.35 2642.28 1468.07 2626.37 1466.04C2610.47 1464.07 2594.7 1462.41 2553.36 1460.76C2512.01 1459.11 2302.31 1454.59 2302.31 1454.59L2066.02 1449.63L1880.68 1444.35C1880.68 1444.35 1778.78 1438.56 1702.14 1439.52C1625.49 1440.47 1548.34 1442.44 1548.34 1442.44" stroke="#B9BDC6" stroke-width="4" stroke-miterlimit="10"/>
<path d="M2405.41 1017.95H2417.81C2417.81 1017.95 2420.8 1021.95 2434.22 1027.42C2447.65 1032.89 2466.66 1032.38 2466.66 1032.38C2466.66 1032.38 2559.65 1033.85 2584.97 1065.97C2633.94 1128.3 2592.54 1376.74 2587.13 1462.48" stroke="#B9BDC6" stroke-width="4" stroke-miterlimit="10"/>
<path d="M2258.68 1003.95H1920.75L1561.44 998.992H1561.19H1560.94C1560.87 998.992 1553.24 999.119 1540.65 999.119C1509.1 999.119 1447.91 998.229 1392.51 992.441C1362.04 989.26 1337.49 984.999 1319.49 979.783C1293.1 972.151 1289.47 964.963 1289.15 964.137C1288.58 962.674 1288.14 960.638 1289.85 957.013C1292.27 951.797 1299.2 942.956 1318.09 930.49C1331.39 921.776 1348.69 912.553 1369.42 903.267C1405.23 887.112 1439.2 876.044 1439.51 875.981L1439.71 875.917L1439.9 875.854C1440.28 875.726 1478.12 862.115 1530.02 846.405C1577.85 831.967 1647.63 812.758 1708.56 803.345C1825.78 785.281 1993.89 779.684 1995.61 779.62C1995.8 779.62 2012.21 779.111 2035.17 779.111C2057.05 779.111 2089.17 779.62 2118.05 781.91C2165.24 786.553 2170.39 780.956 2243.54 858.426C2267.33 883.55 2292.13 914.398 2302.18 927.119" stroke="#B9BDC6" stroke-width="4" stroke-miterlimit="10"/>
<path d="M2328.83 923.366L2335.26 929.981C2327.88 926.864 2320.69 925.147 2313.89 925.402C2309.88 925.529 2306.06 926.101 2302.37 927.055C2272.48 934.561 2253.27 965.981 2254.16 988.116C2254.16 988.116 2252.19 995.748 2258.68 1004.02C2260.78 1006.69 2263.83 1009.49 2268.09 1012.03C2273.43 1015.27 2282.46 1017.06 2292.32 1018.01H1920.62L1561.25 1013.05C1561.25 1013.05 1553.56 1013.18 1540.71 1013.18C1478.06 1013.18 1292.59 1009.74 1276.24 969.479C1256.46 920.631 1435.25 862.688 1435.25 862.688C1435.25 862.688 1587.08 807.924 1706.53 789.542C1825.98 771.097 1995.23 765.627 1995.23 765.627C1995.23 765.627 2011.76 765.118 2035.23 765.118C2083.45 765.118 2160.92 767.345 2185.34 781.083C2221.79 801.373 2328.83 923.366 2328.83 923.366Z" stroke="#B9BDC6" stroke-width="4" stroke-miterlimit="10"/>
<path d="M2405.41 1017.95C2405.67 1014.57 2405.79 1011.14 2405.48 1006.94L2417.81 1017.95H2405.41Z" stroke="#B9BDC6" stroke-width="4" stroke-miterlimit="10"/>
<path d="M1746.41 1001.54L1681.91 807.924" stroke="#B9BDC6" stroke-width="4" stroke-miterlimit="10"/>
<path d="M1641.97 816.32L1705.13 1000.96" stroke="#B9BDC6" stroke-width="4" stroke-miterlimit="10"/>
<path d="M2204.87 1003.95L2122.75 782.228" stroke="#B9BDC6" stroke-width="4" stroke-miterlimit="10"/>
<path d="M2104.37 780.829L2188.46 1003.95" stroke="#B9BDC6" stroke-width="4" stroke-miterlimit="10"/>
<path d="M1720.71 1015.15C1720.71 1015.15 1711.42 1033.85 1711.42 1057.89C1711.42 1085.11 1730 1140.83 1730 1140.83C1730 1140.83 1760.21 1234.07 1775.16 1268.23C1790.1 1302.39 1817.96 1383.04 1848.49 1401.29C1879.02 1419.54 1952.36 1416.87 2030.34 1418.53C2108.32 1420.18 2389.7 1426.48 2389.7 1426.48L2590.5 1432.58" stroke="#B9BDC6" stroke-width="4" stroke-miterlimit="10"/>
<path d="M3236.72 1288.14H3482.17C3482.17 1288.14 3551.31 1285.98 3555.19 1282.6C3559.07 1279.23 3555.89 1274.84 3555.89 1274.84" stroke="#B9BDC6" stroke-width="4" stroke-miterlimit="10"/>
<path d="M3462.77 1344.49C3484.97 1344.49 3545.2 1344.94 3563.71 1344.94C3582.73 1344.94 3584.7 1342.58 3586.67 1348.56C3588.65 1354.54 3587.69 1386.41 3582.03 1392.39C3576.37 1398.36 3546.67 1397.66 3546.67 1397.66C3546.67 1397.66 3489.74 1397.66 3474.16 1397.66C3463.28 1397.66 3448.91 1381.51 3448.27 1364.4C3447.63 1347.04 3451.07 1344.49 3462.77 1344.49Z" stroke="#B9BDC6" stroke-width="4" stroke-miterlimit="10"/>
<path d="M2405.41 1017.95C2405.03 1022.08 2404.39 1026.15 2404.01 1031.37C2403 1043.83 2379.59 1052.55 2358.22 1051.27C2336.78 1050.07 2326.35 1046.31 2321.9 1037.35C2317.45 1028.38 2341.3 1017.95 2341.3 1017.95H2292.39C2282.53 1016.99 2273.5 1015.21 2268.15 1011.97C2263.89 1009.36 2260.84 1006.62 2258.74 1003.95C2252.25 995.684 2254.22 988.052 2254.22 988.052C2253.33 965.918 2272.54 934.497 2302.44 926.992C2306.13 926.038 2309.94 925.529 2313.95 925.338C2320.69 925.084 2327.94 926.864 2335.32 929.917C2367.44 943.465 2401.41 982.9 2404.08 996.511C2404.84 1000.52 2405.35 1003.95 2405.54 1006.94C2405.79 1011.14 2405.73 1014.57 2405.41 1017.95Z" stroke="#B9BDC6" stroke-width="4" stroke-miterlimit="10" stroke-linejoin="round"/>
<path d="M2341.3 1017.95C2341.3 1017.95 2357.01 1024.69 2373.16 1023.42C2389.32 1022.14 2405.48 1017.95 2405.48 1017.95" stroke="#B9BDC6" stroke-width="4" stroke-miterlimit="10"/>
<path d="M1082.44 948.299C1068.13 955.423 1062.66 981.31 1062.66 981.31" stroke="#B9BDC6" stroke-width="4" stroke-miterlimit="10"/>
<path d="M727.909 1117.74C793.23 1078.18 1353.71 871.083 1353.71 871.083C1353.71 871.083 1496.57 821.281 1620.02 796.921C1743.48 772.56 1826.74 766.136 1920.87 761.429C2151.06 749.981 2176.63 766.072 2218.29 807.161" stroke="#B9BDC6" stroke-width="4" stroke-miterlimit="10"/>
<path d="M2223.44 722.885C2187.25 731.79 2203.79 765.691 2218.22 780.829L2393.01 969.098C2393.01 969.098 2425.32 1008.34 2450.51 1013.68C2497.07 1019.85 2569.13 1006.31 2582.87 992.504" stroke="#B9BDC6" stroke-width="4" stroke-miterlimit="10"/>
<path d="M2236.61 731.217C2201.62 745.337 2212.69 763.91 2227.13 778.984L2396.83 961.656C2396.83 961.656 2428.63 999.246 2453.82 1004.53C2500.37 1010.7 2557.05 999.119 2573.39 986.78" stroke="#B9BDC6" stroke-width="4" stroke-miterlimit="10"/>
<path d="M1860.58 1114.43C1860.19 1115.01 1859.75 1115.58 1859.24 1116.15C1852.18 1124.48 1838.7 1132.05 1817.52 1131.86C1802 1131.73 1790.61 1127.15 1784.25 1118.38C1784.38 1113.93 1780.31 1105.34 1823.88 1105.02C1860.83 1104.77 1862.17 1111.25 1860.58 1114.43Z" stroke="#B9BDC6" stroke-width="4" stroke-miterlimit="10"/>
<path d="M1861.15 1088.04C1857.33 1089.37 1862.36 1094.91 1820.12 1091.09C1783.3 1087.78 1786.29 1083.97 1785.97 1081.23C1792.01 1075.06 1801.68 1070.86 1815.35 1070.8C1839.08 1070.67 1854.53 1077.67 1861.15 1088.04Z" stroke="#B9BDC6" stroke-width="4" stroke-miterlimit="10"/>
<path d="M1902.24 1102.09C1902.24 1108.58 1881.5 1113.23 1859.24 1116.15C1859.37 1116.02 1860.07 1115.39 1860.58 1114.43C1862.17 1111.25 1860.83 1104.77 1823.88 1105.02C1780.24 1105.34 1784.31 1113.86 1784.25 1118.38C1784.25 1118.76 1784.19 1119.14 1784.12 1119.46C1783.62 1120.99 1779.23 1120.86 1775.98 1120.92C1750.35 1121.43 1733.75 1119.71 1733.75 1100.95C1733.75 1087.21 1744.88 1080.72 1760.46 1079.13C1769.05 1078.24 1784.06 1078.88 1785.4 1079.96C1785.9 1080.34 1786.03 1080.79 1786.1 1081.3C1786.35 1084.03 1783.36 1087.78 1820.25 1091.15C1862.48 1094.97 1857.46 1089.44 1861.28 1088.1C1862.29 1087.72 1863.88 1087.72 1867.19 1088.17C1888.37 1091.28 1902.24 1095.8 1902.24 1102.09Z" stroke="#B9BDC6" stroke-width="4" stroke-miterlimit="10"/>
<path d="M765.499 924.766C760.538 931.826 767.089 939.585 767.089 939.585C767.089 939.585 781.718 954.342 801.244 969.479C820.771 984.617 859.061 1009.1 891.944 1006.75C891.944 1006.75 934.241 1008.15 1065.27 972.342" stroke="#B9BDC6" stroke-width="4" stroke-miterlimit="10"/>
<path d="M921.52 968.398C839.725 978.066 843.414 995.494 843.414 995.494" stroke="#B9BDC6" stroke-width="4" stroke-miterlimit="10"/>
<path d="M3285.06 1584.73C3285.06 1584.73 3247.73 1564.12 3244.23 1560.68C3240.73 1557.18 3248.68 1549.23 3236.72 1539.12C3232.02 1535.18 3224.38 1532.25 3213.95 1530.15" stroke="#B9BDC6" stroke-width="4" stroke-miterlimit="10"/>
<path d="M2779.28 1529.96C2718.6 1533.01 2694.62 1537.09 2694.62 1537.09" stroke="#B9BDC6" stroke-width="4" stroke-miterlimit="10"/>
<path d="M1492.62 1501.21L1550.82 1507" stroke="#B9BDC6" stroke-width="4" stroke-miterlimit="10"/>
<path d="M995.429 1511.71C995.429 1502.48 1004.27 1504.27 1004.27 1504.27H1021.95" stroke="#B9BDC6" stroke-width="4" stroke-miterlimit="10"/>
<path d="M1518.77 786.299C1518.77 786.299 1502.93 794.504 1388.7 836.546C1274.46 878.589 1160.23 927.819 1133.83 937.804C1107.44 947.79 1101.33 941.684 1101.33 941.684" stroke="#B9BDC6" stroke-width="4" stroke-miterlimit="10"/>
<path d="M2741.56 1016.99C2741.56 1016.99 2739.27 1010.57 2728.97 1009.23C2718.66 1007.9 2715.67 1013.11 2715.67 1013.11" stroke="#B9BDC6" stroke-width="4" stroke-miterlimit="10"/>
<path d="M2622.05 1003.44C2622.05 1003.44 2615.82 997.275 2606.53 994.667C2597.24 991.995 2588.97 993.967 2588.97 993.967" stroke="#B9BDC6" stroke-width="4" stroke-miterlimit="10"/>
<path d="M2612.51 997.02C2616.39 987.988 2609.9 983.918 2617.09 986.716C2652.07 956.822 2555.2 970.115 2540.95 963.055M2556.28 974.504C2565.44 975.395 2577.27 977.621 2584.84 983.154L2599.66 982.073C2595.02 983.409 2593.55 986.716 2593.55 986.716C2586.94 985.571 2582.87 992.568 2582.87 992.568L2556.28 974.504Z" stroke="#B9BDC6" stroke-width="4" stroke-miterlimit="10" stroke-linejoin="round"/>
<path d="M3457.24 1198.9C3457.24 1198.9 3449.1 1179.5 3423.34 1154.63C3381.29 1113.93 3370.48 1116.47 3370.48 1116.47" stroke="#B9BDC6" stroke-width="4" stroke-miterlimit="10" stroke-linejoin="round"/>
<path d="M2996.55 1667.86C3129.23 1667.86 3236.79 1560.3 3236.79 1427.62C3236.79 1294.94 3129.23 1187.39 2996.55 1187.39C2863.87 1187.39 2756.32 1294.94 2756.32 1427.62C2756.32 1560.3 2863.87 1667.86 2996.55 1667.86Z" stroke="#B9BDC6" stroke-width="4" stroke-miterlimit="10"/>
<path d="M2996.62 1624.61C3105.41 1624.61 3193.6 1536.41 3193.6 1427.62C3193.6 1318.83 3105.41 1230.64 2996.62 1230.64C2887.82 1230.64 2799.63 1318.83 2799.63 1427.62C2799.63 1536.41 2887.82 1624.61 2996.62 1624.61Z" stroke="#B9BDC6" stroke-width="4" stroke-miterlimit="10"/>
<path d="M3127.29 1558.33C3199.47 1486.15 3199.47 1369.12 3127.29 1296.94C3055.11 1224.76 2938.08 1224.76 2865.9 1296.94C2793.72 1369.12 2793.72 1486.15 2865.9 1558.33C2938.08 1630.51 3055.11 1630.51 3127.29 1558.33Z" stroke="#B9BDC6" stroke-width="4" stroke-miterlimit="10"/>
<path d="M2996.62 1252.77C3093.1 1252.77 3171.46 1331.13 3171.46 1427.62C3171.46 1524.11 3093.1 1602.47 2996.62 1602.47C2900.13 1602.47 2821.77 1524.11 2821.77 1427.62C2821.77 1331.13 2900.13 1252.77 2996.62 1252.77Z" stroke="#B9BDC6" stroke-width="4" stroke-miterlimit="10"/>
<path d="M2996.62 1591.02C3086.86 1591.02 3160.01 1517.87 3160.01 1427.62C3160.01 1337.38 3086.86 1264.22 2996.62 1264.22C2906.37 1264.22 2833.22 1337.38 2833.22 1427.62C2833.22 1517.87 2906.37 1591.02 2996.62 1591.02Z" stroke="#B9BDC6" stroke-width="4" stroke-miterlimit="10"/>
<path d="M3104.23 1537.02C3104.23 1537.47 3103.66 1538.42 3103.15 1538.93C3103.09 1538.99 3101.75 1540.39 3099.08 1542.81C3096.41 1545.23 3092.47 1548.53 3087.25 1552.29C3076.88 1559.79 3069.63 1563.1 3069.57 1563.1H3069.44C3069.19 1563.23 3068.3 1563.61 3067.6 1563.61H3066.96C3066.13 1563.16 3065.24 1562.08 3064.99 1561.57L3012.83 1471.51C3020.91 1468.58 3028.04 1463.5 3033.31 1456.88L3103.03 1534.29L3103.09 1534.35C3103.09 1534.35 3104.23 1535.56 3104.23 1537.02ZM3147.93 1400.27C3147.93 1400.15 3146.79 1392.13 3142.84 1379.98C3138.96 1367.9 3135.02 1360.96 3134.95 1360.9L3134.89 1360.84L3134.83 1360.77C3134.57 1360.27 3133.94 1359.44 3133.36 1359.12C3133.05 1359.06 3132.86 1358.93 3132.67 1358.87C3132.67 1358.8 3132.6 1358.8 3132.6 1358.8C3131.39 1358.8 3130.44 1359.25 3130.31 1359.31H3130.25L3035.54 1401.61C3040.31 1408.54 3043.05 1416.87 3043.43 1425.52L3145 1404.02H3145.2C3145.39 1404.02 3146.79 1403.71 3147.55 1402.56L3147.61 1402.5L3147.68 1402.43C3147.93 1402.12 3148.06 1400.97 3147.93 1400.27ZM3019.32 1276.05C3019.07 1275.73 3018.05 1275.35 3017.35 1275.23H3017.22C3017.16 1275.16 3009.46 1273.76 2996.62 1273.76C2983.77 1273.76 2976.13 1275.23 2976.01 1275.23H2975.88C2975.18 1275.29 2974.1 1275.73 2973.84 1276.05V1276.12C2973.4 1276.75 2973.27 1277.83 2973.27 1278.6C2973.27 1278.79 2973.27 1278.92 2973.27 1279.04L2984.21 1382.46C2987.77 1381.51 2992.04 1380.68 2996.62 1380.68C3001.19 1380.68 3005.2 1381.19 3009.08 1382.34L3019.96 1279.11V1278.98C3019.96 1278.98 3020.15 1277.39 3019.32 1276.05ZM2862.54 1359.31L2862.22 1359.18C2861.84 1358.99 2861.2 1358.8 2860.63 1358.8L2860.44 1359.06L2859.67 1359.18C2859.36 1359.25 2858.78 1360.01 2858.53 1360.65L2858.47 1360.77L2858.4 1360.9C2858.4 1360.96 2854.46 1367.9 2850.52 1379.98C2846.57 1392.19 2845.43 1400.21 2845.43 1400.27C2845.36 1400.97 2845.43 1402.05 2845.68 1402.43C2846.44 1403.33 2847.78 1403.9 2848.35 1404.09L2949.8 1425.52C2950.12 1416.87 2952.92 1408.54 2957.63 1401.61L2862.54 1359.31ZM2959.85 1456.63L2890.27 1534.03L2890.2 1534.1L2890.14 1534.16C2890.14 1534.16 2889.06 1535.3 2889.06 1536.77C2889.06 1536.96 2889.19 1537.34 2889.44 1537.72C2889.63 1538.1 2889.95 1538.48 2890.14 1538.68C2890.2 1538.74 2895.67 1544.53 2906.04 1552.03C2916.41 1559.47 2923.66 1562.78 2923.72 1562.85H2923.85C2924.11 1562.91 2925 1563.29 2925.7 1563.29H2926.33C2927.16 1562.85 2928.05 1561.76 2928.3 1561.26L2980.4 1471.25C2972.51 1468.58 2965.51 1463.56 2959.85 1456.63Z" stroke="#B9BDC6" stroke-width="4" stroke-miterlimit="10"/>
<path d="M3043.56 1431.69C3040.25 1431.69 3036.88 1433.16 3034.71 1436.15C3031.03 1440.98 3032.11 1447.98 3037.32 1451.66C3039.17 1453.13 3041.39 1453.89 3044 1453.89C3047.31 1453.89 3050.68 1452.43 3052.84 1449.44C3056.53 1444.6 3055.45 1437.61 3050.23 1433.92C3048.39 1432.39 3046.16 1431.69 3043.56 1431.69ZM3025.81 1376.61C3023.58 1376.61 3021.36 1377.37 3019.13 1378.84C3014.3 1382.53 3013.22 1389.21 3016.52 1394.36C3018.75 1397.28 3022.06 1398.81 3025.36 1398.81C3027.59 1398.81 3029.82 1398.05 3032.04 1396.58C3036.88 1392.89 3037.96 1386.22 3034.65 1381.06C3032.49 1378.07 3029.18 1376.61 3025.81 1376.61ZM2967.42 1376.61C2966.34 1376.61 2965.19 1376.61 2964.11 1376.99C2958.2 1378.84 2955.27 1385.13 2957.12 1391.05C2958.58 1395.88 2963.03 1398.81 2967.87 1398.81C2968.95 1398.81 2970.09 1398.81 2971.17 1398.43C2977.09 1396.58 2980.01 1390.29 2978.17 1384.37C2976.64 1379.54 2972.25 1376.61 2967.42 1376.61ZM2996.62 1466.04C2991.78 1466.04 2987.77 1468.97 2985.87 1473.8C2984.02 1479.71 2987.33 1486.01 2992.86 1487.86C2993.94 1488.24 2995.09 1488.24 2996.17 1488.24C3001 1488.24 3005.01 1485.31 3006.92 1480.48C3008.76 1474.56 3005.46 1468.27 2999.92 1466.42C2998.84 1466.04 2997.76 1466.04 2996.62 1466.04ZM2949.67 1431.69C2943.38 1431.69 2938.61 1436.53 2938.61 1442.76C2938.61 1448.99 2943.44 1453.83 2949.67 1453.83C2955.91 1453.83 2960.74 1448.99 2960.74 1442.76C2960.74 1436.53 2955.59 1431.69 2949.67 1431.69Z" stroke="#B9BDC6" stroke-width="4" stroke-miterlimit="10"/>
<path d="M3136.74 1425.01C3136.74 1440.15 3134.51 1455.29 3129.74 1470.49C3124.91 1485.63 3117.53 1498.92 3108.69 1511.13C3106.46 1514.06 3103.15 1515.59 3099.85 1515.59C3098.76 1515.59 3097.62 1515.59 3096.54 1515.21C3095.46 1514.82 3094.69 1514.44 3093.61 1513.74C3092.85 1513.36 3092.53 1512.66 3091.77 1511.9L3090.69 1510.44L3062.57 1470.49C3057.42 1464.19 3055.89 1455.35 3058.5 1447.21C3059.77 1443.14 3062.13 1439.52 3065.05 1436.65C3068.04 1433.79 3071.6 1431.69 3075.48 1430.55L3121.66 1415.03L3123.12 1414.65C3123.89 1414.27 3124.59 1414.27 3125.73 1414.27C3127.2 1414.27 3128.34 1414.65 3129.04 1414.27C3133.36 1415.79 3136.74 1420.18 3136.74 1425.01ZM3111.93 1346.65C3103.41 1334.44 3092.34 1323.37 3079.75 1314.15C3066.83 1304.93 3053.16 1297.87 3038.72 1293.48C3036.88 1293.1 3035.73 1293.1 3034.65 1293.1C3030.96 1293.1 3027.65 1294.94 3025.75 1297.55C3024.98 1298.31 3024.66 1299.4 3024.28 1300.48C3023.9 1301.24 3023.9 1302.32 3023.9 1303.08V1304.93L3024.66 1353.71C3024.66 1357.78 3025.62 1361.86 3027.4 1365.54C3029.18 1369.23 3031.85 1372.54 3035.41 1375.15C3039.87 1378.46 3045.4 1379.98 3050.55 1379.98C3053.48 1379.98 3056.09 1379.6 3059.07 1378.52L3105.63 1364.08L3107.1 1363.7C3107.86 1363.32 3108.56 1362.94 3109.32 1362.24C3110.4 1361.47 3111.17 1360.77 3111.93 1359.63C3114.54 1355.88 3114.92 1350.72 3111.93 1346.65ZM2969.65 1300.48C2969.27 1299.4 2968.88 1298.25 2968.18 1297.55C2965.58 1294.94 2962.27 1293.1 2958.58 1293.1C2957.5 1293.1 2956.35 1293.1 2955.27 1293.48C2940.83 1297.93 2927.16 1304.55 2914.25 1314.15C2901.34 1323.37 2890.59 1334.51 2882.06 1346.65C2879.14 1350.72 2879.46 1355.88 2882.06 1359.57C2882.83 1360.33 2883.53 1361.41 2884.67 1362.17C2885.43 1362.55 2886.13 1363.25 2886.9 1363.64L2888.36 1364.02L2934.92 1378.46C2936.19 1379.03 2937.59 1379.35 2939.05 1379.6C2940.52 1379.86 2941.98 1379.92 2943.44 1379.92C2948.59 1379.92 2953.81 1378.46 2958.58 1375.09C2965.58 1369.93 2969.33 1361.79 2969.33 1353.65L2970.09 1304.87V1303.02C2970.03 1302.32 2969.65 1301.18 2969.65 1300.48ZM2934.92 1447.53C2932.31 1439.39 2925.7 1433.09 2917.94 1430.93L2871.76 1415.41L2870.3 1415.03C2869.53 1414.65 2868.45 1414.27 2867.69 1414.27C2866.61 1414.27 2865.46 1414.65 2864.38 1414.65C2859.93 1416.11 2856.62 1420.18 2856.62 1425.4C2856.24 1440.53 2858.47 1455.74 2863.62 1470.87C2868.45 1486.01 2875.83 1499.69 2884.67 1511.52C2886.9 1514.44 2890.2 1515.97 2893.58 1515.97C2894.66 1515.97 2895.8 1515.97 2896.88 1515.59C2897.96 1515.21 2899.11 1514.82 2899.81 1514.12C2900.57 1513.74 2901.27 1513.04 2901.65 1512.28L2902.74 1510.82L2930.85 1470.87C2934.16 1466.29 2936.06 1460.76 2936.06 1455.1C2936.06 1452.62 2935.68 1450.07 2934.92 1447.53ZM3049.09 1546.63C3048.71 1545.86 3048.33 1544.78 3048.01 1544.02L3046.93 1542.56L3017.73 1503.38C3015.51 1500.07 3012.45 1497.27 3008.89 1495.36C3005.27 1493.39 3001.13 1492.31 2996.68 1492.31C2987.84 1492.31 2980.4 1496.76 2975.63 1503.38L2946.43 1542.56L2945.35 1544.02C2944.97 1544.78 2944.59 1545.48 2944.27 1546.63C2943.89 1547.71 2943.89 1548.85 2943.89 1549.93C2943.89 1554.77 2946.81 1558.77 2951.65 1560.68C2965.7 1565.52 2981.22 1568.06 2996.74 1568.06C3012.26 1568.06 3027.78 1565.45 3041.84 1560.68C3046.67 1559.22 3049.6 1554.77 3049.6 1549.93C3049.47 1548.85 3049.47 1547.71 3049.09 1546.63Z" stroke="#B9BDC6" stroke-width="4" stroke-miterlimit="10"/>
<path d="M2996.62 1458.28C3013.55 1458.28 3027.27 1444.55 3027.27 1427.62C3027.27 1410.69 3013.55 1396.96 2996.62 1396.96C2979.68 1396.96 2965.96 1410.69 2965.96 1427.62C2965.96 1444.55 2979.68 1458.28 2996.62 1458.28Z" stroke="#B9BDC6" stroke-width="4" stroke-miterlimit="10"/>
<path d="M1256.59 1669.13C1393.41 1669.13 1504.33 1558.21 1504.33 1421.39C1504.33 1284.57 1393.41 1173.65 1256.59 1173.65C1119.77 1173.65 1008.85 1284.57 1008.85 1421.39C1008.85 1558.21 1119.77 1669.13 1256.59 1669.13Z" stroke="#B9BDC6" stroke-width="4" stroke-miterlimit="10"/>
<path d="M1256.59 1624.54C1368.79 1624.54 1459.74 1533.59 1459.74 1421.39C1459.74 1309.19 1368.79 1218.24 1256.59 1218.24C1144.39 1218.24 1053.44 1309.19 1053.44 1421.39C1053.44 1533.59 1144.39 1624.54 1256.59 1624.54Z" stroke="#B9BDC6" stroke-width="4" stroke-miterlimit="10"/>
<path d="M1391.37 1556.19C1465.82 1481.75 1465.82 1361.05 1391.37 1286.61C1316.93 1212.17 1196.24 1212.17 1121.8 1286.61C1047.35 1361.05 1047.35 1481.75 1121.8 1556.19C1196.24 1630.63 1316.93 1630.63 1391.37 1556.19Z" stroke="#B9BDC6" stroke-width="4" stroke-miterlimit="10"/>
<path d="M1256.59 1241.07C1356.07 1241.07 1436.91 1321.91 1436.91 1421.39C1436.91 1520.87 1356.07 1601.71 1256.59 1601.71C1157.11 1601.71 1076.27 1520.87 1076.27 1421.39C1076.27 1321.91 1157.11 1241.07 1256.59 1241.07Z" stroke="#B9BDC6" stroke-width="4" stroke-miterlimit="10"/>
<path d="M1256.59 1589.88C1349.64 1589.88 1425.08 1514.44 1425.08 1421.39C1425.08 1328.34 1349.64 1252.9 1256.59 1252.9C1163.54 1252.9 1088.1 1328.34 1088.1 1421.39C1088.1 1514.44 1163.54 1589.88 1256.59 1589.88Z" stroke="#B9BDC6" stroke-width="4" stroke-miterlimit="10"/>
<path d="M1367.58 1534.22C1367.58 1534.67 1367.01 1535.69 1366.43 1536.19C1366.37 1536.26 1364.97 1537.72 1362.24 1540.2C1359.5 1542.68 1355.37 1546.12 1350.02 1550C1339.34 1557.76 1331.83 1561.13 1331.77 1561.13H1331.64C1331.39 1561.26 1330.43 1561.64 1329.73 1561.64H1329.1C1328.27 1561.19 1327.32 1560.05 1327.06 1559.54L1273.25 1466.68C1281.59 1463.69 1288.9 1458.41 1294.37 1451.6L1366.24 1531.42L1366.31 1531.49C1366.43 1531.42 1367.58 1532.7 1367.58 1534.22ZM1412.67 1393.21C1412.67 1393.08 1411.47 1384.82 1407.46 1372.29C1403.45 1359.82 1399.38 1352.7 1399.32 1352.63L1399.25 1352.57L1399.19 1352.51C1398.94 1352 1398.3 1351.11 1397.66 1350.79C1397.35 1350.72 1397.15 1350.6 1396.96 1350.53C1396.96 1350.47 1396.9 1350.47 1396.9 1350.47C1395.63 1350.47 1394.67 1350.92 1394.55 1350.98H1394.48L1296.79 1394.61C1301.68 1401.74 1304.55 1410.39 1304.93 1419.29L1409.68 1397.09H1409.88C1410.07 1397.09 1411.53 1396.77 1412.29 1395.57L1412.36 1395.5L1412.42 1395.44C1412.67 1395.06 1412.8 1393.91 1412.67 1393.21ZM1280 1265.05C1279.74 1264.73 1278.66 1264.35 1277.96 1264.22H1277.83C1277.77 1264.16 1269.82 1262.7 1256.59 1262.7C1243.36 1262.7 1235.47 1264.22 1235.34 1264.22H1235.22C1234.52 1264.29 1233.37 1264.73 1233.12 1265.05V1265.11C1232.61 1265.75 1232.48 1266.89 1232.48 1267.66C1232.48 1267.85 1232.48 1267.97 1232.48 1268.1L1243.74 1374.77C1247.43 1373.81 1251.82 1372.92 1256.52 1372.92C1261.23 1372.92 1265.37 1373.43 1269.37 1374.64L1280.57 1268.17V1268.04C1280.69 1268.1 1280.89 1266.45 1280 1265.05ZM1118.31 1350.92L1117.99 1350.79C1117.61 1350.6 1116.98 1350.41 1116.34 1350.41L1116.15 1350.66L1115.39 1350.79C1115.07 1350.85 1114.5 1351.61 1114.18 1352.31L1114.11 1352.44L1114.05 1352.57C1114.05 1352.63 1109.98 1359.76 1105.91 1372.22C1101.84 1384.82 1100.69 1393.08 1100.69 1393.15C1100.63 1393.85 1100.69 1394.99 1100.95 1395.37C1101.71 1396.27 1103.11 1396.9 1103.68 1397.09L1208.31 1419.23C1208.63 1410.32 1211.56 1401.74 1216.39 1394.55L1118.31 1350.92ZM1218.68 1451.28L1146.93 1531.11L1146.87 1531.17L1146.81 1531.23C1146.81 1531.23 1145.66 1532.44 1145.66 1533.91C1145.66 1534.16 1145.85 1534.48 1146.04 1534.86C1146.23 1535.24 1146.55 1535.62 1146.74 1535.81C1146.81 1535.88 1152.47 1541.86 1163.15 1549.62C1173.84 1557.31 1181.34 1560.68 1181.41 1560.75H1181.54C1181.79 1560.81 1182.74 1561.19 1183.44 1561.19H1184.08C1184.91 1560.75 1185.86 1559.6 1186.11 1559.09L1239.86 1466.29C1231.72 1463.62 1224.53 1458.47 1218.68 1451.28Z" stroke="#B9BDC6" stroke-width="4" stroke-miterlimit="10"/>
<path d="M1304.99 1425.59C1301.56 1425.59 1298.12 1427.11 1295.9 1430.17C1292.08 1435.13 1293.22 1442.38 1298.57 1446.19C1300.48 1447.72 1302.77 1448.48 1305.44 1448.48C1308.87 1448.48 1312.31 1446.96 1314.53 1443.9C1318.35 1438.94 1317.2 1431.69 1311.86 1427.88C1310.02 1426.29 1307.73 1425.59 1304.99 1425.59ZM1286.74 1368.79C1284.45 1368.79 1282.16 1369.55 1279.87 1371.08C1274.91 1374.89 1273.76 1381.76 1277.2 1387.11C1279.49 1390.1 1282.92 1391.69 1286.29 1391.69C1288.58 1391.69 1290.87 1390.92 1293.16 1389.4C1298.12 1385.58 1299.27 1378.71 1295.83 1373.37C1293.61 1370.31 1290.17 1368.79 1286.74 1368.79ZM1226.5 1368.79C1225.36 1368.79 1224.21 1368.79 1223.07 1369.17C1216.96 1371.08 1213.97 1377.57 1215.88 1383.67C1217.41 1388.63 1221.99 1391.69 1226.95 1391.69C1228.09 1391.69 1229.24 1391.69 1230.38 1391.3C1236.49 1389.4 1239.48 1382.91 1237.57 1376.8C1235.98 1371.78 1231.46 1368.79 1226.5 1368.79ZM1256.59 1461.01C1251.63 1461.01 1247.49 1464 1245.52 1469.03C1243.61 1475.13 1247.05 1481.62 1252.71 1483.53C1253.85 1483.91 1255 1483.91 1256.14 1483.91C1261.1 1483.91 1265.24 1480.92 1267.21 1475.9C1269.12 1469.79 1265.68 1463.3 1260.02 1461.4C1258.88 1461.01 1257.8 1461.01 1256.59 1461.01ZM1208.19 1425.59C1201.7 1425.59 1196.8 1430.55 1196.8 1436.97C1196.8 1443.4 1201.76 1448.36 1208.19 1448.36C1214.61 1448.36 1219.57 1443.4 1219.57 1436.97C1219.57 1430.55 1214.29 1425.59 1208.19 1425.59Z" stroke="#B9BDC6" stroke-width="4" stroke-miterlimit="10"/>
<path d="M1401.1 1418.72C1401.1 1434.3 1398.81 1449.95 1393.91 1465.59C1388.95 1481.18 1381.32 1494.92 1372.22 1507.51C1369.93 1510.5 1366.5 1512.09 1363.13 1512.09C1361.98 1512.09 1360.84 1512.09 1359.69 1511.71C1358.55 1511.33 1357.78 1510.94 1356.7 1510.18C1355.94 1509.8 1355.56 1509.04 1354.79 1508.27L1353.65 1506.75L1324.65 1465.53C1319.3 1459.04 1317.78 1449.95 1320.45 1441.55C1321.78 1437.35 1324.2 1433.6 1327.19 1430.68C1330.24 1427.75 1333.93 1425.59 1337.94 1424.38L1385.58 1408.35L1387.1 1407.97C1387.87 1407.59 1388.63 1407.59 1389.78 1407.59C1391.3 1407.59 1392.45 1407.97 1393.21 1407.59C1397.6 1409.18 1401.1 1413.69 1401.1 1418.72ZM1375.53 1337.88C1366.75 1325.28 1355.3 1313.9 1342.33 1304.36C1329.03 1294.82 1314.91 1287.57 1300.03 1283.05C1298.12 1282.67 1296.98 1282.67 1295.83 1282.67C1292.02 1282.67 1288.65 1284.58 1286.67 1287.25C1285.91 1288.01 1285.53 1289.16 1285.15 1290.24C1284.77 1291 1284.77 1292.14 1284.77 1292.91V1294.82L1285.53 1345.13C1285.53 1349.33 1286.48 1353.52 1288.33 1357.34C1290.17 1361.16 1292.91 1364.53 1296.6 1367.26C1301.18 1370.7 1306.9 1372.22 1312.18 1372.22C1315.17 1372.22 1317.9 1371.84 1320.96 1370.7L1368.98 1355.81L1370.5 1355.43C1371.27 1355.05 1372.03 1354.67 1372.79 1353.9C1373.94 1353.14 1374.7 1352.38 1375.47 1351.23C1378.2 1347.42 1378.58 1342.07 1375.53 1337.88ZM1228.79 1290.24C1228.41 1289.09 1228.03 1287.95 1227.27 1287.25C1224.6 1284.58 1221.16 1282.67 1217.34 1282.67C1216.2 1282.67 1215.05 1282.67 1213.91 1283.05C1199.03 1287.63 1184.91 1294.43 1171.61 1304.36C1158.32 1313.9 1147.19 1325.35 1138.41 1337.88C1135.42 1342.07 1135.74 1347.42 1138.41 1351.17C1139.17 1351.93 1139.94 1353.08 1141.08 1353.84C1141.85 1354.22 1142.61 1354.99 1143.37 1355.37L1144.9 1355.75L1192.92 1370.63C1194.26 1371.21 1195.66 1371.52 1197.18 1371.84C1198.71 1372.1 1200.17 1372.16 1201.7 1372.16C1207.04 1372.16 1212.38 1370.63 1217.28 1367.2C1224.47 1361.86 1228.35 1353.46 1228.35 1345.06L1229.11 1294.75V1292.84C1229.18 1292.14 1228.79 1291 1228.79 1290.24ZM1192.98 1441.93C1190.31 1433.54 1183.44 1427.05 1175.49 1424.82L1127.85 1408.8L1126.33 1408.41C1125.56 1408.03 1124.42 1407.65 1123.66 1407.65C1122.51 1407.65 1121.37 1408.03 1120.22 1408.03C1115.64 1409.56 1112.21 1413.76 1112.21 1419.1C1111.82 1434.68 1114.11 1450.39 1119.39 1465.98C1124.35 1481.56 1131.99 1495.68 1141.08 1507.89C1143.37 1510.88 1146.81 1512.47 1150.24 1512.47C1151.39 1512.47 1152.53 1512.47 1153.68 1512.09C1154.82 1511.71 1155.97 1511.33 1156.67 1510.56C1157.43 1510.18 1158.19 1509.42 1158.57 1508.65L1159.72 1507.13L1188.72 1465.91C1192.16 1461.21 1194.13 1455.48 1194.13 1449.63C1194.13 1447.15 1193.75 1444.54 1192.98 1441.93ZM1310.72 1544.08C1310.33 1543.32 1309.95 1542.17 1309.57 1541.41L1308.43 1539.88L1278.34 1499.5C1276.05 1496.06 1272.87 1493.2 1269.25 1491.23C1265.49 1489.19 1261.23 1488.05 1256.65 1488.05C1247.56 1488.05 1239.86 1492.63 1234.96 1499.43L1204.88 1539.82L1203.73 1541.35C1203.35 1542.11 1202.97 1542.87 1202.59 1544.02C1202.21 1545.16 1202.21 1546.31 1202.21 1547.45C1202.21 1552.41 1205.2 1556.55 1210.22 1558.52C1224.72 1563.48 1240.75 1566.15 1256.72 1566.15C1272.74 1566.15 1288.71 1563.48 1303.21 1558.52C1308.17 1556.99 1311.22 1552.41 1311.22 1547.45C1311.1 1546.44 1311.1 1545.23 1310.72 1544.08Z" stroke="#B9BDC6" stroke-width="4" stroke-miterlimit="10"/>
<path d="M1256.59 1453C1274.05 1453 1288.2 1438.85 1288.2 1421.39C1288.2 1403.93 1274.05 1389.78 1256.59 1389.78C1239.13 1389.78 1224.98 1403.93 1224.98 1421.39C1224.98 1438.85 1239.13 1453 1256.59 1453Z" stroke="#B9BDC6" stroke-width="4" stroke-miterlimit="10"/>
</svg>
