<svg width="4200" height="2400" viewBox="0 0 4200 2400" fill="none" xmlns="http://www.w3.org/2000/svg">
<g clip-path="url(#clip0)">
<path d="M873.625 1537.62C811.624 1536.61 585.418 1497.83 557.915 1494.77C557.915 1494.77 538.221 1483.63 527.084 1466.04C515.947 1448.52 498.358 1268.34 498.358 1268.34C498.358 1268.34 498.358 1251.16 503.995 1240.36C510.174 1228.54 541.616 1213.6 541.616 1213.6C544.469 1195.47 589.085 1147.79 599.611 1140.8C601.241 1126.4 632.819 1113.29 646.401 1105.89C685.109 1084.84 719.471 1065.89 695.092 1024.6C695.092 1024.6 672.953 975.698 659.303 953.558C641.715 920.144 654.753 905.474 699.37 901.807C756.278 901.671 801.098 925.577 829.756 948.939C829.756 948.939 836.139 952.675 841.64 952.335C890.874 946.902 940.38 940.45 990.09 936.036C1026.49 930.467 1048.36 916.544 1076.2 904.523C1170.39 863.91 1301.59 815.011 1398.97 782.82C1398.97 782.82 1481.14 758.167 1493.91 752.666C1506.68 747.165 1506.13 725.84 1520.6 722.58C1667.21 689.301 1826.33 677.552 1956.85 675.651C2109.58 673.409 2223.12 684.615 2231.61 690.32C2265.63 713.207 2597.37 967.888 2605.11 972.166C2612.85 976.445 2640.9 987.923 2657.26 989.756C2673.63 991.59 3014.6 1029.01 3180.91 1055.63C3247.33 1065.41 3384.37 1089.18 3449.16 1105.75C3478.08 1121.24 3568.4 1221.35 3588.91 1237.03C3608.06 1252.65 3654.11 1277.24 3664.77 1287.7C3675.43 1298.16 3691.73 1326.34 3691.73 1326.34C3691.73 1326.34 3698.99 1339.11 3699.67 1345.49C3701.85 1364.24 3696.48 1422.65 3695.8 1436.57C3695.8 1436.57 3685.55 1524.11 3688.54 1532.6C3691.52 1541.09 3694.17 1542.51 3697.77 1543.94C3713.93 1559.02 3673.46 1580.95 3630.27 1586.12C3587.35 1591.21 3451.94 1606.97 3365.08 1610.57C3357.27 1606.15 3357.27 1591.07 3361.89 1588.76C3393.33 1459.32 3344.91 1269.9 3219.83 1211.57C2939.36 1080.83 2739.77 1270.04 2735.84 1536.88C2735.29 1573.55 2731.49 1578.1 2722.46 1582.31C2713.43 1586.59 2696.11 1587.41 2663.51 1580.41C2630.92 1573.42 2517.24 1572.6 2099.86 1562.89C1688.47 1562.21 1864.22 1543.87 1598.15 1571.04C1562.9 1578.71 1522.02 1583.2 1516.66 1577.76C1508.17 1503.87 1519.65 1468.01 1499.68 1382.71C1445.49 1226.03 1321.49 1149.9 1199.93 1149.9C1035.66 1149.9 903.302 1258.09 897.258 1463.33C897.258 1463.33 894.541 1515.08 899.634 1521.8C907.105 1531.65 919.057 1528.73 920.483 1532.6C922.724 1538.24 879.669 1537.69 873.625 1537.62Z" stroke="#C4C9D4" stroke-width="4" stroke-miterlimit="10"/>
<path d="M541.752 1213.6L712.069 1219.99C712.069 1219.99 710.235 1205.93 707.315 1197.64C704.395 1189.43 705.482 1171.97 683.954 1156.69C683.954 1156.69 674.108 1151.39 662.699 1149.76C651.29 1148.2 591.666 1147.45 591.666 1147.45" stroke="#C4C9D4" stroke-width="4" stroke-miterlimit="10"/>
<path d="M978.477 1235.06L712.069 1219.92" stroke="#C4C9D4" stroke-width="4" stroke-miterlimit="10"/>
<path d="M2739.84 1486.01C2739.84 1486.01 2728.5 1491.51 2715.73 1491.51C2702.97 1491.51 2678.86 1485.87 2661.88 1483.7C2644.9 1481.6 2628.06 1479.83 2583.92 1478.06C2539.78 1476.3 2315.88 1471.48 2315.88 1471.48L2063.6 1466.18L1865.71 1460.54C1865.71 1460.54 1756.92 1454.36 1675.09 1455.38C1593.26 1456.4 1510.89 1458.5 1510.89 1458.5" stroke="#C4C9D4" stroke-width="4" stroke-miterlimit="10"/>
<path d="M2425.96 1005.24H2439.21C2439.21 1005.24 2442.4 1009.52 2456.73 1015.36C2471.06 1021.2 2491.36 1020.66 2491.36 1020.66C2491.36 1020.66 2590.64 1022.22 2617.67 1056.52C2669.96 1123.07 2625.75 1388.35 2619.98 1479.9" stroke="#C4C9D4" stroke-width="4" stroke-miterlimit="10"/>
<path d="M2269.3 990.3H1908.5L1524.88 985.002H1524.6H1524.33C1524.26 985.002 1516.12 985.138 1502.67 985.138C1468.99 985.138 1403.66 984.187 1344.51 978.007C1311.98 974.611 1285.77 970.061 1266.55 964.492C1238.37 956.342 1234.5 948.668 1234.16 947.785C1233.54 946.223 1233.07 944.05 1234.9 940.178C1237.48 934.609 1244.89 925.169 1265.05 911.858C1279.25 902.554 1297.72 892.706 1319.86 882.79C1358.09 865.54 1394.35 853.723 1394.69 853.655L1394.9 853.587L1395.1 853.519C1395.51 853.383 1435.91 838.85 1491.33 822.075C1542.4 806.658 1616.89 786.148 1681.95 776.096C1807.11 756.808 1986.59 750.832 1988.42 750.764C1988.63 750.764 2006.15 750.221 2030.66 750.221C2054.03 750.221 2088.32 750.764 2119.15 753.209C2169.54 758.167 2175.04 752.19 2253.14 834.91C2278.53 861.737 2305.02 894.675 2315.75 908.258" stroke="#C4C9D4" stroke-width="4" stroke-miterlimit="10"/>
<path d="M2344.2 904.252L2351.06 911.315C2343.18 907.987 2335.51 906.153 2328.24 906.425C2323.97 906.561 2319.89 907.172 2315.95 908.191C2284.03 916.205 2263.53 949.754 2264.48 973.389C2264.48 973.389 2262.37 981.539 2269.3 990.367C2271.54 993.22 2274.8 996.208 2279.35 998.925C2285.05 1002.39 2294.7 1004.29 2305.22 1005.31H1908.36L1524.67 1000.01C1524.67 1000.01 1516.46 1000.15 1502.74 1000.15C1435.85 1000.15 1237.82 996.48 1220.37 953.49C1199.25 901.331 1390.14 839.461 1390.14 839.461C1390.14 839.461 1552.24 780.986 1679.78 761.359C1807.31 741.664 1988.02 735.823 1988.02 735.823C1988.02 735.823 2005.67 735.28 2030.73 735.28C2082.21 735.28 2164.92 737.657 2191 752.326C2229.91 773.991 2344.2 904.252 2344.2 904.252Z" stroke="#C4C9D4" stroke-width="4" stroke-miterlimit="10"/>
<path d="M2425.96 1005.24C2426.24 1001.64 2426.37 997.974 2426.03 993.492L2439.21 1005.24H2425.96Z" stroke="#C4C9D4" stroke-width="4" stroke-miterlimit="10"/>
<path d="M1722.36 987.719L1653.5 780.986" stroke="#C4C9D4" stroke-width="4" stroke-miterlimit="10"/>
<path d="M1610.85 789.951L1678.28 987.108" stroke="#C4C9D4" stroke-width="4" stroke-miterlimit="10"/>
<path d="M2211.85 990.3L2124.18 753.549" stroke="#C4C9D4" stroke-width="4" stroke-miterlimit="10"/>
<path d="M2104.55 752.054L2194.33 990.3" stroke="#C4C9D4" stroke-width="4" stroke-miterlimit="10"/>
<path d="M1694.92 1002.25C1694.92 1002.25 1685.01 1022.22 1685.01 1047.89C1685.01 1076.96 1704.84 1136.45 1704.84 1136.45C1704.84 1136.45 1737.09 1236.02 1753.05 1272.49C1769.01 1308.96 1798.75 1395.07 1831.35 1414.56C1863.95 1434.05 1942.25 1431.2 2025.5 1432.97C2108.76 1434.73 2409.19 1441.46 2409.19 1441.46L2623.58 1447.98" stroke="#C4C9D4" stroke-width="4" stroke-miterlimit="10"/>
<path d="M3313.54 1293.74H3575.6C3575.6 1293.74 3649.42 1291.43 3653.56 1287.83C3657.7 1284.23 3654.31 1279.55 3654.31 1279.55" stroke="#C4C9D4" stroke-width="4" stroke-miterlimit="10"/>
<path d="M3554.89 1353.92C3578.59 1353.92 3642.9 1354.39 3662.66 1354.39C3682.97 1354.39 3685.07 1351.88 3687.18 1358.26C3689.28 1364.65 3688.26 1398.67 3682.22 1405.06C3676.18 1411.44 3644.46 1410.69 3644.46 1410.69C3644.46 1410.69 3583.68 1410.69 3567.05 1410.69C3555.43 1410.69 3540.09 1393.44 3539.41 1375.17C3538.73 1356.63 3542.39 1353.92 3554.89 1353.92Z" stroke="#C4C9D4" stroke-width="4" stroke-miterlimit="10"/>
<path d="M2425.96 1005.24C2425.56 1009.66 2424.88 1014 2424.47 1019.57C2423.38 1032.88 2398.39 1042.19 2375.58 1040.83C2352.69 1039.54 2341.55 1035.53 2336.8 1025.95C2332.05 1016.38 2357.51 1005.24 2357.51 1005.24H2305.29C2294.76 1004.22 2285.12 1002.32 2279.42 998.857C2274.87 996.072 2271.61 993.152 2269.37 990.3C2262.44 981.471 2264.54 973.321 2264.54 973.321C2263.59 949.686 2284.1 916.137 2316.02 908.123C2319.96 907.104 2324.03 906.561 2328.31 906.357C2335.51 906.085 2343.25 907.987 2351.13 911.247C2385.42 925.713 2421.69 967.82 2424.54 982.353C2425.35 986.632 2425.9 990.3 2426.1 993.491C2426.37 997.974 2426.3 1001.64 2425.96 1005.24Z" stroke="#C4C9D4" stroke-width="4" stroke-miterlimit="10" stroke-linejoin="round"/>
<path d="M2357.51 1005.24C2357.51 1005.24 2374.29 1012.44 2391.53 1011.08C2408.78 1009.72 2426.03 1005.24 2426.03 1005.24" stroke="#C4C9D4" stroke-width="4" stroke-miterlimit="10"/>
<path d="M1013.45 930.874C998.171 938.481 992.331 966.122 992.331 966.122" stroke="#C4C9D4" stroke-width="4" stroke-miterlimit="10"/>
<path d="M634.924 1111.8C704.667 1069.56 1303.08 848.426 1303.08 848.426C1303.08 848.426 1455.61 795.248 1587.42 769.237C1719.23 743.226 1808.13 736.366 1908.63 731.341C2154.4 719.116 2181.7 736.298 2226.18 780.171" stroke="#C4C9D4" stroke-width="4" stroke-miterlimit="10"/>
<path d="M2231.68 690.184C2193.04 699.692 2210.69 735.891 2226.11 752.054L2412.72 953.082C2412.72 953.082 2447.22 994.986 2474.11 1000.69C2523.82 1007.28 2600.76 992.812 2615.43 978.075" stroke="#C4C9D4" stroke-width="4" stroke-miterlimit="10"/>
<path d="M2245.73 699.081C2208.38 714.158 2220.2 733.989 2235.61 750.085L2416.8 945.136C2416.8 945.136 2450.75 985.274 2477.64 990.911C2527.35 997.499 2587.86 985.138 2605.31 971.963" stroke="#C4C9D4" stroke-width="4" stroke-miterlimit="10"/>
<path d="M1844.25 1108.27C1843.85 1108.88 1843.37 1109.49 1842.83 1110.1C1835.29 1119 1820.89 1127.08 1798.28 1126.88C1781.71 1126.74 1769.55 1121.85 1762.76 1112.48C1762.9 1107.72 1758.55 1098.56 1805.07 1098.22C1844.52 1097.94 1845.95 1104.87 1844.25 1108.27Z" stroke="#C4C9D4" stroke-width="4" stroke-miterlimit="10"/>
<path d="M1844.86 1080.08C1840.79 1081.51 1846.15 1087.42 1801.06 1083.34C1761.74 1079.81 1764.94 1075.74 1764.6 1072.82C1771.05 1066.23 1781.37 1061.75 1795.97 1061.68C1821.3 1061.54 1837.8 1069.01 1844.86 1080.08Z" stroke="#C4C9D4" stroke-width="4" stroke-miterlimit="10"/>
<path d="M1888.73 1095.09C1888.73 1102.02 1866.6 1106.98 1842.83 1110.1C1842.96 1109.97 1843.71 1109.29 1844.25 1108.27C1845.95 1104.87 1844.53 1097.94 1805.07 1098.22C1758.48 1098.56 1762.83 1107.66 1762.76 1112.48C1762.76 1112.89 1762.69 1113.29 1762.63 1113.63C1762.08 1115.26 1757.4 1115.13 1753.93 1115.19C1726.57 1115.74 1708.84 1113.9 1708.84 1093.87C1708.84 1079.2 1720.73 1072.27 1737.36 1070.57C1746.53 1069.62 1762.56 1070.3 1763.98 1071.46C1764.53 1071.87 1764.66 1072.34 1764.73 1072.88C1765 1075.8 1761.81 1079.81 1801.2 1083.41C1846.29 1087.49 1840.93 1081.58 1845 1080.15C1846.09 1079.74 1847.78 1079.74 1851.32 1080.22C1873.93 1083.55 1888.73 1088.37 1888.73 1095.09Z" stroke="#C4C9D4" stroke-width="4" stroke-miterlimit="10"/>
<path d="M675.058 905.746C669.761 913.284 676.756 921.57 676.756 921.57C676.756 921.57 692.375 937.326 713.223 953.49C734.072 969.653 774.953 995.801 810.062 993.288C810.062 993.288 855.222 994.782 995.115 956.546" stroke="#C4C9D4" stroke-width="4" stroke-miterlimit="10"/>
<path d="M841.64 952.335C754.308 962.658 758.247 981.267 758.247 981.267" stroke="#C4C9D4" stroke-width="4" stroke-miterlimit="10"/>
<path d="M3365.15 1610.43C3365.15 1610.43 3325.29 1588.43 3321.55 1584.76C3317.82 1581.02 3326.31 1572.53 3313.54 1561.73C3308.51 1557.52 3300.37 1554.4 3289.23 1552.16" stroke="#C4C9D4" stroke-width="4" stroke-miterlimit="10"/>
<path d="M2825.14 1551.95C2760.35 1555.21 2734.75 1559.56 2734.75 1559.56" stroke="#C4C9D4" stroke-width="4" stroke-miterlimit="10"/>
<path d="M1451.4 1521.26L1513.54 1527.44" stroke="#C4C9D4" stroke-width="4" stroke-miterlimit="10"/>
<path d="M920.551 1532.46C920.551 1522.62 929.99 1524.52 929.99 1524.52H948.869" stroke="#C4C9D4" stroke-width="4" stroke-miterlimit="10"/>
<path d="M1479.31 757.895C1479.31 757.895 1462.4 766.656 1340.43 811.548C1218.47 856.439 1096.5 909.006 1068.32 919.668C1040.14 930.331 1033.62 923.811 1033.62 923.811" stroke="#C4C9D4" stroke-width="4" stroke-miterlimit="10"/>
<path d="M2784.87 1004.22C2784.87 1004.22 2782.42 997.363 2771.42 995.936C2760.42 994.51 2757.23 1000.08 2757.23 1000.08" stroke="#C4C9D4" stroke-width="4" stroke-miterlimit="10"/>
<path d="M2657.26 989.756C2657.26 989.756 2650.61 983.168 2640.69 980.384C2630.78 977.532 2621.95 979.637 2621.95 979.637" stroke="#C4C9D4" stroke-width="4" stroke-miterlimit="10"/>
<path d="M2647.08 982.897C2651.22 973.253 2644.29 968.906 2651.97 971.895C2689.32 939.975 2585.89 954.169 2570.68 946.63L2647.08 982.897ZM2587.05 958.855C2596.82 959.806 2609.46 962.183 2617.54 968.091L2633.36 966.937C2628.4 968.363 2626.84 971.895 2626.84 971.895C2619.78 970.672 2615.43 978.143 2615.43 978.143L2587.05 958.855Z" stroke="#C4C9D4" stroke-width="4" stroke-miterlimit="10" stroke-linejoin="round"/>
<path d="M3548.98 1198.46C3548.98 1198.46 3540.29 1177.74 3512.79 1151.19C3467.9 1107.72 3456.35 1110.44 3456.35 1110.44" stroke="#C4C9D4" stroke-width="4" stroke-miterlimit="10" stroke-linejoin="round"/>
<path d="M3057.11 1699.19C3198.77 1699.19 3313.61 1584.35 3313.61 1442.68C3313.61 1301.01 3198.77 1186.17 3057.11 1186.17C2915.46 1186.17 2800.62 1301.01 2800.62 1442.68C2800.62 1584.35 2915.46 1699.19 3057.11 1699.19Z" stroke="#C4C9D4" stroke-width="4" stroke-miterlimit="10"/>
<path d="M3057.18 1653.01C3173.33 1653.01 3267.5 1558.84 3267.5 1442.68C3267.5 1326.52 3173.33 1232.35 3057.18 1232.35C2941.03 1232.35 2846.87 1326.52 2846.87 1442.68C2846.87 1558.84 2941.03 1653.01 3057.18 1653.01Z" stroke="#C4C9D4" stroke-width="4" stroke-miterlimit="10"/>
<path d="M3196.7 1582.24C3273.77 1505.18 3273.77 1380.21 3196.7 1303.14C3119.63 1226.07 2994.69 1226.07 2917.61 1303.14C2840.55 1380.21 2840.55 1505.18 2917.61 1582.24C2994.69 1659.32 3119.63 1659.32 3196.7 1582.24Z" stroke="#C4C9D4" stroke-width="4" stroke-miterlimit="10"/>
<path d="M3057.18 1255.98C3160.2 1255.98 3243.86 1339.65 3243.86 1442.68C3243.86 1545.71 3160.2 1629.38 3057.18 1629.38C2954.16 1629.38 2870.5 1545.71 2870.5 1442.68C2870.5 1339.65 2954.16 1255.98 3057.18 1255.98Z" stroke="#C4C9D4" stroke-width="4" stroke-miterlimit="10"/>
<path d="M3057.18 1617.15C3153.53 1617.15 3231.64 1539.04 3231.64 1442.68C3231.64 1346.32 3153.53 1268.21 3057.18 1268.21C2960.83 1268.21 2882.72 1346.32 2882.72 1442.68C2882.72 1539.04 2960.83 1617.15 3057.18 1617.15Z" stroke="#C4C9D4" stroke-width="4" stroke-miterlimit="10"/>
<path d="M3172.08 1559.49C3172.08 1559.97 3171.47 1560.99 3170.93 1561.53C3170.86 1561.6 3169.44 1563.09 3166.58 1565.67C3163.73 1568.25 3159.52 1571.79 3153.95 1575.79C3142.88 1583.81 3135.14 1587.34 3135.07 1587.34H3134.94C3134.67 1587.47 3133.72 1587.88 3132.97 1587.88H3132.29C3131.41 1587.41 3130.46 1586.25 3130.18 1585.71L3074.5 1489.54C3083.12 1486.42 3090.73 1480.98 3096.37 1473.92L3170.79 1556.57L3170.86 1556.64C3170.86 1556.64 3172.08 1557.93 3172.08 1559.49ZM3218.74 1413.48C3218.74 1413.34 3217.52 1404.78 3213.31 1391.81C3209.16 1378.91 3204.95 1371.51 3204.89 1371.44L3204.82 1371.37L3204.75 1371.3C3204.48 1370.76 3203.8 1369.88 3203.19 1369.54C3202.85 1369.47 3202.64 1369.33 3202.44 1369.26C3202.44 1369.2 3202.37 1369.2 3202.37 1369.2C3201.08 1369.2 3200.06 1369.67 3199.93 1369.74H3199.86L3098.74 1414.9C3103.84 1422.31 3106.76 1431.2 3107.16 1440.44L3215.61 1417.48H3215.82C3216.02 1417.48 3217.52 1417.14 3218.33 1415.92L3218.4 1415.85L3218.47 1415.79C3218.74 1415.45 3218.87 1414.22 3218.74 1413.48ZM3081.43 1280.84C3081.15 1280.5 3080.07 1280.09 3079.32 1279.96H3079.18C3079.12 1279.89 3070.9 1278.39 3057.18 1278.39C3043.46 1278.39 3035.32 1279.96 3035.18 1279.96H3035.04C3034.3 1280.02 3033.14 1280.5 3032.87 1280.84V1280.91C3032.4 1281.59 3032.26 1282.74 3032.26 1283.56C3032.26 1283.76 3032.26 1283.9 3032.26 1284.03L3043.94 1394.46C3047.74 1393.44 3052.29 1392.56 3057.18 1392.56C3062.07 1392.56 3066.35 1393.1 3070.49 1394.32L3082.1 1284.1V1283.96C3082.1 1283.96 3082.31 1282.27 3081.43 1280.84ZM2914.03 1369.74L2913.69 1369.6C2913.28 1369.4 2912.6 1369.2 2911.99 1369.2L2911.79 1369.47L2910.97 1369.6C2910.63 1369.67 2910.02 1370.49 2909.75 1371.17L2909.68 1371.3L2909.62 1371.44C2909.62 1371.51 2905.4 1378.91 2901.19 1391.81C2896.98 1404.85 2895.76 1413.41 2895.76 1413.48C2895.69 1414.22 2895.76 1415.38 2896.03 1415.79C2896.85 1416.74 2898.27 1417.35 2898.89 1417.55L3007.2 1440.44C3007.54 1431.2 3010.53 1422.31 3015.55 1414.9L2914.03 1369.74ZM3017.93 1473.65L2943.64 1556.3L2943.57 1556.37L2943.5 1556.44C2943.5 1556.44 2942.35 1557.66 2942.35 1559.22C2942.35 1559.43 2942.48 1559.83 2942.76 1560.24C2942.96 1560.65 2943.3 1561.06 2943.5 1561.26C2943.57 1561.33 2949.41 1567.51 2960.48 1575.52C2971.55 1583.47 2979.29 1587 2979.36 1587.07H2979.49C2979.77 1587.13 2980.72 1587.54 2981.46 1587.54H2982.14C2983.03 1587.07 2983.98 1585.91 2984.25 1585.37L3039.87 1489.27C3031.44 1486.42 3023.97 1481.05 3017.93 1473.65Z" stroke="#C4C9D4" stroke-width="4" stroke-miterlimit="10"/>
<path d="M3107.3 1447.03C3103.77 1447.03 3100.17 1448.59 3097.86 1451.78C3093.92 1456.94 3095.08 1464.41 3100.64 1468.35C3102.61 1469.91 3104.99 1470.73 3107.77 1470.73C3111.31 1470.73 3114.91 1469.17 3117.21 1465.97C3121.15 1460.81 3120 1453.34 3114.43 1449.4C3112.46 1447.77 3110.08 1447.03 3107.3 1447.03ZM3088.35 1388.21C3085.98 1388.21 3083.6 1389.03 3081.22 1390.59C3076.06 1394.53 3074.91 1401.66 3078.44 1407.16C3080.81 1410.28 3084.35 1411.91 3087.88 1411.91C3090.25 1411.91 3092.63 1411.1 3095.01 1409.54C3100.17 1405.6 3101.32 1398.47 3097.79 1392.97C3095.48 1389.77 3091.95 1388.21 3088.35 1388.21ZM3026.01 1388.21C3024.86 1388.21 3023.63 1388.21 3022.48 1388.62C3016.16 1390.59 3013.04 1397.31 3015.01 1403.63C3016.57 1408.79 3021.33 1411.91 3026.49 1411.91C3027.64 1411.91 3028.86 1411.91 3030.02 1411.51C3036.33 1409.54 3039.46 1402.81 3037.49 1396.5C3035.86 1391.34 3031.17 1388.21 3026.01 1388.21ZM3057.18 1483.7C3052.02 1483.7 3047.74 1486.82 3045.71 1491.99C3043.74 1498.3 3047.27 1505.03 3053.18 1507C3054.33 1507.4 3055.55 1507.4 3056.71 1507.4C3061.87 1507.4 3066.15 1504.28 3068.18 1499.12C3070.15 1492.8 3066.62 1486.08 3060.71 1484.11C3059.56 1483.7 3058.4 1483.7 3057.18 1483.7ZM3007.06 1447.03C3000.34 1447.03 2995.25 1452.19 2995.25 1458.84C2995.25 1465.5 3000.41 1470.66 3007.06 1470.66C3013.72 1470.66 3018.88 1465.5 3018.88 1458.84C3018.88 1452.19 3013.38 1447.03 3007.06 1447.03Z" stroke="#C4C9D4" stroke-width="4" stroke-miterlimit="10"/>
<path d="M3206.79 1439.9C3206.79 1456.06 3204.41 1472.22 3199.32 1488.45C3194.16 1504.62 3186.28 1518.81 3176.84 1531.85C3174.46 1534.98 3170.93 1536.61 3167.4 1536.61C3166.24 1536.61 3165.02 1536.61 3163.87 1536.2C3162.71 1535.79 3161.9 1535.38 3160.74 1534.64C3159.93 1534.23 3159.59 1533.48 3158.77 1532.67L3157.62 1531.1L3127.6 1488.45C3122.1 1481.73 3120.47 1472.29 3123.26 1463.6C3124.62 1459.25 3127.13 1455.38 3130.25 1452.32C3133.44 1449.27 3137.25 1447.03 3141.39 1445.8L3190.69 1429.23L3192.25 1428.83C3193.07 1428.42 3193.82 1428.42 3195.04 1428.42C3196.6 1428.42 3197.82 1428.83 3198.57 1428.42C3203.19 1430.05 3206.79 1434.73 3206.79 1439.9ZM3180.3 1356.22C3171.2 1343.18 3159.39 1331.37 3145.94 1321.52C3132.15 1311.67 3117.55 1304.13 3102.14 1299.45C3100.17 1299.04 3098.95 1299.04 3097.79 1299.04C3093.85 1299.04 3090.32 1301.01 3088.28 1303.79C3087.47 1304.61 3087.13 1305.76 3086.72 1306.92C3086.32 1307.73 3086.32 1308.89 3086.32 1309.7V1311.67L3087.13 1363.76C3087.13 1368.11 3088.15 1372.46 3090.05 1376.4C3091.95 1380.33 3094.8 1383.87 3098.61 1386.65C3103.36 1390.18 3109.27 1391.81 3114.77 1391.81C3117.89 1391.81 3120.68 1391.4 3123.87 1390.25L3173.58 1374.83L3175.14 1374.43C3175.96 1374.02 3176.7 1373.61 3177.52 1372.86C3178.67 1372.05 3179.49 1371.3 3180.3 1370.08C3183.09 1366.07 3183.49 1360.57 3180.3 1356.22ZM3028.39 1306.92C3027.98 1305.76 3027.57 1304.54 3026.83 1303.79C3024.04 1301.01 3020.51 1299.04 3016.57 1299.04C3015.42 1299.04 3014.2 1299.04 3013.04 1299.45C2997.63 1304.2 2983.03 1311.26 2969.24 1321.52C2955.45 1331.37 2943.98 1343.25 2934.88 1356.22C2931.75 1360.57 2932.09 1366.07 2934.88 1370.01C2935.69 1370.83 2936.44 1371.98 2937.66 1372.8C2938.48 1373.2 2939.22 1373.95 2940.04 1374.36L2941.6 1374.77L2991.31 1390.18C2992.67 1390.79 2994.16 1391.13 2995.72 1391.4C2997.29 1391.68 2998.85 1391.74 3000.41 1391.74C3005.91 1391.74 3011.48 1390.18 3016.57 1386.58C3024.04 1381.08 3028.05 1372.39 3028.05 1363.69L3028.86 1311.6V1309.63C3028.8 1308.89 3028.39 1307.67 3028.39 1306.92ZM2991.31 1463.94C2988.53 1455.24 2981.46 1448.52 2973.18 1446.21L2923.88 1429.64L2922.31 1429.23C2921.5 1428.83 2920.34 1428.42 2919.53 1428.42C2918.38 1428.42 2917.15 1428.83 2916 1428.83C2911.24 1430.39 2907.71 1434.73 2907.71 1440.3C2907.31 1456.47 2909.68 1472.7 2915.18 1488.86C2920.34 1505.03 2928.22 1519.63 2937.66 1532.26C2940.04 1535.38 2943.57 1537.01 2947.17 1537.01C2948.32 1537.01 2949.55 1537.01 2950.7 1536.61C2951.85 1536.2 2953.08 1535.79 2953.82 1535.04C2954.64 1534.64 2955.39 1533.89 2955.79 1533.07L2956.95 1531.51L2986.96 1488.86C2990.5 1483.97 2992.53 1478.06 2992.53 1472.02C2992.53 1469.37 2992.12 1466.65 2991.31 1463.94ZM3113.21 1569.75C3112.8 1568.93 3112.39 1567.78 3112.05 1566.96L3110.9 1565.4L3079.73 1523.57C3077.35 1520.03 3074.09 1517.05 3070.29 1515.01C3066.42 1512.9 3062 1511.75 3057.25 1511.75C3047.81 1511.75 3039.87 1516.5 3034.77 1523.57L3003.6 1565.4L3002.45 1566.96C3002.04 1567.78 3001.63 1568.53 3001.29 1569.75C3000.89 1570.9 3000.89 1572.13 3000.89 1573.28C3000.89 1578.44 3004.01 1582.72 3009.17 1584.76C3024.18 1589.92 3040.75 1592.64 3057.32 1592.64C3073.89 1592.64 3090.46 1589.85 3105.47 1584.76C3110.63 1583.2 3113.75 1578.44 3113.75 1573.28C3113.61 1572.13 3113.61 1570.9 3113.21 1569.75Z" stroke="#C4C9D4" stroke-width="4" stroke-miterlimit="10"/>
<path d="M3057.18 1475.41C3075.26 1475.41 3089.91 1460.76 3089.91 1442.68C3089.91 1424.6 3075.26 1409.94 3057.18 1409.94C3039.1 1409.94 3024.45 1424.6 3024.45 1442.68C3024.45 1460.76 3039.1 1475.41 3057.18 1475.41Z" stroke="#C4C9D4" stroke-width="4" stroke-miterlimit="10"/>
<path d="M3106.89 1284.78C3104.52 1284.78 3102.55 1286.34 3101.73 1288.31C3100.92 1291.09 3102.55 1294.22 3105.26 1295.03C3105.67 1295.03 3106.42 1295.44 3106.82 1295.44C3109.2 1295.44 3111.17 1293.88 3111.99 1291.91C3112.8 1289.12 3111.17 1286 3108.45 1285.19C3107.71 1284.78 3107.3 1284.78 3106.89 1284.78ZM3107.1 1292.72C3107.03 1292.72 3107.03 1292.72 3106.96 1292.66C3106.62 1292.52 3106.28 1292.45 3105.87 1292.38C3105.19 1292.11 3104.79 1291.5 3104.58 1291.16C3104.24 1290.55 3104.18 1289.8 3104.31 1289.19C3104.72 1288.31 3105.67 1287.49 3106.89 1287.49C3106.96 1287.49 3106.96 1287.49 3106.96 1287.49C3107.03 1287.49 3107.03 1287.49 3107.03 1287.49C3107.03 1287.49 3107.03 1287.49 3106.96 1287.49C3107.03 1287.49 3107.1 1287.56 3107.23 1287.63L3107.44 1287.77L3107.71 1287.83C3108.52 1288.04 3108.93 1288.72 3109.13 1289.06C3109.47 1289.67 3109.54 1290.42 3109.4 1291.03C3109.06 1291.84 3108.18 1292.66 3107.1 1292.72ZM3007.47 1284.78C3007.07 1284.78 3006.32 1284.78 3005.91 1285.19C3003.13 1286 3001.56 1289.12 3002.38 1291.91C3003.19 1294.29 3005.16 1295.44 3007.54 1295.44C3007.95 1295.44 3008.69 1295.44 3009.1 1295.03C3011.89 1294.22 3013.45 1291.09 3012.63 1288.31C3011.82 1286.34 3009.85 1284.78 3007.47 1284.78ZM3007.54 1292.66C3005.64 1292.66 3005.16 1291.5 3005.03 1291.03C3004.69 1289.67 3005.5 1288.11 3006.73 1287.7L3007.4 1287.49H3007.47C3008.7 1287.49 3009.65 1288.38 3010.05 1289.19C3010.32 1290.55 3009.58 1292.04 3008.36 1292.38L3007.68 1292.59L3007.61 1292.66H3007.54ZM3151.51 1307.67C3149.95 1307.67 3148.38 1308.48 3147.16 1309.63C3145.6 1312.01 3146.01 1315.14 3148.32 1317.11C3149.13 1317.92 3150.29 1318.26 3151.44 1318.26C3153 1318.26 3154.56 1317.45 3155.79 1316.29C3157.35 1313.91 3156.94 1310.79 3154.63 1308.82C3153.48 1308.07 3152.66 1307.67 3151.51 1307.67ZM3151.44 1315.54C3150.83 1315.54 3150.42 1315.34 3150.22 1315.14L3150.15 1315.07L3150.08 1315C3148.93 1314.05 3148.59 1312.56 3149.27 1311.33C3150.01 1310.72 3150.83 1310.38 3151.51 1310.38C3151.85 1310.38 3152.12 1310.38 3153 1310.99C3154.09 1311.94 3154.36 1313.37 3153.68 1314.59C3153 1315.2 3152.19 1315.54 3151.44 1315.54ZM2962.86 1307.67C2961.7 1307.67 2960.89 1308.07 2959.73 1308.82C2957.36 1310.38 2956.95 1313.98 2958.58 1316.29C2959.73 1317.85 2961.36 1318.26 2962.92 1318.26C2964.08 1318.26 2964.89 1317.85 2966.05 1317.11C2968.42 1315.54 2968.83 1311.94 2967.2 1309.63C2966.05 1308.48 2964.42 1307.67 2962.86 1307.67ZM2962.92 1315.61C2961.7 1315.61 2961.23 1315.27 2960.82 1314.8C2960.48 1314.19 2960.28 1313.44 2960.41 1312.69C2960.48 1312.28 2960.68 1311.54 2961.29 1311.13C2962.25 1310.45 2962.52 1310.38 2962.86 1310.38C2963.54 1310.38 2964.35 1310.72 2965.1 1311.33C2965.37 1311.88 2965.5 1312.62 2965.44 1313.3C2965.37 1313.71 2965.17 1314.46 2964.55 1314.86C2963.54 1315.54 2963.26 1315.61 2962.92 1315.61ZM3187.02 1343.18C3185.87 1343.18 3185.06 1343.59 3183.9 1344.34C3181.52 1345.9 3181.12 1349.5 3182.75 1351.81C3183.9 1353.37 3185.53 1353.78 3187.09 1353.78C3188.25 1353.78 3189.06 1353.37 3190.22 1352.62C3192.59 1351.06 3193 1347.46 3191.37 1345.15C3190.22 1344 3188.59 1343.18 3187.02 1343.18ZM3187.09 1351.13C3185.87 1351.13 3185.4 1350.79 3184.99 1350.32C3184.65 1349.7 3184.44 1348.96 3184.58 1348.21C3184.65 1347.8 3184.85 1347.06 3185.46 1346.65C3186.41 1345.97 3186.69 1345.9 3187.02 1345.9C3187.7 1345.9 3188.52 1346.24 3189.27 1346.85C3189.54 1347.4 3189.67 1348.14 3189.61 1348.82C3189.54 1349.23 3189.33 1349.98 3188.72 1350.38C3187.7 1351.06 3187.43 1351.13 3187.09 1351.13ZM2927.34 1343.18C2925.78 1343.18 2924.22 1344 2922.99 1345.15C2921.43 1347.53 2921.84 1350.66 2924.15 1352.62C2924.96 1353.44 2926.12 1353.78 2927.27 1353.78C2928.83 1353.78 2930.4 1352.96 2931.62 1351.81C2933.18 1349.43 2932.77 1346.31 2930.46 1344.34C2929.72 1343.59 2928.56 1343.18 2927.34 1343.18ZM2927.27 1351.06C2926.66 1351.06 2926.25 1350.86 2926.05 1350.66L2925.98 1350.59L2925.91 1350.52C2924.76 1349.57 2924.42 1348.07 2925.1 1346.85C2925.85 1346.24 2926.66 1345.9 2927.34 1345.9C2927.95 1345.9 2928.36 1346.11 2928.56 1346.31L2928.63 1346.38L2928.7 1346.44C2929.85 1347.4 2930.19 1348.89 2929.51 1350.11C2928.83 1350.72 2928.02 1351.06 2927.27 1351.06ZM3217.45 1437.52C3214.66 1437.52 3212.29 1439.9 3212.29 1442.68C3212.29 1445.46 3214.66 1447.84 3217.45 1447.84C3220.23 1447.84 3222.61 1445.46 3222.61 1442.68C3222.95 1439.9 3220.57 1437.52 3217.45 1437.52ZM3217.38 1445.12C3216.09 1445.12 3214.94 1443.97 3214.94 1442.68C3214.94 1441.39 3216.16 1440.23 3217.45 1440.23C3218.33 1440.23 3219.08 1440.51 3219.49 1441.05C3219.83 1441.39 3219.89 1441.8 3219.83 1442.27V1442.48V1442.68C3219.83 1443.97 3218.67 1445.12 3217.38 1445.12ZM2896.98 1437.52C2894.2 1437.52 2891.82 1439.9 2891.82 1442.68C2891.82 1445.46 2894.2 1447.84 2896.98 1447.84C2899.77 1447.84 2902.15 1445.46 2902.15 1442.68C2902.08 1439.9 2899.7 1437.52 2896.98 1437.52ZM2896.98 1445.12C2895.69 1445.12 2894.54 1443.97 2894.54 1442.68C2894.54 1441.39 2895.69 1440.23 2896.98 1440.23C2898.27 1440.23 2899.43 1441.39 2899.43 1442.68C2899.43 1443.97 2898.27 1445.12 2896.98 1445.12ZM3209.5 1486.82C3207.13 1486.82 3205.16 1488.39 3204.34 1490.36C3203.53 1493.14 3205.16 1496.26 3207.87 1497.08C3208.28 1497.08 3209.03 1497.49 3209.44 1497.49C3211.81 1497.49 3213.78 1495.93 3214.6 1493.96C3215.41 1491.17 3213.78 1488.05 3211.06 1487.23C3210.73 1486.82 3210.32 1486.82 3209.5 1486.82ZM3209.71 1494.7C3209.64 1494.7 3209.64 1494.7 3209.57 1494.63C3209.23 1494.5 3208.89 1494.43 3208.48 1494.36C3207.81 1494.09 3207.4 1493.48 3207.19 1493.14C3206.85 1492.53 3206.79 1491.78 3206.92 1491.17C3207.4 1490.42 3208.28 1489.54 3209.5 1489.54C3209.57 1489.54 3209.57 1489.54 3209.57 1489.54C3209.57 1489.54 3209.57 1489.54 3209.5 1489.54L3209.64 1489.61L3210.32 1489.81C3211.13 1490.02 3211.54 1490.7 3211.74 1491.04C3212.08 1491.65 3212.15 1492.39 3212.02 1493C3211.68 1493.82 3210.79 1494.63 3209.71 1494.7ZM2904.86 1486.82C2904.45 1486.82 2903.71 1486.82 2903.3 1487.23C2900.52 1488.05 2898.95 1491.17 2899.77 1493.96C2900.58 1496.33 2902.55 1497.49 2904.93 1497.49C2905.34 1497.49 2906.08 1497.49 2906.49 1497.08C2909.28 1496.26 2910.84 1493.14 2910.02 1490.36C2908.8 1488.45 2906.83 1486.82 2904.86 1486.82ZM2904.86 1489.54C2905.54 1489.54 2906.63 1490.22 2907.44 1491.44C2907.65 1492.73 2906.83 1494.16 2905.68 1494.5L2905 1494.7L2904.93 1494.77H2904.86C2902.96 1494.77 2902.48 1493.62 2902.35 1493.14C2902.01 1491.78 2902.82 1490.22 2904.05 1489.81L2904.73 1489.61L2904.86 1489.54ZM3187.02 1531.44C3185.46 1531.44 3183.9 1532.26 3182.68 1533.41C3181.12 1535.79 3181.52 1538.92 3183.83 1540.88C3184.65 1541.7 3185.8 1542.04 3186.96 1542.04C3188.52 1542.04 3190.08 1541.22 3191.3 1540.07C3192.87 1537.69 3192.46 1534.57 3190.15 1532.6C3188.99 1531.85 3187.84 1531.44 3187.02 1531.44ZM3186.96 1539.32C3186.35 1539.32 3185.94 1539.12 3185.73 1538.92L3185.67 1538.85L3185.6 1538.78C3184.44 1537.83 3184.1 1536.33 3184.78 1535.11C3185.53 1534.57 3186.35 1534.16 3187.02 1534.16C3187.16 1534.16 3187.77 1534.3 3188.52 1534.77C3189.61 1535.72 3189.88 1537.15 3189.2 1538.37C3188.52 1538.98 3187.7 1539.32 3186.96 1539.32ZM2927.34 1531.44C2926.19 1531.44 2925.37 1531.85 2924.22 1532.6C2921.84 1534.16 2921.43 1537.76 2923.06 1540.07C2924.22 1541.63 2925.85 1542.04 2927.41 1542.04C2928.56 1542.04 2929.38 1541.63 2930.53 1540.88C2932.91 1539.32 2933.32 1535.72 2931.69 1533.41C2930.87 1532.26 2928.9 1531.44 2927.34 1531.44ZM2927.41 1539.39C2926.19 1539.39 2925.71 1539.05 2925.3 1538.58C2924.96 1537.96 2924.76 1537.22 2924.89 1536.47C2924.96 1536.06 2925.17 1535.32 2925.78 1534.91C2926.73 1534.23 2927 1534.16 2927.34 1534.16C2928.22 1534.16 2929.24 1534.64 2929.44 1534.91C2929.85 1535.52 2929.99 1536.33 2929.92 1537.08C2929.85 1537.49 2929.65 1538.24 2929.04 1538.64C2928.02 1539.32 2927.75 1539.39 2927.41 1539.39ZM3106.89 1589.85C3106.48 1589.85 3105.74 1589.85 3105.33 1590.26C3102.55 1591.07 3100.98 1594.2 3101.8 1596.98C3102.61 1599.36 3104.58 1600.51 3106.96 1600.51C3107.37 1600.51 3108.11 1600.51 3108.52 1600.11C3111.31 1599.29 3112.87 1596.17 3112.05 1593.38C3110.83 1591.07 3108.86 1589.85 3106.89 1589.85ZM3106.89 1597.8C3104.99 1597.8 3104.52 1596.64 3104.38 1596.17C3104.04 1594.81 3104.85 1593.25 3106.08 1592.84L3106.76 1592.64L3106.89 1592.57C3107.91 1592.57 3108.79 1593.25 3109.47 1594.4C3109.74 1595.69 3108.93 1597.19 3107.71 1597.53L3107.03 1597.73L3106.96 1597.8H3106.89ZM3007.88 1589.85C3005.5 1589.85 3003.53 1591.41 3002.72 1593.38C3001.9 1596.17 3003.53 1599.29 3006.25 1600.11C3006.66 1600.11 3007.4 1600.51 3007.81 1600.51C3010.19 1600.51 3012.16 1598.95 3012.97 1596.98C3013.79 1594.2 3012.16 1591.07 3009.44 1590.26C3008.63 1589.85 3008.29 1589.85 3007.88 1589.85ZM3008.08 1597.8C3008.02 1597.8 3008.02 1597.8 3007.95 1597.73C3007.61 1597.59 3007.27 1597.53 3006.86 1597.46C3006.18 1597.19 3005.77 1596.57 3005.57 1596.24C3005.23 1595.62 3005.16 1594.88 3005.3 1594.27C3005.71 1593.38 3006.66 1592.57 3007.88 1592.57C3007.88 1592.57 3007.88 1592.57 3007.95 1592.57C3008.02 1592.57 3008.08 1592.64 3008.22 1592.7L3008.42 1592.84L3008.7 1592.91C3009.51 1593.11 3009.92 1593.79 3010.12 1594.13C3010.46 1594.74 3010.53 1595.49 3010.39 1596.1C3010.05 1596.91 3009.17 1597.73 3008.08 1597.8ZM3057.18 1597.73C3054.4 1597.73 3052.02 1600.11 3052.02 1602.89C3052.02 1605.68 3054.4 1608.05 3057.18 1608.05C3059.97 1608.05 3062.34 1605.68 3062.34 1602.89C3062.34 1600.11 3059.97 1597.73 3057.18 1597.73ZM3057.18 1605.34C3055.89 1605.34 3054.74 1604.18 3054.74 1602.89C3054.74 1601.6 3055.96 1600.45 3057.18 1600.45C3058.47 1600.45 3059.63 1601.6 3059.63 1602.89C3059.63 1604.18 3058.47 1605.34 3057.18 1605.34Z" fill="#C4C9D4"/>
<path d="M1199.39 1700.55C1345.47 1700.55 1463.89 1582.12 1463.89 1436.02C1463.89 1289.93 1345.47 1171.5 1199.39 1171.5C1053.3 1171.5 934.879 1289.93 934.879 1436.02C934.879 1582.12 1053.3 1700.55 1199.39 1700.55Z" stroke="#C4C9D4" stroke-width="4" stroke-miterlimit="10"/>
<path d="M1199.39 1652.94C1319.18 1652.94 1416.29 1555.83 1416.29 1436.02C1416.29 1316.22 1319.18 1219.1 1199.39 1219.1C1079.59 1219.1 982.484 1316.22 982.484 1436.02C982.484 1555.83 1079.59 1652.94 1199.39 1652.94Z" stroke="#C4C9D4" stroke-width="4" stroke-miterlimit="10"/>
<path d="M1343.29 1579.96C1422.77 1500.47 1422.77 1371.6 1343.29 1292.11C1263.81 1212.62 1134.95 1212.62 1055.47 1292.11C975.99 1371.6 975.99 1500.47 1055.47 1579.96C1134.95 1659.44 1263.81 1659.44 1343.29 1579.96Z" stroke="#C4C9D4" stroke-width="4" stroke-miterlimit="10"/>
<path d="M1199.39 1243.49C1305.6 1243.49 1391.91 1329.81 1391.91 1436.02C1391.91 1542.24 1305.6 1628.56 1199.39 1628.56C1093.18 1628.56 1006.86 1542.24 1006.86 1436.02C1006.86 1329.81 1093.18 1243.49 1199.39 1243.49Z" stroke="#C4C9D4" stroke-width="4" stroke-miterlimit="10"/>
<path d="M1199.39 1615.93C1298.74 1615.93 1379.28 1535.38 1379.28 1436.02C1379.28 1336.66 1298.74 1256.12 1199.39 1256.12C1100.04 1256.12 1019.49 1336.66 1019.49 1436.02C1019.49 1535.38 1100.04 1615.93 1199.39 1615.93Z" stroke="#C4C9D4" stroke-width="4" stroke-miterlimit="10"/>
<path d="M1317.89 1556.51C1317.89 1556.98 1317.28 1558.07 1316.67 1558.61C1316.6 1558.68 1315.1 1560.24 1312.18 1562.89C1309.26 1565.54 1304.85 1569.21 1299.15 1573.35C1287.74 1581.63 1279.72 1585.23 1279.66 1585.23H1279.52C1279.25 1585.37 1278.23 1585.78 1277.48 1585.78H1276.8C1275.92 1585.3 1274.9 1584.08 1274.63 1583.54L1217.18 1484.38C1226.07 1481.19 1233.88 1475.55 1239.72 1468.28L1316.46 1553.52L1316.53 1553.58C1316.67 1553.52 1317.89 1554.88 1317.89 1556.51ZM1366.04 1405.94C1366.04 1405.8 1364.75 1396.97 1360.47 1383.59C1356.19 1370.28 1351.84 1362.68 1351.77 1362.61L1351.71 1362.54L1351.64 1362.47C1351.37 1361.93 1350.69 1360.98 1350.01 1360.64C1349.67 1360.57 1349.47 1360.44 1349.26 1360.37C1349.26 1360.3 1349.19 1360.3 1349.19 1360.3C1347.84 1360.3 1346.82 1360.77 1346.68 1360.84H1346.61L1242.31 1407.43C1247.53 1415.04 1250.59 1424.27 1251 1433.78L1362.84 1410.08H1363.05C1363.25 1410.08 1364.81 1409.74 1365.63 1408.45L1365.7 1408.38L1365.76 1408.32C1366.04 1407.91 1366.17 1406.69 1366.04 1405.94ZM1224.38 1269.09C1224.11 1268.75 1222.95 1268.34 1222.2 1268.21H1222.07C1222 1268.14 1213.51 1266.58 1199.39 1266.58C1185.26 1266.58 1176.84 1268.21 1176.7 1268.21H1176.57C1175.82 1268.27 1174.6 1268.75 1174.33 1269.09V1269.16C1173.78 1269.84 1173.65 1271.06 1173.65 1271.87C1173.65 1272.08 1173.65 1272.21 1173.65 1272.35L1185.67 1386.24C1189.61 1385.22 1194.29 1384.27 1199.32 1384.27C1204.34 1384.27 1208.76 1384.82 1213.04 1386.11L1224.99 1272.42V1272.28C1225.12 1272.35 1225.33 1270.58 1224.38 1269.09ZM1051.75 1360.77L1051.41 1360.64C1051 1360.44 1050.33 1360.23 1049.65 1360.23L1049.44 1360.5L1048.63 1360.64C1048.29 1360.71 1047.68 1361.52 1047.34 1362.27L1047.27 1362.4L1047.2 1362.54C1047.2 1362.61 1042.86 1370.21 1038.51 1383.53C1034.16 1396.97 1032.94 1405.8 1032.94 1405.87C1032.87 1406.62 1032.94 1407.84 1033.21 1408.25C1034.03 1409.2 1035.52 1409.88 1036.13 1410.08L1147.84 1433.72C1148.18 1424.21 1151.31 1415.04 1156.47 1407.36L1051.75 1360.77ZM1158.91 1467.94L1082.31 1553.18L1082.24 1553.25L1082.17 1553.31C1082.17 1553.31 1080.95 1554.6 1080.95 1556.17C1080.95 1556.44 1081.16 1556.78 1081.36 1557.18C1081.56 1557.59 1081.9 1558 1082.11 1558.2C1082.17 1558.27 1088.22 1564.65 1099.63 1572.94C1111.04 1581.16 1119.05 1584.76 1119.12 1584.83H1119.25C1119.52 1584.89 1120.54 1585.3 1121.29 1585.3H1121.97C1122.85 1584.83 1123.87 1583.6 1124.14 1583.06L1181.53 1483.97C1172.83 1481.12 1165.16 1475.62 1158.91 1467.94Z" stroke="#C4C9D4" stroke-width="4" stroke-miterlimit="10"/>
<path d="M1251.07 1440.51C1247.4 1440.51 1243.73 1442.14 1241.35 1445.4C1237.28 1450.69 1238.5 1458.44 1244.21 1462.51C1246.24 1464.14 1248.69 1464.96 1251.54 1464.96C1255.21 1464.96 1258.87 1463.33 1261.25 1460.07C1265.33 1454.77 1264.1 1447.03 1258.4 1442.95C1256.43 1441.25 1253.99 1440.51 1251.07 1440.51ZM1231.58 1379.86C1229.13 1379.86 1226.69 1380.67 1224.24 1382.3C1218.94 1386.38 1217.72 1393.71 1221.39 1399.42C1223.83 1402.61 1227.5 1404.31 1231.1 1404.31C1233.54 1404.31 1235.99 1403.49 1238.43 1401.86C1243.73 1397.79 1244.95 1390.45 1241.29 1384.75C1238.91 1381.49 1235.24 1379.86 1231.58 1379.86ZM1167.27 1379.86C1166.04 1379.86 1164.82 1379.86 1163.6 1380.27C1157.08 1382.3 1153.89 1389.23 1155.92 1395.75C1157.55 1401.05 1162.44 1404.31 1167.74 1404.31C1168.96 1404.31 1170.19 1404.31 1171.41 1403.9C1177.93 1401.86 1181.12 1394.94 1179.08 1388.42C1177.38 1383.05 1172.56 1379.86 1167.27 1379.86ZM1199.39 1478.34C1194.09 1478.34 1189.68 1481.53 1187.57 1486.89C1185.53 1493.41 1189.2 1500.34 1195.24 1502.38C1196.47 1502.78 1197.69 1502.78 1198.91 1502.78C1204.21 1502.78 1208.62 1499.59 1210.73 1494.23C1212.76 1487.71 1209.1 1480.78 1203.05 1478.74C1201.83 1478.34 1200.68 1478.34 1199.39 1478.34ZM1147.71 1440.51C1140.78 1440.51 1135.55 1445.8 1135.55 1452.66C1135.55 1459.52 1140.85 1464.82 1147.71 1464.82C1154.57 1464.82 1159.86 1459.52 1159.86 1452.66C1159.86 1445.8 1154.23 1440.51 1147.71 1440.51Z" stroke="#C4C9D4" stroke-width="4" stroke-miterlimit="10"/>
<path d="M1353.68 1433.17C1353.68 1449.81 1351.23 1466.52 1346 1483.23C1340.71 1499.86 1332.56 1514.53 1322.85 1527.98C1320.4 1531.17 1316.73 1532.87 1313.13 1532.87C1311.91 1532.87 1310.69 1532.87 1309.47 1532.46C1308.25 1532.06 1307.43 1531.65 1306.28 1530.83C1305.46 1530.43 1305.05 1529.61 1304.24 1528.8L1303.02 1527.17L1272.05 1483.16C1266.34 1476.23 1264.72 1466.52 1267.57 1457.55C1268.99 1453.07 1271.57 1449.06 1274.77 1445.94C1278.03 1442.82 1281.96 1440.51 1286.24 1439.22L1337.11 1422.1L1338.74 1421.69C1339.55 1421.29 1340.37 1421.29 1341.59 1421.29C1343.22 1421.29 1344.44 1421.69 1345.26 1421.29C1349.94 1422.98 1353.68 1427.81 1353.68 1433.17ZM1326.38 1346.85C1317.01 1333.41 1304.78 1321.25 1290.93 1311.06C1276.74 1300.87 1261.66 1293.13 1245.77 1288.31C1243.73 1287.9 1242.51 1287.9 1241.29 1287.9C1237.21 1287.9 1233.61 1289.94 1231.51 1292.79C1230.69 1293.61 1230.29 1294.83 1229.88 1295.98C1229.47 1296.8 1229.47 1298.02 1229.47 1298.84V1300.87L1230.29 1354.59C1230.29 1359.08 1231.3 1363.56 1233.27 1367.63C1235.24 1371.71 1238.16 1375.31 1242.1 1378.23C1246.99 1381.9 1253.1 1383.53 1258.74 1383.53C1261.93 1383.53 1264.85 1383.12 1268.11 1381.9L1319.38 1366L1321.01 1365.6C1321.83 1365.19 1322.64 1364.78 1323.46 1363.97C1324.68 1363.15 1325.49 1362.34 1326.31 1361.11C1329.23 1357.04 1329.64 1351.33 1326.38 1346.85ZM1169.71 1295.98C1169.3 1294.76 1168.9 1293.54 1168.08 1292.79C1165.23 1289.94 1161.56 1287.9 1157.49 1287.9C1156.26 1287.9 1155.04 1287.9 1153.82 1288.31C1137.93 1293.2 1122.85 1300.47 1108.66 1311.06C1094.47 1321.25 1082.58 1333.47 1073.21 1346.85C1070.02 1351.33 1070.36 1357.04 1073.21 1361.05C1074.03 1361.86 1074.84 1363.08 1076.06 1363.9C1076.88 1364.31 1077.69 1365.12 1078.51 1365.53L1080.14 1365.94L1131.41 1381.83C1132.84 1382.44 1134.33 1382.78 1135.96 1383.12C1137.59 1383.39 1139.15 1383.46 1140.78 1383.46C1146.48 1383.46 1152.19 1381.83 1157.42 1378.16C1165.09 1372.46 1169.23 1363.49 1169.23 1354.53L1170.05 1300.81V1298.77C1170.12 1298.02 1169.71 1296.8 1169.71 1295.98ZM1131.48 1457.96C1128.62 1449 1121.29 1442.07 1112.8 1439.69L1061.94 1422.58L1060.31 1422.17C1059.49 1421.76 1058.27 1421.35 1057.46 1421.35C1056.23 1421.35 1055.01 1421.76 1053.79 1421.76C1048.9 1423.39 1045.23 1427.87 1045.23 1433.58C1044.82 1450.22 1047.27 1466.99 1052.91 1483.63C1058.2 1500.27 1066.35 1515.35 1076.06 1528.39C1078.51 1531.58 1082.17 1533.28 1085.84 1533.28C1087.06 1533.28 1088.29 1533.28 1089.51 1532.87C1090.73 1532.46 1091.95 1532.06 1092.7 1531.24C1093.52 1530.83 1094.33 1530.02 1094.74 1529.2L1095.96 1527.57L1126.93 1483.56C1130.59 1478.54 1132.7 1472.43 1132.7 1466.18C1132.7 1463.53 1132.29 1460.75 1131.48 1457.96ZM1257.18 1567.03C1256.77 1566.22 1256.36 1564.99 1255.95 1564.18L1254.73 1562.55L1222.61 1519.42C1220.17 1515.76 1216.77 1512.7 1212.9 1510.59C1208.89 1508.42 1204.34 1507.2 1199.45 1507.2C1189.74 1507.2 1181.53 1512.09 1176.3 1519.36L1144.18 1562.48L1142.95 1564.11C1142.55 1564.93 1142.14 1565.74 1141.73 1566.96C1141.32 1568.19 1141.32 1569.41 1141.32 1570.63C1141.32 1575.93 1144.52 1580.34 1149.88 1582.45C1165.36 1587.75 1182.48 1590.6 1199.52 1590.6C1216.64 1590.6 1233.68 1587.75 1249.16 1582.45C1254.46 1580.82 1257.72 1575.93 1257.72 1570.63C1257.58 1569.54 1257.58 1568.25 1257.18 1567.03Z" stroke="#C4C9D4" stroke-width="4" stroke-miterlimit="10"/>
<path d="M1199.39 1469.78C1218.03 1469.78 1233.14 1454.67 1233.14 1436.02C1233.14 1417.38 1218.03 1402.27 1199.39 1402.27C1180.75 1402.27 1165.64 1417.38 1165.64 1436.02C1165.64 1454.67 1180.75 1469.78 1199.39 1469.78Z" stroke="#C4C9D4" stroke-width="4" stroke-miterlimit="10"/>
<path d="M1250.66 1273.16C1248.21 1273.16 1246.18 1274.79 1245.36 1276.83C1244.55 1279.68 1246.18 1282.94 1249.03 1283.76C1249.44 1283.76 1250.25 1284.17 1250.66 1284.17C1253.1 1284.17 1255.14 1282.54 1255.95 1280.5C1256.77 1277.65 1255.14 1274.39 1252.29 1273.57C1251.47 1273.16 1251.07 1273.16 1250.66 1273.16ZM1250.86 1281.38C1250.79 1281.38 1250.79 1281.38 1250.73 1281.31C1250.39 1281.18 1250.05 1281.11 1249.57 1281.04C1248.89 1280.77 1248.42 1280.16 1248.21 1279.75C1247.87 1279.14 1247.81 1278.33 1247.94 1277.71C1248.35 1276.83 1249.37 1275.95 1250.59 1275.95C1250.66 1275.95 1250.66 1275.95 1250.66 1275.95C1250.73 1275.95 1250.73 1275.95 1250.73 1275.95C1250.73 1275.95 1250.73 1275.95 1250.66 1275.95C1250.73 1275.95 1250.79 1276.02 1250.93 1276.08L1251.13 1276.22L1251.4 1276.29C1252.22 1276.49 1252.7 1277.17 1252.9 1277.58C1253.24 1278.19 1253.31 1279.01 1253.17 1279.62C1252.9 1280.5 1252.02 1281.31 1250.86 1281.38ZM1148.11 1273.16C1147.71 1273.16 1146.89 1273.16 1146.48 1273.57C1143.63 1274.39 1142 1277.65 1142.82 1280.5C1143.63 1282.94 1145.67 1284.17 1148.11 1284.17C1148.52 1284.17 1149.34 1284.17 1149.74 1283.76C1152.6 1282.94 1154.23 1279.68 1153.41 1276.83C1152.6 1274.79 1150.56 1273.16 1148.11 1273.16ZM1148.18 1281.31C1146.21 1281.31 1145.74 1280.09 1145.6 1279.62C1145.26 1278.19 1146.08 1276.63 1147.37 1276.15L1148.05 1275.95H1148.11C1149.4 1275.95 1150.36 1276.83 1150.76 1277.71C1151.03 1279.14 1150.29 1280.64 1149 1280.97L1148.32 1281.18L1148.25 1281.25H1148.18V1281.31ZM1296.7 1296.8C1295.07 1296.8 1293.51 1297.61 1292.22 1298.84C1290.59 1301.28 1291 1304.54 1293.44 1306.51C1294.26 1307.33 1295.48 1307.73 1296.63 1307.73C1298.26 1307.73 1299.82 1306.92 1301.11 1305.7C1302.74 1303.25 1302.34 1299.99 1299.89 1298.02C1298.74 1297.21 1297.85 1296.8 1296.7 1296.8ZM1296.63 1304.88C1296.02 1304.88 1295.61 1304.68 1295.34 1304.47L1295.27 1304.41L1295.21 1304.34C1293.98 1303.39 1293.64 1301.82 1294.39 1300.53C1295.14 1299.92 1296.02 1299.58 1296.7 1299.58C1297.04 1299.58 1297.31 1299.58 1298.26 1300.19C1299.42 1301.15 1299.69 1302.64 1298.94 1303.93C1298.19 1304.54 1297.38 1304.88 1296.63 1304.88ZM1102.14 1296.8C1100.92 1296.8 1100.1 1297.21 1098.95 1298.02C1096.5 1299.65 1096.1 1303.32 1097.73 1305.7C1098.95 1307.33 1100.58 1307.73 1102.21 1307.73C1103.43 1307.73 1104.25 1307.33 1105.4 1306.51C1107.84 1304.88 1108.25 1301.21 1106.62 1298.84C1105.4 1297.61 1103.77 1296.8 1102.14 1296.8ZM1102.21 1304.95C1100.92 1304.95 1100.44 1304.61 1100.03 1304.13C1099.7 1303.52 1099.49 1302.71 1099.63 1301.96C1099.7 1301.55 1099.9 1300.74 1100.51 1300.33C1101.46 1299.65 1101.8 1299.58 1102.14 1299.58C1102.82 1299.58 1103.7 1299.92 1104.45 1300.53C1104.72 1301.08 1104.86 1301.89 1104.79 1302.57C1104.72 1302.98 1104.52 1303.79 1103.91 1304.2C1102.82 1304.88 1102.55 1304.95 1102.21 1304.95ZM1333.3 1333.4C1332.08 1333.4 1331.27 1333.81 1330.11 1334.63C1327.67 1336.26 1327.26 1339.92 1328.89 1342.3C1330.11 1343.93 1331.74 1344.34 1333.37 1344.34C1334.59 1344.34 1335.41 1343.93 1336.56 1343.12C1339.01 1341.49 1339.42 1337.82 1337.79 1335.44C1336.56 1334.29 1334.93 1333.4 1333.3 1333.4ZM1333.37 1341.62C1332.08 1341.62 1331.61 1341.28 1331.2 1340.81C1330.86 1340.2 1330.66 1339.38 1330.79 1338.63C1330.86 1338.23 1331.06 1337.41 1331.67 1337C1332.62 1336.33 1332.96 1336.26 1333.3 1336.26C1333.98 1336.26 1334.87 1336.6 1335.61 1337.21C1335.88 1337.75 1336.02 1338.57 1335.95 1339.25C1335.88 1339.65 1335.68 1340.47 1335.07 1340.88C1333.98 1341.55 1333.71 1341.62 1333.37 1341.62ZM1065.47 1333.4C1063.84 1333.4 1062.28 1334.22 1060.99 1335.44C1059.36 1337.89 1059.76 1341.15 1062.21 1343.12C1063.02 1343.93 1064.25 1344.34 1065.4 1344.34C1067.03 1344.34 1068.59 1343.52 1069.88 1342.3C1071.51 1339.86 1071.11 1336.6 1068.66 1334.63C1067.98 1333.81 1066.76 1333.4 1065.47 1333.4ZM1065.4 1341.55C1064.79 1341.55 1064.38 1341.35 1064.11 1341.15L1064.04 1341.08L1063.98 1341.01C1062.75 1340.06 1062.41 1338.5 1063.16 1337.21C1063.91 1336.6 1064.79 1336.26 1065.47 1336.26C1066.08 1336.26 1066.49 1336.46 1066.76 1336.66L1066.83 1336.73L1066.9 1336.8C1068.12 1337.75 1068.46 1339.31 1067.71 1340.6C1067.03 1341.22 1066.22 1341.55 1065.4 1341.55ZM1364.68 1430.73C1361.83 1430.73 1359.38 1433.17 1359.38 1436.02C1359.38 1438.88 1361.83 1441.32 1364.68 1441.32C1367.53 1441.32 1369.97 1438.88 1369.97 1436.02C1370.38 1433.17 1367.87 1430.73 1364.68 1430.73ZM1364.61 1438.54C1363.25 1438.54 1362.1 1437.31 1362.1 1436.02C1362.1 1434.67 1363.39 1433.51 1364.68 1433.51C1365.56 1433.51 1366.38 1433.78 1366.78 1434.33C1367.12 1434.67 1367.19 1435.07 1367.12 1435.62V1435.82V1436.02C1367.12 1437.38 1365.97 1438.54 1364.61 1438.54ZM1034.23 1430.73C1031.38 1430.73 1028.93 1433.17 1028.93 1436.02C1028.93 1438.88 1031.38 1441.32 1034.23 1441.32C1037.08 1441.32 1039.53 1438.88 1039.53 1436.02C1039.46 1433.17 1037.02 1430.73 1034.23 1430.73ZM1034.23 1438.54C1032.87 1438.54 1031.72 1437.31 1031.72 1436.02C1031.72 1434.67 1032.94 1433.51 1034.23 1433.51C1035.59 1433.51 1036.74 1434.73 1036.74 1436.02C1036.74 1437.38 1035.52 1438.54 1034.23 1438.54ZM1356.46 1481.53C1354.02 1481.53 1351.98 1483.16 1351.16 1485.19C1350.35 1488.05 1351.98 1491.31 1354.83 1492.12C1355.24 1492.12 1356.05 1492.53 1356.46 1492.53C1358.91 1492.53 1360.94 1490.9 1361.76 1488.86C1362.57 1486.01 1360.94 1482.75 1358.09 1481.93C1357.75 1481.53 1357.34 1481.53 1356.46 1481.53ZM1356.66 1489.68C1356.6 1489.68 1356.6 1489.68 1356.53 1489.61C1356.19 1489.47 1355.85 1489.41 1355.37 1489.34C1354.69 1489.07 1354.22 1488.45 1354.02 1488.05C1353.68 1487.44 1353.61 1486.62 1353.74 1486.01C1354.22 1485.26 1355.17 1484.31 1356.39 1484.31C1356.46 1484.31 1356.46 1484.31 1356.46 1484.31C1356.46 1484.31 1356.46 1484.31 1356.39 1484.31L1356.53 1484.38L1357.21 1484.58C1358.02 1484.79 1358.5 1485.47 1358.7 1485.87C1359.04 1486.48 1359.11 1487.3 1358.97 1487.91C1358.7 1488.73 1357.82 1489.61 1356.66 1489.68ZM1042.31 1481.53C1041.9 1481.53 1041.09 1481.53 1040.68 1481.93C1037.83 1482.75 1036.2 1486.01 1037.02 1488.86C1037.83 1491.31 1039.87 1492.53 1042.31 1492.53C1042.72 1492.53 1043.53 1492.53 1043.94 1492.12C1046.79 1491.31 1048.42 1488.05 1047.61 1485.19C1046.39 1483.23 1044.35 1481.53 1042.31 1481.53ZM1042.31 1484.38C1042.99 1484.38 1044.15 1485.06 1044.96 1486.35C1045.16 1487.71 1044.35 1489.13 1043.13 1489.47L1042.45 1489.68L1042.38 1489.74H1042.31C1040.34 1489.74 1039.87 1488.52 1039.73 1488.05C1039.39 1486.62 1040.21 1485.06 1041.5 1484.58L1042.18 1484.38H1042.31ZM1333.3 1527.57C1331.67 1527.57 1330.11 1528.39 1328.82 1529.61C1327.19 1532.06 1327.6 1535.32 1330.04 1537.29C1330.86 1538.1 1332.08 1538.51 1333.24 1538.51C1334.87 1538.51 1336.43 1537.69 1337.72 1536.47C1339.35 1534.03 1338.94 1530.77 1336.5 1528.8C1335.34 1527.98 1334.12 1527.57 1333.3 1527.57ZM1333.24 1535.66C1332.62 1535.66 1332.22 1535.45 1331.95 1535.25L1331.88 1535.18L1331.81 1535.11C1330.59 1534.16 1330.25 1532.6 1330.99 1531.31C1331.74 1530.77 1332.62 1530.36 1333.3 1530.36C1333.44 1530.36 1334.05 1530.49 1334.87 1530.97C1336.02 1531.92 1336.29 1533.41 1335.54 1534.7C1334.87 1535.32 1333.98 1535.66 1333.24 1535.66ZM1065.47 1527.57C1064.25 1527.57 1063.43 1527.98 1062.28 1528.8C1059.83 1530.43 1059.43 1534.09 1061.05 1536.47C1062.28 1538.1 1063.91 1538.51 1065.54 1538.51C1066.76 1538.51 1067.57 1538.1 1068.73 1537.29C1071.17 1535.66 1071.58 1531.99 1069.95 1529.61C1069.14 1528.39 1067.1 1527.57 1065.47 1527.57ZM1065.6 1535.72C1064.31 1535.72 1063.84 1535.38 1063.43 1534.91C1063.09 1534.3 1062.89 1533.48 1063.02 1532.73C1063.09 1532.33 1063.3 1531.51 1063.91 1531.11C1064.86 1530.43 1065.2 1530.36 1065.54 1530.36C1066.42 1530.36 1067.51 1530.83 1067.71 1531.11C1068.12 1531.72 1068.25 1532.6 1068.19 1533.35C1068.12 1533.75 1067.91 1534.57 1067.3 1534.98C1066.22 1535.66 1065.94 1535.72 1065.6 1535.72ZM1250.66 1587.81C1250.25 1587.81 1249.44 1587.81 1249.03 1588.22C1246.18 1589.04 1244.55 1592.3 1245.36 1595.15C1246.18 1597.59 1248.21 1598.82 1250.66 1598.82C1251.07 1598.82 1251.88 1598.82 1252.29 1598.41C1255.14 1597.59 1256.77 1594.33 1255.95 1591.48C1254.73 1589.04 1252.7 1587.81 1250.66 1587.81ZM1250.66 1595.96C1248.69 1595.96 1248.21 1594.74 1248.08 1594.27C1247.74 1592.84 1248.55 1591.28 1249.84 1590.8L1250.52 1590.6L1250.66 1590.53C1251.68 1590.53 1252.63 1591.21 1253.31 1592.43C1253.58 1593.79 1252.76 1595.28 1251.47 1595.62L1250.79 1595.83L1250.73 1595.9H1250.66V1595.96ZM1148.59 1587.81C1146.15 1587.81 1144.11 1589.44 1143.29 1591.48C1142.48 1594.33 1144.11 1597.59 1146.96 1598.41C1147.37 1598.41 1148.18 1598.82 1148.59 1598.82C1151.03 1598.82 1153.07 1597.19 1153.89 1595.15C1154.7 1592.3 1153.07 1589.04 1150.22 1588.22C1149.34 1587.81 1149 1587.81 1148.59 1587.81ZM1148.79 1595.96C1148.73 1595.96 1148.73 1595.96 1148.66 1595.9C1148.32 1595.76 1147.98 1595.69 1147.5 1595.62C1146.82 1595.35 1146.35 1594.74 1146.15 1594.33C1145.81 1593.72 1145.74 1592.91 1145.87 1592.3C1146.28 1591.41 1147.3 1590.53 1148.52 1590.53C1148.52 1590.53 1148.52 1590.53 1148.59 1590.53C1148.66 1590.53 1148.73 1590.6 1148.86 1590.67L1149.07 1590.8L1149.34 1590.87C1150.15 1591.07 1150.63 1591.75 1150.83 1592.16C1151.17 1592.77 1151.24 1593.59 1151.1 1594.2C1150.83 1595.08 1149.88 1595.9 1148.79 1595.96ZM1199.39 1595.9C1196.53 1595.9 1194.09 1598.34 1194.09 1601.19C1194.09 1604.05 1196.53 1606.49 1199.39 1606.49C1202.24 1606.49 1204.68 1604.05 1204.68 1601.19C1204.75 1598.34 1202.31 1595.9 1199.39 1595.9ZM1199.39 1603.77C1198.03 1603.77 1196.87 1602.55 1196.87 1601.26C1196.87 1599.9 1198.16 1598.75 1199.39 1598.75C1200.74 1598.75 1201.9 1599.97 1201.9 1601.26C1201.9 1602.55 1200.74 1603.77 1199.39 1603.77Z" fill="#C4C9D4"/>
</g>
<defs>
<clipPath id="clip0">
<rect width="3206" height="1052" fill="white" transform="translate(497 674)"/>
</clipPath>
</defs>
</svg>
