<svg width="4721" height="1549" viewBox="0 0 4721 1549" fill="none" xmlns="http://www.w3.org/2000/svg">
<path d="M554.6 1271.63C463.3 1270.13 130.2 1213.03 89.7 1208.53C89.7 1208.53 60.7 1192.13 44.3 1166.23C27.9 1140.43 2 875.13 2 875.13C2 875.13 2 849.83 10.3 833.93C19.4 816.53 65.7 794.53 65.7 794.53C69.9 767.83 135.6 697.63 151.1 687.33C153.5 666.13 200 646.83 220 635.93C277 604.93 327.6 577.03 291.7 516.23C291.7 516.23 259.1 444.23 239 411.63C213.1 362.43 232.3 340.83 298 335.43C381.8 335.23 447.8 370.43 490 404.83C490 404.83 499.4 410.33 507.5 409.83C580 401.83 652.9 392.33 726.1 385.83C779.7 377.63 811.9 357.13 852.9 339.43C991.6 279.63 1184.8 207.63 1328.2 160.23C1328.2 160.23 1449.2 123.93 1468 115.83C1486.8 107.73 1486 76.3303 1507.3 71.5303C1723.2 22.5303 1957.5 5.23026 2149.7 2.43026C2374.6 -0.869738 2541.8 15.6303 2554.3 24.0303C2604.4 57.7303 3092.9 432.73 3104.3 439.03C3115.7 445.33 3157 462.23 3181.1 464.93C3205.2 467.63 3707.3 522.73 3952.2 561.93C4050 576.33 4251.8 611.33 4347.2 635.73C4389.8 658.53 4522.8 805.93 4553 829.03C4581.2 852.03 4649 888.23 4664.7 903.63C4680.4 919.03 4704.4 960.53 4704.4 960.53C4704.4 960.53 4715.1 979.33 4716.1 988.73C4719.3 1016.33 4711.4 1102.33 4710.4 1122.83C4710.4 1122.83 4695.3 1251.73 4699.7 1264.23C4704.1 1276.73 4708 1278.83 4713.3 1280.93C4737.1 1303.13 4677.5 1335.43 4613.9 1343.03C4550.7 1350.53 4351.3 1373.73 4223.4 1379.03C4211.9 1372.53 4211.9 1350.33 4218.7 1346.93C4265 1156.33 4193.7 877.43 4009.5 791.53C3596.5 599.03 3302.6 877.63 3296.8 1270.53C3296 1324.53 3290.4 1331.23 3277.1 1337.43C3263.8 1343.73 3238.3 1344.93 3190.3 1334.63C3142.3 1324.33 2974.9 1323.13 2360.3 1308.83C1754.5 1307.83 2013.3 1280.83 1621.5 1320.83C1569.6 1332.13 1509.4 1338.73 1501.5 1330.73C1489 1221.93 1505.9 1169.13 1476.5 1043.53C1396.7 812.83 1214.1 700.73 1035.1 700.73C793.2 700.73 598.3 860.03 589.4 1162.23C589.4 1162.23 585.4 1238.43 592.9 1248.33C603.9 1262.83 621.5 1258.53 623.6 1264.23C626.9 1272.53 563.5 1271.73 554.6 1271.63Z" stroke="black" stroke-width="4" stroke-miterlimit="10"/>
<path d="M65.8999 794.53L316.7 803.93C316.7 803.93 314 783.23 309.7 771.03C305.4 758.93 307 733.23 275.3 710.73C275.3 710.73 260.8 702.93 244 700.53C227.2 698.23 139.4 697.13 139.4 697.13" stroke="black" stroke-width="4" stroke-miterlimit="10"/>
<path d="M709 826.13L316.7 803.83" stroke="black" stroke-width="4" stroke-miterlimit="10"/>
<path d="M3302.7 1195.63C3302.7 1195.63 3286 1203.73 3267.2 1203.73C3248.4 1203.73 3212.9 1195.43 3187.9 1192.23C3162.9 1189.13 3138.1 1186.53 3073.1 1183.93C3008.1 1181.33 2678.4 1174.23 2678.4 1174.23L2306.9 1166.43L2015.5 1158.13C2015.5 1158.13 1855.3 1149.03 1734.8 1150.53C1614.3 1152.03 1493 1155.13 1493 1155.13" stroke="black" stroke-width="4" stroke-miterlimit="10"/>
<path d="M2840.5 487.73H2860C2860 487.73 2864.7 494.03 2885.8 502.63C2906.9 511.23 2936.8 510.43 2936.8 510.43C2936.8 510.43 3083 512.73 3122.8 563.23C3199.8 661.23 3134.7 1051.83 3126.2 1186.63" stroke="black" stroke-width="4" stroke-miterlimit="10"/>
<path d="M2609.8 465.73H2078.5L1513.6 457.93H1513.2H1512.8C1512.7 457.93 1500.7 458.13 1480.9 458.13C1431.3 458.13 1335.1 456.73 1248 447.63C1200.1 442.63 1161.5 435.93 1133.2 427.73C1091.7 415.73 1086 404.43 1085.5 403.13C1084.6 400.83 1083.9 397.63 1086.6 391.93C1090.4 383.73 1101.3 369.83 1131 350.23C1151.9 336.53 1179.1 322.03 1211.7 307.43C1268 282.03 1321.4 264.63 1321.9 264.53L1322.2 264.43L1322.5 264.33C1323.1 264.13 1382.6 242.73 1464.2 218.03C1539.4 195.33 1649.1 165.13 1744.9 150.33C1929.2 121.93 2193.5 113.13 2196.2 113.03C2196.5 113.03 2222.3 112.23 2258.4 112.23C2292.8 112.23 2343.3 113.03 2388.7 116.63C2462.9 123.93 2471 115.13 2586 236.93C2623.4 276.43 2662.4 324.93 2678.2 344.93" stroke="black" stroke-width="4" stroke-miterlimit="10"/>
<path d="M2720.1 339.03L2730.2 349.43C2718.6 344.53 2707.3 341.83 2696.6 342.23C2690.3 342.43 2684.3 343.33 2678.5 344.83C2631.5 356.63 2601.3 406.03 2602.7 440.83C2602.7 440.83 2599.6 452.83 2609.8 465.83C2613.1 470.03 2617.9 474.43 2624.6 478.43C2633 483.53 2647.2 486.33 2662.7 487.83H2078.3L1513.3 480.03C1513.3 480.03 1501.2 480.23 1481 480.23C1382.5 480.23 1090.9 474.83 1065.2 411.53C1034.1 334.73 1315.2 243.63 1315.2 243.63C1315.2 243.63 1553.9 157.53 1741.7 128.63C1929.5 99.6302 2195.6 91.0302 2195.6 91.0302C2195.6 91.0302 2221.6 90.2302 2258.5 90.2302C2334.3 90.2302 2456.1 93.7302 2494.5 115.33C2551.8 147.23 2720.1 339.03 2720.1 339.03Z" stroke="black" stroke-width="4" stroke-miterlimit="10"/>
<path d="M2840.5 487.73C2840.9 482.43 2841.1 477.03 2840.6 470.43L2860 487.73H2840.5Z" stroke="black" stroke-width="4" stroke-miterlimit="10"/>
<path d="M1804.4 461.93L1703 157.53" stroke="black" stroke-width="4" stroke-miterlimit="10"/>
<path d="M1640.2 170.73L1739.5 461.03" stroke="black" stroke-width="4" stroke-miterlimit="10"/>
<path d="M2525.2 465.73L2396.1 117.13" stroke="black" stroke-width="4" stroke-miterlimit="10"/>
<path d="M2367.2 114.93L2499.4 465.73" stroke="black" stroke-width="4" stroke-miterlimit="10"/>
<path d="M1764 483.33C1764 483.33 1749.4 512.73 1749.4 550.53C1749.4 593.33 1778.6 680.93 1778.6 680.93C1778.6 680.93 1826.1 827.53 1849.6 881.23C1873.1 934.93 1916.9 1061.73 1964.9 1090.43C2012.9 1119.13 2128.2 1114.93 2250.8 1117.53C2373.4 1120.13 2815.8 1130.03 2815.8 1130.03L3131.5 1139.63" stroke="black" stroke-width="4" stroke-miterlimit="10"/>
<path d="M4147.5 912.53H4533.4C4533.4 912.53 4642.1 909.13 4648.2 903.83C4654.3 898.53 4649.3 891.63 4649.3 891.63" stroke="black" stroke-width="4" stroke-miterlimit="10"/>
<path d="M4502.9 1001.13C4537.8 1001.13 4632.5 1001.83 4661.6 1001.83C4691.5 1001.83 4694.6 998.13 4697.7 1007.53C4700.8 1016.93 4699.3 1067.03 4690.4 1076.43C4681.5 1085.83 4634.8 1084.73 4634.8 1084.73C4634.8 1084.73 4545.3 1084.73 4520.8 1084.73C4503.7 1084.73 4481.1 1059.33 4480.1 1032.43C4479.1 1005.13 4484.5 1001.13 4502.9 1001.13Z" stroke="black" stroke-width="4" stroke-miterlimit="10"/>
<path d="M2840.5 487.73C2839.9 494.23 2838.9 500.63 2838.3 508.83C2836.7 528.43 2799.9 542.13 2766.3 540.13C2732.6 538.23 2716.2 532.33 2709.2 518.23C2702.2 504.13 2739.7 487.73 2739.7 487.73H2662.8C2647.3 486.23 2633.1 483.43 2624.7 478.33C2618 474.23 2613.2 469.93 2609.9 465.73C2599.7 452.73 2602.8 440.73 2602.8 440.73C2601.4 405.93 2631.6 356.53 2678.6 344.73C2684.4 343.23 2690.4 342.43 2696.7 342.13C2707.3 341.73 2718.7 344.53 2730.3 349.33C2780.8 370.63 2834.2 432.63 2838.4 454.03C2839.6 460.33 2840.4 465.73 2840.7 470.43C2841.1 477.03 2841 482.43 2840.5 487.73Z" stroke="black" stroke-width="4" stroke-miterlimit="10" stroke-linejoin="round"/>
<path d="M2739.7 487.73C2739.7 487.73 2764.4 498.33 2789.8 496.33C2815.2 494.33 2840.6 487.73 2840.6 487.73" stroke="black" stroke-width="4" stroke-miterlimit="10"/>
<path d="M760.5 378.23C738 389.43 729.4 430.13 729.4 430.13" stroke="black" stroke-width="4" stroke-miterlimit="10"/>
<path d="M203.1 644.63C305.8 582.43 1187 256.83 1187 256.83C1187 256.83 1411.6 178.53 1605.7 140.23C1799.8 101.93 1930.7 91.8303 2078.7 84.4303C2440.6 66.4303 2480.8 91.7302 2546.3 156.33" stroke="black" stroke-width="4" stroke-miterlimit="10"/>
<path d="M2554.4 23.8303C2497.5 37.8303 2523.5 91.1303 2546.2 114.93L2821 410.93C2821 410.93 2871.8 472.63 2911.4 481.03C2984.6 490.73 3097.9 469.43 3119.5 447.73" stroke="black" stroke-width="4" stroke-miterlimit="10"/>
<path d="M2575.1 36.9302C2520.1 59.1302 2537.5 88.3302 2560.2 112.03L2827 399.23C2827 399.23 2877 458.33 2916.6 466.63C2989.8 476.33 3078.9 458.13 3104.6 438.73" stroke="black" stroke-width="4" stroke-miterlimit="10"/>
<path d="M1983.9 639.43C1983.3 640.33 1982.6 641.23 1981.8 642.13C1970.7 655.23 1949.5 667.13 1916.2 666.83C1891.8 666.63 1873.9 659.43 1863.9 645.63C1864.1 638.63 1857.7 625.13 1926.2 624.63C1984.3 624.23 1986.4 634.43 1983.9 639.43Z" stroke="black" stroke-width="4" stroke-miterlimit="10"/>
<path d="M1984.8 597.93C1978.8 600.03 1986.7 608.73 1920.3 602.73C1862.4 597.53 1867.1 591.53 1866.6 587.23C1876.1 577.53 1891.3 570.93 1912.8 570.83C1950.1 570.63 1974.4 581.63 1984.8 597.93Z" stroke="black" stroke-width="4" stroke-miterlimit="10"/>
<path d="M2049.4 620.03C2049.4 630.23 2016.8 637.53 1981.8 642.13C1982 641.93 1983.1 640.93 1983.9 639.43C1986.4 634.43 1984.3 624.23 1926.2 624.63C1857.6 625.13 1864 638.53 1863.9 645.63C1863.9 646.23 1863.8 646.83 1863.7 647.33C1862.9 649.73 1856 649.53 1850.9 649.63C1810.6 650.43 1784.5 647.73 1784.5 618.23C1784.5 596.63 1802 586.43 1826.5 583.93C1840 582.53 1863.6 583.53 1865.7 585.23C1866.5 585.83 1866.7 586.53 1866.8 587.33C1867.2 591.63 1862.5 597.53 1920.5 602.83C1986.9 608.83 1979 600.13 1985 598.03C1986.6 597.43 1989.1 597.43 1994.3 598.13C2027.6 603.03 2049.4 610.13 2049.4 620.03Z" stroke="black" stroke-width="4" stroke-miterlimit="10"/>
<path d="M262.2 341.23C254.4 352.33 264.7 364.53 264.7 364.53C264.7 364.53 287.7 387.73 318.4 411.53C349.1 435.33 409.3 473.83 461 470.13C461 470.13 527.5 472.33 733.5 416.03" stroke="black" stroke-width="4" stroke-miterlimit="10"/>
<path d="M507.5 409.83C378.9 425.03 384.7 452.43 384.7 452.43" stroke="black" stroke-width="4" stroke-miterlimit="10"/>
<path d="M4223.5 1378.83C4223.5 1378.83 4164.8 1346.43 4159.3 1341.03C4153.8 1335.53 4166.3 1323.03 4147.5 1307.13C4140.1 1300.93 4128.1 1296.33 4111.7 1293.03" stroke="black" stroke-width="4" stroke-miterlimit="10"/>
<path d="M3428.3 1292.73C3332.9 1297.53 3295.2 1303.93 3295.2 1303.93" stroke="black" stroke-width="4" stroke-miterlimit="10"/>
<path d="M1405.4 1247.53L1496.9 1256.63" stroke="black" stroke-width="4" stroke-miterlimit="10"/>
<path d="M623.7 1264.03C623.7 1249.53 637.6 1252.33 637.6 1252.33H665.4" stroke="black" stroke-width="4" stroke-miterlimit="10"/>
<path d="M1446.5 123.53C1446.5 123.53 1421.6 136.43 1242 202.53C1062.4 268.63 882.8 346.03 841.3 361.73C799.8 377.43 790.2 367.83 790.2 367.83" stroke="black" stroke-width="4" stroke-miterlimit="10"/>
<path d="M3369 486.23C3369 486.23 3365.4 476.13 3349.2 474.03C3333 471.93 3328.3 480.13 3328.3 480.13" stroke="black" stroke-width="4" stroke-miterlimit="10"/>
<path d="M3181.1 464.93C3181.1 464.93 3171.3 455.23 3156.7 451.13C3142.1 446.93 3129.1 450.03 3129.1 450.03" stroke="black" stroke-width="4" stroke-miterlimit="10"/>
<path d="M3166.1 454.83C3172.2 440.63 3162 434.23 3173.3 438.63C3228.3 391.63 3076 412.53 3053.6 401.43M3077.7 419.43C3092.1 420.83 3110.7 424.33 3122.6 433.03L3145.9 431.33C3138.6 433.43 3136.3 438.63 3136.3 438.63C3125.9 436.83 3119.5 447.83 3119.5 447.83L3077.7 419.43Z" stroke="black" stroke-width="4" stroke-miterlimit="10" stroke-linejoin="round"/>
<path d="M4494.2 772.23C4494.2 772.23 4481.4 741.73 4440.9 702.63C4374.8 638.63 4357.8 642.63 4357.8 642.63" stroke="black" stroke-width="4" stroke-miterlimit="10" stroke-linejoin="round"/>
<path d="M3769.9 1509.53C3978.5 1509.53 4147.6 1340.43 4147.6 1131.83C4147.6 923.232 3978.5 754.13 3769.9 754.13C3561.3 754.13 3392.2 923.232 3392.2 1131.83C3392.2 1340.43 3561.3 1509.53 3769.9 1509.53Z" stroke="black" stroke-width="4" stroke-miterlimit="10"/>
<path d="M3770 1441.53C3941.04 1441.53 4079.7 1302.87 4079.7 1131.83C4079.7 960.788 3941.04 822.13 3770 822.13C3598.96 822.13 3460.3 960.788 3460.3 1131.83C3460.3 1302.87 3598.96 1441.53 3770 1441.53Z" stroke="black" stroke-width="4" stroke-miterlimit="10"/>
<path d="M3975.45 1337.33C4088.93 1223.85 4088.93 1039.85 3975.45 926.365C3861.96 812.88 3677.97 812.88 3564.48 926.365C3451 1039.85 3451 1223.85 3564.48 1337.33C3677.97 1450.82 3861.96 1450.82 3975.45 1337.33Z" stroke="black" stroke-width="4" stroke-miterlimit="10"/>
<path d="M3770 856.93C3921.7 856.93 4044.9 980.13 4044.9 1131.83C4044.9 1283.53 3921.7 1406.73 3770 1406.73C3618.3 1406.73 3495.1 1283.53 3495.1 1131.83C3495.1 980.13 3618.3 856.93 3770 856.93Z" stroke="black" stroke-width="4" stroke-miterlimit="10"/>
<path d="M3770 1388.73C3911.88 1388.73 4026.9 1273.71 4026.9 1131.83C4026.9 989.948 3911.88 874.93 3770 874.93C3628.12 874.93 3513.1 989.948 3513.1 1131.83C3513.1 1273.71 3628.12 1388.73 3770 1388.73Z" stroke="black" stroke-width="4" stroke-miterlimit="10"/>
<path d="M3939.2 1303.83C3939.2 1304.53 3938.3 1306.03 3937.5 1306.83C3937.4 1306.93 3935.3 1309.13 3931.1 1312.93C3926.9 1316.73 3920.7 1321.93 3912.5 1327.83C3896.2 1339.63 3884.8 1344.83 3884.7 1344.83H3884.5C3884.1 1345.03 3882.7 1345.63 3881.6 1345.63H3880.6C3879.3 1344.93 3877.9 1343.23 3877.5 1342.43L3795.5 1200.83C3808.2 1196.23 3819.4 1188.23 3827.7 1177.83L3937.3 1299.53L3937.4 1299.63C3937.4 1299.63 3939.2 1301.53 3939.2 1303.83ZM4007.9 1088.83C4007.9 1088.63 4006.1 1076.03 3999.9 1056.93C3993.8 1037.93 3987.6 1027.03 3987.5 1026.93L3987.4 1026.83L3987.3 1026.73C3986.9 1025.93 3985.9 1024.63 3985 1024.13C3984.5 1024.03 3984.2 1023.83 3983.9 1023.73C3983.9 1023.63 3983.8 1023.63 3983.8 1023.63C3981.9 1023.63 3980.4 1024.33 3980.2 1024.43H3980.1L3831.2 1090.93C3838.7 1101.83 3843 1114.93 3843.6 1128.53L4003.3 1094.73H4003.6C4003.9 1094.73 4006.1 1094.23 4007.3 1092.43L4007.4 1092.33L4007.5 1092.23C4007.9 1091.73 4008.1 1089.93 4007.9 1088.83ZM3805.7 893.53C3805.3 893.03 3803.7 892.43 3802.6 892.23H3802.4C3802.3 892.13 3790.2 889.93 3770 889.93C3749.8 889.93 3737.8 892.23 3737.6 892.23H3737.4C3736.3 892.33 3734.6 893.03 3734.2 893.53V893.63C3733.5 894.63 3733.3 896.33 3733.3 897.53C3733.3 897.83 3733.3 898.03 3733.3 898.23L3750.5 1060.83C3756.1 1059.33 3762.8 1058.03 3770 1058.03C3777.2 1058.03 3783.5 1058.83 3789.6 1060.63L3806.7 898.33V898.13C3806.7 898.13 3807 895.63 3805.7 893.53ZM3559.2 1024.43L3558.7 1024.23C3558.1 1023.93 3557.1 1023.63 3556.2 1023.63L3555.9 1024.03L3554.7 1024.23C3554.2 1024.33 3553.3 1025.53 3552.9 1026.53L3552.8 1026.73L3552.7 1026.93C3552.7 1027.03 3546.5 1037.93 3540.3 1056.93C3534.1 1076.13 3532.3 1088.73 3532.3 1088.83C3532.2 1089.93 3532.3 1091.63 3532.7 1092.23C3533.9 1093.63 3536 1094.53 3536.9 1094.83L3696.4 1128.53C3696.9 1114.93 3701.3 1101.83 3708.7 1090.93L3559.2 1024.43ZM3712.2 1177.43L3602.8 1299.13L3602.7 1299.23L3602.6 1299.33C3602.6 1299.33 3600.9 1301.13 3600.9 1303.43C3600.9 1303.73 3601.1 1304.33 3601.5 1304.93C3601.8 1305.53 3602.3 1306.13 3602.6 1306.43C3602.7 1306.53 3611.3 1315.63 3627.6 1327.43C3643.9 1339.13 3655.3 1344.33 3655.4 1344.43H3655.6C3656 1344.53 3657.4 1345.13 3658.5 1345.13H3659.5C3660.8 1344.43 3662.2 1342.73 3662.6 1341.93L3744.5 1200.43C3732.1 1196.23 3721.1 1188.33 3712.2 1177.43Z" stroke="black" stroke-width="4" stroke-miterlimit="10"/>
<path d="M3843.8 1138.23C3838.6 1138.23 3833.3 1140.53 3829.9 1145.23C3824.1 1152.83 3825.8 1163.83 3834 1169.63C3836.9 1171.93 3840.4 1173.13 3844.5 1173.13C3849.7 1173.13 3855 1170.83 3858.4 1166.13C3864.2 1158.53 3862.5 1147.53 3854.3 1141.73C3851.4 1139.33 3847.9 1138.23 3843.8 1138.23ZM3815.9 1051.63C3812.4 1051.63 3808.9 1052.83 3805.4 1055.13C3797.8 1060.93 3796.1 1071.43 3801.3 1079.53C3804.8 1084.13 3810 1086.53 3815.2 1086.53C3818.7 1086.53 3822.2 1085.33 3825.7 1083.03C3833.3 1077.23 3835 1066.73 3829.8 1058.63C3826.4 1053.93 3821.2 1051.63 3815.9 1051.63ZM3724.1 1051.63C3722.4 1051.63 3720.6 1051.63 3718.9 1052.23C3709.6 1055.13 3705 1065.03 3707.9 1074.33C3710.2 1081.93 3717.2 1086.53 3724.8 1086.53C3726.5 1086.53 3728.3 1086.53 3730 1085.93C3739.3 1083.03 3743.9 1073.13 3741 1063.83C3738.6 1056.23 3731.7 1051.63 3724.1 1051.63ZM3770 1192.23C3762.4 1192.23 3756.1 1196.83 3753.1 1204.43C3750.2 1213.73 3755.4 1223.63 3764.1 1226.53C3765.8 1227.13 3767.6 1227.13 3769.3 1227.13C3776.9 1227.13 3783.2 1222.53 3786.2 1214.93C3789.1 1205.63 3783.9 1195.73 3775.2 1192.83C3773.5 1192.23 3771.8 1192.23 3770 1192.23ZM3696.2 1138.23C3686.3 1138.23 3678.8 1145.83 3678.8 1155.63C3678.8 1165.43 3686.4 1173.03 3696.2 1173.03C3706 1173.03 3713.6 1165.43 3713.6 1155.63C3713.6 1145.83 3705.5 1138.23 3696.2 1138.23Z" stroke="black" stroke-width="4" stroke-miterlimit="10"/>
<path d="M3990.3 1127.73C3990.3 1151.53 3986.8 1175.33 3979.3 1199.23C3971.7 1223.03 3960.1 1243.93 3946.2 1263.13C3942.7 1267.73 3937.5 1270.13 3932.3 1270.13C3930.6 1270.13 3928.8 1270.13 3927.1 1269.53C3925.4 1268.93 3924.2 1268.33 3922.5 1267.23C3921.3 1266.63 3920.8 1265.53 3919.6 1264.33L3917.9 1262.03L3873.7 1199.23C3865.6 1189.33 3863.2 1175.43 3867.3 1162.63C3869.3 1156.23 3873 1150.53 3877.6 1146.03C3882.3 1141.53 3887.9 1138.23 3894 1136.43L3966.6 1112.03L3968.9 1111.43C3970.1 1110.83 3971.2 1110.83 3973 1110.83C3975.3 1110.83 3977.1 1111.43 3978.2 1110.83C3985 1113.23 3990.3 1120.13 3990.3 1127.73ZM3951.3 1004.53C3937.9 985.33 3920.5 967.93 3900.7 953.43C3880.4 938.93 3858.9 927.83 3836.2 920.93C3833.3 920.33 3831.5 920.33 3829.8 920.33C3824 920.33 3818.8 923.23 3815.8 927.33C3814.6 928.53 3814.1 930.23 3813.5 931.93C3812.9 933.13 3812.9 934.83 3812.9 936.03V938.93L3814.1 1015.63C3814.1 1022.03 3815.6 1028.43 3818.4 1034.23C3821.2 1040.03 3825.4 1045.23 3831 1049.33C3838 1054.53 3846.7 1056.93 3854.8 1056.93C3859.4 1056.93 3863.5 1056.33 3868.2 1054.63L3941.4 1031.93L3943.7 1031.33C3944.9 1030.73 3946 1030.13 3947.2 1029.03C3948.9 1027.83 3950.1 1026.73 3951.3 1024.93C3955.4 1019.03 3956 1010.93 3951.3 1004.53ZM3727.6 931.93C3727 930.23 3726.4 928.43 3725.3 927.33C3721.2 923.23 3716 920.33 3710.2 920.33C3708.5 920.33 3706.7 920.33 3705 920.93C3682.3 927.93 3660.8 938.33 3640.5 953.43C3620.2 967.93 3603.3 985.43 3589.9 1004.53C3585.3 1010.93 3585.8 1019.03 3589.9 1024.83C3591.1 1026.03 3592.2 1027.73 3594 1028.93C3595.2 1029.53 3596.3 1030.63 3597.5 1031.23L3599.8 1031.83L3673 1054.53C3675 1055.43 3677.2 1055.93 3679.5 1056.33C3681.8 1056.73 3684.1 1056.83 3686.4 1056.83C3694.5 1056.83 3702.7 1054.53 3710.2 1049.23C3721.2 1041.13 3727.1 1028.33 3727.1 1015.53L3728.3 938.83V935.93C3728.2 934.83 3727.6 933.03 3727.6 931.93ZM3673 1163.13C3668.9 1150.33 3658.5 1140.43 3646.3 1137.03L3573.7 1112.63L3571.4 1112.03C3570.2 1111.43 3568.5 1110.83 3567.3 1110.83C3565.6 1110.83 3563.8 1111.43 3562.1 1111.43C3555.1 1113.73 3549.9 1120.13 3549.9 1128.33C3549.3 1152.13 3552.8 1176.03 3560.9 1199.83C3568.5 1223.63 3580.1 1245.13 3594 1263.73C3597.5 1268.33 3602.7 1270.73 3608 1270.73C3609.7 1270.73 3611.5 1270.73 3613.2 1270.13C3614.9 1269.53 3616.7 1268.93 3617.8 1267.83C3619 1267.23 3620.1 1266.13 3620.7 1264.93L3622.4 1262.63L3666.6 1199.83C3671.8 1192.63 3674.8 1183.93 3674.8 1175.03C3674.8 1171.13 3674.2 1167.13 3673 1163.13ZM3852.5 1318.93C3851.9 1317.73 3851.3 1316.03 3850.8 1314.83L3849.1 1312.53L3803.2 1250.93C3799.7 1245.73 3794.9 1241.33 3789.3 1238.33C3783.6 1235.23 3777.1 1233.53 3770.1 1233.53C3756.2 1233.53 3744.5 1240.53 3737 1250.93L3691.1 1312.53L3689.4 1314.83C3688.8 1316.03 3688.2 1317.13 3687.7 1318.93C3687.1 1320.63 3687.1 1322.43 3687.1 1324.13C3687.1 1331.73 3691.7 1338.03 3699.3 1341.03C3721.4 1348.63 3745.8 1352.63 3770.2 1352.63C3794.6 1352.63 3819 1348.53 3841.1 1341.03C3848.7 1338.73 3853.3 1331.73 3853.3 1324.13C3853.1 1322.43 3853.1 1320.63 3852.5 1318.93Z" stroke="black" stroke-width="4" stroke-miterlimit="10"/>
<path d="M3770 1180.03C3796.62 1180.03 3818.2 1158.45 3818.2 1131.83C3818.2 1105.21 3796.62 1083.63 3770 1083.63C3743.38 1083.63 3721.8 1105.21 3721.8 1131.83C3721.8 1158.45 3743.38 1180.03 3770 1180.03Z" stroke="black" stroke-width="4" stroke-miterlimit="10"/>
<path d="M3843.2 899.33C3839.7 899.33 3836.8 901.63 3835.6 904.53C3834.4 908.63 3836.8 913.23 3840.8 914.43C3841.4 914.43 3842.5 915.03 3843.1 915.03C3846.6 915.03 3849.5 912.73 3850.7 909.83C3851.9 905.73 3849.5 901.13 3845.5 899.93C3844.4 899.33 3843.8 899.33 3843.2 899.33ZM3843.5 911.03C3843.4 911.03 3843.4 911.03 3843.3 910.93C3842.8 910.73 3842.3 910.63 3841.7 910.53C3840.7 910.13 3840.1 909.23 3839.8 908.73C3839.3 907.83 3839.2 906.73 3839.4 905.83C3840 904.53 3841.4 903.33 3843.2 903.33C3843.3 903.33 3843.3 903.33 3843.3 903.33C3843.4 903.33 3843.4 903.33 3843.4 903.33C3843.4 903.33 3843.4 903.33 3843.3 903.33C3843.4 903.33 3843.5 903.43 3843.7 903.53L3844 903.73L3844.4 903.83C3845.6 904.13 3846.2 905.13 3846.5 905.63C3847 906.53 3847.1 907.63 3846.9 908.53C3846.4 909.73 3845.1 910.93 3843.5 911.03ZM3696.8 899.33C3696.2 899.33 3695.1 899.33 3694.5 899.93C3690.4 901.13 3688.1 905.73 3689.3 909.83C3690.5 913.33 3693.4 915.03 3696.9 915.03C3697.5 915.03 3698.6 915.03 3699.2 914.43C3703.3 913.23 3705.6 908.63 3704.4 904.53C3703.2 901.63 3700.3 899.33 3696.8 899.33ZM3696.9 910.93C3694.1 910.93 3693.4 909.23 3693.2 908.53C3692.7 906.53 3693.9 904.23 3695.7 903.63L3696.7 903.33H3696.8C3698.6 903.33 3700 904.63 3700.6 905.83C3701 907.83 3699.9 910.03 3698.1 910.53L3697.1 910.83L3697 910.93H3696.9V910.93ZM3908.9 933.03C3906.6 933.03 3904.3 934.23 3902.5 935.93C3900.2 939.43 3900.8 944.03 3904.2 946.93C3905.4 948.13 3907.1 948.63 3908.8 948.63C3911.1 948.63 3913.4 947.43 3915.2 945.73C3917.5 942.23 3916.9 937.63 3913.5 934.73C3911.8 933.63 3910.6 933.03 3908.9 933.03ZM3908.8 944.63C3907.9 944.63 3907.3 944.33 3907 944.03L3906.9 943.93L3906.8 943.83C3905.1 942.43 3904.6 940.23 3905.6 938.43C3906.7 937.53 3907.9 937.03 3908.9 937.03C3909.4 937.03 3909.8 937.03 3911.1 937.93C3912.7 939.33 3913.1 941.43 3912.1 943.23C3911.1 944.13 3909.9 944.63 3908.8 944.63ZM3631.1 933.03C3629.4 933.03 3628.2 933.63 3626.5 934.73C3623 937.03 3622.4 942.33 3624.8 945.73C3626.5 948.03 3628.9 948.63 3631.2 948.63C3632.9 948.63 3634.1 948.03 3635.8 946.93C3639.3 944.63 3639.9 939.33 3637.5 935.93C3635.8 934.23 3633.4 933.03 3631.1 933.03ZM3631.2 944.73C3629.4 944.73 3628.7 944.23 3628.1 943.53C3627.6 942.63 3627.3 941.53 3627.5 940.43C3627.6 939.83 3627.9 938.73 3628.8 938.13C3630.2 937.13 3630.6 937.03 3631.1 937.03C3632.1 937.03 3633.3 937.53 3634.4 938.43C3634.8 939.23 3635 940.33 3634.9 941.33C3634.8 941.93 3634.5 943.03 3633.6 943.63C3632.1 944.63 3631.7 944.73 3631.2 944.73ZM3961.2 985.33C3959.5 985.33 3958.3 985.93 3956.6 987.03C3953.1 989.33 3952.5 994.63 3954.9 998.03C3956.6 1000.33 3959 1000.93 3961.3 1000.93C3963 1000.93 3964.2 1000.33 3965.9 999.23C3969.4 996.93 3970 991.63 3967.6 988.23C3965.9 986.53 3963.5 985.33 3961.2 985.33ZM3961.3 997.03C3959.5 997.03 3958.8 996.53 3958.2 995.83C3957.7 994.93 3957.4 993.83 3957.6 992.73C3957.7 992.13 3958 991.03 3958.9 990.43C3960.3 989.43 3960.7 989.33 3961.2 989.33C3962.2 989.33 3963.4 989.83 3964.5 990.73C3964.9 991.53 3965.1 992.63 3965 993.63C3964.9 994.23 3964.6 995.33 3963.7 995.93C3962.2 996.93 3961.8 997.03 3961.3 997.03ZM3578.8 985.33C3576.5 985.33 3574.2 986.53 3572.4 988.23C3570.1 991.73 3570.7 996.33 3574.1 999.23C3575.3 1000.43 3577 1000.93 3578.7 1000.93C3581 1000.93 3583.3 999.73 3585.1 998.03C3587.4 994.53 3586.8 989.93 3583.4 987.03C3582.3 985.93 3580.6 985.33 3578.8 985.33ZM3578.7 996.93C3577.8 996.93 3577.2 996.63 3576.9 996.33L3576.8 996.23L3576.7 996.13C3575 994.73 3574.5 992.53 3575.5 990.73C3576.6 989.83 3577.8 989.33 3578.8 989.33C3579.7 989.33 3580.3 989.63 3580.6 989.93L3580.7 990.03L3580.8 990.13C3582.5 991.53 3583 993.73 3582 995.53C3581 996.43 3579.8 996.93 3578.7 996.93ZM4006 1124.23C4001.9 1124.23 3998.4 1127.73 3998.4 1131.83C3998.4 1135.93 4001.9 1139.43 4006 1139.43C4010.1 1139.43 4013.6 1135.93 4013.6 1131.83C4014.1 1127.73 4010.6 1124.23 4006 1124.23ZM4005.9 1135.43C4004 1135.43 4002.3 1133.73 4002.3 1131.83C4002.3 1129.93 4004.1 1128.23 4006 1128.23C4007.3 1128.23 4008.4 1128.63 4009 1129.43C4009.5 1129.93 4009.6 1130.53 4009.5 1131.23V1131.53V1131.83C4009.5 1133.73 4007.8 1135.43 4005.9 1135.43ZM3534.1 1124.23C3530 1124.23 3526.5 1127.73 3526.5 1131.83C3526.5 1135.93 3530 1139.43 3534.1 1139.43C3538.2 1139.43 3541.7 1135.93 3541.7 1131.83C3541.6 1127.73 3538.1 1124.23 3534.1 1124.23ZM3534.1 1135.43C3532.2 1135.43 3530.5 1133.73 3530.5 1131.83C3530.5 1129.93 3532.2 1128.23 3534.1 1128.23C3536 1128.23 3537.7 1129.93 3537.7 1131.83C3537.7 1133.73 3536 1135.43 3534.1 1135.43ZM3994.3 1196.83C3990.8 1196.83 3987.9 1199.13 3986.7 1202.03C3985.5 1206.13 3987.9 1210.73 3991.9 1211.93C3992.5 1211.93 3993.6 1212.53 3994.2 1212.53C3997.7 1212.53 4000.6 1210.23 4001.8 1207.33C4003 1203.23 4000.6 1198.63 3996.6 1197.43C3996.1 1196.83 3995.5 1196.83 3994.3 1196.83ZM3994.6 1208.43C3994.5 1208.43 3994.5 1208.43 3994.4 1208.33C3993.9 1208.13 3993.4 1208.03 3992.8 1207.93C3991.8 1207.53 3991.2 1206.63 3990.9 1206.13C3990.4 1205.23 3990.3 1204.13 3990.5 1203.23C3991.2 1202.13 3992.5 1200.83 3994.3 1200.83C3994.4 1200.83 3994.4 1200.83 3994.4 1200.83C3994.4 1200.83 3994.4 1200.83 3994.3 1200.83L3994.5 1200.93L3995.5 1201.23C3996.7 1201.53 3997.3 1202.53 3997.6 1203.03C3998.1 1203.93 3998.2 1205.03 3998 1205.93C3997.5 1207.13 3996.2 1208.33 3994.6 1208.43ZM3545.7 1196.83C3545.1 1196.83 3544 1196.83 3543.4 1197.43C3539.3 1198.63 3537 1203.23 3538.2 1207.33C3539.4 1210.83 3542.3 1212.53 3545.8 1212.53C3546.4 1212.53 3547.5 1212.53 3548.1 1211.93C3552.2 1210.73 3554.5 1206.13 3553.3 1202.03C3551.5 1199.23 3548.6 1196.83 3545.7 1196.83ZM3545.7 1200.83C3546.7 1200.83 3548.3 1201.83 3549.5 1203.63C3549.8 1205.53 3548.6 1207.63 3546.9 1208.13L3545.9 1208.43L3545.8 1208.53H3545.7C3542.9 1208.53 3542.2 1206.83 3542 1206.13C3541.5 1204.13 3542.7 1201.83 3544.5 1201.23L3545.5 1200.93L3545.7 1200.83ZM3961.2 1262.53C3958.9 1262.53 3956.6 1263.73 3954.8 1265.43C3952.5 1268.93 3953.1 1273.53 3956.5 1276.43C3957.7 1277.63 3959.4 1278.13 3961.1 1278.13C3963.4 1278.13 3965.7 1276.93 3967.5 1275.23C3969.8 1271.73 3969.2 1267.13 3965.8 1264.23C3964.1 1263.13 3962.4 1262.53 3961.2 1262.53ZM3961.1 1274.13C3960.2 1274.13 3959.6 1273.83 3959.3 1273.53L3959.2 1273.43L3959.1 1273.33C3957.4 1271.93 3956.9 1269.73 3957.9 1267.93C3959 1267.13 3960.2 1266.53 3961.2 1266.53C3961.4 1266.53 3962.3 1266.73 3963.4 1267.43C3965 1268.83 3965.4 1270.93 3964.4 1272.73C3963.4 1273.63 3962.2 1274.13 3961.1 1274.13ZM3578.8 1262.53C3577.1 1262.53 3575.9 1263.13 3574.2 1264.23C3570.7 1266.53 3570.1 1271.83 3572.5 1275.23C3574.2 1277.53 3576.6 1278.13 3578.9 1278.13C3580.6 1278.13 3581.8 1277.53 3583.5 1276.43C3587 1274.13 3587.6 1268.83 3585.2 1265.43C3584 1263.73 3581.1 1262.53 3578.8 1262.53ZM3578.9 1274.23C3577.1 1274.23 3576.4 1273.73 3575.8 1273.03C3575.3 1272.13 3575 1271.03 3575.2 1269.93C3575.3 1269.33 3575.6 1268.23 3576.5 1267.63C3577.9 1266.63 3578.3 1266.53 3578.8 1266.53C3580.1 1266.53 3581.6 1267.23 3581.9 1267.63C3582.5 1268.53 3582.7 1269.73 3582.6 1270.83C3582.5 1271.43 3582.2 1272.53 3581.3 1273.13C3579.8 1274.13 3579.4 1274.23 3578.9 1274.23ZM3843.2 1348.53C3842.6 1348.53 3841.5 1348.53 3840.9 1349.13C3836.8 1350.33 3834.5 1354.93 3835.7 1359.03C3836.9 1362.53 3839.8 1364.23 3843.3 1364.23C3843.9 1364.23 3845 1364.23 3845.6 1363.63C3849.7 1362.43 3852 1357.83 3850.8 1353.73C3849 1350.33 3846.1 1348.53 3843.2 1348.53ZM3843.2 1360.23C3840.4 1360.23 3839.7 1358.53 3839.5 1357.83C3839 1355.83 3840.2 1353.53 3842 1352.93L3843 1352.63L3843.2 1352.53C3844.7 1352.53 3846 1353.53 3847 1355.23C3847.4 1357.13 3846.2 1359.33 3844.4 1359.83L3843.4 1360.13L3843.3 1360.23H3843.2V1360.23ZM3697.4 1348.53C3693.9 1348.53 3691 1350.83 3689.8 1353.73C3688.6 1357.83 3691 1362.43 3695 1363.63C3695.6 1363.63 3696.7 1364.23 3697.3 1364.23C3700.8 1364.23 3703.7 1361.93 3704.9 1359.03C3706.1 1354.93 3703.7 1350.33 3699.7 1349.13C3698.5 1348.53 3698 1348.53 3697.4 1348.53ZM3697.7 1360.23C3697.6 1360.23 3697.6 1360.23 3697.5 1360.13C3697 1359.93 3696.5 1359.83 3695.9 1359.73C3694.9 1359.33 3694.3 1358.43 3694 1357.93C3693.5 1357.03 3693.4 1355.93 3693.6 1355.03C3694.2 1353.73 3695.6 1352.53 3697.4 1352.53C3697.4 1352.53 3697.4 1352.53 3697.5 1352.53C3697.6 1352.53 3697.7 1352.63 3697.9 1352.73L3698.2 1352.93L3698.6 1353.03C3699.8 1353.33 3700.4 1354.33 3700.7 1354.83C3701.2 1355.73 3701.3 1356.83 3701.1 1357.73C3700.6 1358.93 3699.3 1360.13 3697.7 1360.23ZM3770 1360.13C3765.9 1360.13 3762.4 1363.63 3762.4 1367.73C3762.4 1371.83 3765.9 1375.33 3770 1375.33C3774.1 1375.33 3777.6 1371.83 3777.6 1367.73C3777.6 1363.63 3774.1 1360.13 3770 1360.13ZM3770 1371.33C3768.1 1371.33 3766.4 1369.63 3766.4 1367.73C3766.4 1365.83 3768.2 1364.13 3770 1364.13C3771.9 1364.13 3773.6 1365.83 3773.6 1367.73C3773.6 1369.63 3771.9 1371.33 3770 1371.33Z" fill="black"/>
<path d="M1034.3 1511.53C1249.41 1511.53 1423.8 1337.15 1423.8 1122.03C1423.8 906.915 1249.41 732.53 1034.3 732.53C819.185 732.53 644.8 906.915 644.8 1122.03C644.8 1337.15 819.185 1511.53 1034.3 1511.53Z" stroke="black" stroke-width="4" stroke-miterlimit="10"/>
<path d="M1034.3 1441.43C1210.7 1441.43 1353.7 1298.43 1353.7 1122.03C1353.7 945.63 1210.7 802.63 1034.3 802.63C857.9 802.63 714.9 945.63 714.9 1122.03C714.9 1298.43 857.9 1441.43 1034.3 1441.43Z" stroke="black" stroke-width="4" stroke-miterlimit="10"/>
<path d="M1246.21 1333.96C1363.25 1216.92 1363.25 1027.17 1246.21 910.127C1129.17 793.088 939.416 793.088 822.377 910.127C705.338 1027.17 705.338 1216.92 822.377 1333.96C939.416 1451 1129.17 1451 1246.21 1333.96Z" stroke="black" stroke-width="4" stroke-miterlimit="10"/>
<path d="M1034.3 838.53C1190.7 838.53 1317.8 965.63 1317.8 1122.03C1317.8 1278.43 1190.7 1405.53 1034.3 1405.53C877.9 1405.53 750.8 1278.43 750.8 1122.03C750.8 965.63 877.9 838.53 1034.3 838.53Z" stroke="black" stroke-width="4" stroke-miterlimit="10"/>
<path d="M1034.3 1386.93C1180.6 1386.93 1299.2 1268.33 1299.2 1122.03C1299.2 975.73 1180.6 857.13 1034.3 857.13C888 857.13 769.4 975.73 769.4 1122.03C769.4 1268.33 888 1386.93 1034.3 1386.93Z" stroke="black" stroke-width="4" stroke-miterlimit="10"/>
<path d="M1208.8 1299.43C1208.8 1300.13 1207.9 1301.73 1207 1302.53C1206.9 1302.63 1204.7 1304.93 1200.4 1308.83C1196.1 1312.73 1189.6 1318.13 1181.2 1324.23C1164.4 1336.43 1152.6 1341.73 1152.5 1341.73H1152.3C1151.9 1341.93 1150.4 1342.53 1149.3 1342.53H1148.3C1147 1341.83 1145.5 1340.03 1145.1 1339.23L1060.5 1193.23C1073.6 1188.53 1085.1 1180.23 1093.7 1169.53L1206.7 1295.03L1206.8 1295.13C1207 1295.03 1208.8 1297.03 1208.8 1299.43ZM1279.7 1077.73C1279.7 1077.53 1277.8 1064.53 1271.5 1044.83C1265.2 1025.23 1258.8 1014.03 1258.7 1013.93L1258.6 1013.83L1258.5 1013.73C1258.1 1012.93 1257.1 1011.53 1256.1 1011.03C1255.6 1010.93 1255.3 1010.73 1255 1010.63C1255 1010.53 1254.9 1010.53 1254.9 1010.53C1252.9 1010.53 1251.4 1011.23 1251.2 1011.33H1251.1L1097.5 1079.93C1105.2 1091.13 1109.7 1104.73 1110.3 1118.73L1275 1083.83H1275.3C1275.6 1083.83 1277.9 1083.33 1279.1 1081.43L1279.2 1081.33L1279.3 1081.23C1279.7 1080.63 1279.9 1078.83 1279.7 1077.73ZM1071.1 876.23C1070.7 875.73 1069 875.13 1067.9 874.93H1067.7C1067.6 874.83 1055.1 872.53 1034.3 872.53C1013.5 872.53 1001.1 874.93 1000.9 874.93H1000.7C999.6 875.03 997.8 875.73 997.4 876.23V876.33C996.6 877.33 996.4 879.13 996.4 880.33C996.4 880.63 996.4 880.83 996.4 881.03L1014.1 1048.73C1019.9 1047.23 1026.8 1045.83 1034.2 1045.83C1041.6 1045.83 1048.1 1046.63 1054.4 1048.53L1072 881.13V880.93C1072.2 881.03 1072.5 878.43 1071.1 876.23ZM816.9 1011.23L816.4 1011.03C815.8 1010.73 814.8 1010.43 813.8 1010.43L813.5 1010.83L812.3 1011.03C811.8 1011.13 810.9 1012.33 810.4 1013.43L810.3 1013.63L810.2 1013.83C810.2 1013.93 803.8 1025.13 797.4 1044.73C791 1064.53 789.2 1077.53 789.2 1077.63C789.1 1078.73 789.2 1080.53 789.6 1081.13C790.8 1082.53 793 1083.53 793.9 1083.83L958.4 1118.63C958.9 1104.63 963.5 1091.13 971.1 1079.83L816.9 1011.23ZM974.7 1169.03L861.9 1294.53L861.8 1294.63L861.7 1294.73C861.7 1294.73 859.9 1296.63 859.9 1298.93C859.9 1299.33 860.2 1299.83 860.5 1300.43C860.8 1301.03 861.3 1301.63 861.6 1301.93C861.7 1302.03 870.6 1311.43 887.4 1323.63C904.2 1335.73 916 1341.03 916.1 1341.13H916.3C916.7 1341.23 918.2 1341.83 919.3 1341.83H920.3C921.6 1341.13 923.1 1339.33 923.5 1338.53L1008 1192.63C995.2 1188.43 983.9 1180.33 974.7 1169.03Z" stroke="black" stroke-width="4" stroke-miterlimit="10"/>
<path d="M1110.4 1128.63C1105 1128.63 1099.6 1131.03 1096.1 1135.83C1090.1 1143.63 1091.9 1155.03 1100.3 1161.03C1103.3 1163.43 1106.9 1164.63 1111.1 1164.63C1116.5 1164.63 1121.9 1162.23 1125.4 1157.43C1131.4 1149.63 1129.6 1138.23 1121.2 1132.23C1118.3 1129.73 1114.7 1128.63 1110.4 1128.63ZM1081.7 1039.33C1078.1 1039.33 1074.5 1040.53 1070.9 1042.93C1063.1 1048.93 1061.3 1059.73 1066.7 1068.13C1070.3 1072.83 1075.7 1075.33 1081 1075.33C1084.6 1075.33 1088.2 1074.13 1091.8 1071.73C1099.6 1065.73 1101.4 1054.93 1096 1046.53C1092.5 1041.73 1087.1 1039.33 1081.7 1039.33ZM987 1039.33C985.2 1039.33 983.4 1039.33 981.6 1039.93C972 1042.93 967.3 1053.13 970.3 1062.73C972.7 1070.53 979.9 1075.33 987.7 1075.33C989.5 1075.33 991.3 1075.33 993.1 1074.73C1002.7 1071.73 1007.4 1061.53 1004.4 1051.93C1001.9 1044.03 994.8 1039.33 987 1039.33ZM1034.3 1184.33C1026.5 1184.33 1020 1189.03 1016.9 1196.93C1013.9 1206.53 1019.3 1216.73 1028.2 1219.73C1030 1220.33 1031.8 1220.33 1033.6 1220.33C1041.4 1220.33 1047.9 1215.63 1051 1207.73C1054 1198.13 1048.6 1187.93 1039.7 1184.93C1037.9 1184.33 1036.2 1184.33 1034.3 1184.33ZM958.2 1128.63C948 1128.63 940.3 1136.43 940.3 1146.53C940.3 1156.63 948.1 1164.43 958.2 1164.43C968.3 1164.43 976.1 1156.63 976.1 1146.53C976.1 1136.43 967.8 1128.63 958.2 1128.63Z" stroke="black" stroke-width="4" stroke-miterlimit="10"/>
<path d="M1261.5 1117.83C1261.5 1142.33 1257.9 1166.93 1250.2 1191.53C1242.4 1216.03 1230.4 1237.63 1216.1 1257.43C1212.5 1262.13 1207.1 1264.63 1201.8 1264.63C1200 1264.63 1198.2 1264.63 1196.4 1264.03C1194.6 1263.43 1193.4 1262.83 1191.7 1261.63C1190.5 1261.03 1189.9 1259.83 1188.7 1258.63L1186.9 1256.23L1141.3 1191.43C1132.9 1181.23 1130.5 1166.93 1134.7 1153.73C1136.8 1147.13 1140.6 1141.23 1145.3 1136.63C1150.1 1132.03 1155.9 1128.63 1162.2 1126.73L1237.1 1101.53L1239.5 1100.93C1240.7 1100.33 1241.9 1100.33 1243.7 1100.33C1246.1 1100.33 1247.9 1100.93 1249.1 1100.33C1256 1102.83 1261.5 1109.93 1261.5 1117.83ZM1221.3 990.73C1207.5 970.93 1189.5 953.03 1169.1 938.03C1148.2 923.03 1126 911.63 1102.6 904.53C1099.6 903.93 1097.8 903.93 1096 903.93C1090 903.93 1084.7 906.93 1081.6 911.13C1080.4 912.33 1079.8 914.13 1079.2 915.83C1078.6 917.03 1078.6 918.83 1078.6 920.03V923.03L1079.8 1002.13C1079.8 1008.73 1081.3 1015.33 1084.2 1021.33C1087.1 1027.33 1091.4 1032.63 1097.2 1036.93C1104.4 1042.33 1113.4 1044.73 1121.7 1044.73C1126.4 1044.73 1130.7 1044.13 1135.5 1042.33L1211 1018.93L1213.4 1018.33C1214.6 1017.73 1215.8 1017.13 1217 1015.93C1218.8 1014.73 1220 1013.53 1221.2 1011.73C1225.5 1005.73 1226.1 997.33 1221.3 990.73ZM990.6 915.83C990 914.03 989.4 912.23 988.2 911.13C984 906.93 978.6 903.93 972.6 903.93C970.8 903.93 969 903.93 967.2 904.53C943.8 911.73 921.6 922.43 900.7 938.03C879.8 953.03 862.3 971.03 848.5 990.73C843.8 997.33 844.3 1005.73 848.5 1011.63C849.7 1012.83 850.9 1014.63 852.7 1015.83C853.9 1016.43 855.1 1017.63 856.3 1018.23L858.7 1018.83L934.2 1042.23C936.3 1043.13 938.5 1043.63 940.9 1044.13C943.3 1044.53 945.6 1044.63 948 1044.63C956.4 1044.63 964.8 1042.23 972.5 1036.83C983.8 1028.43 989.9 1015.23 989.9 1002.03L991.1 922.93V919.93C991.2 918.83 990.6 917.03 990.6 915.83ZM934.3 1154.33C930.1 1141.13 919.3 1130.93 906.8 1127.43L831.9 1102.23L829.5 1101.63C828.3 1101.03 826.5 1100.43 825.3 1100.43C823.5 1100.43 821.7 1101.03 819.9 1101.03C812.7 1103.43 807.3 1110.03 807.3 1118.43C806.7 1142.93 810.3 1167.63 818.6 1192.13C826.4 1216.63 838.4 1238.83 852.7 1258.03C856.3 1262.73 861.7 1265.23 867.1 1265.23C868.9 1265.23 870.7 1265.23 872.5 1264.63C874.3 1264.03 876.1 1263.43 877.2 1262.23C878.4 1261.63 879.6 1260.43 880.2 1259.23L882 1256.83L927.6 1192.03C933 1184.63 936.1 1175.63 936.1 1166.43C936.1 1162.53 935.5 1158.43 934.3 1154.33ZM1119.4 1314.93C1118.8 1313.73 1118.2 1311.93 1117.6 1310.73L1115.8 1308.33L1068.5 1244.83C1064.9 1239.43 1059.9 1234.93 1054.2 1231.83C1048.3 1228.63 1041.6 1226.83 1034.4 1226.83C1020.1 1226.83 1008 1234.03 1000.3 1244.73L953 1308.23L951.2 1310.63C950.6 1311.83 950 1313.03 949.4 1314.83C948.8 1316.63 948.8 1318.43 948.8 1320.23C948.8 1328.03 953.5 1334.53 961.4 1337.63C984.2 1345.43 1009.4 1349.63 1034.5 1349.63C1059.7 1349.63 1084.8 1345.43 1107.6 1337.63C1115.4 1335.23 1120.2 1328.03 1120.2 1320.23C1120 1318.63 1120 1316.73 1119.4 1314.93Z" stroke="black" stroke-width="4" stroke-miterlimit="10"/>
<path d="M1034.3 1171.73C1061.75 1171.73 1084 1149.48 1084 1122.03C1084 1094.58 1061.75 1072.33 1034.3 1072.33C1006.85 1072.33 984.6 1094.58 984.6 1122.03C984.6 1149.48 1006.85 1171.73 1034.3 1171.73Z" stroke="black" stroke-width="4" stroke-miterlimit="10"/>
<path d="M1109.8 882.23C1106.2 882.23 1103.2 884.63 1102 887.63C1100.8 891.83 1103.2 896.63 1107.4 897.83C1108 897.83 1109.2 898.43 1109.8 898.43C1113.4 898.43 1116.4 896.03 1117.6 893.03C1118.8 888.83 1116.4 884.03 1112.2 882.83C1111 882.23 1110.4 882.23 1109.8 882.23ZM1110.1 894.33C1110 894.33 1110 894.33 1109.9 894.23C1109.4 894.03 1108.9 893.93 1108.2 893.83C1107.2 893.43 1106.5 892.53 1106.2 891.93C1105.7 891.03 1105.6 889.83 1105.8 888.93C1106.4 887.63 1107.9 886.33 1109.7 886.33C1109.8 886.33 1109.8 886.33 1109.8 886.33C1109.9 886.33 1109.9 886.33 1109.9 886.33C1109.9 886.33 1109.9 886.33 1109.8 886.33C1109.9 886.33 1110 886.43 1110.2 886.53L1110.5 886.73L1110.9 886.83C1112.1 887.13 1112.8 888.13 1113.1 888.73C1113.6 889.63 1113.7 890.83 1113.5 891.73C1113.1 893.03 1111.8 894.23 1110.1 894.33ZM958.8 882.23C958.2 882.23 957 882.23 956.4 882.83C952.2 884.03 949.8 888.83 951 893.03C952.2 896.63 955.2 898.43 958.8 898.43C959.4 898.43 960.6 898.43 961.2 897.83C965.4 896.63 967.8 891.83 966.6 887.63C965.4 884.63 962.4 882.23 958.8 882.23ZM958.9 894.23C956 894.23 955.3 892.43 955.1 891.73C954.6 889.63 955.8 887.33 957.7 886.63L958.7 886.33H958.8C960.7 886.33 962.1 887.63 962.7 888.93C963.1 891.03 962 893.23 960.1 893.73L959.1 894.03L959 894.13H958.9V894.23ZM1177.6 917.03C1175.2 917.03 1172.9 918.23 1171 920.03C1168.6 923.63 1169.2 928.43 1172.8 931.33C1174 932.53 1175.8 933.13 1177.5 933.13C1179.9 933.13 1182.2 931.93 1184.1 930.13C1186.5 926.53 1185.9 921.73 1182.3 918.83C1180.6 917.63 1179.3 917.03 1177.6 917.03ZM1177.5 928.93C1176.6 928.93 1176 928.63 1175.6 928.33L1175.5 928.23L1175.4 928.13C1173.6 926.73 1173.1 924.43 1174.2 922.53C1175.3 921.63 1176.6 921.13 1177.6 921.13C1178.1 921.13 1178.5 921.13 1179.9 922.03C1181.6 923.43 1182 925.63 1180.9 927.53C1179.8 928.43 1178.6 928.93 1177.5 928.93ZM891.1 917.03C889.3 917.03 888.1 917.63 886.4 918.83C882.8 921.23 882.2 926.63 884.6 930.13C886.4 932.53 888.8 933.13 891.2 933.13C893 933.13 894.2 932.53 895.9 931.33C899.5 928.93 900.1 923.53 897.7 920.03C895.9 918.23 893.5 917.03 891.1 917.03ZM891.2 929.03C889.3 929.03 888.6 928.53 888 927.83C887.5 926.93 887.2 925.73 887.4 924.63C887.5 924.03 887.8 922.83 888.7 922.23C890.1 921.23 890.6 921.13 891.1 921.13C892.1 921.13 893.4 921.63 894.5 922.53C894.9 923.33 895.1 924.53 895 925.53C894.9 926.13 894.6 927.33 893.7 927.93C892.1 928.93 891.7 929.03 891.2 929.03ZM1231.5 970.93C1229.7 970.93 1228.5 971.53 1226.8 972.73C1223.2 975.13 1222.6 980.53 1225 984.03C1226.8 986.43 1229.2 987.03 1231.6 987.03C1233.4 987.03 1234.6 986.43 1236.3 985.23C1239.9 982.83 1240.5 977.43 1238.1 973.93C1236.3 972.23 1233.9 970.93 1231.5 970.93ZM1231.6 983.03C1229.7 983.03 1229 982.53 1228.4 981.83C1227.9 980.93 1227.6 979.73 1227.8 978.63C1227.9 978.03 1228.2 976.83 1229.1 976.23C1230.5 975.23 1231 975.13 1231.5 975.13C1232.5 975.13 1233.8 975.63 1234.9 976.53C1235.3 977.33 1235.5 978.53 1235.4 979.53C1235.3 980.13 1235 981.33 1234.1 981.93C1232.5 982.93 1232.1 983.03 1231.6 983.03ZM837.1 970.93C834.7 970.93 832.4 972.13 830.5 973.93C828.1 977.53 828.7 982.33 832.3 985.23C833.5 986.43 835.3 987.03 837 987.03C839.4 987.03 841.7 985.83 843.6 984.03C846 980.43 845.4 975.63 841.8 972.73C840.8 971.53 839 970.93 837.1 970.93ZM837 982.93C836.1 982.93 835.5 982.63 835.1 982.33L835 982.23L834.9 982.13C833.1 980.73 832.6 978.43 833.7 976.53C834.8 975.63 836.1 975.13 837.1 975.13C838 975.13 838.6 975.43 839 975.73L839.1 975.83L839.2 975.93C841 977.33 841.5 979.63 840.4 981.53C839.4 982.43 838.2 982.93 837 982.93ZM1277.7 1114.23C1273.5 1114.23 1269.9 1117.83 1269.9 1122.03C1269.9 1126.23 1273.5 1129.83 1277.7 1129.83C1281.9 1129.83 1285.5 1126.23 1285.5 1122.03C1286.1 1117.83 1282.4 1114.23 1277.7 1114.23ZM1277.6 1125.73C1275.6 1125.73 1273.9 1123.93 1273.9 1122.03C1273.9 1120.03 1275.8 1118.33 1277.7 1118.33C1279 1118.33 1280.2 1118.73 1280.8 1119.53C1281.3 1120.03 1281.4 1120.63 1281.3 1121.43V1121.73V1122.03C1281.3 1124.03 1279.6 1125.73 1277.6 1125.73ZM791.1 1114.23C786.9 1114.23 783.3 1117.83 783.3 1122.03C783.3 1126.23 786.9 1129.83 791.1 1129.83C795.3 1129.83 798.9 1126.23 798.9 1122.03C798.8 1117.83 795.2 1114.23 791.1 1114.23ZM791.1 1125.73C789.1 1125.73 787.4 1123.93 787.4 1122.03C787.4 1120.03 789.2 1118.33 791.1 1118.33C793.1 1118.33 794.8 1120.13 794.8 1122.03C794.8 1124.03 793 1125.73 791.1 1125.73ZM1265.6 1189.03C1262 1189.03 1259 1191.43 1257.8 1194.43C1256.6 1198.63 1259 1203.43 1263.2 1204.63C1263.8 1204.63 1265 1205.23 1265.6 1205.23C1269.2 1205.23 1272.2 1202.83 1273.4 1199.83C1274.6 1195.63 1272.2 1190.83 1268 1189.63C1267.5 1189.03 1266.9 1189.03 1265.6 1189.03ZM1265.9 1201.03C1265.8 1201.03 1265.8 1201.03 1265.7 1200.93C1265.2 1200.73 1264.7 1200.63 1264 1200.53C1263 1200.13 1262.3 1199.23 1262 1198.63C1261.5 1197.73 1261.4 1196.53 1261.6 1195.63C1262.3 1194.53 1263.7 1193.13 1265.5 1193.13C1265.6 1193.13 1265.6 1193.13 1265.6 1193.13C1265.6 1193.13 1265.6 1193.13 1265.5 1193.13L1265.7 1193.23L1266.7 1193.53C1267.9 1193.83 1268.6 1194.83 1268.9 1195.43C1269.4 1196.33 1269.5 1197.53 1269.3 1198.43C1268.9 1199.63 1267.6 1200.93 1265.9 1201.03ZM803 1189.03C802.4 1189.03 801.2 1189.03 800.6 1189.63C796.4 1190.83 794 1195.63 795.2 1199.83C796.4 1203.43 799.4 1205.23 803 1205.23C803.6 1205.23 804.8 1205.23 805.4 1204.63C809.6 1203.43 812 1198.63 810.8 1194.43C809 1191.53 806 1189.03 803 1189.03ZM803 1193.23C804 1193.23 805.7 1194.23 806.9 1196.13C807.2 1198.13 806 1200.23 804.2 1200.73L803.2 1201.03L803.1 1201.13H803C800.1 1201.13 799.4 1199.33 799.2 1198.63C798.7 1196.53 799.9 1194.23 801.8 1193.53L802.8 1193.23H803ZM1231.5 1256.83C1229.1 1256.83 1226.8 1258.03 1224.9 1259.83C1222.5 1263.43 1223.1 1268.23 1226.7 1271.13C1227.9 1272.33 1229.7 1272.93 1231.4 1272.93C1233.8 1272.93 1236.1 1271.73 1238 1269.93C1240.4 1266.33 1239.8 1261.53 1236.2 1258.63C1234.5 1257.43 1232.7 1256.83 1231.5 1256.83ZM1231.4 1268.73C1230.5 1268.73 1229.9 1268.43 1229.5 1268.13L1229.4 1268.03L1229.3 1267.93C1227.5 1266.53 1227 1264.23 1228.1 1262.33C1229.2 1261.53 1230.5 1260.93 1231.5 1260.93C1231.7 1260.93 1232.6 1261.13 1233.8 1261.83C1235.5 1263.23 1235.9 1265.43 1234.8 1267.33C1233.8 1268.23 1232.5 1268.73 1231.4 1268.73ZM837.1 1256.83C835.3 1256.83 834.1 1257.43 832.4 1258.63C828.8 1261.03 828.2 1266.43 830.6 1269.93C832.4 1272.33 834.8 1272.93 837.2 1272.93C839 1272.93 840.2 1272.33 841.9 1271.13C845.5 1268.73 846.1 1263.33 843.7 1259.83C842.5 1258.03 839.5 1256.83 837.1 1256.83ZM837.3 1268.83C835.4 1268.83 834.7 1268.33 834.1 1267.63C833.6 1266.73 833.3 1265.53 833.5 1264.43C833.6 1263.83 833.9 1262.63 834.8 1262.03C836.2 1261.03 836.7 1260.93 837.2 1260.93C838.5 1260.93 840.1 1261.63 840.4 1262.03C841 1262.93 841.2 1264.23 841.1 1265.33C841 1265.93 840.7 1267.13 839.8 1267.73C838.2 1268.73 837.8 1268.83 837.3 1268.83ZM1109.8 1345.53C1109.2 1345.53 1108 1345.53 1107.4 1346.13C1103.2 1347.33 1100.8 1352.13 1102 1356.33C1103.2 1359.93 1106.2 1361.73 1109.8 1361.73C1110.4 1361.73 1111.6 1361.73 1112.2 1361.13C1116.4 1359.93 1118.8 1355.13 1117.6 1350.93C1115.8 1347.33 1112.8 1345.53 1109.8 1345.53ZM1109.8 1357.53C1106.9 1357.53 1106.2 1355.73 1106 1355.03C1105.5 1352.93 1106.7 1350.63 1108.6 1349.93L1109.6 1349.63L1109.8 1349.53C1111.3 1349.53 1112.7 1350.53 1113.7 1352.33C1114.1 1354.33 1112.9 1356.53 1111 1357.03L1110 1357.33L1109.9 1357.43H1109.8V1357.53ZM959.5 1345.53C955.9 1345.53 952.9 1347.93 951.7 1350.93C950.5 1355.13 952.9 1359.93 957.1 1361.13C957.7 1361.13 958.9 1361.73 959.5 1361.73C963.1 1361.73 966.1 1359.33 967.3 1356.33C968.5 1352.13 966.1 1347.33 961.9 1346.13C960.6 1345.53 960.1 1345.53 959.5 1345.53ZM959.8 1357.53C959.7 1357.53 959.7 1357.53 959.6 1357.43C959.1 1357.23 958.6 1357.13 957.9 1357.03C956.9 1356.63 956.2 1355.73 955.9 1355.13C955.4 1354.23 955.3 1353.03 955.5 1352.13C956.1 1350.83 957.6 1349.53 959.4 1349.53C959.4 1349.53 959.4 1349.53 959.5 1349.53C959.6 1349.53 959.7 1349.63 959.9 1349.73L960.2 1349.93L960.6 1350.03C961.8 1350.33 962.5 1351.33 962.8 1351.93C963.3 1352.83 963.4 1354.03 963.2 1354.93C962.8 1356.23 961.4 1357.43 959.8 1357.53ZM1034.3 1357.43C1030.1 1357.43 1026.5 1361.03 1026.5 1365.23C1026.5 1369.43 1030.1 1373.03 1034.3 1373.03C1038.5 1373.03 1042.1 1369.43 1042.1 1365.23C1042.2 1361.03 1038.6 1357.43 1034.3 1357.43ZM1034.3 1369.03C1032.3 1369.03 1030.6 1367.23 1030.6 1365.33C1030.6 1363.33 1032.5 1361.63 1034.3 1361.63C1036.3 1361.63 1038 1363.43 1038 1365.33C1038 1367.23 1036.3 1369.03 1034.3 1369.03Z" fill="black"/>
</svg>
