<?xml version="1.0" encoding="utf-8"?>
<!-- Generator: Adobe Illustrator 24.3.0, SVG Export Plug-In . SVG Version: 6.00 Build 0)  -->
<svg version="1.1" id="Car_1_" xmlns="http://www.w3.org/2000/svg" xmlns:xlink="http://www.w3.org/1999/xlink" x="0px" y="0px"
	 viewBox="0 0 4800 1600" style="enable-background:new 0 0 4800 1600;" xml:space="preserve">
<style type="text/css">
	.st0{clip-path:url(#BG_1_);}
</style>
<g>
	<defs>
		<rect id="BG" width="4800" height="1600"/>
	</defs>
	<clipPath id="BG_1_">
		<use xlink:href="#BG"  style="overflow:visible;"/>
	</clipPath>
	<path id="Car" class="st0" d="M4262.6,1425.2l-0.5-0.3c-7.9-4.5-10.5-14.9-10.3-22.4c0.2-6,2-10.7,4.9-12.7
		c11.2-46.6,15.5-99.7,12.5-153.7c-3.1-54.7-13.7-110.5-30.8-161.3c-38.2-113.7-105.7-198-190-237.3
		c-91.8-42.8-180.9-63.7-264.6-62.2c-78.3,1.4-150.1,22.3-213.6,62.1c-69.9,43.8-128,110.6-168.1,193.2
		c-40.1,82.5-62,180.8-63.6,284.1c-0.8,54.3-6.4,61.9-20.9,68.7c-15.9,7.5-44.7,6.7-88.1-2.7c-37.6-8.1-152.5-10.6-493.8-18.2
		c-95.9-2.1-204.6-4.5-335.9-7.6c-243.2-0.4-347.4-5-409.6-7.8c-92.8-4.1-94.6-4.2-328.8,19.7c-44.8,9.7-112.1,19.1-121.7,9.3
		l-0.5-0.5l-0.1-0.7c-4.9-42.2-5.3-76.1-5.7-108.9c-0.7-52.1-1.3-101.3-19.2-178c-19.3-55.7-45.2-106.2-77.2-150.3
		c-30.2-41.7-65.7-77.5-105.6-106.6c-75.8-55.3-164.6-84.5-256.7-84.5c-60.4,0-117.6,9.9-169.7,29.5c-53,19.9-99.8,49.3-139.1,87.4
		c-84,81.4-130.7,199.9-134.9,342.7c-1.6,30.4-2.1,78,3.1,84.8c6.2,8.2,14.8,10,21.1,11.3c4.8,1,8.7,1.8,9.9,5.1
		c0.4,1.1,0.3,2.3-0.4,3.3c-1.6,2.3-6.9,5.2-34.1,6.3c-10.3,0.4-22.4,0.6-36.1,0.4l-0.3,0c-66.3-1.1-260.4-31.5-376.3-49.7
		c-45.1-7.1-77.7-12.2-88.8-13.4l-0.4,0l-0.4-0.2c-1.2-0.7-29.6-16.9-46.1-43c-16.5-25.9-41.5-281.1-42.6-292l0-0.2
		c0-1.1,0.1-26,8.5-42.1c8.7-16.6,48.6-36.5,55.4-39.8c5.7-27.7,68.4-95,85.3-107c3-18.3,34.6-34.1,57.7-45.8
		c4.5-2.3,8.7-4.4,12.1-6.2c37.6-20.5,73.2-39.8,81-68.3c4-14.4,0.7-30.3-10.1-48.6l-0.1-0.2c-0.3-0.7-32.8-72.3-52.6-104.4
		l-0.1-0.1c-12-22.7-14.4-39.8-7.6-52.4c8.3-15.1,30-23.6,68.2-26.8l0.2,0c38.5-0.1,76.3,7.3,112.4,21.9
		c29.1,11.8,56.2,27.9,80.8,47.9c1.1,0.6,9.3,5.1,16.2,4.7c23.4-2.6,47.3-5.4,70.4-8.1c48.4-5.7,98.5-11.5,148-15.9
		c40.6-6.2,68.5-19.4,98.1-33.4c9-4.3,18.4-8.7,28.1-12.9c131.4-56.7,322.5-128.7,475.5-179.3c1.3-0.4,121.2-36.4,139.6-44.3
		c8.1-3.5,12.4-11.9,16.8-20.7c5.2-10.3,10.6-21,22.8-23.7c232.7-52.8,478-66.7,642.8-69.1c214.5-3.2,391.5,12.4,405.7,21.9
		c29,19.5,206.4,154.5,349,263c105.3,80.1,196.2,149.3,200.9,151.9c11.9,6.6,52.9,23.1,76.1,25.7l6.2,0.7
		c124.6,13.8,548.1,61.6,765,96.3c102.6,15.1,302.3,50.1,395.2,73.8l0.2,0.1l0.2,0.1c26.8,14.3,88.7,77.1,138.4,127.6
		c30.2,30.7,56.4,57.2,67.7,65.9c14,11.4,37.4,25.8,60,39.8c22.5,13.9,43.8,27,51.9,34.9c15.7,15.4,39,55.6,40,57.3
		c0.5,0.8,10.9,19.3,12,29c2.5,21.3-1.6,77.2-4.1,110.6c-0.8,10.6-1.4,19-1.6,23.8l0,0.1c-4.2,35.7-14.3,130.6-10.8,140.5
		c4.3,12.3,7.9,13.7,12.4,15.5l0.4,0.1l0.3,0.3c5.4,5.1,7.2,11,5.2,17.3c-6.7,20.4-54.1,42.1-105.7,48.2
		c-95.9,11.4-274.1,31.2-390.7,36L4262.6,1425.2z M3792.4,771.2c81.8,0,168.4,21.1,257.7,62.6c85.3,39.8,153.5,124.9,192.1,239.6
		c17.2,51.1,27.9,107.3,31,162.4c3.1,54.7-1.4,108.6-12.8,155.7l-0.2,0.9l-0.8,0.4c-2,1-3.4,4.9-3.5,9.8c-0.2,6.7,2.2,15,7.8,18.5
		c116.5-4.9,294.1-24.6,389.8-36c49.3-5.9,96.2-26.7,102.4-45.5c1.5-4.7,0.3-8.9-3.8-12.9c-5.7-2.3-9.9-5-14.4-17.8
		c-4.4-12.6,9-128.7,10.6-142.2c0.2-4.9,0.9-13.2,1.6-23.8c2.4-33.3,6.5-89,4.1-109.9c-0.9-8.9-11.3-27.3-11.5-27.4
		c-0.2-0.4-24-41.4-39.4-56.5c-7.7-7.6-28.8-20.6-51.2-34.4c-22.8-14-46.3-28.6-60.4-40.1c-11.5-8.8-37.7-35.4-68-66.2
		c-49.4-50.1-110.9-112.5-137.2-126.8c-92.8-23.7-292.2-58.6-394.6-73.7c-216.9-34.7-640.2-82.5-764.8-96.3l-6.2-0.7
		c-24.6-2.8-66-19.8-77.5-26.1c-4.9-2.7-91.6-68.7-201.4-152.2c-142.5-108.5-319.9-243.4-348.8-262.9c-5.5-3.7-49.1-10-121.7-14.9
		c-83.6-5.6-183.7-7.8-281.8-6.4c-164.6,2.4-409.7,16.3-642,69.1c-10.4,2.3-15.1,11.7-20.1,21.6c-4.6,9.1-9.3,18.5-18.8,22.6
		c-18.7,8.1-135.1,43-140,44.5c-152.8,50.5-343.8,122.5-475.1,179.1c-9.7,4.2-19,8.6-28,12.8c-29.9,14.1-58.1,27.4-99.3,33.7l-0.1,0
		c-49.5,4.4-99.6,10.2-148,15.9c-23.1,2.7-47.1,5.5-70.6,8.1c-8.7,0.5-18.3-5-18.7-5.3l-0.3-0.2c-31.6-25.8-98.3-69-190-69
		c-0.2,0-0.4,0-0.6,0c-36.7,3-57.3,10.9-64.9,24.7c-6.2,11.2-3.7,27.1,7.6,48.5c19.6,31.8,51.3,101.6,52.7,104.7
		c11.3,19.2,14.8,36.1,10.5,51.6c-8.3,30.2-44.6,49.9-83,70.8c-3.4,1.9-7.7,4-12.2,6.3c-21.4,10.8-53.8,27.1-55.7,43.6l-0.1,0.9
		l-0.8,0.5c-15.2,10.1-80.5,80-84.5,105.8l-0.2,1l-1,0.5c-0.5,0.2-45.8,21.9-54.5,38.5c-7.7,14.8-8.1,38.5-8.1,40.2
		c0.6,6.4,26.1,265.2,42,290.1c15,23.7,41.1,39.5,44.4,41.4c11.6,1.3,43.9,6.4,88.5,13.4c115.9,18.2,309.8,48.6,375.8,49.7l0.3,0
		c48.7,0.5,64.7-2.7,66.8-4.9c-0.7-1.1-3.7-1.8-6.9-2.4c-6.9-1.5-16.4-3.4-23.5-12.8c-7.7-10.2-4.3-79.5-3.9-87.4
		c4.2-143.8,51.3-263.2,136.1-345.4c39.7-38.5,87-68.2,140.5-88.2c52.6-19.7,110.2-29.7,171.1-29.7c93,0,182.6,29.5,259.1,85.3
		c40.2,29.3,76,65.5,106.5,107.5c32.2,44.4,58.3,95.3,77.7,151.4l0.1,0.2c18.1,77.2,18.7,126.6,19.4,178.9
		c0.4,32.5,0.8,66,5.6,107.7c8.4,6,63.5,0.9,117.7-10.8l0.2,0c234.7-24,236.4-23.9,329.5-19.8c62.2,2.8,166.4,7.4,409.5,7.8
		c131.3,3.1,240,5.5,335.9,7.6c341.5,7.6,456.6,10.1,494.5,18.3c41.9,9,70.7,10,85.5,2.9c12-5.6,17.8-10.7,18.6-65.1
		c1.5-103.9,23.7-202.7,64-285.8c40.4-83.2,99-150.6,169.6-194.8c64.1-40.2,136.7-61.3,215.7-62.7
		C3786.6,771.3,3789.5,771.2,3792.4,771.2z M358.4,847.8c-0.1-0.9-2.8-21-7.1-33.3c-0.8-2.3-1.4-5.3-2.2-8.7
		c-2.8-13.6-7.1-34.2-33-52.5l-0.2-0.1c-0.6-0.3-15-8-32-10.4c-16.7-2.3-101.3-3.4-104.8-3.4l0,4c0.9,0,87.9,1.1,104.3,3.4
		c15.5,2.2,29.2,9.2,30.5,9.9c24.5,17.4,28.6,37,31.3,50c0.7,3.6,1.4,6.6,2.3,9.2c3.3,9.5,5.7,24.4,6.6,30.1l-248.4-9.3l-0.1,4
		l250.8,9.4l2.4,0.1L358.4,847.8z M748.8,868.3L356.5,846l-0.2,4l392.3,22.3L748.8,868.3z M3343.3,1241.6l-1.7-3.6
		c-0.2,0.1-16.5,7.9-34.6,7.9c-11.5,0-29.9-3.2-47.6-6.4c-10.8-1.9-22-3.9-31.5-5.1c-25.1-3.1-49.4-5.7-115-8.3
		c-64.3-2.6-391.4-9.6-394.7-9.7l-371.5-7.8l-291.3-8.3c-1.6-0.1-161.6-9.1-280.8-7.6c-119.1,1.5-240.6,4.6-241.8,4.6l0.1,4
		c1.2,0,122.7-3.1,241.8-4.6c119-1.5,279,7.5,280.6,7.6l291.4,8.3l371.5,7.8c3.3,0.1,330.4,7.1,394.7,9.7
		c65.4,2.6,89.7,5.2,114.6,8.3c9.4,1.2,20.5,3.2,31.3,5.1c17.9,3.2,36.4,6.4,48.3,6.4C3325.9,1249.9,3342.6,1241.9,3343.3,1241.6z
		 M3178.7,1118.7c18.6-172.9,46.8-434.3-14.7-512.5c-16.8-21.3-53.6-36.8-109.2-46.1c-41.2-6.8-78-7.5-78.5-7.5
		c-0.3,0-29.7,0.7-50.2-7.7c-20-8.2-24.9-14.2-25-14.2l-0.6-0.8h-20.5v4h18.6c2,2,8.6,7.7,25.9,14.8c21.2,8.7,50.6,8,51.7,7.9
		c1.5,0,145.7,2.9,184.5,52c60.5,77,32.4,337.3,13.8,509.6c-4.9,45.3-9.1,84.3-10.9,112.4l4,0.3
		C3169.7,1202.9,3173.9,1163.9,3178.7,1118.7z M2649.5,507.9h-531.3l-564.9-7.8l-1,0c-3.1,0-14.6,0.2-31.7,0.2
		c-49.4,0-145.3-1.4-232.7-10.5c-47.7-5-86.2-11.7-114.5-19.8c-41.6-12-46.3-23.3-46.4-23.4c-0.8-2.1-1.3-4.7,1.1-9.6
		c3.7-7.9,14.2-21.4,43.7-40.9c21.2-13.9,48.2-28.2,80.4-42.6c56.1-25.3,108.1-42.2,109.9-42.8l0.8-0.2c0,0,0.2-0.1,0.6-0.2
		c15-5.3,69.3-24.4,141-46.1c75.3-22.7,185-52.9,280.4-67.6c176.1-27.1,423.1-36.3,450.7-37.3l0.3,0c0,0,0.2,0,0.7,0
		c8.6-0.2,31.7-0.8,61.5-0.8c34.1,0,84.3,0.8,130.1,4.4c5.8,0.6,11.2,1,16.3,1.5c30,2.6,48.2,4.2,72.3,19
		c23.7,14.5,52.8,41.4,107.4,99.2c37.4,39.5,76.9,88.6,92.1,107.9l3.1-2.5c-15.3-19.3-54.8-68.5-92.3-108.1
		c-106.5-112.8-122.6-114.2-182.3-119.4c-5.2-0.5-10.5-0.9-16.3-1.5c-45.9-3.6-96.3-4.4-130.5-4.4c-29.9,0-53.1,0.5-61.7,0.8l-1,0
		c-27.6,1-274.9,10.1-451.2,37.3c-95.6,14.8-205.6,45-281,67.8c-71.8,21.7-126.2,40.8-141.2,46.1l-1.1,0.4l0,0
		c-3.9,1.2-55.1,18-110.4,43c-32.4,14.5-59.6,28.9-81,43c-30.2,20-41.2,34.1-45.1,42.5c-3,6.3-2.2,10.1-1.2,12.8
		c0.8,2.2,7.2,13.7,49,25.8c28.5,8.2,67.2,15,115.1,20c87.5,9.1,183.6,10.5,233.1,10.5c17.2,0,28.6-0.2,31.8-0.2l0.9,0l564.9,7.8
		h531.3V507.9z M2702.4,534H2118l-565-7.8c-0.1,0-12.3,0.2-32.3,0.2c-50,0-147.2-1.4-235.4-10.6c-109.6-11.5-170.9-31.4-182.2-59.3
		c-3.9-9.6-3.3-19.8,1.6-30.4c13.6-29.1,59.7-61.5,137.3-96.4c57.5-25.9,111.8-43.6,112.3-43.7c2.3-0.8,241-86.5,426.8-115.1
		c185.8-28.7,451.5-37.5,454.1-37.6c0.3,0,26.5-0.8,63-0.8c87.5,0,199.7,4.4,237,25.4c56.9,31.7,218.7,215.7,226.1,224.1l16.9,17.4
		l-9.1-3.8c-11.9-5-22.9-7.4-32.7-7c-6,0.2-11.8,1-17.7,2.5c-21.1,5.3-40.6,19-54.9,38.6c-12.8,17.6-20.1,38.3-19.4,55.4l0,0.3
		l-0.1,0.3c-0.1,0.4-2.7,11.3,6.7,23.3c3.5,4.5,8.3,8.6,14.3,12.1c7.2,4.4,19.7,7.4,37.3,9.1L2702.4,534z M1553,522.2L2118,530
		h559.8c-6.1-1.6-10.9-3.5-14.6-5.7c-6.3-3.8-11.5-8.2-15.3-13.1c-9.9-12.6-8-24.3-7.5-26.4c-0.6-17.9,6.9-39.4,20.1-57.6
		c14.8-20.3,35.1-34.6,57.2-40.1c6.1-1.6,12.2-2.5,18.5-2.7c8-0.3,16.7,1.1,26,4.2l-3.9-4.1c-1.7-1.9-168.7-191.9-225.1-223.3
		c-16.5-9.3-69-24.8-235-24.8c-36.4,0-62.6,0.8-62.8,0.8c-2.7,0.1-268.1,8.9-453.7,37.6c-185.5,28.5-423.7,114-426.1,114.9
		c-2.2,0.7-215.8,70.6-247.3,138.1c-4.5,9.6-5,18.7-1.5,27.2c10.6,26,72.5,45.7,179,56.8c88.1,9.2,185,10.6,235,10.6
		C1540.6,522.4,1552.8,522.2,1553,522.2z M2904.9,533.9H2878l0.2-2.2c0.3-4.5,0.6-10.1,0.1-17l-0.4-4.9L2904.9,533.9z M2882.3,529.9
		h12.1l-11.9-10.6C2882.7,523.3,2882.5,526.8,2882.3,529.9z M1846,505.5l-101.4-304.4l-3.8,1.3l101.4,304.4L1846,505.5z
		 M1781.1,504.6l-99.3-290.3l-3.8,1.3l99.3,290.3L1781.1,504.6z M2566.8,509.2l-129.1-348.6l-3.8,1.4L2563,510.6L2566.8,509.2z
		 M2541,509.2l-132.2-350.8l-3.7,1.4l132.2,350.8L2541,509.2z M3171.3,1181.8l-315.7-9.6c-4.4-0.1-443.8-9.9-565-12.5
		c-20.4-0.4-40.6-0.7-60.2-0.9c-99.3-1.2-185.1-2.2-224.7-25.9c-39-23.3-75.8-114-100.3-174c-5.4-13.3-10.1-24.8-14.2-34.3
		c-23.2-53-70.5-198.6-70.9-200.1c-0.3-0.9-29.1-87.8-29.1-129.8c0-36.9,14.2-66,14.4-66.3l-3.6-1.8c-0.1,0.3-14.8,30.3-14.8,68.1
		c0,42.6,28.1,127.4,29.3,131c0.5,1.5,47.8,147.3,71.1,200.5c4.1,9.4,8.8,20.9,14.2,34.2c24.6,60.5,61.8,151.9,101.9,175.9
		c40.5,24.2,126.8,25.3,226.7,26.5c19.6,0.2,39.8,0.5,60.2,0.9c121.2,2.6,560.6,12.4,565,12.5l315.7,9.6L3171.3,1181.8z
		 M4573.2,958.7c0.3,0,27.5-0.9,55.2-2.4c56.6-3.1,59.6-5.7,60.9-6.8c5.9-5.1,3.5-12,1.4-14.9l-3.2,2.3c0.4,0.6,3.8,5.6-0.8,9.5
		c-4.9,3.6-72.3,6.9-113.5,8.2h-385.9v4L4573.2,958.7z M4679.9,1131c-2.7,0-4.6,0-5.5-0.1l-114,0c-17.9,0-41.6-25.5-42.7-54.2
		c-0.6-15.6,0.9-23.5,5.4-28.2c4.2-4.3,10.5-5.2,19.4-5.2c18.2,0,52.6,0.2,85.8,0.4c30.3,0.2,59,0.3,72.9,0.3
		c8.1,0,14.1-0.3,18.9-0.5c12.6-0.6,16.4-0.7,19.1,7.6c3.1,9.5,1.8,60.8-7.7,70.9C4723.9,1130.1,4693,1131,4679.9,1131z
		 M4542.6,1047.3c-9.2,0-13.7,1.1-16.5,4c-3.6,3.7-4.8,11-4.3,25.2c1,25.9,22.6,50.4,38.7,50.4h114c0.2,0,11.8,0.3,24.4-0.6
		c21.6-1.5,27.9-5.1,29.8-7.1c8-8.5,10-57.5,6.9-66.9c-1.7-5.3-2.2-5.4-15.1-4.8c-4.6,0.2-10.9,0.5-19.1,0.5
		c-13.9,0-42.5-0.2-72.9-0.3C4595.2,1047.5,4560.8,1047.3,4542.6,1047.3z M2812.4,586.5c-2.2,0-4.4-0.1-6.5-0.2
		c-35.1-2-51.5-8.4-58.8-23c-1.3-2.7-1.4-5.5-0.3-8.5c3.1-8.4,15.7-16.4,24.1-20.9h-68.3c-0.1,0-0.1,0-0.2,0
		c-18.2-1.8-31.3-5-38.9-9.7c-6.5-4-11.6-8.4-15.3-13.1c-9.9-12.6-8-24.3-7.5-26.4c-0.6-17.9,6.9-39.4,20.1-57.6
		c14.8-20.3,35.1-34.6,57.2-40.1c5.7-1.5,11.7-2.3,18.5-2.7c10.1-0.4,21.7,2.1,34.5,7.3c51.8,21.9,105.1,84.6,109.3,106.2
		c1.3,6.8,2,12.1,2.3,16.7c0.4,6.4,0.3,12-0.2,17.6c-0.2,2.6-0.5,5.2-0.9,8c-0.5,4.1-1,8.2-1.3,13.1
		C2878.4,573.2,2844.3,586.5,2812.4,586.5z M2702.6,529.9h76.8c0.9,0,1.8,0.7,2,1.6c0.2,0.9-0.3,1.9-1.2,2.2
		c-0.1,0-6.6,2.9-13.5,7.2c-8.9,5.5-14.5,10.8-16.1,15.3c-0.7,1.9-0.7,3.7,0.2,5.3c6.5,13.1,22,18.9,55.4,20.8
		c34.5,2.1,68.5-12.3,69.9-29.5c0.4-4.9,0.9-9.2,1.3-13.3c0.3-2.7,0.6-5.3,0.9-7.9c0,0,0,0,0,0c0.5-5.4,0.6-10.8,0.2-17
		c-0.3-4.3-1-9.5-2.3-16.1c-4-20.3-57.1-82.2-106.9-103.2c-12.2-5-23.2-7.4-32.7-7c-6.5,0.3-12.3,1.1-17.7,2.5
		c-21.1,5.3-40.6,19-54.9,38.6c-12.8,17.6-20.1,38.3-19.4,55.4c0,0.2,0,0.4-0.1,0.6c-0.1,0.4-2.7,11.3,6.7,23.3
		c3.4,4.3,8.2,8.4,14.3,12.1C2672.6,525.1,2685.1,528.2,2702.6,529.9z M2829.7,542.5c25.3-2,50.9-8.6,51.1-8.7l-1-3.9
		c-0.3,0.1-25.5,6.6-50.5,8.5c-24.6,1.9-48.9-8.3-49.2-8.4l-1.6,3.7c0.9,0.4,21.3,9,44.3,9C2825.1,542.8,2827.4,542.7,2829.7,542.5z
		 M801.1,424.2l-1.8-3.6c-9.8,4.9-18.2,15.3-24.9,31.2c-5,11.6-7.1,21.7-7.2,22.1l3.9,0.8C771.1,474.3,779.7,434.8,801.1,424.2z
		 M1227.4,302.9c2.2-0.8,226.7-78.7,418.4-116.5c201.4-39.7,338.5-49.1,472.7-55.8c177.3-8.8,280.3-7.3,344.5,4.9
		c62.7,12,88.9,34.1,121.6,66.4l2.8-2.8c-65.8-64.9-106.9-90.5-469.1-72.5c-134.3,6.7-271.6,16-473.3,55.8
		c-192,37.9-416.7,115.9-419,116.7c-8.8,3.3-882.6,326.4-984.2,388l2.1,3.4C345.2,629.1,1218.6,306.1,1227.4,302.9z M3074.8,522.3
		c42.3-7.2,75.1-18.3,85.8-29l-2.8-2.8c-10.1,10.1-42.1,20.8-83.6,27.9c-44.4,7.5-89.1,9.3-122.7,4.9c-38.4-8.2-88.7-68.8-89.2-69.4
		l0,0l-274.9-296.1c-22.5-23.5-28.3-49.2-24.2-63.2c3.5-12.1,14.1-20.3,31.5-24.6l-1-3.9c-18.9,4.6-30.4,13.9-34.4,27.4
		c-3,10.2-1.4,22.7,4.5,36.2c4.8,10.9,12.3,22.1,20.6,30.9l274.8,296c0.8,1,13.4,16.1,30.5,32c23.7,22.1,44.2,35.1,61,38.7l0.2,0
		c12.3,1.6,26.2,2.4,40.9,2.4C3017.6,529.6,3046.3,527.1,3074.8,522.3z M3145.5,484.5l-2.4-3.2c-12.5,9.5-41.4,18.8-75.3,24.5
		c-38.3,6.4-77.8,7.5-111.1,3c-15.8-3.3-36.1-15.9-58.6-36.3c-17.2-15.5-29.7-30.3-29.9-30.5l-266.8-287.2
		c-21.7-22.7-22.2-34.9-20.6-42.1c2.4-11.4,14.2-21.4,34.8-29.7l-1.5-3.7c-22.3,9-34.5,19.7-37.3,32.6c-3.6,16.8,9.7,33.2,21.6,45.7
		l266.7,287.1c2.1,2.4,50.9,59.7,90.7,68.1l0.1,0c13.9,1.8,28.5,2.7,43.3,2.7C3060.5,515.5,3123.5,501.1,3145.5,484.5z M1957.2,713
		c-0.4,0-0.8,0-1.3,0c-25-0.2-43.6-7.8-53.9-22l-0.4-0.6l0-0.7c0-0.5,0-1,0-1.6c-0.1-2.8-0.3-6.7,3.2-10.3
		c6.9-7.3,26.3-10.8,61.1-11c35.3-0.2,54.7,3.2,59.3,10.6c1.3,2.2,1.4,4.7,0.2,7.1l-0.1,0.2c-0.6,1-1.4,2-2.3,2.9
		C2014.9,697.1,1995.7,713,1957.2,713z M1905.6,689.1c9.6,12.8,27,19.7,50.3,19.9c0.4,0,0.8,0,1.2,0c36.9,0,55.2-15,62.8-24
		c0.7-0.8,1.4-1.6,1.9-2.4c0.7-1.5,0.3-2.4-0.1-3c-5.1-8.2-40.8-8.9-55.9-8.8c-32.7,0.2-52.3,3.5-58.3,9.8c-2.3,2.4-2.2,4.9-2.1,7.4
		C1905.6,688.4,1905.6,688.8,1905.6,689.1z M1997.2,651c-8.8,0-20.8-0.6-37.4-2.1c-51.2-4.6-55.3-9.7-55.5-16.4c0-0.3,0-0.6,0-0.8
		l-0.1-0.9l0.7-0.7c10.8-11,27.3-16.9,47.6-17c0.4,0,0.7,0,1.1,0c47.6,0,65.9,17.5,72.6,28l1.4,2.1l-2.4,0.8c-0.7,0.2-1,0.6-1.7,1.3
		C2020.8,647.8,2017.6,651,1997.2,651z M1908.3,632.2c0,0.1,0,0.1,0,0.2c0,1.7,0.1,3.2,5.5,5.2c7.6,2.8,22.8,5.2,46.3,7.3
		c53,4.8,57.8,0.1,60.4-2.5c0.3-0.3,0.7-0.6,1-1c-11.2-15.6-35.9-24.5-68.2-24.5c-0.3,0-0.6,0-1,0
		C1933.6,617.1,1918.4,622.3,1908.3,632.2z M1880.6,695.9c-24.7,0-41.2-2.3-50.5-11.5c-5.4-5.3-8-12.5-8-22
		c0-20.8,15.1-33.4,43.8-36.3c11.9-1.2,37.6-0.7,40.7,1.7c1.4,1,1.7,2.4,1.8,3.4c0,0.4,0,0.8,0,1.2c0,1.7,0,3.1,5.4,5.1
		c7.6,2.8,22.8,5.2,46.4,7.4c53,4.8,57.8,0.1,60.4-2.5c0.8-0.8,1.7-1.7,3.2-2.2c1.9-0.7,4.7-0.7,10.2,0c17.5,2.6,31.2,5.7,40.5,9.2
		c11,4.2,16.4,9,16.4,14.7c0,10.1-22.7,18-69.3,24.1l-5.9,0.8l4.3-4.3c0.3-0.3,1.1-1,1.7-2.1c0.7-1.5,0.3-2.5-0.1-3.1
		c-5.1-8.2-40.8-8.9-55.9-8.8c-32.9,0.2-52.5,3.5-58.4,9.8c-2.3,2.4-2.1,4.8-2,7.4c0,0.7,0.1,1.3,0.1,1.9c0,0.8-0.1,1.5-0.2,2.1
		l-0.1,0.2c-1.2,3.5-6.9,3.6-13,3.6c-0.6,0-1.1,0-1.7,0C1887.2,695.9,1883.8,695.9,1880.6,695.9z M1881.5,629.4
		c-5.2,0-10.5,0.2-15.1,0.7c-18.3,1.9-40.2,9-40.2,32.3c0,8.4,2.2,14.7,6.8,19.2c9.5,9.3,28.3,10.8,57.6,10.2c0.6,0,1.1,0,1.7,0
		c2.6,0,8.1-0.1,9.2-1c0.1-0.3,0.1-0.7,0.1-1c0-0.5,0-1.1-0.1-1.6c-0.1-2.8-0.4-6.7,3.1-10.3c4.3-4.6,15.3-10.7,61.3-11
		c35.3-0.2,54.7,3.2,59.3,10.6c1.2,1.9,1.4,4.1,0.6,6.3c56.9-7.9,61.4-16.9,61.4-19.5c0-4.5-6.9-13.1-53.4-19.9
		c-4.6-0.6-7.1-0.7-8.3-0.2c-0.7,0.3-1.1,0.6-1.8,1.3c-3.7,3.6-8.7,8.6-63.6,3.6c-51.5-4.7-55.5-9.8-55.5-16.5c0-0.3,0-0.6,0-0.8
		c-0.1-0.5-0.1-0.5-0.3-0.7C1902.6,630.2,1892.3,629.4,1881.5,629.4z M1904.3,631C1904.3,631,1904.3,631,1904.3,631
		C1904.3,631,1904.3,631,1904.3,631z M1904.2,631C1904.2,631,1904.2,631,1904.2,631C1904.2,631,1904.2,631,1904.2,631z M500.7,516.3
		c1.6,0,18.5,0.3,59.3-6c38.7-5.9,107.2-19.1,213.7-48.2l-1.1-3.9c-203.1,55.5-271.2,54.1-271.9,54l-0.1,0l-0.1,0
		c-56.2,4-122.3-43.5-141.2-58.2c-29.4-22.8-52.1-45.4-53.4-46.8c-0.7-0.8-8.9-11.4-2.3-20.8l-3.3-2.3c-6.9,9.8-1.3,21.1,2.6,25.7
		l0.1,0.1c0.2,0.2,23.4,23.6,53.9,47.2c11.7,9.1,35.6,26.3,63.8,39.8c27,12.9,51.5,19.4,73,19.4C496,516.5,498.4,516.5,500.7,516.3z
		 M426.4,496.3c0,0-0.3-2.1,2.3-5.4c6.6-8.6,30.9-24.5,118.8-34.9l-0.5-4c-38.9,4.6-106.5,15.5-121.9,37c-3.2,4.5-2.7,7.6-2.6,8
		L426.4,496.3z M4264.2,1421.2c-16.3-9-59.4-33.2-63.8-37.5c-1.2-1.2-1.1-3.2-0.7-6.6c0.7-6.5,1.7-16.4-11.2-27.4
		c-7.6-6.3-19.6-11.1-36.7-14.5l-0.8,3.9c16.5,3.3,27.9,7.8,34.9,13.7c11.4,9.6,10.5,17.5,9.8,23.9c-0.4,3.7-0.8,7.3,1.9,9.9
		c5.5,5.4,58.6,34.8,64.6,38.1L4264.2,1421.2z M3468.1,1338.9l-0.2-4c-94.4,4.8-133,11.2-133.3,11.2l0.7,3.9
		C3335.6,1350,3374,1343.6,3468.1,1338.9z M1536.8,1298.8l-91.5-9.1l-0.4,4l91.5,9.1L1536.8,1298.8z M668.3,1300.2
		c3.3-2.7,8.5-1.8,8.6-1.7l0.2,0h28v-4h-27.6c-1.2-0.2-7.3-1-11.6,2.6c-2.9,2.4-4.4,6.1-4.4,11.1h4
		C665.4,1304.5,666.4,1301.8,668.3,1300.2z M881.7,407.8c12.3-4.7,36.4-14.6,69.8-28.3c76.5-31.6,204.6-84.4,330.9-130.8
		c177.7-65.4,203.7-78.6,204.7-79.1l-1.8-3.6c-0.3,0.1-27.3,13.8-204.3,78.9c-126.4,46.5-254.5,99.3-331.1,130.9
		c-33.3,13.7-57.4,23.7-69.7,28.3c-39.1,14.8-48.9,6.6-49,6.6l-2.8,2.8c0.6,0.6,4,3.5,13.8,3.5C850.4,416.9,862.9,414.9,881.7,407.8
		z M3408.7,530.4l-1.9,0.7l3.8-1.3c-0.2-0.5-4.2-11.3-21.4-13.5c-17.3-2.2-22.7,6.7-22.9,7.1l3.5,2c0.2-0.3,4.4-7,18.9-5.1
		c14.7,1.9,18,10.5,18.2,10.9L3408.7,530.4z M3222.2,507.7c-0.4-0.4-10.3-10.1-25.3-14.3c-14.9-4.3-28.1-1.3-28.6-1.1l0.9,3.9
		c0.1,0,12.7-2.9,26.6,1.1c13.9,3.9,23.4,13.2,23.5,13.3L3222.2,507.7z M3207.6,499.8l-3.7-1.6c2.6-6.1,2-10.5,1.6-13.4
		c-0.3-2-0.5-3.7,0.9-4.8c1.4-1.1,3.3-0.6,6.2,0.5c7.9-7,11.4-12.7,10-16.5c-4.1-11.4-45.3-11.9-78.3-12.3
		c-23.7-0.3-44.2-0.5-51.8-4.3l1.8-3.6c6.8,3.4,27.8,3.6,50.1,3.9c37.9,0.5,77,0.9,82.1,14.9c2.1,5.9-1.8,13-12,21.7
		c-0.6,0.5-1.3,0.6-2,0.3c-1.4-0.5-2.2-0.8-2.8-1c0,0.2,0.1,0.4,0.1,0.6C3209.9,487.2,3210.7,492.7,3207.6,499.8z M3160.9,493
		l-3.5-2c0.3-0.5,6.7-11.2,17.5-10.3c0.5-0.7,1.1-1.6,2.1-2.5l-14.6,1.1c-0.5,0-0.9-0.1-1.3-0.4c-11.7-8.5-30.3-11.9-43.9-13.2
		l0.4-4c13.9,1.3,32.9,4.8,45.3,13.5l22.6-1.6c1-0.1,1.9,0.6,2.1,1.6c0.2,1-0.4,2-1.4,2.3c-6.2,1.8-8.2,6-8.3,6.2
		c-0.4,0.8-1.3,1.3-2.2,1.1C3166.7,483.2,3161,492.9,3160.9,493z M4535.7,815.6c-0.5-1.3-13.4-31.3-53.8-70.3
		c-65-62.9-83.1-60.9-84.9-60.5l0.8,3.9c0.2,0,18-1.8,81.3,59.5c39.7,38.3,52.7,68.6,52.8,68.9L4535.7,815.6z M3809.6,1555.7
		c-51.3,0-101-10-147.8-29.8c-45.2-19.1-85.8-46.5-120.7-81.4s-62.2-75.5-81.4-120.7c-19.8-46.8-29.8-96.5-29.8-147.8
		s10-101,29.8-147.8c19.1-45.2,46.5-85.8,81.4-120.7s75.5-62.2,120.7-81.4c46.8-19.8,96.5-29.8,147.8-29.8c51.3,0,101,10,147.8,29.8
		c45.2,19.1,85.8,46.5,120.7,81.4s62.2,75.5,81.4,120.7c19.8,46.8,29.8,96.5,29.8,147.8s-10,101-29.8,147.8
		c-19.1,45.2-46.5,85.8-81.4,120.7s-75.5,62.2-120.7,81.4C3910.6,1545.7,3860.9,1555.7,3809.6,1555.7z M3809.6,800.3
		c-50.7,0-99.9,9.9-146.2,29.5c-44.7,18.9-84.9,46-119.4,80.5c-34.5,34.5-61.6,74.7-80.5,119.4c-19.6,46.3-29.5,95.5-29.5,146.2
		s9.9,99.9,29.5,146.2c18.9,44.7,46,84.9,80.5,119.4c34.5,34.5,74.7,61.6,119.4,80.5c46.3,19.6,95.5,29.5,146.2,29.5
		s99.9-9.9,146.2-29.5c44.7-18.9,84.9-46,119.4-80.5c34.5-34.5,61.6-74.7,80.5-119.4c19.6-46.3,29.5-95.5,29.5-146.2
		s-9.9-99.9-29.5-146.2c-18.9-44.7-46-84.9-80.5-119.4c-34.5-34.5-74.7-61.6-119.4-80.5C3909.5,810.2,3860.3,800.3,3809.6,800.3z
		 M3809.7,1487.7c-83.3,0-161.5-32.4-220.4-91.3S3498,1259.3,3498,1176s32.4-161.5,91.3-220.4s137.1-91.3,220.4-91.3
		s161.5,32.4,220.4,91.3c58.9,58.9,91.3,137.1,91.3,220.4s-32.4,161.5-91.3,220.4C3971.2,1455.3,3893,1487.7,3809.7,1487.7z
		 M3809.7,868.3c-82.2,0-159.5,32-217.6,90.1c-58.1,58.1-90.1,135.4-90.1,217.6s32,159.5,90.1,217.6
		c58.1,58.1,135.4,90.1,217.6,90.1s159.5-32,217.6-90.1c58.1-58.1,90.1-135.4,90.1-217.6s-32-159.5-90.1-217.6
		C3969.2,900.3,3891.9,868.3,3809.7,868.3z M3809.7,1468.6c-78.2,0-151.6-30.4-206.9-85.7s-85.7-128.7-85.7-206.9
		s30.4-151.6,85.7-206.9c55.3-55.3,128.7-85.7,206.9-85.7s151.6,30.4,206.9,85.7s85.7,128.7,85.7,206.9
		c0,78.2-30.4,151.6-85.7,206.9S3887.8,1468.6,3809.7,1468.6z M3809.7,887.4c-77.1,0-149.6,30-204.1,84.5s-84.5,127-84.5,204.1
		s30,149.6,84.5,204.1s127,84.5,204.1,84.5s149.6-30,204.1-84.5s84.5-127,84.5-204.1c0-77.1-30-149.6-84.5-204.1
		S3886.8,887.4,3809.7,887.4z M3809.7,1452.9c-152.7,0-276.9-124.2-276.9-276.9s124.2-276.9,276.9-276.9
		c152.7,0,276.9,124.2,276.9,276.9S3962.4,1452.9,3809.7,1452.9z M3809.7,903.1c-150.5,0-272.9,122.4-272.9,272.9
		s122.4,272.9,272.9,272.9s272.9-122.4,272.9-272.9S3960.2,903.1,3809.7,903.1z M3809.7,1434.9c-69.2,0-134.2-26.9-183.1-75.8
		c-48.9-48.9-75.8-113.9-75.8-183.1s26.9-134.2,75.8-183.1c48.9-48.9,113.9-75.8,183.1-75.8s134.2,26.9,183.1,75.8
		c48.9,48.9,75.8,113.9,75.8,183.1s-26.9,134.2-75.8,183.1C3943.9,1408,3878.9,1434.9,3809.7,1434.9z M3809.7,921.1
		c-68.1,0-132.1,26.5-180.2,74.7c-48.1,48.1-74.7,112.2-74.7,180.2s26.5,132.1,74.7,180.2c48.1,48.1,112.2,74.7,180.2,74.7
		s132.1-26.5,180.2-74.7c48.1-48.1,74.7-112.2,74.7-180.2s-26.5-132.1-74.7-180.2C3941.8,947.6,3877.8,921.1,3809.7,921.1z
		 M3921.3,1391.8h-1.5l-0.4-0.2c-1.7-0.9-3.3-2.9-3.9-4l-83.2-143.6l2.2-0.8c12.4-4.5,23.2-12.2,31.3-22.4l1.5-1.8l111.2,123.5
		c0.3,0.3,2.4,2.6,2.4,5.6c0,1.6-1.4,3.5-2.3,4.4c-1,1-3.1,3.1-6.5,6.2c-3.8,3.4-10.1,8.8-18.8,15c-14,10.1-25.7,16.3-28.4,17.2
		C3924.4,1391.1,3922.8,1391.8,3921.3,1391.8z M3920.9,1387.8h0.4c0.5,0,1.5-0.3,2-0.6l0.4-0.2h0.2c1.8-0.9,12.2-5.9,27-16.6
		c8.5-6.1,14.7-11.4,18.4-14.8c3.3-3,5.3-5,6.2-5.9l0.1-0.1c0.5-0.5,1-1.4,1.1-1.7c-0.1-1.2-0.9-2.4-1.3-2.7l-0.1-0.1l-108-120
		c-7.9,9.2-17.9,16.4-29.4,21l80.9,139.7C3919.2,1386.2,3920.1,1387.2,3920.9,1387.8z M3699.7,1391.3h-1.5c-1.2,0-2.4-0.4-3.1-0.7
		c0,0-0.1,0-0.1,0h-0.7l-0.5-0.4c-8.4-4.1-18.2-10.2-27.7-17c-15.6-11.3-24.3-20.2-25.2-21.2c-0.4-0.4-1-1.1-1.4-1.9
		c-0.5-0.9-0.9-1.8-0.9-2.5c0-3,2-5.2,2.2-5.5l0.2-0.2l110.9-123.4l1.5,1.8c8.7,10.6,19.5,18.4,31.4,22.4l2.3,0.8l-83.1,143.6
		c-0.6,1.1-2.2,3.1-3.9,4L3699.7,1391.3z M3695.6,1386.6l0.2,0c0.1,0,0.3,0.1,0.6,0.2c0.5,0.2,1.3,0.4,1.8,0.4h0.4
		c0.8-0.6,1.7-1.6,1.9-2.1l0.1-0.1l80.7-139.4c-11-4.2-21.1-11.4-29.4-21l-107.9,120l-0.3,0.3c-0.3,0.3-1.1,1.4-1.1,2.6
		c0,0.1,0.1,0.3,0.3,0.5l0.1,0.2c0.2,0.4,0.5,0.8,0.7,1c1,1,9.5,9.7,24.8,20.8C3677.8,1376.7,3687.4,1382.6,3695.6,1386.6
		C3695.6,1386.6,3695.6,1386.6,3695.6,1386.6z M3738,1175.1l-162-34.3c-0.5-0.2-3.4-1.2-5.1-3.2l-0.1-0.2c-1-1.5-0.8-4.4-0.7-4.7
		l0,0c0.2-1.7,2.2-14.2,8.1-32.3c3.6-11.1,8-21.7,12.3-29.9l0.4-0.7c0.2-0.5,1.4-3.1,3.2-3.4l0.5-0.1l0.4-0.6h1
		c1.3,0,2.5,0.4,3.3,0.8l0.5,0.2l151.7,67.5l-1.3,2c-7.3,10.8-11.5,23.5-12,36.6L3738,1175.1z M3577.1,1137.1l157.1,33.2
		c0.8-12.2,4.7-24,11.2-34.3l-147.3-65.5l-0.6-0.3c-0.2-0.1-0.4-0.2-0.7-0.3l-0.1,0.1l-1.6,0.3c-0.2,0.2-0.5,0.7-0.7,1.1l-0.3,0.6
		c-0.1,0.1-0.1,0.3-0.2,0.4c-4.2,8-8.5,18.4-12.1,29.3c-6,18.6-7.8,31-7.9,31.5c-0.1,0.8,0,1.7,0.1,2.1
		C3574.9,1136.2,3576.4,1136.8,3577.1,1137.1z M3574.1,1135.4L3574.1,1135.4L3574.1,1135.4z M3595.3,1070.2L3595.3,1070.2
		L3595.3,1070.2z M3881.4,1175.1l-0.1-2.4c-0.6-13.3-4.8-26-12-36.6l-1.4-2l151.6-67.7c0.7-0.3,2.2-0.8,4-0.8c0.5,0,0.9,0.2,1.2,0.4
		c0.2,0.1,0.2,0.1,0.3,0.1l0.3,0.1l0.3,0.2c1.3,0.7,2.4,2.2,2.9,3.1c0.7,0.8,7,12.5,12.9,30.8c5.7,17.5,7.8,29.9,8.1,32.2l0,0
		c0.2,1.1,0.2,3.8-0.8,5l-0.2,0.2c-1.6,2.3-4.4,3-5.2,3h-0.1L3881.4,1175.1z M3873.9,1136c6.5,10.2,10.4,21.9,11.3,34.3l157.6-33.4
		h0.4c0.4-0.1,1.5-0.5,2.2-1.4l0.2-0.3c0.1-0.4,0.2-1.3,0.1-1.9l0-0.2c-0.1-1-1.9-13-7.9-31.4c-5.7-17.7-11.3-28-12.1-29.4l-0.3-0.3
		l-0.1-0.3c-0.3-0.5-0.9-1.3-1.3-1.6c-0.3-0.1-0.6-0.2-0.8-0.3c0,0-0.1,0-0.1,0c-1.3,0.1-2.2,0.6-2.2,0.6l-0.4,0.2l-0.1,0
		L3873.9,1136z M4043.3,1136.9L4043.3,1136.9C4043.3,1136.9,4043.3,1136.9,4043.3,1136.9z M4045.5,1135.4L4045.5,1135.4
		C4045.5,1135.4,4045.5,1135.4,4045.5,1135.4z M4021.6,1067.9c0,0.1,0,0.1,0,0.2L4021.6,1067.9z M3788.5,1107.5L3771,942.4v-0.7
		c0-1.1,0.1-2.9,0.9-4.4v-0.2l0.4-0.6c0.9-1.1,3.3-1.9,4.6-2l0.4,0c5.2-0.8,16.3-2.3,32.4-2.3c10.6,0,18.9,0.6,23.9,1.1
		c5.1,0.5,7.4,0.9,8.6,1.2l0.4,0c0,0,3.2,0.6,4.3,2l0.1,0.2c1.5,2.4,1.4,5.1,1.3,5.8l0,0.3l-17.4,164.7l-2.3-0.7
		c-5.8-1.7-11.9-2.5-19-2.5c-5.9,0-12.1,0.9-19,2.7L3788.5,1107.5z M3775,942.3l16.9,160.2c6.3-1.5,12.2-2.3,17.8-2.3
		c6.6,0,12.4,0.7,17.9,2l16.8-159.9l0-0.3c0,0,0.2-1.6-0.6-3c-0.3-0.2-1.1-0.5-1.7-0.6h-0.8l-0.2-0.2c-2.3-0.4-13.3-2.1-31.4-2.1
		c-15.8,0-26.7,1.4-31.7,2.2c-0.4,0.1-0.6,0.1-0.7,0.1h-0.1c-0.5,0.1-1.3,0.3-1.7,0.6c-0.3,0.4-0.5,1.4-0.5,2.7V942.3z
		 M3775.3,939.1L3775.3,939.1L3775.3,939.1z M3809,1273.3c-1.8,0-3.8,0-5.9-0.7c-9.9-3.3-15.4-14.3-12.2-24.6l0-0.1
		c3.3-8.4,10.3-13.5,18.8-13.5c1.9,0,3.8,0,5.9,0.7c9.9,3.3,15.4,14.3,12.2,24.6l0,0.1C3824.4,1268.3,3817.4,1273.3,3809,1273.3z
		 M3794.7,1249.3c-2.5,8,2,17,9.7,19.5c1.4,0.5,3,0.5,4.6,0.5c6.7,0,12.3-4.1,15-10.9c2.5-8-2-17-9.7-19.5c-1.4-0.5-2.9-0.5-4.6-0.5
		C3803,1238.4,3797.4,1242.5,3794.7,1249.3z M3884.2,1219.3c-4.5,0-8.4-1.3-11.7-3.9c-4.4-3.1-7.3-7.8-8.1-13
		c-0.8-5.1,0.5-10.1,3.6-14.2c3.5-4.9,9.3-7.8,15.5-7.8c4.6,0,8.6,1.3,11.7,3.9c4.4,3.1,7.3,7.8,8.1,13c0.8,5.1-0.5,10.1-3.6,14.2
		C3896.2,1216.4,3890.4,1219.3,3884.2,1219.3z M3883.5,1184.4c-5,0-9.4,2.2-12.3,6.2c-2.5,3.2-3.5,7.2-2.9,11.2
		c0.6,4.2,2.9,7.9,6.5,10.4l0.1,0.1c2.6,2,5.7,3.1,9.3,3.1c5,0,9.4-2.2,12.3-6.2c2.5-3.2,3.5-7.2,2.9-11.2
		c-0.6-4.2-2.9-7.9-6.5-10.4l-0.1-0.1C3890.3,1185.4,3887.2,1184.4,3883.5,1184.4z M3735.9,1219.2c-10.9,0-19.4-8.5-19.4-19.4
		c0-10.9,8.5-19.4,19.4-19.4c10.7,0,19.4,8.7,19.4,19.4C3755.3,1210.7,3746.8,1219.2,3735.9,1219.2z M3735.9,1184.4
		c-8.8,0-15.4,6.6-15.4,15.4c0,8.6,6.8,15.4,15.4,15.4c8.6,0,15.4-6.8,15.4-15.4C3751.3,1191.3,3744.4,1184.4,3735.9,1184.4z
		 M3854.9,1132.7c-6.1,0-11.7-2.8-15.5-7.8l-0.1-0.1c-5.8-9-3.8-20.7,4.6-27.1l0.1-0.1c3.9-2.5,7.8-3.8,11.6-3.8
		c6.3,0,11.9,2.9,15.5,7.8l0.1,0.1c5.8,9,3.8,20.7-4.6,27.1l-0.1,0.1C3862.6,1131.4,3858.7,1132.7,3854.9,1132.7z M3842.6,1122.6
		c3,3.9,7.5,6.1,12.3,6.1c3,0,6.2-1.1,9.3-3.1c6.7-5.1,8.2-14.4,3.6-21.6c-2.8-3.9-7.3-6.1-12.2-6.1c-3,0-6.2,1.1-9.3,3.1
		C3839.6,1106.1,3838,1115.3,3842.6,1122.6z M3764.5,1132.7c-8.8,0-16.3-5.5-18.8-13.6c-1.6-5-1.2-10.3,1-14.9
		c2.3-4.7,6.3-8.1,11.3-9.7c2-0.7,4-0.7,5.8-0.7c8.7,0,16.2,5.5,18.8,13.6c3.3,10.6-2.1,21.4-12.3,24.6
		C3768.3,1132.7,3766.3,1132.7,3764.5,1132.7z M3763.8,1097.8c-1.6,0-3.2,0-4.5,0.5c-4,1.2-7.1,4-8.9,7.6c-1.8,3.7-2.1,7.9-0.8,12
		c2,6.5,8,10.8,15,10.8c1.6,0,3.2,0,4.5-0.5c8.1-2.5,12.4-11.1,9.8-19.6C3776.7,1102,3770.8,1097.8,3763.8,1097.8z M3809.9,1398.8
		c-24.5,0-49.3-4-71.6-11.7c-8.5-3.4-13.5-10.4-13.5-18.8c0-1.8,0-3.8,0.7-5.8c0.5-1.8,1.1-2.9,1.6-4l0.4-0.6l1.7-2.3l45.9-61.6
		c8.3-11.6,21-18.2,34.7-18.2c7.2,0,14,1.7,20.2,5c5.8,3.1,10.9,7.7,14.6,13.2l47.7,64l0.1,0.2c0.2,0.4,0.3,0.9,0.5,1.3
		c0.4,0.9,0.7,1.9,1.1,2.6l0.1,0.2c0.5,1.5,0.7,3,0.8,4.4c0,0.4,0.1,0.8,0.1,1.3l0,0.2c0,8.8-5.5,16.3-13.6,18.8
		C3858.9,1394.8,3834.1,1398.8,3809.9,1398.8z M3730.8,1360.1l-0.1,0.2c-0.5,1-1,1.9-1.4,3.4l0,0.1c-0.5,1.4-0.5,3-0.5,4.5
		c0,6.7,4.1,12.3,10.9,15c21.8,7.5,46.1,11.5,70.2,11.5c23.8,0,48.1-4,70.3-11.5c6.5-2,10.8-7.9,10.8-14.9c0-0.4-0.1-0.8-0.1-1.3
		c-0.1-1.2-0.2-2.3-0.5-3.3c-0.4-0.9-0.8-1.9-1.2-2.8c-0.1-0.4-0.3-0.7-0.4-1l-1.6-2.1l-45.9-61.6c-3.4-5.1-8-9.2-13.2-12
		c-5.6-3-11.7-4.6-18.3-4.6c-12.4,0-23.9,6-31.5,16.6L3730.8,1360.1z M3647.7,1316.9c-6.1,0-11.8-2.8-15.6-7.8
		c-14.9-19.9-26.1-41.6-33.4-64.5c-8-23.4-11.7-47.7-11.1-72.2c0-8.7,5.3-16,13.6-18.8l0.3-0.1h0.3c0.7,0,1.4-0.1,2.3-0.3
		c0.9-0.2,1.9-0.3,2.9-0.3c1.9,0,4,0.9,4.8,1.3l2.2,0.6l72.6,24.4c13,3.7,23.8,14.1,28,27.4l0,0c1.2,4.2,1.9,8.4,1.9,12.5
		c0,9.1-3,18.3-8.6,26l-44.2,62.8l-1.6,2.2c-0.8,1.4-2,2.7-3.4,3.5c-1.4,1.2-3.2,1.9-4.9,2.5l-0.2,0.1
		C3651.5,1316.9,3649.5,1316.9,3647.7,1316.9z M3602.1,1157.6c-6.4,2.2-10.5,8.1-10.5,14.9c-0.6,24,3.1,47.8,10.9,70.9
		c7.2,22.5,18.2,43.8,32.8,63.3c3,3.9,7.5,6.2,12.4,6.2c1.6,0,3.2,0,4.5-0.5l0.2-0.1c1.4-0.5,2.9-1,3.6-1.7l0.2-0.2l0.3-0.1
		c0.8-0.4,1.6-1.2,2-2l0.2-0.3l1.7-2.3l44.2-62.8c5.1-7,7.8-15.4,7.8-23.6c0-3.7-0.6-7.5-1.7-11.3c-3.8-12-13.6-21.5-25.3-24.8
		l-0.1,0l-72.5-24.4l-2.6-0.7c-1.1-0.6-2.5-1-3.2-1c-0.7,0-1.4,0.1-2.3,0.3C3603.9,1157.4,3603,1157.6,3602.1,1157.6z M3972,1316.3
		c-1.8,0-3.8,0-5.9-0.7c-1.8-0.6-3.2-1.3-4.9-2.5c-1.1-0.6-1.8-1.4-2.4-2.1c-0.3-0.4-0.6-0.7-0.9-1.1l-0.2-0.2l-1.7-2.3l-44.2-62.8
		c-8.4-10.3-11-25-6.7-38.4c2-6.4,5.8-12.5,10.8-17.4c4.9-4.7,10.9-8.2,17.2-10.1l72.7-24.4l2.1-0.6c1.5-0.7,2.9-0.7,4.8-0.7
		c0.9,0,1.8,0.1,2.5,0.2c0.6,0.1,1.5,0.2,1.7,0.1l0.8-0.4l0.8,0.3c7.8,2.7,13.4,10.6,13.4,18.8c0,24.4-3.7,48.6-11.1,72.1
		c-7.1,22.1-18,43.2-33.4,64.5C3983.7,1313.5,3978.1,1316.3,3972,1316.3z M3960.8,1307.2c0.4,0.5,0.8,0.9,1.1,1.3
		c0.5,0.6,0.8,1,1.2,1.1l0.2,0.1c1.6,1,2.6,1.5,4.2,2.1c1.4,0.5,3,0.5,4.5,0.5c4.8,0,9.3-2.3,12.3-6.2
		c15.1-20.9,25.9-41.6,32.8-63.3c7.2-23.1,10.9-46.9,10.9-70.9c0-6.3-4.2-12.4-10.1-14.8c-1,0.2-2,0.1-3.1,0
		c-0.7-0.1-1.4-0.1-2.1-0.1c-1.7,0-2.5,0-3.2,0.4l-0.4,0.1l-2.2,0.6l-72.5,24.4c-5.8,1.7-11.2,4.9-15.7,9.1c-4.6,4.5-8,9.9-9.8,15.8
		c-3.9,12.1-1.6,25.4,6,34.7l0.1,0.1l44.2,62.8L3960.8,1307.2z M3894.5,1103.1c-9.2,0-18.1-2.8-25-8c-5.7-4.2-10.2-9.5-13.2-15.8
		c-2.9-6.1-4.5-12.8-4.5-19.5l-1.2-76.7v-2.9c0-1.3,0-3.3,0.8-4.9l0.1-0.4c0.6-1.6,1.2-3.3,2.5-4.7c3.5-4.8,9.5-7.7,15.5-7.7
		c1.7,0,3.7,0,6.8,0.6l0.2,0c22.2,6.7,44.1,17.8,65.1,32.8c20.2,14.8,37.8,32.6,51.1,51.6c4.9,6.7,4.9,15.6,0,22.7
		c-1.4,2.1-2.8,3.3-4.5,4.5c-1.4,1.2-2.7,1.9-3.9,2.5l-0.4,0.1l-2.3,0.6l-73.1,22.7C3904,1102.4,3899.6,1103.1,3894.5,1103.1z
		 M3869.5,966.5c-4.8,0-9.6,2.4-12.4,6.2l-0.2,0.2c-0.8,0.8-1.2,1.9-1.6,3.3l-0.3,0.8c-0.4,0.8-0.4,2.2-0.4,3.2v2.9l1.2,76.7
		c0,6.1,1.4,12.2,4.1,17.8c2.8,5.7,6.8,10.6,12,14.4c6.3,4.7,14.3,7.2,22.6,7.2c4.7,0,8.5-0.7,12.7-2.2l73.3-22.7l2.2-0.6
		c1-0.5,1.9-1,2.9-1.9l0.2-0.2c1.7-1.2,2.6-2.1,3.6-3.6c4-5.7,4-12.8,0.1-18.1l0,0c-13-18.6-30.3-36.1-50.1-50.6
		c-20.6-14.7-42.1-25.6-63.8-32.2C3872.8,966.5,3871.1,966.5,3869.5,966.5z M3726.1,1103c-2.9,0-5.1-0.2-7.2-0.5s-4.6-0.9-6.9-1.9
		l-73.1-22.7l-2.6-0.7c-0.8-0.4-1.4-0.9-2-1.3c-0.5-0.4-1-0.7-1.5-1l-0.2-0.1c-1.5-1-2.5-2.1-3.4-3.2c-0.4-0.4-0.7-0.8-1-1.2
		l-0.2-0.3c-4.8-6.8-4.8-15.9,0-22.6c14.1-20.1,31.3-37.4,51.1-51.6c19.6-14.6,40.9-25.3,65.1-32.8c1.9-0.7,4-0.7,5.8-0.7
		c5.8,0,11.6,2.6,16.5,7.6c1.4,1.4,2.1,3.4,2.7,5.1l0.2,0.5v0.3c0,0.4,0.2,1.2,0.3,1.8c0.2,0.7,0.3,1.4,0.4,2l0,0.2v2.9l-1.2,76.7
		c0,13.9-6.6,27.1-17.7,35.3C3743.6,1100.3,3735.2,1103,3726.1,1103z M3637.9,1073.5l2.1,0.5l73.4,22.8l0.1,0c1.9,0.9,4.1,1.3,6,1.7
		c1.9,0.3,3.9,0.5,6.6,0.5c8.2,0,15.9-2.4,22.6-7.2c10-7.4,16.1-19.4,16.1-32.1l1.2-76.7v-2.8c0-0.4-0.2-0.9-0.3-1.4
		c-0.2-0.8-0.4-1.6-0.4-2.3c-0.5-1.4-1-2.8-1.7-3.6c-2.9-2.9-7.7-6.4-13.7-6.4c-1.6,0-3.2,0-4.5,0.5c-23.8,7.3-44.7,17.9-64,32.2
		c-19.5,13.9-36.3,30.9-50.2,50.6c-3.8,5.3-3.8,12.5-0.1,17.9c0.4,0.4,0.8,0.8,1.1,1.2c0.7,0.9,1.5,1.8,2.5,2.4
		c0.7,0.4,1.3,0.8,1.9,1.3C3637.1,1073,3637.5,1073.3,3637.9,1073.5z M3809.7,1226.2c-27.7,0-50.2-22.5-50.2-50.2
		s22.5-50.2,50.2-50.2s50.2,22.5,50.2,50.2S3837.4,1226.2,3809.7,1226.2z M3809.7,1129.8c-25.5,0-46.2,20.7-46.2,46.2
		s20.7,46.2,46.2,46.2s46.2-20.7,46.2-46.2S3835.2,1129.8,3809.7,1129.8z M3882.9,943.5c-3.5,0-6.4,2.3-7.6,5.2
		c-1.2,4.1,1.2,8.7,5.2,9.9c0.6,0,1.7,0.6,2.3,0.6c3.5,0,6.4-2.3,7.6-5.2c1.2-4.1-1.2-8.7-5.2-9.9
		C3884.1,943.5,3883.5,943.5,3882.9,943.5L3882.9,943.5z M3883.2,955.2c-0.1,0-0.1,0-0.2-0.1c-0.5-0.2-1-0.3-1.6-0.4
		c-1-0.4-1.6-1.3-1.9-1.8c-0.5-0.9-0.6-2-0.4-2.9c0.6-1.3,2-2.5,3.8-2.5c0.1,0,0.1,0,0.1,0c0.1,0,0.1,0,0.1,0s0,0-0.1,0
		c0.1,0,0.2,0.1,0.4,0.2l0.3,0.2l0.4,0.1c1.2,0.3,1.8,1.3,2.1,1.8c0.5,0.9,0.6,2,0.4,2.9C3886.1,953.9,3884.8,955.1,3883.2,955.2
		L3883.2,955.2z M3736.5,943.5c-0.6,0-1.7,0-2.3,0.6c-4.1,1.2-6.4,5.8-5.2,9.9c1.2,3.5,4.1,5.2,7.6,5.2c0.6,0,1.7,0,2.3-0.6
		c4.1-1.2,6.4-5.8,5.2-9.9C3742.9,945.8,3740,943.5,3736.5,943.5L3736.5,943.5z M3736.6,955.1c-2.8,0-3.5-1.7-3.7-2.4
		c-0.5-2,0.7-4.3,2.5-4.9l1-0.3h0.1c1.8,0,3.2,1.3,3.8,2.5c0.4,2-0.7,4.2-2.5,4.7l-1,0.3l-0.1,0.1L3736.6,955.1L3736.6,955.1z
		 M3736.5,947.5L3736.5,947.5L3736.5,947.5L3736.5,947.5z M3948.6,977.2c-2.3,0-4.6,1.2-6.4,2.9c-2.3,3.5-1.7,8.1,1.7,11
		c1.2,1.2,2.9,1.7,4.6,1.7c2.3,0,4.6-1.2,6.4-2.9c2.3-3.5,1.7-8.1-1.7-11C3951.5,977.8,3950.3,977.2,3948.6,977.2L3948.6,977.2z
		 M3948.5,988.8c-0.9,0-1.5-0.3-1.8-0.6l-0.1-0.1l-0.1-0.1c-1.7-1.4-2.2-3.6-1.2-5.4c1.1-0.9,2.3-1.4,3.3-1.4c0.5,0,0.9,0,2.2,0.9
		c1.6,1.4,2,3.5,1,5.3C3950.8,988.3,3949.6,988.8,3948.5,988.8L3948.5,988.8z M3670.8,977.2c-1.7,0-2.9,0.6-4.6,1.7
		c-3.5,2.3-4.1,7.6-1.7,11c1.7,2.3,4.1,2.9,6.4,2.9c1.7,0,2.9-0.6,4.6-1.7c3.5-2.3,4.1-7.6,1.7-11
		C3675.5,978.4,3673.1,977.2,3670.8,977.2L3670.8,977.2z M3670.9,988.9c-1.8,0-2.5-0.5-3.1-1.2c-0.5-0.9-0.8-2-0.6-3.1
		c0.1-0.6,0.4-1.7,1.3-2.3c1.4-1,1.8-1.1,2.3-1.1c1,0,2.2,0.5,3.3,1.4c0.4,0.8,0.6,1.9,0.5,2.9c-0.1,0.6-0.4,1.7-1.3,2.3
		C3671.8,988.8,3671.4,988.9,3670.9,988.9L3670.9,988.9z M4000.9,1029.5c-1.7,0-2.9,0.6-4.6,1.7c-3.5,2.3-4.1,7.6-1.7,11
		c1.7,2.3,4.1,2.9,6.4,2.9c1.7,0,2.9-0.6,4.6-1.7c3.5-2.3,4.1-7.6,1.7-11C4005.6,1030.7,4003.2,1029.5,4000.9,1029.5L4000.9,1029.5z
		 M4001,1041.2c-1.8,0-2.5-0.5-3.1-1.2c-0.5-0.9-0.8-2-0.6-3.1c0.1-0.6,0.4-1.7,1.3-2.3c1.4-1,1.8-1.1,2.3-1.1c1,0,2.2,0.5,3.3,1.4
		c0.4,0.8,0.6,1.9,0.5,2.9c-0.1,0.6-0.4,1.7-1.3,2.3C4001.9,1041.1,4001.5,1041.2,4001,1041.2L4001,1041.2z M3618.5,1029.5
		c-2.3,0-4.6,1.2-6.4,2.9c-2.3,3.5-1.7,8.1,1.7,11c1.2,1.2,2.9,1.7,4.6,1.7c2.3,0,4.6-1.2,6.4-2.9c2.3-3.5,1.7-8.1-1.7-11
		C3622,1030.1,3620.3,1029.5,3618.5,1029.5L3618.5,1029.5z M3618.4,1041.1c-0.9,0-1.5-0.3-1.8-0.6l-0.1-0.1l-0.1-0.1
		c-1.7-1.4-2.2-3.6-1.2-5.4c1.1-0.9,2.3-1.4,3.3-1.4c0.9,0,1.5,0.3,1.8,0.6l0.1,0.1l0.1,0.1c1.7,1.4,2.2,3.6,1.2,5.4
		C3620.7,1040.6,3619.5,1041.1,3618.4,1041.1L3618.4,1041.1z M4045.7,1168.4c-4.1,0-7.6,3.5-7.6,7.6s3.5,7.6,7.6,7.6
		s7.6-3.5,7.6-7.6C4053.8,1171.9,4050.3,1168.4,4045.7,1168.4L4045.7,1168.4z M4045.6,1179.6c-1.9,0-3.6-1.7-3.6-3.6
		s1.8-3.6,3.7-3.6c1.3,0,2.4,0.4,3,1.2c0.5,0.5,0.6,1.1,0.5,1.8v0.3v0.3C4049.2,1177.9,4047.5,1179.6,4045.6,1179.6L4045.6,1179.6z
		 M3573.8,1168.4c-4.1,0-7.6,3.5-7.6,7.6s3.5,7.6,7.6,7.6s7.6-3.5,7.6-7.6C3581.3,1171.9,3577.8,1168.4,3573.8,1168.4L3573.8,1168.4
		z M3573.8,1179.6c-1.9,0-3.6-1.7-3.6-3.6s1.7-3.6,3.6-3.6c1.9,0,3.6,1.7,3.6,3.6S3575.7,1179.6,3573.8,1179.6L3573.8,1179.6z
		 M4034,1241c-3.5,0-6.4,2.3-7.6,5.2c-1.2,4.1,1.2,8.7,5.2,9.9c0.6,0,1.7,0.6,2.3,0.6c3.5,0,6.4-2.3,7.6-5.2
		c1.2-4.1-1.2-8.7-5.2-9.9C4035.8,1241,4035.2,1241,4034,1241L4034,1241z M4034.3,1252.6c-0.1,0-0.1,0-0.2-0.1
		c-0.5-0.2-1-0.3-1.6-0.4c-1-0.4-1.6-1.3-1.9-1.8c-0.5-0.9-0.6-2-0.4-2.9c0.7-1.1,2-2.4,3.8-2.4c0.1,0,0.1,0,0.1,0s0,0-0.1,0
		l0.2,0.1l1,0.3c1.2,0.3,1.8,1.3,2.1,1.8c0.5,0.9,0.6,2,0.4,2.9C4037.2,1251.3,4035.9,1252.5,4034.3,1252.6L4034.3,1252.6z
		 M3585.4,1241c-0.6,0-1.7,0-2.3,0.6c-4.1,1.2-6.4,5.8-5.2,9.9c1.2,3.5,4.1,5.2,7.6,5.2c0.6,0,1.7,0,2.3-0.6
		c4.1-1.2,6.4-5.8,5.2-9.9C3591.2,1243.4,3588.3,1241,3585.4,1241L3585.4,1241z M3585.4,1245c1,0,2.6,1,3.8,2.8
		c0.3,1.9-0.9,4-2.6,4.5l-1,0.3l-0.1,0.1h-0.1c-2.8,0-3.5-1.7-3.7-2.4c-0.5-2,0.7-4.3,2.5-4.9l1-0.3L3585.4,1245L3585.4,1245
		L3585.4,1245L3585.4,1245z M4000.9,1306.7c-2.3,0-4.6,1.2-6.4,2.9c-2.3,3.5-1.7,8.1,1.7,11c1.2,1.2,2.9,1.7,4.6,1.7
		c2.3,0,4.6-1.2,6.4-2.9c2.3-3.5,1.7-8.1-1.7-11C4003.8,1307.3,4002.1,1306.7,4000.9,1306.7L4000.9,1306.7z M4000.8,1318.3
		c-0.9,0-1.5-0.3-1.8-0.6l-0.1-0.1l-0.1-0.1c-1.7-1.4-2.2-3.6-1.2-5.4c1.1-0.8,2.3-1.4,3.3-1.4c0.2,0,1.1,0.2,2.2,0.9
		c1.6,1.4,2,3.5,1,5.3C4003.1,1317.8,4001.9,1318.3,4000.8,1318.3L4000.8,1318.3z M3618.5,1306.7c-1.7,0-2.9,0.6-4.6,1.7
		c-3.5,2.3-4.1,7.6-1.7,11c1.7,2.3,4.1,2.9,6.4,2.9c1.7,0,2.9-0.6,4.6-1.7c3.5-2.3,4.1-7.6,1.7-11
		C3623.7,1307.9,3620.8,1306.7,3618.5,1306.7L3618.5,1306.7z M3618.6,1318.4c-1.8,0-2.5-0.5-3.1-1.2c-0.5-0.9-0.8-2-0.6-3.1
		c0.1-0.6,0.4-1.7,1.3-2.3c1.4-1,1.8-1.1,2.3-1.1c1.3,0,2.8,0.7,3.1,1.1c0.6,0.9,0.8,2.1,0.7,3.2c-0.1,0.6-0.4,1.7-1.3,2.3
		C3619.5,1318.3,3619.1,1318.4,3618.6,1318.4L3618.6,1318.4z M3882.9,1392.7c-0.6,0-1.7,0-2.3,0.6c-4.1,1.2-6.4,5.8-5.2,9.9
		c1.2,3.5,4.1,5.2,7.6,5.2c0.6,0,1.7,0,2.3-0.6c4.1-1.2,6.4-5.8,5.2-9.9C3888.7,1394.5,3885.8,1392.7,3882.9,1392.7L3882.9,1392.7z
		 M3882.9,1404.4c-2.8,0-3.5-1.7-3.7-2.4c-0.5-2,0.7-4.3,2.5-4.9l1-0.3l0.2-0.1c1.5,0,2.8,1,3.8,2.7c0.4,1.9-0.8,4.1-2.6,4.6l-1,0.3
		L3882.9,1404.4L3882.9,1404.4L3882.9,1404.4z M3737.1,1392.7c-3.5,0-6.4,2.3-7.6,5.2c-1.2,4.1,1.2,8.7,5.2,9.9
		c0.6,0,1.7,0.6,2.3,0.6c3.5,0,6.4-2.3,7.6-5.2c1.2-4.1-1.2-8.7-5.2-9.9C3738.2,1392.7,3737.7,1392.7,3737.1,1392.7L3737.1,1392.7z
		 M3737.4,1404.4c-0.1,0-0.1,0-0.2-0.1c-0.5-0.2-1-0.3-1.6-0.4c-1-0.4-1.6-1.3-1.9-1.8c-0.5-0.9-0.6-2-0.4-2.9
		c0.6-1.3,2-2.5,3.8-2.5c0,0,0,0,0.1,0s0.2,0.1,0.4,0.2l0.3,0.2l0.4,0.1c1.2,0.3,1.8,1.3,2.1,1.8c0.5,0.9,0.6,2,0.4,2.9
		C3740.3,1403.1,3739,1404.3,3737.4,1404.4L3737.4,1404.4z M3809.7,1404.3c-4.1,0-7.6,3.5-7.6,7.6s3.5,7.6,7.6,7.6s7.6-3.5,7.6-7.6
		S3813.8,1404.3,3809.7,1404.3L3809.7,1404.3z M3809.7,1415.5c-1.9,0-3.6-1.7-3.6-3.6s1.8-3.6,3.6-3.6c1.9,0,3.6,1.7,3.6,3.6
		S3811.6,1415.5,3809.7,1415.5L3809.7,1415.5z M1074,1557.7c-52.9,0-104.1-10.4-152.4-30.8c-46.6-19.7-88.5-47.9-124.4-83.9
		c-36-36-64.2-77.8-83.9-124.4c-20.4-48.3-30.8-99.5-30.8-152.4s10.4-104.1,30.8-152.4c19.7-46.6,47.9-88.5,83.9-124.4
		c36-36,77.8-64.2,124.4-83.9c48.3-20.4,99.5-30.8,152.4-30.8s104.1,10.4,152.4,30.8c46.6,19.7,88.5,47.9,124.4,83.9
		c36,36,64.2,77.8,83.9,124.4c20.4,48.3,30.8,99.5,30.8,152.4s-10.4,104.1-30.8,152.4c-19.7,46.6-47.9,88.5-83.9,124.4
		c-36,36-77.8,64.2-124.4,83.9C1178.1,1547.3,1126.9,1557.7,1074,1557.7z M1074,778.7c-52.3,0-103.1,10.2-150.8,30.5
		c-46.1,19.5-87.6,47.5-123.2,83s-63.5,77-83,123.2c-20.2,47.8-30.5,98.5-30.5,150.8c0,52.3,10.2,103.1,30.5,150.8
		c19.5,46.1,47.5,87.6,83,123.2s77,63.5,123.2,83c47.8,20.2,98.5,30.5,150.8,30.5s103.1-10.2,150.8-30.5
		c46.1-19.5,87.6-47.5,123.2-83s63.5-77,83-123.2c20.2-47.8,30.5-98.5,30.5-150.8c0-52.3-10.2-103.1-30.5-150.8
		c-19.5-46.1-47.5-87.6-83-123.2s-77-63.5-123.2-83C1177.1,788.9,1126.3,778.7,1074,778.7z M1074,1487.6
		c-85.8,0-166.6-33.4-227.3-94.1c-60.7-60.7-94.1-141.4-94.1-227.3c0-85.8,33.4-166.6,94.1-227.3c60.7-60.7,141.4-94.1,227.3-94.1
		s166.6,33.4,227.3,94.1c60.7,60.7,94.1,141.4,94.1,227.3c0,85.8-33.4,166.6-94.1,227.3C1240.6,1454.2,1159.8,1487.6,1074,1487.6z
		 M1074,848.8c-84.8,0-164.5,33-224.4,93c-59.9,59.9-93,139.7-93,224.4c0,84.8,33,164.5,93,224.4c59.9,59.9,139.7,93,224.4,93
		s164.5-33,224.4-93c59.9-59.9,93-139.7,93-224.4c0-84.8-33-164.5-93-224.4C1238.5,881.8,1158.8,848.8,1074,848.8z M1074,1467.9
		c-80.6,0-156.3-31.4-213.3-88.4c-57-57-88.4-132.7-88.4-213.3s31.4-156.3,88.4-213.3c57-57,132.7-88.4,213.3-88.4
		c80.6,0,156.3,31.4,213.3,88.4c57,57,88.4,132.7,88.4,213.3s-31.4,156.3-88.4,213.3C1230.3,1436.5,1154.6,1467.9,1074,1467.9z
		 M1074,868.5c-79.5,0-154.3,31-210.5,87.2s-87.2,131-87.2,210.5s31,154.3,87.2,210.5s131,87.2,210.5,87.2
		c79.5,0,154.3-31,210.5-87.2s87.2-131,87.2-210.5s-31-154.3-87.2-210.5S1153.5,868.5,1074,868.5z M1074,1451.7
		c-157.4,0-285.5-128.1-285.5-285.5S916.6,880.7,1074,880.7s285.5,128.1,285.5,285.5S1231.4,1451.7,1074,1451.7z M1074,884.7
		c-155.2,0-281.5,126.3-281.5,281.5s126.3,281.5,281.5,281.5s281.5-126.3,281.5-281.5S1229.2,884.7,1074,884.7z M1074,1433.1
		c-71.3,0-138.3-27.8-188.7-78.2c-50.4-50.4-78.2-117.4-78.2-188.7c0-71.3,27.8-138.3,78.2-188.7c50.4-50.4,117.4-78.2,188.7-78.2
		s138.3,27.8,188.7,78.2c50.4,50.4,78.2,117.4,78.2,188.7c0,71.3-27.8,138.3-78.2,188.7C1212.3,1405.3,1145.3,1433.1,1074,1433.1z
		 M1074,903.3c-70.2,0-136.2,27.3-185.9,77s-77,115.7-77,185.9c0,70.2,27.3,136.2,77,185.9c49.7,49.7,115.7,77,185.9,77
		s136.2-27.3,185.9-77c49.7-49.7,77-115.7,77-185.9c0-70.2-27.3-136.2-77-185.9S1144.2,903.3,1074,903.3z M1189,1388.7h-1.5
		l-0.4-0.2c-1.7-0.9-3.4-3-4-4.1l-85.8-148l2.3-0.8c12.7-4.5,23.8-12.5,32.3-23.1l1.5-1.8l114.4,127c1,0.6,2.8,3,2.8,5.9
		c0,1.5-1.4,3.6-2.4,4.5c-0.8,0.9-3,3.1-6.6,6.3c-3,2.8-9.6,8.4-19.4,15.5c-14.9,10.8-26.5,16.7-29.3,17.7
		C1192.3,1387.9,1190.6,1388.7,1189,1388.7z M1188.6,1384.7h0.4c0.6,0,1.8-0.4,2.1-0.6l0.4-0.2h0.3c1.9-0.9,12.7-6,27.9-17.1
		c9.6-7,16.1-12.6,19-15.3c3.6-3.2,5.7-5.4,6.5-6.2l0.2-0.2c0.5-0.4,1-1.4,1.1-1.7c0-0.8-0.4-1.6-0.7-2.1l-0.9-0.9l-111.5-123.8
		c-8.2,9.6-18.6,17.1-30.3,21.7l83.5,144.1C1186.8,1382.9,1187.7,1384.1,1188.6,1384.7z M1246.5,1343.4L1246.5,1343.4L1246.5,1343.4
		z M960.5,1388H959c-1.2,0-2.4-0.4-3.2-0.7c0,0-0.1,0-0.1,0H955l-0.4-0.4c-8.6-4.2-18.8-10.4-28.6-17.5
		c-16.1-11.7-25.1-20.9-26-21.9c-0.4-0.4-1.1-1.2-1.5-2l-0.1-0.3c-0.3-0.6-0.7-1.3-0.7-2.1c0-3,2.1-5.3,2.3-5.6l0.2-0.2l114.3-127.2
		l1.5,1.8c9.1,11.2,20,18.9,32.4,23l2.3,0.8l-85.7,148c-0.6,1.1-2.3,3.2-4,4.1L960.5,1388z M956.3,1383.3l0.2,0
		c0.1,0,0.3,0.1,0.6,0.2c0.5,0.2,1.4,0.5,1.9,0.5h0.4c0.8-0.6,1.8-1.8,2-2.2l0.1-0.1l83.3-143.8c-11.5-4.2-21.7-11.5-30.4-21.6
		L903,1340.1l-0.2,0.2c-0.3,0.3-1.1,1.5-1.2,2.6c0.1,0.1,0.1,0.3,0.2,0.4l0.2,0.3c0.2,0.4,0.5,0.8,0.7,1c1,1,9.8,10,25.6,21.5
		C937.9,1373.1,947.9,1379.2,956.3,1383.3C956.3,1383.3,956.3,1383.3,956.3,1383.3z M1148.1,1165.3l-0.1-2.4
		c-0.6-13.5-5-26.9-12.4-37.8l-1.4-2l156.3-69.8c0.8-0.3,2.3-0.8,4.1-0.8c0.5,0,0.9,0.2,1.2,0.4c0.2,0.1,0.2,0.1,0.3,0.1l0.3,0.1
		l0.2,0.1c1.4,0.7,2.6,2.3,3.1,3.3c0.7,0.8,7.2,12.9,13.3,31.7c5.8,18.2,8,30.8,8.3,33.2l0,0c0.2,1.3,0.1,3.7-0.7,5l-0.3,0.4
		c-1.6,2.4-4.5,3.1-5.4,3.1h-0.1L1148.1,1165.3z M1140.2,1125c6.7,10.4,10.8,22.9,11.7,35.5l162.6-34.5h0.4c0.3-0.1,1.6-0.4,2.2-1.5
		l0.2-0.3c0.1-0.4,0.2-1.4,0.1-2l0-0.2c-0.1-1-2-13.4-8.1-32.4c-5.9-18.2-11.7-28.9-12.5-30.3l-0.3-0.3l-0.1-0.3
		c-0.3-0.6-1-1.4-1.4-1.7c-0.4-0.1-0.6-0.2-0.8-0.3c0,0-0.1,0-0.1,0c-1.4,0.1-2.3,0.6-2.3,0.6l-0.4,0.2h-0.1L1140.2,1125z
		 M1315,1126L1315,1126C1315,1126,1315,1126,1315,1126z M1292.7,1054.8c0,0,0,0.1,0,0.1L1292.7,1054.8z M1000,1165.2l-167-35.4
		c-0.1,0-3.3-1.1-5.2-3.3l-0.1-0.2c-1-1.5-0.7-4.7-0.7-4.8h0c0.2-1.8,2.3-14.8,8.3-33.3c3.7-11.4,8.3-22.4,12.7-30.8l0.4-0.7
		c0.2-0.5,1.5-3.1,3.3-3.5l0.5-0.1l0.4-0.6h1c1.1,0,2.4,0.3,3.4,0.8l0.5,0.2l156.4,69.6l-1.3,2c-7.6,11.3-11.9,24.4-12.4,37.8
		L1000,1165.2z M834.1,1126.1l162.1,34.3c0.8-12.5,4.8-24.7,11.6-35.5l-152-67.6l-0.6-0.3c-0.2-0.1-0.5-0.2-0.8-0.3l-0.1,0.1
		l-1.6,0.3c-0.2,0.3-0.6,0.8-0.8,1.3l-0.2,0.5l0,0c-0.1,0.1-0.1,0.3-0.2,0.4c-2.5,4.8-7.5,15-12.5,30.2c-6.2,19.2-8,32-8.1,32.5
		c-0.1,0.8,0,1.8,0.1,2.2C831.8,1125,833.3,1125.8,834.1,1126.1z M831,1124.3L831,1124.3L831,1124.3z M852.9,1057L852.9,1057
		L852.9,1057z M1052.1,1095.4l-18-170.2v-0.7c0-1.1,0.1-3.1,1-4.6v-0.1l0.4-0.6c1-1.2,3.6-1.9,4.7-2l0.4,0
		c5.3-0.9,16.8-2.4,33.4-2.4c10.9,0,19.4,0.6,24.7,1.2c5.2,0.5,7.6,0.9,8.9,1.2l0.4,0c0,0,3.3,0.6,4.4,2l0.1,0.2
		c1.2,1.9,1.7,4.6,1.2,6.2l-17.8,169.7l-2.3-0.7c-5.9-1.8-12.1-2.6-19.6-2.6c-7.7,0-14.9,1.6-19.6,2.8L1052.1,1095.4z M1038.1,925.1
		l17.4,165.3c4.8-1.2,11.3-2.4,18.4-2.4c6.9,0,12.8,0.7,18.5,2.1l17.3-164.9v-2.3c-0.1-0.4-0.2-0.7-0.4-1.1
		c-0.4-0.2-1.1-0.5-1.9-0.6h-0.8l-0.2-0.2c-2.3-0.4-13.7-2.2-32.4-2.2c-16.9,0-28.5,1.6-32.7,2.3c-0.4,0.1-0.6,0.1-0.7,0.1h-0.1
		c-0.5,0.1-1.4,0.4-1.8,0.6l0,0.1c-0.3,0.3-0.6,1.4-0.6,2.8V925.1z M1038.5,921.8L1038.5,921.8L1038.5,921.8z M1073.3,1266.5
		c-1.9,0-3.9,0-6-0.7c-10.2-3.4-15.9-14.8-12.6-25.3l0-0.1c3.4-8.7,10.6-13.9,19.3-13.9c2,0,3.9,0,6,0.7
		c10.2,3.4,15.9,14.8,12.6,25.3l0,0.1C1089.2,1261.3,1082,1266.5,1073.3,1266.5z M1058.5,1241.8c-2.5,8.3,2,17.5,10.1,20.2
		c1.5,0.5,3.1,0.5,4.8,0.5c6.9,0,12.7-4.2,15.5-11.3c2.5-8.3-2-17.5-10.1-20.2c-1.5-0.5-2.9-0.5-4.8-0.5
		C1067.1,1230.5,1061.3,1234.7,1058.5,1241.8z M1150.8,1210.8c-4.6,0-8.7-1.3-12-4c-4.6-3.3-7.5-8.1-8.3-13.5
		c-0.8-5.2,0.5-10.4,3.7-14.5c3.7-5.1,9.5-8,15.9-8c4.9,0,8.9,1.3,12,4c4.5,3.3,7.5,8,8.3,13.5c0.8,5.2-0.5,10.4-3.7,14.5
		C1163,1207.9,1157.2,1210.8,1150.8,1210.8z M1150.1,1174.8c-5.1,0-9.7,2.3-12.7,6.4c-2.5,3.3-3.6,7.4-3,11.5
		c0.6,4.4,3,8.2,6.7,10.9l0.1,0.1c2.7,2.1,5.8,3.2,9.6,3.2c5.1,0,9.7-2.3,12.7-6.4c2.5-3.3,3.6-7.4,3-11.5c-0.6-4.4-3-8.2-6.7-10.9
		l-0.1-0.1C1157.2,1175.8,1154.1,1174.8,1150.1,1174.8z M997.9,1210.6c-11.2,0-19.9-8.7-19.9-19.9c0-11.3,8.6-19.9,19.9-19.9
		c11,0,19.9,8.9,19.9,19.9C1017.8,1201.9,1009.1,1210.6,997.9,1210.6z M997.9,1174.8c-9.1,0-15.9,6.8-15.9,15.9s6.8,15.9,15.9,15.9
		s15.9-6.8,15.9-15.9C1013.8,1181.9,1006.7,1174.8,997.9,1174.8z M1120.7,1121.5c-6.1,0-12.1-3-15.9-8l-0.1-0.1
		c-6-9.3-3.9-21.2,4.7-27.9l0.1-0.1c3.9-2.6,7.9-3.9,11.9-3.9c6.4,0,12.2,2.9,15.9,8l0.1,0.1c6,9.3,3.9,21.2-4.7,27.9l-0.1,0.1
		C1128.7,1120.2,1124.7,1121.5,1120.7,1121.5z M1108,1111.1c3.1,4,7.8,6.4,12.7,6.4c3.2,0,6.4-1.1,9.6-3.2c6.9-5.3,8.5-15,3.7-22.4
		c-3-4-7.6-6.3-12.6-6.3c-3.2,0-6.4,1.1-9.6,3.2C1104.9,1094.1,1103.3,1103.7,1108,1111.1z M1027.4,1121.5c-9,0-16.7-5.6-19.3-14
		c-3.4-10.9,2.1-22,12.6-25.3c2.1-0.7,4.1-0.7,6-0.7c9,0,16.6,5.5,19.3,14c3.4,10.9-2.1,22-12.6,25.3
		C1031.3,1121.5,1029.3,1121.5,1027.4,1121.5z M1026.7,1085.5c-1.7,0-3.3,0-4.8,0.5c-8.4,2.6-12.8,11.5-10,20.3
		c2.1,6.7,8.3,11.2,15.5,11.2c1.7,0,3.3,0,4.8-0.5c8.4-2.6,12.8-11.5,10-20.3C1040,1089.9,1034,1085.5,1026.7,1085.5z
		 M1074.2,1395.8c-25.1,0-50.6-4.2-73.7-12.1c-8.8-3.4-14-10.6-14-19.3c0-1.9,0-3.9,0.7-6c0.6-1.9,1.3-3.2,1.9-4.5l0.2-0.3l1.8-2.4
		l47.3-63.5c8.5-11.9,21.6-18.7,35.7-18.7c7.4,0,14.3,1.8,20.8,5.2c6.1,3.3,11.2,8,15,13.6l49.2,66l0.1,0.2c0.3,0.7,0.7,1.5,1,2.3
		c0.3,0.7,0.6,1.4,0.8,1.9l0.1,0.3c0.5,1.5,0.6,3.1,0.8,4.4c0,0.4,0.1,0.9,0.1,1.3l0,0.2c0,9-5.6,16.7-14,19.3
		C1124.8,1391.6,1099.3,1395.8,1074.2,1395.8z M992.6,1355.9c-0.6,1.1-1.1,2.2-1.6,3.8c-0.5,1.5-0.5,3.1-0.5,4.8
		c0,6.9,4.2,12.8,11.3,15.5c22.7,7.8,47.7,11.9,72.4,11.9s49.7-4.1,72.5-11.9c6.7-2.1,11.2-8.2,11.2-15.4c0-0.4-0.1-0.9-0.1-1.3
		c-0.1-1.1-0.2-2.3-0.5-3.4c-0.3-0.6-0.6-1.4-0.9-2.1c-0.3-0.6-0.5-1.3-0.8-1.8l-1.7-2.2l-47.4-63.6c-3.4-5.1-8.1-9.4-13.6-12.4
		c-5.8-3.2-12.2-4.8-18.8-4.8c-12.8,0-24.7,6.2-32.5,17.1L992.6,1355.9z M906.8,1311.4c-6.2,0-12.2-3-16-8
		c-15.4-20.6-26.9-43-34.4-66.5c-8.2-24.1-12-49.2-11.4-74.4c0-8.8,5.5-16.4,14-19.2l0.3-0.1h0.3c0.7,0,1.5-0.1,2.4-0.3
		c1-0.2,2-0.3,3-0.3c1.6,0,3.6,0.7,4.9,1.3l2.3,0.6l74.9,25.2c13.4,3.8,24.5,14.6,28.8,28.2l0,0c1.2,4.3,1.9,8.5,1.9,12.7
		c0,9.4-3.2,18.9-8.9,26.8l-45.6,64.8l-1.7,2.3c-0.8,1.4-2.1,2.8-3.5,3.5c-1.4,1.4-3.4,2-5.3,2.7
		C910.7,1311.4,908.7,1311.4,906.8,1311.4z M860,1147.2c-6.7,2.3-11,8.4-11,15.4c-0.6,24.8,3.2,49.3,11.2,73.1
		c7.4,23.1,18.7,45.1,33.8,65.3c3.1,4,7.9,6.4,12.8,6.4c1.7,0,3.3,0,4.8-0.5c1.5-0.5,3.1-1,3.9-1.9l0.2-0.3l0.3-0.2
		c0.8-0.4,1.7-1.3,2.1-2.1l0.2-0.3l1.8-2.4l45.6-64.8c5.3-7.2,8.1-15.9,8.1-24.4c0-3.8-0.6-7.6-1.7-11.5
		c-3.9-12.4-13.9-22.1-26.1-25.6l-0.1,0l-74.8-25.2l-2.7-0.7c-1.1-0.6-2.6-1-3.3-1c-0.7,0-1.5,0.1-2.4,0.3
		C861.8,1147,860.9,1147.2,860,1147.2z M1241.5,1310.8c-1.9,0-3.9,0-6-0.7c-2-0.7-3.3-1.3-5.1-2.6c-1.1-0.6-1.7-1.4-2.4-2.2
		c-0.3-0.4-0.6-0.7-1-1.1l-0.2-0.2l-1.8-2.4l-45.6-64.8c-8.7-10.6-11.3-25.7-6.9-39.5c2.1-6.7,6-12.9,11.1-17.9
		c5-4.8,11.1-8.4,17.7-10.4l75-25.2l2.2-0.6c1.5-0.7,3-0.7,4.9-0.7c1,0,1.8,0.1,2.6,0.2c0.7,0.1,1.7,0.2,1.9,0l0.8-0.4l0.8,0.3
		c7.9,2.9,13.7,11,13.7,19.4c0,25.2-3.8,50.1-11.4,74.3c-7.2,22.7-18.5,44.4-34.4,66.5C1253.6,1307.8,1247.6,1310.8,1241.5,1310.8z
		 M1229.9,1301.5c0.4,0.5,0.8,0.9,1.1,1.3c0.5,0.6,0.9,1,1.2,1.2l0.3,0.2c1.5,1.1,2.5,1.6,4.2,2.1c1.5,0.5,3.1,0.5,4.8,0.5
		c4.9,0,9.6-2.4,12.7-6.4c15.6-21.6,26.7-43,33.8-65.3c7.4-23.8,11.2-48.3,11.2-73.1c0-6.5-4.4-12.9-10.4-15.4c-1,0.2-2.1,0.1-3.2,0
		c-0.7-0.1-1.4-0.1-2.2-0.1c-1.8,0-2.6,0-3.3,0.4l-0.4,0.2l-2.3,0.6l-74.8,25.2c-6,1.8-11.6,5.1-16.2,9.4
		c-4.7,4.6-8.1,10.2-10.1,16.3c-4,12.6-1.6,26.3,6.2,35.8l0.1,0.1l45.6,64.8L1229.9,1301.5z M1161.4,1090.9
		c-9.5,0-18.6-2.9-25.7-8.2c-5.9-4.4-10.5-9.9-13.6-16.3c-3-6.2-4.6-13.2-4.6-20.1l-1.2-79.1l0-3c0-1.3,0-3.4,0.8-5l0-0.1
		c0.6-1.7,1.3-3.7,2.7-5.1c3.7-4.9,9.7-7.9,15.9-7.9c1.9,0,3.8,0,7,0.6l0.2,0c23,7,45.6,18.3,67.1,33.8
		c20.9,15.4,39.2,33.8,52.7,53.2c5,6.9,5,16.3-0.1,23.3c-1.3,1.9-2.6,3.3-4.6,4.6c-1.4,1.3-2.8,2-4,2.6l-0.4,0.2l-2.3,0.6
		l-75.4,23.4C1171.2,1090.1,1166.7,1090.9,1161.4,1090.9z M1135.7,950.1c-5.1,0-9.8,2.4-12.8,6.4l-0.2,0.2c-0.8,0.8-1.3,2.3-1.9,3.7
		l-0.2,0.4c-0.4,0.8-0.4,2.4-0.4,3.3v3l1.2,79.1c0,6.3,1.5,12.7,4.2,18.4c2.8,5.9,7,10.9,12.4,14.9c6.4,4.8,14.6,7.4,23.3,7.4
		c4.9,0,8.9-0.7,13.1-2.3l0.1,0l75.6-23.4l2.2-0.5c1-0.5,2-1,2.9-1.9l0.3-0.2c1.6-1,2.6-2.1,3.6-3.6c4.1-5.7,4.1-13.2,0.1-18.7l0,0
		c-13.3-19-31.2-37.1-51.7-52.2c-21.1-15.2-43.3-26.3-65.8-33.2C1139.1,950.1,1137.4,950.1,1135.7,950.1z M987.7,1090.8
		c-2,0-4.6-0.1-7.4-0.5c-2.5-0.5-4.8-1-7.1-2l-75.3-23.4l-2.8-0.7c-0.8-0.4-1.4-0.9-2.1-1.4c-0.5-0.4-1.1-0.8-1.5-1l-0.2-0.1
		c-1.5-1-2.5-2.2-3.4-3.3c-0.4-0.4-0.7-0.8-1.1-1.2l-0.2-0.3c-4.9-6.9-4.9-16.3,0-23.2c14.4-20.5,32.1-38.4,52.7-53.2
		c20.2-15,42.1-26.1,67.1-33.8c2.1-0.7,4.1-0.7,6-0.7c7.6,0,13.5,4.2,17,7.8c1.5,1.4,2.2,3.5,2.9,5.5l0.1,0.3v0.3
		c0,0.4,0.1,1,0.2,1.5c0.2,0.9,0.3,1.8,0.3,2.6v2.9l-1.2,79.1c0,14.3-6.8,27.9-18.2,36.4C1005.6,1088.1,997,1090.8,987.7,1090.8z
		 M896.7,1060.5l2.3,0.6l75.7,23.5c1.9,0.8,4,1.3,6.3,1.8c1.9,0.3,3.9,0.5,6.7,0.5c8.5,0,16.3-2.5,23.4-7.4
		c10.3-7.7,16.5-20.1,16.5-33.2l1.2-79.1l0-3.1l0-0.1c0-0.3-0.1-1.1-0.2-1.6c-0.1-0.6-0.2-1.3-0.3-1.9c-0.5-1.4-1-2.9-1.8-3.6
		c-3.1-3.1-8-6.7-14.2-6.7c-1.7,0-3.3,0-4.8,0.5c-24.6,7.6-46.1,18.4-65.9,33.2c-20.2,14.5-37.6,32.1-51.8,52.2
		c-3.9,5.5-4,12.9-0.1,18.5c0.4,0.4,0.7,0.8,1.1,1.3c0.8,0.9,1.6,1.8,2.5,2.5c0.7,0.4,1.4,0.9,2,1.3
		C895.9,1060,896.3,1060.3,896.7,1060.5z M1074,1217.9c-28.5,0-51.7-23.2-51.7-51.7s23.2-51.7,51.7-51.7s51.7,23.2,51.7,51.7
		S1102.5,1217.9,1074,1217.9z M1074,1118.5c-26.3,0-47.7,21.4-47.7,47.7s21.4,47.7,47.7,47.7s47.7-21.4,47.7-47.7
		S1100.3,1118.5,1074,1118.5z M1149.5,926.4c-3.6,0-6.6,2.4-7.8,5.4c-1.2,4.2,1.2,9,5.4,10.2c0.6,0,1.8,0.6,2.4,0.6
		c3.6,0,6.6-2.4,7.8-5.4c1.2-4.2-1.2-9-5.4-10.2C1150.7,926.4,1150.1,926.4,1149.5,926.4L1149.5,926.4z M1149.8,938.5
		c-0.1,0-0.1,0-0.2-0.1c-0.5-0.2-1-0.3-1.7-0.4c-1-0.4-1.7-1.3-2-1.9c-0.5-0.9-0.6-2.1-0.4-3c0.6-1.3,2.1-2.6,3.9-2.6
		c0.1,0,0.1,0,0.1,0c0.1,0,0.1,0,0.1,0s0,0-0.1,0c0.1,0,0.2,0.1,0.4,0.2l0.3,0.2l0.4,0.1c1.2,0.3,1.9,1.3,2.2,1.9
		c0.5,0.9,0.6,2.1,0.4,3C1152.8,937.2,1151.5,938.4,1149.8,938.5L1149.8,938.5z M998.5,926.4c-0.6,0-1.8,0-2.4,0.6
		c-4.2,1.2-6.6,6-5.4,10.2c1.2,3.6,4.2,5.4,7.8,5.4c0.6,0,1.8,0,2.4-0.6c4.2-1.2,6.6-6,5.4-10.2
		C1005.1,928.8,1002.1,926.4,998.5,926.4L998.5,926.4z M998.6,938.4c-2.9,0-3.6-1.8-3.8-2.5c-0.5-2.1,0.7-4.4,2.6-5.1l1-0.3h0.1
		c1.9,0,3.3,1.3,3.9,2.6c0.4,2.1-0.7,4.3-2.6,4.8l-1,0.3l-0.1,0.1h-0.1V938.4z M998.5,930.6L998.5,930.6L998.5,930.6L998.5,930.6z
		 M1217.3,961.2c-2.4,0-4.7,1.2-6.6,3c-2.4,3.6-1.8,8.4,1.8,11.3c1.2,1.2,3,1.8,4.7,1.8c2.4,0,4.7-1.2,6.6-3
		c2.4-3.6,1.8-8.4-1.8-11.3C1220.3,961.8,1219,961.2,1217.3,961.2L1217.3,961.2z M1217.2,973.1c-0.9,0-1.5-0.3-1.9-0.6l-0.1-0.1
		l-0.1-0.1c-1.8-1.4-2.3-3.7-1.2-5.6c1.1-0.9,2.4-1.4,3.4-1.4c0.5,0,0.9,0,2.3,0.9c1.7,1.4,2.1,3.6,1,5.5
		C1219.5,972.6,1218.3,973.1,1217.2,973.1L1217.2,973.1z M930.8,961.2c-1.8,0-3,0.6-4.7,1.8c-3.6,2.4-4.2,7.8-1.8,11.3
		c1.8,2.4,4.2,3,6.6,3c1.8,0,3-0.6,4.7-1.8c3.6-2.4,4.2-7.8,1.8-11.3C935.6,962.4,933.2,961.2,930.8,961.2L930.8,961.2z
		 M930.9,973.2c-1.9,0-2.6-0.5-3.2-1.2c-0.5-0.9-0.8-2.1-0.6-3.2c0.1-0.6,0.4-1.8,1.3-2.4c1.4-1,1.9-1.1,2.4-1.1
		c1,0,2.3,0.5,3.4,1.4c0.4,0.8,0.6,2,0.5,3c-0.1,0.6-0.4,1.8-1.3,2.4C931.8,973.1,931.4,973.2,930.9,973.2L930.9,973.2z
		 M1271.2,1015.1c-1.8,0-3,0.6-4.7,1.8c-3.6,2.4-4.2,7.8-1.8,11.3c1.8,2.4,4.2,3,6.6,3c1.8,0,3-0.6,4.7-1.8
		c3.6-2.4,4.2-7.8,1.8-11.3C1276,1016.4,1273.6,1015.1,1271.2,1015.1L1271.2,1015.1z M1271.3,1027.2c-1.9,0-2.6-0.5-3.2-1.2
		c-0.5-0.9-0.8-2.1-0.6-3.2c0.1-0.6,0.4-1.8,1.3-2.4c1.4-1,1.9-1.1,2.4-1.1c1,0,2.3,0.5,3.4,1.4c0.4,0.8,0.6,2,0.5,3
		c-0.1,0.6-0.4,1.8-1.3,2.4C1272.2,1027.1,1271.8,1027.2,1271.3,1027.2L1271.3,1027.2z M876.8,1015.1c-2.4,0-4.7,1.2-6.6,3
		c-2.4,3.6-1.8,8.4,1.8,11.3c1.2,1.2,3,1.8,4.7,1.8c2.4,0,4.7-1.2,6.6-3c2.4-3.6,1.8-8.4-1.8-11.3
		C880.5,1015.7,878.7,1015.1,876.8,1015.1L876.8,1015.1z M876.7,1027.1c-0.9,0-1.5-0.3-1.9-0.6l-0.1-0.1l-0.1-0.1
		c-1.8-1.4-2.3-3.7-1.2-5.6c1.1-0.9,2.4-1.4,3.4-1.4c0.9,0,1.5,0.3,1.9,0.6l0.1,0.1l0.1,0.1c1.8,1.4,2.3,3.7,1.2,5.6
		C879.1,1026.6,877.9,1027.1,876.7,1027.1L876.7,1027.1z M1317.4,1158.4c-4.2,0-7.8,3.6-7.8,7.8c0,4.2,3.6,7.8,7.8,7.8
		c4.2,0,7.8-3.6,7.8-7.8C1325.8,1162,1322.1,1158.4,1317.4,1158.4L1317.4,1158.4z M1317.3,1169.9c-2,0-3.7-1.8-3.7-3.7
		c0-2,1.9-3.7,3.8-3.7c1.3,0,2.5,0.4,3.1,1.2c0.5,0.5,0.6,1.1,0.5,1.9v0.3v0.3C1321,1168.2,1319.3,1169.9,1317.3,1169.9
		L1317.3,1169.9z M830.8,1158.4c-4.2,0-7.8,3.6-7.8,7.8c0,4.2,3.6,7.8,7.8,7.8s7.8-3.6,7.8-7.8
		C838.5,1162,834.9,1158.4,830.8,1158.4L830.8,1158.4z M830.8,1169.9c-2,0-3.7-1.8-3.7-3.7c0-2,1.8-3.7,3.7-3.7c2,0,3.7,1.8,3.7,3.7
		C834.5,1168.2,832.7,1169.9,830.8,1169.9L830.8,1169.9z M1305.3,1233.2c-3.6,0-6.6,2.4-7.8,5.4c-1.2,4.2,1.2,9,5.4,10.2
		c0.6,0,1.8,0.6,2.4,0.6c3.6,0,6.6-2.4,7.8-5.4c1.2-4.2-1.2-9-5.4-10.2C1307.2,1233.2,1306.6,1233.2,1305.3,1233.2L1305.3,1233.2z
		 M1305.6,1245.2c-0.1,0-0.1,0-0.2-0.1c-0.5-0.2-1-0.3-1.7-0.4c-1-0.4-1.7-1.3-2-1.9c-0.5-0.9-0.6-2.1-0.4-3
		c0.7-1.1,2.1-2.5,3.9-2.5c0.1,0,0.1,0,0.1,0s0,0-0.1,0l0.2,0.1l1,0.3c1.2,0.3,1.9,1.3,2.2,1.9c0.5,0.9,0.6,2.1,0.4,3
		C1308.6,1243.8,1307.3,1245.1,1305.6,1245.2L1305.6,1245.2z M842.7,1233.2c-0.6,0-1.8,0-2.4,0.6c-4.2,1.2-6.6,6-5.4,10.2
		c1.2,3.6,4.2,5.4,7.8,5.4c0.6,0,1.8,0,2.4-0.6c4.2-1.2,6.6-6,5.4-10.2C848.7,1235.7,845.7,1233.2,842.7,1233.2L842.7,1233.2z
		 M842.7,1237.4c1,0,2.7,1,3.9,2.9c0.3,2-0.9,4.1-2.7,4.6l-1,0.3l-0.1,0.1h-0.1c-2.9,0-3.6-1.8-3.8-2.5c-0.5-2.1,0.7-4.4,2.6-5.1
		l1-0.3H842.7L842.7,1237.4L842.7,1237.4L842.7,1237.4z M1271.2,1301c-2.4,0-4.7,1.2-6.6,3c-2.4,3.6-1.8,8.4,1.8,11.3
		c1.2,1.2,3,1.8,4.7,1.8c2.4,0,4.7-1.2,6.6-3c2.4-3.6,1.8-8.4-1.8-11.3C1274.2,1301.6,1272.4,1301,1271.2,1301L1271.2,1301z
		 M1271.1,1312.9c-0.9,0-1.5-0.3-1.9-0.6l-0.1-0.1l-0.1-0.1c-1.8-1.4-2.3-3.7-1.2-5.6c1.1-0.8,2.4-1.4,3.4-1.4
		c0.2,0,1.1,0.2,2.3,0.9c1.7,1.4,2.1,3.6,1,5.5C1273.5,1312.4,1272.2,1312.9,1271.1,1312.9L1271.1,1312.9z M876.8,1301
		c-1.8,0-3,0.6-4.7,1.8c-3.6,2.4-4.2,7.8-1.8,11.3c1.8,2.4,4.2,3,6.6,3c1.8,0,3-0.6,4.7-1.8c3.6-2.4,4.2-7.8,1.8-11.3
		C882.2,1302.2,879.2,1301,876.8,1301L876.8,1301z M877,1313c-1.9,0-2.6-0.5-3.2-1.2c-0.5-0.9-0.8-2.1-0.6-3.2
		c0.1-0.6,0.4-1.8,1.3-2.4c1.4-1,1.9-1.1,2.4-1.1c1.3,0,2.9,0.7,3.2,1.1c0.6,0.9,0.8,2.2,0.7,3.3c-0.1,0.6-0.4,1.8-1.3,2.4
		C877.9,1312.9,877.5,1313,877,1313L877,1313z M1149.5,1389.7c-0.6,0-1.8,0-2.4,0.6c-4.2,1.2-6.6,6-5.4,10.2
		c1.2,3.6,4.2,5.4,7.8,5.4c0.6,0,1.8,0,2.4-0.6c4.2-1.2,6.6-6,5.4-10.2C1155.5,1391.5,1152.5,1389.7,1149.5,1389.7L1149.5,1389.7z
		 M1149.5,1401.7c-2.9,0-3.6-1.8-3.8-2.5c-0.5-2.1,0.7-4.4,2.6-5.1l1-0.3l0.2-0.1c1.5,0,2.9,1,3.9,2.8c0.4,2-0.8,4.2-2.7,4.7l-1,0.3
		L1149.5,1401.7L1149.5,1401.7L1149.5,1401.7z M999.2,1389.7c-3.6,0-6.6,2.4-7.8,5.4c-1.2,4.2,1.2,9,5.4,10.2c0.6,0,1.8,0.6,2.4,0.6
		c3.6,0,6.6-2.4,7.8-5.4c1.2-4.2-1.2-9-5.4-10.2C1000.3,1389.7,999.8,1389.7,999.2,1389.7L999.2,1389.7z M999.5,1401.7
		c-0.1,0-0.1,0-0.2-0.1c-0.5-0.2-1-0.3-1.7-0.4c-1-0.4-1.7-1.3-2-1.9c-0.5-0.9-0.6-2.1-0.4-3c0.6-1.3,2.1-2.6,3.9-2.6c0,0,0,0,0.1,0
		s0.2,0.1,0.4,0.2l0.3,0.2l0.4,0.1c1.2,0.3,1.9,1.3,2.2,1.9c0.5,0.9,0.6,2.1,0.4,3C1002.5,1400.4,1001.1,1401.6,999.5,1401.7
		L999.5,1401.7z M1074,1401.6c-4.2,0-7.8,3.6-7.8,7.8c0,4.2,3.6,7.8,7.8,7.8c4.2,0,7.8-3.6,7.8-7.8
		C1081.9,1405.2,1078.3,1401.6,1074,1401.6L1074,1401.6z M1074,1413.2c-2,0-3.7-1.8-3.7-3.7c0-2,1.9-3.7,3.7-3.7
		c2,0,3.7,1.8,3.7,3.7C1077.7,1411.4,1076,1413.2,1074,1413.2L1074,1413.2z"/>
</g>
</svg>
